<svg id="_x31__x2C_5" enable-background="new 0 0 36 36" height="512" viewBox="0 0 36 36" width="512" xmlns="http://www.w3.org/2000/svg"><path d="m4.167 8.377c0 6.917-3.583 11.667-3.583 15s1.916 10.333 17.249 10.333 17.583-9.417 17.583-13.083c.001-17.167-31.249-24.5-31.249-12.25z" fill="#efefef"/><g fill="#a4afc1"><path d="m31.74 2.955h2v1h-2z" transform="matrix(.707 -.707 .707 .707 7.147 24.163)"/><path d="m32.594 6.344h1v2h-1z" transform="matrix(.707 -.707 .707 .707 4.5 25.552)"/><path d="m28.527 2.278h1v2h-1z" transform="matrix(.707 -.707 .707 .707 6.184 21.486)"/></g><path d="m9.75 30v-2c0-4.556 3.694-8.25 8.25-8.25s8.25 3.694 8.25 8.25v2z" fill="#f3f3f1"/><path d="m21.75 18.25h-7.5c-1.105 0-2-.895-2-2v-5.5c0-1.105.895-2 2-2h7.5c1.105 0 2 .895 2 2v5.5c0 1.105-.895 2-2 2z" fill="#f3f3f1"/><path d="m9.25 12.25h3v4h-3z" fill="#2fdf84"/><path d="m23.75 12.25h3v4h-3z" fill="#2fdf84"/><path d="m9.25 12.25h2.25v4h-2.25z" fill="#00b871"/><path d="m23.75 12.25h2.25v4h-2.25z" fill="#00b871"/><path d="m19.125 19.836c-.369-.05-.742-.086-1.125-.086-4.556 0-8.25 3.694-8.25 8.25v2h2.25v-2c0-4.174 3.102-7.614 7.125-8.164z" fill="#d5dbe1"/><path d="m14.5 16.25v-5.5c0-1.105.895-2 2-2h-2.25c-1.105 0-2 .895-2 2v5.5c0 1.105.895 2 2 2h2.25c-1.105 0-2-.895-2-2z" fill="#d5dbe1"/><path d="m27 30h-1.5v-2c0-4.136-3.364-7.5-7.5-7.5s-7.5 3.364-7.5 7.5v2h-1.5v-2c0-4.962 4.037-9 9-9s9 4.038 9 9z"/><path d="m21.75 19h-7.5c-1.517 0-2.75-1.233-2.75-2.75v-5.5c0-1.517 1.233-2.75 2.75-2.75h7.5c1.517 0 2.75 1.233 2.75 2.75v5.5c0 1.517-1.233 2.75-2.75 2.75zm-7.5-9.5c-.689 0-1.25.561-1.25 1.25v5.5c0 .689.561 1.25 1.25 1.25h7.5c.689 0 1.25-.561 1.25-1.25v-5.5c0-.689-.561-1.25-1.25-1.25z"/><path d="m20.5 14.5c-.827 0-1.5-.673-1.5-1.5s.673-1.5 1.5-1.5 1.5.673 1.5 1.5-.673 1.5-1.5 1.5z"/><path d="m15.5 14.5c-.827 0-1.5-.673-1.5-1.5s.673-1.5 1.5-1.5 1.5.673 1.5 1.5-.673 1.5-1.5 1.5z"/><path d="m12.25 17h-3c-.414 0-.75-.336-.75-.75v-4c0-.414.336-.75.75-.75h3c.414 0 .75.336.75.75v4c0 .414-.336.75-.75.75zm-2.25-1.5h1.5v-2.5h-1.5z"/><path d="m26.75 17h-3c-.414 0-.75-.336-.75-.75v-4c0-.414.336-.75.75-.75h3c.414 0 .75.336.75.75v4c0 .414-.336.75-.75.75zm-2.25-1.5h1.5v-2.5h-1.5z"/><path d="m8.5 6h1.5v6.929h-1.5z"/><path d="m26 6h1.5v6.929h-1.5z"/><path d="m17.25 18.75h1.5v7.25h-1.5z"/></svg>