<svg id="_x31__x2C_5" enable-background="new 0 0 36 36" height="512" viewBox="0 0 36 36" width="512" xmlns="http://www.w3.org/2000/svg"><path d="m8.377 31.833c6.917 0 11.667 3.583 15 3.583s10.333-1.916 10.333-17.249-9.417-17.584-13.083-17.584c-17.167 0-24.5 31.25-12.25 31.25z" fill="#efefef"/><path d="m25.5 6c-.827 0-1.5-.673-1.5-1.5s.673-1.5 1.5-1.5 1.5.673 1.5 1.5-.673 1.5-1.5 1.5zm0-2c-.275 0-.5.224-.5.5s.225.5.5.5.5-.224.5-.5-.225-.5-.5-.5z" fill="#a4afc1"/><path d="m14.786 6.75c-2.068 0-3.75 1.536-3.75 3.424 0 .342.054.675.161.988l.006.006c-.056-.004-.11-.015-.167-.015-2.368 0-4.286 1.751-4.286 3.913 0 1.389.793 2.602 1.982 3.297-.579.724-.911 1.614-.911 2.573 0 1.947 1.382 3.6 3.3 4.177-.054.225-.086.47-.086.714 0 1.888 1.682 3.424 3.75 3.424 1.371 0 2.561-.675 3.214-1.673v-19.155c-.653-.998-1.842-1.673-3.213-1.673z" fill="#f3f3f1"/><path d="m13.286 25.826c0-.245.032-.489.086-.714-1.918-.577-3.3-2.23-3.3-4.177 0-.959.332-1.849.911-2.573-1.19-.695-1.983-1.908-1.983-3.297 0-2.162 1.918-3.913 4.286-3.913.057 0 .111.011.167.015l-.006-.006c-.107-.313-.161-.646-.161-.988 0-1.534 1.118-2.82 2.643-3.254-.361-.106-.742-.17-1.143-.17-2.068 0-3.75 1.536-3.75 3.424 0 .342.054.675.161.988l.006.006c-.056-.004-.11-.015-.167-.015-2.368 0-4.286 1.751-4.286 3.913 0 1.389.793 2.602 1.982 3.297-.579.724-.911 1.614-.911 2.573 0 1.947 1.382 3.6 3.3 4.177-.054.225-.086.47-.086.714 0 1.888 1.682 3.424 3.75 3.424.4 0 .782-.063 1.143-.17-1.525-.434-2.642-1.72-2.642-3.254z" fill="#d5dbe1"/><path d="m28.5 11h1.5v6h-1.5z"/><path d="m20 11h1.5v6h-1.5z"/><path d="m25.25 17h-.5c-.965 0-1.75-.785-1.75-1.75v-2.5c0-.965.785-1.75 1.75-1.75h.5c.965 0 1.75.785 1.75 1.75v2.5c0 .965-.785 1.75-1.75 1.75zm-.5-4.5c-.138 0-.25.112-.25.25v2.5c0 .138.112.25.25.25h.5c.138 0 .25-.112.25-.25v-2.5c0-.138-.112-.25-.25-.25z"/><path d="m25.5 19h1.5v6h-1.5z"/><path d="m22.25 25h-.75c-.965 0-1.75-.785-1.75-1.75v-2.5c0-.965.785-1.75 1.75-1.75h.75c.965 0 1.75.785 1.75 1.75v2.5c0 .965-.785 1.75-1.75 1.75zm-.75-4.5c-.138 0-.25.112-.25.25v2.5c0 .138.112.25.25.25h.75c.138 0 .25-.112.25-.25v-2.5c0-.138-.112-.25-.25-.25z"/><path d="m28.5 19h1.5v6h-1.5z"/><path d="m14.786 30c-2.481 0-4.5-1.873-4.5-4.174 0-.073.002-.145.007-.218-1.951-.833-3.222-2.642-3.222-4.674 0-.843.215-1.653.627-2.379-1.075-.878-1.698-2.136-1.698-3.49 0-2.335 1.863-4.275 4.286-4.611v-.28c0-2.301 2.019-4.174 4.5-4.174 1.581 0 3.017.752 3.842 2.012.079.122.122.265.122.411v19.154c0 .146-.043.289-.122.411-.825 1.26-2.261 2.012-3.842 2.012zm-3.75-18.098c-1.95 0-3.536 1.419-3.536 3.163 0 1.07.603 2.06 1.61 2.648.188.11.319.296.359.511s-.015.436-.151.606c-.489.611-.747 1.339-.747 2.104 0 1.571 1.111 2.961 2.766 3.459.381.115.605.506.514.893-.042.177-.064.363-.064.54 0 1.474 1.346 2.674 3 2.674.981 0 1.905-.44 2.464-1.162v-18.676c-.56-.722-1.483-1.162-2.465-1.162-1.654 0-3 1.2-3 2.674v.321c1.232.31 2.143 1.365 2.143 2.614v.75h-1.5v-.75c0-.654-.638-1.207-1.393-1.207z"/><path d="m12.244 25.961c-.602 0-1.078-.094-1.181-.116l-.731-.156.31-1.464.732.152c.384.081 1.609.209 2.158-.238.126-.103.294-.292.294-.759 0-.914-.293-1.207-1.207-1.207h-.75v-1.5h.75c1.746 0 2.707.961 2.707 2.707 0 1.022-.463 1.612-.852 1.927-.648.525-1.525.654-2.23.654z"/></svg>