<svg id="_x31__x2C_5" enable-background="new 0 0 36 36" height="512" viewBox="0 0 36 36" width="512" xmlns="http://www.w3.org/2000/svg"><path d="m31.833 27.623c0-6.917 3.583-11.667 3.583-15s-1.916-10.333-17.249-10.333-17.584 9.417-17.584 13.083c0 17.167 31.25 24.5 31.25 12.25z" fill="#efefef"/><path d="m4.375 2.25h1v2h-1z" fill="#a4afc1"/><path d="m1.125 5.25h2v1h-2z" fill="#a4afc1"/><path d="m9.75 10.75c-1.105 0-2-.895-2-2v18.5c0 1.105.895 2 2 2h17.5v-18.5z" fill="#f3f3f1"/><g fill="#2fdf84"><path d="m25.25 10.75h-15.5c-1.105 0-2-.895-2-2s.895-2 2-2h15.5z"/><circle cx="18" cy="15" r="1.25"/><circle cx="13.5" cy="20" r="1.25"/><circle cx="22.5" cy="20" r="1.25"/></g><g fill="#00b871"><path d="m10 8.75c0-1.105.895-2 2-2h-2.25c-1.105 0-2 .895-2 2s.895 2 2 2h2.25c-1.105 0-2-.895-2-2z"/><path d="m19 15c0-.19.049-.365.125-.526-.2-.425-.625-.724-1.125-.724-.69 0-1.25.56-1.25 1.25s.56 1.25 1.25 1.25c.5 0 .925-.299 1.125-.724-.076-.161-.125-.336-.125-.526z"/><path d="m14.5 20c0-.19.049-.365.125-.526-.2-.425-.625-.724-1.125-.724-.69 0-1.25.56-1.25 1.25s.56 1.25 1.25 1.25c.5 0 .925-.299 1.125-.724-.076-.161-.125-.336-.125-.526z"/><path d="m23.5 20c0-.19.049-.365.125-.526-.2-.425-.625-.724-1.125-.724-.69 0-1.25.56-1.25 1.25s.56 1.25 1.25 1.25c.5 0 .925-.299 1.125-.724-.076-.161-.125-.336-.125-.526z"/></g><path d="m10 27.25v-16.5h-.25c-1.105 0-2-.895-2-2v18.5c0 1.105.895 2 2 2h2.25c-1.105 0-2-.895-2-2z" fill="#d5dbe1"/><path d="m17.25 16.5h1.5v12.5h-1.5z"/><path d="m18 17c-1.103 0-2-.897-2-2s.897-2 2-2 2 .897 2 2-.897 2-2 2zm0-2.5c-.276 0-.5.224-.5.5s.224.5.5.5.5-.224.5-.5-.224-.5-.5-.5z"/><path d="m13.5 22c-1.103 0-2-.897-2-2s.897-2 2-2 2 .897 2 2-.897 2-2 2zm0-2.5c-.276 0-.5.225-.5.5s.224.5.5.5.5-.225.5-.5-.224-.5-.5-.5z"/><path d="m22.5 22c-1.103 0-2-.897-2-2s.897-2 2-2 2 .897 2 2-.897 2-2 2zm0-2.5c-.276 0-.5.225-.5.5s.224.5.5.5.5-.225.5-.5-.224-.5-.5-.5z"/><path d="m18 29.75c-.285 0-.546-.162-.672-.417l-3.8-7.68 1.345-.666 3.127 6.322 3.127-6.321 1.345.666-3.8 7.68c-.126.254-.387.416-.672.416z"/><path d="m27.25 30h-17.5c-1.517 0-2.75-1.233-2.75-2.75v-18.5c0-1.517 1.233-2.75 2.75-2.75h15.5c.414 0 .75.336.75.75v3.25h1.25c.414 0 .75.336.75.75v18.5c0 .414-.336.75-.75.75zm-18.75-18.801v16.051c0 .689.561 1.25 1.25 1.25h16.75v-17h-16.75c-.45 0-.875-.108-1.25-.301zm1.25-3.699c-.689 0-1.25.561-1.25 1.25s.561 1.25 1.25 1.25h14.75v-2.5z"/></svg>