<svg id="_x31__x2C_5" enable-background="new 0 0 36 36" height="512" viewBox="0 0 36 36" width="512" xmlns="http://www.w3.org/2000/svg"><path d="m31.833 8.377c0 6.917 3.583 11.667 3.583 15s-1.916 10.333-17.249 10.333-17.584-9.417-17.584-13.083c0-17.167 31.25-24.5 31.25-12.25z" fill="#efefef"/><path d="m3.497 6c-.331 0-.652-.109-.918-.316-.316-.246-.518-.601-.567-.998-.05-.397.058-.79.304-1.107.246-.316.601-.518.998-.567.395-.052.79.058 1.107.304s.518.601.567.998c.05.397-.059.791-.304 1.107-.246.316-.601.518-.998.567-.063.008-.126.012-.189.012zm.003-2c-.021 0-.041.001-.062.004-.273.034-.468.285-.434.558s.283.467.558.434c.273-.034.468-.285.434-.558-.032-.252-.247-.438-.496-.438z" fill="#a4afc1"/><path d="m9.75 10.75c-1.105 0-2-.895-2-2v18.5c0 1.105.895 2 2 2h17.5v-18.5z" fill="#f3f3f1"/><path d="m25.25 10.75h-15.5c-1.105 0-2-.895-2-2s.895-2 2-2h15.5z" fill="#2fdf84"/><path d="m10 8.75c0-1.105.895-2 2-2h-2.25c-1.105 0-2 .895-2 2s.895 2 2 2h2.25c-1.105 0-2-.895-2-2z" fill="#00b871"/><path d="m10 27.25v-16.5h-.25c-1.105 0-2-.895-2-2v18.5c0 1.105.895 2 2 2h2.25c-1.105 0-2-.895-2-2z" fill="#d5dbe1"/><path d="m18 23h-1.5v-4c0-.276-.224-.5-.5-.5s-.5.224-.5.5v4h-1.5v-4c0-1.103.897-2 2-2s2 .897 2 2z"/><path d="m14.75 20h2.5v1.5h-2.5z"/><path d="m20 17h1.5v6h-1.5z"/><path d="m27.25 30h-17.5c-1.517 0-2.75-1.233-2.75-2.75v-18.5c0-1.517 1.233-2.75 2.75-2.75h15.5c.414 0 .75.336.75.75v3.25h1.25c.414 0 .75.336.75.75v18.5c0 .414-.336.75-.75.75zm-18.75-18.801v16.051c0 .689.561 1.25 1.25 1.25h16.75v-17h-16.75c-.45 0-.875-.108-1.25-.301zm1.25-3.699c-.689 0-1.25.561-1.25 1.25s.561 1.25 1.25 1.25h14.75v-2.5z"/></svg>