<svg id="_x31__x2C_5" enable-background="new 0 0 36 36" height="512" viewBox="0 0 36 36" width="512" xmlns="http://www.w3.org/2000/svg"><path d="m31.833 8.377c0 6.917 3.583 11.667 3.583 15s-1.916 10.333-17.249 10.333-17.584-9.417-17.584-13.083c0-17.167 31.25-24.5 31.25-12.25z" fill="#efefef"/><path d="m31.5 6c-.827 0-1.5-.673-1.5-1.5s.673-1.5 1.5-1.5 1.5.673 1.5 1.5-.673 1.5-1.5 1.5zm0-2c-.276 0-.5.224-.5.5s.224.5.5.5.5-.224.5-.5-.224-.5-.5-.5z" fill="#a4afc1"/><path d="m29.25 15.065c0-2.162-1.918-3.913-4.286-3.913-.054 0-.107.004-.16.007.107-.312.16-.644.16-.985 0-1.888-1.682-3.424-3.75-3.424-1.371 0-2.561.675-3.214 1.673-.654-.998-1.843-1.673-3.214-1.673-2.068 0-3.75 1.536-3.75 3.424 0 .337.053.664.157.972-.053.003-.108.006-.157.006-2.368 0-4.286 1.751-4.286 3.913 0 1.389.793 2.602 1.982 3.297-.579.724-.911 1.614-.911 2.573 0 1.947 1.382 3.6 3.3 4.177-.054.225-.086.47-.086.714 0 1.888 1.682 3.424 3.75 3.424 1.371 0 2.561-.675 3.214-1.673.654.998 1.843 1.673 3.214 1.673 2.068 0 3.75-1.536 3.75-3.424 0-.245-.032-.489-.086-.714 1.918-.577 3.3-2.23 3.3-4.177 0-.959-.332-1.849-.911-2.573 1.191-.695 1.984-1.908 1.984-3.297z" fill="#f3f3f1"/><path d="m13.286 25.826c0-.245.032-.489.086-.714-1.918-.577-3.3-2.23-3.3-4.177 0-.959.332-1.849.911-2.573-1.19-.695-1.983-1.908-1.983-3.297 0-2.162 1.918-3.913 4.286-3.913.048 0 .103-.003.157-.006-.104-.309-.157-.635-.157-.972 0-1.534 1.118-2.82 2.643-3.254-.361-.106-.742-.17-1.143-.17-2.068 0-3.75 1.536-3.75 3.424 0 .337.053.664.157.972-.053.003-.108.006-.157.006-2.368 0-4.286 1.751-4.286 3.913 0 1.389.793 2.602 1.982 3.297-.579.724-.911 1.614-.911 2.573 0 1.947 1.382 3.6 3.3 4.177-.054.225-.086.47-.086.714 0 1.888 1.682 3.424 3.75 3.424.4 0 .782-.063 1.143-.17-1.525-.434-2.642-1.72-2.642-3.254z" fill="#d5dbe1"/><path d="m18 21h-1.5v-4c0-.276-.224-.5-.5-.5s-.5.224-.5.5v4h-1.5v-4c0-1.103.897-2 2-2s2 .897 2 2z"/><path d="m14.75 18h2.5v1.5h-2.5z"/><path d="m20 15h1.5v6h-1.5z"/><path d="m25.514 11.405-1.42-.485c.08-.233.121-.484.121-.746 0-1.474-1.346-2.674-3-2.674-1.073 0-2.04.499-2.587 1.334-.277.423-.978.423-1.255 0-.547-.835-1.515-1.334-2.587-1.334-1.654 0-3 1.2-3 2.674 0 .261.041.512.121.746l-1.42.485c-.133-.391-.201-.805-.201-1.231 0-2.301 2.019-4.174 4.5-4.174 1.233 0 2.378.458 3.214 1.258.836-.8 1.981-1.258 3.214-1.258 2.481 0 4.5 1.873 4.5 4.174 0 .426-.067.84-.2 1.231z"/><path d="m21.214 30c-1.233 0-2.378-.458-3.214-1.258-.836.8-1.981 1.258-3.214 1.258-2.481 0-4.5-1.873-4.5-4.174 0-.072.002-.146.006-.218-1.951-.833-3.221-2.641-3.221-4.673 0-.843.215-1.653.626-2.379-1.074-.879-1.697-2.137-1.697-3.491 0-2.571 2.259-4.663 5.036-4.663 1.595 0 2.893 1.214 2.893 2.707v.75h-1.5v-.75c0-.666-.625-1.207-1.393-1.207-1.95 0-3.536 1.419-3.536 3.163 0 1.07.602 2.06 1.61 2.649.188.11.319.296.359.51s-.015.435-.151.605c-.488.612-.747 1.34-.747 2.105 0 1.571 1.112 2.961 2.767 3.459.38.115.605.506.513.893-.043.179-.065.366-.065.54 0 1.474 1.346 2.674 3 2.674 1.073 0 2.04-.499 2.587-1.334.277-.423.978-.423 1.255 0 .547.835 1.514 1.334 2.587 1.334 1.654 0 3-1.2 3-2.674 0-.174-.022-.361-.065-.54-.092-.387.133-.778.513-.893 1.655-.498 2.767-1.888 2.767-3.459 0-.765-.258-1.493-.747-2.105-.136-.17-.191-.391-.151-.605s.171-.4.359-.51c1.008-.589 1.61-1.579 1.61-2.649 0-1.744-1.586-3.163-3.536-3.163-.768 0-1.393.541-1.393 1.207s.625 1.207 1.393 1.207h.75v1.5h-.75c-1.595 0-2.893-1.214-2.893-2.707s1.298-2.707 2.893-2.707c2.777 0 5.036 2.092 5.036 4.663 0 1.354-.623 2.612-1.698 3.49.412.727.626 1.537.626 2.379 0 2.032-1.27 3.841-3.221 4.673.004.073.006.146.006.218 0 2.302-2.018 4.175-4.5 4.175z"/></svg>