<svg id="_x31__x2C_5" enable-background="new 0 0 36 36" height="512" viewBox="0 0 36 36" width="512" xmlns="http://www.w3.org/2000/svg"><path d="m4.167 8.377c0 6.917-3.583 11.667-3.583 15s1.916 10.333 17.249 10.333 17.583-9.417 17.583-13.083c.001-17.167-31.249-24.5-31.249-12.25z" fill="#efefef"/><path d="m29.625 2.25h1v2h-1z" fill="#a4afc1"/><path d="m31.875 5.25h2v1h-2z" fill="#a4afc1"/><path d="m27.25 25.75c1.1 0 2-.9 2-2v-11.5c0-1.1-.9-2-2-2h-18.5c-1.1 0-2 .9-2 2v11.5c0 1.1.9 2 2 2z" fill="#f3f3f1"/><g fill="#2fdf84"><circle cx="18" cy="18" r="1.25"/><circle cx="11" cy="18" r="1.25"/><circle cx="25" cy="18" r="1.25"/></g><g fill="#00b871"><path d="m19 18c0-.19.049-.365.125-.526-.2-.425-.625-.724-1.125-.724-.69 0-1.25.56-1.25 1.25s.56 1.25 1.25 1.25c.5 0 .925-.299 1.125-.724-.076-.161-.125-.336-.125-.526z"/><path d="m12 18c0-.19.049-.365.125-.526-.2-.425-.625-.724-1.125-.724-.69 0-1.25.56-1.25 1.25s.56 1.25 1.25 1.25c.5 0 .925-.299 1.125-.724-.076-.161-.125-.336-.125-.526z"/><path d="m26 18c0-.19.049-.365.125-.526-.2-.425-.625-.724-1.125-.724-.69 0-1.25.56-1.25 1.25s.56 1.25 1.25 1.25c.5 0 .925-.299 1.125-.724-.076-.161-.125-.336-.125-.526z"/></g><path d="m9 23.75v-11.5c0-1.1.9-2 2-2h-2.25c-1.1 0-2 .9-2 2v11.5c0 1.1.9 2 2 2h2.25c-1.1 0-2-.9-2-2z" fill="#d5dbe1"/><path d="m18 20c-1.103 0-2-.897-2-2s.897-2 2-2 2 .897 2 2-.897 2-2 2zm0-2.5c-.276 0-.5.225-.5.5s.224.5.5.5.5-.225.5-.5-.224-.5-.5-.5z"/><path d="m17.25 18.75h1.5v11.25h-1.5z"/><path d="m15.25 30h-1.5v-3.689l-3.28-3.28c-.141-.141-.22-.331-.22-.53v-3.75h1.5v3.439l3.28 3.28c.141.141.22.331.22.53z"/><path d="m11 20c-1.103 0-2-.897-2-2s.897-2 2-2 2 .897 2 2-.897 2-2 2zm0-2.5c-.276 0-.5.225-.5.5s.224.5.5.5.5-.225.5-.5-.224-.5-.5-.5z"/><path d="m22.25 30h-1.5v-4c0-.199.079-.39.22-.53l3.28-3.28v-3.44h1.5v3.75c0 .199-.079.39-.22.53l-3.28 3.28z"/><path d="m25 20c-1.103 0-2-.897-2-2s.897-2 2-2 2 .897 2 2-.897 2-2 2zm0-2.5c-.276 0-.5.225-.5.5s.224.5.5.5.5-.225.5-.5-.224-.5-.5-.5z"/><path d="m27.25 26.5h-1.25v-1.5h1.25c.689 0 1.25-.561 1.25-1.25v-11.5c0-.689-.561-1.25-1.25-1.25h-18.5c-.689 0-1.25.561-1.25 1.25v11.5c0 .689.561 1.25 1.25 1.25h1.25v1.5h-1.25c-1.517 0-2.75-1.233-2.75-2.75v-11.5c0-1.517 1.233-2.75 2.75-2.75h18.5c1.517 0 2.75 1.233 2.75 2.75v11.5c0 1.517-1.233 2.75-2.75 2.75z"/><path d="m22.5 10h-1.5v-2.25c0-.138-.112-.25-.25-.25h-5.5c-.138 0-.25.112-.25.25v2.25h-1.5v-2.25c0-.965.785-1.75 1.75-1.75h5.5c.965 0 1.75.785 1.75 1.75z"/></svg>