<svg id="_x31__x2C_5" enable-background="new 0 0 36 36" height="512" viewBox="0 0 36 36" width="512" xmlns="http://www.w3.org/2000/svg"><path d="m4.167 8.377c0 6.917-3.583 11.667-3.583 15s1.916 10.333 17.249 10.333 17.583-9.417 17.583-13.083c.001-17.167-31.249-24.5-31.249-12.25z" fill="#efefef"/><path d="m31.5 6c-.827 0-1.5-.673-1.5-1.5s.673-1.5 1.5-1.5 1.5.673 1.5 1.5-.673 1.5-1.5 1.5zm0-2c-.276 0-.5.225-.5.5s.224.5.5.5.5-.225.5-.5-.224-.5-.5-.5z" fill="#a4afc1"/><path d="m6.75 11.25h22.5v15c0 1.105-.895 2-2 2h-18.5c-1.105 0-2-.895-2-2z" fill="#f3f3f1"/><path d="m25.25 20.109c0-1.393-1.236-2.522-2.762-2.522-.028 0-.069-.014-.1-.018.064-.195.1-.4.1-.612 0-1.217-1.084-2.206-2.417-2.206-.884 0-1.65.435-2.071 1.078-.421-.643-1.188-1.078-2.071-1.078-1.333 0-2.417.99-2.417 2.206 0 .212.036.418.1.613-.033.004-.069.017-.1.017-1.526 0-2.762 1.128-2.762 2.522 0 .895.511 1.677 1.277 2.125-.373.467-.587 1.04-.587 1.658 0 1.255.891 2.32 2.127 2.692-.035.145-.055.303-.055.46 0 1.217 1.084 2.207 2.417 2.207.884 0 1.65-.435 2.071-1.078.421.643 1.188 1.078 2.071 1.078 1.333 0 2.417-.99 2.417-2.207 0-.158-.021-.315-.055-.46 1.236-.372 2.127-1.437 2.127-2.692 0-.618-.214-1.192-.587-1.658.766-.448 1.277-1.23 1.277-2.125z" fill="#2fdf84"/><path d="m8.75 7.75h18.5c1.105 0 2 .895 2 2v1.5h-22.5v-1.5c0-1.105.895-2 2-2z" fill="#2fdf84"/><path d="m15.762 27.043c0-.158.021-.315.055-.46-1.236-.372-2.127-1.437-2.127-2.692 0-.618.214-1.192.587-1.658-.766-.447-1.277-1.229-1.277-2.124 0-1.393 1.236-2.522 2.762-2.522.031 0 .067-.013.1-.017-.064-.195-.1-.401-.1-.613 0-.844.527-1.57 1.292-1.941-.336-.164-.716-.266-1.125-.266-1.333 0-2.417.99-2.417 2.206 0 .212.036.418.1.613-.033.004-.069.017-.1.017-1.526 0-2.762 1.128-2.762 2.522 0 .895.511 1.677 1.277 2.125-.373.467-.587 1.04-.587 1.658 0 1.255.891 2.32 2.127 2.692-.035.145-.055.303-.055.46 0 1.217 1.084 2.207 2.417 2.207.409 0 .789-.101 1.125-.266-.765-.371-1.292-1.097-1.292-1.941z" fill="#00b871"/><path d="m11 7.75h-2.25c-1.105 0-2 .895-2 2v1.5h2.25v-1.5c0-1.105.895-2 2-2z" fill="#00b871"/><path d="m9 26.25v-15h-2.25v15c0 1.105.895 2 2 2h2.25c-1.105 0-2-.895-2-2z" fill="#d5dbe1"/><path d="m14.063 27.344c-.373 0-.674-.043-.787-.063l.246-1.479c.568.094 1.207.016 1.312-.11 0-.133-.017-.18-.023-.188 0-.001-.107-.096-.551-.096v-1.5c1.872 0 2.074 1.223 2.074 1.749 0 .478-.186.888-.536 1.185-.483.407-1.186.502-1.735.502z"/><path d="m20.071 30c-.777 0-1.505-.261-2.071-.722-.566.461-1.294.722-2.071.722-1.736 0-3.15-1.311-3.167-2.928-1.26-.607-2.071-1.821-2.071-3.181 0-.517.115-1.015.336-1.471-.653-.606-1.027-1.429-1.027-2.312 0-1.804 1.575-3.271 3.512-3.271 1.175 0 2.131.902 2.131 2.011v.75h-1.5v-.75c0-.276-.289-.511-.631-.511-1.109 0-2.012.795-2.012 1.771 0 .595.338 1.146.905 1.478.188.109.319.296.359.51.04.215-.015.436-.151.605-.277.347-.423.758-.423 1.19 0 .894.64 1.687 1.593 1.974.38.114.605.505.513.892-.023.097-.035.196-.035.287 0 .803.748 1.456 1.667 1.456.592 0 1.146-.283 1.444-.739.277-.422.978-.422 1.255 0 .298.456.852.739 1.444.739.919 0 1.667-.653 1.667-1.456 0-.091-.012-.19-.035-.287-.092-.387.133-.777.513-.892.953-.287 1.593-1.08 1.593-1.974 0-.433-.146-.844-.423-1.19-.136-.17-.191-.391-.151-.605s.171-.4.359-.51c.567-.331.905-.883.905-1.478 0-.977-.902-1.771-2.012-1.771-.342 0-.631.234-.631.511v.75h-1.5v-.75c0-1.108.956-2.011 2.131-2.011 1.937 0 3.512 1.468 3.512 3.271 0 .883-.374 1.706-1.027 2.313.222.456.336.954.336 1.471 0 1.359-.811 2.573-2.071 3.181-.015 1.616-1.43 2.927-3.166 2.927z"/><path d="m23.094 17.836-1.419-.486c.042-.122.063-.255.063-.394 0-.803-.748-1.456-1.667-1.456-.592 0-1.146.283-1.444.739-.277.422-.978.422-1.255 0-.298-.456-.852-.739-1.444-.739-.919 0-1.667.653-1.667 1.456 0 .139.021.271.063.394l-1.419.486c-.096-.279-.144-.575-.144-.88 0-1.63 1.421-2.956 3.167-2.956.777 0 1.505.261 2.071.722.567-.461 1.295-.722 2.072-.722 1.746 0 3.167 1.326 3.167 2.956 0 .305-.048.601-.144.88z"/><path d="m27.25 29h-1.5v-1.5h1.5c.689 0 1.25-.561 1.25-1.25v-16.5c0-.689-.561-1.25-1.25-1.25h-18.5c-.689 0-1.25.561-1.25 1.25v16.5c0 .689.561 1.25 1.25 1.25h1.5v1.5h-1.5c-1.517 0-2.75-1.233-2.75-2.75v-16.5c0-1.517 1.233-2.75 2.75-2.75h18.5c1.517 0 2.75 1.233 2.75 2.75v16.5c0 1.517-1.233 2.75-2.75 2.75z"/><path d="m6.75 10.5h22.5v1.5h-22.5z"/></svg>