<svg id="_x31__x2C_5" enable-background="new 0 0 36 36" height="512" viewBox="0 0 36 36" width="512" xmlns="http://www.w3.org/2000/svg">
  <g fill="none">
  <path d="m2.644 1.967h1v2h-1z" transform="matrix(.707 -.707 .707 .707 -1.177 3.092)" />
  </g>
  <path d="m29.25 8.75v13.5c0 1.105-.895 2-2 2h-11.5l-5 5v-5h-2c-1.105 0-2-.895-2-2v-13.5c0-1.105.895-2 2-2h18.5c1.105 0 2 .895 2 2z" fill="#f3f3f1" />
  <g fill="#2fdf84">
  <path d="M16.75 13a1.25 1.25 0 1 0 2.5 0a1.25 1.25 0 1 0 -2.5 0" />
  <path d="M9.75 13a1.25 1.25 0 1 0 2.5 0a1.25 1.25 0 1 0 -2.5 0" />
  <path d="M23.75 13a1.25 1.25 0 1 0 2.5 0a1.25 1.25 0 1 0 -2.5 0" /></g>
  <path d="m19 13c0-.19.049-.365.125-.526-.2-.425-.625-.724-1.125-.724-.69 0-1.25.56-1.25 1.25s.56 1.25 1.25 1.25c.5 0 .925-.299 1.125-.724-.076-.161-.125-.336-.125-.526z" fill="#00b871" />
  <path d="m12 13c0-.19.049-.365.125-.526-.2-.425-.625-.724-1.125-.724-.69 0-1.25.56-1.25 1.25s.56 1.25 1.25 1.25c.5 0 .925-.299 1.125-.724-.076-.161-.125-.336-.125-.526z" fill="#00b871" />
  <path d="m26 13c0-.19.049-.365.125-.526-.2-.425-.625-.724-1.125-.724-.69 0-1.25.56-1.25 1.25s.56 1.25 1.25 1.25c.5 0 .925-.299 1.125-.724-.076-.161-.125-.336-.125-.526z" fill="#00b871" />
  <path d="m13 27v-2.75h-2c-1.105 0-2-.895-2-2v-13.5c0-1.105.895-2 2-2h-2.25c-1.105 0-2 .895-2 2v13.5c0 1.105.895 2 2 2h2v5z" fill="#d5dbe1" />
  <path d="m18 15c-1.103 0-2-.897-2-2s.897-2 2-2 2 .897 2 2-.897 2-2 2zm0-2.5c-.276 0-.5.224-.5.5s.224.5.5.5.5-.224.5-.5-.224-.5-.5-.5z" />
  <path d="m17.25 14.5h1.5v9.5h-1.5z" />
  <path d="m15.5 25.001h-1.5v-3.675l-3.512-3.278c-.152-.142-.238-.34-.238-.548v-3h1.5v2.674l3.512 3.278c.152.142.238.34.238.548z" />
  <path d="m11 15c-1.103 0-2-.897-2-2s.897-2 2-2 2 .897 2 2-.897 2-2 2zm0-2.5c-.276 0-.5.224-.5.5s.224.5.5.5.5-.224.5-.5-.224-.5-.5-.5z" />
  <path d="m22 24h-1.5v-3c0-.208.086-.406.238-.548l3.512-3.278v-2.674h1.5v3c0 .208-.086.406-.238.548l-3.512 3.278z" />
  <path d="m25 15c-1.103 0-2-.897-2-2s.897-2 2-2 2 .897 2 2-.897 2-2 2zm0-2.5c-.276 0-.5.224-.5.5s.224.5.5.5.5-.224.5-.5-.224-.5-.5-.5z" />
  <path d="m10.75 30c-.097 0-.194-.019-.287-.057-.28-.116-.463-.389-.463-.693v-4.25h-1.25c-1.517 0-2.75-1.233-2.75-2.75v-13.5c0-1.517 1.233-2.75 2.75-2.75h18.5c1.517 0 2.75 1.233 2.75 2.75v13.5c0 1.517-1.233 2.75-2.75 2.75h-11.189l-4.78 4.78c-.144.144-.336.22-.531.22zm-2-22.5c-.689 0-1.25.561-1.25 1.25v13.5c0 .689.561 1.25 1.25 1.25h2c.414 0 .75.336.75.75v3.189l3.72-3.72c.141-.141.332-.22.53-.22h11.5c.689 0 1.25-.561 1.25-1.25v-13.499c0-.689-.561-1.25-1.25-1.25z" />
</svg>