<svg id="_x31__x2C_5" enable-background="new 0 0 36 36" height="512" viewBox="0 0 36 36" width="512" xmlns="http://www.w3.org/2000/svg"><path d="m8.377 4.167c6.917 0 11.667-3.583 15-3.583s10.333 1.916 10.333 17.249-9.417 17.583-13.083 17.583c-17.167.001-24.5-31.249-12.25-31.249z" fill="#efefef"/><g fill="#a4afc1"><path d="m28.467 2.967h1v2h-1z" transform="matrix(.707 -.707 .707 .707 5.679 21.645)"/><path d="m32.533 7.033h1v2h-1z" transform="matrix(.707 -.707 .707 .707 3.995 25.711)"/><path d="m31.857 3.467h2v1h-2z" transform="matrix(.707 -.707 .707 .707 6.819 24.395)"/></g><path d="m11.75 9.75c-1.105 0-2 .895-2 2v15.5c0 1.105.895 2 2 2h12.5c1.105 0 2-.895 2-2v-15.5c0-1.105-.895-2-2-2z" fill="#f3f3f1"/><path d="m22.25 8.75v2c0 .552-.448 1-1 1h-6.5c-.552 0-1-.448-1-1v-2h2.25c0-1.1.9-2 2-2s2 .9 2 2z" fill="#2fdf84"/><path d="m16 10.75v-2h-2.25v2c0 .552.448 1 1 1h2.25c-.552 0-1-.448-1-1z" fill="#00b871"/><path d="m19.125 7.1c-.321-.22-.708-.35-1.125-.35-1.1 0-2 .9-2 2h2.25c0-.683.348-1.289.875-1.65z" fill="#00b871"/><path d="m12 27.25v-15.5c0-1.105.895-2 2-2h-2.25c-1.105 0-2 .895-2 2v15.5c0 1.105.895 2 2 2h2.25c-1.105 0-2-.895-2-2z" fill="#d5dbe1"/><path d="m18 23h-1.5v-4c0-.275-.225-.5-.5-.5s-.5.225-.5.5v4h-1.5v-4c0-1.103.897-2 2-2s2 .897 2 2z"/><path d="m14.75 20h2.5v1.5h-2.5z"/><path d="m20 17h1.5v6h-1.5z"/><path d="m24.25 30h-12.5c-1.517 0-2.75-1.233-2.75-2.75v-15.5c0-1.517 1.233-2.75 2.75-2.75h1.883v1.5h-1.883c-.689 0-1.25.561-1.25 1.25v15.5c0 .689.561 1.25 1.25 1.25h12.5c.689 0 1.25-.561 1.25-1.25v-15.5c0-.689-.561-1.25-1.25-1.25h-1.883v-1.5h1.883c1.517 0 2.75 1.233 2.75 2.75v15.5c0 1.517-1.233 2.75-2.75 2.75z"/><path d="m21.25 12.5h-6.5c-.965 0-1.75-.785-1.75-1.75v-2c0-.414.336-.75.75-.75h1.604c.328-1.153 1.39-2 2.646-2s2.318.847 2.646 2h1.604c.414 0 .75.336.75.75v2c0 .965-.785 1.75-1.75 1.75zm-6.75-3v1.25c0 .138.112.25.25.25h6.5c.138 0 .25-.112.25-.25v-1.25h-1.5c-.414 0-.75-.336-.75-.75 0-.689-.561-1.25-1.25-1.25s-1.25.561-1.25 1.25c0 .414-.336.75-.75.75z"/></svg>