<svg id="_x31__x2C_5" enable-background="new 0 0 36 36" height="512" viewBox="0 0 36 36" width="512" xmlns="http://www.w3.org/2000/svg"><path d="m4.167 27.623c0-6.917-3.583-11.667-3.583-15s1.916-10.333 17.249-10.333 17.583 9.417 17.583 13.083c.001 17.167-31.249 24.5-31.249 12.25z" fill="#efefef"/><path d="m5.5 10c-.827 0-1.5-.673-1.5-1.5s.673-1.5 1.5-1.5 1.5.673 1.5 1.5-.673 1.5-1.5 1.5zm0-2c-.276 0-.5.224-.5.5s.224.5.5.5.5-.224.5-.5-.224-.5-.5-.5z" fill="#a4afc1"/><path d="m11.152 25.25c-2.436 0-4.402-1.943-4.402-4.35s1.966-4.35 4.402-4.35h.078c.47-3.287 3.316-5.8 6.77-5.8 2.739 0 5.106 1.585 6.192 3.886 2.827.155 5.058 2.465 5.058 5.297 0 2.939-2.407 5.317-5.38 5.317z" fill="#f3f3f1"/><path d="m9 20.9c0-2.407 1.966-4.35 4.402-4.35h.078c.417-2.919 2.71-5.223 5.637-5.703-.364-.06-.736-.097-1.117-.097-3.453 0-6.3 2.513-6.77 5.8h-.078c-2.436 0-4.402 1.943-4.402 4.35s1.966 4.35 4.402 4.35h2.25c-2.436 0-4.402-1.943-4.402-4.35z" fill="#d5dbe1"/><path d="m23.87 26h-12.718c-2.84 0-5.152-2.288-5.152-5.1 0-2.628 2.019-4.799 4.603-5.071.777-3.364 3.852-5.829 7.397-5.829 2.789 0 5.361 1.528 6.673 3.927 3.02.381 5.327 2.94 5.327 6.006 0 3.345-2.75 6.067-6.13 6.067zm-5.87-14.5c-3.016 0-5.607 2.217-6.027 5.156-.053.37-.37.644-.743.644-2.092 0-3.73 1.615-3.73 3.6s1.639 3.6 3.652 3.6h12.718c2.553 0 4.63-2.049 4.63-4.567 0-2.417-1.91-4.415-4.349-4.548-.275-.015-.52-.18-.637-.429-.991-2.099-3.155-3.456-5.514-3.456z"/><path d="m18 22h-1.5v-4c0-.276-.224-.5-.5-.5s-.5.224-.5.5v4h-1.5v-4c0-1.103.897-2 2-2s2 .897 2 2z"/><path d="m14.75 19h2.5v1.5h-2.5z"/><path d="m20 16h1.5v6h-1.5z"/></svg>