<svg id="_x31__x2C_5" enable-background="new 0 0 36 36" height="512" viewBox="0 0 36 36" width="512" xmlns="http://www.w3.org/2000/svg"><path d="m4.167 8.377c0 6.917-3.583 11.667-3.583 15s1.916 10.333 17.249 10.333 17.583-9.417 17.583-13.083c.001-17.167-31.249-24.5-31.249-12.25z" fill="#efefef"/><g fill="#a4afc1"><path d="m31.857 3.467h2v1h-2z" transform="matrix(.707 -.707 .707 .707 6.819 24.395)"/><path d="m32.533 7.033h1v2h-1z" transform="matrix(.707 -.707 .707 .707 3.995 25.711)"/><path d="m28.467 2.967h1v2h-1z" transform="matrix(.707 -.707 .707 .707 5.679 21.645)"/></g><path d="m14.786 6.75c-2.068 0-3.75 1.536-3.75 3.424 0 .342.054.675.161.988l.006.006c-.056-.004-.11-.015-.167-.015-2.368 0-4.286 1.751-4.286 3.913 0 1.389.793 2.602 1.982 3.297-.579.724-.911 1.614-.911 2.573 0 1.947 1.382 3.6 3.3 4.177-.054.225-.086.47-.086.714 0 1.888 1.682 3.424 3.75 3.424 1.371 0 2.561-.675 3.214-1.673v-19.155c-.653-.998-1.842-1.673-3.213-1.673z" fill="#2fdf84"/><path d="m29.25 11.75v11h-9.25v-12h8.25c.55 0 1 .45 1 1z" fill="#f3f3f1"/><path d="m29.25 22.75v2.5c0 .55-.45 1-1 1h-8.25v-3.5z" fill="#2fdf84"/><path d="m21.5 29.25h-1.5v-3s0 1.5 1.5 3z" fill="#2fdf84"/><g fill="#00b871"><path d="m21.5 29.25h-1.5v-3s0 1.5 1.5 3z"/><path d="m13.286 25.826c0-.245.032-.489.086-.714-1.918-.577-3.3-2.23-3.3-4.177 0-.959.332-1.849.911-2.573-1.19-.695-1.983-1.908-1.983-3.297 0-2.162 1.918-3.913 4.286-3.913.057 0 .111.011.167.015l-.006-.006c-.107-.313-.161-.646-.161-.988 0-1.534 1.118-2.82 2.643-3.254-.361-.106-.742-.17-1.143-.17-2.068 0-3.75 1.536-3.75 3.424 0 .342.054.675.161.988l.006.006c-.056-.004-.11-.015-.167-.015-2.368 0-4.286 1.751-4.286 3.913 0 1.389.793 2.602 1.982 3.297-.579.724-.911 1.614-.911 2.573 0 1.947 1.382 3.6 3.3 4.177-.054.225-.086.47-.086.714 0 1.888 1.682 3.424 3.75 3.424.4 0 .782-.063 1.143-.17-1.525-.434-2.642-1.72-2.642-3.254z"/><path d="m20 22.75h2.25v3.5h-2.25z"/></g><path d="m20 10.75h2.25v12h-2.25z" fill="#d5dbe1"/><path d="m14.786 30c-2.481 0-4.5-1.872-4.5-4.174 0-.072.002-.145.006-.218-1.95-.832-3.221-2.642-3.221-4.674 0-.844.215-1.653.627-2.38-1.075-.877-1.698-2.136-1.698-3.489 0-2.338 1.869-4.28 4.296-4.613-.007-.092-.01-.185-.01-.278 0-2.302 2.019-4.174 4.5-4.174 1.581 0 3.017.752 3.842 2.012.079.122.122.266.122.411v19.154c0 .146-.043.289-.122.411-.825 1.26-2.261 2.012-3.842 2.012zm-3.75-18.098c-1.95 0-3.536 1.419-3.536 3.163 0 1.069.603 2.06 1.611 2.649.188.11.318.296.358.511.04.214-.016.436-.151.605-.489.61-.747 1.338-.747 2.104 0 1.571 1.111 2.962 2.766 3.46.381.114.606.506.514.893-.042.176-.064.362-.064.539 0 1.475 1.346 2.674 3 2.674.981 0 1.905-.44 2.464-1.162v-18.676c-.56-.722-1.483-1.162-2.465-1.162-1.654 0-3 1.199-3 2.674 0 .111.007.22.021.326 1.222.316 2.121 1.366 2.121 2.608h-1.5c.001-.665-.624-1.206-1.392-1.206z"/><path d="m12.243 25.961c-.602 0-1.077-.093-1.18-.115l.311-1.468c.386.082 1.61.21 2.158-.238.126-.103.294-.292.294-.759 0-.925-.282-1.207-1.207-1.207v-1.5c1.746 0 2.707.961 2.707 2.707 0 1.022-.463 1.611-.852 1.926-.648.525-1.526.654-2.231.654z"/><path d="m20 22h10v1.5h-10z"/><path d="m22.25 30h-2.25v-1.5h.753c-.591-1.08-.737-2.088-.746-2.146-.029-.215.035-.433.178-.596.143-.164.349-.258.565-.258h7.5c.138 0 .25-.112.25-.25v-13.5c0-.138-.112-.25-.25-.25h-8.25v-1.5h8.25c.965 0 1.75.785 1.75 1.75v13.5c0 .965-.785 1.75-1.75 1.75h-6.528c.175.493.472 1.116.956 1.634.195.136.322.361.322.616 0 .414-.336.75-.75.75z"/></svg>