<svg id="_x31__x2C_5" enable-background="new 0 0 36 36" height="512" viewBox="0 0 36 36" width="512" xmlns="http://www.w3.org/2000/svg"><path d="m8.377 4.167c6.917 0 11.667-3.583 15-3.583s10.333 1.916 10.333 17.249-9.417 17.583-13.083 17.583c-17.167.001-24.5-31.249-12.25-31.249z" fill="#efefef"/><path d="m31.5 8c-.827 0-1.5-.673-1.5-1.5s.673-1.5 1.5-1.5 1.5.673 1.5 1.5-.673 1.5-1.5 1.5zm0-2c-.276 0-.5.224-.5.5s.224.5.5.5.5-.224.5-.5-.224-.5-.5-.5z" fill="#a4afc1"/><path d="m18 29.25c-3.176 0-5.75-2.574-5.75-5.75v-7.25h11.5v7.25c0 3.176-2.574 5.75-5.75 5.75z" fill="#f3f3f1"/><path d="m23.75 16.25h-11.5v-3.75c0-3.176 2.574-5.75 5.75-5.75s5.75 2.574 5.75 5.75z" fill="#2fdf84"/><path d="m19.125 6.862c-.364-.073-.74-.112-1.125-.112-3.176 0-5.75 2.574-5.75 5.75v3.75h2.25v-3.75c0-2.79 1.988-5.115 4.625-5.638z" fill="#00b871"/><path d="m14.5 23.5v-7.25h-2.25v7.25c0 3.176 2.574 5.75 5.75 5.75.385 0 .761-.039 1.125-.112-2.637-.523-4.625-2.848-4.625-5.638z" fill="#d5dbe1"/><path d="m30 25h-1.5v-3c0-.276-.224-.5-.5-.5s-.5.224-.5.5v3h-1.5v-3c0-1.103.897-2 2-2s2 .897 2 2z"/><path d="m28.75 20.75h-1.5v-2.5c0-.689-.561-1.25-1.25-1.25h-16c-.689 0-1.25.561-1.25 1.25v2.5h-1.5v-2.5c0-1.517 1.233-2.75 2.75-2.75h16c1.517 0 2.75 1.233 2.75 2.75z"/><path d="m10 25h-1.5v-3c0-.276-.224-.5-.5-.5s-.5.224-.5.5v3h-1.5v-3c0-1.103.897-2 2-2s2 .897 2 2z"/><path d="m17.25 15.75h1.5v6.25h-1.5z"/><path d="m15.5 14c-.827 0-1.5-.673-1.5-1.5s.673-1.5 1.5-1.5 1.5.673 1.5 1.5-.673 1.5-1.5 1.5z"/><path d="m20.5 14c-.827 0-1.5-.673-1.5-1.5s.673-1.5 1.5-1.5 1.5.673 1.5 1.5-.673 1.5-1.5 1.5z"/><path d="m18 30c-3.584 0-6.5-2.916-6.5-6.5v-11c0-3.584 2.916-6.5 6.5-6.5s6.5 2.916 6.5 6.5v11c0 3.584-2.916 6.5-6.5 6.5zm0-22.5c-2.757 0-5 2.243-5 5v11c0 2.757 2.243 5 5 5s5-2.243 5-5v-11c0-2.757-2.243-5-5-5z"/></svg>