<svg id="_x31__x2C_5" enable-background="new 0 0 36 36" height="512" viewBox="0 0 36 36" width="512" xmlns="http://www.w3.org/2000/svg"><path d="m31.833 8.377c0 6.917 3.583 11.667 3.583 15s-1.916 10.333-17.249 10.333-17.584-9.417-17.584-13.083c0-17.167 31.25-24.5 31.25-12.25z" fill="#efefef"/><path d="m29.625 2.25h1v2h-1z" fill="#a4afc1"/><path d="m31.875 5.25h2v1h-2z" fill="#a4afc1"/><path d="m19.962 6.75c4.573 0 8.288 3.727 8.288 8.315 0 1.774-.559 3.423-1.507 4.776-.921 1.315-1.418 2.885-1.418 4.492v4.916h-8.775v-3.913l-2.983.91c-.137.049-.283.068-.429.068-.809 0-1.462-.655-1.462-1.467v-3.424h-2.438c-.273 0-.488-.215-.488-.489 0-.098.029-.186.078-.264l2.277-3.627c.371-.591.57-1.277.57-1.976 0-.001 0-.002 0-.003 0-4.587 3.715-8.314 8.287-8.314z" fill="#f3f3f1"/><path d="m11 20.935c0-.098.029-.186.078-.264l2.277-3.627c.371-.591.57-1.277.57-1.976 0-.001 0-.002 0-.003 0-4.204 3.122-7.676 7.163-8.229-.369-.05-.742-.086-1.125-.086-4.573 0-8.287 3.727-8.287 8.315v.003c0 .699-.198 1.385-.57 1.976l-2.277 3.627c-.049.078-.078.166-.078.264 0 .274.214.489.487.489h2.25c-.274 0-.488-.215-.488-.489z" fill="#d5dbe1"/><path d="m13.925 24.848v-3.424h-2.25v3.424c0 .812.653 1.467 1.463 1.467.146 0 .292-.02.429-.068l.893-.272c-.325-.269-.535-.671-.535-1.127z" fill="#d5dbe1"/><path d="m19.5 19c-.013 0-.026 0-.04-.001-.324-.018-.601-.242-.685-.556l-1.396-5.235-.677 1.805c-.11.293-.389.487-.702.487h-3.99v-1.5h3.471l1.317-3.513c.114-.306.419-.502.739-.486.326.016.604.241.688.556l1.405 5.268 1.67-4.343c.114-.296.371-.477.717-.481.316.007.594.212.694.513l.83 2.486h4.45v1.5h-4.991c-.323 0-.609-.207-.711-.513l-.339-1.017-1.75 4.549c-.112.291-.391.481-.7.481z"/><path d="m25.325 30h-8.775c-.414 0-.75-.336-.75-.75v-2.9l-2.015.614c-.175.063-.404.102-.647.102-1.22 0-2.213-.995-2.213-2.218v-2.674h-1.688c-.682 0-1.237-.556-1.237-1.239 0-.23.066-.458.191-.66l2.279-3.63c.298-.474.455-1.02.455-1.576 0-5.002 4.054-9.069 9.038-9.069s9.037 4.067 9.037 9.065c0 1.872-.568 3.672-1.643 5.206-.839 1.198-1.282 2.603-1.282 4.062v4.917c0 .414-.336.75-.75.75zm-8.025-1.5h7.275v-4.167c0-1.769.537-3.471 1.554-4.922.897-1.281 1.371-2.783 1.371-4.346 0-4.171-3.381-7.565-7.538-7.565s-7.538 3.394-7.538 7.565c0 .842-.236 1.663-.684 2.377l-2.029 3.231h1.963c.414 0 .75.336.75.75v3.424c0 .396.32.718.713.718.069 0 .13-.009.176-.025l3.018-.921c.228-.069.474-.027.665.115.191.141.304.365.304.603z"/></svg>