<svg id="_x31__x2C_5" enable-background="new 0 0 36 36" height="512" viewBox="0 0 36 36" width="512" xmlns="http://www.w3.org/2000/svg"><path d="m31.833 27.623c0-6.917 3.583-11.667 3.583-15s-1.916-10.333-17.249-10.333-17.584 9.417-17.584 13.083c0 17.167 31.25 24.5 31.25 12.25z" fill="#efefef"/><path d="m4.5 10c-.827 0-1.5-.673-1.5-1.5s.673-1.5 1.5-1.5 1.5.673 1.5 1.5-.673 1.5-1.5 1.5zm0-2c-.275 0-.5.224-.5.5s.225.5.5.5.5-.224.5-.5-.225-.5-.5-.5z" fill="#a4afc1"/><g fill="#2fdf84"><circle cx="20" cy="8" r="1.25"/><circle cx="13" cy="8" r="1.25"/><circle cx="27" cy="8" r="1.25"/></g><path d="m18.962 9.5c4.573 0 8.288 3.727 8.288 8.315 0 1.774-.559 3.423-1.507 4.776-.921 1.315-1.418 2.885-1.418 4.492v2.917h-8.775v-1.913l-2.983.91c-.137.049-.283.068-.429.068-.809 0-1.462-.655-1.462-1.467v-3.424h-2.438c-.273 0-.488-.215-.488-.489 0-.098.029-.186.078-.264l2.277-3.627c.371-.591.57-1.277.57-1.976 0-.001 0-.002 0-.003 0-4.588 3.715-8.315 8.287-8.315z" fill="#f3f3f1"/><g fill="#00b871"><path d="m21 8c0-.19.049-.365.125-.526-.2-.425-.625-.724-1.125-.724-.69 0-1.25.56-1.25 1.25s.56 1.25 1.25 1.25c.5 0 .925-.299 1.125-.724-.076-.161-.125-.336-.125-.526z"/><path d="m14 8c0-.19.049-.365.125-.526-.2-.425-.625-.724-1.125-.724-.69 0-1.25.56-1.25 1.25s.56 1.25 1.25 1.25c.5 0 .925-.299 1.125-.724-.076-.161-.125-.336-.125-.526z"/><path d="m28 8c0-.19.049-.365.125-.526-.2-.425-.625-.724-1.125-.724-.69 0-1.25.56-1.25 1.25s.56 1.25 1.25 1.25c.5 0 .925-.299 1.125-.724-.076-.161-.125-.336-.125-.526z"/></g><path d="m10 23.685c0-.098.029-.186.078-.264l2.277-3.627c.371-.591.57-1.277.57-1.976 0-.001 0-.002 0-.003 0-4.204 3.122-7.676 7.163-8.229-.369-.051-.743-.086-1.126-.086-4.573 0-8.287 3.727-8.287 8.315v.003c0 .699-.198 1.385-.57 1.976l-2.277 3.627c-.049.078-.078.166-.078.264 0 .274.214.489.487.489h2.25c-.273 0-.487-.215-.487-.489z" fill="#d5dbe1"/><path d="m12.925 27.598v-3.424h-2.25v3.424c0 .812.653 1.467 1.463 1.467.146 0 .292-.02.429-.068l.893-.272c-.325-.269-.535-.671-.535-1.127z" fill="#d5dbe1"/><path d="m20 10c-1.103 0-2-.897-2-2s.897-2 2-2 2 .897 2 2-.897 2-2 2zm0-2.5c-.275 0-.5.224-.5.5s.225.5.5.5.5-.224.5-.5-.225-.5-.5-.5z"/><path d="m19.25 9.5h1.5v9.75h-1.5z"/><path d="m17 19.25h-1.5v-2.956l-3.05-3.284c-.129-.139-.2-.321-.2-.51v-3h1.5v2.706l3.05 3.284c.129.138.2.321.2.51z"/><path d="m13 10c-1.103 0-2-.897-2-2s.897-2 2-2 2 .897 2 2-.897 2-2 2zm0-2.5c-.275 0-.5.224-.5.5s.225.5.5.5.5-.224.5-.5-.225-.5-.5-.5z"/><path d="m24.5 19.25h-1.5v-3.25c0-.189.071-.372.2-.51l3.05-3.284v-2.706h1.5v3c0 .189-.071.372-.2.51l-3.05 3.284z"/><path d="m27 10c-1.103 0-2-.897-2-2s.897-2 2-2 2 .897 2 2-.897 2-2 2zm0-2.5c-.275 0-.5.224-.5.5s.225.5.5.5.5-.224.5-.5-.225-.5-.5-.5z"/><path d="m25.08 30h-1.5v-2.67c0-1.768.534-3.469 1.545-4.919.9-1.279 1.375-2.779 1.375-4.341 0-.308-.018-.607-.054-.896l-.093-.744 1.488-.187.093.744c.044.346.066.711.066 1.083 0 1.873-.569 3.672-1.646 5.202-.832 1.195-1.273 2.599-1.273 4.059v2.669z"/><path d="m16.3 30h-1.5v-.897l-2.011.614c-.18.064-.409.103-.649.103-1.224 0-2.22-.996-2.22-2.22v-2.43h-1.68c-.695 0-1.24-.545-1.24-1.24 0-.226.066-.453.193-.656l2.282-3.633c.277-.443.434-.947.452-1.464-.005-.035-.008-.07-.008-.107 0-1.044.177-2.068.524-3.042l.252-.707 1.412.504-.252.706c-.276.777-.424 1.591-.436 2.424.006.037.009.075.009.114 0 .836-.236 1.656-.684 2.369l-2.03 3.231h1.954c.414 0 .75.336.75.75v3.18c0 .397.323.72.72.72.067 0 .132-.009.181-.027l3.011-.92c.227-.07.475-.027.665.114.191.142.304.365.304.603v1.911z"/></svg>