<svg id="_x31__x2C_5" enable-background="new 0 0 36 36" height="512" viewBox="0 0 36 36" width="512" xmlns="http://www.w3.org/2000/svg"><path d="m27.623 4.167c-6.917 0-11.667-3.583-15-3.583s-10.333 1.916-10.333 17.249 9.417 17.583 13.083 17.583c17.167.001 24.5-31.249 12.25-31.249z" fill="#efefef"/><path d="m20.5 5c-.827 0-1.5-.673-1.5-1.5s.673-1.5 1.5-1.5 1.5.673 1.5 1.5-.673 1.5-1.5 1.5zm0-2c-.275 0-.5.224-.5.5s.225.5.5.5.5-.224.5-.5-.225-.5-.5-.5z" fill="#a4afc1"/><circle cx="18" cy="18" fill="#f3f3f1" r="9.25"/><g fill="#2fdf84"><circle cx="28" cy="8" r="1.25"/><circle cx="28" cy="28" r="1.25"/><circle cx="8" cy="8" r="1.25"/><circle cx="8" cy="28" r="1.25"/><path d="m23.5 16.5c0-.97-.78-1.75-1.75-1.75-.096 0-.188.013-.28.028.02-.089.03-.179.03-.278 0-.97-.78-1.75-1.75-1.75-.74 0-1.37.46-1.62 1.11 0 0-.01 0 0 .01-.25-.66-.88-1.12-1.63-1.12-.97 0-1.75.78-1.75 1.75 0 .099.01.189.03.278-.092-.015-.184-.028-.28-.028-.97 0-1.75.78-1.75 1.75 0 .76.48 1.41 1.16 1.64-.26.3-.41.69-.41 1.11 0 .91.69 1.66 1.59 1.73-.06.16-.09.34-.09.52 0 .97.78 1.75 1.75 1.75.56 0 1.06-.26 1.38-.68.31.42.81.68 1.37.68.97 0 1.75-.78 1.75-1.75 0-.18-.03-.36-.09-.52.9-.07 1.59-.82 1.59-1.73 0-.42-.15-.81-.41-1.11.68-.23 1.16-.88 1.16-1.64zm-2.232-1.72h.183c-.06.01-.121.008-.183 0z"/></g><g fill="#00b871"><path d="m29 8c0-.19.049-.365.125-.526-.2-.425-.625-.724-1.125-.724-.69 0-1.25.56-1.25 1.25s.56 1.25 1.25 1.25c.5 0 .925-.299 1.125-.724-.076-.161-.125-.336-.125-.526z"/><path d="m29 28c0-.19.049-.365.125-.526-.2-.425-.625-.724-1.125-.724-.69 0-1.25.56-1.25 1.25s.56 1.25 1.25 1.25c.5 0 .925-.299 1.125-.724-.076-.161-.125-.336-.125-.526z"/><path d="m9 8c0-.19.049-.365.125-.526-.2-.425-.625-.724-1.125-.724-.69 0-1.25.56-1.25 1.25s.56 1.25 1.25 1.25c.5 0 .925-.299 1.125-.724-.076-.161-.125-.336-.125-.526z"/><path d="m9 28c0-.19.049-.365.125-.526-.2-.425-.625-.724-1.125-.724-.69 0-1.25.56-1.25 1.25s.56 1.25 1.25 1.25c.5 0 .925-.299 1.125-.724-.076-.161-.125-.336-.125-.526z"/><path d="m17.25 21.5c0-.18.03-.36.09-.52-.9-.07-1.59-.82-1.59-1.73 0-.42.15-.81.41-1.11-.68-.23-1.16-.88-1.16-1.64 0-.97.78-1.75 1.75-1.75.096 0 .188.013.28.028-.02-.089-.03-.179-.03-.278 0-.535.243-1.007.619-1.327-.303-.257-.685-.423-1.119-.423-.97 0-1.75.78-1.75 1.75 0 .099.01.189.03.278-.092-.015-.184-.028-.28-.028-.97 0-1.75.78-1.75 1.75 0 .76.48 1.41 1.16 1.64-.26.3-.41.69-.41 1.11 0 .91.69 1.66 1.59 1.73-.06.16-.09.34-.09.52 0 .97.78 1.75 1.75 1.75.43 0 .822-.155 1.127-.416-.381-.32-.627-.795-.627-1.334z"/></g><path d="m11 18c0-4.727 3.548-8.619 8.125-9.175-.37-.045-.743-.075-1.125-.075-5.109 0-9.25 4.141-9.25 9.25s4.141 9.25 9.25 9.25c.382 0 .755-.03 1.125-.075-4.577-.556-8.125-4.448-8.125-9.175z" fill="#d5dbe1"/><path d="m18 28c-5.514 0-10-4.486-10-10s4.486-10 10-10 10 4.486 10 10-4.486 10-10 10zm0-18.5c-4.687 0-8.5 3.813-8.5 8.5s3.813 8.5 8.5 8.5 8.5-3.813 8.5-8.5-3.813-8.5-8.5-8.5z"/><path d="m25.08 24.26h1.5v3.14h-1.5z" transform="matrix(.707 -.707 .707 .707 -10.699 25.838)"/><path d="m9.42 8.6h1.5v3.14h-1.5z" transform="matrix(.707 -.707 .707 .707 -4.213 10.173)"/><path d="m28 10c-1.103 0-2-.897-2-2s.897-2 2-2 2 .897 2 2-.897 2-2 2zm0-2.5c-.275 0-.5.224-.5.5s.225.5.5.5.5-.224.5-.5-.225-.5-.5-.5z"/><path d="m28 30c-1.103 0-2-.897-2-2s.897-2 2-2 2 .897 2 2-.897 2-2 2zm0-2.5c-.275 0-.5.224-.5.5s.225.5.5.5.5-.224.5-.5-.225-.5-.5-.5z"/><path d="m8 10c-1.103 0-2-.897-2-2s.897-2 2-2 2 .897 2 2-.897 2-2 2zm0-2.5c-.275 0-.5.224-.5.5s.225.5.5.5.5-.224.5-.5-.225-.5-.5-.5z"/><path d="m8 30c-1.103 0-2-.897-2-2s.897-2 2-2 2 .897 2 2-.897 2-2 2zm0-2.5c-.275 0-.5.224-.5.5s.225.5.5.5.5-.224.5-.5-.225-.5-.5-.5z"/><path d="m8.6 25.08h3.14v1.5h-3.14z" transform="matrix(.707 -.707 .707 .707 -15.286 14.757)"/><path d="m24.26 9.42h3.14v1.5h-3.14z" transform="matrix(.707 -.707 .707 .707 .374 21.243)"/><path d="m19.5 24c-.494 0-.972-.148-1.371-.413-.401.267-.877.413-1.379.413-1.365 0-2.479-1.101-2.5-2.461-.893-.377-1.5-1.257-1.5-2.289 0-.287.05-.568.145-.833-.556-.46-.895-1.158-.895-1.917 0-1.378 1.121-2.5 2.5-2.5s2.5 1.122 2.5 2.5v.75h-1.5v-.75c0-.551-.448-1-1-1s-1 .449-1 1c0 .424.262.798.65.93.236.08.418.273.483.514s.007.499-.157.688c-.145.168-.226.388-.226.618 0 .52.386.942.897.982.235.018.447.146.574.344s.153.445.071.665c-.027.074-.043.166-.043.259 0 .551.448 1 1 1 .312 0 .597-.14.783-.385.142-.186.362-.295.597-.295h.006c.235.002.457.115.598.304.176.239.456.376.767.376.552 0 1-.449 1-1 0-.093-.016-.185-.043-.259-.082-.22-.056-.467.071-.665s.339-.326.574-.344c.512-.04.898-.462.898-.982 0-.23-.081-.45-.227-.619-.164-.189-.223-.447-.157-.688.065-.241.247-.434.483-.514.389-.132.65-.505.65-.93 0-.551-.448-1-1-1s-1 .449-1 1v.75h-1.5v-.749c0-1.378 1.121-2.5 2.5-2.5s2.5 1.122 2.5 2.5c0 .759-.339 1.457-.895 1.917.095.264.145.546.145.833 0 1.032-.607 1.912-1.5 2.289-.02 1.36-1.134 2.461-2.499 2.461z"/><path d="m22.201 14.947-1.463-.334c.008-.035.012-.069.012-.113 0-.551-.448-1-1-1-.395 0-.743.227-.9.583-.051.17-.161.322-.32.422-.302.189-.696.141-.942-.118-.074-.078-.13-.169-.165-.268-.149-.377-.51-.62-.922-.62-.552 0-1 .449-1 1 0 .043.004.078.012.113l-1.463.334c-.034-.144-.05-.29-.05-.446 0-1.378 1.121-2.5 2.5-2.5.616 0 1.187.218 1.628.597.439-.379 1.009-.597 1.622-.597 1.379 0 2.5 1.122 2.5 2.5 0 .156-.016.302-.049.447z"/></svg>