<svg id="_x31__x2C_5" enable-background="new 0 0 36 36" height="512" viewBox="0 0 36 36" width="512" xmlns="http://www.w3.org/2000/svg"><path d="m31.833 27.623c0-6.917 3.583-11.667 3.583-15s-1.916-10.333-17.249-10.333-17.584 9.417-17.584 13.083c0 17.167 31.25 24.5 31.25 12.25z" fill="#efefef"/><path d="m31.5 7c-.827 0-1.5-.673-1.5-1.5s.673-1.5 1.5-1.5 1.5.673 1.5 1.5-.673 1.5-1.5 1.5zm0-2c-.275 0-.5.224-.5.5s.225.5.5.5.5-.224.5-.5-.225-.5-.5-.5z" fill="#a4afc1"/><circle cx="15.5" cy="15.5" fill="#f3f3f1" r="8.75"/><path d="m9 15.5c0-4.45 3.325-8.116 7.625-8.67-.369-.047-.743-.08-1.125-.08-4.833 0-8.75 3.917-8.75 8.75 0 4.832 3.917 8.75 8.75 8.75.382 0 .756-.033 1.125-.08-4.3-.554-7.625-4.22-7.625-8.67z" fill="#d5dbe1"/><path d="m15.5 18h-1.5v-4c0-.276-.225-.5-.5-.5s-.5.224-.5.5v4h-1.5v-4c0-1.103.897-2 2-2s2 .897 2 2z"/><path d="m12.25 15h2.5v1.5h-2.5z"/><path d="m17.5 12h1.5v6h-1.5z"/><path d="m15.5 25c-5.238 0-9.5-4.262-9.5-9.5s4.262-9.5 9.5-9.5 9.5 4.262 9.5 9.5-4.262 9.5-9.5 9.5zm0-17.5c-4.411 0-8 3.589-8 8s3.589 8 8 8 8-3.589 8-8-3.589-8-8-8z"/><path d="m24.807 19.584h1.5v11.945h-1.5z" transform="matrix(.707 -.707 .707 .707 -10.586 25.556)"/></svg>