<svg id="_x31__x2C_5" enable-background="new 0 0 36 36" height="512" viewBox="0 0 36 36" width="512" xmlns="http://www.w3.org/2000/svg"><path d="m8.377 31.833c6.917 0 11.667 3.583 15 3.583s10.333-1.916 10.333-17.249-9.417-17.584-13.083-17.584c-17.167 0-24.5 31.25-12.25 31.25z" fill="#efefef"/><g fill="#a4afc1"><path d="m6.033 3.467h2v1h-2z" transform="matrix(.707 -.707 .707 .707 -.745 6.135)"/><path d="m1.967 7.533h2v1h-2z" transform="matrix(.707 -.707 .707 .707 -4.811 4.451)"/><path d="m2.644 2.967h1v2h-1z" transform="matrix(.707 -.707 .707 .707 -1.884 3.384)"/></g><path d="m27.25 26.25h-18.5c-1.105 0-2-.895-2-2v-12.5c0-1.105.895-2 2-2h5.5l2 2h11c1.105 0 2 .895 2 2v10.5c0 1.105-.895 2-2 2z" fill="#f3f3f1"/><path d="m9 24.25v-12.5c0-1.105.895-2 2-2h-2.25c-1.105 0-2 .895-2 2v12.5c0 1.105.895 2 2 2h2.25c-1.105 0-2-.895-2-2z" fill="#d5dbe1"/><path d="m18 22h-1.5v-4c0-.276-.225-.5-.5-.5s-.5.224-.5.5v4h-1.5v-4c0-1.103.897-2 2-2s2 .897 2 2z"/><path d="m14.75 19h2.5v1.5h-2.5z"/><path d="m20 16h1.5v6h-1.5z"/><path d="m27.25 27h-18.5c-1.517 0-2.75-1.233-2.75-2.75v-12.5c0-1.517 1.233-2.75 2.75-2.75h5.5c.199 0 .39.079.53.22l1.78 1.78h10.69c1.517 0 2.75 1.233 2.75 2.75v10.5c0 1.517-1.233 2.75-2.75 2.75zm-18.5-16.5c-.689 0-1.25.561-1.25 1.25v12.5c0 .689.561 1.25 1.25 1.25h18.5c.689 0 1.25-.561 1.25-1.25v-10.5c0-.689-.561-1.25-1.25-1.25h-11c-.199 0-.39-.079-.53-.22l-1.78-1.78z"/></svg>