<svg id="_x31__x2C_5" enable-background="new 0 0 36 36" height="512" viewBox="0 0 36 36" width="512" xmlns="http://www.w3.org/2000/svg"><path d="m27.623 31.833c-6.917 0-11.667 3.583-15 3.583s-10.333-1.916-10.333-17.249 9.417-17.584 13.083-17.584c17.167 0 24.5 31.25 12.25 31.25z" fill="#efefef"/><path d="m32.5 10c-.827 0-1.5-.673-1.5-1.5s.673-1.5 1.5-1.5 1.5.673 1.5 1.5-.673 1.5-1.5 1.5zm0-2c-.276 0-.5.225-.5.5s.224.5.5.5.5-.225.5-.5-.224-.5-.5-.5z" fill="#a4afc1"/><path d="m17.75 24.25v.503c0 1.381-1.119 2.5-2.5 2.5v1.997h-8.5v-7.938c0-1.824.829-3.548 2.254-4.687l2.346-1.875z" fill="#2fdf84"/><path d="m25.75 24.25h-12.5c-.828 0-1.5-.672-1.5-1.5v-14.5c0-.828.672-1.5 1.5-1.5h12.5c.828 0 1.5.672 1.5 1.5v14.5c0 .828-.672 1.5-1.5 1.5z" fill="#f3f3f1"/><g fill="#2fdf84"><path d="m16.52 17c0 .61-.23 1.22-.7 1.68l-1.82 1.82c.24.49.36 1.01.36 1.53 0 .79-.27 1.56-.8 2.19l-1.56 1.87v3.16h-5v-6.39l6.34-5.89 1.79-1.66c.2-.18.5-.18.69.01.47.46.7 1.07.7 1.68z"/><circle cx="19" cy="11" r="1.25"/><circle cx="23.5" cy="16" r="1.25"/></g><path d="m20 11c0-.19.049-.365.125-.526-.2-.425-.625-.724-1.125-.724-.69 0-1.25.56-1.25 1.25s.56 1.25 1.25 1.25c.5 0 .925-.299 1.125-.724-.076-.161-.125-.336-.125-.526z" fill="#00b871"/><path d="m24.5 16c0-.19.049-.365.125-.526-.2-.425-.625-.724-1.125-.724-.69 0-1.25.56-1.25 1.25s.56 1.25 1.25 1.25c.5 0 .925-.299 1.125-.724-.076-.161-.125-.336-.125-.526z" fill="#00b871"/><path d="m11.75 18v-9.75c0-.83.67-1.5 1.5-1.5h2.25c-.83 0-1.5.67-1.5 1.5v8.25z" fill="#d5dbe1"/><path d="m16.385 16.233c-.114-.334-.295-.649-.565-.913-.19-.19-.49-.19-.69-.01l-1.79 1.66-2.086-.345.884-.706-.788-1.169-2.346 1.875c-1.425 1.139-2.254 2.863-2.254 4.687v7.938h2.25v-5.255c0-.554.23-1.084.635-1.462z" fill="#00b871"/><path d="m19 13c-1.103 0-2-.897-2-2s.897-2 2-2 2 .897 2 2-.897 2-2 2zm0-2.5c-.276 0-.5.225-.5.5s.224.5.5.5.5-.225.5-.5-.224-.5-.5-.5z"/><path d="m23.5 18c-1.103 0-2-.897-2-2s.897-2 2-2 2 .897 2 2-.897 2-2 2zm0-2.5c-.276 0-.5.225-.5.5s.224.5.5.5.5-.225.5-.5-.224-.5-.5-.5z"/><path d="m19 24.75c-.063 0-.128-.008-.192-.025-.329-.087-.558-.384-.558-.725v-11.5h1.5v8.665l2.398-4.216 1.304.742-3.8 6.68c-.136.238-.387.379-.652.379z"/><path d="m13.338 25.716-1.176-.932.818-1.032c.69-.829.823-1.969.349-2.917-.145-.288-.088-.637.141-.865l1.81-1.81c.582-.582.634-1.496.157-2.139l-5.178 4.779-1.018-1.102 5.367-4.954c.494-.458 1.255-.441 1.731.033 1.225 1.226 1.225 3.218 0 4.442l-1.455 1.455c.469 1.364.2 2.893-.741 4.022z"/><path d="m15.25 30h-8.5c-.414 0-.75-.336-.75-.75v-7.938c0-2.063.924-3.985 2.536-5.273l2.589-2.119.95 1.16-2.596 2.125c-1.26 1.008-1.979 2.503-1.979 4.108v7.187h7v-1.247c0-.414.336-.75.75-.75.965 0 1.75-.785 1.75-1.75v-.503h1.5v.503c0 1.534-1.068 2.823-2.5 3.163v1.334c0 .414-.336.75-.75.75z"/><path d="m26.25 25h-12.5v-1.5h12.5c.136 0 .25-.114.25-.25v-15.5c0-.136-.114-.25-.25-.25h-13.5c-.136 0-.25.114-.25.25v10.25h-1.5v-10.25c0-.965.785-1.75 1.75-1.75h13.5c.965 0 1.75.785 1.75 1.75v15.5c0 .965-.785 1.75-1.75 1.75z"/></svg>