<svg id="_x31__x2C_5" enable-background="new 0 0 36 36" height="512" viewBox="0 0 36 36" width="512" xmlns="http://www.w3.org/2000/svg"><path d="m27.623 4.167c-6.917 0-11.667-3.583-15-3.583s-10.333 1.916-10.333 17.249 9.417 17.583 13.083 17.583c17.167.001 24.5-31.249 12.25-31.249z" fill="#efefef"/><path d="m5.5 6c-.827 0-1.5-.673-1.5-1.5s.673-1.5 1.5-1.5 1.5.673 1.5 1.5-.673 1.5-1.5 1.5zm0-2c-.276 0-.5.224-.5.5s.224.5.5.5.5-.224.5-.5-.224-.5-.5-.5z" fill="#a4afc1"/><path d="m20.25 29.25h-4.5c-1.105 0-2-.895-2-2v-1.5h8.5v1.5c0 1.105-.895 2-2 2z" fill="#2fdf84"/><path d="m22.25 25.75v-.007c0-2.023.814-3.918 2.104-5.476 1.185-1.431 1.896-3.267 1.896-5.267 0-4.56-3.69-8.25-8.25-8.25s-8.25 3.69-8.25 8.25c0 2 .711 3.836 1.896 5.267 1.29 1.558 2.104 3.453 2.104 5.476v.007z" fill="#f3f3f1"/><path d="m16 27.25v-1.5h-2.25v1.5c0 1.105.895 2 2 2h2.25c-1.105 0-2-.895-2-2z" fill="#00b871"/><path d="m13.896 20.267c-1.185-1.431-1.896-3.267-1.896-5.267 0-4.177 3.1-7.615 7.125-8.165-.369-.05-.742-.085-1.125-.085-4.56 0-8.25 3.69-8.25 8.25 0 2 .711 3.836 1.896 5.267 1.29 1.558 2.104 3.453 2.104 5.476v.007h2.25v-.007c0-2.023-.814-3.918-2.104-5.476z" fill="#d5dbe1"/><path d="m18 18h-1.5v-4c0-.276-.224-.5-.5-.5s-.5.224-.5.5v4h-1.5v-4c0-1.103.897-2 2-2s2 .897 2 2z"/><path d="m14.75 15h2.5v1.5h-2.5z"/><path d="m20 12h1.5v6h-1.5z"/><path d="m20.25 30h-4.5c-1.517 0-2.75-1.233-2.75-2.75v-1.5c0-.414.336-.75.75-.75h8.5c.414 0 .75.336.75.75v1.5c0 1.517-1.233 2.75-2.75 2.75zm-5.75-3.5v.75c0 .689.561 1.25 1.25 1.25h4.5c.689 0 1.25-.561 1.25-1.25v-.75z"/><path d="m21.5 25.75v-.007c0-2.097.787-4.156 2.276-5.955 1.112-1.342 1.724-3.042 1.724-4.788 0-4.136-3.364-7.5-7.5-7.5s-7.5 3.364-7.5 7.5c0 1.746.612 3.446 1.724 4.788 1.489 1.798 2.276 3.857 2.276 5.955l-1.5.007c0-1.751-.668-3.479-1.931-5.005-1.334-1.611-2.069-3.651-2.069-5.745 0-4.962 4.038-9 9-9s9 4.038 9 9c0 2.094-.735 4.134-2.069 5.745-1.263 1.526-1.931 3.254-1.931 4.998z"/></svg>