<svg id="_x31__x2C_5" enable-background="new 0 0 36 36" height="512" viewBox="0 0 36 36" width="512" xmlns="http://www.w3.org/2000/svg"><path d="m27.623 4.167c-6.917 0-11.667-3.583-15-3.583s-10.333 1.916-10.333 17.249 9.417 17.583 13.083 17.583c17.167.001 24.5-31.249 12.25-31.249z" fill="#efefef"/><g fill="#a4afc1"><path d="m31.856 2.821h2v1h-2z" transform="matrix(.707 -.707 .707 .707 7.275 24.205)"/><path d="m28.467 1.967h1v2h-1z" transform="matrix(.707 -.707 .707 .707 6.386 21.352)"/><path d="m32.533 6.033h1v2h-1z" transform="matrix(.707 -.707 .707 .707 4.702 25.418)"/></g><g fill="#2fdf84"><circle cx="28" cy="18" r="1.25"/><circle cx="28" cy="11" r="1.25"/><circle cx="28" cy="25" r="1.25"/></g><path d="m14.786 6.75c-2.068 0-3.75 1.536-3.75 3.424 0 .342.054.675.161.988l.006.006c-.056-.004-.11-.015-.167-.015-2.368 0-4.286 1.751-4.286 3.913 0 1.389.793 2.602 1.982 3.297-.579.724-.911 1.614-.911 2.573 0 1.947 1.382 3.6 3.3 4.177-.054.225-.086.47-.086.714 0 1.888 1.682 3.424 3.75 3.424 1.371 0 2.561-.675 3.214-1.673v-2.828-13.49-2.837c-.653-.998-1.842-1.673-3.213-1.673z" fill="#f3f3f1"/><path d="m29 18c0-.19.049-.365.125-.526-.2-.425-.625-.724-1.125-.724-.69 0-1.25.56-1.25 1.25s.56 1.25 1.25 1.25c.5 0 .925-.299 1.125-.724-.076-.161-.125-.336-.125-.526z" fill="#00b871"/><path d="m29 11c0-.19.049-.365.125-.526-.2-.425-.625-.724-1.125-.724-.69 0-1.25.56-1.25 1.25s.56 1.25 1.25 1.25c.5 0 .925-.299 1.125-.724-.076-.161-.125-.336-.125-.526z" fill="#00b871"/><path d="m29 25c0-.19.049-.365.125-.526-.2-.425-.625-.724-1.125-.724-.69 0-1.25.56-1.25 1.25s.56 1.25 1.25 1.25c.5 0 .925-.299 1.125-.724-.076-.161-.125-.336-.125-.526z" fill="#00b871"/><path d="m13.286 25.826c0-.245.032-.489.086-.714-1.918-.577-3.3-2.23-3.3-4.177 0-.959.332-1.849.911-2.573-1.19-.695-1.983-1.908-1.983-3.297 0-2.162 1.918-3.913 4.286-3.913.057 0 .111.011.167.015l-.006-.006c-.107-.313-.161-.646-.161-.988 0-1.534 1.118-2.82 2.643-3.254-.361-.106-.742-.17-1.143-.17-2.068 0-3.75 1.536-3.75 3.424 0 .342.054.675.161.988l.006.006c-.056-.004-.11-.015-.167-.015-2.368 0-4.286 1.751-4.286 3.913 0 1.389.793 2.602 1.982 3.297-.579.724-.911 1.614-.911 2.573 0 1.947 1.382 3.6 3.3 4.177-.054.225-.086.47-.086.714 0 1.888 1.682 3.424 3.75 3.424.4 0 .782-.063 1.143-.17-1.525-.434-2.642-1.72-2.642-3.254z" fill="#d5dbe1"/><path d="m28 20c-1.103 0-2-.897-2-2s.897-2 2-2 2 .897 2 2-.897 2-2 2zm0-2.5c-.276 0-.5.224-.5.5s.224.5.5.5.5-.224.5-.5-.224-.5-.5-.5z"/><path d="m17 17.25h10.25v1.5h-10.25z"/><path d="m20 15h-3v-1.5h2.706l3.284-3.05c.139-.128.321-.2.51-.2h3.75v1.5h-3.456l-3.284 3.05c-.138.128-.321.2-.51.2z"/><path d="m28 13c-1.103 0-2-.897-2-2s.897-2 2-2 2 .897 2 2-.897 2-2 2zm0-2.5c-.276 0-.5.224-.5.5s.224.5.5.5.5-.224.5-.5-.224-.5-.5-.5z"/><path d="m27.25 25.75h-3.75c-.189 0-.372-.072-.51-.2l-3.284-3.05h-2.706v-1.5h3c.189 0 .372.072.51.2l3.284 3.05h3.456z"/><path d="m28 27c-1.103 0-2-.897-2-2s.897-2 2-2 2 .897 2 2-.897 2-2 2zm0-2.5c-.276 0-.5.224-.5.5s.224.5.5.5.5-.224.5-.5-.224-.5-.5-.5z"/><path d="m18.75 12.01h-1.5v-3.349c-.562-.73-1.468-1.161-2.464-1.161-1.654 0-3 1.2-3 2.674v.75h-1.5v-.75c0-2.301 2.019-4.174 4.5-4.174 1.58 0 3.017.752 3.842 2.012.08.122.123.265.123.411v3.587z"/><path d="m14.786 30c-2.481 0-4.5-1.873-4.5-4.174 0-.072.002-.146.006-.218-1.951-.833-3.221-2.641-3.221-4.673 0-.843.215-1.653.626-2.379-1.074-.879-1.697-2.137-1.697-3.491 0-2.571 2.259-4.663 5.036-4.663 1.595 0 2.893 1.214 2.893 2.707v.75h-1.5v-.75c0-.666-.625-1.207-1.393-1.207-1.95 0-3.536 1.419-3.536 3.163 0 1.07.602 2.06 1.61 2.649.188.11.319.296.359.51s-.015.435-.151.605c-.488.612-.747 1.34-.747 2.105 0 1.571 1.112 2.961 2.767 3.459.38.115.605.506.513.893-.043.179-.065.366-.065.54 0 1.474 1.346 2.674 3 2.674.997 0 1.902-.43 2.464-1.161v-3.339h1.5v3.577c0 .146-.042.289-.123.411-.825 1.26-2.261 2.012-3.841 2.012z"/><path d="m12.244 25.961c-.602 0-1.078-.094-1.18-.116l-.732-.156.31-1.464.732.152c.386.079 1.609.208 2.158-.238.126-.103.294-.292.294-.759 0-.925-.282-1.207-1.207-1.207h-.75v-1.5h.75c1.745 0 2.707.961 2.707 2.707 0 1.022-.463 1.612-.852 1.927-.648.525-1.525.654-2.23.654z"/></svg>