<svg id="_x31__x2C_5" enable-background="new 0 0 36 36" height="512" viewBox="0 0 36 36" width="512" xmlns="http://www.w3.org/2000/svg"><path d="m8.377 31.833c6.917 0 11.667 3.583 15 3.583s10.333-1.916 10.333-17.249-9.417-17.584-13.083-17.584c-17.167 0-24.5 31.25-12.25 31.25z" fill="#efefef"/><path d="m5.033 2.467h2v1h-2z" fill="#a4afc1" transform="matrix(.707 -.707 .707 .707 -.331 5.135)"/><path d="m.967 6.533h2v1h-2z" fill="#a4afc1" transform="matrix(.707 -.707 .707 .707 -4.397 3.451)"/><path d="m1.644 1.967h1v2h-1z" fill="#a4afc1" transform="matrix(.707 -.707 .707 .707 -1.47 2.385)"/><g fill="#2fdf84"><circle cx="28" cy="21" r="1.25"/><circle cx="28" cy="14" r="1.25"/><circle cx="28" cy="28" r="1.25"/><path d="m29.25 9.75v-2c0-.552-.448-1-1-1h-20.5c-.552 0-1 .448-1 1v2z"/></g><path d="m14.25 29.36c-.099 0-.197-.029-.281-.087-.137-.093-.219-.248-.219-.413v-11.169l-6.372-7.107c-.132-.147-.165-.357-.084-.538.08-.18.259-.296.456-.296h20.5c.197 0 .376.116.457.297.081.18.047.391-.085.538l-6.622 7.356v8.059c0 .205-.125.39-.316.465l-7.25 2.86c-.06.024-.122.035-.184.035zm7.25-3.36h.01z" fill="#f3f3f1"/><g fill="#00b871"><path d="m29 21c0-.19.049-.365.125-.526-.2-.425-.625-.724-1.125-.724-.69 0-1.25.56-1.25 1.25s.56 1.25 1.25 1.25c.5 0 .925-.299 1.125-.724-.076-.161-.125-.336-.125-.526z"/><path d="m29 14c0-.19.049-.365.125-.526-.2-.425-.625-.724-1.125-.724-.69 0-1.25.56-1.25 1.25s.56 1.25 1.25 1.25c.5 0 .925-.299 1.125-.724-.076-.161-.125-.336-.125-.526z"/><path d="m29 28c0-.19.049-.365.125-.526-.2-.425-.625-.724-1.125-.724-.69 0-1.25.56-1.25 1.25s.56 1.25 1.25 1.25c.5 0 .925-.299 1.125-.724-.076-.161-.125-.336-.125-.526z"/><path d="m10 6.75h-2.25c-.552 0-1 .448-1 1v2h2.25v-2c0-.552.448-1 1-1z"/></g><path d="m16 17.691-6.372-7.107c-.132-.147-.165-.357-.084-.538.08-.18.259-.296.456-.296h-2.25c-.197 0-.376.116-.457.296-.081.181-.047.391.084.538l6.372 7.107v11.169c0 .165.082.32.219.413.084.058.182.087.281.087.062 0 .124-.012.184-.035l1.567-.618z" fill="#d5dbe1"/><path d="m28 23c-1.103 0-2-.897-2-2s.897-2 2-2 2 .897 2 2-.897 2-2 2zm0-2.5c-.275 0-.5.225-.5.5s.225.5.5.5.5-.225.5-.5-.225-.5-.5-.5z"/><path d="m16.75 20.25h9.75v1.5h-9.75z"/><path d="m20 18.5h-3.25v-1.5h2.924l3.278-3.512c.142-.152.34-.238.548-.238h3v1.5h-2.674l-3.278 3.512c-.142.152-.34.238-.548.238z"/><path d="m28 16c-1.103 0-2-.897-2-2s.897-2 2-2 2 .897 2 2-.897 2-2 2zm0-2.5c-.275 0-.5.225-.5.5s.225.5.5.5.5-.225.5-.5-.225-.5-.5-.5z"/><path d="m26.5 28.75h-3c-.208 0-.406-.086-.548-.238l-3.278-3.512h-2.924v-1.5h3.25c.208 0 .406.086.548.238l3.278 3.512h2.674z"/><path d="m28 30c-1.103 0-2-.897-2-2s.897-2 2-2 2 .897 2 2-.897 2-2 2zm0-2.5c-.275 0-.5.225-.5.5s.225.5.5.5.5-.225.5-.5-.225-.5-.5-.5z"/><path d="m14.749 29.863c-.36 0-.719-.111-1.019-.327-.457-.327-.73-.86-.73-1.426v-10.322l-6.807-7.535c-.128-.142-.194-.324-.193-.508v-1.995c0-.965.785-1.75 1.75-1.75h20.5c.965 0 1.75.785 1.75 1.75v2c0 .414-.336.75-.75.75h-20.812l5.868 6.497c.124.138.193.317.193.503v10.61c0 .115.065.179.104.207.037.026.116.066.225.032l2.475-.821.473 1.424-2.47.819c-.181.062-.368.092-.557.092zm-7.249-20.863h21v-1.25c0-.138-.112-.25-.25-.25h-20.5c-.138 0-.25.112-.25.25z"/><path d="m9.63 12h6.37v1.5h-6.37z"/><path d="m12.25 15h3.75v1.5h-3.75z"/></svg>