<svg id="_x31__x2C_5" enable-background="new 0 0 36 36" height="512" viewBox="0 0 36 36" width="512" xmlns="http://www.w3.org/2000/svg"><path d="m31.833 8.377c0 6.917 3.583 11.667 3.583 15s-1.916 10.333-17.249 10.333-17.584-9.417-17.584-13.083c0-17.167 31.25-24.5 31.25-12.25z" fill="#efefef"/><path d="m27.467 1.967h1v2h-1z" fill="#a4afc1" transform="matrix(.707 -.707 .707 .707 6.09 20.641)"/><path d="m31.533 6.033h1v2h-1z" fill="#a4afc1" transform="matrix(.707 -.707 .707 .707 4.406 24.706)"/><path d="m30.856 2.467h2v1h-2z" fill="#a4afc1" transform="matrix(.707 -.707 .707 .707 7.233 23.395)"/><g fill="#2fdf84"><path d="m24.25 9.25h-12.5c-.552 0-1-.448-1-1v-1.5h14.5v1.5c0 .552-.448 1-1 1z"/><path d="m20.25 9.5v.5c0 1.243-1.007 2.25-2.25 2.25s-2.25-1.007-2.25-2.25v-.5z"/><circle cx="28" cy="16" r="1.25"/><circle cx="8" cy="16" r="1.25"/></g><path d="m20.75 15.75v10.75c0 1.519-1.231 2.75-2.75 2.75s-2.75-1.231-2.75-2.75v-10.75z" fill="#f3f3f1"/><g fill="#00b871"><path d="m13 8.25v-1.5h-2.25v1.5c0 .552.448 1 1 1h2.25c-.552 0-1-.448-1-1z"/><path d="m18 10v-.5h-2.25v.5c0 1.243 1.007 2.25 2.25 2.25.412 0 .793-.119 1.125-.312-.67-.39-1.125-1.107-1.125-1.938z"/><path d="m29 16c0-.19.049-.365.125-.526-.2-.425-.625-.724-1.125-.724-.69 0-1.25.56-1.25 1.25s.56 1.25 1.25 1.25c.5 0 .925-.299 1.125-.724-.076-.161-.125-.336-.125-.526z"/><path d="m9 16c0-.19.049-.365.125-.526-.2-.425-.625-.724-1.125-.724-.69 0-1.25.56-1.25 1.25s.56 1.25 1.25 1.25c.5 0 .925-.299 1.125-.724-.076-.161-.125-.336-.125-.526z"/></g><path d="m17.5 26.5v-10.75h-2.25v10.75c0 1.519 1.231 2.75 2.75 2.75.402 0 .781-.091 1.125-.246-.956-.43-1.625-1.387-1.625-2.504z" fill="#d5dbe1"/><path d="m13 15h10v1.5h-10z"/><path d="m24.25 10h-12.5c-.965 0-1.75-.785-1.75-1.75v-1.5c0-.414.336-.75.75-.75h14.5c.414 0 .75.336.75.75v1.5c0 .965-.785 1.75-1.75 1.75zm-12.75-2.5v.75c0 .138.112.25.25.25h12.5c.138 0 .25-.112.25-.25v-.75z"/><path d="m18 13c-1.654 0-3-1.346-3-3v-.5h1.5v.5c0 .827.673 1.5 1.5 1.5s1.5-.673 1.5-1.5v-.5h1.5v.5c0 1.654-1.346 3-3 3z"/><path d="m27 23h-4v-1.5h3.361l.787-4.88 1.481.239-.89 5.511c-.057.363-.371.63-.739.63z"/><path d="m24.68 8.976h1.5v6.298h-1.5z" transform="matrix(.834 -.552 .552 .834 -2.466 16.067)"/><path d="m28 18c-1.103 0-2-.897-2-2s.897-2 2-2 2 .897 2 2-.897 2-2 2zm0-2.5c-.275 0-.5.224-.5.5s.225.5.5.5.5-.224.5-.5-.225-.5-.5-.5z"/><path d="m13 23h-4c-.368 0-.682-.267-.74-.63l-.89-5.511 1.481-.239.787 4.88h3.362z"/><path d="m7.421 11.375h6.298v1.5h-6.298z" transform="matrix(.553 -.833 .833 .553 -5.377 14.231)"/><path d="m8 18c-1.103 0-2-.897-2-2s.897-2 2-2 2 .897 2 2-.897 2-2 2zm0-2.5c-.275 0-.5.224-.5.5s.225.5.5.5.5-.224.5-.5-.225-.5-.5-.5z"/><path d="m18 26c-.552 0-1-.449-1-1s.448-1 1-1 1 .449 1 1-.448 1-1 1z"/><path d="m18 23c-.552 0-1-.449-1-1s.448-1 1-1 1 .449 1 1-.448 1-1 1z"/><path d="m18 20c-.552 0-1-.449-1-1s.448-1 1-1 1 .449 1 1-.448 1-1 1z"/><path d="m18 30c-1.93 0-3.5-1.57-3.5-3.5v-10.75h1.5v10.75c0 1.103.897 2 2 2s2-.897 2-2v-10.75h1.5v10.75c0 1.93-1.57 3.5-3.5 3.5z"/></svg>