<svg id="_x31__x2C_5" enable-background="new 0 0 36 36" height="512" viewBox="0 0 36 36" width="512" xmlns="http://www.w3.org/2000/svg"><path d="m4.167 8.377c0 6.917-3.583 11.667-3.583 15s1.916 10.333 17.249 10.333 17.583-9.417 17.583-13.083c.001-17.167-31.249-24.5-31.249-12.25z" fill="#efefef"/><path d="m7.5 9c-.827 0-1.5-.673-1.5-1.5s.673-1.5 1.5-1.5 1.5.673 1.5 1.5-.673 1.5-1.5 1.5zm0-2c-.276 0-.5.225-.5.5s.224.5.5.5.5-.225.5-.5-.224-.5-.5-.5z" fill="#a4afc1"/><path d="m29.25 11.063c0 3.551-4.25 7.188-4.25 7.188s-4.25-3.636-4.25-7.188c0-2.382 1.903-4.313 4.25-4.313s4.25 1.931 4.25 4.313z" fill="#2fdf84"/><circle cx="25" cy="11" fill="#f3f3f1" r="1.25"/><path d="m23.25 19.75v7.5c0 1.105-.895 2-2 2h-10.5c-1.105 0-2-.895-2-2v-7.5c0-1.105.895-2 2-2h10.5c1.105 0 2 .895 2 2z" fill="#f3f3f1"/><g fill="#2fdf84"><circle cx="19" cy="22" r="1.25"/><circle cx="16" cy="13" r="1.25"/><circle cx="13" cy="22" r="1.25"/></g><path d="m23 11.063c0-1.984 1.328-3.637 3.125-4.14-.361-.102-.733-.173-1.125-.173-2.347 0-4.25 1.931-4.25 4.313 0 3.551 4.25 7.188 4.25 7.188s.486-.419 1.125-1.102c-1.259-1.345-3.125-3.731-3.125-6.086z" fill="#00b871"/><path d="m26 11c0-.19.049-.365.125-.526-.2-.425-.625-.724-1.125-.724-.69 0-1.25.56-1.25 1.25s.56 1.25 1.25 1.25c.5 0 .925-.299 1.125-.724-.076-.161-.125-.336-.125-.526z" fill="#d5dbe1"/><g fill="#00b871"><path d="m20 22c0-.19.049-.365.125-.526-.2-.425-.625-.724-1.125-.724-.69 0-1.25.56-1.25 1.25s.56 1.25 1.25 1.25c.5 0 .925-.299 1.125-.724-.076-.161-.125-.336-.125-.526z"/><path d="m17 13c0-.19.049-.365.125-.526-.2-.425-.625-.724-1.125-.724-.69 0-1.25.56-1.25 1.25s.56 1.25 1.25 1.25c.5 0 .925-.299 1.125-.724-.076-.161-.125-.336-.125-.526z"/><path d="m14 22c0-.19.049-.365.125-.526-.2-.425-.625-.724-1.125-.724-.69 0-1.25.56-1.25 1.25s.56 1.25 1.25 1.25c.5 0 .925-.299 1.125-.724-.076-.161-.125-.336-.125-.526z"/></g><path d="m11 27.25v-7.5c0-1.105.895-2 2-2h-2.25c-1.105 0-2 .895-2 2v7.5c0 1.105.895 2 2 2h2.25c-1.105 0-2-.895-2-2z" fill="#d5dbe1"/><path d="m19 24c-1.103 0-2-.897-2-2s.897-2 2-2 2 .897 2 2-.897 2-2 2zm0-2.5c-.276 0-.5.225-.5.5s.224.5.5.5.5-.225.5-.5-.224-.5-.5-.5z"/><path d="m13 24c-1.103 0-2-.897-2-2s.897-2 2-2 2 .897 2 2-.897 2-2 2zm0-2.5c-.276 0-.5.225-.5.5s.224.5.5.5.5-.225.5-.5-.224-.5-.5-.5z"/><path d="m21.25 30h-10.5c-1.517 0-2.75-1.233-2.75-2.75v-7.5c0-1.517 1.233-2.75 2.75-2.75h9.5v1.5h-9.5c-.689 0-1.25.561-1.25 1.25v7.5c0 .689.561 1.25 1.25 1.25h10.5c.689 0 1.25-.561 1.25-1.25v-5.5h1.5v5.5c0 1.517-1.233 2.75-2.75 2.75z"/><path d="m15.25 14.5h1.5v3.25h-1.5z"/><path d="m13.75 25.5h4.5v1.5h-4.5z"/><path d="m16 15c-1.103 0-2-.897-2-2s.897-2 2-2 2 .897 2 2-.897 2-2 2zm0-2.5c-.276 0-.5.225-.5.5s.224.5.5.5.5-.225.5-.5-.224-.5-.5-.5z"/><path d="m23.25 22.75h2v1.5h-2z"/><path d="m24.5 21h1.5v5h-1.5z"/><path d="m6.75 22.75h2v1.5h-2z"/><path d="m6 21h1.5v5h-1.5z"/><path d="m25 19c-.174 0-.347-.06-.487-.18-.185-.158-4.513-3.905-4.513-7.757 0-2.792 2.243-5.063 5-5.063s5 2.271 5 5.063c0 3.853-4.328 7.6-4.513 7.758-.14.119-.313.179-.487.179zm0-11.5c-1.93 0-3.5 1.598-3.5 3.563 0 2.482 2.436 5.127 3.5 6.164 1.064-1.037 3.5-3.682 3.5-6.164 0-1.965-1.57-3.563-3.5-3.563z"/><path d="m25 13c-1.103 0-2-.897-2-2s.897-2 2-2 2 .897 2 2-.897 2-2 2zm0-2.5c-.276 0-.5.225-.5.5s.224.5.5.5.5-.225.5-.5-.224-.5-.5-.5z"/></svg>