<svg id="_x31__x2C_5" enable-background="new 0 0 36 36" height="512" viewBox="0 0 36 36" width="512" xmlns="http://www.w3.org/2000/svg"><path d="m4.167 27.623c0-6.917-3.583-11.667-3.583-15s1.916-10.333 17.249-10.333 17.583 9.417 17.583 13.083c.001 17.167-31.249 24.5-31.249 12.25z" fill="#efefef"/><path d="m11.375 6.25h1v2h-1z" fill="#a4afc1"/><path d="m8.125 9.25h2v1h-2z" fill="#a4afc1"/><path d="m28.25 16.25h-5.5c-.552 0-1-.448-1-1v-3.5c0-.552.448-1 1-1h5.5c.552 0 1 .448 1 1v3.5c0 .552-.448 1-1 1z" fill="#2fdf84"/><path d="m23.25 19.75v7.5c0 1.105-.895 2-2 2h-10.5c-1.105 0-2-.895-2-2v-7.5c0-1.105.895-2 2-2h10.5c1.105 0 2 .895 2 2z" fill="#f3f3f1"/><g fill="#2fdf84"><circle cx="19" cy="22" r="1.25"/><circle cx="16" cy="13" r="1.25"/><circle cx="13" cy="22" r="1.25"/></g><g fill="#00b871"><path d="m24 15.25v-3.5c0-.552.448-1 1-1h-2.25c-.552 0-1 .448-1 1v3.5c0 .552.448 1 1 1h2.25c-.552 0-1-.448-1-1z"/><path d="m20 22c0-.19.049-.365.125-.526-.2-.425-.625-.724-1.125-.724-.69 0-1.25.56-1.25 1.25s.56 1.25 1.25 1.25c.5 0 .925-.299 1.125-.724-.076-.161-.125-.336-.125-.526z"/><path d="m17 13c0-.19.049-.365.125-.526-.2-.425-.625-.724-1.125-.724-.69 0-1.25.56-1.25 1.25s.56 1.25 1.25 1.25c.5 0 .925-.299 1.125-.724-.076-.161-.125-.336-.125-.526z"/><path d="m14 22c0-.19.049-.365.125-.526-.2-.425-.625-.724-1.125-.724-.69 0-1.25.56-1.25 1.25s.56 1.25 1.25 1.25c.5 0 .925-.299 1.125-.724-.076-.161-.125-.336-.125-.526z"/></g><path d="m11 27.25v-7.5c0-1.105.895-2 2-2h-2.25c-1.105 0-2 .895-2 2v7.5c0 1.105.895 2 2 2h2.25c-1.105 0-2-.895-2-2z" fill="#d5dbe1"/><path d="m19 24c-1.103 0-2-.897-2-2s.897-2 2-2 2 .897 2 2-.897 2-2 2zm0-2.5c-.275 0-.5.225-.5.5s.225.5.5.5.5-.225.5-.5-.225-.5-.5-.5z"/><path d="m13 24c-1.103 0-2-.897-2-2s.897-2 2-2 2 .897 2 2-.897 2-2 2zm0-2.5c-.275 0-.5.225-.5.5s.225.5.5.5.5-.225.5-.5-.225-.5-.5-.5z"/><path d="m21.25 30h-10.5c-1.517 0-2.75-1.233-2.75-2.75v-7.5c0-1.517 1.233-2.75 2.75-2.75h7.5v1.5h-7.5c-.689 0-1.25.561-1.25 1.25v7.5c0 .689.561 1.25 1.25 1.25h10.5c.689 0 1.25-.561 1.25-1.25v-7.5h1.5v7.5c0 1.517-1.233 2.75-2.75 2.75z"/><path d="m15.25 14.5h1.5v3.25h-1.5z"/><path d="m13.75 25.5h4.5v1.5h-4.5z"/><path d="m16 15c-1.103 0-2-.897-2-2s.897-2 2-2 2 .897 2 2-.897 2-2 2zm0-2.5c-.275 0-.5.225-.5.5s.225.5.5.5.5-.225.5-.5-.225-.5-.5-.5z"/><path d="m23.25 22.75h2v1.5h-2z"/><path d="m24.5 21h1.5v5h-1.5z"/><path d="m6.75 22.75h2v1.5h-2z"/><path d="m6 21h1.5v5h-1.5z"/><path d="m28.25 17h-5.5c-.965 0-1.75-.785-1.75-1.75v-3.5c0-.965.785-1.75 1.75-1.75h5.5c.965 0 1.75.785 1.75 1.75v3.5c0 .965-.785 1.75-1.75 1.75zm-5.5-5.5c-.138 0-.25.112-.25.25v3.5c0 .138.112.25.25.25h5.5c.138 0 .25-.112.25-.25v-3.5c0-.138-.112-.25-.25-.25z"/><path d="m28 10.75h-1.5v-2.25c0-.552-.448-1-1-1s-1 .448-1 1v2.25h-1.5v-2.25c0-1.379 1.121-2.5 2.5-2.5s2.5 1.121 2.5 2.5z"/></svg>