<svg id="_x31__x2C_5" enable-background="new 0 0 36 36" height="512" viewBox="0 0 36 36" width="512" xmlns="http://www.w3.org/2000/svg"><path d="m4.167 27.623c0-6.917-3.583-11.667-3.583-15s1.916-10.333 17.249-10.333 17.583 9.417 17.583 13.083c.001 17.167-31.249 24.5-31.249 12.25z" fill="#efefef"/><path d="m26.5 8c-.827 0-1.5-.673-1.5-1.5s.673-1.5 1.5-1.5 1.5.673 1.5 1.5-.673 1.5-1.5 1.5zm0-2c-.275 0-.5.224-.5.5s.225.5.5.5.5-.224.5-.5-.225-.5-.5-.5z" fill="#a4afc1"/><g fill="#2fdf84"><circle cx="28" cy="21" r="1.25"/><circle cx="28" cy="14" r="1.25"/><circle cx="28" cy="28" r="1.25"/></g><path d="m19.75 27.25h-11.5c-.828 0-1.5-.672-1.5-1.5v-9.5c0-.828.672-1.5 1.5-1.5h11.5c.828 0 1.5.672 1.5 1.5v9.5c0 .828-.672 1.5-1.5 1.5z" fill="#f3f3f1"/><g fill="#00b871"><path d="m29 21c0-.19.049-.365.125-.526-.2-.425-.625-.724-1.125-.724-.69 0-1.25.56-1.25 1.25s.56 1.25 1.25 1.25c.5 0 .925-.299 1.125-.724-.076-.161-.125-.336-.125-.526z"/><path d="m29 14c0-.19.049-.365.125-.526-.2-.425-.625-.724-1.125-.724-.69 0-1.25.56-1.25 1.25s.56 1.25 1.25 1.25c.5 0 .925-.299 1.125-.724-.076-.161-.125-.336-.125-.526z"/><path d="m29 28c0-.19.049-.365.125-.526-.2-.425-.625-.724-1.125-.724-.69 0-1.25.56-1.25 1.25s.56 1.25 1.25 1.25c.5 0 .925-.299 1.125-.724-.076-.161-.125-.336-.125-.526z"/></g><path d="m9 25.75v-9.5c0-.828.672-1.5 1.5-1.5h-2.25c-.828 0-1.5.672-1.5 1.5v9.5c0 .828.672 1.5 1.5 1.5h2.25c-.828 0-1.5-.672-1.5-1.5z" fill="#d5dbe1"/><path d="m19.01 28h-10.76c-1.24 0-2.25-1.009-2.25-2.25v-9.5c0-1.241 1.01-2.25 2.25-2.25h11.26v1.5h-11.26c-.413 0-.75.336-.75.75v9.5c0 .414.337.75.75.75h10.76z"/><path d="m19 14.75h-1.5v-3.75c0-1.93-1.57-3.5-3.5-3.5s-3.5 1.57-3.5 3.5v3.75h-1.5v-3.75c0-2.757 2.243-5 5-5s5 2.243 5 5z"/><path d="m28 23c-1.103 0-2-.897-2-2s.897-2 2-2 2 .897 2 2-.897 2-2 2zm0-2.5c-.275 0-.5.224-.5.5s.225.5.5.5.5-.224.5-.5-.225-.5-.5-.5z"/><path d="m16.75 20.25h9.75v1.5h-9.75z"/><path d="m20 18.5h-3.25v-1.5h2.924l3.278-3.512c.142-.152.34-.238.548-.238h3v1.5h-2.674l-3.278 3.512c-.142.152-.34.238-.548.238z"/><path d="m28 16c-1.103 0-2-.897-2-2s.897-2 2-2 2 .897 2 2-.897 2-2 2zm0-2.5c-.275 0-.5.224-.5.5s.225.5.5.5.5-.224.5-.5-.225-.5-.5-.5z"/><path d="m26.5 28.75h-3c-.208 0-.406-.086-.548-.238l-3.278-3.512h-2.924v-1.5h3.25c.208 0 .406.086.548.238l3.278 3.512h2.674z"/><path d="m28 30c-1.103 0-2-.897-2-2s.897-2 2-2 2 .897 2 2-.897 2-2 2zm0-2.5c-.275 0-.5.224-.5.5s.225.5.5.5.5-.224.5-.5-.225-.5-.5-.5z"/></svg>