<svg id="_x31__x2C_5" enable-background="new 0 0 36 36" height="512" viewBox="0 0 36 36" width="512" xmlns="http://www.w3.org/2000/svg"><path d="m8.377 31.833c6.917 0 11.667 3.583 15 3.583s10.333-1.916 10.333-17.249-9.417-17.584-13.083-17.584c-17.167 0-24.5 31.25-12.25 31.25z" fill="#efefef"/><path d="m4.5 5c-.827 0-1.5-.673-1.5-1.5s.673-1.5 1.5-1.5 1.5.673 1.5 1.5-.673 1.5-1.5 1.5zm0-2c-.276 0-.5.224-.5.5s.224.5.5.5.5-.224.5-.5-.224-.5-.5-.5z" fill="#a4afc1"/><path d="m18 29.25c-6.213 0-11.25-5.037-11.25-11.25v-9.25c0-1.105.895-2 2-2h18.5c1.105 0 2 .895 2 2v9.25c0 6.213-5.037 11.25-11.25 11.25z" fill="#f3f3f1"/><g fill="#2fdf84"><circle cx="14" cy="15" r="2.25"/><circle cx="22" cy="15" r="2.25"/><path d="m22.25 24.25h-8.5c-.552 0-1-.448-1-1v-1.5c0-.552.448-1 1-1h8.5c.552 0 1 .448 1 1v1.5c0 .552-.448 1-1 1z"/><path d="m26.75 9.75h2.5v3.5h-2.5z"/><path d="m6.75 9.75h2.5v3.5h-2.5z"/></g><g fill="#00b871"><path d="m14 15c0-.831.455-1.548 1.125-1.938-.332-.193-.713-.312-1.125-.312-1.243 0-2.25 1.007-2.25 2.25s1.007 2.25 2.25 2.25c.412 0 .793-.119 1.125-.312-.67-.39-1.125-1.107-1.125-1.938z"/><path d="m22 15c0-.831.455-1.548 1.125-1.938-.332-.193-.713-.312-1.125-.312-1.243 0-2.25 1.007-2.25 2.25s1.007 2.25 2.25 2.25c.412 0 .793-.119 1.125-.312-.67-.39-1.125-1.107-1.125-1.938z"/><path d="m15 23.25v-1.5c0-.552.448-1 1-1h-2.25c-.552 0-1 .448-1 1v1.5c0 .552.448 1 1 1h2.25c-.552 0-1-.448-1-1z"/><path d="m26.75 9.75h2.25v3.5h-2.25z"/><path d="m6.75 9.75h2.25v3.5h-2.25z"/></g><path d="m9 18v-9.25c0-1.105.895-2 2-2h-2.25c-1.105 0-2 .895-2 2v9.25c0 6.213 5.037 11.25 11.25 11.25.38 0 .755-.02 1.125-.057-5.685-.564-10.125-5.36-10.125-11.193z" fill="#d5dbe1"/><path d="m18 30c-6.617 0-12-5.383-12-12v-9.25c0-1.517 1.233-2.75 2.75-2.75h18.5c1.517 0 2.75 1.233 2.75 2.75v9.25c0 6.617-5.383 12-12 12zm-9.25-22.5c-.689 0-1.25.561-1.25 1.25v9.25c0 5.79 4.71 10.5 10.5 10.5s10.5-4.71 10.5-10.5v-9.25c0-.689-.561-1.25-1.25-1.25z"/><path d="m14 18c-1.654 0-3-1.346-3-3s1.346-3 3-3 3 1.346 3 3-1.346 3-3 3zm0-4.5c-.827 0-1.5.673-1.5 1.5s.673 1.5 1.5 1.5 1.5-.673 1.5-1.5-.673-1.5-1.5-1.5z"/><path d="m22 18c-1.654 0-3-1.346-3-3s1.346-3 3-3 3 1.346 3 3-1.346 3-3 3zm0-4.5c-.827 0-1.5.673-1.5 1.5s.673 1.5 1.5 1.5 1.5-.673 1.5-1.5-.673-1.5-1.5-1.5z"/><path d="m21.25 13h1.5v4.25h-1.5z"/><path d="m22.25 25h-8.5c-.965 0-1.75-.785-1.75-1.75v-1.5c0-.965.785-1.75 1.75-1.75h8.5c.965 0 1.75.785 1.75 1.75v1.5c0 .965-.785 1.75-1.75 1.75zm-8.5-3.5c-.138 0-.25.112-.25.25v1.5c0 .138.112.25.25.25h8.5c.138 0 .25-.112.25-.25v-1.5c0-.138-.112-.25-.25-.25z"/><path d="m15.5 20.75h1.5v3.5h-1.5z"/><path d="m19 20.75h1.5v3.5h-1.5z"/><path d="m29.25 14h-2.5c-.414 0-.75-.336-.75-.75v-3.5c0-.414.336-.75.75-.75h2.5v1.5h-1.75v2h1.75z"/><path d="m9.25 14h-2.5v-1.5h1.75v-2h-1.75v-1.5h2.5c.414 0 .75.336.75.75v3.5c0 .414-.336.75-.75.75z"/></svg>