<svg id="_x31__x2C_5" enable-background="new 0 0 36 36" height="512" viewBox="0 0 36 36" width="512" xmlns="http://www.w3.org/2000/svg"><path d="m31.833 8.377c0 6.917 3.583 11.667 3.583 15s-1.916 10.333-17.249 10.333-17.584-9.417-17.584-13.083c0-17.167 31.25-24.5 31.25-12.25z" fill="#efefef"/><path d="m6.033 2.467h2v1h-2z" fill="#a4afc1" transform="matrix(.707 -.707 .707 .707 -.038 5.842)"/><path d="m1.967 6.533h2v1h-2z" fill="#a4afc1" transform="matrix(.707 -.707 .707 .707 -4.104 4.158)"/><path d="m2.644 1.967h1v2h-1z" fill="#a4afc1" transform="matrix(.707 -.707 .707 .707 -1.177 3.091)"/><path d="m22.25 24.25h-8.5c-1.105 0-2-.895-2-2v-8.5c0-1.105.895-2 2-2h8.5c1.105 0 2 .895 2 2v8.5c0 1.105-.895 2-2 2z" fill="#f3f3f1"/><g fill="#2fdf84"><circle cx="27.5" cy="8.5" r="1.75"/><circle cx="27.5" cy="27.5" r="1.75"/><circle cx="8.5" cy="8.5" r="1.75"/><circle cx="8.5" cy="27.5" r="1.75"/></g><g fill="#00b871"><path d="m28 8.5c0-.536.246-1.009.625-1.33-.305-.258-.694-.42-1.125-.42-.966 0-1.75.784-1.75 1.75s.784 1.75 1.75 1.75c.431 0 .82-.162 1.125-.42-.379-.321-.625-.794-.625-1.33z"/><path d="m28 27.5c0-.536.246-1.009.625-1.33-.305-.258-.694-.42-1.125-.42-.966 0-1.75.784-1.75 1.75s.784 1.75 1.75 1.75c.431 0 .82-.162 1.125-.42-.379-.321-.625-.794-.625-1.33z"/><path d="m9 8.5c0-.536.246-1.009.625-1.33-.305-.258-.694-.42-1.125-.42-.966 0-1.75.784-1.75 1.75s.784 1.75 1.75 1.75c.431 0 .82-.162 1.125-.42-.379-.321-.625-.794-.625-1.33z"/><path d="m9 27.5c0-.536.246-1.009.625-1.33-.305-.258-.694-.42-1.125-.42-.966 0-1.75.784-1.75 1.75s.784 1.75 1.75 1.75c.431 0 .82-.162 1.125-.42-.379-.321-.625-.794-.625-1.33z"/></g><path d="m14 22.25v-8.5c0-1.105.895-2 2-2h-2.25c-1.105 0-2 .895-2 2v8.5c0 1.105.895 2 2 2h2.25c-1.105 0-2-.895-2-2z" fill="#d5dbe1"/><path d="m22.25 25h-8.5c-1.517 0-2.75-1.233-2.75-2.75v-8.5c0-1.517 1.233-2.75 2.75-2.75h8.5c1.517 0 2.75 1.233 2.75 2.75v8.5c0 1.517-1.233 2.75-2.75 2.75zm-8.5-12.5c-.689 0-1.25.561-1.25 1.25v8.5c0 .689.561 1.25 1.25 1.25h8.5c.689 0 1.25-.561 1.25-1.25v-8.5c0-.689-.561-1.25-1.25-1.25z"/><path d="m26.5 16h-2v-1.5h2c.138 0 .25-.112.25-.25v-3.75h1.5v3.75c0 .965-.785 1.75-1.75 1.75z"/><path d="m27.5 11c-1.379 0-2.5-1.122-2.5-2.5s1.121-2.5 2.5-2.5 2.5 1.122 2.5 2.5-1.121 2.5-2.5 2.5zm0-3.5c-.552 0-1 .449-1 1s.448 1 1 1 1-.449 1-1-.448-1-1-1z"/><path d="m28.25 25.5h-1.5v-3.75c0-.138-.112-.25-.25-.25h-2v-1.5h2c.965 0 1.75.785 1.75 1.75z"/><path d="m27.5 30c-1.379 0-2.5-1.122-2.5-2.5s1.121-2.5 2.5-2.5 2.5 1.122 2.5 2.5-1.121 2.5-2.5 2.5zm0-3.5c-.552 0-1 .449-1 1s.448 1 1 1 1-.449 1-1-.448-1-1-1z"/><path d="m11.5 16h-2c-.965 0-1.75-.785-1.75-1.75v-3.75h1.5v3.75c0 .138.112.25.25.25h2z"/><path d="m8.5 11c-1.379 0-2.5-1.122-2.5-2.5s1.121-2.5 2.5-2.5 2.5 1.122 2.5 2.5-1.121 2.5-2.5 2.5zm0-3.5c-.552 0-1 .449-1 1s.448 1 1 1 1-.449 1-1-.448-1-1-1z"/><path d="m9.25 25.5h-1.5v-3.75c0-.965.785-1.75 1.75-1.75h2v1.5h-2c-.138 0-.25.112-.25.25z"/><path d="m8.5 30c-1.379 0-2.5-1.122-2.5-2.5s1.121-2.5 2.5-2.5 2.5 1.122 2.5 2.5-1.121 2.5-2.5 2.5zm0-3.5c-.552 0-1 .449-1 1s.448 1 1 1 1-.449 1-1-.448-1-1-1z"/><path d="m18 21h-1.5v-4c0-.276-.225-.5-.5-.5s-.5.224-.5.5v4h-1.5v-4c0-1.103.897-2 2-2s2 .897 2 2z"/><path d="m14.75 18h2.5v1.5h-2.5z"/><path d="m20 15h1.5v6h-1.5z"/></svg>