<svg id="_x31__x2C_5" enable-background="new 0 0 36 36" height="512" viewBox="0 0 36 36" width="512" xmlns="http://www.w3.org/2000/svg"><path d="m27.623 31.833c-6.917 0-11.667 3.583-15 3.583s-10.333-1.916-10.333-17.249 9.417-17.584 13.083-17.584c17.167 0 24.5 31.25 12.25 31.25z" fill="#efefef"/><path d="m7.375 3.25h1v2h-1z" fill="#a4afc1"/><path d="m4.125 6.25h2v1h-2z" fill="#a4afc1"/><path d="m23.043 9.417c-.221 0-.435.033-.637.1l-.016.016c.003-.04.022-.075.022-.116 0-1.473-1.128-2.667-2.522-2.667-.895 0-1.677.493-2.125 1.233-.466-.36-1.04-.567-1.658-.567-1.255 0-2.32.86-2.692 2.053-.145-.033-.303-.053-.46-.053-1.217 0-2.207 1.047-2.207 2.333 0 .853.435 1.593 1.078 2h12.344c.643-.407 1.078-1.147 1.078-2 .002-1.286-.988-2.332-2.205-2.332z" fill="#f3f3f1"/><g fill="#2fdf84"><circle cx="18" cy="24.5" r="1.75"/><circle cx="8.5" cy="27.5" r="1.75"/><circle cx="27.5" cy="27.5" r="1.75"/></g><g fill="#00b871"><path d="m18.5 24.5c0-.536.246-1.009.625-1.33-.305-.258-.694-.42-1.125-.42-.966 0-1.75.784-1.75 1.75s.784 1.75 1.75 1.75c.431 0 .82-.162 1.125-.42-.379-.321-.625-.794-.625-1.33z"/><path d="m9 27.5c0-.536.246-1.009.625-1.33-.305-.258-.694-.42-1.125-.42-.966 0-1.75.784-1.75 1.75s.784 1.75 1.75 1.75c.431 0 .82-.162 1.125-.42-.379-.321-.625-.794-.625-1.33z"/><path d="m28 27.5c0-.536.246-1.009.625-1.33-.305-.258-.694-.42-1.125-.42-.966 0-1.75.784-1.75 1.75s.784 1.75 1.75 1.75c.431 0 .82-.162 1.125-.42-.379-.321-.625-.794-.625-1.33z"/></g><path d="m13 11.75c0-1.287.99-2.333 2.207-2.333.158 0 .315.02.46.053.253-.812.831-1.462 1.568-1.799-.346-.159-.725-.254-1.126-.254-1.255 0-2.32.86-2.692 2.053-.145-.033-.303-.053-.46-.053-1.217 0-2.207 1.047-2.207 2.333 0 .853.435 1.593 1.078 2h2.25c-.643-.407-1.078-1.147-1.078-2z" fill="#d5dbe1"/><path d="m24.172 14.5h-12.344c-.142 0-.281-.04-.4-.116-.895-.565-1.428-1.55-1.428-2.634 0-1.693 1.314-3.071 2.935-3.083.61-1.217 1.821-2 3.174-2 .518 0 1.017.112 1.475.329.604-.633 1.428-.996 2.308-.996 1.558 0 2.864 1.142 3.192 2.667 1.611.022 2.916 1.396 2.916 3.083 0 1.084-.533 2.069-1.428 2.634-.119.076-.259.116-.4.116zm-12.103-1.5h11.861c.359-.299.569-.753.569-1.25 0-.873-.653-1.583-1.456-1.583h-.016c-.291.779-1.022 1.333-1.876 1.333h-.75v-1.5h.75c.276 0 .511-.267.511-.583 0-1.057-.795-1.917-1.771-1.917-.599 0-1.153.326-1.483.871-.11.183-.293.31-.504.35-.212.038-.427-.013-.596-.144-.349-.269-.764-.411-1.2-.411-.896 0-1.69.614-1.976 1.527-.117.375-.5.596-.885.507-.932-.213-1.747.575-1.747 1.55 0 .497.21.951.569 1.25z"/><path d="m14.966 12.25h-.75c-.512 0-.943-.195-1.249-.564-.652-.787-.449-2.075-.402-2.325l.14-.737 1.474.278-.139.735c-.07.385-.05.934.083 1.092h.75z"/><path d="m17.25 14h1.5v8.5h-1.5z"/><path d="m18 27c-1.379 0-2.5-1.122-2.5-2.5s1.121-2.5 2.5-2.5 2.5 1.122 2.5 2.5-1.121 2.5-2.5 2.5zm0-3.5c-.552 0-1 .449-1 1s.448 1 1 1 1-.449 1-1-.448-1-1-1z"/><path d="m8.5 30c-1.379 0-2.5-1.122-2.5-2.5s1.121-2.5 2.5-2.5 2.5 1.122 2.5 2.5-1.121 2.5-2.5 2.5zm0-3.5c-.552 0-1 .449-1 1s.448 1 1 1 1-.449 1-1-.448-1-1-1z"/><path d="m27.5 30c-1.379 0-2.5-1.122-2.5-2.5s1.121-2.5 2.5-2.5 2.5 1.122 2.5 2.5-1.121 2.5-2.5 2.5zm0-3.5c-.552 0-1 .449-1 1s.448 1 1 1 1-.449 1-1-.448-1-1-1z"/><path d="m28.25 25.5h-1.5v-3.75c0-1.241-1.01-2.25-2.25-2.25h-13c-1.24 0-2.25 1.009-2.25 2.25v3.75h-1.5v-3.75c0-2.068 1.683-3.75 3.75-3.75h13c2.067 0 3.75 1.682 3.75 3.75z"/></svg>