<svg id="_x31__x2C_5" enable-background="new 0 0 36 36" height="512" viewBox="0 0 36 36" width="512" xmlns="http://www.w3.org/2000/svg"><path d="m31.833 27.623c0-6.917 3.583-11.667 3.583-15s-1.916-10.333-17.249-10.333-17.584 9.417-17.584 13.083c0 17.167 31.25 24.5 31.25 12.25z" fill="#efefef"/><path d="m6.5 5c-.827 0-1.5-.673-1.5-1.5s.673-1.5 1.5-1.5 1.5.673 1.5 1.5-.673 1.5-1.5 1.5zm0-2c-.275 0-.5.224-.5.5s.225.5.5.5.5-.224.5-.5-.225-.5-.5-.5z" fill="#a4afc1"/><circle cx="18" cy="27" fill="#2fdf84" r="2.25"/><path d="m12.5 6.75c-1.24 0-2.25 1.01-2.25 2.25 0 .28.05.55.15.79v.001c-.13-.024-.263-.041-.4-.041-1.24 0-2.25 1.01-2.25 2.25 0 1.11.81 2.04 1.88 2.21-.53.42-.88 1.07-.88 1.79 0 1.24 1.01 2.25 2.25 2.25.01 0 .019-.006.03-.006v.006c-.18.29-.28.64-.28 1 0 1.1.9 2 2 2s2-.9 2-2v-10.25c0-1.24-1.01-2.25-2.25-2.25z" fill="#f3f3f1"/><path d="m28.25 12c0-1.24-1.01-2.25-2.25-2.25-.137 0-.27.017-.4.041v-.001c.1-.24.15-.51.15-.79 0-1.24-1.01-2.25-2.25-2.25s-2.25 1.01-2.25 2.25v10.25c0 1.1.9 2 2 2s2-.9 2-2c0-.36-.1-.71-.28-1v-.006c.01 0 .019.006.03.006 1.24 0 2.25-1.01 2.25-2.25 0-.72-.35-1.37-.88-1.79 1.07-.17 1.88-1.1 1.88-2.21z" fill="#f3f3f1"/><path d="m18 27c0-.831.455-1.548 1.125-1.938-.332-.193-.713-.312-1.125-.312-1.243 0-2.25 1.007-2.25 2.25s1.007 2.25 2.25 2.25c.412 0 .793-.119 1.125-.312-.67-.39-1.125-1.107-1.125-1.938z" fill="#00b871"/><path d="m13 19.25c0-.36.1-.71.28-1v-.006c-.01 0-.019.006-.03.006-1.24 0-2.25-1.01-2.25-2.25 0-.72.35-1.37.88-1.79-1.07-.17-1.88-1.1-1.88-2.21 0-1.24 1.01-2.25 2.25-2.25.137 0 .27.017.4.041v-.001c-.1-.24-.15-.51-.15-.79 0-.828.456-1.546 1.125-1.937-.332-.194-.714-.313-1.125-.313-1.24 0-2.25 1.01-2.25 2.25 0 .28.05.55.15.79v.001c-.13-.024-.263-.041-.4-.041-1.24 0-2.25 1.01-2.25 2.25 0 1.11.81 2.04 1.88 2.21-.53.42-.88 1.07-.88 1.79 0 1.24 1.01 2.25 2.25 2.25.01 0 .019-.006.03-.006v.006c-.18.29-.28.64-.28 1 0 1.1.9 2 2 2 .417 0 .804-.13 1.125-.35-.527-.361-.875-.967-.875-1.65z" fill="#d5dbe1"/><path d="m23.5 19.25v-10.25c0-.828.456-1.546 1.125-1.937-.332-.194-.714-.313-1.125-.313-1.24 0-2.25 1.01-2.25 2.25v10.25c0 1.1.9 2 2 2 .417 0 .804-.13 1.125-.35-.527-.361-.875-.967-.875-1.65z" fill="#d5dbe1"/><path d="m15.25 14h5.5v1.5h-5.5z"/><path d="m18 30c-1.654 0-3-1.346-3-3s1.346-3 3-3 3 1.346 3 3-1.346 3-3 3zm0-4.5c-.827 0-1.5.673-1.5 1.5s.673 1.5 1.5 1.5 1.5-.673 1.5-1.5-.673-1.5-1.5-1.5z"/><path d="m17.25 14.75h1.5v9.771h-1.5z"/><path d="m12.75 22c-1.517 0-2.75-1.233-2.75-2.75 0-.5.136-.983.394-1.396l1.273.793c-.107.172-.167.387-.167.603 0 .689.561 1.25 1.25 1.25s1.25-.561 1.25-1.25v-10.25c0-.827-.673-1.5-1.5-1.5s-1.5.673-1.5 1.5c0 .183.032.356.092.5l-1.383.58c-.139-.331-.209-.694-.209-1.08 0-1.654 1.346-3 3-3s3 1.346 3 3v10.25c0 1.517-1.233 2.75-2.75 2.75z"/><path d="m11 19c-1.654 0-3-1.346-3-3 0-.522.136-1.026.386-1.471-.843-.531-1.386-1.469-1.386-2.529 0-1.654 1.346-3 3-3s3 1.346 3 3v.75h-1.5v-.75c0-.827-.673-1.5-1.5-1.5s-1.5.673-1.5 1.5c0 .725.536 1.356 1.247 1.469.294.047.533.263.608.551s-.026.593-.26.778c-.372.295-.595.744-.595 1.202 0 .827.673 1.5 1.5 1.5.275 0 .5-.224.5-.5v-.75h1.5v.75c0 1.103-.897 2-2 2z"/><path d="m23.25 22c-1.517 0-2.75-1.233-2.75-2.75v-10.25c0-1.654 1.346-3 3-3s3 1.346 3 3c0 .386-.07.749-.209 1.08l-1.383-.58c.06-.144.092-.317.092-.5 0-.827-.673-1.5-1.5-1.5s-1.5.673-1.5 1.5v10.25c0 .689.561 1.25 1.25 1.25s1.25-.561 1.25-1.25c0-.216-.06-.431-.167-.604l1.273-.793c.258.414.394.897.394 1.397 0 1.517-1.233 2.75-2.75 2.75z"/><path d="m25 19c-1.103 0-2-.897-2-2v-.75h1.5v.75c0 .276.225.5.5.5.827 0 1.5-.673 1.5-1.5 0-.458-.223-.907-.596-1.202-.233-.185-.335-.49-.26-.778s.314-.504.608-.551c.712-.113 1.248-.744 1.248-1.469 0-.827-.673-1.5-1.5-1.5s-1.5.673-1.5 1.5v.75h-1.5v-.75c0-1.654 1.346-3 3-3s3 1.346 3 3c0 1.06-.543 1.998-1.386 2.529.25.445.386.949.386 1.471 0 1.654-1.346 3-3 3z"/></svg>