<svg id="_x31__x2C_5" enable-background="new 0 0 36 36" height="512" viewBox="0 0 36 36" width="512" xmlns="http://www.w3.org/2000/svg"><path d="m8.377 4.167c6.917 0 11.667-3.583 15-3.583s10.333 1.916 10.333 17.249-9.417 17.583-13.083 17.583c-17.167.001-24.5-31.249-12.25-31.249z" fill="#efefef"/><path d="m8.5 5c-.827 0-1.5-.673-1.5-1.5s.673-1.5 1.5-1.5 1.5.673 1.5 1.5-.673 1.5-1.5 1.5zm0-2c-.275 0-.5.224-.5.5s.225.5.5.5.5-.224.5-.5-.225-.5-.5-.5z" fill="#a4afc1"/><path d="m6.75 30v-5.75c0-1.657 1.343-3 3-3h16.5c1.657 0 3 1.343 3 3v5.75z" fill="#f3f3f1"/><path d="m11.078 21.25-.549-6.312c-.385-4.408 3.071-8.188 7.471-8.188 4.402 0 7.853 3.777 7.471 8.188l-.549 6.312z" fill="#2fdf84"/><circle cx="15" cy="15" fill="#f3f3f1" r="1.25"/><circle cx="21" cy="15" fill="#f3f3f1" r="1.25"/><path d="m10.75 25.75h5.5v4.25h-5.5z" fill="#2fdf84"/><path d="m19.125 6.844c-.367-.055-.741-.094-1.125-.094-4.4 0-7.856 3.78-7.471 8.188l.549 6.312h2.25l-.549-6.312c-.351-4.024 2.501-7.514 6.346-8.094z" fill="#00b871"/><path d="m10.75 25.75h2.25v4.25h-2.25z" fill="#00b871"/><g fill="#d5dbe1"><path d="m12 21.25h-2.25c-1.657 0-3 1.343-3 3v5.75h2.25v-5.75c0-1.657 1.343-3 3-3z"/><path d="m16 15c0-.19.049-.365.125-.526-.2-.425-.625-.724-1.125-.724-.69 0-1.25.56-1.25 1.25s.56 1.25 1.25 1.25c.5 0 .925-.299 1.125-.724-.076-.161-.125-.336-.125-.526z"/><path d="m22 15c0-.19.049-.365.125-.526-.2-.425-.625-.724-1.125-.724-.69 0-1.25.56-1.25 1.25s.56 1.25 1.25 1.25c.5 0 .925-.299 1.125-.724-.076-.161-.125-.336-.125-.526z"/></g><path d="m30 30h-1.5v-5.75c0-1.241-1.01-2.25-2.25-2.25h-16.5c-1.24 0-2.25 1.009-2.25 2.25v5.75h-1.5v-5.75c0-2.068 1.683-3.75 3.75-3.75h16.5c2.067 0 3.75 1.682 3.75 3.75z"/><path d="m25.669 21.315-1.494-.13.549-6.313c.167-1.928-.458-3.771-1.759-5.189-1.292-1.408-3.055-2.183-4.965-2.183-1.911 0-3.675.777-4.968 2.188-1.301 1.419-1.924 3.26-1.756 5.184l.549 6.313-1.494.13-.549-6.313c-.202-2.313.579-4.62 2.144-6.328 1.557-1.699 3.771-2.674 6.074-2.674 2.302 0 4.514.973 6.07 2.669 1.565 1.707 2.349 4.015 2.147 6.333z"/><path d="m15 17c-1.103 0-2-.897-2-2s.897-2 2-2 2 .897 2 2-.897 2-2 2zm0-2.5c-.275 0-.5.224-.5.5s.225.5.5.5.5-.224.5-.5-.225-.5-.5-.5z"/><path d="m21 17c-1.103 0-2-.897-2-2s.897-2 2-2 2 .897 2 2-.897 2-2 2zm0-2.5c-.275 0-.5.224-.5.5s.225.5.5.5.5-.224.5-.5-.225-.5-.5-.5z"/><path d="m24.96 14.5h5.04v1.5h-5.04z"/><path d="m6 14.5h5.04v1.5h-5.04z"/><path d="m17 30h-1.5v-3.5h-4v3.5h-1.5v-4.25c0-.414.336-.75.75-.75h5.5c.414 0 .75.336.75.75z"/><path d="m20 24.5h6v1.5h-6z"/><path d="m20 27.5h6v1.5h-6z"/></svg>