<svg id="_x31__x2C_5" enable-background="new 0 0 36 36" height="512" viewBox="0 0 36 36" width="512" xmlns="http://www.w3.org/2000/svg"><path d="m27.623 4.167c-6.917 0-11.667-3.583-15-3.583s-10.333 1.916-10.333 17.249 9.417 17.583 13.083 17.583c17.167.001 24.5-31.249 12.25-31.249z" fill="#efefef"/><path d="m7.5 5c-.827 0-1.5-.673-1.5-1.5s.673-1.5 1.5-1.5 1.5.673 1.5 1.5-.673 1.5-1.5 1.5zm0-2c-.276 0-.5.224-.5.5s.224.5.5.5.5-.224.5-.5-.224-.5-.5-.5z" fill="#a4afc1"/><path d="m18 29.25s9.25-2.446 9.25-11.075c0-4.821 0-8.001 0-8.001l-9.25-3.424-9.25 3.424v8.001c0 8.629 9.25 11.075 9.25 11.075z" fill="#f3f3f1"/><path d="m11 18.175c0-4.821 0-8.001 0-8.001l8.125-3.007-1.125-.417-9.25 3.424v8.001c0 8.629 9.25 11.075 9.25 11.075s.447-.124 1.125-.39c-2.457-.966-8.125-3.921-8.125-10.685z" fill="#d5dbe1"/><path d="m18 30c-.064 0-.129-.008-.192-.025-.098-.026-9.808-2.699-9.808-11.8v-8.001c0-.314.195-.594.49-.703l9.25-3.424c.168-.063.353-.063.521 0l9.25 3.424c.294.109.489.389.489.703v8.001c0 9.102-9.71 11.774-9.808 11.8-.063.017-.128.025-.192.025zm-8.5-19.304v7.479c0 7.297 7.232 9.894 8.503 10.294 1.32-.402 8.497-2.93 8.497-10.294v-7.479l-8.5-3.146z"/><path d="m18 21h-1.5v-4c0-.276-.224-.5-.5-.5s-.5.224-.5.5v4h-1.5v-4c0-1.103.897-2 2-2s2 .897 2 2z"/><path d="m14.75 18h2.5v1.5h-2.5z"/><path d="m20 15h1.5v6h-1.5z"/></svg>