<svg id="_x31__x2C_5" enable-background="new 0 0 36 36" height="512" viewBox="0 0 36 36" width="512" xmlns="http://www.w3.org/2000/svg"><path d="m27.623 31.833c-6.917 0-11.667 3.583-15 3.583s-10.333-1.916-10.333-17.249 9.417-17.584 13.083-17.584c17.167 0 24.5 31.25 12.25 31.25z" fill="#efefef"/><path d="m8.5 9c-.827 0-1.5-.673-1.5-1.5s.673-1.5 1.5-1.5 1.5.673 1.5 1.5-.673 1.5-1.5 1.5zm0-2c-.276 0-.5.225-.5.5s.224.5.5.5.5-.225.5-.5-.224-.5-.5-.5z" fill="#a4afc1"/><path d="m27.75 9.333h-4.5c-.828 0-1.5.672-1.5 1.5v5.5c0 .828.672 1.5 1.5 1.5h4.5c.828 0 1.5-.672 1.5-1.5v-5.5c0-.828-.672-1.5-1.5-1.5z" fill="#2fdf84"/><g fill="#f3f3f1"><path d="m23.35 9.333.4-2.5h3.5l.4 2.5z"/><path d="m27.65 17.833-.4 2.5h-3.5l-.4-2.5z"/><path d="m23.25 19.75v7.5c0 1.105-.895 2-2 2h-10.5c-1.105 0-2-.895-2-2v-7.5c0-1.105.895-2 2-2h10.5c1.105 0 2 .895 2 2z"/></g><g fill="#2fdf84"><circle cx="19" cy="22" r="1.25"/><circle cx="16" cy="13" r="1.25"/><circle cx="13" cy="22" r="1.25"/></g><path d="m24 16.333v-5.5c0-.828.672-1.5 1.5-1.5h-2.25c-.828 0-1.5.672-1.5 1.5v5.5c0 .828.672 1.5 1.5 1.5h2.25c-.828 0-1.5-.671-1.5-1.5z" fill="#00b871"/><path d="m23.75 6.833-.4 2.5h2.25l.4-2.5z" fill="#d5dbe1"/><path d="m23.35 17.833.4 2.5h2.25l-.4-2.5z" fill="#d5dbe1"/><path d="m20 22c0-.19.049-.365.125-.526-.2-.425-.625-.724-1.125-.724-.69 0-1.25.56-1.25 1.25s.56 1.25 1.25 1.25c.5 0 .925-.299 1.125-.724-.076-.161-.125-.336-.125-.526z" fill="#00b871"/><path d="m17 13c0-.19.049-.365.125-.526-.2-.425-.625-.724-1.125-.724-.69 0-1.25.56-1.25 1.25s.56 1.25 1.25 1.25c.5 0 .925-.299 1.125-.724-.076-.161-.125-.336-.125-.526z" fill="#00b871"/><path d="m14 22c0-.19.049-.365.125-.526-.2-.425-.625-.724-1.125-.724-.69 0-1.25.56-1.25 1.25s.56 1.25 1.25 1.25c.5 0 .925-.299 1.125-.724-.076-.161-.125-.336-.125-.526z" fill="#00b871"/><path d="m11 27.25v-7.5c0-1.105.895-2 2-2h-2.25c-1.105 0-2 .895-2 2v7.5c0 1.105.895 2 2 2h2.25c-1.105 0-2-.895-2-2z" fill="#d5dbe1"/><path d="m19 24c-1.103 0-2-.897-2-2s.897-2 2-2 2 .897 2 2-.897 2-2 2zm0-2.5c-.276 0-.5.225-.5.5s.224.5.5.5.5-.225.5-.5-.224-.5-.5-.5z"/><path d="m13 24c-1.103 0-2-.897-2-2s.897-2 2-2 2 .897 2 2-.897 2-2 2zm0-2.5c-.276 0-.5.225-.5.5s.224.5.5.5.5-.225.5-.5-.224-.5-.5-.5z"/><path d="m15.25 14.5h1.5v3.25h-1.5z"/><path d="m13.75 25.5h4.5v1.5h-4.5z"/><path d="m16 15c-1.103 0-2-.897-2-2s.897-2 2-2 2 .897 2 2-.897 2-2 2zm0-2.5c-.276 0-.5.225-.5.5s.224.5.5.5.5-.225.5-.5-.224-.5-.5-.5z"/><path d="m21.25 30h-10.5c-1.517 0-2.75-1.233-2.75-2.75v-7.5c0-1.517 1.233-2.75 2.75-2.75h7.75v1.5h-7.75c-.689 0-1.25.561-1.25 1.25v7.5c0 .689.561 1.25 1.25 1.25h10.5c.689 0 1.25-.561 1.25-1.25v-3.75c0-.414.336-.75.75-.75h2c.414 0 .75.336.75.75v2.5h-1.5v-1.75h-.5v3c0 1.517-1.233 2.75-2.75 2.75z"/><path d="m6.75 22.75h2v1.5h-2z"/><path d="m6 21h1.5v5h-1.5z"/><path d="m27.75 18.583h-4.5c-1.241 0-2.25-1.01-2.25-2.25v-5.5c0-1.24 1.009-2.25 2.25-2.25h4.5c1.241 0 2.25 1.01 2.25 2.25v5.5c0 1.24-1.009 2.25-2.25 2.25zm-4.5-8.5c-.414 0-.75.337-.75.75v5.5c0 .413.336.75.75.75h4.5c.414 0 .75-.337.75-.75v-5.5c0-.413-.336-.75-.75-.75z"/><path d="m26.909 9.451-.299-1.868h-2.22l-.299 1.868-1.481-.236.4-2.5c.058-.364.372-.632.741-.632h3.5c.369 0 .683.268.741.632l.4 2.5z"/><path d="m27.25 21.083h-3.5c-.369 0-.683-.268-.741-.632l-.4-2.5 1.481-.236.299 1.868h2.221l.299-1.868 1.481.236-.4 2.5c-.057.364-.371.632-.74.632z"/></svg>