<svg id="_x31__x2C_5" enable-background="new 0 0 36 36" height="512" viewBox="0 0 36 36" width="512" xmlns="http://www.w3.org/2000/svg"><path d="m27.623 4.167c-6.917 0-11.667-3.583-15-3.583s-10.333 1.916-10.333 17.249 9.417 17.583 13.083 17.583c17.167.001 24.5-31.249 12.25-31.249z" fill="#efefef"/><path d="m29.625 2.25h1v2h-1z" fill="#a4afc1"/><path d="m31.875 5.25h2v1h-2z" fill="#a4afc1"/><path d="m24 17.25h-12c-2.899 0-5.25-2.351-5.25-5.25s2.351-5.25 5.25-5.25h12c2.899 0 5.25 2.351 5.25 5.25s-2.351 5.25-5.25 5.25z" fill="#f3f3f1"/><g fill="#2fdf84"><circle cx="22.5" cy="12" r="1.75"/><circle cx="13.5" cy="12" r="1.75"/><path d="m23.25 17.25v6.75c0 2.899-2.351 5.25-5.25 5.25s-5.25-2.351-5.25-5.25v-6.75z"/></g><g fill="#00b871"><path d="m23 12c0-.536.246-1.009.625-1.33-.305-.258-.694-.42-1.125-.42-.966 0-1.75.784-1.75 1.75s.784 1.75 1.75 1.75c.431 0 .82-.162 1.125-.42-.379-.321-.625-.794-.625-1.33z"/><path d="m14 12c0-.536.246-1.009.625-1.33-.305-.258-.694-.42-1.125-.42-.966 0-1.75.784-1.75 1.75s.784 1.75 1.75 1.75c.431 0 .82-.162 1.125-.42-.379-.321-.625-.794-.625-1.33z"/><path d="m15 24v-6.75h-2.25v6.75c0 2.899 2.351 5.25 5.25 5.25.387 0 .762-.048 1.125-.128-2.358-.515-4.125-2.61-4.125-5.122z"/></g><path d="m9 12c0-2.9 2.351-5.25 5.25-5.25h-2.25c-2.899 0-5.25 2.35-5.25 5.25 0 2.899 2.351 5.25 5.25 5.25h2.25c-2.899 0-5.25-2.351-5.25-5.25z" fill="#d5dbe1"/><path d="m24 18h-12c-3.309 0-6-2.691-6-6s2.691-6 6-6h12c3.309 0 6 2.691 6 6s-2.691 6-6 6zm-12-10.5c-2.481 0-4.5 2.019-4.5 4.5s2.019 4.5 4.5 4.5h12c2.481 0 4.5-2.019 4.5-4.5s-2.019-4.5-4.5-4.5z"/><path d="m30 26h-1.5v-3c0-.276-.224-.5-.5-.5s-.5.224-.5.5v3h-1.5v-3c0-1.103.897-2 2-2s2 .897 2 2z"/><path d="m28.75 21.75h-1.5v-2.5c0-.689-.561-1.25-1.25-1.25h-16c-.689 0-1.25.561-1.25 1.25v2.5h-1.5v-2.5c0-1.517 1.233-2.75 2.75-2.75h16c1.517 0 2.75 1.233 2.75 2.75z"/><path d="m10 26h-1.5v-3c0-.276-.224-.5-.5-.5s-.5.224-.5.5v3h-1.5v-3c0-1.103.897-2 2-2s2 .897 2 2z"/><path d="m22.5 14.5c-1.378 0-2.5-1.122-2.5-2.5s1.122-2.5 2.5-2.5 2.5 1.122 2.5 2.5-1.122 2.5-2.5 2.5zm0-3.5c-.551 0-1 .449-1 1s.449 1 1 1 1-.449 1-1-.449-1-1-1z"/><path d="m13.5 14.5c-1.378 0-2.5-1.122-2.5-2.5s1.122-2.5 2.5-2.5 2.5 1.122 2.5 2.5-1.122 2.5-2.5 2.5zm0-3.5c-.551 0-1 .449-1 1s.449 1 1 1 1-.449 1-1-.449-1-1-1z"/><path d="m18 30c-3.309 0-6-2.691-6-6v-6.5h1.5v6.5c0 2.481 2.019 4.5 4.5 4.5s4.5-2.019 4.5-4.5v-6.5h1.5v6.5c0 3.309-2.691 6-6 6z"/><path d="m17.25 16.75h1.5v5.25h-1.5z"/></svg>