<svg id="_x31__x2C_5" enable-background="new 0 0 36 36" height="512" viewBox="0 0 36 36" width="512" xmlns="http://www.w3.org/2000/svg"><path d="m4.167 8.377c0 6.917-3.583 11.667-3.583 15s1.916 10.333 17.249 10.333 17.583-9.417 17.583-13.083c.001-17.167-31.249-24.5-31.249-12.25z" fill="#efefef"/><path d="m31.5 5c-.827 0-1.5-.673-1.5-1.5s.673-1.5 1.5-1.5 1.5.673 1.5 1.5-.673 1.5-1.5 1.5zm0-2c-.275 0-.5.224-.5.5s.225.5.5.5.5-.224.5-.5-.225-.5-.5-.5z" fill="#a4afc1"/><path d="m26.25 24c-1.881 3.29-4.962 5.25-8.25 5.25s-6.369-1.96-8.25-5.25c1.881-3.29 4.962-5.25 8.25-5.25s6.369 1.96 8.25 5.25z" fill="#f3f3f1"/><g fill="#2fdf84"><circle cx="18" cy="24" r="2.75"/><circle cx="18" cy="8" r="1.25"/><circle cx="11" cy="8" r="1.25"/><circle cx="25" cy="8" r="1.25"/></g><g fill="#00b871"><path d="m17.5 24c0-1.117.669-2.074 1.625-2.504-.344-.155-.723-.246-1.125-.246-1.519 0-2.75 1.231-2.75 2.75s1.231 2.75 2.75 2.75c.402 0 .781-.091 1.125-.246-.956-.43-1.625-1.387-1.625-2.504z"/><path d="m19 8c0-.19.049-.365.125-.526-.2-.425-.625-.724-1.125-.724-.69 0-1.25.56-1.25 1.25s.56 1.25 1.25 1.25c.5 0 .925-.299 1.125-.724-.076-.161-.125-.336-.125-.526z"/><path d="m12 8c0-.19.049-.365.125-.526-.2-.425-.625-.724-1.125-.724-.69 0-1.25.56-1.25 1.25s.56 1.25 1.25 1.25c.5 0 .925-.299 1.125-.724-.076-.161-.125-.336-.125-.526z"/><path d="m26 8c0-.19.049-.365.125-.526-.2-.425-.625-.724-1.125-.724-.69 0-1.25.56-1.25 1.25s.56 1.25 1.25 1.25c.5 0 .925-.299 1.125-.724-.076-.161-.125-.336-.125-.526z"/></g><path d="m12 24c1.665-2.911 4.269-4.774 7.125-5.167-.372-.051-.746-.083-1.125-.083-3.288 0-6.369 1.96-8.25 5.25 1.881 3.29 4.962 5.25 8.25 5.25.379 0 .753-.032 1.125-.083-2.856-.393-5.46-2.256-7.125-5.167z" fill="#d5dbe1"/><path d="m18 27.5c-1.93 0-3.5-1.57-3.5-3.5s1.57-3.5 3.5-3.5 3.5 1.57 3.5 3.5-1.57 3.5-3.5 3.5zm0-5.5c-1.103 0-2 .897-2 2s.897 2 2 2 2-.897 2-2-.897-2-2-2z"/><path d="m18 30c-3.559 0-6.886-2.104-8.901-5.628-.132-.23-.132-.514 0-.744 2.015-3.524 5.342-5.628 8.901-5.628s6.886 2.104 8.901 5.628c.132.23.132.514 0 .744-2.015 3.524-5.342 5.628-8.901 5.628zm-7.377-6c1.758 2.826 4.488 4.5 7.377 4.5s5.619-1.674 7.377-4.5c-1.758-2.826-4.488-4.5-7.377-4.5s-5.619 1.674-7.377 4.5z"/><path d="m18 10c-1.103 0-2-.897-2-2s.897-2 2-2 2 .897 2 2-.897 2-2 2zm0-2.5c-.275 0-.5.224-.5.5s.225.5.5.5.5-.224.5-.5-.225-.5-.5-.5z"/><path d="m17.25 8.75h1.5v7.25h-1.5z"/><path d="m13.75 16.311-3.28-3.28c-.141-.141-.22-.332-.22-.53v-3.751h1.5v3.439l3.061 3.061z"/><path d="m11 10c-1.103 0-2-.897-2-2s.897-2 2-2 2 .897 2 2-.897 2-2 2zm0-2.5c-.275 0-.5.224-.5.5s.225.5.5.5.5-.224.5-.5-.225-.5-.5-.5z"/><path d="m22.25 16.311-1.061-1.061 3.061-3.061v-3.439h1.5v3.75c0 .199-.079.39-.22.53z"/><path d="m25 10c-1.103 0-2-.897-2-2s.897-2 2-2 2 .897 2 2-.897 2-2 2zm0-2.5c-.275 0-.5.224-.5.5s.225.5.5.5.5-.224.5-.5-.225-.5-.5-.5z"/></svg>