<svg 
    id="_x31__x2C_5" 
    enable-background="new 0 0 36 36" 
    height="512" viewBox="0 0 36 36" 
    width="512" 
    xmlns="http://www.w3.org/2000/svg">
    
    <path d="m4.167 27.623c0-6.917-3.583-11.667-3.583-15s1.916-10.333 17.249-10.333 17.583 9.417 17.583 13.083c.001 17.167-31.249 24.5-31.249 12.25z" 
        fill="#686868"/>
    
    <path d="m4.5 13c-.827 0-1.5-.673-1.5-1.5s.673-1.5 1.5-1.5 1.5.673 1.5 1.5-.673 1.5-1.5 1.5zm0-2c-.275 0-.5.224-.5.5s.225.5.5.5.5-.224.5-.5-.225-.5-.5-.5z" 
        fill="#a4afc1"/>
    
    <path d="m11.75 17.25v-4.25c0-3.452 2.798-6.25 6.25-6.25s6.25 2.798 6.25 6.25v4.25z" 
        fill="#f3f3f1"/>
    
    <g fill="#77b69a">
        <path d="m6.75 29.25v-.75c0-.966.784-1.75 1.75-1.75s1.75.784 1.75 1.75v.75z"/>
        <path d="m25.75 29.25v-.75c0-.966.784-1.75 1.75-1.75s1.75.784 1.75 1.75v.75z"/>
        <path d="m16.25 29.25v-.75c0-.966.784-1.75 1.75-1.75s1.75.784 1.75 1.75v.75z"/>
        <path d="m11.75 17.25h12.5v4.167h-12.5z"/>
    </g>
    
    <g fill="#ffffff">
        <path d="m9.625 27.17c-.305-.258-.694-.42-1.125-.42-.966 0-1.75.784-1.75 1.75v.75h2.25v-.75c0-.536.246-1.009.625-1.33z"/>
        <path d="m28.625 27.17c-.305-.258-.694-.42-1.125-.42-.966 0-1.75.784-1.75 1.75v.75h2.25v-.75c0-.536.246-1.009.625-1.33z"/>
        <path d="m19.125 27.17c-.305-.258-.694-.42-1.125-.42-.966 0-1.75.784-1.75 1.75v.75h2.25v-.75c0-.536.246-1.009.625-1.33z"/>
    </g>
    
    <path d="m19.125 6.856c-.365-.066-.74-.106-1.125-.106-3.452 0-6.25 2.798-6.25 6.25v4.25h2.25v-4.25c0-3.067 2.211-5.613 5.125-6.144z" 
        fill="#d5dbe1"/>
    
    <path d="m11.75 17.25h2.5v4.167h-2.5z" 
        fill="#7df2c5"/>
    
    <path d="m28.25 26.516h-1.5v-2.266c0-1.241-1.01-2.25-2.25-2.25h-13c-1.24 0-2.25 1.009-2.25 2.25v2.25h-1.5v-2.25c0-2.068 1.683-3.75 3.75-3.75h13c2.067 0 3.75 1.682 3.75 3.75z"/>
    
    <path d="m17.25 21.25h1.5v5.25h-1.5z"/>
    
    <path d="m25 21.25h-1.5v-8.25c0-3.033-2.468-5.5-5.5-5.5s-5.5 2.467-5.5 5.5v8.25h-1.5v-8.25c0-3.86 3.141-7 7-7s7 3.14 7 7z"/>
    
    <path d="m10.25 30h-3.5c-.414 0-.75-.336-.75-.75v-.75c0-1.378 1.121-2.5 2.5-2.5s2.5 1.122 2.5 2.5v.75c0 .414-.336.75-.75.75zm-2.75-1.5h2c0-.551-.448-1-1-1s-1 .449-1 1z"/>
    
    <path d="m29.25 30h-3.5c-.414 0-.75-.336-.75-.75v-.75c0-1.378 1.121-2.5 2.5-2.5s2.5 1.122 2.5 2.5v.75c0 .414-.336.75-.75.75zm-2.75-1.5h2c0-.551-.448-1-1-1s-1 .449-1 1z"/>
    
    <path d="m19.75 30h-3.5c-.414 0-.75-.336-.75-.75v-.75c0-1.378 1.121-2.5 2.5-2.5s2.5 1.122 2.5 2.5v.75c0 .414-.336.75-.75.75zm-2.75-1.5h2c0-.551-.448-1-1-1s-1 .449-1 1z"/>
    
    <path d="m11.5 16.5h13v1.5h-13z"/>
    
    <path d="m14.75 13.679h1.5v3.571h-1.5z"/>
    
    <path d="m15.5 14c-.827 0-1.5-.673-1.5-1.5s.673-1.5 1.5-1.5 1.5.673 1.5 1.5-.673 1.5-1.5 1.5z"/>
    
    <path d="m19.75 13.679h1.5v3.571h-1.5z"/>
    
    <path d="m20.5 14c-.827 0-1.5-.673-1.5-1.5s.673-1.5 1.5-1.5 1.5.673 1.5 1.5-.673 1.5-1.5 1.5z"/>
</svg>