<svg id="_x31__x2C_5" enable-background="new 0 0 36 36" height="512" viewBox="0 0 36 36" width="512" xmlns="http://www.w3.org/2000/svg"><path d="m27.623 4.167c-6.917 0-11.667-3.583-15-3.583s-10.333 1.916-10.333 17.249 9.417 17.583 13.083 17.583c17.167.001 24.5-31.249 12.25-31.249z" fill="#efefef"/><path d="m30.5 5c-.827 0-1.5-.673-1.5-1.5s.673-1.5 1.5-1.5 1.5.673 1.5 1.5-.673 1.5-1.5 1.5zm0-2c-.276 0-.5.225-.5.5s.224.5.5.5.5-.225.5-.5-.224-.5-.5-.5z" fill="#a4afc1"/><path d="m24.5 13.25h-15c-1.519 0-2.75-1.231-2.75-2.75 0-1.519 1.231-2.75 2.75-2.75h15c1.519 0 2.75 1.231 2.75 2.75 0 1.519-1.231 2.75-2.75 2.75z" fill="#f3f3f1"/><path d="m24.5 18.75h-15c-1.519 0-2.75-1.231-2.75-2.75 0-1.519 1.231-2.75 2.75-2.75h15c1.519 0 2.75 1.231 2.75 2.75 0 1.519-1.231 2.75-2.75 2.75z" fill="#2fdf84"/><path d="m24.5 24.25h-15c-1.519 0-2.75-1.231-2.75-2.75 0-1.519 1.231-2.75 2.75-2.75h15c1.519 0 2.75 1.231 2.75 2.75 0 1.519-1.231 2.75-2.75 2.75z" fill="#f3f3f1"/><path d="m28.25 18.77h-.5c-.514 0-.925.398-.979.898-.763-.345-2.609-.898-5.011-.898h-.51c-.94 0-1.79.68-1.94 1.6-.01 0-.56 2.72-.56 2.99 0 1.03.84 1.91 1.91 1.91h2.5s-.47.7-.47 1.87c0 1.4.7 2.11 1.17 2.11.46 0 .95-.48.95-1.65 0-1.302 1.636-2.305 2.207-2.662.183.201.44.332.733.332h.5c.552 0 1-.448 1-1v-4.5c0-.552-.448-1-1-1z" fill="#2fdf84"/><g fill="#00b871"><path d="m25.41 25.27h-2.25s-.47.7-.47 1.87c0 1.4.7 2.11 1.17 2.11.46 0 .95-.48.95-1.65 0-.219.058-.425.138-.626.042-1.067.462-1.704.462-1.704z"/><path d="m21 23.36c0-.27.55-2.99.56-2.99.125-.769.742-1.365 1.49-1.541-.41-.034-.837-.059-1.29-.059h-.51c-.94 0-1.79.68-1.94 1.6-.01 0-.56 2.72-.56 2.99 0 1.03.84 1.91 1.91 1.91h2.25c-1.07 0-1.91-.88-1.91-1.91z"/><path d="m9 16c0-1.519 1.231-2.75 2.75-2.75h-2.25c-1.519 0-2.75 1.231-2.75 2.75s1.231 2.75 2.75 2.75h2.25c-1.519 0-2.75-1.231-2.75-2.75z"/></g><path d="m9 10.5c0-1.519 1.231-2.75 2.75-2.75h-2.25c-1.519 0-2.75 1.231-2.75 2.75s1.231 2.75 2.75 2.75h2.25c-1.519 0-2.75-1.231-2.75-2.75z" fill="#d5dbe1"/><path d="m9 21.5c0-1.519 1.231-2.75 2.75-2.75h-2.25c-1.519 0-2.75 1.231-2.75 2.75s1.231 2.75 2.75 2.75h2.25c-1.519 0-2.75-1.231-2.75-2.75z" fill="#d5dbe1"/><path d="m24.5 14h-15c-1.93 0-3.5-1.57-3.5-3.5s1.57-3.5 3.5-3.5h15c1.93 0 3.5 1.57 3.5 3.5s-1.57 3.5-3.5 3.5zm-15-5.5c-1.103 0-2 .897-2 2s.897 2 2 2h15c1.103 0 2-.897 2-2s-.897-2-2-2z"/><circle cx="11" cy="10.5" r="1"/><circle cx="15" cy="10.5" r="1"/><path d="m15.17 19.5h-5.67c-1.93 0-3.5-1.57-3.5-3.5 0-.929.377-1.831 1.035-2.476.633-.647 1.536-1.024 2.465-1.024h15c1.93 0 3.5 1.57 3.5 3.5 0 .228-.024.443-.063.646l-1.475-.273c.023-.117.038-.241.038-.373 0-1.103-.897-2-2-2h-15c-.536 0-1.035.208-1.404.584-.388.381-.596.88-.596 1.416 0 1.103.897 2 2 2h5.67z"/><circle cx="11" cy="16" r="1"/><circle cx="15" cy="16" r="1"/><path d="m15.25 25h-5.75c-1.93 0-3.5-1.57-3.5-3.5 0-.929.377-1.831 1.035-2.476.633-.647 1.536-1.024 2.465-1.024h6.75v1.5h-6.75c-.536 0-1.035.208-1.404.584-.388.381-.596.88-.596 1.416 0 1.103.897 2 2 2h5.75z"/><circle cx="11" cy="21.5" r="1"/><circle cx="15" cy="21.5" r="1"/><path d="m28.25 26.02h-.5c-.965 0-1.75-.785-1.75-1.75v-4.5c0-.965.785-1.75 1.75-1.75h.5c.965 0 1.75.785 1.75 1.75v4.5c0 .964-.785 1.75-1.75 1.75zm-.5-6.5c-.136 0-.25.114-.25.25v4.5c0 .138.112.25.25.25h.5c.138 0 .25-.112.25-.25v-4.5c0-.138-.112-.25-.25-.25z"/><path d="m23.86 30c-.944 0-1.92-1.07-1.92-2.86 0-.427.053-.803.127-1.12h-1.407c-1.467 0-2.66-1.193-2.66-2.659 0-.093 0-.248.29-1.739.124-.638.208-1.073.291-1.37l-.011-.002c.207-1.271 1.359-2.229 2.68-2.229h.51c2.76 0 4.388.695 5.113 1.109l-.745 1.303c-.479-.274-1.864-.912-4.368-.912h-.51c-.584 0-1.111.427-1.2.972-.005.028-.011.058-.019.085-.072.311-.509 2.512-.532 2.812.001.61.522 1.13 1.161 1.13h2.5c.277 0 .532.152.662.397.13.244.115.541-.039.771s-.343.551-.343 1.452c0 .897.353 1.317.481 1.369-.042-.029.139-.26.139-.909 0-1.671 1.624-2.868 2.321-3.306l.796 1.271c-.782.49-1.618 1.281-1.618 2.034.001 1.659-.853 2.401-1.699 2.401z"/></svg>