<svg enable-background="new 0 0 36 36" height="512" viewBox="0 0 36 36" width="512" xmlns="http://www.w3.org/2000/svg"><path d="m8.377 31.833c6.917 0 11.667 3.583 15 3.583s10.333-1.916 10.333-17.249-9.417-17.584-13.083-17.584c-17.167 0-24.5 31.25-12.25 31.25z" fill="#efefef"/><path d="m29.25 9.75v4h-22.5v-4c0-1.1.9-2 2-2h18.5c1.1 0 2 .9 2 2z" fill="#2fdf84"/><path d="m11 7.75h-2.25c-1.1 0-2 .9-2 2v4h2.25v-4c0-1.1.9-2 2-2z" fill="#00b871"/><path d="m29.25 13.75v12.5c0 1.1-.9 2-2 2h-18.5c-1.1 0-2-.9-2-2v-12.5z" fill="#f3f3f1"/><path d="m9 26.25v-12.5h-2.25v12.5c0 1.1.9 2 2 2h2.25c-1.1 0-2-.9-2-2z" fill="#d5dbe1"/><g fill="#a4afc1"><path d="m26.805 3.967h1v2h-1z" transform="matrix(.707 -.707 .707 .707 4.485 20.763)"/><path d="m30.871 8.033h1v2h-1z" transform="matrix(.707 -.707 .707 .707 2.801 24.829)"/><path d="m30.194 4.467h2v1h-2z" transform="matrix(.707 -.707 .707 .707 5.625 23.513)"/><path d="m6.333 6.217c-.827 0-1.5-.673-1.5-1.5s.673-1.5 1.5-1.5 1.5.673 1.5 1.5-.672 1.5-1.5 1.5zm0-2c-.276 0-.5.224-.5.5s.224.5.5.5.5-.224.5-.5-.224-.5-.5-.5z"/></g><path d="m27.25 29h-18.5c-1.517 0-2.75-1.233-2.75-2.75v-16.5c0-1.517 1.233-2.75 2.75-2.75h18.5c1.517 0 2.75 1.233 2.75 2.75v16.5c0 1.517-1.233 2.75-2.75 2.75zm-18.5-20.5c-.689 0-1.25.561-1.25 1.25v16.5c0 .689.561 1.25 1.25 1.25h18.5c.689 0 1.25-.561 1.25-1.25v-16.5c0-.689-.561-1.25-1.25-1.25z"/><path d="m6.75 13h20.25v1.5h-20.25z"/><path d="m6.75 18h22.5v1.5h-22.5z"/><path d="m6.75 23h22.5v1.5h-22.5z"/><path d="m11.5 13.75h1.5v14.5h-1.5z"/><path d="m17.25 13.75h1.5v14.5h-1.5z"/><path d="m23 13.75h1.5v14.5h-1.5z"/></svg>