<svg id="_x31__x2C_5" enable-background="new 0 0 36 36" height="512" viewBox="0 0 36 36" width="512" xmlns="http://www.w3.org/2000/svg"><path d="m8.377 4.167c6.917 0 11.667-3.583 15-3.583s10.333 1.916 10.333 17.249-9.417 17.583-13.083 17.583c-17.167.001-24.5-31.249-12.25-31.249z" fill="#efefef"/><path d="m4.5 8c-.827 0-1.5-.673-1.5-1.5s.673-1.5 1.5-1.5 1.5.673 1.5 1.5-.673 1.5-1.5 1.5zm0-2c-.276 0-.5.224-.5.5s.224.5.5.5.5-.224.5-.5-.224-.5-.5-.5z" fill="#a4afc1"/><circle cx="18" cy="18" fill="#2fdf84" r="5.25"/><path d="m15 18c0-2.512 1.767-4.607 4.125-5.123-.363-.079-.738-.127-1.125-.127-2.899 0-5.25 2.35-5.25 5.25 0 2.899 2.351 5.25 5.25 5.25.387 0 .762-.048 1.125-.128-2.358-.515-4.125-2.61-4.125-5.122z" fill="#00b871"/><path d="m17.25 20.5c-.199 0-.39-.079-.53-.22l-2.03-2.03 1.061-1.061 1.479 1.478 2.979-3.227 1.102 1.017-3.508 3.801c-.139.149-.332.237-.536.241-.007.001-.012.001-.017.001z"/><path d="m18 24c-3.309 0-6-2.691-6-6s2.691-6 6-6 6 2.691 6 6-2.691 6-6 6zm0-10.5c-2.481 0-4.5 2.019-4.5 4.5s2.019 4.5 4.5 4.5 4.5-2.019 4.5-4.5-2.019-4.5-4.5-4.5z"/><path d="m8.059 30.009-.059-5.25c-.002-.201.076-.394.217-.536.14-.143.333-.223.533-.223h5.25v1.5h-4.492l.05 4.491z"/><path d="m27.25 12h-5.25v-1.5h4.5v-4.5h1.5v5.25c0 .414-.336.75-.75.75z"/><path d="m6.512 21.466c-.34-1.128-.512-2.294-.512-3.466 0-6.617 5.383-12 12-12 3.69 0 7.108 1.653 9.379 4.536l-1.179.928c-1.984-2.519-4.972-3.964-8.2-3.964-5.79 0-10.5 4.71-10.5 10.5 0 1.025.151 2.046.448 3.034z"/><path d="m18 30c-3.69 0-7.108-1.653-9.379-4.536l1.179-.928c1.984 2.519 4.972 3.964 8.2 3.964 5.79 0 10.5-4.71 10.5-10.5 0-1.025-.151-2.046-.448-3.034l1.437-.433c.339 1.129.511 2.295.511 3.467 0 6.617-5.383 12-12 12z"/></svg>