<svg enable-background="new 0 0 36 36" height="512" viewBox="0 0 36 36" width="512" xmlns="http://www.w3.org/2000/svg"><path d="m27.417 3.914c-6.915.129-11.732-3.365-15.064-3.302s-10.296 2.109-10.009 17.44 9.744 17.404 13.41 17.336c17.163-.321 23.911-31.703 11.663-31.474z" fill="#efefef"/><path d="m6.75 24.75v-13h17.5v13c0 .83-.67 1.5-1.5 1.5h-14.5c-.83 0-1.5-.67-1.5-1.5z" fill="#f3f3f1"/><path d="m9 24.75v-13h-2.25v13c0 .83.67 1.5 1.5 1.5h2.25c-.83 0-1.5-.67-1.5-1.5z" fill="#d5dbe1"/><path d="m24.25 8.25v3.5h-17.5v-3.5c0-.83.67-1.5 1.5-1.5h14.5c.83 0 1.5.67 1.5 1.5z" fill="#2fdf84"/><path d="m10.5 6.75h-2.25c-.83 0-1.5.67-1.5 1.5v3.5h2.25v-3.5c0-.83.67-1.5 1.5-1.5z" fill="#00b871"/><path d="m28.957 21.89-4.53 4.54-4.95-4.95 4.53-4.54c.39-.39 1.02-.39 1.41 0l3.54 3.53c.39.39.39 1.03 0 1.42z" fill="#f3f3f1"/><path d="m24.427 26.43-2.54 2.53c-.39.39-1.02.39-1.41 0l-3.54-3.54c-.39-.39-.39-1.02 0-1.41l2.54-2.53z" fill="#2fdf84"/><path d="m21.727 22.98 4.53-4.54c.122-.122.271-.192.426-.238l-1.266-1.262c-.39-.39-1.02-.39-1.41 0l-4.53 4.54 4.95 4.95.375-.375z" fill="#d5dbe1"/><path d="m19.187 26.92c-.39-.39-.39-1.02 0-1.41l2.164-2.156-1.874-1.874-2.54 2.53c-.39.39-.39 1.02 0 1.41l3.54 3.54c.268.268.648.338.987.237z" fill="#00b871"/><g fill="#a4afc1"><path d="m27.555 3.717h1v2h-1z" transform="matrix(.707 -.707 .707 .707 4.882 21.22)"/><path d="m31.621 7.783h1v2h-1z" transform="matrix(.707 -.707 .707 .707 3.198 25.286)"/><path d="m26.878 8.283h2v1h-2z" transform="matrix(.707 -.707 .707 .707 1.955 22.286)"/><path d="m30.944 4.217h2v1h-2z" transform="matrix(.707 -.707 .707 .707 6.021 23.97)"/><path d="m6 32.783c-.827 0-1.5-.673-1.5-1.5s.673-1.5 1.5-1.5 1.5.673 1.5 1.5-.673 1.5-1.5 1.5zm0-2c-.276 0-.5.224-.5.5s.224.5.5.5.5-.224.5-.5-.224-.5-.5-.5z"/></g><path d="m21.179 29.999c-.448 0-.896-.17-1.238-.512l-3.535-3.536c-.331-.33-.513-.77-.513-1.237s.182-.907.513-1.237l7.071-7.071c.662-.661 1.815-.661 2.475 0l3.535 3.535c.683.682.683 1.793 0 2.475l-7.071 7.071c-.341.342-.789.512-1.237.512zm-.177-1.572c.127.125.225.127.354 0l7.071-7.071c.063-.064.073-.138.073-.177s-.01-.113-.073-.177l-3.536-3.535c-.128-.128-.226-.127-.354 0l-7.071 7.071c-.063.064-.073.138-.073.177s.009.113.073.176z"/><path d="m21.197 20.447h1.5v7h-1.5z" transform="matrix(.707 -.707 .707 .707 -10.505 22.532)"/><path d="m12.84 27h-4.59c-1.241 0-2.25-1.009-2.25-2.25v-16.5c0-1.241 1.009-2.25 2.25-2.25h14.5c1.241 0 2.25 1.009 2.25 2.25v4.63h-1.5v-4.63c0-.414-.336-.75-.75-.75h-14.5c-.414 0-.75.336-.75.75v16.5c0 .414.336.75.75.75h4.59z"/><path d="m6.75 11h17.5v1.5h-17.5z"/><path d="m6.75 16h13.82v1.5h-13.82z"/><path d="m15.5 22.5h-8.75v-1.5h8v-9.25h1.5v10c0 .414-.336.75-.75.75z"/></svg>