<svg id="_x31__x2C_5" enable-background="new 0 0 36 36" height="512" viewBox="0 0 36 36" width="512" xmlns="http://www.w3.org/2000/svg"><g><path d="m27.623 31.833c-6.917 0-11.667 3.583-15 3.583s-10.333-1.916-10.333-17.249 9.417-17.584 13.083-17.584c17.167 0 24.5 31.25 12.25 31.25z" fill="#efefef"/></g><g><path d="m31.369 2.705h2v1h-2z" fill="#a4afc1" transform="matrix(.707 -.707 .707 .707 7.215 23.827)"/></g><g><path d="m32.222 6.094h1v2h-1z" fill="#a4afc1" transform="matrix(.707 -.707 .707 .707 4.568 25.216)"/></g><g><path d="m28.156 2.028h1v2h-1z" fill="#a4afc1" transform="matrix(.707 -.707 .707 .707 6.252 21.15)"/></g><g><path d="m27.25 28.25h-18.5c-1.105 0-2-.895-2-2v-15h22.5v15c0 1.105-.895 2-2 2z" fill="#f3f3f1"/></g><g><path d="m29.25 11.25h-22.5v-1.5c0-1.105.895-2 2-2h18.5c1.105 0 2 .895 2 2z" fill="#2fdf84"/></g><g><path d="m21.5 16.75c-.066 0-.127.015-.192.019-.627-1.195-1.865-2.019-3.308-2.019-1.825 0-3.342 1.305-3.678 3.032-.106-.015-.212-.032-.322-.032-1.243 0-2.25 1.007-2.25 2.25s1.007 2.25 2.25 2.25h7.5c1.519 0 2.75-1.231 2.75-2.75s-1.231-2.75-2.75-2.75z" fill="#2fdf84"/></g><g><path d="m14 20c0-1.243 1.007-2.25 2.25-2.25.11 0 .216.017.322.032.263-1.357 1.261-2.442 2.559-2.85-.356-.115-.735-.182-1.131-.182-1.825 0-3.342 1.305-3.678 3.032-.106-.015-.212-.032-.322-.032-1.243 0-2.25 1.007-2.25 2.25s1.007 2.25 2.25 2.25h2.25c-1.243 0-2.25-1.007-2.25-2.25z" fill="#00b871"/></g><g><path d="m9.25 26.25v-15h-2.5v15c0 1.105.895 2 2 2h2.5c-1.105 0-2-.895-2-2z" fill="#d5dbe1"/></g><g><path d="m11 7.75h-2.25c-1.105 0-2 .895-2 2v1.5h2.25v-1.5c0-1.105.895-2 2-2z" fill="#00b871"/></g><g><path d="m24.037 21.774-1.073-1.048c.351-.36.537-.798.537-1.268 0-1.043-.921-1.909-2.098-1.972-.266-.014-.505-.169-.627-.406-.494-.96-1.583-1.58-2.776-1.58-1.316 0-2.471.738-2.892 1.843-.005.02-.011.04-.018.058-.053.146-.086.28-.107.425-.052.37-.369.645-.743.645-.153 0-.259.005-.358.024-.807.139-1.382.75-1.382 1.455 0 .126.017.234.051.33l-1.41.511c-.094-.259-.141-.541-.141-.841 0-1.438 1.099-2.67 2.613-2.931.008-.001.016-.003.023-.004.007-.022.015-.045.022-.067.006-.022.012-.044.02-.065.62-1.724 2.357-2.883 4.322-2.883 1.599 0 3.085.786 3.899 2.032 1.769.281 3.101 1.717 3.101 3.426 0 .857-.342 1.679-.963 2.316z"/></g><g><path d="m14.751 19.501h1.5v6.5h-1.5z"/></g><g><path d="m16.852 22.801-1.353-1.803-1.35 1.8-1.2-.9 1.95-2.6c.283-.376.916-.378 1.2 0l1.953 2.603z"/></g><g><path d="m19.749 18.999h1.5v6.5h-1.5z"/></g><g><path d="m20.501 26.001c-.236 0-.458-.111-.6-.3l-1.953-2.603 1.2-.9 1.353 1.803 1.35-1.8 1.2.9-1.95 2.6c-.141.189-.363.3-.6.3z"/></g><g><path d="m27.25 29h-18.5c-1.517 0-2.75-1.233-2.75-2.75v-16.5c0-1.517 1.233-2.75 2.75-2.75h18.5c1.517 0 2.75 1.233 2.75 2.75v16.5c0 1.517-1.233 2.75-2.75 2.75zm-18.5-20.5c-.689 0-1.25.561-1.25 1.25v16.5c0 .689.561 1.25 1.25 1.25h18.5c.689 0 1.25-.561 1.25-1.25v-16.5c0-.689-.561-1.25-1.25-1.25z"/></g><g><path d="m6.75 10.5h22.5v1.5h-22.5z"/></g><g><path d="m2 27.5h32v1.5h-32z"/></g></svg>