<svg id="_x31__x2C_5" enable-background="new 0 0 36 36" height="512" viewBox="0 0 36 36" width="512" xmlns="http://www.w3.org/2000/svg"><path d="m8.114 5.564c-1.805 6.677-6.504 10.327-7.374 13.545s-.847 10.475 13.955 14.477 19.432-4.501 20.388-8.041c4.481-16.572-23.772-31.807-26.969-19.981z" fill="#efefef"/><path d="m26.499 14.93c-.827 0-1.5-.673-1.5-1.5s.673-1.5 1.5-1.5 1.5.673 1.5 1.5-.673 1.5-1.5 1.5zm0-2c-.275 0-.5.225-.5.5s.225.5.5.5.5-.225.5-.5-.225-.5-.5-.5z" fill="#a4afc1"/><path d="m16.249 18.27v5c0 .54-.46.98-1.04.98h-7.42c-.7 0-1.2-.65-.99-1.28l3.23-9.54s1.22 4.86 6.22 4.84z" fill="#f3f3f1"/><path d="m11.722 6.75 9.527 9.527c-2.631 2.631-6.896 2.631-9.527 0-2.631-2.631-2.631-6.896 0-9.527z" fill="#2fdf84"/><path d="m8.924 22.97 2.389-7.055c-.965-1.232-1.284-2.485-1.284-2.485l-3.23 9.54c-.21.63.29 1.28.99 1.28h2.125c-.7 0-1.2-.65-.99-1.28z" fill="#d5dbe1"/><path d="m13.847 16.277c-2.265-2.265-2.575-5.739-.939-8.341l-1.186-1.186c-2.631 2.631-2.631 6.896 0 9.527 1.587 1.587 3.767 2.209 5.826 1.882-1.354-.215-2.657-.838-3.701-1.882z" fill="#00b871"/><path d="m22.719 23.03-2.22-2.22-2.22 2.22-1.061-1.061 2.75-2.75c.293-.293.768-.293 1.061 0l2.75 2.75z"/><path d="m19.749 20.25h1.5v9h-1.5z"/><path d="m26.499 30c-.192 0-.384-.073-.53-.22l-2.75-2.75 1.061-1.061 2.22 2.22 2.22-2.22 1.061 1.061-2.75 2.75c-.148.147-.34.22-.532.22z"/><path d="m25.749 19.75h1.5v9h-1.5z"/><path d="m15.438 10h3.621v1.5h-3.621z" transform="matrix(.707 -.707 .707 .707 -2.549 15.346)"/><path d="m16.479 19c-1.999 0-3.878-.777-5.291-2.189-1.412-1.413-2.189-3.292-2.189-5.291 0-2.017.778-3.899 2.191-5.302.294-.291.767-.291 1.059.002l9.53 9.53c.141.141.22.331.22.53s-.079.39-.22.53c-.128.128-.26.255-.4.356l-.427-.59-.233.233-8.969-8.967c-.812 1.039-1.251 2.319-1.251 3.678 0 1.599.622 3.102 1.75 4.23 1.129 1.128 2.632 1.75 4.23 1.75.333 0 .616-.022.864-.067l.271 1.475c-.338.062-.71.092-1.135.092z"/><path d="m15.249 25h-7.46c-.582 0-1.13-.277-1.465-.742-.324-.449-.41-1.005-.237-1.526l3.232-9.543 1.42.48-3.23 9.54c-.019.057-.008.115.032.171.026.037.102.12.248.12h7.46z"/><path d="m21.999 11.25h-1.5c0-2.067-1.683-3.75-3.75-3.75v-1.5c2.895 0 5.25 2.355 5.25 5.25z"/></svg>