<svg id="_x31__x2C_5" enable-background="new 0 0 36 36" height="512" viewBox="0 0 36 36" width="512" xmlns="http://www.w3.org/2000/svg"><path d="m8.377 4.167c6.917 0 11.667-3.583 15-3.583s10.333 1.916 10.333 17.249-9.417 17.583-13.083 17.583c-17.167.001-24.5-31.249-12.25-31.249z" fill="#efefef"/><path d="m31.083 4.876c-.827 0-1.5-.673-1.5-1.5s.673-1.5 1.5-1.5 1.5.673 1.5 1.5-.673 1.5-1.5 1.5zm0-2c-.275 0-.5.224-.5.5s.225.5.5.5.5-.224.5-.5-.225-.5-.5-.5z" fill="#a4afc1"/><path d="m27.25 29.25h-18.5c-1.105 0-2-.895-2-2v-18.5c0-1.105.895-2 2-2h18.5c1.105 0 2 .895 2 2v18.5c0 1.105-.895 2-2 2z" fill="#f3f3f1"/><path d="m8.75 27.25v-18.5c0-1.105.895-2 2-2h-2c-1.105 0-2 .895-2 2v18.5c0 1.105.895 2 2 2h2c-1.105 0-2-.895-2-2z" fill="#d5dbe1"/><path d="m22.25 27h-1.5c-.965 0-1.75-.785-1.75-1.75v-3.5c0-.965.785-1.75 1.75-1.75h2.25v1.5h-2.25c-.138 0-.25.112-.25.25v3.5c0 .138.112.25.25.25h.75v-1h-.5v-1.5h1.25c.414 0 .75.336.75.75v2.5c0 .414-.336.75-.75.75z"/><path d="m14.875 27h-1.875v-1.5h1.875c.345 0 .625-.28.625-.625s-.28-.625-.625-.625h-1.125c-.414 0-.75-.336-.75-.75v-2.75c0-.414.336-.75.75-.75h3.25v1.5h-2.5v1.25h.375c1.172 0 2.125.953 2.125 2.125s-.953 2.125-2.125 2.125z"/><path d="m19.75 10h1.5v7.25h-1.5z"/><path d="m22.25 12.561-1.75-1.75-1.75 1.75-1.061-1.061 2.28-2.28c.293-.293.768-.293 1.061 0l2.28 2.28z"/><path d="m14.75 9.75h1.5v7.25h-1.5z"/><path d="m15.5 18c-.192 0-.384-.073-.53-.22l-2.28-2.28 1.061-1.061 1.75 1.75 1.75-1.75 1.061 1.061-2.28 2.28c-.148.147-.34.22-.532.22z"/><path d="m27.25 30h-18.5c-1.517 0-2.75-1.233-2.75-2.75v-18.5c0-1.517 1.233-2.75 2.75-2.75h18.5c1.517 0 2.75 1.233 2.75 2.75v18.5c0 1.517-1.233 2.75-2.75 2.75zm-18.5-22.5c-.689 0-1.25.561-1.25 1.25v18.5c0 .689.561 1.25 1.25 1.25h18.5c.689 0 1.25-.561 1.25-1.25v-18.5c0-.689-.561-1.25-1.25-1.25z"/></svg>