<svg id="_x31__x2C_5" enable-background="new 0 0 36 36" height="512" viewBox="0 0 36 36" width="512" xmlns="http://www.w3.org/2000/svg"><path d="m4.167 8.377c0 6.917-3.583 11.667-3.583 15s1.916 10.333 17.249 10.333 17.583-9.417 17.583-13.083c.001-17.167-31.249-24.5-31.249-12.25z" fill="#efefef"/><path d="m7.375 4.25h1v2h-1z" fill="#a4afc1"/><path d="m4.125 7.25h2v1h-2z" fill="#a4afc1"/><path d="m11.152 22.25c-2.436 0-4.402-1.943-4.402-4.35s1.966-4.35 4.402-4.35h.078c.47-3.287 3.316-5.8 6.77-5.8 2.739 0 5.106 1.585 6.192 3.886 2.827.155 5.058 2.465 5.058 5.297 0 2.939-2.407 5.317-5.38 5.317z" fill="#f3f3f1"/><path d="m21.75 19.75-3.75-4-3.75 4h2v4.5h-2l3.75 4 3.75-4h-2v-4.5z" fill="#2fdf84"/><path d="m16.5 24.25h2v-4.5h-2l2.625-2.8-1.125-1.2-3.75 4h2v4.5h-2l3.75 4 1.125-1.2z" fill="#00b871"/><path d="m9 17.9c0-2.407 1.966-4.35 4.402-4.35h.078c.417-2.919 2.71-5.223 5.637-5.703-.364-.06-.736-.097-1.117-.097-3.453 0-6.3 2.513-6.77 5.8h-.078c-2.436 0-4.402 1.943-4.402 4.35s1.966 4.35 4.402 4.35h2.25c-2.436 0-4.402-1.943-4.402-4.35z" fill="#d5dbe1"/><path d="m18 29c-.207 0-.405-.086-.547-.237l-3.75-4c-.205-.218-.26-.537-.142-.812.119-.274.39-.452.688-.452h1.25v-3h-1.25c-.299 0-.569-.178-.688-.452-.118-.274-.063-.593.142-.812l3.75-4c.283-.302.811-.302 1.094 0l3.75 4c.205.218.26.537.142.812-.119.274-.39.452-.688.452h-1.251v3h1.25c.299 0 .569.177.688.452.118.274.063.593-.142.812l-3.75 4c-.141.151-.339.237-.546.237zm-2.019-4 2.019 2.153 2.019-2.153h-.269c-.199 0-.39-.079-.53-.22s-.22-.331-.22-.53v-4.5c0-.414.336-.75.75-.75h.269l-2.019-2.153-2.019 2.153h.269c.414 0 .75.336.75.75v4.5c0 .199-.079.39-.22.53s-.331.22-.53.22z"/><path d="m11.7 23h-.55c-2.839 0-5.15-2.288-5.15-5.1 0-2.629 2.02-4.8 4.603-5.071.777-3.364 3.852-5.829 7.397-5.829 2.792 0 5.363 1.529 6.671 3.93 3.022.377 5.329 2.933 5.329 6 0 3.151-2.483 5.807-5.653 6.048l-.113-1.496c2.393-.181 4.267-2.181 4.267-4.552 0-2.417-1.91-4.412-4.35-4.541-.275-.015-.521-.18-.639-.43-.987-2.101-3.151-3.459-5.512-3.459-3.017 0-5.607 2.216-6.027 5.156-.053.37-.369.644-.742.644-2.093 0-3.73 1.615-3.73 3.6s1.638 3.6 3.65 3.6h.55v1.5z"/></svg>