<svg id="_x31__x2C_5" enable-background="new 0 0 36 36" height="512" viewBox="0 0 36 36" width="512" xmlns="http://www.w3.org/2000/svg"><path d="m8.114 5.564c-1.805 6.677-6.504 10.327-7.374 13.545s-.847 10.475 13.955 14.477 19.432-4.501 20.388-8.041c4.481-16.572-23.772-31.807-26.969-19.981z" fill="#efefef"/><g fill="#a4afc1"><path d="m28.857 2.371h1v2h-1z"/><path d="m28.857 8.121h1v2h-1z"/><path d="m25.357 5.621h2v1h-2z"/><path d="m31.357 5.621h2v1h-2z"/></g><path d="m28.25 29.25h-8.5c-.552 0-1-.448-1-1v-6.5c0-.552.448-1 1-1h3l1.5 2h4c.552 0 1 .448 1 1v4.5c0 .552-.448 1-1 1z" fill="#f3f3f1"/><path d="m16.25 13.75h-8.5c-.552 0-1-.448-1-1v-5c0-.552.448-1 1-1h8.5c.552 0 1 .448 1 1v5c0 .552-.448 1-1 1z" fill="#2fdf84"/><path d="m20.75 28.25v-6.5c0-.552.448-1 1-1h-2c-.552 0-1 .448-1 1v6.5c0 .552.448 1 1 1h2c-.552 0-1-.448-1-1z" fill="#d5dbe1"/><path d="m8.75 12.75v-5c0-.552.448-1 1-1h-2c-.552 0-1 .448-1 1v5c0 .552.448 1 1 1h2c-.552 0-1-.448-1-1z" fill="#00b871"/><path d="m28.25 30h-8.5c-.965 0-1.75-.785-1.75-1.75v-6.5c0-.965.785-1.75 1.75-1.75h3c.236 0 .458.111.6.3l1.274 1.7h3.625c.965 0 1.75.785 1.75 1.75v4.5c.001.965-.784 1.75-1.749 1.75zm-8.5-8.5c-.138 0-.25.112-.25.25v6.5c0 .138.112.25.25.25h8.5c.138 0 .25-.112.25-.25v-4.5c0-.138-.112-.25-.25-.25h-4c-.236 0-.458-.111-.6-.3l-1.274-1.7z"/><path d="m12.75 24.061-1.25-1.25-1.25 1.25-1.061-1.061 1.78-1.78c.293-.293.768-.293 1.061 0l1.78 1.78z"/><path d="m14.25 26h-1.25c-1.241 0-2.25-1.01-2.25-2.25v-1.75h1.5v1.75c0 .413.336.75.75.75h1.25z"/><path d="m24.5 15c-.192 0-.384-.073-.53-.22l-1.781-1.78 1.061-1.061 1.25 1.25 1.25-1.25 1.061 1.061-1.78 1.78c-.147.147-.339.22-.531.22z"/><path d="m25.25 14h-1.5v-1.75c0-.414-.336-.75-.75-.75h-1.25v-1.5h1.25c1.241 0 2.25 1.009 2.25 2.25z"/><path d="m16.25 14.5h-8.5c-.965 0-1.75-.785-1.75-1.75v-5c0-.965.785-1.75 1.75-1.75h8.5c.965 0 1.75.785 1.75 1.75v5c0 .965-.785 1.75-1.75 1.75zm-8.5-7c-.138 0-.25.112-.25.25v5c0 .138.112.25.25.25h8.5c.138 0 .25-.112.25-.25v-5c0-.138-.112-.25-.25-.25z"/><path d="m9.5 15.5h5v1.5h-5z"/><path d="m11.25 13.75h1.5v2.5h-1.5z"/></svg>