<svg id="_x31__x2C_5" enable-background="new 0 0 36 36" height="512" viewBox="0 0 36 36" width="512" xmlns="http://www.w3.org/2000/svg"><path d="m34.904 20.355c-3.782-5.791-3.38-11.727-5.203-14.518s-7.256-7.603-20.093.782-9.572 17.5-7.566 20.569c9.388 14.372 39.561 3.423 32.862-6.833z" fill="#efefef"/><g fill="#a4afc1"><path d="m6.568 2.877h2v1h-2z" transform="matrix(.707 -.707 .707 .707 -.171 6.341)"/><path d="m2.503 6.942h2v1h-2z" transform="matrix(.707 -.707 .707 .707 -4.237 4.657)"/><path d="m3.003 2.2h1v2h-1z" transform="matrix(.707 -.707 .707 .707 -1.237 3.414)"/></g><path d="m27.25 29.25h-18.5c-1.105 0-2-.895-2-2v-18.5c0-1.105.895-2 2-2h18.5c1.105 0 2 .895 2 2v18.5c0 1.105-.895 2-2 2z" fill="#f3f3f1"/><path d="m8.75 27.25v-18.5c0-1.105.895-2 2-2h-2c-1.105 0-2 .895-2 2v18.5c0 1.105.895 2 2 2h2c-1.105 0-2-.895-2-2z" fill="#d5dbe1"/><path d="m17 24.25h-2.25c-.965 0-1.75-.785-1.75-1.75v-2.5h1.5v2.5c0 .138.112.25.25.25h2.25z"/><path d="m15.5 20h1.5v7h-1.5z"/><path d="m22.25 27h-1.5c-.965 0-1.75-.785-1.75-1.75v-3.5c0-.965.785-1.75 1.75-1.75h2.25v1.5h-2.25c-.138 0-.25.112-.25.25v3.5c0 .138.112.25.25.25h.75v-1h-.5v-1.5h1.25c.414 0 .75.336.75.75v2.5c0 .414-.336.75-.75.75z"/><path d="m19.75 10h1.5v7.25h-1.5z"/><path d="m22.25 12.561-1.75-1.75-1.75 1.75-1.061-1.061 2.28-2.28c.293-.293.768-.293 1.061 0l2.28 2.28z"/><path d="m14.75 9.75h1.5v7.25h-1.5z"/><path d="m15.5 18c-.192 0-.384-.073-.53-.22l-2.28-2.28 1.061-1.061 1.75 1.75 1.75-1.75 1.061 1.061-2.28 2.28c-.148.147-.34.22-.532.22z"/><path d="m27.25 30h-18.5c-1.517 0-2.75-1.233-2.75-2.75v-18.5c0-1.517 1.233-2.75 2.75-2.75h18.5c1.517 0 2.75 1.233 2.75 2.75v18.5c0 1.517-1.233 2.75-2.75 2.75zm-18.5-22.5c-.689 0-1.25.561-1.25 1.25v18.5c0 .689.561 1.25 1.25 1.25h18.5c.689 0 1.25-.561 1.25-1.25v-18.5c0-.689-.561-1.25-1.25-1.25z"/></svg>