<svg id="_x31__x2C_5" enable-background="new 0 0 36 36" height="512" viewBox="0 0 36 36" width="512" xmlns="http://www.w3.org/2000/svg"><g><path d="m31.833 27.623c0-6.917 3.583-11.667 3.583-15s-1.916-10.333-17.249-10.333-17.584 9.417-17.584 13.083c0 17.167 31.25 24.5 31.25 12.25z" fill="#efefef"/><g><path d="m10.5 9c-.827 0-1.5-.673-1.5-1.5s.673-1.5 1.5-1.5 1.5.673 1.5 1.5-.673 1.5-1.5 1.5zm0-2c-.275 0-.5.225-.5.5s.225.5.5.5.5-.225.5-.5-.225-.5-.5-.5z" fill="#a4afc1"/></g><path d="m21.25 29.25h-2.813c-.594 0-1.156-.264-1.536-.72l-.364-.437c-.8-.96-2.273-.96-3.073 0l-.364.437c-.38.456-.943.72-1.536.72h-2.814c-1.105 0-2-.895-2-2v-7h16.5v7c0 1.105-.895 2-2 2z" fill="#f3f3f1"/><path d="m20.75 23.75h2.5v2.5h-2.5z" fill="#2fdf84"/><path d="m6.75 23.75h2.5v2.5h-2.5z" fill="#2fdf84"/><path d="m9 27.25v-7h-2.25v7c0 1.105.895 2 2 2h2.25c-1.105 0-2-.895-2-2z" fill="#d5dbe1"/><path d="m20.75 23.75h2.25v2.5h-2.25z" fill="#00b871"/><path d="m6.75 23.75h2.25v2.5h-2.25z" fill="#00b871"/><g><path d="m23.25 10.561-2.75-2.75-2.75 2.75-1.061-1.061 3.28-3.28c.293-.293.768-.293 1.061 0l3.28 3.28z"/></g><g><path d="m19.75 6.75h1.5v10.25h-1.5z"/></g><g><path d="m26.5 17c-.192 0-.384-.073-.53-.22l-3.28-3.28 1.061-1.061 2.75 2.75 2.75-2.75 1.061 1.061-3.28 3.28c-.148.147-.34.22-.532.22z"/></g><g><path d="m25.75 6h1.5v10.25h-1.5z"/></g><g><path d="m21.25 30h-2.813c-.818 0-1.589-.36-2.112-.989l-.364-.437c-.477-.572-1.443-.571-1.92-.001l-.364.438c-.525.629-1.295.989-2.114.989h-2.813c-1.517 0-2.75-1.233-2.75-2.75v-7c0-.414.336-.75.75-.75h16.5c.414 0 .75.336.75.75v7c0 1.517-1.233 2.75-2.75 2.75zm-6.25-3.376c.819 0 1.589.36 2.112.99l.364.436c.238.286.588.45.96.45h2.813c.689 0 1.25-.561 1.25-1.25v-6.25h-15v6.25c0 .689.561 1.25 1.25 1.25h2.813c.372 0 .722-.164.96-.45l.364-.437c.525-.629 1.295-.989 2.114-.989z"/></g><g><path d="m7.374 20.666-1.248-.832 3-4.5c.139-.209.373-.334.624-.334h2.25c.223 0 .434.099.576.27.953 1.145 2.895 1.145 3.848 0l1.152.961c-.763.915-1.884 1.439-3.076 1.439-1.069 0-2.082-.422-2.83-1.17h-1.519z"/></g><g><path d="m23.25 27h-2.5c-.414 0-.75-.336-.75-.75v-2.5c0-.414.336-.75.75-.75h2.5v1.5h-1.75v1h1.75z"/></g><g><path d="m9.25 27h-2.5v-1.5h1.75v-1h-1.75v-1.5h2.5c.414 0 .75.336.75.75v2.5c0 .414-.336.75-.75.75z"/></g><g><path d="m12.75 23.5h4.5v1.5h-4.5z"/></g></g></svg>