<svg id="_x31__x2C_5" enable-background="new 0 0 36 36" height="512" viewBox="0 0 36 36" width="512" xmlns="http://www.w3.org/2000/svg"><path d="m27.623 4.167c-6.917 0-11.667-3.583-15-3.583s-10.333 1.916-10.333 17.249 9.417 17.583 13.083 17.583c17.167.001 24.5-31.249 12.25-31.249z" fill="#efefef"/><path d="m29.5 6c-.827 0-1.5-.673-1.5-1.5s.673-1.5 1.5-1.5 1.5.673 1.5 1.5-.673 1.5-1.5 1.5zm0-2c-.276 0-.5.224-.5.5s.224.5.5.5.5-.224.5-.5-.224-.5-.5-.5z" fill="#a4afc1"/><path d="m7.75 21v4c0 1.243 3.47 2.25 7.75 2.25s7.75-1.007 7.75-2.25v-4z" fill="#f3f3f1"/><path d="m7.75 17v4c0 1.243 3.47 2.25 7.75 2.25s7.75-1.007 7.75-2.25v-4z" fill="#2fdf84"/><path d="m7.75 13v4c0 1.243 3.47 2.25 7.75 2.25s7.75-1.007 7.75-2.25v-4z" fill="#f3f3f1"/><path d="m7.75 9v4c0 1.243 3.47 2.25 7.75 2.25s7.75-1.007 7.75-2.25v-4z" fill="#2fdf84"/><ellipse cx="15.5" cy="9" fill="#f3f3f1" rx="7.75" ry="2.25"/><path d="m28.25 24.25-4.75 5-4.75-5h3v-5c0-.276.224-.5.5-.5h2.5c.276 0 .5.224.5.5v5z" fill="#2fdf84"/><path d="m24 19.25c0-.276.224-.5.5-.5h-2.25c-.276 0-.5.224-.5.5v5h2.25z" fill="#00b871"/><path d="m21 24.25h-2.25l4.75 5 1.125-1.184z" fill="#00b871"/><path d="m10 25v-4h-2.25v4c0 1.243 3.47 2.25 7.75 2.25.383 0 .757-.011 1.125-.026-3.746-.159-6.625-1.093-6.625-2.224z" fill="#d5dbe1"/><path d="m10 21v-4h-2.25v4c0 1.243 3.47 2.25 7.75 2.25.383 0 .757-.011 1.125-.026-3.746-.159-6.625-1.093-6.625-2.224z" fill="#00b871"/><path d="m10 17v-4h-2.25v4c0 1.243 3.47 2.25 7.75 2.25.383 0 .757-.011 1.125-.026-3.746-.159-6.625-1.093-6.625-2.224z" fill="#d5dbe1"/><path d="m10 13v-4h-2.25v4c0 1.243 3.47 2.25 7.75 2.25.383 0 .757-.011 1.125-.026-3.746-.159-6.625-1.093-6.625-2.224z" fill="#00b871"/><path d="m10 9c0-1.131 2.879-2.065 6.625-2.224-.368-.015-.742-.026-1.125-.026-4.28 0-7.75 1.007-7.75 2.25s3.47 2.25 7.75 2.25c.383 0 .757-.011 1.125-.026-3.746-.159-6.625-1.093-6.625-2.224z" fill="#d5dbe1"/><path d="m23.5 30c-.206 0-.402-.084-.544-.233l-4.75-5c-.207-.217-.264-.537-.145-.813.118-.275.389-.454.689-.454h2.25v-4.25c0-.689.561-1.25 1.25-1.25h2.5c.689 0 1.25.561 1.25 1.25v4.25h2.25c.3 0 .571.179.689.454.119.275.062.595-.145.813l-4.75 5c-.142.149-.338.233-.544.233zm-3.003-5 3.003 3.161 3.003-3.161h-1.253c-.414 0-.75-.336-.75-.75v-4.75h-2v4.75c0 .414-.336.75-.75.75z"/><path d="m15.5 12c-3.157 0-8.5-.632-8.5-3s5.343-3 8.5-3 8.5.632 8.5 3-5.343 3-8.5 3zm0-4.5c-4.578 0-6.864 1.086-7.002 1.518.138.396 2.424 1.482 7.002 1.482 4.517 0 6.802-1.057 6.996-1.5-.194-.443-2.479-1.5-6.996-1.5z"/><path d="m15.5 16c-3.157 0-8.5-.632-8.5-3h1.5c.136.414 2.422 1.5 7 1.5s6.864-1.086 7.002-1.518l1.498.018c0 2.368-5.343 3-8.5 3z"/><path d="m15.5 20c-3.157 0-8.5-.632-8.5-3h1.5c0-.01-.001-.017-.002-.019.14.432 2.428 1.519 7.002 1.519 1.04 0 2.02-.059 2.914-.174l.192 1.487c-.957.125-2.002.187-3.106.187z"/><path d="m15.66 24h-.16c-3.157 0-8.5-.632-8.5-3h1.5c0-.01-.001-.017-.002-.019.14.432 2.428 1.519 7.002 1.519h.16z"/><path d="m22.5 9h1.5v6.25h-1.5z"/><path d="m15.5 28c-3.157 0-8.5-.632-8.5-3v-16h1.5v16c.138.414 2.426 1.5 7 1.5.524 0 1.03-.02 1.516-.048l.089 1.497c-.515.03-1.049.051-1.605.051z"/></svg>