<svg id="_x31__x2C_5" enable-background="new 0 0 36 36" height="512" viewBox="0 0 36 36" width="512" xmlns="http://www.w3.org/2000/svg"><path d="m31.833 27.623c0-6.917 3.583-11.667 3.583-15s-1.916-10.333-17.249-10.333-17.584 9.417-17.584 13.083c0 17.167 31.25 24.5 31.25 12.25z" fill="#efefef"/><path d="m2.5 16c-.827 0-1.5-.673-1.5-1.5s.673-1.5 1.5-1.5 1.5.673 1.5 1.5-.673 1.5-1.5 1.5zm0-2c-.275 0-.5.224-.5.5s.225.5.5.5.5-.224.5-.5-.225-.5-.5-.5z" fill="#a4afc1"/><path d="m25.25 29.25h-14.5c-1.105 0-2-.895-2-2v-18.5c0-1.105.895-2 2-2h14.5c1.105 0 2 .895 2 2v18.5c0 1.105-.895 2-2 2z" fill="#f3f3f1"/><path d="m11 27.25v-18.5c0-1.105.895-2 2-2h-2.25c-1.105 0-2 .895-2 2v18.5c0 1.105.895 2 2 2h2.25c-1.105 0-2-.895-2-2z" fill="#d5dbe1"/><path d="m9.5 21h-1.5v-5.25c0-.414.336-.75.75-.75h1.25c1.103 0 2 .897 2 2s-.897 2-2 2h-.5zm0-3.5h.5c.275 0 .5-.224.5-.5s-.225-.5-.5-.5h-.5z"/><path d="m17.25 21h-1.5v-4c0-.276-.225-.5-.5-.5s-.5.224-.5.5v4h-1.5v-4c0-1.103.897-2 2-2s2 .897 2 2z"/><path d="m13.25 17.5h4v1.5h-4z"/><path d="m25.25 15h1.5v6h-1.5z"/><path d="m24 15h4v1.5h-4z"/><path d="m25.25 30h-14.5c-1.517 0-2.75-1.233-2.75-2.75v-4.25h1.5v4.25c0 .689.561 1.25 1.25 1.25h14.5c.689 0 1.25-.561 1.25-1.25v-4.25h1.5v4.25c0 1.517-1.233 2.75-2.75 2.75z"/><path d="m28 13h-1.5v-4.25c0-.689-.561-1.25-1.25-1.25h-14.5c-.689 0-1.25.561-1.25 1.25v4.25h-1.5v-4.25c0-1.517 1.233-2.75 2.75-2.75h14.5c1.517 0 2.75 1.233 2.75 2.75z"/><path d="m20.25 21h-1.5v-5.25c0-.414.336-.75.75-.75h1.25c1.103 0 2 .897 2 2s-.897 2-2 2h-.5zm0-3.5h.5c.275 0 .5-.224.5-.5s-.225-.5-.5-.5h-.5z"/><path d="m20.625 17.661h1.499v3.177h-1.499z" transform="matrix(.894 -.447 .447 .894 -6.352 11.592)"/></svg>