<svg enable-background="new 0 0 36 36" height="512" viewBox="0 0 36 36" width="512" xmlns="http://www.w3.org/2000/svg"><path d="m8.114 5.564c-1.805 6.677-6.504 10.327-7.374 13.545s-.847 10.475 13.955 14.477 19.432-4.501 20.388-8.041c4.481-16.572-23.772-31.807-26.969-19.981z" fill="#efefef"/><path d="m6.753 24.75v-13h17.5v13c0 .83-.67 1.5-1.5 1.5h-14.5c-.83 0-1.5-.67-1.5-1.5z" fill="#f3f3f1"/><path d="m9.003 24.75v-13h-2.25v13c0 .83.67 1.5 1.5 1.5h2.25c-.83 0-1.5-.67-1.5-1.5z" fill="#d5dbe1"/><path d="m26.333 21.09-7.07 7.07-4.62 1.09 1.09-4.63 7.07-7.07z" fill="#2fdf84"/><path d="m28.813 18.61-2.48 2.48-3.53-3.54 2.47-2.47c.59-.59 1.54-.59 2.12 0l1.42 1.41c.58.59.58 1.54 0 2.12z" fill="#f3f3f1"/><path d="m17.733 25.62 6.568-6.568-1.498-1.502-7.07 7.07-1.09 4.63 2.367-.558z" fill="#00b871"/><path d="m24.803 18.55 2.47-2.47c.212-.212.474-.32.744-.38l-.624-.62c-.58-.59-1.53-.59-2.12 0l-2.47 2.47 3.53 3.54.502-.502z" fill="#d5dbe1"/><path d="m24.253 8.25v3.5h-17.5v-3.5c0-.83.67-1.5 1.5-1.5h14.5c.83 0 1.5.67 1.5 1.5z" fill="#2fdf84"/><path d="m10.503 6.75h-2.25c-.83 0-1.5.67-1.5 1.5v3.5h2.25v-3.5c0-.83.67-1.5 1.5-1.5z" fill="#00b871"/><g fill="#a4afc1"><path d="m26.805 26.217h1v2h-1z" transform="matrix(.707 -.707 .707 .707 -11.248 27.28)"/><path d="m30.871 30.283h1v2h-1z" transform="matrix(.707 -.707 .707 .707 -12.932 31.346)"/><path d="m26.128 30.783h2v1h-2z" transform="matrix(.707 -.707 .707 .707 -14.175 28.345)"/><path d="m30.194 26.717h2v1h-2z" transform="matrix(.707 -.707 .707 .707 -10.109 30.03)"/><path d="m30.5 6.5c-.827 0-1.5-.673-1.5-1.5s.673-1.5 1.5-1.5 1.5.673 1.5 1.5-.673 1.5-1.5 1.5zm0-2c-.276 0-.5.224-.5.5s.224.5.5.5.5-.224.5-.5-.224-.5-.5-.5z"/></g><path d="m14.639 30c-.197 0-.388-.077-.53-.22-.184-.184-.259-.449-.2-.702l1.09-4.625c.032-.136.101-.26.2-.358l9.546-9.546c.85-.85 2.333-.851 3.182 0l1.414 1.414c.425.424.659.99.659 1.59 0 .601-.234 1.167-.659 1.591l-9.546 9.545c-.099.099-.223.168-.358.2l-4.625 1.09c-.058.015-.116.021-.173.021zm1.771-4.996-.763 3.238 3.238-.763 9.395-9.395c.142-.142.22-.33.22-.53s-.078-.389-.22-.53l-1.414-1.414c-.293-.292-.768-.293-1.061 0z"/><path d="m23.818 16.821h1.5v5h-1.5z" transform="matrix(.707 -.707 .707 .707 -6.466 23.031)"/><path d="m12.84 27h-4.59c-1.241 0-2.25-1.009-2.25-2.25v-16.5c0-1.241 1.009-2.25 2.25-2.25h14.5c1.241 0 2.25 1.009 2.25 2.25v4.63h-1.5v-4.63c0-.414-.336-.75-.75-.75h-14.5c-.414 0-.75.336-.75.75v16.5c0 .414.336.75.75.75h4.59z"/><path d="m6.75 11h17.5v1.5h-17.5z"/><path d="m6.75 16h13.82v1.5h-13.82z"/><path d="m15.5 22.5h-8.75v-1.5h8v-9.25h1.5v10c0 .414-.336.75-.75.75z"/></svg>