<svg id="_x31__x2C_5" enable-background="new 0 0 36 36" height="512" viewBox="0 0 36 36" width="512" xmlns="http://www.w3.org/2000/svg"><g><path d="m8.377 31.833c6.917 0 11.667 3.583 15 3.583s10.333-1.916 10.333-17.249-9.417-17.584-13.083-17.584c-17.167 0-24.5 31.25-12.25 31.25z" fill="#efefef"/></g><g><path d="m33.5 20c-.827 0-1.5-.673-1.5-1.5s.673-1.5 1.5-1.5 1.5.673 1.5 1.5-.673 1.5-1.5 1.5zm0-2c-.275 0-.5.224-.5.5s.225.5.5.5.5-.224.5-.5-.225-.5-.5-.5z" fill="#a4afc1"/></g><g><path d="m27.25 28.25h-18.5c-1.105 0-2-.895-2-2v-15h22.5v15c0 1.105-.895 2-2 2z" fill="#f3f3f1"/></g><g><path d="m29.25 11.25h-22.5v-1.5c0-1.105.895-2 2-2h18.5c1.105 0 2 .895 2 2z" fill="#2fdf84"/></g><g><path d="m21.5 24.21c0 .572-.468 1.04-1.04 1.04h-9.67c-.572 0-1.04-.468-1.04-1.04v-6.42c0-.572.468-1.04 1.04-1.04h2.62l1.05 1h6.064c.555 0 1.003.452 1 1.006z" fill="#2fdf84"/></g><g><circle cx="22" cy="18" fill="#2fdf84" r="4.25"/></g><g><path d="m12 24.21v-6.42c0-.572.468-1.04 1.04-1.04h-2.25c-.572 0-1.04.468-1.04 1.04v6.42c0 .572.468 1.04 1.04 1.04h2.25c-.572 0-1.04-.468-1.04-1.04z" fill="#00b871"/></g><g><path d="m20 18c0-1.955 1.328-3.585 3.125-4.08-.361-.099-.733-.17-1.125-.17-2.347 0-4.25 1.903-4.25 4.25s1.903 4.25 4.25 4.25c.392 0 .764-.07 1.125-.17-1.797-.495-3.125-2.125-3.125-4.08z" fill="#00b871"/></g><g><path d="m9.25 26.25v-15h-2.5v15c0 1.105.895 2 2 2h2.5c-1.105 0-2-.895-2-2z" fill="#d5dbe1"/></g><g><path d="m11 7.75h-2.25c-1.105 0-2 .895-2 2v1.5h2.25v-1.5c0-1.105.895-2 2-2z" fill="#00b871"/></g><g><path d="m22 23c-2.757 0-5-2.243-5-5s2.243-5 5-5 5 2.243 5 5-2.243 5-5 5zm0-8.5c-1.93 0-3.5 1.57-3.5 3.5s1.57 3.5 3.5 3.5 3.5-1.57 3.5-3.5-1.57-3.5-3.5-3.5z"/></g><g><path d="m19.836 17.25h4.328v1.5h-4.328z" transform="matrix(.707 -.707 .707 .707 -6.284 20.828)"/></g><g><path d="m21.25 15.836h1.5v4.328h-1.5z" transform="matrix(.707 -.707 .707 .707 -6.284 20.828)"/></g><g><path d="m27.25 29h-18.5c-1.517 0-2.75-1.233-2.75-2.75v-16.5c0-1.517 1.233-2.75 2.75-2.75h18.5c1.517 0 2.75 1.233 2.75 2.75v16.5c0 1.517-1.233 2.75-2.75 2.75zm-18.5-20.5c-.689 0-1.25.561-1.25 1.25v16.5c0 .689.561 1.25 1.25 1.25h18.5c.689 0 1.25-.561 1.25-1.25v-16.5c0-.689-.561-1.25-1.25-1.25z"/></g><g><path d="m6.75 10.5h22.5v1.5h-22.5z"/></g><g><path d="m20.46 26h-9.67c-.987 0-1.79-.803-1.79-1.79v-6.42c0-.987.803-1.79 1.79-1.79h2.62c.192 0 .378.074.518.207l.832.793h2.771v1.5h-3.07c-.192 0-.378-.074-.518-.207l-.833-.793h-2.32c-.154 0-.29.136-.29.29v6.42c0 .154.136.29.29.29h9.67c.154 0 .29-.136.29-.29v-1.72h1.5v1.72c0 .987-.803 1.79-1.79 1.79z"/></g><g><path d="m2 27.5h32v1.5h-32z"/></g></svg>