<svg enable-background="new 0 0 36 36" height="512" viewBox="0 0 36 36" width="512" xmlns="http://www.w3.org/2000/svg"><path d="m34.904 20.355c-3.782-5.791-3.38-11.727-5.203-14.518s-7.256-7.603-20.093.782-9.572 17.5-7.566 20.569c9.388 14.372 39.561 3.423 32.862-6.833z" fill="#efefef"/><g fill="#a4afc1"><path d="m4.394 3.718h1v2h-1z" transform="matrix(.707 -.707 .707 .707 -1.902 4.842)"/><path d="m3.717 8.283h2v1h-2z" transform="matrix(.707 -.707 .707 .707 -4.829 5.908)"/><path d="m7.783 4.218h2v1h-2z" transform="matrix(.707 -.707 .707 .707 -.763 7.592)"/></g><path d="m8.75 24.25c-1.1 0-2-.9-2-2v-12.5c0-1.1.9-2 2-2h5.25l2 2h9.25c1.1 0 2 .9 2 2v12.5z" fill="#fff"/><path d="m9 22.25v-12.5c0-1.1.9-2 2-2h-2.25c-1.1 0-2 .9-2 2v12.5c0 1.1.9 2 2 2h2.25c-1.1 0-2-.9-2-2z" fill="#d5dbe1"/><path d="m30.875 8.25c-.827 0-1.5-.673-1.5-1.5s.673-1.5 1.5-1.5 1.5.673 1.5 1.5-.673 1.5-1.5 1.5zm0-2c-.276 0-.5.225-.5.5s.224.5.5.5.5-.225.5-.5-.224-.5-.5-.5z" fill="#a4afc1"/><circle cx="23.5" cy="23.5" fill="#2fdf84" r="5.75"/><path d="m20 23.5c0-2.79 1.988-5.115 4.625-5.638-.364-.072-.74-.112-1.125-.112-3.176 0-5.75 2.574-5.75 5.75s2.574 5.75 5.75 5.75c.385 0 .761-.039 1.125-.112-2.637-.523-4.625-2.848-4.625-5.638z" fill="#00b871"/><path d="m23.5 30c-3.584 0-6.5-2.916-6.5-6.5s2.916-6.5 6.5-6.5 6.5 2.916 6.5 6.5-2.916 6.5-6.5 6.5zm0-11.5c-2.757 0-5 2.243-5 5s2.243 5 5 5 5-2.243 5-5-2.243-5-5-5z"/><path d="m24.72 25.78-1.75-1.75c-.141-.141-.22-.331-.22-.53v-2.75h1.5v2.439l1.53 1.53z"/><path d="m15.03 25h-6.28c-1.517 0-2.75-1.234-2.75-2.75v-12.5c0-1.517 1.233-2.75 2.75-2.75h5.25c.199 0 .39.079.53.22l1.78 1.78h8.939c1.517 0 2.751 1.233 2.751 2.75v4.13h-1.5v-4.13c0-.689-.561-1.25-1.25-1.25h-9.25c-.199 0-.39-.079-.53-.22l-1.78-1.78h-4.94c-.69 0-1.25.56-1.25 1.25v12.5c0 .689.561 1.25 1.25 1.25h6.28z"/></svg>