<svg id="_x31__x2C_5" enable-background="new 0 0 36 36" height="512" viewBox="0 0 36 36" width="512" xmlns="http://www.w3.org/2000/svg"><g><path d="m31.833 8.377c0 6.917 3.583 11.667 3.583 15s-1.916 10.333-17.249 10.333-17.584-9.417-17.584-13.083c0-17.167 31.25-24.5 31.25-12.25z" fill="#efefef"/></g><g><path d="m31.68 3.644h2v1h-2z" fill="#a4afc1" transform="matrix(.707 -.707 .707 .707 6.642 24.322)"/></g><g><path d="m32.533 7.033h1v2h-1z" fill="#a4afc1" transform="matrix(.707 -.707 .707 .707 3.995 25.711)"/></g><g><path d="m28.467 2.967h1v2h-1z" fill="#a4afc1" transform="matrix(.707 -.707 .707 .707 5.679 21.645)"/></g><g><path d="m27.25 28.25h-18.5c-1.105 0-2-.895-2-2v-15h22.5v15c0 1.105-.895 2-2 2z" fill="#f3f3f1"/></g><g><path d="m29.25 11.25h-22.5v-1.5c0-1.105.895-2 2-2h18.5c1.105 0 2 .895 2 2z" fill="#2fdf84"/></g><g><path d="m9.25 26.25v-15h-2.5v15c0 1.105.895 2 2 2h2.5c-1.105 0-2-.895-2-2z" fill="#d5dbe1"/></g><g><path d="m11 7.75h-2.25c-1.105 0-2 .895-2 2v1.5h2.25v-1.5c0-1.105.895-2 2-2z" fill="#00b871"/></g><g><path d="m9.626 21.309-1.122-.995 1.246-1.405v-1.909h1.5v2.192c0 .184-.067.36-.188.497z"/></g><g><path d="m11.374 21.309-1.436-1.619c-.157-.177-.221-.419-.173-.65.049-.232.204-.428.42-.527l1.931-.892.629 1.361-1.015.468.766.863z"/></g><g><path d="m9.125 17.466h1.5v2.876h-1.5z" transform="matrix(.419 -.908 .908 .419 -11.427 19.943)"/></g><g><path d="m14.626 21.309-1.122-.995 1.246-1.405v-1.909h1.5v2.192c0 .184-.067.36-.188.497z"/></g><g><path d="m16.374 21.309-1.436-1.619c-.157-.177-.221-.419-.173-.65.049-.232.204-.428.42-.527l1.931-.892.629 1.361-1.015.468.766.863z"/></g><g><path d="m14.125 17.466h1.5v2.876h-1.5z" transform="matrix(.419 -.908 .908 .419 -8.524 24.482)"/></g><g><path d="m19.626 21.309-1.122-.995 1.246-1.405v-1.909h1.5v2.192c0 .184-.067.36-.188.497z"/></g><g><path d="m21.374 21.309-1.436-1.619c-.157-.177-.221-.419-.173-.65.049-.232.204-.428.42-.527l1.931-.892.629 1.361-1.015.468.766.863z"/></g><g><path d="m19.125 17.466h1.5v2.876h-1.5z" transform="matrix(.419 -.908 .908 .419 -5.62 29.021)"/></g><g><path d="m24.626 21.309-1.122-.995 1.246-1.405v-1.909h1.5v2.192c0 .184-.067.36-.188.497z"/></g><g><path d="m26.374 21.309-1.436-1.619c-.157-.177-.221-.419-.173-.65.049-.232.204-.428.42-.527l1.931-.892.629 1.361-1.015.468.766.863z"/></g><g><path d="m24.125 17.466h1.5v2.876h-1.5z" transform="matrix(.419 -.908 .908 .419 -2.717 33.56)"/></g><g><path d="m27.25 29h-18.5c-1.517 0-2.75-1.233-2.75-2.75v-16.5c0-1.517 1.233-2.75 2.75-2.75h18.5c1.517 0 2.75 1.233 2.75 2.75v16.5c0 1.517-1.233 2.75-2.75 2.75zm-18.5-20.5c-.689 0-1.25.561-1.25 1.25v16.5c0 .689.561 1.25 1.25 1.25h18.5c.689 0 1.25-.561 1.25-1.25v-16.5c0-.689-.561-1.25-1.25-1.25z"/></g><g><path d="m6.75 10.5h22.5v1.5h-22.5z"/></g><g><path d="m2 27.5h32v1.5h-32z"/></g></svg>