<svg id="_x31__x2C_5" enable-background="new 0 0 36 36" height="512" viewBox="0 0 36 36" width="512" xmlns="http://www.w3.org/2000/svg"><g><path d="m4.167 8.377c0 6.917-3.583 11.667-3.583 15s1.916 10.333 17.249 10.333 17.583-9.417 17.583-13.083c.001-17.167-31.249-24.5-31.249-12.25z" fill="#efefef"/></g><g><path d="m31.5 7c-.827 0-1.5-.673-1.5-1.5s.673-1.5 1.5-1.5 1.5.673 1.5 1.5-.673 1.5-1.5 1.5zm0-2c-.275 0-.5.224-.5.5s.225.5.5.5.5-.224.5-.5-.225-.5-.5-.5z" fill="#a4afc1"/></g><g><path d="m27.25 28.25h-18.5c-1.105 0-2-.895-2-2v-15h22.5v15c0 1.105-.895 2-2 2z" fill="#f3f3f1"/></g><g><path d="m29.25 11.25h-22.5v-1.5c0-1.105.895-2 2-2h18.5c1.105 0 2 .895 2 2z" fill="#2fdf84"/></g><g><path d="m12.75 19.75v4.25c0 .69 2.351 1.25 5.25 1.25s5.25-.56 5.25-1.25v-4.25z" fill="#f3f3f1"/></g><g><path d="m12.75 15v4.25c0 .69 2.351 1.25 5.25 1.25s5.25-.56 5.25-1.25v-4.25z" fill="#2fdf84"/></g><g><ellipse cx="18" cy="15" fill="#f3f3f1" rx="5.25" ry="1.25"/></g><g><path d="m11 7.75h-2.25c-1.105 0-2 .895-2 2v1.5h2.25v-1.5c0-1.105.895-2 2-2z" fill="#00b871"/></g><g><path d="m15 19.25v-4.25h-2.25v4.25c0 .69 2.351 1.25 5.25 1.25.387 0 .762-.011 1.125-.03-2.358-.123-4.125-.622-4.125-1.22z" fill="#00b871"/></g><g><path d="m9 26.25v-15h-2.25v15c0 1.105.895 2 2 2h2.25c-1.105 0-2-.895-2-2z" fill="#d5dbe1"/></g><g><path d="m15 24v-4.25h-2.25v4.25c0 .69 2.351 1.25 5.25 1.25.387 0 .762-.011 1.125-.03-2.358-.123-4.125-.622-4.125-1.22z" fill="#d5dbe1"/></g><g><path d="m15 15c0-.598 1.767-1.097 4.125-1.22-.363-.019-.738-.03-1.125-.03-2.899 0-5.25.56-5.25 1.25s2.351 1.25 5.25 1.25c.387 0 .762-.011 1.125-.03-2.358-.123-4.125-.622-4.125-1.22z" fill="#d5dbe1"/></g><g><path d="m27.25 29h-18.5c-1.517 0-2.75-1.233-2.75-2.75v-16.5c0-1.517 1.233-2.75 2.75-2.75h18.5c1.517 0 2.75 1.233 2.75 2.75v16.5c0 1.517-1.233 2.75-2.75 2.75zm-18.5-20.5c-.689 0-1.25.561-1.25 1.25v16.5c0 .689.561 1.25 1.25 1.25h18.5c.689 0 1.25-.561 1.25-1.25v-16.5c0-.689-.561-1.25-1.25-1.25z"/></g><g><path d="m6.75 10.5h22.5v1.5h-22.5z"/></g><g><path d="m18 17c-1.407 0-6-.144-6-2s4.593-2 6-2 6 .144 6 2-4.593 2-6 2zm-4.094-2c.7.24 2.095.5 4.094.5s3.394-.26 4.094-.5c-.7-.24-2.095-.5-4.094-.5s-3.394.26-4.094.5z"/></g><g><path d="m18 21.5c-1.407 0-6-.145-6-2h1.5c0-.132-.057-.22-.077-.24.253.259 1.855.74 4.577.74s4.324-.481 4.577-.74c-.02.02-.077.108-.077.24h1.5c0 1.855-4.593 2-6 2z"/></g><g><path d="m18 26c-1.407 0-6-.145-6-2v-9h1.5v8.82c.416.266 1.978.68 4.5.68s4.084-.414 4.5-.68v-8.82h1.5v9c0 1.855-4.593 2-6 2z"/></g><g><circle cx="15.5" cy="18.5" r=".5"/></g><g><circle cx="15.5" cy="23" r=".5"/></g><g><path d="m2 27.5h32v1.5h-32z"/></g></svg>