<svg id="LINE" enable-background="new 0 0 36 36" height="512" viewBox="0 0 36 36" width="512" xmlns="http://www.w3.org/2000/svg"><path d="m8.114 5.564c-1.805 6.677-6.504 10.327-7.374 13.545s-.847 10.475 13.955 14.477 19.432-4.501 20.388-8.041c4.481-16.572-23.772-31.807-26.969-19.981z" fill="#efefef"/><g fill="#a4afc1"><path d="m23.107 28.148h2.001v1h-2.001z" transform="matrix(.707 -.707 .707 .707 -13.196 25.437)"/><path d="m27.173 24.082h2v1h-2z" transform="matrix(.707 -.707 .707 .707 -9.131 27.121)"/><path d="m27.673 27.824h1v2h-1z" transform="matrix(.707 -.707 .707 .707 -12.13 28.35)"/><path d="m8.591 6.5c-.827 0-1.5-.673-1.5-1.5s.673-1.5 1.5-1.5 1.5.673 1.5 1.5-.673 1.5-1.5 1.5zm0-2c-.276 0-.5.225-.5.5s.224.5.5.5.5-.225.5-.5-.224-.5-.5-.5z"/></g><path d="m25.65 17.5 1.88-1.92c1.1-1.12 1.72-2.63 1.72-4.2v-4.63h-7.5v1.13c-.92.55-1.48 1.55-1.5 2.62z" fill="#f3f3f1"/><path d="m10.35 18.5-1.88 1.92c-1.1 1.12-1.72 2.63-1.72 4.2v4.63h7.5v-1.13c.92-.55 1.48-1.55 1.5-2.62z" fill="#f3f3f1"/><path d="m24.747 25.25h-13.494c-.278 0-.503-.225-.503-.503v-13.494c0-.278.225-.503.503-.503h13.495c.278 0 .503.225.503.503v13.495c-.001.277-.226.502-.504.502z" fill="#2fdf84"/><path d="m26.703 12.716-3.466 3.342c-.321.309-.861.225-1.064-.167-.252-.486-.198-1.068.141-1.502l1.919-2.467c-.91-.877-.91-2.299 0-3.176z" fill="#f3f3f1"/><path d="m10.47 20.42.761-.778-.881-1.142-1.88 1.92c-1.1 1.12-1.72 2.63-1.72 4.2v4.63h2v-4.63c0-1.57.62-3.08 1.72-4.2z" fill="#d5dbe1"/><path d="m27.25 6.75v4.63c0 1.57-.62 3.08-1.72 4.2l-.761.778.881 1.142 1.88-1.92c1.1-1.12 1.72-2.63 1.72-4.2v-4.63z" fill="#d5dbe1"/><path d="m12.75 24.747v-13.494c0-.278.225-.503.503-.503h-2c-.278 0-.503.225-.503.503v13.495c0 .278.225.503.503.503h2c-.278-.001-.503-.226-.503-.504z" fill="#00b871"/><path d="m9.297 23.284 3.466-3.342c.321-.309.861-.225 1.064.167.252.486.198 1.068-.141 1.502l-1.919 2.467c.91.877.91 2.299 0 3.176z" fill="#f3f3f1"/><path d="m11.5 13.188h-1.5v-2.438c0-.414.336-.75.75-.75h12.65v1.5h-11.9z"/><path d="m10 15.356h1.5v6.464h-1.5z"/><path d="m25.25 26h-12.75v-1.5h12v-10.32h1.5v11.07c0 .414-.336.75-.75.75z"/><path d="m12.288 27.794-1.041-1.08c.292-.281.453-.653.453-1.048s-.161-.767-.453-1.048c-.276-.267-.307-.698-.071-1.001l1.919-2.467c.134-.173.173-.391.11-.592l-3.387 3.266-1.041-1.08 3.466-3.342c.321-.309.778-.45 1.223-.379.447.073.821.343 1.027.739.385.742.3 1.648-.214 2.31l-1.552 1.995c.309.474.474 1.023.474 1.599-.001.806-.325 1.562-.913 2.128z"/><path d="m14.25 30h-7.5c-.414 0-.75-.336-.75-.75v-4.63c0-1.776.687-3.455 1.935-4.726l1.879-1.919 1.072 1.049-1.88 1.92c-.971.99-1.506 2.295-1.506 3.676v3.88h6v-.38c0-.264.139-.509.365-.644.685-.409 1.12-1.172 1.135-1.99l1.5.027c-.022 1.182-.587 2.295-1.5 3.001v.735c0 .415-.336.751-.75.751z"/><path d="m22.765 16.995c-.077 0-.154-.006-.231-.019-.447-.073-.821-.343-1.027-.739-.385-.742-.3-1.648.214-2.31l1.552-1.995c-.309-.474-.474-1.023-.474-1.599 0-.806.324-1.562.912-2.128l1.041 1.08c-.291.282-.452.654-.452 1.049s.161.767.453 1.048c.276.267.307.698.071 1.001l-1.919 2.467c-.134.173-.173.391-.11.592l3.387-3.266 1.041 1.08-3.466 3.342c-.265.256-.624.397-.992.397z"/><path d="m26.186 18.024-1.072-1.049 1.88-1.92c.971-.989 1.506-2.295 1.506-3.676v-3.879h-6v.38c0 .264-.139.509-.365.644-.685.409-1.12 1.172-1.135 1.99l-1.5-.027c.022-1.182.587-2.295 1.5-3.001v-.736c0-.414.336-.75.75-.75h7.5c.414 0 .75.336.75.75v4.63c0 1.776-.687 3.455-1.935 4.726z"/></svg>