<svg id="_x31__x2C_5" enable-background="new 0 0 36 36" height="512" viewBox="0 0 36 36" width="512" xmlns="http://www.w3.org/2000/svg"><path d="m8.377 4.167c6.917 0 11.667-3.583 15-3.583s10.333 1.916 10.333 17.249-9.417 17.583-13.083 17.583c-17.167.001-24.5-31.249-12.25-31.249z" fill="#efefef"/><path d="m30.5 6c-.827 0-1.5-.673-1.5-1.5s.673-1.5 1.5-1.5 1.5.673 1.5 1.5-.673 1.5-1.5 1.5zm0-2c-.276 0-.5.225-.5.5s.224.5.5.5.5-.225.5-.5-.224-.5-.5-.5z" fill="#a4afc1"/><path d="m24.5 13.25h-15c-1.519 0-2.75-1.231-2.75-2.75 0-1.519 1.231-2.75 2.75-2.75h15c1.519 0 2.75 1.231 2.75 2.75 0 1.519-1.231 2.75-2.75 2.75z" fill="#f3f3f1"/><path d="m24.5 18.75h-15c-1.519 0-2.75-1.231-2.75-2.75 0-1.519 1.231-2.75 2.75-2.75h15c1.519 0 2.75 1.231 2.75 2.75 0 1.519-1.231 2.75-2.75 2.75z" fill="#2fdf84"/><path d="m24.5 24.25h-15c-1.519 0-2.75-1.231-2.75-2.75 0-1.519 1.231-2.75 2.75-2.75h15c1.519 0 2.75 1.231 2.75 2.75 0 1.519-1.231 2.75-2.75 2.75z" fill="#f3f3f1"/><path d="m23.5 26.831-3.554 2.419 1.09-4.301-3.286-2.806 4.227-.24 1.523-4.153 1.523 4.153 4.227.24-3.286 2.806 1.09 4.301z" fill="#2fdf84"/><path d="m22.665 27.4.621-2.451-3.286-2.806 4.227-.24.398-1.085-1.125-3.068-1.523 4.153-4.227.24 3.286 2.806-1.09 4.301z" fill="#00b871"/><path d="m9 16c0-1.519 1.231-2.75 2.75-2.75h-2.25c-1.519 0-2.75 1.231-2.75 2.75s1.231 2.75 2.75 2.75h2.25c-1.519 0-2.75-1.231-2.75-2.75z" fill="#00b871"/><path d="m9 10.5c0-1.519 1.231-2.75 2.75-2.75h-2.25c-1.519 0-2.75 1.231-2.75 2.75s1.231 2.75 2.75 2.75h2.25c-1.519 0-2.75-1.231-2.75-2.75z" fill="#d5dbe1"/><path d="m9 21.5c0-1.519 1.231-2.75 2.75-2.75h-2.25c-1.519 0-2.75 1.231-2.75 2.75s1.231 2.75 2.75 2.75h2.25c-1.519 0-2.75-1.231-2.75-2.75z" fill="#d5dbe1"/><path d="m24.5 14h-15c-1.93 0-3.5-1.57-3.5-3.5s1.57-3.5 3.5-3.5h15c1.93 0 3.5 1.57 3.5 3.5s-1.57 3.5-3.5 3.5zm-15-5.5c-1.103 0-2 .897-2 2s.897 2 2 2h15c1.103 0 2-.897 2-2s-.897-2-2-2z"/><circle cx="11" cy="10.5" r="1"/><circle cx="15" cy="10.5" r="1"/><path d="m19.25 19.5h-9.75c-1.93 0-3.5-1.57-3.5-3.5 0-.929.377-1.831 1.035-2.476.633-.647 1.536-1.024 2.465-1.024h15c1.93 0 3.5 1.57 3.5 3.5 0 .644-.176 1.273-.509 1.82l-1.281-.781c.187-.307.29-.676.29-1.039 0-1.103-.897-2-2-2h-15c-.536 0-1.035.208-1.404.584-.388.381-.596.88-.596 1.416 0 1.103.897 2 2 2h9.75z"/><circle cx="11" cy="16" r="1"/><circle cx="15" cy="16" r="1"/><path d="m15.25 25h-5.75c-1.93 0-3.5-1.57-3.5-3.5 0-.929.377-1.831 1.035-2.476.633-.647 1.536-1.024 2.465-1.024h9.5v1.5h-9.5c-.536 0-1.035.208-1.404.584-.388.381-.596.88-.596 1.416 0 1.103.897 2 2 2h5.75z"/><circle cx="11" cy="21.5" r="1"/><path d="m27.054 30c-.147 0-.294-.043-.422-.13l-3.132-2.132-3.132 2.132c-.257.176-.596.174-.852-.006-.255-.179-.374-.496-.297-.799l.975-3.849-2.932-2.504c-.233-.199-.321-.52-.223-.81.098-.291.362-.492.668-.51l3.735-.211 1.354-3.69c.108-.295.39-.491.704-.491s.596.196.704.492l1.354 3.69 3.735.211c.306.018.57.219.668.51.098.29.01.61-.223.81l-2.932 2.504.975 3.849c.077.303-.042.62-.297.799-.13.09-.28.135-.43.135zm-3.554-3.919c.147 0 .295.043.422.13l1.919 1.307-.604-2.384c-.07-.277.023-.569.24-.755l1.865-1.593-2.362-.134c-.299-.018-.559-.21-.662-.491l-.818-2.232-.819 2.232c-.103.281-.363.474-.662.491l-2.362.134 1.865 1.593c.217.186.31.478.24.755l-.604 2.384 1.919-1.307c.128-.087.276-.13.423-.13z"/></svg>