<svg id="_x31__x2C_5" enable-background="new 0 0 36 36" height="512" viewBox="0 0 36 36" width="512" xmlns="http://www.w3.org/2000/svg"><path d="m31.833 8.377c0 6.917 3.583 11.667 3.583 15s-1.916 10.333-17.249 10.333-17.584-9.417-17.584-13.083c0-17.167 31.25-24.5 31.25-12.25z" fill="#efefef"/><path d="m3.497 6c-.331 0-.652-.109-.918-.316-.316-.246-.518-.601-.567-.998-.05-.397.059-.79.304-1.106.246-.316.601-.518.998-.567.395-.05.791.059 1.107.305s.518.601.567.998c.05.397-.059.79-.304 1.106-.246.315-.601.516-.998.566-.063.008-.126.012-.189.012zm.003-2c-.021 0-.041.001-.062.004-.273.034-.468.284-.434.559.034.273.283.471.558.434.273-.035.468-.285.434-.559-.032-.252-.247-.438-.496-.438z" fill="#a4afc1"/><path d="m24.5 13.25h-15c-1.519 0-2.75-1.231-2.75-2.75 0-1.519 1.231-2.75 2.75-2.75h15c1.519 0 2.75 1.231 2.75 2.75 0 1.519-1.231 2.75-2.75 2.75z" fill="#f3f3f1"/><path d="m24.5 18.75h-15c-1.519 0-2.75-1.231-2.75-2.75 0-1.519 1.231-2.75 2.75-2.75h15c1.519 0 2.75 1.231 2.75 2.75 0 1.519-1.231 2.75-2.75 2.75z" fill="#2fdf84"/><path d="m24.5 24.25h-15c-1.519 0-2.75-1.231-2.75-2.75 0-1.519 1.231-2.75 2.75-2.75h15c1.519 0 2.75 1.231 2.75 2.75 0 1.519-1.231 2.75-2.75 2.75z" fill="#f3f3f1"/><circle cx="23.5" cy="23.5" fill="#2fdf84" r="5.75"/><path d="m9 16c0-1.519 1.231-2.75 2.75-2.75h-2.25c-1.519 0-2.75 1.231-2.75 2.75s1.231 2.75 2.75 2.75h2.25c-1.519 0-2.75-1.231-2.75-2.75z" fill="#00b871"/><path d="m20 23.5c0-2.79 1.988-5.115 4.625-5.638-.364-.072-.74-.112-1.125-.112-3.176 0-5.75 2.574-5.75 5.75s2.574 5.75 5.75 5.75c.385 0 .761-.039 1.125-.112-2.637-.523-4.625-2.848-4.625-5.638z" fill="#00b871"/><path d="m9 10.5c0-1.519 1.231-2.75 2.75-2.75h-2.25c-1.519 0-2.75 1.231-2.75 2.75s1.231 2.75 2.75 2.75h2.25c-1.519 0-2.75-1.231-2.75-2.75z" fill="#d5dbe1"/><path d="m9 21.5c0-1.519 1.231-2.75 2.75-2.75h-2.25c-1.519 0-2.75 1.231-2.75 2.75s1.231 2.75 2.75 2.75h2.25c-1.519 0-2.75-1.231-2.75-2.75z" fill="#d5dbe1"/><path d="m24.5 14h-15c-1.93 0-3.5-1.57-3.5-3.5s1.57-3.5 3.5-3.5h15c1.93 0 3.5 1.57 3.5 3.5s-1.57 3.5-3.5 3.5zm-15-5.5c-1.103 0-2 .897-2 2s.897 2 2 2h15c1.103 0 2-.897 2-2s-.897-2-2-2z"/><circle cx="11" cy="10.5" r="1"/><circle cx="15" cy="10.5" r="1"/><path d="m15.87 19.5h-6.37c-1.93 0-3.5-1.57-3.5-3.5 0-.929.377-1.831 1.035-2.476.633-.647 1.536-1.024 2.465-1.024h15c1.583 0 2.971 1.064 3.375 2.588l-1.45.385c-.23-.868-1.021-1.473-1.925-1.473h-15c-.536 0-1.035.208-1.404.584-.388.381-.596.88-.596 1.416 0 1.103.897 2 2 2h6.37z"/><circle cx="11" cy="16" r="1"/><circle cx="15" cy="16" r="1"/><path d="m14.25 25h-4.75c-1.93 0-3.5-1.57-3.5-3.5 0-.929.377-1.831 1.035-2.476.633-.647 1.536-1.024 2.465-1.024h6.37v1.5h-6.37c-.536 0-1.035.208-1.404.584-.388.381-.596.88-.596 1.416 0 1.103.897 2 2 2h4.75z"/><circle cx="11" cy="21.5" r="1"/><path d="m23.5 30c-3.584 0-6.5-2.916-6.5-6.5s2.916-6.5 6.5-6.5 6.5 2.916 6.5 6.5-2.916 6.5-6.5 6.5zm0-11.5c-2.757 0-5 2.243-5 5s2.243 5 5 5 5-2.243 5-5-2.243-5-5-5z"/><path d="m22.5 26c-.199 0-.39-.079-.53-.22l-1.75-1.75 1.061-1.061 1.2 1.199 2.72-2.93 1.1 1.021-3.25 3.5c-.139.148-.332.235-.536.239-.006.002-.011.002-.015.002z"/></svg>