<svg id="_x31__x2C_5" enable-background="new 0 0 36 36" height="512" viewBox="0 0 36 36" width="512" xmlns="http://www.w3.org/2000/svg"><g><path d="m4.167 27.623c0-6.917-3.583-11.667-3.583-15s1.916-10.333 17.249-10.333 17.583 9.417 17.583 13.083c.001 17.167-31.249 24.5-31.249 12.25z" fill="#efefef"/></g><g><path d="m4.125 2h1v2h-1z" fill="#a4afc1"/></g><g><path d="m.875 5h2v1h-2z" fill="#a4afc1"/></g><g><path d="m27.25 28.25h-18.5c-1.105 0-2-.895-2-2v-15h22.5v15c0 1.105-.895 2-2 2z" fill="#f3f3f1"/></g><g><path d="m29.25 11.25h-22.5v-1.5c0-1.105.895-2 2-2h18.5c1.105 0 2 .895 2 2z" fill="#2fdf84"/></g><g><path d="m20.298 17.848-4.45 4.45c-.391.391-1.024.391-1.414 0l-1.621-1.621c-.391-.391-.391-1.024 0-1.414l4.45-4.45c.391-.391 1.024-.391 1.414 0l1.621 1.621c.391.391.391 1.024 0 1.414z" fill="#2fdf84"/></g><g><path d="m11 7.75h-2.25c-1.105 0-2 .895-2 2v1.5h2.25v-1.5c0-1.105.895-2 2-2z" fill="#00b871"/></g><g><path d="m15.063 20.677c-.391-.391-.391-1.024 0-1.414l4.032-4.032-.418-.418c-.391-.391-1.024-.391-1.414 0l-4.45 4.45c-.391.391-.391 1.024 0 1.414l1.621 1.621c.391.391 1.024.391 1.414 0l.418-.418z" fill="#00b871"/></g><g><path d="m9 26.25v-15h-2.25v15c0 1.105.895 2 2 2h2.25c-1.105 0-2-.895-2-2z" fill="#d5dbe1"/></g><g><path d="m15.142 23.341c-.001 0-.001 0 0 0-.469 0-.908-.183-1.238-.514l-1.621-1.62c-.683-.683-.683-1.792 0-2.475l4.45-4.45c.682-.682 1.793-.682 2.475 0l1.621 1.622c.33.329.513.769.513 1.236s-.182.907-.513 1.238l-4.449 4.449c-.331.332-.772.514-1.238.514zm2.828-8.071c-.063 0-.128.024-.177.073l-4.45 4.45c-.098.098-.098.256 0 .354l1.622 1.621c.065.065.185.069.177.073.038 0 .113-.01.177-.073l4.449-4.449c.063-.063.073-.139.073-.178 0-.038-.01-.112-.072-.175l-1.622-1.623c-.049-.049-.113-.073-.177-.073z"/></g><g><path d="m20.152 19.255h1.5v7.293h-1.5z" transform="matrix(.707 -.707 .707 .707 -10.072 21.488)"/></g><g><path d="m27.25 29h-18.5c-1.517 0-2.75-1.233-2.75-2.75v-16.5c0-1.517 1.233-2.75 2.75-2.75h18.5c1.517 0 2.75 1.233 2.75 2.75v16.5c0 1.517-1.233 2.75-2.75 2.75zm-18.5-20.5c-.689 0-1.25.561-1.25 1.25v16.5c0 .689.561 1.25 1.25 1.25h18.5c.689 0 1.25-.561 1.25-1.25v-16.5c0-.689-.561-1.25-1.25-1.25z"/></g><g><path d="m6.75 10.5h22.5v1.5h-22.5z"/></g><g><path d="m2 27.5h32v1.5h-32z"/></g></svg>