<svg id="_x31__x2C_5" enable-background="new 0 0 36 36" height="512" viewBox="0 0 36 36" width="512" xmlns="http://www.w3.org/2000/svg"><g><path d="m27.623 4.167c-6.917 0-11.667-3.583-15-3.583s-10.333 1.916-10.333 17.249 9.417 17.583 13.083 17.583c17.167.001 24.5-31.249 12.25-31.249z" fill="#efefef"/></g><g><g><path d="m29.856 7.821h2v1h-2z" fill="#a4afc1" transform="matrix(.707 -.707 .707 .707 3.154 24.256)"/></g><g><path d="m26.467 6.967h1v2h-1z" fill="#a4afc1" transform="matrix(.707 -.707 .707 .707 2.265 21.402)"/></g><g><path d="m30.533 11.033h1v2h-1z" fill="#a4afc1" transform="matrix(.707 -.707 .707 .707 .581 25.468)"/></g></g><g><path d="m20.277 26.25h-11.527c-1.1 0-2-.9-2-2v-15.5c0-1.1.9-2 2-2h11.5c1.1 0 2 .9 2 2l.027 15.497c.001 1.105-.895 2.003-2 2.003z" fill="#f3f3f1"/></g><g><circle cx="14.5" cy="11" fill="#2fdf84" r="1.25"/></g><g><path d="m17.75 18v-1.25c0-1.105-.895-2-2-2h-2.5c-1.105 0-2 .895-2 2v1.25z" fill="#2fdf84"/></g><g><path d="m26.253 18.75c-1.229 0-2.287.737-2.747 1.793-.459-1.056-1.518-1.793-2.747-1.793-1.653 0-2.997 1.34-2.997 2.988 0 3.237 5.743 7.512 5.743 7.512s5.743-4.275 5.743-7.512c.002-1.648-1.341-2.988-2.995-2.988z" fill="#2fdf84"/></g><g><path d="m9 24.25v-15.5c0-1.1.9-2 2-2h-2.25c-1.1 0-2 .9-2 2v15.5c0 1.1.9 2 2 2h2.25c-1.1 0-2-.9-2-2z" fill="#d5dbe1"/></g><g><path d="m15.5 11c0-.19.049-.365.125-.526-.2-.425-.625-.724-1.125-.724-.69 0-1.25.56-1.25 1.25s.56 1.25 1.25 1.25c.5 0 .925-.299 1.125-.724-.076-.161-.125-.336-.125-.526z" fill="#00b871"/></g><g><path d="m15.5 14.75h-2.25c-1.105 0-2 .895-2 2v1.25h2.25v-1.25c0-1.105.895-2 2-2z" fill="#00b871"/></g><g><path d="m20.013 21.738c0-1.25.773-2.318 1.867-2.764-.347-.14-.723-.224-1.12-.224-1.653 0-2.997 1.34-2.997 2.988 0 3.237 5.743 7.512 5.743 7.512s.466-.35 1.125-.913c-1.67-1.429-4.618-4.277-4.618-6.599z" fill="#00b871"/></g><g><path d="m23.507 30c-.157 0-.315-.049-.448-.148-.619-.46-6.046-4.601-6.046-8.113 0-2.061 1.681-3.738 3.747-3.738 1.062 0 2.051.445 2.747 1.193.696-.748 1.684-1.194 2.746-1.194 2.066 0 3.747 1.677 3.747 3.738 0 3.513-5.427 7.653-6.045 8.113-.133.1-.291.149-.448.149zm-2.747-10.5c-1.239 0-2.247 1.004-2.247 2.238 0 2.138 3.271 5.189 4.994 6.564 1.722-1.375 4.993-4.426 4.993-6.564 0-1.234-1.008-2.238-2.247-2.238-.896 0-1.704.527-2.059 1.342-.238.548-1.137.548-1.375 0-.355-.815-1.163-1.342-2.059-1.342z"/></g><g><path d="m10 19.5h5v1.5h-5z"/></g><g><path d="m10 22.5h5v1.5h-5z"/></g><g><path d="m14.5 13c-1.103 0-2-.897-2-2s.897-2 2-2 2 .897 2 2-.897 2-2 2zm0-2.5c-.276 0-.5.224-.5.5s.224.5.5.5.5-.224.5-.5-.224-.5-.5-.5z"/></g><g><path d="m12 18h-1.5v-1.25c0-1.517 1.233-2.75 2.75-2.75h2.5c1.517 0 2.75 1.233 2.75 2.75v.75h-1.5v-.75c0-.689-.561-1.25-1.25-1.25h-2.5c-.689 0-1.25.561-1.25 1.25z"/></g><g><path d="m16 27h-7.25c-1.517 0-2.75-1.233-2.75-2.75v-15.5c0-1.517 1.233-2.75 2.75-2.75h11.5c1.517 0 2.75 1.233 2.75 2.75v7.25h-1.5v-7.25c0-.689-.561-1.25-1.25-1.25h-11.5c-.689 0-1.25.561-1.25 1.25v15.5c0 .689.561 1.25 1.25 1.25h7.25z"/></g></svg>