<svg enable-background="new 0 0 36 36" height="512" viewBox="0 0 36 36" width="512" xmlns="http://www.w3.org/2000/svg"><path d="m3.442 23.883c6.061 3.333 8.497 8.761 11.417 10.367 2.921 1.606 9.978 3.299 17.366-10.137s.221-19.945-2.992-21.712c-15.042-8.27-36.525 15.58-25.791 21.482z" fill="#efefef"/><path d="m27.25 10.75h-18.5c-1.105 0-2 .895-2 2v12.5c0 1.105.895 2 2 2h18.5c1.105 0 2-.895 2-2v-12.5c0-1.105-.895-2-2-2z" fill="#f3f3f1"/><path d="m9 25.25v-12.5c0-1.105.895-2 2-2h-2.25c-1.105 0-2 .895-2 2v12.5c0 1.105.895 2 2 2h2.25c-1.105 0-2-.895-2-2z" fill="#d5dbe1"/><path d="m20.25 12.75h-4.5c-.552 0-1-.448-1-1v-2c0-.552.448-1 1-1h4.5c.552 0 1 .448 1 1v2c0 .552-.448 1-1 1z" fill="#2fdf84"/><path d="m17 11.75v-2c0-.552.448-1 1-1h-2.25c-.552 0-1 .448-1 1v2c0 .552.448 1 1 1h2.25c-.552 0-1-.448-1-1z" fill="#00b871"/><circle cx="13.5" cy="17.5" fill="#2fdf84" r="1.75"/><path d="m15.25 21.75h-3.5c-1.105 0-2 .895-2 2v.5h7.5v-.5c0-1.105-.895-2-2-2z" fill="#2fdf84"/><path d="m14 21.75h-2.25c-1.105 0-2 .895-2 2v.5h2.25v-.5c0-1.105.895-2 2-2z" fill="#00b871"/><path d="m13.5 19.25c.431 0 .82-.162 1.125-.42-.379-.321-.625-.794-.625-1.33s.246-1.009.625-1.33c-.305-.258-.694-.42-1.125-.42-.966 0-1.75.784-1.75 1.75s.784 1.75 1.75 1.75z" fill="#00b871"/><path d="m20.75 15.5h5.5v1.5h-5.5z"/><path d="m20.75 19.5h5.5v1.5h-5.5z"/><path d="m20.75 23.5h5.5v1.5h-5.5z"/><g fill="#a4afc1"><path d="m4.644 4.217h1v2h-1z" transform="matrix(.707 -.707 .707 .707 -2.183 5.164)"/><path d="m3.967 8.783h2v1h-2z" transform="matrix(.707 -.707 .707 .707 -5.109 6.231)"/><path d="m8.033 4.717h2v1h-2z" transform="matrix(.707 -.707 .707 .707 -1.043 7.916)"/></g><path d="m27.25 28h-18.5c-1.517 0-2.75-1.233-2.75-2.75v-12.5c0-1.517 1.233-2.75 2.75-2.75h6v1.5h-6c-.689 0-1.25.561-1.25 1.25v12.5c0 .689.561 1.25 1.25 1.25h18.5c.689 0 1.25-.561 1.25-1.25v-12.5c0-.689-.561-1.25-1.25-1.25h-6v-1.5h6c1.517 0 2.75 1.233 2.75 2.75v12.5c0 1.517-1.233 2.75-2.75 2.75z"/><path d="m20.25 13.5h-4.5c-.965 0-1.75-.785-1.75-1.75v-2c0-.965.785-1.75 1.75-1.75h4.5c.965 0 1.75.785 1.75 1.75v2c0 .965-.785 1.75-1.75 1.75zm-4.5-4c-.138 0-.25.112-.25.25v2c0 .138.112.25.25.25h4.5c.138 0 .25-.112.25-.25v-2c0-.138-.112-.25-.25-.25z"/><path d="m13.5 20c-1.379 0-2.5-1.122-2.5-2.5s1.121-2.5 2.5-2.5 2.5 1.122 2.5 2.5-1.121 2.5-2.5 2.5zm0-3.5c-.552 0-1 .449-1 1s.448 1 1 1 1-.449 1-1-.448-1-1-1z"/><path d="m18 24.25h-1.5v-.5c0-.689-.561-1.25-1.25-1.25h-3.5c-.689 0-1.25.561-1.25 1.25v.5h-1.5v-.5c0-1.517 1.233-2.75 2.75-2.75h3.5c1.517 0 2.75 1.233 2.75 2.75z"/><path d="m20.75 15.5h5.5v1.5h-5.5z"/><path d="m20.75 19.5h5.5v1.5h-5.5z"/><path d="m20.75 23.5h5.5v1.5h-5.5z"/></svg>