<svg id="_x31__x2C_5" enable-background="new 0 0 36 36" height="512" viewBox="0 0 36 36" width="512" xmlns="http://www.w3.org/2000/svg"><g><path d="m8.377 31.833c6.917 0 11.667 3.583 15 3.583s10.333-1.916 10.333-17.249-9.417-17.584-13.083-17.584c-17.167 0-24.5 31.25-12.25 31.25z" fill="#efefef"/></g><g><path d="m3.5 6c-.827 0-1.5-.673-1.5-1.5s.673-1.5 1.5-1.5 1.5.673 1.5 1.5-.673 1.5-1.5 1.5zm0-2c-.275 0-.5.225-.5.5s.225.5.5.5.5-.225.5-.5-.225-.5-.5-.5z" fill="#a4afc1"/></g><g><path d="m28.25 10.75c.552 0 1 .448 1 1v11h-22.5v-11c0-.552.448-1 1-1z" fill="#f3f3f1"/></g><g><path d="m6.75 22.75h22.5v2.5c0 .552-.448 1-1 1h-20.5c-.552 0-1-.448-1-1z" fill="#2fdf84"/></g><g><path d="m19.75 26.25s.245 1.765 1.48 3h.02-6.5c1.25-1.25 1.48-3 1.48-3z" fill="#2fdf84"/></g><g><path d="m9 25.25v-2.5h-2.25v2.5c0 .552.448 1 1 1h2.25c-.552 0-1-.448-1-1z" fill="#00b871"/></g><g><path d="m16.23 26.25s-.23 1.75-1.48 3h2.25c1.25-1.25 1.48-3 1.48-3z" fill="#00b871"/></g><g><path d="m10 10.75h-2.25c-.552 0-1 .448-1 1v11h2.25v-11c0-.552.448-1 1-1z" fill="#d5dbe1"/></g><g><path d="m17.126 19.309-1.122-.995 1.246-1.405v-1.909h1.5v2.192c0 .184-.067.36-.188.497z"/></g><g><path d="m18.874 19.309-1.436-1.619c-.157-.177-.221-.419-.173-.65.049-.232.204-.428.42-.527l1.931-.892.629 1.361-1.015.468.766.863z"/></g><g><path d="m16.625 15.466h1.5v2.876h-1.5z" transform="matrix(.419 -.908 .908 .419 -5.256 25.59)"/></g><g><path d="m24.126 19.309-1.122-.995 1.246-1.405v-1.909h1.5v2.192c0 .184-.067.36-.188.497z"/></g><g><path d="m25.874 19.309-1.436-1.619c-.157-.177-.221-.419-.173-.65.049-.232.204-.428.42-.527l1.931-.892.629 1.361-1.015.468.766.863z"/></g><g><path d="m23.625 15.466h1.5v2.876h-1.5z" transform="matrix(.419 -.908 .908 .419 -1.191 31.945)"/></g><g><path d="m10.126 19.309-1.122-.995 1.246-1.405v-1.909h1.5v2.192c0 .184-.067.36-.188.497z"/></g><g><path d="m11.874 19.309-1.436-1.619c-.157-.177-.221-.419-.173-.65.049-.232.204-.428.42-.527l1.931-.892.629 1.361-1.015.468.766.863z"/></g><g><path d="m9.625 15.466h1.5v2.876h-1.5z" transform="matrix(.419 -.908 .908 .419 -9.321 19.235)"/></g><g><path d="m28.25 27h-20.5c-.965 0-1.75-.785-1.75-1.75v-13.5c0-.965.785-1.75 1.75-1.75h20.5c.965 0 1.75.785 1.75 1.75v13.5c0 .965-.785 1.75-1.75 1.75zm-20.5-15.5c-.138 0-.25.112-.25.25v13.5c0 .138.112.25.25.25h20.5c.138 0 .25-.112.25-.25v-13.5c0-.138-.112-.25-.25-.25z"/></g><g><path d="m6.75 22h22.5v1.5h-22.5z"/></g><g><path d="m21.25 30h-6.5c-.304 0-.577-.183-.693-.463-.115-.28-.052-.603.163-.817 1.046-1.046 1.266-2.555 1.268-2.57l1.486.198c-.007.059-.147 1.066-.743 2.152h3.522c-.591-1.08-.737-2.088-.746-2.146l1.485-.209c.003.015.223 1.459 1.186 2.489.195.136.322.361.322.616 0 .414-.336.75-.75.75z"/></g><g><path d="m2 28.5h32v1.5h-32z"/></g></svg>