<svg id="_x31__x2C_5" enable-background="new 0 0 36 36" height="512" viewBox="0 0 36 36" width="512" xmlns="http://www.w3.org/2000/svg"><path d="m8.377 4.167c6.917 0 11.667-3.583 15-3.583s10.333 1.916 10.333 17.249-9.417 17.583-13.083 17.583c-17.167.001-24.5-31.249-12.25-31.249z" fill="#efefef"/><g fill="#a4afc1"><path d="m26.175 8.332h1v2h-1z" transform="matrix(.707 -.707 .707 .707 1.214 21.596)"/><path d="m30.241 12.398h1v2h-1z" transform="matrix(.707 -.707 .707 .707 -.47 25.662)"/><path d="m29.565 8.832h2v1h-2z" transform="matrix(.707 -.707 .707 .707 2.353 24.346)"/></g><path d="m27.25 13-9.25 3.25-9.25-3.25 9.25-3.24z" fill="#2fdf84"/><path d="m27.25 13v12l-9.25 3.25v-12z" fill="#f3f3f1"/><path d="m18 16.25v12l-9.25-3.25v-12z" fill="#f3f3f1"/><path d="m11 13 8.125-2.846-1.125-.394-9.25 3.24 9.25 3.25 1.125-.395z" fill="#00b871"/><path d="m20.25 16.25 7-2.459v-.791l-9.25 3.25v12l2.25-.791z" fill="#d5dbe1"/><path d="m11 25v-11.209l-2.25-.791v12l9.25 3.25v-.791z" fill="#d5dbe1"/><path d="m17.25 7h1.5v3.25h-1.5z"/><path d="m18 17c-.084 0-.168-.014-.249-.042l-9.25-3.25c-.3-.106-.501-.39-.501-.708s.201-.602.501-.708l9.25-3.25c.161-.057.336-.057.497 0l9.25 3.25c.301.106.502.39.502.708s-.201.602-.501.708l-9.25 3.25c-.081.028-.165.042-.249.042zm-6.987-4 6.987 2.455 6.987-2.455-6.987-2.455z"/><path d="m27.5 23.541h1.5v3.619h-1.5z" transform="matrix(.33 -.944 .944 .33 -5.011 43.637)"/><path d="m18 29c-.084 0-.168-.014-.249-.042l-9.25-3.25c-.3-.106-.501-.39-.501-.708v-12h1.5v11.469l8.5 2.986 8.5-2.986v-11.469h1.5v12c0 .318-.201.602-.501.708l-9.25 3.25c-.081.028-.165.042-.249.042z"/><path d="m17.25 16.5h1.5v11h-1.5z"/><path d="m5.941 24.6h3.619v1.5h-3.619z" transform="matrix(.944 -.331 .331 .944 -7.942 3.985)"/></svg>