<svg id="_x31__x2C_5" enable-background="new 0 0 36 36" height="512" viewBox="0 0 36 36" width="512" xmlns="http://www.w3.org/2000/svg"><path d="m8.377 4.167c6.917 0 11.667-3.583 15-3.583s10.333 1.916 10.333 17.249-9.417 17.583-13.083 17.583c-17.167.001-24.5-31.249-12.25-31.249z" fill="#efefef"/><path d="m28.25 11.25c-.827 0-1.5-.673-1.5-1.5s.673-1.5 1.5-1.5 1.5.673 1.5 1.5-.673 1.5-1.5 1.5zm0-2c-.275 0-.5.224-.5.5s.225.5.5.5.5-.224.5-.5-.225-.5-.5-.5z" fill="#a4afc1"/><ellipse cx="18" cy="11" fill="#2fdf84" rx="5.25" ry="1.25"/><path d="m23.25 11v12c0 .69-2.35 1.25-5.25 1.25s-5.25-.56-5.25-1.25v-12c0 .69 2.35 1.25 5.25 1.25s5.25-.56 5.25-1.25z" fill="#f3f3f1"/><path d="m15 11c0-.598 1.767-1.097 4.125-1.22-.363-.019-.738-.03-1.125-.03-2.9 0-5.25.56-5.25 1.25s2.35 1.25 5.25 1.25c.387 0 .762-.011 1.125-.03-2.358-.123-4.125-.622-4.125-1.22z" fill="#00b871"/><path d="m20.25 12.25c1.118 0 2.149-.085 3-.226v-1.024c0 .598-1.767 1.097-4.125 1.22.363.019.738.03 1.125.03z" fill="#d5dbe1"/><path d="m15 23v-10.976c-1.358-.226-2.25-.6-2.25-1.024v12c0 .69 2.35 1.25 5.25 1.25.387 0 .762-.011 1.125-.03-2.358-.123-4.125-.622-4.125-1.22z" fill="#d5dbe1"/><path d="m17.25 25h1.5v4h-1.5z"/><path d="m19.25 9.061-1.25-1.25-1.25 1.25-1.061-1.061 1.78-1.78c.293-.293.768-.293 1.061 0l1.781 1.78z"/><path d="m18 30c-.192 0-.384-.073-.53-.22l-1.781-1.78 1.061-1.061 1.25 1.25 1.25-1.25 1.061 1.061-1.78 1.78c-.147.147-.339.22-.531.22z"/><path d="m28 19.311-1.061-1.061 1.25-1.25-1.25-1.25 1.061-1.061 1.78 1.78c.293.293.293.768 0 1.061z"/><path d="m8 19.311-1.78-1.78c-.293-.293-.293-.768 0-1.061l1.78-1.781 1.061 1.061-1.25 1.25 1.25 1.25z"/><path d="m17.25 7.25h1.5v4.75h-1.5z"/><path d="m7 16.25h5v1.5h-5z"/><path d="m24 16.25h5v1.5h-5z"/><path d="m18 13c-1.407 0-6-.144-6-2 0-1.098 1.49-1.506 2.611-1.717l.277 1.474c-.439.083-.753.169-.975.246.704.239 2.096.497 4.087.497s3.383-.258 4.086-.497c-.222-.077-.535-.163-.975-.246l.277-1.474c1.122.211 2.612.619 2.612 1.717 0 1.856-4.593 2-6 2z"/><path d="m18 25c-1.407 0-6-.144-6-2v-12h1.5v11.82c.416.266 1.978.68 4.5.68s4.084-.414 4.5-.68v-11.82h1.5v12c0 1.856-4.593 2-6 2z"/><path d="m13.423 23.24c.02-.021.077-.108.077-.24h-1.5c0-.336.155-.816.896-1.194l.682 1.336c-.116.059-.154.097-.155.098z"/><path d="m15.418 22.669-.213-1.485c.521-.074 1.085-.126 1.677-.156l.074 1.498c-.546.027-1.063.075-1.538.143zm5.157-.002c-.475-.068-.992-.116-1.54-.143l.074-1.498c.593.029 1.157.082 1.677.155z"/><path d="m22.577 23.24c-.001-.001-.039-.039-.154-.098l.682-1.336c.74.378.895.858.895 1.194h-1.5c0 .131.058.219.077.24z"/></svg>