<svg id="_x31__x2C_5" enable-background="new 0 0 36 36" height="512" viewBox="0 0 36 36" width="512" xmlns="http://www.w3.org/2000/svg"><path d="m8.377 4.167c6.917 0 11.667-3.583 15-3.583s10.333 1.916 10.333 17.249-9.417 17.583-13.083 17.583c-17.167.001-24.5-31.249-12.25-31.249z" fill="#efefef"/><path d="m4.875 8.5c-.827 0-1.5-.673-1.5-1.5s.673-1.5 1.5-1.5 1.5.673 1.5 1.5-.673 1.5-1.5 1.5zm0-2c-.275 0-.5.224-.5.5s.225.5.5.5.5-.224.5-.5-.225-.5-.5-.5z" fill="#a4afc1"/><path d="m23.25 14.03v-.03l-5.25-2.25-5.25 2.25v.03l-6-2.53 11.25-4.75 11.25 4.75z" fill="#f3f3f1"/><path d="m29.25 11.5v13l-11.25 4.75v-7l5.25-2.25v-5.97z" fill="#f3f3f1"/><path d="m18 22.25v7l-11.25-4.75v-13l6 2.53v5.97z" fill="#f3f3f1"/><path d="m23.25 20-5.25 2.25-5.25-2.25 5.25-2.25z" fill="#2fdf84"/><path d="m18 11.75v6l-5.25 2.25v-6z" fill="#2fdf84"/><path d="m23.25 14v6l-5.25-2.25v-6z" fill="#2fdf84"/><g fill="#d5dbe1"><path d="m24.419 13.537-4.169-1.787-1.125.482 4.125 1.768v.03z"/><path d="m9 11.5 10.125-4.275-1.125-.475-11.25 4.75 6 2.53v-.03l1.081-.463z"/><path d="m20.25 22.25 5.25-2.25v-5.97l3.75-1.581v-.949l-6 2.53v5.97l-5.25 2.25v7l2.25-.95z"/><path d="m9 24.5v-12.051l-2.25-.949v13l11.25 4.75v-.95z"/></g><path d="m15 14 3-1.286v-.964l-5.25 2.25v6l2.25-.964z" fill="#00b871"/><path d="m20.25 17.75v-5.036l-2.25-.964v6l5.25 2.25v-.964z" fill="#00b871"/><path d="m23.541 14.721-.582-1.382 4.361-1.839-9.32-3.936-9.32 3.936 4.361 1.839-.582 1.382-6-2.53c-.278-.117-.459-.389-.459-.691 0-.301.181-.574.458-.691l11.25-4.75c.188-.079.396-.079.584 0l11.25 4.75c.277.117.458.39.458.691 0 .302-.181.574-.459.691z"/><path d="m18 30c-.1 0-.198-.02-.292-.059l-11.25-4.75c-.277-.117-.458-.39-.458-.691v-13h1.5v12.502l10.5 4.434 10.5-4.434v-12.502h1.5v13c0 .301-.181.574-.458.691l-11.25 4.75c-.094.039-.192.059-.292.059z"/><path d="m24 20h-1.5v-5.505l-4.5-1.929-4.5 1.929v5.505h-1.5v-6c0-.3.179-.571.454-.689l5.25-2.25c.189-.081.402-.081.592 0l5.25 2.25c.275.118.454.389.454.689z"/><path d="m18 23c-.101 0-.201-.02-.296-.061l-5.25-2.25c-.275-.118-.454-.389-.454-.689s.179-.571.454-.689l5.25-2.25c.189-.081.402-.081.592 0l5.25 2.25c.275.118.454.389.454.689s-.179.571-.454.689l-5.25 2.25c-.095.041-.195.061-.296.061zm-3.346-3 3.346 1.434 3.346-1.434-3.346-1.434z"/><path d="m17.25 11.75h1.5v6h-1.5z"/><path d="m17.25 22.25h1.5v7h-1.5z"/></svg>