<svg id="_x31__x2C_5" enable-background="new 0 0 36 36" height="512" viewBox="0 0 36 36" width="512" xmlns="http://www.w3.org/2000/svg"><path d="m31.833 27.623c0-6.917 3.583-11.667 3.583-15s-1.916-10.333-17.249-10.333-17.584 9.417-17.584 13.083c0 17.167 31.25 24.5 31.25 12.25z" fill="#efefef"/><path d="m27.75 8.25c-.827 0-1.5-.673-1.5-1.5s.673-1.5 1.5-1.5 1.5.673 1.5 1.5-.673 1.5-1.5 1.5zm0-2c-.276 0-.5.225-.5.5s.224.5.5.5.5-.225.5-.5-.224-.5-.5-.5z" fill="#a4afc1"/><path d="m27.25 11.5-5.75 1.75-5.75-1.75 5.75-1.75z" fill="#2fdf84"/><path d="m27.25 11.5v8l-5.75 1.75v-8z" fill="#2fdf84"/><path d="m21.5 13.25v8l-5.75-1.75v-8z" fill="#2fdf84"/><g fill="#f3f3f1"><path d="m7.75 14v3l2.5-1v-1z"/><path d="m7.75 20v3l2.5-1v-1z"/><path d="m7.75 8v3l2.5-1v-1z"/><path d="m28.25 29.25h-12.5c0-1.381 1.119-2.5 2.5-2.5h7.5c1.381 0 2.5 1.119 2.5 2.5z"/></g><path d="m23.75 13.25 3.5-1.065v-.685l-5.75 1.75v8l2.25-.685z" fill="#00b871"/><path d="m18 19.5v-7.315l-2.25-.685v8l5.75 1.75v-.685z" fill="#00b871"/><path d="m20.5 26.75h-2.25c-1.381 0-2.5 1.119-2.5 2.5h2.25c0-1.381 1.119-2.5 2.5-2.5z" fill="#d5dbe1"/><path d="m21.5 14c-.074 0-.147-.011-.218-.032l-5.75-1.75c-.316-.097-.532-.388-.532-.718s.216-.621.532-.718l5.75-1.75c.143-.043.294-.043.437 0l5.75 1.75c.315.097.531.388.531.718s-.216.621-.532.718l-5.75 1.75c-.071.021-.144.032-.218.032zm-3.174-2.5 3.174.966 3.174-.966-3.174-.966z"/><path d="m21.5 22c-.074 0-.147-.011-.218-.032l-5.75-1.75c-.316-.097-.532-.388-.532-.718v-8h1.5v7.444l5 1.521 5-1.521v-7.444h1.5v8c0 .33-.216.621-.532.718l-5.75 1.75c-.071.021-.144.032-.218.032z"/><path d="m20.75 13.25h1.5v8h-1.5z"/><path d="m7 6h1.5v19h-1.5z"/><path d="m28.25 30h-12.5c-.414 0-.75-.336-.75-.75 0-1.792 1.458-3.25 3.25-3.25h7.5c1.792 0 3.25 1.458 3.25 3.25 0 .414-.336.75-.75.75zm-11.581-1.5h10.662c-.281-.591-.884-1-1.581-1h-7.5c-.697 0-1.3.409-1.581 1z"/><path d="m18 25h1.5v2.5h-1.5z"/><path d="m24.5 25h1.5v2.5h-1.5z"/><path d="m8.028 17.696-.557-1.393 2.009-.803-2.009-.804.557-1.393 2.5 1c.285.115.472.39.472.697v1c0 .307-.187.582-.472.696z"/><path d="m8.028 23.696-.557-1.393 2.009-.803-2.009-.804.557-1.393 2.5 1c.285.115.472.39.472.697v1c0 .307-.187.582-.472.696z"/><path d="m8.028 11.696-.557-1.393 2.009-.803-2.008-.804.557-1.393 2.5 1c.284.115.471.39.471.697v1c0 .307-.187.582-.472.696z"/><path d="m10.25 8.75h2v1.5h-2z"/><path d="m10.25 14.75h2v1.5h-2z"/><path d="m10.25 20.75h2v1.5h-2z"/><path d="m14 8.75h2v1.5h-2z"/><path d="m14 20.75h2v1.5h-2z"/></svg>