<svg id="_x31__x2C_5" enable-background="new 0 0 36 36" height="512" viewBox="0 0 36 36" width="512" xmlns="http://www.w3.org/2000/svg"><path d="m31.833 8.377c0 6.917 3.583 11.667 3.583 15s-1.916 10.333-17.249 10.333-17.584-9.417-17.584-13.083c0-17.167 31.25-24.5 31.25-12.25z" fill="#efefef"/><path d="m5.913 12.25c-.827 0-1.5-.673-1.5-1.5s.673-1.5 1.5-1.5 1.5.673 1.5 1.5-.673 1.5-1.5 1.5zm0-2c-.276 0-.5.224-.5.5s.224.5.5.5.5-.224.5-.5-.224-.5-.5-.5z" fill="#a4afc1"/><ellipse cx="18" cy="16" fill="#f3f3f1" rx="5.25" ry="1.25"/><path d="m23.25 16v12c0 .69-2.35 1.25-5.25 1.25s-5.25-.56-5.25-1.25v-12c0 .69 2.35 1.25 5.25 1.25s5.25-.56 5.25-1.25z" fill="#f3f3f1"/><path d="m23.75 6.75-.5 1.24c-.3.76-1.04 1.26-1.85 1.26h-6.8c-.81 0-1.55-.5-1.85-1.26l-.5-1.24z" fill="#2fdf84"/><path d="m19.59 9.25-1.09 3h-1l-1.09-3z" fill="#2fdf84"/><g fill="#d5dbe1"><path d="m15 16c0-.598 1.767-1.097 4.125-1.22-.363-.019-.738-.03-1.125-.03-2.9 0-5.25.56-5.25 1.25s2.35 1.25 5.25 1.25c.387 0 .762-.011 1.125-.03-2.358-.123-4.125-.622-4.125-1.22z"/><path d="m15 28v-10.976c-1.358-.226-2.25-.6-2.25-1.024v12c0 .69 2.35 1.25 5.25 1.25.387 0 .762-.011 1.125-.03-2.358-.123-4.125-.622-4.125-1.22z"/><path d="m20.25 17.25c1.118 0 2.149-.085 3-.226v-1.024c0 .598-1.767 1.097-4.125 1.22.363.019.738.03 1.125.03z"/></g><path d="m15 7.99-.5-1.24h-2.25l.5 1.24c.3.76 1.04 1.26 1.85 1.26h2.25c-.81 0-1.55-.5-1.85-1.26z" fill="#00b871"/><path d="m6 6h24v1.5h-24z"/><path d="m21.396 10h-6.792c-1.131 0-2.133-.679-2.553-1.729l-.497-1.243 1.393-.557.497 1.243c.19.477.646.786 1.16.786h6.792c.514 0 .97-.309 1.161-.786l.497-1.243 1.393.557-.497 1.243c-.421 1.05-1.423 1.729-2.554 1.729z"/><path d="m18.5 13h-1c-.315 0-.597-.197-.705-.494l-1-2.75 1.41-.513.795 2.187.795-2.187 1.41.513-1 2.75c-.108.297-.39.494-.705.494z"/><path d="m18 18c-1.408 0-6-.144-6-2s4.592-2 6-2 6 .144 6 2-4.592 2-6 2zm-4.094-2c.701.24 2.096.5 4.094.5s3.394-.26 4.094-.5c-.701-.24-2.096-.5-4.094-.5s-3.394.26-4.094.5z"/><path d="m13.423 28.24c.02-.021.077-.108.077-.24h-1.5c0-.336.155-.815.894-1.193l.684 1.335c-.116.059-.154.097-.155.098z"/><path d="m15.417 27.669-.212-1.485c.521-.074 1.085-.127 1.676-.156l.075 1.498c-.545.027-1.063.075-1.539.143zm5.157-.002c-.474-.068-.992-.116-1.539-.143l.073-1.498c.593.029 1.157.082 1.677.155z"/><path d="m22.577 28.24c-.001-.001-.039-.039-.155-.098l.684-1.335c.739.378.894.857.894 1.193h-1.5c0 .131.057.219.077.24z"/><path d="m18 30c-1.408 0-6-.144-6-2v-12h1.5v11.82c.417.266 1.977.68 4.5.68s4.083-.414 4.5-.68v-11.82h1.5v12c0 1.856-4.592 2-6 2z"/></svg>