<svg id="_x31__x2C_5" enable-background="new 0 0 36 36" height="512" viewBox="0 0 36 36" width="512" xmlns="http://www.w3.org/2000/svg"><path d="m31.833 27.623c0-6.917 3.583-11.667 3.583-15s-1.916-10.333-17.249-10.333-17.584 9.417-17.584 13.083c0 17.167 31.25 24.5 31.25 12.25z" fill="#efefef"/><g fill="#a4afc1"><path d="m26.467 1.467h1v2h-1z" transform="matrix(.707 -.707 .707 .707 6.154 19.791)"/><path d="m30.533 5.533h1v2h-1z" transform="matrix(.707 -.707 .707 .707 4.47 23.857)"/><path d="m29.856 1.967h2v1h-2z" transform="matrix(.707 -.707 .707 .707 7.293 22.541)"/></g><path d="m27.25 8.75v1.5h-18.5v-1.5c0-1.1.9-2 2-2h14.5c1.1 0 2 .9 2 2z" fill="#2fdf84"/><path d="m27.25 10.25v17c0 1.1-.9 2-2 2h-14.5c-1.1 0-2-.9-2-2v-17z" fill="#f3f3f1"/><ellipse cx="18" cy="15" fill="#2fdf84" rx="4.25" ry="1.25"/><path d="m22.25 15v10c0 .69-1.9 1.25-4.25 1.25s-4.25-.56-4.25-1.25v-10c0 .69 1.9 1.25 4.25 1.25s4.25-.56 4.25-1.25z" fill="#2fdf84"/><path d="m13 6.75h-2.25c-1.1 0-2 .9-2 2v1.5h2.25v-1.5c0-1.1.9-2 2-2z" fill="#00b871"/><path d="m11 27.25v-17h-2.25v17c0 1.1.9 2 2 2h2.25c-1.1 0-2-.9-2-2z" fill="#d5dbe1"/><path d="m16 15c0-.575 1.326-1.054 3.125-1.2-.36-.029-.733-.05-1.125-.05-2.35 0-4.25.56-4.25 1.25s1.9 1.25 4.25 1.25c.392 0 .765-.021 1.125-.05-1.799-.146-3.125-.625-3.125-1.2z" fill="#00b871"/><path d="m20.25 16.25c.728 0 1.402-.059 2-.153v-1.097c0 .575-1.326 1.054-3.125 1.2.36.029.733.05 1.125.05z" fill="#00b871"/><path d="m16 25v-8.903c-1.334-.211-2.25-.62-2.25-1.097v10c0 .69 1.9 1.25 4.25 1.25.392 0 .765-.021 1.125-.05-1.799-.146-3.125-.625-3.125-1.2z" fill="#00b871"/><path d="m25.25 30h-14.5c-1.517 0-2.75-1.233-2.75-2.75v-18.5c0-1.517 1.233-2.75 2.75-2.75h14.5c1.517 0 2.75 1.233 2.75 2.75v18.5c0 1.517-1.233 2.75-2.75 2.75zm-14.5-22.5c-.689 0-1.25.561-1.25 1.25v18.5c0 .689.561 1.25 1.25 1.25h14.5c.689 0 1.25-.561 1.25-1.25v-18.5c0-.689-.561-1.25-1.25-1.25z"/><path d="m26.915 25.671-.895-.447c-.938-.469-1.52-1.412-1.52-2.459v-5.528c0-1.048.583-1.99 1.52-2.459l.895-.447.671 1.342-.895.447c-.426.211-.691.64-.691 1.116v5.528c0 .476.265.905.691 1.118l.895.447z"/><path d="m9.085 25.671-.671-1.342.895-.447c.426-.213.691-.642.691-1.118v-5.528c0-.476-.265-.905-.691-1.118l-.895-.447.671-1.342.895.447c.938.469 1.52 1.412 1.52 2.459v5.528c0 1.048-.583 1.99-1.52 2.459z"/><path d="m18 17c-2.307 0-5-.524-5-2s2.693-2 5-2 5 .524 5 2-2.693 2-5 2zm-3.258-2c.519.229 1.649.5 3.258.5s2.74-.271 3.258-.5c-.519-.229-1.649-.5-3.258-.5s-2.74.271-3.258.5z"/><path d="m14.47 25.161s-.001-.001 0-.002zm-.132-.161h-1.338c0-.26.089-.644.515-.996z"/><path d="m16.055 24.647-.244-1.479c.34-.057.708-.1 1.095-.128l.11 1.496c-.34.025-.662.063-.961.111zm3.882 0c-.299-.049-.622-.087-.962-.112l.11-1.496c.387.029.754.072 1.094.127z"/><path d="m23 25h-1.304l.789-.996c.426.352.515.736.515.996z"/><path d="m9 9.5h18v1.5h-18z"/><path d="m18 27c-2.307 0-5-.524-5-2v-10h1.5v9.866c.313.239 1.559.634 3.5.634s3.187-.395 3.5-.634v-9.866h1.5v10c0 1.476-2.693 2-5 2z"/></svg>