<svg id="_x31__x2C_5" enable-background="new 0 0 36 36" height="512" viewBox="0 0 36 36" width="512" xmlns="http://www.w3.org/2000/svg"><path d="m27.623 31.833c-6.917 0-11.667 3.583-15 3.583s-10.333-1.916-10.333-17.249 9.417-17.584 13.083-17.584c17.167 0 24.5 31.25 12.25 31.25z" fill="#efefef"/><path d="m17.125 4.875h2v1h-2z" fill="#a4afc1"/><path d="m22.875 4.875h2v1h-2z" fill="#a4afc1"/><path d="m20.375 1.625h1v2h-1z" fill="#a4afc1"/><path d="m24.25 22.25h-6.5c-1.105 0-2-.895-2-2v-4.5c0-1.105.895-2 2-2h6.5c1.105 0 2 .895 2 2v4.5c0 1.105-.895 2-2 2z" fill="#2fdf84"/><g fill="#f3f3f1"><path d="m7.75 14v3l2.5-1v-1z"/><path d="m7.75 20v3l2.5-1v-1z"/><path d="m7.75 8v3l2.5-1v-1z"/><path d="m28.25 29.25h-12.5c0-1.381 1.119-2.5 2.5-2.5h7.5c1.381 0 2.5 1.119 2.5 2.5z"/></g><path d="m18 20.25v-4.5c0-1.105.895-2 2-2h-2.25c-1.105 0-2 .895-2 2v4.5c0 1.105.895 2 2 2h2.25c-1.105 0-2-.895-2-2z" fill="#00b871"/><path d="m20.5 26.75h-2.25c-1.381 0-2.5 1.119-2.5 2.5h2.25c0-1.381 1.119-2.5 2.5-2.5z" fill="#d5dbe1"/><circle cx="23.25" cy="16.75" r="1.25"/><circle cx="18.75" cy="16.75" r="1.25"/><path d="m24.25 23h-6.5c-1.517 0-2.75-1.233-2.75-2.75v-4.5c0-1.517 1.233-2.75 2.75-2.75h6.5c1.517 0 2.75 1.233 2.75 2.75v4.5c0 1.517-1.233 2.75-2.75 2.75zm-6.5-8.5c-.689 0-1.25.561-1.25 1.25v4.5c0 .689.561 1.25 1.25 1.25h6.5c.689 0 1.25-.561 1.25-1.25v-4.5c0-.689-.561-1.25-1.25-1.25z"/><path d="m20.25 12h1.5v1.5h-1.5z"/><path d="m19.5 19h3v1.5h-3z"/><circle cx="21" cy="10.5" r="1.5"/><path d="m26.5 16.5h1.75v1.5h-1.75z"/><path d="m14 16.5h1.75v1.5h-1.75z"/><path d="m13 15.75h1.5v2.5h-1.5z"/><path d="m27.5 15.75h1.5v2.5h-1.5z"/><path d="m7 6h1.5v19h-1.5z"/><path d="m28.25 30h-12.5c-.414 0-.75-.336-.75-.75 0-1.792 1.458-3.25 3.25-3.25h7.5c1.792 0 3.25 1.458 3.25 3.25 0 .414-.336.75-.75.75zm-11.581-1.5h10.662c-.281-.591-.885-1-1.581-1h-7.5c-.696 0-1.3.409-1.581 1z"/><path d="m18 25h1.5v2.5h-1.5z"/><path d="m24.5 25h1.5v2.5h-1.5z"/><path d="m8.028 17.696-.557-1.393 2.009-.803-2.009-.804.557-1.393 2.5 1c.285.115.472.39.472.697v1c0 .307-.187.582-.472.696z"/><path d="m8.028 23.696-.557-1.393 2.009-.803-2.009-.804.557-1.393 2.5 1c.285.115.472.39.472.697v1c0 .307-.187.582-.472.696z"/><path d="m8.028 11.696-.557-1.393 2.009-.803-2.008-.804.557-1.393 2.5 1c.284.115.471.39.471.697v1c0 .307-.187.582-.472.696z"/><path d="m10.25 8.75h2v1.5h-2z"/><path d="m10.25 14.75h2v1.5h-2z"/><path d="m10.25 20.75h2v1.5h-2z"/><path d="m14 8.75h2v1.5h-2z"/></svg>