<svg id="_x31__x2C_5" enable-background="new 0 0 36 36" height="512" viewBox="0 0 36 36" width="512" xmlns="http://www.w3.org/2000/svg"><path d="m27.623 4.167c-6.917 0-11.667-3.583-15-3.583s-10.333 1.916-10.333 17.249 9.417 17.583 13.083 17.583c17.167.001 24.5-31.249 12.25-31.249z" fill="#efefef"/><path d="m29.625 2.25h1v2h-1z" fill="#a4afc1"/><path d="m31.875 5.25h2v1h-2z" fill="#a4afc1"/><path d="m23.75 6.75-.5 1.24c-.3.76-1.04 1.26-1.85 1.26h-6.8c-.81 0-1.55-.5-1.85-1.26l-.5-1.24z" fill="#2fdf84"/><path d="m19.59 9.25-1.09 3h-1l-1.09-3z" fill="#2fdf84"/><path d="m29.25 26.5c0 .76-.31 1.45-.81 1.94-.49.5-1.18.81-1.94.81h-18.5c-.69 0-1.25-.56-1.25-1.25s.56-1.25 1.25-1.25h1.75c-1.66 0-3-1.34-3-3 0-.83.33-1.58.88-2.12.54-.55 1.29-.88 2.12-.88-1.66 0-3-1.34-3-3 0-.83.33-1.58.88-2.12.54-.55 1.29-.88 2.12-.88h4c.83 0 1.5.67 1.5 1.5s-.67 1.5-1.5 1.5h12.5c1.66 0 3 1.34 3 3 0 .83-.33 1.58-.88 2.12-.54.55-1.29.88-2.12.88h.25c1.52 0 2.75 1.23 2.75 2.75z" fill="#f3f3f1"/><path d="m15 7.99-.5-1.24h-2.25l.5 1.24c.3.76 1.04 1.26 1.85 1.26h2.25c-.81 0-1.55-.5-1.85-1.26z" fill="#00b871"/><path d="m9 28c0-.69.56-1.25 1.25-1.25h1.75c-1.66 0-3-1.34-3-3 0-.83.33-1.58.88-2.12.54-.55 1.29-.88 2.12-.88-1.66 0-3-1.34-3-3 0-.83.33-1.58.88-2.12.54-.55 1.29-.88 2.12-.88h-2.25c-.83 0-1.58.33-2.12.88-.55.54-.88 1.29-.88 2.12 0 1.66 1.34 3 3 3-.83 0-1.58.33-2.12.88-.55.54-.88 1.29-.88 2.12 0 1.66 1.34 3 3 3h-1.75c-.69 0-1.25.56-1.25 1.25s.56 1.25 1.25 1.25h2.25c-.69 0-1.25-.56-1.25-1.25z" fill="#d5dbe1"/><path d="m6 6h24v1.5h-24z"/><path d="m21.396 10h-6.792c-1.131 0-2.133-.679-2.553-1.729l-.497-1.243 1.393-.557.497 1.243c.19.477.646.786 1.16.786h6.792c.514 0 .97-.309 1.161-.786l.497-1.243 1.393.557-.497 1.243c-.421 1.05-1.423 1.729-2.554 1.729z"/><path d="m18.5 13h-1c-.315 0-.597-.197-.705-.494l-1-2.75 1.41-.513.795 2.187.795-2.187 1.41.513-1 2.75c-.108.297-.39.494-.705.494z"/><path d="m26.5 30h-18.5c-1.103 0-2-.897-2-2s.897-2 2-2h18.25v1.5h-18.25c-.276 0-.5.224-.5.5s.224.5.5.5h18.5c1.103 0 2-.897 2-2s-.897-2-2-2h-17v-1.5h17c1.93 0 3.5 1.57 3.5 3.5s-1.57 3.5-3.5 3.5z"/><path d="m21.261 27.5h-11.511c-2.068 0-3.75-1.682-3.75-3.75s1.682-3.75 3.75-3.75h16.5v1.5h-16.5c-1.241 0-2.25 1.009-2.25 2.25s1.009 2.25 2.25 2.25h11.511z"/><path d="m26.25 24.5h-1.5v-1.5h1.5c1.241 0 2.25-1.009 2.25-2.25s-1.009-2.25-2.25-2.25h-16.5v-1.5h16.5c2.068 0 3.75 1.682 3.75 3.75s-1.682 3.75-3.75 3.75z"/><path d="m11.25 21.5h-1.5c-2.068 0-3.75-1.682-3.75-3.75s1.682-3.75 3.75-3.75h4c1.241 0 2.25 1.009 2.25 2.25s-1.009 2.25-2.25 2.25h-1v-1.5h1c.414 0 .75-.336.75-.75s-.336-.75-.75-.75h-4c-1.241 0-2.25 1.009-2.25 2.25s1.009 2.25 2.25 2.25h1.5z"/></svg>