<svg id="_x31__x2C_5" enable-background="new 0 0 36 36" height="512" viewBox="0 0 36 36" width="512" xmlns="http://www.w3.org/2000/svg"><path d="m8.377 31.833c6.917 0 11.667 3.583 15 3.583s10.333-1.916 10.333-17.249-9.417-17.584-13.083-17.584c-17.167 0-24.5 31.25-12.25 31.25z" fill="#efefef"/><g fill="#a4afc1"><path d="m6.063 5.5h2v1h-2z" transform="matrix(.707 -.707 .707 .707 -2.174 6.751)"/><path d="m1.997 9.566h2v1h-2z" transform="matrix(.707 -.707 .707 .707 -6.24 5.068)"/><path d="m2.674 5h1v2h-1z" transform="matrix(.707 -.707 .707 .707 -3.313 4.002)"/></g><path d="m25.25 10-9.25 3.25-9.25-3.25 9.25-3.24z" fill="#f3f3f1"/><path d="m25.25 10v12l-9.25 3.25v-12z" fill="#f3f3f1"/><path d="m16 13.25v12l-9.25-3.25v-12z" fill="#f3f3f1"/><path d="m20.25 29.25h-.5c-.552 0-1-.448-1-1v-4.5c0-.552.448-1 1-1h.5c.552 0 1 .448 1 1v4.5c0 .55-.45 1-1 1z" fill="#2fdf84"/><path d="m27.34 22.75h-2.5s.47-.7.47-1.87c0-1.4-.7-2.11-1.17-2.11-.46 0-.95.48-.95 1.65 0 1.31-1.41 2.32-1.97 2.67l.03 5.16c.56.32 2.31 1 4.99 1h.51c.94 0 1.79-.68 1.94-1.6.01 0 .56-2.72.56-2.99 0-1.03-.84-1.91-1.91-1.91z" fill="#2fdf84"/><path d="m18.25 13.25 7-2.459v-.791l-9.25 3.25v12l2.25-.791z" fill="#d5dbe1"/><path d="m9 22v-11.209l-2.25-.791v12l9.25 3.25v-.791z" fill="#d5dbe1"/><path d="m23.5 28.25-.03-5.16c.457-.286 1.468-1.014 1.829-1.983.004-.075.011-.147.011-.227 0-1.4-.7-2.11-1.17-2.11-.46 0-.95.48-.95 1.65 0 1.31-1.41 2.32-1.97 2.67l.03 5.16c.56.32 2.31 1 4.99 1h.51c.156 0 .307-.025.455-.06-1.95-.168-3.241-.675-3.705-.94z" fill="#00b871"/><path d="m16 14c-.084 0-.168-.014-.249-.042l-9.25-3.25c-.3-.105-.501-.39-.501-.708s.201-.603.501-.708l9.25-3.25c.162-.057.336-.057.498 0l9.25 3.25c.3.105.501.39.501.708s-.201.603-.501.708l-9.25 3.25c-.081.028-.165.042-.249.042zm-6.987-4 6.987 2.455 6.987-2.455-6.987-2.455z"/><path d="m24.5 10h1.5v5.25h-1.5z"/><path d="m15.252 25.778-8.75-3.07c-.301-.105-.502-.39-.502-.708v-12h1.5v11.469l8.248 2.894z"/><path d="m15.25 13.25h1.5v7h-1.5z"/><path d="m20.25 30h-.5c-.965 0-1.75-.785-1.75-1.75v-4.5c0-.965.785-1.75 1.75-1.75h.5c.965 0 1.75.785 1.75 1.75v4.5c0 .965-.785 1.75-1.75 1.75zm-.5-6.5c-.138 0-.25.112-.25.25v4.5c0 .138.112.25.25.25h.5c.136 0 .25-.114.25-.25v-4.5c0-.138-.112-.25-.25-.25z"/><path d="m26.75 30h-.51c-2.758 0-4.387-.694-5.112-1.108l.744-1.303c.479.274 1.866.911 4.368.911h.51c.584 0 1.111-.427 1.2-.971.005-.028.011-.057.019-.083.072-.311.509-2.518.532-2.813-.001-.612-.522-1.133-1.161-1.133h-2.5c-.277 0-.531-.152-.662-.397-.13-.244-.115-.54.039-.771s.343-.551.343-1.452c0-.897-.353-1.317-.48-1.368.043.028-.139.259-.139.908 0 1.676-1.625 2.87-2.324 3.307l-.793-1.273c.781-.487 1.617-1.277 1.617-2.033 0-1.658.854-2.4 1.699-2.4.943 0 1.92 1.07 1.92 2.86 0 .427-.053.803-.128 1.12h1.408c1.467 0 2.66 1.193 2.66 2.66 0 .093 0 .247-.29 1.739-.124.637-.208 1.072-.292 1.37l.013.002c-.208 1.27-1.361 2.228-2.681 2.228z"/></svg>