<svg id="_x31__x2C_5" enable-background="new 0 0 36 36" height="512" viewBox="0 0 36 36" width="512" xmlns="http://www.w3.org/2000/svg"><path d="m8.377 31.833c6.917 0 11.667 3.583 15 3.583s10.333-1.916 10.333-17.249-9.417-17.584-13.083-17.584c-17.167 0-24.5 31.25-12.25 31.25z" fill="#efefef"/><g fill="#a4afc1"><path d="m10.741 3.369h2v1h-2z" transform="matrix(.707 -.707 .707 .707 .703 9.436)"/><path d="m6.675 7.436h2v1h-2z" transform="matrix(.707 -.707 .707 .707 -3.363 7.752)"/><path d="m7.352 2.869h1v2h-1z" transform="matrix(.707 -.707 .707 .707 -.436 6.686)"/></g><path d="m17.962 6.75c4.573 0 8.288 3.727 8.288 8.315 0 1.774-.559 3.423-1.507 4.776-.921 1.315-1.418 2.885-1.418 4.492v4.916h-8.775v-3.913l-2.983.91c-.137.049-.283.068-.429.068-.809 0-1.462-.655-1.462-1.467v-3.424h-2.438c-.273 0-.488-.215-.488-.489 0-.098.029-.186.078-.264l2.277-3.627c.371-.591.57-1.277.57-1.976 0-.001 0-.002 0-.003 0-4.587 3.715-8.314 8.287-8.314z" fill="#f3f3f1"/><path d="m29.25 8.5-5.25 1.75-5.25-1.75 5.25-1.75z" fill="#2fdf84"/><path d="m29.25 8.5v7l-5.25 1.75v-7z" fill="#2fdf84"/><path d="m24 10.25v7l-5.25-1.75v-7z" fill="#2fdf84"/><path d="m9 20.935c0-.098.029-.186.078-.264l2.277-3.627c.371-.591.57-1.277.57-1.976 0-.001 0-.002 0-.003 0-4.204 3.122-7.676 7.163-8.229-.369-.05-.742-.086-1.125-.086-4.573 0-8.287 3.727-8.287 8.315v.003c0 .699-.198 1.385-.57 1.976l-2.277 3.627c-.049.078-.078.166-.078.264 0 .274.214.489.487.489h2.25c-.274 0-.488-.215-.488-.489z" fill="#d5dbe1"/><path d="m14.55 26.023v3.227h2.25v-3.913z" fill="#d5dbe1"/><path d="m11.925 24.848v-3.424h-2.25v3.424c0 .812.653 1.467 1.463 1.467.146 0 .292-.02.429-.068l.893-.272c-.325-.269-.535-.671-.535-1.127z" fill="#d5dbe1"/><path d="m26.25 10.25 3-1v-.75l-5.25 1.75v7l2.25-.75z" fill="#00b871"/><path d="m21 15.5v-6.25l-2.25-.75v7l5.25 1.75v-.75z" fill="#00b871"/><path d="m23.33 30h-8.78c-.414 0-.75-.336-.75-.75v-2.896l-2.011.614c-.176.063-.412.103-.649.103-1.224 0-2.22-.996-2.22-2.221v-2.68h-1.68c-.695 0-1.24-.545-1.24-1.24 0-.228.067-.456.195-.658l2.28-3.63c.278-.443.434-.947.454-1.462-.006-.035-.009-.073-.009-.11 0-4.134 2.784-7.747 6.771-8.786l.378 1.451c-3.288.857-5.596 3.815-5.648 7.218.006.038.009.077.009.117 0 .835-.237 1.654-.685 2.368l-2.029 3.232h1.954c.414 0 .75.336.75.75v3.43c0 .397.323.721.72.721.065 0 .13-.01.178-.026l3.013-.922c.227-.067.475-.026.666.115s.303.365.303.602v3.16h7.28v-4.17c0-1.483.387-2.943 1.119-4.223l1.302.746c-.603 1.052-.921 2.254-.921 3.477v4.92c0 .414-.336.75-.75.75z"/><path d="m24 11c-.08 0-.16-.013-.237-.038l-5.25-1.75c-.306-.103-.513-.389-.513-.712s.207-.609.513-.712l5.25-1.75c.154-.051.32-.051.475 0l5.25 1.75c.305.103.512.389.512.712s-.207.609-.513.712l-5.25 1.75c-.077.025-.157.038-.237.038zm-2.878-2.5 2.878.959 2.878-.959-2.878-.959z"/><path d="m24 18c-.08 0-.16-.013-.237-.038l-5.25-1.75c-.306-.103-.513-.389-.513-.712v-7h1.5v6.459l4.5 1.5 4.5-1.5v-6.459h1.5v7c0 .323-.207.609-.513.712l-5.25 1.75c-.077.025-.157.038-.237.038z"/><path d="m23.25 10.25h1.5v7h-1.5z"/></svg>