<svg id="_x31__x2C_5" height="512" viewBox="0 0 36 36" width="512" xmlns="http://www.w3.org/2000/svg"><path d="m31.833 27.623c0-6.917 3.583-11.667 3.583-15s-1.916-10.333-17.249-10.333-17.584 9.417-17.584 13.083c0 17.167 31.25 24.5 31.25 12.25z" fill="#efefef"/><path d="m28.467 1.967h1v2h-1z" fill="#a4afc1" transform="matrix(.707 -.707 .707 .707 6.386 21.352)"/><path d="m32.533 6.033h1v2h-1z" fill="#a4afc1" transform="matrix(.707 -.707 .707 .707 4.702 25.418)"/><path d="m31.856 2.467h2v1h-2z" fill="#a4afc1" transform="matrix(.707 -.707 .707 .707 7.525 24.102)"/><path d="m28.25 14.25h-20.5c-.552 0-1-.448-1-1v-5.5c0-.552.448-1 1-1h20.5c.552 0 1 .448 1 1v5.5c0 .552-.448 1-1 1z" fill="#f3f3f1"/><path d="m14.75 16.25h-4.5l-.75-2h6z" fill="#2fdf84"/><path d="m11.25 16.25h2.5v2h-2.5z" fill="#f3f3f1"/><path d="m15.25 30v-1.382c0-.685-.387-1.312-1-1.618-.613-.306-1-.933-1-1.618v-.632h-1.5v.632c0 .685-.387 1.312-1 1.618-.613.306-1 .933-1 1.618v1.382z" fill="#2fdf84"/><path d="m25.75 16.25h-4.5l-.75-2h6z" fill="#2fdf84"/><path d="m22.25 16.25h2.5v2h-2.5z" fill="#f3f3f1"/><path d="m26.25 30v-1.382c0-.685-.387-1.312-1-1.618-.613-.306-1-.933-1-1.618v-.632h-1.5v.632c0 .685-.387 1.312-1 1.618-.613.306-1 .933-1 1.618v1.382z" fill="#2fdf84"/><path d="m9 13.25v-5.5c0-.552.448-1 1-1h-2.25c-.552 0-1 .448-1 1v5.5c0 .552.448 1 1 1h2.25c-.552 0-1-.448-1-1z" fill="#d5dbe1"/><path d="m11.25 16.25h2.25v2h-2.25z" fill="#d5dbe1"/><path d="m22.25 16.25h2.25v2h-2.25z" fill="#d5dbe1"/><g fill="#00b871"><path d="m9.5 14.25.75 2h2.25l-.75-2z"/><path d="m13 27c.255-.128.46-.32.625-.54-.231-.308-.375-.678-.375-1.078v-.632h-1.5v.632c0 .685-.387 1.312-1 1.618s-1 .933-1 1.618v1.382h2.25v-1.382c0-.685.387-1.312 1-1.618z"/><path d="m20.5 14.25.75 2h2.25l-.75-2z"/><path d="m24 27c.255-.128.46-.32.625-.54-.231-.308-.375-.678-.375-1.078v-.632h-1.5v.632c0 .685-.387 1.312-1 1.618s-1 .933-1 1.618v1.382h2.25v-1.382c0-.685.387-1.312 1-1.618z"/></g><path d="m28.25 15h-20.5c-.965 0-1.75-.785-1.75-1.75v-5.5c0-.965.785-1.75 1.75-1.75h20.5c.965 0 1.75.785 1.75 1.75v5.5c0 .965-.785 1.75-1.75 1.75zm-20.5-7.5c-.138 0-.25.112-.25.25v5.5c0 .138.112.25.25.25h20.5c.138 0 .25-.112.25-.25v-5.5c0-.138-.112-.25-.25-.25z"/><path d="m14.75 17h-4.5c-.313 0-.592-.194-.702-.487l-.75-2c-.086-.23-.054-.488.086-.69.139-.202.37-.323.616-.323h6c.246 0 .477.121.616.323.14.202.172.46.086.69l-.75 2c-.11.293-.389.487-.702.487zm-3.98-1.5h3.461l.188-.5h-3.836z"/><path d="m13.75 19h-2.5c-.414 0-.75-.336-.75-.75v-2c0-.414.336-.75.75-.75h2.5c.414 0 .75.336.75.75v2c0 .414-.336.75-.75.75zm-1.75-1.5h1v-.5h-1z"/><path d="m11.75 20h1.5v3h-1.5z"/><path d="m16 30h-1.5v-1.382c0-.404-.225-.767-.585-.947-.837-.419-1.37-1.243-1.412-2.171h-.005c-.042.928-.575 1.752-1.412 2.171-.361.181-.585.543-.585.947v1.382h-1.501v-1.382c0-.975.542-1.853 1.415-2.289.36-.181.585-.543.585-.947v-.632c0-.414.336-.75.75-.75h1.5c.414 0 .75.336.75.75v.632c0 .404.225.767.585.947.873.437 1.415 1.314 1.415 2.289z"/><path d="m10 24h5v1.5h-5z"/><path d="m25.75 17h-4.5c-.313 0-.592-.194-.702-.487l-.75-2c-.086-.23-.054-.488.086-.69s.37-.323.616-.323h6c.246 0 .477.121.616.323.14.202.172.46.086.69l-.75 2c-.11.293-.389.487-.702.487zm-3.98-1.5h3.461l.188-.5h-3.836z"/><path d="m24.75 19h-2.5c-.414 0-.75-.336-.75-.75v-2c0-.414.336-.75.75-.75h2.5c.414 0 .75.336.75.75v2c0 .414-.336.75-.75.75zm-1.75-1.5h1v-.5h-1z"/><path d="m22.75 20h1.5v3h-1.5z"/><path d="m27 30h-1.5v-1.382c0-.404-.225-.767-.585-.947-.837-.419-1.37-1.243-1.412-2.171h-.005c-.042.928-.575 1.752-1.412 2.171-.361.181-.585.543-.585.947v1.382h-1.501v-1.382c0-.975.542-1.853 1.415-2.289.36-.181.585-.543.585-.947v-.632c0-.414.336-.75.75-.75h1.5c.414 0 .75.336.75.75v.632c0 .404.225.767.585.947.873.437 1.415 1.314 1.415 2.289z"/><path d="m21 24h5v1.5h-5z"/><path d="m9 10.5h18v1.5h-18z"/></svg>