<svg id="_x31__x2C_5" height="512" viewBox="0 0 36 36" width="512" xmlns="http://www.w3.org/2000/svg"><path d="m8.114 5.564c-1.805 6.677-6.504 10.327-7.374 13.545s-.847 10.475 13.955 14.477 19.432-4.501 20.388-8.041c4.481-16.572-23.772-31.807-26.969-19.981z" fill="#efefef"/><path d="m31 6.425c-.827 0-1.5-.673-1.5-1.5s.673-1.5 1.5-1.5 1.5.673 1.5 1.5-.673 1.5-1.5 1.5zm0-2c-.276 0-.5.224-.5.5s.224.5.5.5.5-.224.5-.5-.224-.5-.5-.5z" fill="#a4afc1"/><path d="m28.642 15.323-13.319 13.319c-.811.811-2.126.811-2.937 0l-5.028-5.028c-.811-.811-.811-2.126 0-2.937l13.319-13.319c.811-.811 2.126-.811 2.937 0l5.028 5.028c.811.811.811 2.126 0 2.937z" fill="#f3f3f1"/><circle cx="21.5" cy="14.5" fill="#2fdf84" r="1.75"/><circle cx="14.5" cy="21.5" fill="#2fdf84" r="1.75"/><circle cx="21.5" cy="14.5" fill="#00b871" r="1.75"/><circle cx="14.5" cy="21.5" fill="#00b871" r="1.75"/><path d="m12.39 28.64c.7.7 1.78.8 2.59.27-.12-.07-.23-.16-.34-.27l-5.03-5.03c-.81-.81-.81-2.12 0-2.93l13.32-13.32c.11-.1.22-.19.34-.27-.8-.53-1.88-.44-2.59.27l-13.32 13.32c-.81.81-.81 2.12 0 2.93z" fill="#d5dbe1"/><path d="m13.854 29.999c-.724 0-1.448-.275-1.999-.827l-5.028-5.028c-1.102-1.102-1.102-2.896 0-3.998l13.319-13.318c1.102-1.103 2.896-1.103 3.998 0l5.028 5.028c1.102 1.102 1.102 2.896 0 3.998l-13.318 13.318c-.552.551-1.275.827-2 .827zm8.291-22.499c-.354 0-.688.138-.938.389l-13.318 13.318c-.25.25-.389.584-.389.938s.138.688.389.938l5.028 5.028c.5.5 1.375.5 1.876 0l13.318-13.318c.25-.25.389-.584.389-.938s-.138-.688-.389-.938l-5.028-5.028c-.25-.251-.583-.389-.938-.389z"/><path d="m21.5 17c-1.378 0-2.5-1.122-2.5-2.5s1.122-2.5 2.5-2.5 2.5 1.122 2.5 2.5-1.122 2.5-2.5 2.5zm0-3.5c-.551 0-1 .449-1 1s.449 1 1 1 1-.449 1-1-.449-1-1-1z"/><path d="m14.5 24c-1.378 0-2.5-1.122-2.5-2.5s1.122-2.5 2.5-2.5 2.5 1.122 2.5 2.5-1.122 2.5-2.5 2.5zm0-3.5c-.551 0-1 .449-1 1s.449 1 1 1 1-.449 1-1-.449-1-1-1z"/></svg>