<svg enable-background="new 0 0 36 36" height="512" viewBox="0 0 36 36" width="512" xmlns="http://www.w3.org/2000/svg"><path d="m13.411 34.999c6.298-2.859 12.105-1.559 15.14-2.936 3.035-1.378 8.617-6.016 2.28-19.978s-15.841-12.12-19.18-10.605c-15.632 7.095-9.395 38.582 1.76 33.519z" fill="#efefef"/><g fill="#2fdf84"><path d="m23.75 18.75h5.5v5.5h-5.5z"/><path d="m23.75 12.75h5.5v6h-5.5z"/><path d="m11.75 10.75v6.5c0 1.105.895 2 2 2h5.692l-2.529-7.166c-.282-.8-1.038-1.334-1.886-1.334z"/></g><path d="m13.75 19.25c-1.1 0-2-.9-2-2v-.5h-3c-1.1 0-2 .9-2 2v4.5c0 .55.45 1 1 1h.75 11 2.25v-5z" fill="#f3f3f1"/><circle cx="10.5" cy="24.5" fill="#f3f3f1" r="1.75"/><circle cx="17.5" cy="24.5" fill="#f3f3f1" r="1.75"/><path d="m23.75 18.75h2.25v5.5h-2.25z" fill="#00b871"/><path d="m23.75 12.75h2.25v6h-2.25z" fill="#00b871"/><path d="m14 17.25v-6.5h-2.25v6.5c0 1.105.895 2 2 2h2.25c-1.105 0-2-.895-2-2z" fill="#00b871"/><path d="m9 23.25v-4.5c0-1.1.9-2 2-2h-2.25c-1.1 0-2 .9-2 2v4.5c0 .55.45 1 1 1h.75 1.5c-.55 0-1-.45-1-1z" fill="#d5dbe1"/><path d="m11 24.5c0-.536.246-1.009.625-1.33-.305-.258-.694-.42-1.125-.42-.966 0-1.75.784-1.75 1.75s.784 1.75 1.75 1.75c.431 0 .82-.162 1.125-.42-.379-.321-.625-.794-.625-1.33z" fill="#d5dbe1"/><path d="m18 24.5c0-.536.246-1.009.625-1.33-.305-.258-.694-.42-1.125-.42-.966 0-1.75.784-1.75 1.75s.784 1.75 1.75 1.75c.431 0 .82-.162 1.125-.42-.379-.321-.625-.794-.625-1.33z" fill="#d5dbe1"/><g fill="#a4afc1"><path d="m23.75 29.486c-.827 0-1.5-.673-1.5-1.5s.673-1.5 1.5-1.5 1.5.673 1.5 1.5-.673 1.5-1.5 1.5zm0-2c-.275 0-.5.224-.5.5s.225.5.5.5.5-.224.5-.5-.225-.5-.5-.5z"/><path d="m6.375 3.87h1v2h-1z"/><path d="m6.375 9.62h1v2h-1z"/><path d="m2.875 7.12h2v1h-2z"/><path d="m8.625 7.12h2v1h-2z"/></g><path d="m29.25 25h-5.5c-.414 0-.75-.336-.75-.75v-5.5c0-.414.336-.75.75-.75h5.5c.414 0 .75.336.75.75v5.5c0 .414-.336.75-.75.75zm-4.75-1.5h4v-4h-4z"/><path d="m29.25 19.5h-5.5c-.414 0-.75-.336-.75-.75v-6c0-.414.336-.75.75-.75h5.5c.414 0 .75.336.75.75v6c0 .414-.336.75-.75.75zm-4.75-1.5h4v-4.5h-4z"/><path d="m25.75 18.75h1.5v2.5h-1.5z"/><path d="m25.75 12.75h1.5v2.5h-1.5z"/><path d="m19.441 20h-5.691c-1.517 0-2.75-1.233-2.75-2.75v-6.5c0-.414.336-.75.75-.75h3.276c1.164 0 2.206.737 2.593 1.835l2.529 7.165c.081.229.046.484-.095.683s-.368.317-.612.317zm-6.941-8.5v5.75c0 .689.561 1.25 1.25 1.25h4.631l-2.176-6.166c-.176-.499-.649-.834-1.179-.834z"/><path d="m21.75 25h-2.25v-1.5h1.5v-3.5h-7.25c-1.433 0-2.612-1.1-2.738-2.5h-2.262c-.689 0-1.25.561-1.25 1.25v4.5c0 .136.114.25.25.25h.75v1.5h-.75c-.965 0-1.75-.785-1.75-1.75v-4.5c0-1.517 1.233-2.75 2.75-2.75h3c.414 0 .75.336.75.75v.5c0 .689.561 1.25 1.25 1.25h8c.414 0 .75.336.75.75v5c0 .414-.336.75-.75.75z"/><path d="m12.5 23.5h3v1.5h-3z"/><path d="m29.25 25h-7.5c-.414 0-.75-.336-.75-.75v-14.5h1.5v13.75h6.75z"/><path d="m10.5 27c-1.379 0-2.5-1.122-2.5-2.5s1.121-2.5 2.5-2.5 2.5 1.122 2.5 2.5-1.121 2.5-2.5 2.5zm0-3.5c-.552 0-1 .449-1 1s.448 1 1 1 1-.449 1-1-.448-1-1-1z"/><path d="m17.5 27c-1.379 0-2.5-1.122-2.5-2.5s1.121-2.5 2.5-2.5 2.5 1.122 2.5 2.5-1.121 2.5-2.5 2.5zm0-3.5c-.552 0-1 .449-1 1s.448 1 1 1 1-.449 1-1-.448-1-1-1z"/></svg>