<svg id="_x31__x2C_5" enable-background="new 0 0 36 36" height="512" viewBox="0 0 36 36" width="512" xmlns="http://www.w3.org/2000/svg"><path d="m31.833 27.623c0-6.917 3.583-11.667 3.583-15s-1.916-10.333-17.249-10.333-17.584 9.417-17.584 13.083c0 17.167 31.25 24.5 31.25 12.25z" fill="#efefef"/><g fill="#a4afc1"><path d="m22.727 1.997h1v2h-1z" transform="matrix(.707 -.707 .707 .707 4.684 17.302)"/><path d="m26.793 6.063h1v2h-1z" transform="matrix(.707 -.707 .707 .707 3 21.368)"/><path d="m26.116 2.497h2v1h-2z" transform="matrix(.707 -.707 .707 .707 5.823 20.052)"/></g><path d="m23.25 25.75v1.5c0 1.1-.9 2-2 2h-10.5c-1.1 0-2-.9-2-2v-1.5z" fill="#f3f3f1"/><path d="m23.25 8.75v17h-14.5v-17c0-1.1.9-2 2-2h10.5c1.1 0 2 .9 2 2z" fill="#f3f3f1"/><path d="m27.25 13.5-5.25 1.75-5.25-1.75 5.25-1.75z" fill="#2fdf84"/><path d="m27.25 13.5v7l-5.25 1.75v-7z" fill="#2fdf84"/><path d="m22 15.25v7l-5.25-1.75v-7z" fill="#2fdf84"/><path d="m11 27.25v-1.5h-2.25v1.5c0 1.1.9 2 2 2h2.25c-1.1 0-2-.9-2-2z" fill="#d5dbe1"/><path d="m13 6.75h-2.25c-1.1 0-2 .9-2 2v17h2.25v-17c0-1.1.9-2 2-2z" fill="#d5dbe1"/><path d="m24.25 15.25 3-1v-.75l-5.25 1.75v7l2.25-.75z" fill="#00b871"/><path d="m19 20.5v-6.25l-2.25-.75v7l5.25 1.75v-.75z" fill="#00b871"/><path d="m21.25 30h-10.5c-1.517 0-2.75-1.233-2.75-2.75v-18.5c0-1.517 1.233-2.75 2.75-2.75h10.5c1.517 0 2.75 1.233 2.75 2.75h-1.5c0-.689-.561-1.25-1.25-1.25h-10.5c-.689 0-1.25.561-1.25 1.25v16.25h13.75c.414 0 .75.336.75.75v1.5c0 1.517-1.233 2.75-2.75 2.75zm-11.75-3.5v.75c0 .689.561 1.25 1.25 1.25h10.5c.689 0 1.25-.561 1.25-1.25v-.75z"/><path d="m22 16c-.08 0-.16-.013-.237-.039l-5.25-1.75c-.306-.102-.513-.388-.513-.711s.207-.609.513-.711l5.25-1.75c.154-.052.32-.052.475 0l5.25 1.75c.305.102.512.388.512.711s-.207.609-.513.711l-5.25 1.75c-.077.026-.157.039-.237.039zm-2.878-2.5 2.878.959 2.878-.959-2.878-.959z"/><path d="m22 23c-.08 0-.16-.013-.237-.038l-5.25-1.75c-.306-.103-.513-.389-.513-.712v-7h1.5v6.459l4.5 1.5 4.5-1.5v-6.459h1.5v7c0 .323-.207.609-.513.712l-5.25 1.75c-.077.025-.157.038-.237.038z"/><path d="m21.25 15.25h1.5v7h-1.5z"/></svg>