<svg id="_x31__x2C_5" height="512" viewBox="0 0 36 36" width="512" xmlns="http://www.w3.org/2000/svg"><path d="m31.833 27.623c0-6.917 3.583-11.667 3.583-15s-1.916-10.333-17.249-10.333-17.584 9.417-17.584 13.083c0 17.167 31.25 24.5 31.25 12.25z" fill="#efefef"/><path d="m6.5 8c-.827 0-1.5-.673-1.5-1.5s.673-1.5 1.5-1.5 1.5.673 1.5 1.5-.673 1.5-1.5 1.5zm0-2c-.275 0-.5.225-.5.5s.225.5.5.5.5-.225.5-.5-.225-.5-.5-.5z" fill="#a4afc1"/><path d="m15.894 11.399 2.498-4.164c.181-.301.506-.485.857-.485h6c.4 0 .762.238.919.606l3 7c.161.376.077.812-.212 1.101l-2.542 2.543z" fill="#f3f3f1"/><path d="m7.5 21c0-5.247 4.253-9.5 9.5-9.5s9.5 4.253 9.5 9.5z" fill="#2fdf84"/><path d="m25.277 21-.831.93.64 1.448-1.368.795.159 1.574-1.547.333-.333 1.547-1.575-.159-.795 1.368-1.447-.64-1.18 1.054-1.18-1.054-1.448.64-.795-1.368-1.574.159-.333-1.547-1.547-.333.159-1.575-1.368-.795.64-1.447-.635-.711z" fill="#f3f3f1"/><circle cx="17" cy="21" fill="#f3f3f1" r="2.25"/><path d="m18.07 28.196-1.448.64-.795-1.368-1.574.159-.333-1.547-1.547-.333.159-1.575-1.368-.795.64-1.447-.635-.711h-2.25l.635.711-.64 1.447 1.368.795-.159 1.575 1.547.333.333 1.547 1.574-.159.795 1.368 1.448-.64 1.18 1.054 1.125-1.005z" fill="#d5dbe1"/><path d="m17 21c0-.831.455-1.548 1.125-1.938-.332-.193-.713-.312-1.125-.312-1.243 0-2.25 1.007-2.25 2.25s1.007 2.25 2.25 2.25c.412 0 .793-.119 1.125-.312-.67-.39-1.125-1.107-1.125-1.938z" fill="#d5dbe1"/><path d="m18.125 11.573c-.37-.044-.744-.073-1.125-.073-5.247 0-9.5 4.253-9.5 9.5h2.25c0-4.865 3.66-8.87 8.375-9.427z" fill="#00b871"/><path d="m17 11.5c.517 0 1.021.053 1.516.132l-.372-.233 2.498-4.164c.181-.301.506-.485.858-.485h-2.25c-.352 0-.677.184-.857.485l-2.498 4.164.231.145c.288-.026.579-.044.874-.044z" fill="#d5dbe1"/><path d="m17 30c-.179 0-.357-.063-.5-.19l-.818-.732-1.007.445c-.347.152-.76.021-.951-.31l-.552-.95-1.094.11c-.377.043-.729-.216-.809-.588l-.23-1.074-1.074-.231c-.373-.081-.626-.429-.588-.809l.11-1.093-.949-.552c-.331-.191-.465-.602-.31-.951l.444-1.006-.313-.352 1.119-.998.635.712c.196.22.245.533.126.802l-.367.833.786.457c.255.147.399.431.37.724l-.092.907.892.192c.288.063.513.287.575.575l.191.892.907-.092c.302-.034.576.115.724.369l.458.788.834-.369c.267-.119.582-.069.803.127l.68.608.682-.607c.219-.196.534-.247.802-.126l.833.367.457-.786c.147-.256.434-.403.724-.37l.907.092.192-.892c.063-.288.287-.513.575-.575l.892-.191-.092-.907c-.029-.293.115-.576.369-.724l.788-.458-.369-.834c-.118-.269-.069-.583.127-.802l.83-.93 1.119.998-.509.569.445 1.007c.154.35.021.759-.31.951l-.95.552.11 1.094c.038.38-.215.728-.588.809l-1.074.231-.231 1.073c-.081.374-.438.63-.809.588l-1.093-.11-.552.949c-.191.331-.603.465-.951.31l-1.006-.444-.82.732c-.141.127-.319.19-.498.19z"/><path d="m17 24c-1.654 0-3-1.346-3-3s1.346-3 3-3 3 1.346 3 3-1.346 3-3 3zm0-4.5c-.827 0-1.5.673-1.5 1.5s.673 1.5 1.5 1.5 1.5-.673 1.5-1.5-.673-1.5-1.5-1.5z"/><path d="m27.25 21h-1.5c0-4.825-3.925-8.75-8.75-8.75s-8.75 3.925-8.75 8.75h-1.5c0-5.652 4.598-10.25 10.25-10.25s10.25 4.598 10.25 10.25z"/><path d="m18.75 20.25h9.25v1.5h-9.25z"/><path d="m6 20.25h9.25v1.5h-9.25z"/><path d="m26.944 18.53-1.061-1.061 2.543-2.543c.072-.072.094-.182.053-.276l-3-6.999c-.039-.091-.128-.151-.229-.151h-6c-.089 0-.169.045-.214.121l-2.498 4.164-1.287-.771 2.498-4.164c.314-.524.889-.85 1.501-.85h6c.701 0 1.333.416 1.608 1.061l3 6.999c.283.663.138 1.419-.371 1.928z"/></svg>