<svg id="_x31__x2C_5" enable-background="new 0 0 36 36" height="512" viewBox="0 0 36 36" width="512" xmlns="http://www.w3.org/2000/svg"><path d="m8.377 4.167c6.917 0 11.667-3.583 15-3.583s10.333 1.916 10.333 17.249-9.417 17.583-13.083 17.583c-17.167.001-24.5-31.249-12.25-31.249z" fill="#efefef"/><path d="m30.5 8c-.827 0-1.5-.673-1.5-1.5s.673-1.5 1.5-1.5 1.5.673 1.5 1.5-.673 1.5-1.5 1.5zm0-2c-.276 0-.5.224-.5.5s.224.5.5.5.5-.224.5-.5-.224-.5-.5-.5z" fill="#a4afc1"/><path d="m29.25 11.75v11h-22.5v-11c0-.55.45-1 1-1h20.5c.55 0 1 .45 1 1z" fill="#f3f3f1"/><g fill="#2fdf84"><path d="m23.25 8.5-5.25 1.75-5.25-1.75 5.25-1.75z"/><path d="m23.25 8.5v7l-5.25 1.75v-7z"/><path d="m18 10.25v7l-5.25-1.75v-7z"/></g><path d="m29.25 22.75v2.5c0 .55-.45 1-1 1h-20.5c-.55 0-1-.45-1-1v-2.5z" fill="#f3f3f1"/><path d="m21.23 29.25h-6.48c1.25-1.25 1.48-3 1.48-3h3.52s.24 1.76 1.48 3z" fill="#f3f3f1"/><path d="m10 10.75h-2.25c-.55 0-1 .45-1 1v11h2.25v-11c0-.55.45-1 1-1z" fill="#d5dbe1"/><path d="m20.25 10.25 3-1v-.75l-5.25 1.75v7l2.25-.75z" fill="#00b871"/><path d="m15 15.5v-6.25l-2.25-.75v7l5.25 1.75v-.75z" fill="#00b871"/><path d="m9 25.25v-2.5h-2.25v2.5c0 .55.45 1 1 1h2.25c-.55 0-1-.45-1-1z" fill="#d5dbe1"/><path d="m16.23 26.25s-.23 1.75-1.48 3h2.25c1.25-1.25 1.48-3 1.48-3z" fill="#d5dbe1"/><path d="m28.25 27h-20.5c-.965 0-1.75-.785-1.75-1.75v-13.5c0-.965.785-1.75 1.75-1.75h1.5v1.5h-1.5c-.138 0-.25.112-.25.25v13.5c0 .138.112.25.25.25h20.5c.138 0 .25-.112.25-.25v-13.5c0-.138-.112-.25-.25-.25h-1.5v-1.5h1.5c.965 0 1.75.785 1.75 1.75v13.5c0 .965-.785 1.75-1.75 1.75z"/><path d="m6.75 22h22.5v1.5h-22.5z"/><path d="m21.25 30h-6.5c-.303 0-.577-.183-.693-.463s-.052-.603.163-.817c1.041-1.041 1.265-2.553 1.267-2.567l1.487.195c-.008.059-.147 1.066-.744 2.152h3.523c-.591-1.08-.738-2.088-.746-2.147l1.485-.208c.002.015.221 1.458 1.184 2.488.196.136.324.361.324.617 0 .414-.336.75-.75.75z"/><path d="m18 11c-.08 0-.16-.013-.237-.039l-5.25-1.75c-.306-.102-.513-.388-.513-.711s.207-.609.513-.711l5.25-1.75c.154-.052.32-.052.475 0l5.25 1.75c.305.102.512.388.512.711s-.207.609-.513.711l-5.25 1.75c-.077.026-.157.039-.237.039zm-2.878-2.5 2.878.959 2.878-.959-2.878-.959z"/><path d="m18 18c-.08 0-.16-.013-.237-.039l-5.25-1.75c-.306-.102-.513-.388-.513-.711v-7h1.5v6.459l4.5 1.5 4.5-1.5v-6.459h1.5v7c0 .323-.207.609-.513.711l-5.25 1.75c-.077.026-.157.039-.237.039z"/><path d="m17.25 10.25h1.5v7h-1.5z"/></svg>