<svg id="_x31__x2C_5" height="512" viewBox="0 0 36 36" width="512" xmlns="http://www.w3.org/2000/svg"><path d="m4.167 8.377c0 6.917-3.583 11.667-3.583 15s1.916 10.333 17.249 10.333 17.583-9.417 17.583-13.083c.001-17.167-31.249-24.5-31.249-12.25z" fill="#efefef"/><path d="m29.875 2h1v2h-1z" fill="#a4afc1"/><path d="m32.125 5h2v1h-2z" fill="#a4afc1"/><path d="m7 21.25 8.5-4.125 1-6.375h-9.25z" fill="#f3f3f1"/><path d="m17.75 6.75h3.5v2.75h-3.5z" fill="#f3f3f1"/><path d="m22.25 15.75h-5.5v-5c0-.552.448-1 1-1h3.5c.552 0 1 .448 1 1z" fill="#2fdf84"/><path d="m23.25 20.5h-7.5v-3.75c0-.552.448-1 1-1h5.5c.552 0 1 .448 1 1z" fill="#f3f3f1"/><path d="m28.25 22.75h-2.5v-5.75c0-.69.56-1.25 1.25-1.25.69 0 1.25.56 1.25 1.25z" fill="#2fdf84"/><path d="m24.75 22.75h4.5v2h-4.5z" fill="#f3f3f1"/><path d="m24.75 24.75 1.25 2.5h2l1.25-2.5z" fill="#f3f3f1"/><g fill="#d5dbe1"><path d="m9.5 10.75h-2.25l-.25 10.5 2.276-1.105z"/><path d="m17.75 6.75h2.25v2.75h-2.25z"/><path d="m19 15.75h-2.25c-.552 0-1 .448-1 1v3.75h2.25v-3.75c0-.552.448-1 1-1z"/><path d="m24.75 22.75h2.25v2h-2.25z"/><path d="m27 24.75h-2.25l1.25 2.5h2l.125-.25z"/></g><path d="m20 9.75h-2.25c-.552 0-1 .448-1 1v5h2.25v-5c0-.552.448-1 1-1z" fill="#00b871"/><path d="m28.125 16.474c-.2-.425-.625-.724-1.125-.724-.69 0-1.25.56-1.25 1.25v5.75h2.25v-5.75c0-.19.049-.365.125-.526z" fill="#00b871"/><path d="m6 6.75h1.5v18.5h-1.5z"/><path d="m7.25 10h9.25v1.5h-9.25z"/><path d="m6.526 18.438h9.448v1.5h-9.448z" transform="matrix(.9 -.436 .436 .9 -7.244 6.83)"/><path d="m22 9.5h-1.5v-2h-2v2h-1.5v-2.75c0-.414.336-.75.75-.75h3.5c.414 0 .75.336.75.75z"/><path d="m16 6h7v1.5h-7z"/><path d="m22.25 16.5h-5.5c-.414 0-.75-.336-.75-.75v-5c0-.965.785-1.75 1.75-1.75h3.5c.965 0 1.75.785 1.75 1.75v5c0 .414-.336.75-.75.75zm-4.75-1.5h4v-4.25c0-.138-.112-.25-.25-.25h-3.5c-.138 0-.25.112-.25.25z"/><path d="m23.25 21.25h-7.5c-.414 0-.75-.336-.75-.75v-3.75c0-.965.785-1.75 1.75-1.75h5.5c.965 0 1.75.785 1.75 1.75v3.75c0 .414-.336.75-.75.75zm-6.75-1.5h6v-3c0-.138-.112-.25-.25-.25h-5.5c-.138 0-.25.112-.25.25z"/><path d="m14 19.75h15.5v1.5h-15.5z"/><path d="m28.25 21.25h-2.5c-.414 0-.75-.336-.75-.75v-3.5c0-1.103.897-2 2-2s2 .897 2 2v3.5c0 .414-.336.75-.75.75zm-1.75-1.5h1v-2.75c0-.275-.225-.5-.5-.5s-.5.225-.5.5z"/><path d="m28.25 23.5h-2.5c-.414 0-.75-.336-.75-.75v-2.25c0-.414.336-.75.75-.75h2.5c.414 0 .75.336.75.75v2.25c0 .414-.336.75-.75.75zm-1.75-1.5h1v-.75h-1z"/><path d="m29.25 25.5h-4.5c-.414 0-.75-.336-.75-.75v-2c0-.414.336-.75.75-.75h4.5c.414 0 .75.336.75.75v2c0 .414-.336.75-.75.75zm-3.75-1.5h3v-.5h-3z"/><path d="m28 28h-2c-.284 0-.544-.16-.671-.415l-1.25-2.5 1.342-.67 1.043 2.085h1.072l1.043-2.085 1.342.67-1.25 2.5c-.127.255-.387.415-.671.415z"/><path d="m26.25 26.5h1.5v3.5h-1.5z"/></svg>