<svg id="_x31__x2C_5" enable-background="new 0 0 36 36" height="512" viewBox="0 0 36 36" width="512" xmlns="http://www.w3.org/2000/svg"><path d="m4.167 27.623c0-6.917-3.583-11.667-3.583-15s1.916-10.333 17.249-10.333 17.583 9.417 17.583 13.083c.001 17.167-31.249 24.5-31.249 12.25z" fill="#efefef"/><g fill="#a4afc1"><path d="m25.134 7.717h1v2h-1z" transform="matrix(.707 -.707 .707 .707 1.342 20.675)"/><path d="m29.2 11.783h1v2h-1z" transform="matrix(.707 -.707 .707 .707 -.342 24.74)"/><path d="m28.523 8.217h2v1h-2z" transform="matrix(.707 -.707 .707 .707 2.483 23.429)"/></g><path d="m25.25 13-7.25 2.25-7.25-2.25 7.25-2.25z" fill="#2fdf84"/><path d="m25.25 13v10l-7.25 2.25v-10z" fill="#f3f3f1"/><path d="m18 15.25v10l-7.25-2.25v-10z" fill="#f3f3f1"/><path d="m13 13 6.125-1.901-1.125-.349-7.25 2.25 7.25 2.25 1.125-.349z" fill="#00b871"/><path d="m20.25 15.25 5-1.552v-.698l-7.25 2.25v10l2.25-.698z" fill="#d5dbe1"/><path d="m13 23v-9.302l-2.25-.698v10l7.25 2.25v-.698z" fill="#d5dbe1"/><path d="m18 16c-.075 0-.15-.011-.222-.034l-7.25-2.25c-.314-.097-.528-.387-.528-.716s.214-.619.528-.716l7.25-2.25c.145-.045.3-.045.444 0l7.25 2.25c.314.097.528.387.528.716s-.214.619-.528.716l-7.25 2.25c-.072.023-.147.034-.222.034zm-4.72-3 4.72 1.465 4.72-1.465-4.72-1.465z"/><path d="m18 26c-.075 0-.15-.011-.222-.034l-7.25-2.25c-.314-.097-.528-.387-.528-.716v-10h1.5v9.447l6.5 2.018 6.5-2.018v-9.447h1.5v10c0 .329-.214.619-.528.716l-7.25 2.25c-.072.023-.147.034-.222.034z"/><path d="m17.25 15.5h1.5v9.5h-1.5z"/><path d="m18 30c-.192 0-.384-.073-.53-.22l-1.781-1.78 1.061-1.061 1.25 1.25 1.25-1.25 1.061 1.061-1.78 1.78c-.147.147-.339.22-.531.22z"/><path d="m19.25 9.061-1.25-1.25-1.25 1.25-1.061-1.061 1.78-1.78c.293-.293.768-.293 1.061 0l1.781 1.78z"/><path d="m28 20.311-1.061-1.061 1.25-1.25-1.25-1.25 1.061-1.061 1.78 1.78c.293.293.293.768 0 1.061z"/><path d="m8 20.311-1.78-1.78c-.293-.293-.293-.768 0-1.061l1.78-1.781 1.061 1.061-1.25 1.25 1.25 1.25z"/></svg>