<svg id="_x31__x2C_5" enable-background="new 0 0 36 36" height="512" viewBox="0 0 36 36" width="512" xmlns="http://www.w3.org/2000/svg"><path d="m27.623 31.833c-6.917 0-11.667 3.583-15 3.583s-10.333-1.916-10.333-17.249 9.417-17.584 13.083-17.584c17.167 0 24.5 31.25 12.25 31.25z" fill="#efefef"/><path d="m22.42 2.674h2v1h-2z" fill="#a4afc1" transform="matrix(.707 -.707 .707 .707 4.615 17.49)"/><path d="m23.273 6.063h1v2h-1z" fill="#a4afc1" transform="matrix(.707 -.707 .707 .707 1.969 18.879)"/><path d="m19.207 1.997h1v2h-1z" fill="#a4afc1" transform="matrix(.707 -.707 .707 .707 3.653 14.813)"/><path d="m29.25 20.5-11.25 4.75-11.25-4.75 11.25-4.76z" fill="#2fdf84"/><path d="m9 20.5 10.125-4.284-1.125-.476-11.25 4.76 11.25 4.75 1.125-.475z" fill="#00b871"/><path d="m29.25 20.5v4l-11.25 4.75v-4z" fill="#f3f3f1"/><path d="m18 25.25v4l-11.25-4.75v-4z" fill="#f3f3f1"/><path d="m23.25 14-5.25 5.25-5.25-5.25h3.5v-6.75c0-.276.224-.5.5-.5h2.5c.276 0 .5.224.5.5v6.75z" fill="#f3f3f1"/><g fill="#d5dbe1"><path d="m20.25 25.25 9-3.8v-.95l-11.25 4.75v4l2.25-.95z"/><path d="m9 24.5v-3.05l-2.25-.95v4l11.25 4.75v-.95z"/><path d="m18.5 7.25c0-.276.224-.5.5-.5h-2.25c-.276 0-.5.224-.5.5v6.75h2.25z"/><path d="m15 14h-2.25l5.25 5.25 1.125-1.125z"/></g><path d="m18 26c-.099 0-.198-.02-.292-.059l-11.25-4.75c-.277-.117-.458-.389-.458-.691s.18-.574.458-.691l5.55-2.35.585 1.381-3.917 1.659 9.324 3.937 9.324-3.937-3.917-1.659.585-1.381 5.55 2.35c.278.118.458.39.458.691s-.181.573-.458.69l-11.25 4.75c-.094.04-.193.06-.292.06z"/><path d="m18 30c-.099 0-.198-.02-.292-.059l-11.25-4.75c-.277-.117-.458-.39-.458-.691v-4h1.5v3.502l10.5 4.434 10.5-4.434v-3.502h1.5v4c0 .301-.181.574-.458.691l-11.25 4.75c-.094.039-.193.059-.292.059z"/><path d="m18 20c-.192 0-.384-.073-.53-.22l-5.25-5.25c-.214-.214-.279-.537-.163-.817s.39-.463.693-.463h2.75v-6c0-.689.561-1.25 1.25-1.25h2.5c.689 0 1.25.561 1.25 1.25v6h2.75c.303 0 .577.183.693.463s.052.603-.163.817l-5.25 5.25c-.146.147-.338.22-.53.22zm-3.439-5.25 3.439 3.439 3.439-3.439h-1.689c-.414 0-.75-.336-.75-.75v-6.5h-2v6.5c0 .414-.336.75-.75.75z"/><path d="m17.25 25.25h1.5v4h-1.5z"/></svg>