<svg id="_x31__x2C_5" enable-background="new 0 0 36 36" height="512" viewBox="0 0 36 36" width="512" xmlns="http://www.w3.org/2000/svg"><path d="m8.377 31.833c6.917 0 11.667 3.583 15 3.583s10.333-1.916 10.333-17.249-9.417-17.584-13.083-17.584c-17.167 0-24.5 31.25-12.25 31.25z" fill="#efefef"/><path d="m30.25 15.75c-.827 0-1.5-.673-1.5-1.5s.673-1.5 1.5-1.5 1.5.673 1.5 1.5-.673 1.5-1.5 1.5zm0-2c-.276 0-.5.225-.5.5s.224.5.5.5.5-.225.5-.5-.224-.5-.5-.5z" fill="#a4afc1"/><g fill="#f3f3f1"><path d="m25.25 10-9.25 3.25-9.25-3.25 9.25-3.24z"/><path d="m25.25 10v12l-9.25 3.25v-12z"/><path d="m16 13.25v12l-9.25-3.25v-12z"/></g><path d="m21.601 28.58-3.351.67.67-3.351 7.372-7.372c.37-.37.97-.37 1.34 0l1.34 1.34c.37.37.37.97 0 1.34z" fill="#2fdf84"/><path d="m18.25 13.25 7-2.459v-.791l-9.25 3.25v12l2.25-.791z" fill="#d5dbe1"/><path d="m9 22v-11.209l-2.25-.791v12l9.25 3.25v-.791z" fill="#d5dbe1"/><path d="m21.17 25.899 6.917-6.917-.455-.455c-.37-.37-.97-.37-1.34 0l-7.372 7.372-.67 3.351 2.344-.469z" fill="#00b871"/><path d="m16 14c-.084 0-.168-.014-.249-.042l-9.25-3.25c-.3-.105-.501-.39-.501-.708s.201-.603.501-.708l9.25-3.25c.161-.057.336-.057.497 0l9.25 3.25c.301.105.502.39.502.708s-.201.603-.501.708l-9.25 3.25c-.081.028-.165.042-.249.042zm-6.987-4 6.987 2.455 6.987-2.455-6.987-2.455z"/><path d="m24.5 10h1.5v5.25h-1.5z"/><path d="m13.942 25.317-7.44-2.609c-.301-.105-.502-.39-.502-.708v-12h1.5v11.468l6.938 2.434z"/><path d="m15.25 13.25h1.5v10.5h-1.5z"/><path d="m18.25 30c-.197 0-.388-.077-.53-.22-.177-.178-.254-.432-.205-.678l.67-3.351c.029-.145.1-.278.205-.383l7.372-7.372c.662-.662 1.739-.662 2.401 0l1.34 1.341c.661.662.661 1.738 0 2.4l-7.373 7.372c-.104.104-.238.176-.383.205l-3.351.67c-.048.011-.097.016-.146.016zm1.361-3.73-.405 2.024 2.025-.404 7.211-7.212c.077-.077.077-.202 0-.279l-1.34-1.341c-.066-.066-.213-.066-.28 0z"/></svg>