<svg id="_x31__x2C_5" enable-background="new 0 0 36 36" height="512" viewBox="0 0 36 36" width="512" xmlns="http://www.w3.org/2000/svg"><path d="m31.833 27.623c0-6.917 3.583-11.667 3.583-15s-1.916-10.333-17.249-10.333-17.584 9.417-17.584 13.083c0 17.167 31.25 24.5 31.25 12.25z" fill="#efefef"/><path d="m30.145 20.75c-.827 0-1.5-.673-1.5-1.5s.673-1.5 1.5-1.5 1.5.673 1.5 1.5-.673 1.5-1.5 1.5zm0-2c-.275 0-.5.224-.5.5s.225.5.5.5.5-.224.5-.5-.225-.5-.5-.5z" fill="#a4afc1"/><path d="m25.25 13-7.25 2.25-7.25-2.25 7.25-2.25z" fill="#2fdf84"/><path d="m25.25 13v10l-7.25 2.25v-10z" fill="#f3f3f1"/><path d="m18 15.25v10l-7.25-2.25v-10z" fill="#f3f3f1"/><path d="m13 13 6.125-1.901-1.125-.349-7.25 2.25 7.25 2.25 1.125-.349z" fill="#00b871"/><path d="m20.25 15.25 5-1.552v-.698l-7.25 2.25v10l2.25-.698z" fill="#d5dbe1"/><path d="m13 23v-9.302l-2.25-.698v10l7.25 2.25v-.698z" fill="#d5dbe1"/><path d="m25.565 22.518h1.5v7.594h-1.5z" transform="matrix(.707 -.707 .707 .707 -10.9 26.315)"/><path d="m8.94 5.886h1.5v7.608h-1.5z" transform="matrix(.707 -.707 .707 .707 -4.014 9.69)"/><path d="m22.514 8.94h7.601v1.501h-7.601z" transform="matrix(.706 -.708 .708 .706 .872 21.481)"/><path d="m5.889 25.565h7.601v1.501h-7.601z" transform="matrix(.707 -.707 .707 .707 -15.764 14.548)"/><path d="m11 30h-4.25c-.414 0-.75-.336-.75-.75v-4.25h1.5v3.5h3.5z"/><path d="m7.5 11h-1.5v-4.25c0-.414.336-.75.75-.75h4.25v1.5h-3.5z"/><path d="m29.25 30h-4.25v-1.5h3.5v-3.5h1.5v4.25c0 .414-.336.75-.75.75z"/><path d="m30 11h-1.5v-3.5h-3.5v-1.5h4.25c.414 0 .75.336.75.75z"/><path d="m18 16c-.075 0-.15-.011-.223-.034l-7.25-2.25c-.313-.097-.527-.387-.527-.716s.214-.619.527-.716l7.25-2.25c.145-.045.301-.045.445 0l7.25 2.25c.314.097.528.387.528.716s-.214.619-.527.716l-7.25 2.25c-.073.023-.148.034-.223.034zm-4.72-3 4.72 1.465 4.72-1.465-4.72-1.465z"/><path d="m18 26c-.075 0-.15-.011-.223-.034l-7.25-2.25c-.313-.097-.527-.387-.527-.716v-10h1.5v9.447l6.5 2.018 6.5-2.018v-9.447h1.5v10c0 .329-.214.619-.527.716l-7.25 2.25c-.073.023-.148.034-.223.034z"/><path d="m17.25 15.25h1.5v10h-1.5z"/></svg>