<svg id="_x31__x2C_5" enable-background="new 0 0 36 36" height="512" viewBox="0 0 36 36" width="512" xmlns="http://www.w3.org/2000/svg"><path d="m27.623 4.167c-6.917 0-11.667-3.583-15-3.583s-10.333 1.916-10.333 17.249 9.417 17.583 13.083 17.583c17.167.001 24.5-31.249 12.25-31.249z" fill="#efefef"/><path d="m34 22.315h2v1h-2z" fill="#a4afc1"/><path d="m32 18.815h1v2h-1z" fill="#a4afc1"/><path d="m32 24.565h1v2h-1z" fill="#a4afc1"/><path d="m29.25 20.5-11.25 4.75-11.25-4.75 11.25-4.76z" fill="#2fdf84"/><path d="m9 20.5 10.125-4.284-1.125-.476-11.25 4.76 11.25 4.75 1.125-.475z" fill="#00b871"/><path d="m29.25 20.5v4l-11.25 4.75v-4z" fill="#f3f3f1"/><path d="m18 25.25v4l-11.25-4.75v-4z" fill="#f3f3f1"/><path d="m12.75 12 5.25-5.25 5.25 5.25h-3.5v6.75c0 .276-.224.5-.5.5h-2.5c-.276 0-.5-.224-.5-.5v-6.75z" fill="#f3f3f1"/><g fill="#d5dbe1"><path d="m20.25 25.25 9-3.8v-.95l-11.25 4.75v4l2.25-.95z"/><path d="m9 24.5v-3.05l-2.25-.95v4l11.25 4.75v-.95z"/><path d="m18 6.75-5.25 5.25h2.25l4.125-4.125z"/><path d="m18.5 18.75v-6.75h-2.25v6.75c0 .276.224.5.5.5h2.25c-.276 0-.5-.224-.5-.5z"/></g><path d="m18 26c-.099 0-.198-.02-.292-.059l-11.25-4.75c-.277-.117-.458-.389-.458-.691 0-.301.181-.574.458-.691l6.25-2.64.584 1.382-4.614 1.949 9.322 3.936 9.322-3.936-4.614-1.949.584-1.382 6.25 2.64c.277.117.458.39.458.691 0 .302-.181.574-.458.691l-11.25 4.75c-.094.039-.193.059-.292.059z"/><path d="m18 30c-.099 0-.198-.02-.292-.059l-11.25-4.75c-.277-.117-.458-.39-.458-.691v-4h1.5v3.502l10.5 4.434 10.5-4.434v-3.502h1.5v4c0 .301-.181.574-.458.691l-11.25 4.75c-.094.039-.193.059-.292.059z"/><path d="m17.25 25.25h1.5v4h-1.5z"/><path d="m19.25 20h-2.5c-.689 0-1.25-.561-1.25-1.25v-6h-2.75c-.303 0-.577-.183-.693-.463s-.052-.603.163-.817l5.25-5.25c.293-.293.768-.293 1.061 0l5.25 5.25c.214.214.279.537.163.817s-.39.463-.693.463h-2.751v6c0 .689-.561 1.25-1.25 1.25zm-2.25-1.5h2v-6.5c0-.414.336-.75.75-.75h1.689l-3.439-3.439-3.439 3.439h1.689c.414 0 .75.336.75.75z"/></svg>