<svg id="_x31__x2C_5" enable-background="new 0 0 36 36" height="512" viewBox="0 0 36 36" width="512" xmlns="http://www.w3.org/2000/svg"><path d="m31.833 8.377c0 6.917 3.583 11.667 3.583 15s-1.916 10.333-17.249 10.333-17.584-9.417-17.584-13.083c0-17.167 31.25-24.5 31.25-12.25z" fill="#efefef"/><path d="m29.247 18.805c-.332 0-.652-.109-.918-.316-.316-.246-.518-.601-.567-.998-.05-.397.059-.79.304-1.106.246-.316.601-.518.998-.567.395-.049.791.059 1.107.305s.518.601.567.998c.05.397-.059.79-.304 1.106-.246.316-.601.518-.998.567-.063.007-.126.011-.189.011zm.003-2c-.021 0-.041.001-.062.004-.273.034-.468.284-.434.559.035.272.28.472.558.434.273-.034.468-.284.434-.559-.032-.253-.247-.438-.496-.438z" fill="#a4afc1"/><g fill="#f3f3f1"><path d="m25.25 10-9.25 3.25-9.25-3.25 9.25-3.24z"/><path d="m25.25 10v12l-9.25 3.25v-12z"/><path d="m16 13.25v12l-9.25-3.25v-12z"/></g><path d="m23.5 26.831-3.554 2.419 1.09-4.301-3.286-2.806 4.227-.24 1.523-4.153 1.523 4.153 4.227.24-3.286 2.806 1.09 4.301z" fill="#2fdf84"/><path d="m18.25 13.25 7-2.459v-.791l-9.25 3.25v12l2.25-.791z" fill="#d5dbe1"/><path d="m9 22v-11.209l-2.25-.791v12l9.25 3.25v-.791z" fill="#d5dbe1"/><path d="m22.665 27.4.621-2.451-3.286-2.806 4.227-.24.398-1.085-1.125-3.068-1.523 4.153-4.227.24 3.286 2.806-1.09 4.301z" fill="#00b871"/><path d="m25.75 26.831-1.125.766 2.429 1.653-.469-1.85z" fill="#00b871"/><path d="m16 14c-.084 0-.168-.014-.249-.042l-9.25-3.25c-.3-.105-.501-.39-.501-.708s.201-.603.501-.708l9.25-3.25c.161-.057.336-.057.497 0l9.25 3.25c.301.105.502.39.502.708s-.201.603-.501.708l-9.25 3.25c-.081.028-.165.042-.249.042zm-6.987-4 6.987 2.455 6.987-2.455-6.987-2.455z"/><path d="m24.5 10h1.5v4.25h-1.5z"/><path d="m15.751 25.958-9.25-3.25c-.3-.105-.501-.39-.501-.708v-12h1.5v11.469l8.749 3.073z"/><path d="m15.25 13.25h1.5v5h-1.5z"/><path d="m27.054 30c-.147 0-.294-.043-.422-.13l-3.132-2.132-3.132 2.132c-.257.176-.596.174-.852-.006-.255-.179-.374-.496-.297-.799l.975-3.849-2.932-2.504c-.233-.199-.321-.52-.223-.81.098-.291.362-.492.668-.51l3.735-.211 1.354-3.69c.108-.295.39-.491.704-.491s.596.196.704.492l1.354 3.69 3.735.211c.306.018.57.219.668.51.098.29.01.61-.223.81l-2.932 2.504.975 3.849c.077.303-.042.62-.297.799-.13.09-.28.135-.43.135zm-3.554-3.919c.147 0 .295.043.422.13l1.919 1.307-.604-2.384c-.07-.277.023-.569.24-.755l1.865-1.593-2.362-.134c-.299-.018-.559-.21-.662-.491l-.818-2.232-.819 2.232c-.103.281-.363.474-.662.491l-2.362.134 1.865 1.593c.217.186.31.478.24.755l-.604 2.384 1.919-1.307c.128-.087.276-.13.423-.13z"/></svg>