<svg id="_x31__x2C_5" enable-background="new 0 0 36 36" height="512" viewBox="0 0 36 36" width="512" xmlns="http://www.w3.org/2000/svg"><path d="m4.167 27.623c0-6.917-3.583-11.667-3.583-15s1.916-10.333 17.249-10.333 17.583 9.417 17.583 13.083c.001 17.167-31.249 24.5-31.249 12.25z" fill="#efefef"/><g fill="#a4afc1"><path d="m5.888 5.342h2v1h-2z" transform="matrix(.707 -.707 .707 .707 -2.113 6.582)"/><path d="m1.822 9.408h2v1h-2z" transform="matrix(.707 -.707 .707 .707 -6.18 4.898)"/><path d="m2.499 4.842h1v2h-1z" transform="matrix(.707 -.707 .707 .707 -3.252 3.832)"/></g><path d="m25.25 10-9.25 3.25-9.25-3.25 9.25-3.24z" fill="#f3f3f1"/><path d="m25.25 10v12l-9.25 3.25v-12z" fill="#f3f3f1"/><path d="m16 13.25v12l-9.25-3.25v-12z" fill="#f3f3f1"/><path d="m18.25 13.25 7-2.459v-.791l-9.25 3.25v12l2.25-.791z" fill="#d5dbe1"/><path d="m9 22v-11.209l-2.25-.791v12l9.25 3.25v-.791z" fill="#d5dbe1"/><path d="m16 14c-.084 0-.168-.014-.249-.042l-9.25-3.25c-.3-.105-.501-.39-.501-.708s.201-.603.501-.708l9.25-3.25c.161-.057.336-.057.497 0l9.25 3.25c.301.105.502.39.502.708s-.201.603-.501.708l-9.25 3.25c-.081.028-.165.042-.249.042zm-6.987-4 6.987 2.455 6.987-2.455-6.987-2.455z"/><path d="m24.5 10h1.5v5.25h-1.5z"/><path d="m15.582 25.898-9.08-3.19c-.301-.105-.502-.39-.502-.708v-12h1.5v11.469l8.579 3.014z"/><path d="m15.25 13.25h1.5v6h-1.5z"/><path d="m23 28c-2.757 0-5-2.243-5-5s2.243-5 5-5 5 2.243 5 5-2.243 5-5 5zm0-8.5c-1.93 0-3.5 1.57-3.5 3.5s1.57 3.5 3.5 3.5 3.5-1.57 3.5-3.5-1.57-3.5-3.5-3.5z"/><path d="m26.966 25.546h1.5v4.339h-1.5z" transform="matrix(.707 -.707 .707 .707 -11.48 27.713)"/></svg>