<svg id="_x31__x2C_5" enable-background="new 0 0 36 36" height="512" viewBox="0 0 36 36" width="512" xmlns="http://www.w3.org/2000/svg"><path d="m31.833 27.623c0-6.917 3.583-11.667 3.583-15s-1.916-10.333-17.249-10.333-17.584 9.417-17.584 13.083c0 17.167 31.25 24.5 31.25 12.25z" fill="#efefef"/><path d="m5.078 8.611c-.827 0-1.5-.673-1.5-1.5s.673-1.5 1.5-1.5 1.5.673 1.5 1.5-.673 1.5-1.5 1.5zm0-2c-.275 0-.5.224-.5.5s.225.5.5.5.5-.224.5-.5-.224-.5-.5-.5z" fill="#a4afc1"/><path d="m24.25 15.07c0 2.12-.79 4.06-2.1 5.53-1.15 1.3-1.78 2.99-1.78 4.74h-8.74c0-1.75-.63-3.44-1.78-4.74-1.31-1.47-2.1-3.41-2.1-5.53 0-4.6 3.69-8.32 8.25-8.32s8.25 3.72 8.25 8.32z" fill="#f3f3f1"/><path d="m20.37 25.34v1.91c0 1.1-.9 2-2 2h-4.74c-1.1 0-2-.9-2-2v-1.91z" fill="#f3f3f1"/><g fill="#2fdf84"><path d="m28.25 8.5-5.25 1.75-5.25-1.75 5.25-1.75z"/><path d="m28.25 8.5v7l-5.25 1.75v-7z"/><path d="m23 10.25v7l-5.25-1.75v-7z"/></g><path d="m20.37 25.34v1.91c0 1.1-.9 2-2 2h-4.74c-1.1 0-2-.9-2-2v-1.91z" fill="#d5dbe1"/><path d="m10 15.07c0-4.214 3.1-7.68 7.125-8.234-.369-.051-.742-.086-1.125-.086-4.56 0-8.25 3.72-8.25 8.32 0 2.12.79 4.06 2.1 5.53 1.15 1.3 1.78 2.99 1.78 4.74h2.25c0-1.75-.63-3.44-1.78-4.74-1.31-1.47-2.1-3.41-2.1-5.53z" fill="#d5dbe1"/><path d="m22.62 25.34v1.91c0 1.1-.9 2-2 2h-4.74c-1.1 0-2-.9-2-2v-1.91z" fill="#d5dbe1"/><path d="m25.25 10.25 3-1v-.75l-5.25 1.75v7l2.25-.75z" fill="#00b871"/><path d="m20 15.5v-6.25l-2.25-.75v7l5.25 1.75v-.75z" fill="#00b871"/><path d="m18.25 30h-4.5c-1.517 0-2.75-1.233-2.75-2.75v-1.5c0-.414.336-.75.75-.75h8.5c.414 0 .75.336.75.75v1.5c0 1.517-1.233 2.75-2.75 2.75zm-5.75-3.5v.75c0 .689.561 1.25 1.25 1.25h4.5c.689 0 1.25-.561 1.25-1.25v-.75z"/><path d="m11 25.75c0-1.796-.655-3.486-1.894-4.957-1.359-1.632-2.106-3.688-2.106-5.793 0-4.542 3.396-8.382 7.899-8.935l.182 1.489c-3.752.46-6.581 3.661-6.581 7.446 0 1.755.624 3.47 1.756 4.83 1.446 1.717 2.244 3.795 2.244 5.85z"/><path d="m19.5 25.75v-.06c0-2.037.746-4.03 2.159-5.764l1.162.947c-1.191 1.463-1.821 3.129-1.821 4.817z"/><path d="m23 11c-.08 0-.16-.013-.237-.039l-5.25-1.75c-.306-.102-.513-.388-.513-.711s.207-.609.513-.711l5.25-1.75c.154-.052.32-.052.475 0l5.25 1.75c.305.102.512.388.512.711s-.207.609-.513.711l-5.25 1.75c-.077.026-.157.039-.237.039zm-2.878-2.5 2.878.959 2.878-.959-2.878-.959z"/><path d="m23 18c-.08 0-.16-.013-.237-.039l-5.25-1.75c-.306-.102-.513-.388-.513-.711v-7h1.5v6.459l4.5 1.5 4.5-1.5v-6.459h1.5v7c0 .323-.207.609-.513.711l-5.25 1.75c-.077.026-.157.039-.237.039z"/><path d="m22.25 10.25h1.5v7h-1.5z"/></svg>