<svg id="_x31__x2C_5" height="512" viewBox="0 0 36 36" width="512" xmlns="http://www.w3.org/2000/svg"><path d="m34.904 20.355c-3.782-5.791-3.38-11.727-5.203-14.518s-7.256-7.603-20.093.782-9.572 17.5-7.566 20.569c9.388 14.372 39.561 3.423 32.862-6.833z" fill="#efefef"/><g fill="#a4afc1"><path d="m32.326 6.106h1v2h-1z" transform="matrix(.707 -.707 .707 .707 4.59 25.293)"/><path d="m28.261 2.04h1v2h-1z" transform="matrix(.707 -.707 .707 .707 6.274 21.227)"/><path d="m32.003 2.54h2v1h-2z" transform="matrix(.707 -.707 .707 .707 7.517 24.227)"/></g><circle cx="23.5" cy="23.625" fill="#2fdf84" r="5.75"/><path d="m15 6.5h-6.75l-1.5 2v1h2.5v18.5c0 .552.448 1 1 1h2.5c.552 0 1-.448 1-1v-18.5h7z" fill="#f3f3f1"/><path d="m14 15.5h6.25l-3.75 2.5h-2.5z" fill="#f3f3f1"/><path d="m9.25 15.5h-1.5c-.552 0-1 .448-1 1v.5c0 .552.448 1 1 1h1.5z" fill="#f3f3f1"/><circle cx="18.5" cy="12.25" fill="#2fdf84" r="2.75"/><path d="m20 23.625c0-2.79 1.988-5.115 4.625-5.638-.364-.072-.74-.112-1.125-.112-3.176 0-5.75 2.574-5.75 5.75s2.574 5.75 5.75 5.75c.385 0 .761-.039 1.125-.112-2.637-.523-4.625-2.848-4.625-5.638z" fill="#00b871"/><path d="m11.5 28v-18.5h-2.25v18.5c0 .552.448 1 1 1h2.25c-.552 0-1-.448-1-1z" fill="#d5dbe1"/><path d="m14 15.5h2.25v2.5h-2.25z" fill="#d5dbe1"/><path d="m9 17v-.5c0-.249.1-.469.25-.643v-.357h-1.5c-.552 0-1 .448-1 1v.5c0 .552.448 1 1 1h1.5v-.357c-.15-.174-.25-.395-.25-.643z" fill="#d5dbe1"/><path d="m18 12.25c0-1.117.669-2.074 1.625-2.504-.344-.155-.723-.246-1.125-.246-1.519 0-2.75 1.231-2.75 2.75s1.231 2.75 2.75 2.75c.402 0 .781-.091 1.125-.246-.956-.43-1.625-1.387-1.625-2.504z" fill="#00b871"/><path d="m23.5 30.125c-3.584 0-6.5-2.916-6.5-6.5s2.916-6.5 6.5-6.5 6.5 2.916 6.5 6.5-2.916 6.5-6.5 6.5zm0-11.5c-2.757 0-5 2.243-5 5s2.243 5 5 5 5-2.243 5-5-2.243-5-5-5z"/><path d="m22.75 22.625h1.5v4.5h-1.5z"/><circle cx="23.5" cy="20.875" r=".75"/><path d="m11.5 29.875c-1.654 0-3-1.346-3-3v-16.5h-1.75c-.414 0-.75-.336-.75-.75v-1c0-.162.053-.32.15-.45l1.5-2c.142-.188.363-.3.6-.3h6.75c.121 0 .24.029.347.085l5.75 3c.307.16.464.508.382.844s-.383.571-.729.571h-6.25v16.5c0 1.654-1.346 3-3 3zm-4-21h1.75c.414 0 .75.336.75.75v17.25c0 .827.673 1.5 1.5 1.5s1.5-.673 1.5-1.5v-17.25c0-.414.336-.75.75-.75h3.941l-2.875-1.5h-6.191z"/><path d="m16.5 18.875h-2.5c-.414 0-.75-.336-.75-.75s.336-.75.75-.75h2.272l1.5-1h-3.772c-.414 0-.75-.336-.75-.75s.336-.75.75-.75h6.25c.33 0 .622.216.718.533s-.026.658-.302.841l-3.75 2.5c-.123.082-.268.126-.416.126z"/><path d="m9.25 18.875h-1.5c-.965 0-1.75-.785-1.75-1.75v-.5c0-.965.785-1.75 1.75-1.75h1.5c.414 0 .75.336.75.75s-.336.75-.75.75h-1.5c-.138 0-.25.112-.25.25v.5c0 .138.112.25.25.25h1.5c.414 0 .75.336.75.75s-.336.75-.75.75z"/><path d="m18.5 15.875c-1.93 0-3.5-1.57-3.5-3.5s1.57-3.5 3.5-3.5 3.5 1.57 3.5 3.5-1.57 3.5-3.5 3.5zm0-5.5c-1.103 0-2 .897-2 2s.897 2 2 2 2-.897 2-2-.897-2-2-2z"/><circle cx="18.5" cy="12.375" r="1"/><path d="m12 22.875h2.25v1.5h-2.25z"/><path d="m12 19.875h2.25v1.5h-2.25z"/><path d="m12 16.875h2.25v1.5h-2.25z"/><path d="m12 13.875h2.25v1.5h-2.25z"/><path d="m12 10.875h2.25v1.5h-2.25z"/></svg>