<svg id="_x31__x2C_5" enable-background="new 0 0 36 36" height="512" viewBox="0 0 36 36" width="512" xmlns="http://www.w3.org/2000/svg"><path d="m31.833 8.377c0 6.917 3.583 11.667 3.583 15s-1.916 10.333-17.249 10.333-17.584-9.417-17.584-13.083c0-17.167 31.25-24.5 31.25-12.25z" fill="#efefef"/><g fill="#a4afc1"><path d="m14.125 3.25h2v1h-2z"/><path d="m19.875 3.25h2v1h-2z"/><path d="m17.375 0h1v2h-1z"/></g><path d="m29.25 11.5-11.25 4.75-11.25-4.75 11.25-4.75z" fill="#2fdf84"/><path d="m29.25 11.5v13l-11.25 4.75v-13z" fill="#f3f3f1"/><path d="m18 16.25v13l-11.25-4.75v-13z" fill="#f3f3f1"/><path d="m20.25 16.25 9-3.8v-.95l-11.25 4.75v13l2.25-.95z" fill="#d5dbe1"/><path d="m9 24.5v-12.05l-2.25-.95v13l11.25 4.75v-.95z" fill="#d5dbe1"/><path d="m18 17c-.1 0-.198-.02-.292-.059l-11.25-4.75c-.277-.117-.458-.39-.458-.691s.181-.574.458-.691l11.25-4.75c.188-.079.396-.079.584 0l11.25 4.75c.277.117.458.39.458.691s-.181.574-.458.691l-11.25 4.75c-.094.039-.192.059-.292.059zm-9.322-5.5 9.322 3.936 9.322-3.936-9.322-3.936z"/><path d="m18 30c-.1 0-.198-.02-.292-.059l-11.25-4.75c-.277-.117-.458-.39-.458-.691v-13h1.5v12.502l10.5 4.434 10.5-4.434v-12.502h1.5v13c0 .301-.181.574-.458.691l-11.25 4.75c-.094.039-.192.059-.292.059z"/><path d="m17.25 6.5h1.5v2h-1.5z"/><path d="m18.75 14.5h-1.5v-2.5h1.5zm0-3h-1.5v-2.5h1.5z"/><path d="m17.25 15h1.5v2h-1.5z"/><path d="m17.25 16.25h1.5v13h-1.5z"/><path d="m27.207 22.704h1.5v2.5h-1.5z" transform="matrix(.389 -.922 .922 .389 -4.976 40.41)"/><path d="m22.46 20.036h1.5v3.827h-1.5z" transform="matrix(.389 -.921 .921 .389 -6.041 34.788)"/><path d="m19.319 21.122-1.319-.558-1.319.558-.584-1.382 1.611-.681c.188-.079.396-.079.584 0l1.611.681z"/><path d="m10.916 21.186h3.811v1.5h-3.811z" transform="matrix(.921 -.389 .389 .921 -7.517 6.707)"/><path d="m6.854 23.178h2.499v1.5h-2.499z" transform="matrix(.921 -.389 .389 .921 -8.664 5.032)"/></svg>