<svg id="_x31__x2C_5" enable-background="new 0 0 36 36" height="512" viewBox="0 0 36 36" width="512" xmlns="http://www.w3.org/2000/svg"><path d="m4.167 8.377c0 6.917-3.583 11.667-3.583 15s1.916 10.333 17.249 10.333 17.583-9.417 17.583-13.083c.001-17.167-31.249-24.5-31.249-12.25z" fill="#efefef"/><g fill="#a4afc1"><path d="m19.875 5.125h2v1h-2z"/><path d="m14.125 5.125h2v1h-2z"/><path d="m17.625 1.875h1v2h-1z"/></g><path d="m27.25 15.75v11.5h-18.5v-11.5c0-.55.45-1 1-1h16.5c.55 0 1 .45 1 1z" fill="#f3f3f1"/><path d="m23.25 10.5-5.25 1.75-5.25-1.75 5.25-1.75z" fill="#2fdf84"/><path d="m23.25 10.5v7l-5.25 1.75v-7z" fill="#2fdf84"/><path d="m18 12.25v7l-5.25-1.75v-7z" fill="#2fdf84"/><path d="m12 14.75h-2.25c-.55 0-1 .45-1 1v11.5h2.25v-11.5c0-.55.45-1 1-1z" fill="#d5dbe1"/><path d="m20.25 12.25 3-1v-.75l-5.25 1.75v7l2.25-.75z" fill="#00b871"/><path d="m15 17.5v-6.25l-2.25-.75v7l5.25 1.75v-.75z" fill="#00b871"/><path d="m6 26.5h24v1.5h-24z"/><path d="m28 27.25h-1.5v-11.5c0-.138-.112-.25-.25-.25v-1.5c.965 0 1.75.785 1.75 1.75z"/><path d="m9.5 27.25h-1.5v-11.5c0-.965.785-1.75 1.75-1.75v1.5c-.138 0-.25.112-.25.25z"/><path d="m18 13c-.08 0-.16-.013-.237-.039l-5.25-1.75c-.306-.102-.513-.388-.513-.711s.207-.609.513-.711l5.25-1.75c.154-.052.32-.052.475 0l5.25 1.75c.305.102.512.388.512.711s-.207.609-.513.711l-5.25 1.75c-.077.026-.157.039-.237.039zm-2.878-2.5 2.878.959 2.878-.959-2.878-.959z"/><path d="m18 20c-.08 0-.16-.013-.237-.038l-5.25-1.75c-.306-.103-.513-.389-.513-.712v-7h1.5v6.459l4.5 1.5 4.5-1.5v-6.459h1.5v7c0 .323-.207.609-.513.711l-5.25 1.75c-.077.026-.157.039-.237.039z"/><path d="m17.25 12.25h1.5v7h-1.5z"/></svg>