<svg id="_x31__x2C_5" height="512" viewBox="0 0 36 36" width="512" xmlns="http://www.w3.org/2000/svg"><path d="m31.833 27.623c0-6.917 3.583-11.667 3.583-15s-1.916-10.333-17.249-10.333-17.584 9.417-17.584 13.083c0 17.167 31.25 24.5 31.25 12.25z" fill="#efefef"/><path d="m4.375 2.25h1v2h-1z" fill="#a4afc1"/><path d="m1.125 5.25h2v1h-2z" fill="#a4afc1"/><path d="m6.75 14.75h5.75v9.5h-5.75z" fill="#2fdf84"/><path d="m29.25 24.25h-22.5v3c0 1.105.895 2 2 2h17.5l3-2z" fill="#f3f3f1"/><path d="m21.25 14h4v2.75h-4z" fill="#2fdf84"/><path d="m22 16.75h2.5v2.25h-2.5z" fill="#f3f3f1" transform="matrix(-1 0 0 -1 46.5 35.75)"/><path d="m14.5 8.75h5.5v4h-5.5z" fill="#2fdf84"/><path d="m26.25 13.75h-6v-5c0-.552.448-1 1-1h4c.552 0 1 .448 1 1z" fill="#f3f3f1"/><path d="m14.5 13.75v-6c0-.552-.448-1-1-1h-3.75l-3 3v5h6.75c.552 0 1-.448 1-1z" fill="#f3f3f1"/><g fill="#d5dbe1"><path d="m9 27.25v-3h-2.25v3c0 1.105.895 2 2 2h2.25c-1.105 0-2-.895-2-2z"/><path d="m22 16.75h2.25v2.25h-2.25z"/><path d="m23.5 7.75h-2.25c-.552 0-1 .448-1 1v5h2.25v-5c0-.552.448-1 1-1z"/><path d="m12 6.75h-2.25l-3 3v5h2.25v-5z"/></g><path d="m6.75 14.75h2.25v9.5h-2.25z" fill="#00b871"/><path d="m21.25 14h2.25v2.75h-2.25z" fill="#00b871"/><path d="m14.5 8.75h2.25v4h-2.25z" fill="#00b871"/><path d="m22.5 18.25h1.5v3h-1.5z"/><path d="m12.5 25h-5.75c-.414 0-.75-.336-.75-.75v-9.5c0-.414.336-.75.75-.75h5.75c.414 0 .75.336.75.75v9.5c0 .414-.336.75-.75.75zm-5-1.5h4.25v-8h-4.25z"/><path d="m26.25 30h-17.5c-1.517 0-2.75-1.233-2.75-2.75v-3c0-.414.336-.75.75-.75h22.5c.414 0 .75.336.75.75v3c0 .251-.125.485-.334.624l-3 2c-.123.082-.268.126-.416.126zm-18.75-5v2.25c0 .689.561 1.25 1.25 1.25h17.273l2.477-1.651v-1.849z"/><path d="m25.25 17.5h-4c-.414 0-.75-.336-.75-.75v-2.75h1.5v2h2.5v-2h1.5v2.75c0 .414-.336.75-.75.75z"/><path d="m24.5 19.75h-2.5c-.414 0-.75-.336-.75-.75v-2.25c0-.414.336-.75.75-.75h2.5c.414 0 .75.336.75.75v2.25c0 .414-.336.75-.75.75zm-1.75-1.5h1v-.75h-1z"/><path d="m14.5 12h5.5v1.5h-5.5z"/><path d="m14.5 8h5.5v1.5h-5.5z"/><path d="m26.25 14.5h-6c-.414 0-.75-.336-.75-.75v-5c0-.965.785-1.75 1.75-1.75h4c.965 0 1.75.785 1.75 1.75v5c0 .414-.336.75-.75.75zm-5.25-1.5h4.5v-4.25c0-.138-.112-.25-.25-.25h-4c-.138 0-.25.112-.25.25z"/><path d="m13.5 15.5h-6.75c-.414 0-.75-.336-.75-.75v-5c0-.199.079-.39.22-.53l3-3c.14-.141.331-.22.53-.22h3.75c.965 0 1.75.785 1.75 1.75v6c0 .965-.785 1.75-1.75 1.75zm-6-1.5h6c.138 0 .25-.112.25-.25v-6c0-.138-.112-.25-.25-.25h-3.439l-2.561 2.561z"/><circle cx="9.5" cy="17.5" r="1"/><circle cx="9.5" cy="21.5" r="1"/></svg>