<svg id="_x31__x2C_5" enable-background="new 0 0 36 36" height="512" viewBox="0 0 36 36" width="512" xmlns="http://www.w3.org/2000/svg"><path d="m8.377 31.833c6.917 0 11.667 3.583 15 3.583s10.333-1.916 10.333-17.249-9.417-17.584-13.083-17.584c-17.167 0-24.5 31.25-12.25 31.25z" fill="#efefef"/><g fill="#a4afc1"><path d="m7.274 2.643h2v1h-2z" transform="matrix(.707 -.707 .707 .707 .201 6.771)"/><path d="m3.209 6.709h2v1h-2z" transform="matrix(.707 -.707 .707 .707 -3.865 5.087)"/><path d="m3.885 2.143h1v2h-1z" transform="matrix(.707 -.707 .707 .707 -.938 4.021)"/></g><path d="m27.25 10.75v18.5h-17.5c-1.1 0-2-.9-2-2v-18.5c0 .55.23 1.05.59 1.41s.86.59 1.41.59z" fill="#f3f3f1"/><path d="m25.25 6.75v4h-15.5c-.55 0-1.05-.23-1.41-.59s-.59-.86-.59-1.41c0-1.1.9-2 2-2z" fill="#f3f3f1"/><path d="m23.25 16.5-5.25 1.75-5.25-1.75 5.25-1.75z" fill="#2fdf84"/><path d="m23.25 16.5v7l-5.25 1.75v-7z" fill="#2fdf84"/><path d="m18 18.25v7l-5.25-1.75v-7z" fill="#2fdf84"/><path d="m10 27.25v-16.5h-.25c-.55 0-1.05-.23-1.41-.59s-.59-.86-.59-1.41v18.5c0 1.1.9 2 2 2h2.25c-1.1 0-2-.9-2-2z" fill="#d5dbe1"/><path d="m10 8.75c0-1.1.9-2 2-2h-2.25c-1.1 0-2 .9-2 2 0 .55.23 1.05.59 1.41s.86.59 1.41.59h2.25c-.55 0-1.05-.23-1.41-.59s-.59-.86-.59-1.41z" fill="#d5dbe1"/><path d="m20.25 18.25 3-1v-.75l-5.25 1.75v7l2.25-.75z" fill="#00b871"/><path d="m15 23.5v-6.25l-2.25-.75v7l5.25 1.75v-.75z" fill="#00b871"/><path d="m27.25 30h-17.5c-1.517 0-2.75-1.233-2.75-2.75v-18.5c0-1.517 1.233-2.75 2.75-2.75h15.5c.414 0 .75.336.75.75v3.25h1.25c.414 0 .75.336.75.75v18.5c0 .414-.336.75-.75.75zm-18.75-18.801v16.051c0 .689.561 1.25 1.25 1.25h16.75v-17h-16.75c-.45 0-.875-.108-1.25-.301zm1.25-3.699c-.689 0-1.25.561-1.25 1.25s.561 1.25 1.25 1.25h14.75v-2.5z"/><path d="m18 19c-.08 0-.16-.013-.237-.039l-5.25-1.75c-.306-.102-.513-.388-.513-.711s.207-.609.513-.711l5.25-1.75c.154-.052.32-.052.475 0l5.25 1.75c.305.102.512.388.512.711s-.207.609-.513.711l-5.25 1.75c-.077.026-.157.039-.237.039zm-2.878-2.5 2.878.959 2.878-.959-2.878-.959z"/><path d="m18 26c-.08 0-.16-.013-.237-.039l-5.25-1.75c-.306-.102-.513-.388-.513-.711v-7h1.5v6.459l4.5 1.5 4.5-1.5v-6.459h1.5v7c0 .323-.207.609-.513.711l-5.25 1.75c-.077.026-.157.039-.237.039z"/><path d="m17.25 18.25h1.5v7h-1.5z"/></svg>