<svg id="_x31__x2C_5" height="512" viewBox="0 0 36 36" width="512" xmlns="http://www.w3.org/2000/svg"><path d="m34.904 20.355c-3.782-5.791-3.38-11.727-5.203-14.518s-7.256-7.603-20.093.782-9.572 17.5-7.566 20.569c9.388 14.372 39.561 3.423 32.862-6.833z" fill="#efefef"/><g fill="#a4afc1"><path d="m7.816 2.803h2v1h-2z" transform="matrix(.707 -.707 .707 .707 .246 7.201)"/><path d="m3.75 6.869h2v1h-2z" transform="matrix(.707 -.707 .707 .707 -3.82 5.517)"/><path d="m4.25 2.127h1v2h-1z" transform="matrix(.707 -.707 .707 .707 -.82 4.275)"/></g><path d="m20 7.75h-6.75l-1.5 2v1h2.5v18.5c0 .552.448 1 1 1h2.5c.552 0 1-.448 1-1v-18.5h7z" fill="#f3f3f1"/><path d="m19 16.75h6.25l-3.75 2.5h-2.5z" fill="#f3f3f1"/><path d="m14.25 16.75h-1.5c-.552 0-1 .448-1 1v.5c0 .552.448 1 1 1h1.5z" fill="#f3f3f1"/><circle cx="23.5" cy="13.5" fill="#2fdf84" r="2.75"/><path d="m16.5 29.25v-18.5h-2.25v18.5c0 .552.448 1 1 1h2.25c-.552 0-1-.448-1-1z" fill="#d5dbe1"/><path d="m19 16.75h2.25v2.5h-2.25z" fill="#d5dbe1"/><path d="m14 18.25v-.5c0-.249.1-.469.25-.643v-.357h-1.5c-.552 0-1 .448-1 1v.5c0 .552.448 1 1 1h1.5v-.357c-.15-.174-.25-.395-.25-.643z" fill="#d5dbe1"/><path d="m23 13.5c0-1.117.669-2.074 1.625-2.504-.344-.155-.723-.246-1.125-.246-1.519 0-2.75 1.231-2.75 2.75s1.231 2.75 2.75 2.75c.402 0 .781-.091 1.125-.246-.956-.43-1.625-1.387-1.625-2.504z" fill="#00b871"/><path d="m17.75 31h-2.5c-.965 0-1.75-.785-1.75-1.75v-17.75h-1.75c-.414 0-.75-.336-.75-.75v-1c0-.162.053-.32.15-.45l1.5-2c.142-.188.364-.3.6-.3h6.75c.121 0 .24.029.347.085l5.75 3c.307.16.464.508.382.844-.083.335-.383.571-.729.571h-6.25v17.75c0 .965-.785 1.75-1.75 1.75zm-5.25-21h1.75c.414 0 .75.336.75.75v18.5c0 .138.112.25.25.25h2.5c.138 0 .25-.112.25-.25v-18.5c0-.414.336-.75.75-.75h3.941l-2.875-1.5h-6.191z"/><path d="m21.5 20h-2.5c-.414 0-.75-.336-.75-.75s.336-.75.75-.75h2.273l1.5-1h-3.773c-.414 0-.75-.336-.75-.75s.336-.75.75-.75h6.25c.331 0 .622.216.718.533s-.027.658-.302.841l-3.75 2.5c-.123.082-.268.126-.416.126z"/><path d="m14.25 20h-1.5c-.965 0-1.75-.785-1.75-1.75v-.5c0-.965.785-1.75 1.75-1.75h1.5c.414 0 .75.336.75.75s-.336.75-.75.75h-1.5c-.138 0-.25.112-.25.25v.5c0 .138.112.25.25.25h1.5c.414 0 .75.336.75.75s-.336.75-.75.75z"/><path d="m23.5 17c-1.93 0-3.5-1.57-3.5-3.5s1.57-3.5 3.5-3.5 3.5 1.57 3.5 3.5-1.57 3.5-3.5 3.5zm0-5.5c-1.103 0-2 .897-2 2s.897 2 2 2 2-.897 2-2-.897-2-2-2z"/><circle cx="23.5" cy="13.5" r="1"/><path d="m17 24h2.25v1.5h-2.25z"/><path d="m17 21h2.25v1.5h-2.25z"/><path d="m17 18h2.25v1.5h-2.25z"/><path d="m17 15h2.25v1.5h-2.25z"/><path d="m17 12h2.25v1.5h-2.25z"/></svg>