<svg id="_x31__x2C_5" height="512" viewBox="0 0 36 36" width="512" xmlns="http://www.w3.org/2000/svg"><path d="m8.377 31.833c6.917 0 11.667 3.583 15 3.583s10.333-1.916 10.333-17.249-9.417-17.584-13.083-17.584c-17.167 0-24.5 31.25-12.25 31.25z" fill="#efefef"/><path d="m32.533 6.033h1v2h-1z" fill="#a4afc1" transform="matrix(.707 -.707 .707 .707 4.699 25.413)"/><path d="m28.467 1.967h1v2h-1z" fill="#a4afc1" transform="matrix(.707 -.707 .707 .707 6.383 21.348)"/><path d="m32.033 2.644h2v1h-2z" fill="#a4afc1" transform="matrix(.707 -.707 .707 .707 7.452 24.279)"/><path d="m18.359 9.238 6.265 6.264-2.745 1.498-6.5-6.5z" fill="#f3f3f1"/><path d="m10.25 10.5h2.5v3.75h-2.5z" fill="#f3f3f1" transform="matrix(-1 0 0 -1 23 24.75)"/><path d="m10.5 10.25h6c.966 0 1.75-.784 1.75-1.75 0-.966-.784-1.75-1.75-1.75h-6c-.966 0-1.75.784-1.75 1.75 0 .966.784 1.75 1.75 1.75z" fill="#2fdf84"/><path d="m20.5 29.25h8c0-2.209-1.791-4-4-4-2.209 0-4 1.791-4 4z" fill="#f3f3f1"/><path d="m27.25 26v-7.417c0-1.565-1.231-2.833-2.75-2.833-1.519 0-2.75 1.269-2.75 2.833v7.417z" fill="#2fdf84"/><path d="m9.25 14.25h4.5v2.5h-4.5z" fill="#f3f3f1"/><g fill="#d5dbe1"><path d="m17.629 10.5 1.399-.593-.669-.669-2.98 1.262 6.5 6.5 1.456-.794z"/><path d="m10.25 10.5h2.25v3.75h-2.25z"/><path d="m25.625 25.43c-.359-.106-.732-.18-1.125-.18-2.209 0-4 1.791-4 4h2.25c0-1.816 1.217-3.331 2.875-3.82z"/><path d="m9.25 14.25h2.25v2.5h-2.25z"/></g><path d="m11 8.5c0-.966.784-1.75 1.75-1.75h-2.25c-.966 0-1.75.784-1.75 1.75s.784 1.75 1.75 1.75h2.25c-.966 0-1.75-.784-1.75-1.75z" fill="#00b871"/><path d="m25.625 16.003c-.344-.16-.723-.253-1.125-.253-1.519 0-2.75 1.268-2.75 2.833v7.417h2.25v-7.417c0-1.15.669-2.136 1.625-2.58z" fill="#00b871"/><path d="m17.879 9.154h1.5v9.192h-1.5z" transform="matrix(.707 -.707 .707 .707 -4.266 17.2)"/><path d="m20.741 7.94h1.5v8.86h-1.5z" transform="matrix(.707 -.707 .707 .707 -2.452 18.822)"/><path d="m12.75 15h-2.5c-.414 0-.75-.336-.75-.75v-3.75c0-.414.336-.75.75-.75h2.5c.414 0 .75.336.75.75v3.75c0 .414-.336.75-.75.75zm-1.75-1.5h1v-2.25h-1z"/><path d="m16.5 11h-6c-1.379 0-2.5-1.122-2.5-2.5s1.121-2.5 2.5-2.5h6c1.379 0 2.5 1.122 2.5 2.5s-1.121 2.5-2.5 2.5zm-6-3.5c-.552 0-1 .449-1 1s.448 1 1 1h6c.552 0 1-.449 1-1s-.448-1-1-1z"/><path d="m19.75 28.5h9.5v1.5h-9.5z"/><path d="m28.5 30h-8c-.414 0-.75-.336-.75-.75 0-2.619 2.131-4.75 4.75-4.75s4.75 2.131 4.75 4.75c0 .414-.336.75-.75.75zm-7.163-1.5h6.326c-.34-1.432-1.629-2.5-3.163-2.5s-2.823 1.068-3.163 2.5z"/><path d="m28 26h-1.5v-7.417c0-1.149-.897-2.083-2-2.083s-2 .935-2 2.083v7.417h-1.5v-7.417c0-1.976 1.57-3.583 3.5-3.583s3.5 1.607 3.5 3.583z"/><path d="m13.75 17.5h-4.5c-.414 0-.75-.336-.75-.75v-2.5c0-.414.336-.75.75-.75h4.5c.414 0 .75.336.75.75v2.5c0 .414-.336.75-.75.75zm-3.75-1.5h3v-1h-3z"/><path d="m10.25 22h-1.75c-.257 0-.495-.131-.633-.347l-1.75-2.75c-.15-.237-.156-.538-.015-.781l1.75-3c.134-.23.381-.372.647-.372h1.501v1.5h-1.069l-1.303 2.233 1.284 2.017h1.338z"/><path d="m14.5 22h-1.75v-1.5h1.338l1.284-2.017-1.303-2.233h-1.069v-1.5h1.5c.267 0 .514.142.647.372l1.75 3c.142.243.136.544-.015.781l-1.75 2.75c-.137.216-.375.347-.632.347z"/></svg>