<svg id="_x31__x2C_5" enable-background="new 0 0 36 36" height="512" viewBox="0 0 36 36" width="512" xmlns="http://www.w3.org/2000/svg"><path d="m27.623 4.167c-6.917 0-11.667-3.583-15-3.583s-10.333 1.916-10.333 17.249 9.417 17.583 13.083 17.583c17.167.001 24.5-31.249 12.25-31.249z" fill="#efefef"/><g fill="#a4afc1"><path d="m28.004 2.254h1v2h-1z" transform="matrix(.707 -.707 .707 .707 6.045 21.104)"/><path d="m32.069 6.32h1v2h-1z" transform="matrix(.707 -.707 .707 .707 4.361 25.169)"/><path d="m31.393 2.754h2v1h-2z" transform="matrix(.707 -.707 .707 .707 7.187 23.858)"/></g><path d="m29.25 10.63v10.12c0 .83-.67 1.5-1.5 1.5h-19.5c-.83 0-1.5-.67-1.5-1.5v-10.12l10.32 5.39c.58.3 1.28.3 1.86 0z" fill="#f3f3f1"/><path d="m29.25 9.25v1.38l-10.32 5.39c-.58.3-1.28.3-1.86 0l-10.32-5.39v-1.38c0-.83.67-1.5 1.5-1.5h19.5c.83 0 1.5.67 1.5 1.5z" fill="#f3f3f1"/><path d="m29.25 19.5-5.25 1.75-5.25-1.75 5.25-1.75z" fill="#2fdf84"/><path d="m29.25 19.5v7l-5.25 1.75v-7z" fill="#2fdf84"/><path d="m24 21.25v7l-5.25-1.75v-7z" fill="#2fdf84"/><path d="m19.32 16.02c.58.3 1.28.3 1.86 0l8.07-4.215v-1.175l-10.125 5.288z" fill="#d5dbe1"/><path d="m9 20.75v-8.945l-2.25-1.175v10.12c0 .83.67 1.5 1.5 1.5h2.25c-.83 0-1.5-.67-1.5-1.5z" fill="#d5dbe1"/><path d="m9 10.63v-1.38c0-.83.67-1.5 1.5-1.5h-2.25c-.83 0-1.5.67-1.5 1.5v1.38l10.32 5.39c.58.3 1.28.3 1.86 0l.195-.102z" fill="#d5dbe1"/><path d="m26.25 21.25 3-1v-.75l-5.25 1.75v7l2.25-.75z" fill="#00b871"/><path d="m21 26.5v-6.25l-2.25-.75v7l5.25 1.75v-.75z" fill="#00b871"/><path d="m15.25 23h-7c-1.24 0-2.25-1.01-2.25-2.25v-11.5c0-1.241 1.01-2.25 2.25-2.25h19.5c1.24 0 2.25 1.009 2.25 2.25v7h-1.5v-7c0-.414-.337-.75-.75-.75h-19.5c-.413 0-.75.336-.75.75v11.5c0 .413.337.75.75.75h7z"/><path d="m17.999 16.995c-.438 0-.875-.103-1.273-.309l-10.324-5.392.695-1.329 10.32 5.39c.363.188.802.188 1.167-.002l10.317-5.388.695 1.329-10.32 5.39c-.4.208-.838.311-1.277.311z"/><path d="m24 22c-.08 0-.16-.013-.237-.038l-5.25-1.75c-.306-.103-.513-.389-.513-.712s.207-.609.513-.711l5.25-1.75c.154-.052.32-.052.475 0l5.25 1.75c.305.102.512.388.512.711s-.207.609-.513.712l-5.25 1.75c-.077.025-.157.038-.237.038zm-2.878-2.5 2.878.959 2.878-.959-2.878-.959z"/><path d="m24 29c-.08 0-.16-.013-.237-.038l-5.25-1.75c-.306-.103-.513-.389-.513-.712v-7h1.5v6.459l4.5 1.5 4.5-1.5v-6.459h1.5v7c0 .323-.207.609-.513.712l-5.25 1.75c-.077.025-.157.038-.237.038z"/><path d="m23.25 21.25h1.5v7h-1.5z"/></svg>