<svg id="_x31__x2C_5" enable-background="new 0 0 36 36" height="512" viewBox="0 0 36 36" width="512" xmlns="http://www.w3.org/2000/svg"><path d="m4.167 8.377c0 6.917-3.583 11.667-3.583 15s1.916 10.333 17.249 10.333 17.583-9.417 17.583-13.083c.001-17.167-31.249-24.5-31.249-12.25z" fill="#efefef"/><path d="m26.346 5.467h2.001v1h-2.001z" fill="#a4afc1" transform="matrix(.707 -.707 .707 .707 3.79 21.084)"/><path d="m27.023 9.033h1v2.001h-1z" fill="#a4afc1" transform="matrix(.707 -.707 .707 .707 .969 22.405)"/><path d="m22.957 4.967h1v2h-1z" fill="#a4afc1" transform="matrix(.707 -.707 .707 .707 2.649 18.331)"/><g fill="#f3f3f1"><path d="m29.25 20.5-4.75 1.75-4.75-1.75 4.75-1.75z"/><path d="m29.25 20.5v6l-4.75 1.75v-6z"/><path d="m24.5 22.25v6l-4.75-1.75v-6z"/><path d="m16.25 20.5-4.75 1.75-4.75-1.75 4.75-1.75z"/><path d="m16.25 20.5v6l-4.75 1.75v-6z"/><path d="m11.5 22.25v6l-4.75-1.75v-6z"/></g><path d="m22.75 10.5-4.75 1.75-4.75-1.75 4.75-1.75z" fill="#2fdf84"/><path d="m22.75 10.5v6l-4.75 1.75v-6z" fill="#2fdf84"/><path d="m18 12.25v6l-4.75-1.75v-6z" fill="#2fdf84"/><path d="m26.75 22.25 2.5-.921v-.829l-4.75 1.75v6l2.25-.829z" fill="#d5dbe1"/><path d="m22 26.5v-5.171l-2.25-.829v6l4.75 1.75v-.829z" fill="#d5dbe1"/><path d="m13.75 22.25 2.5-.921v-.829l-4.75 1.75v6l2.25-.829z" fill="#d5dbe1"/><path d="m9 26.5v-5.171l-2.25-.829v6l4.75 1.75v-.829z" fill="#d5dbe1"/><path d="m20.25 12.25 2.5-.921v-.829l-4.75 1.75v6l2.25-.829z" fill="#00b871"/><path d="m15.5 16.5v-5.171l-2.25-.829v6l4.75 1.75v-.829z" fill="#00b871"/><path d="m24.5 23c-.088 0-.176-.016-.26-.046l-4.75-1.75c-.294-.109-.49-.39-.49-.704s.196-.595.49-.704l4.75-1.75c.168-.062.352-.062.52 0l4.75 1.75c.294.109.49.39.49.704s-.196.595-.49.704l-4.75 1.75c-.084.03-.172.046-.26.046zm-2.58-2.5 2.58.951 2.58-.951-2.58-.951z"/><path d="m24.5 29c-.088 0-.176-.016-.26-.046l-4.75-1.75c-.294-.109-.49-.39-.49-.704v-6h1.5v5.477l4 1.474 4-1.474v-5.477h1.5v6c0 .314-.196.595-.49.704l-4.75 1.75c-.084.03-.172.046-.26.046z"/><path d="m23.75 22.25h1.5v6h-1.5z"/><path d="m11.5 23c-.088 0-.176-.016-.26-.046l-4.75-1.75c-.294-.109-.49-.39-.49-.704s.196-.595.49-.704l4.75-1.75c.168-.062.352-.062.52 0l4.75 1.75c.294.109.49.39.49.704s-.196.595-.49.704l-4.75 1.75c-.084.03-.172.046-.26.046zm-2.58-2.5 2.58.951 2.58-.951-2.58-.951z"/><path d="m11.5 29c-.088 0-.176-.016-.26-.046l-4.75-1.75c-.294-.109-.49-.39-.49-.704v-6h1.5v5.477l4 1.474 4-1.474v-5.477h1.5v6c0 .314-.196.595-.49.704l-4.75 1.75c-.084.03-.172.046-.26.046z"/><path d="m10.75 22.25h1.5v6h-1.5z"/><path d="m18 13c-.088 0-.176-.016-.26-.046l-4.75-1.75c-.294-.108-.49-.389-.49-.704s.196-.595.49-.704l4.75-1.75c.168-.062.352-.062.52 0l4.75 1.75c.294.108.49.389.49.704s-.196.595-.49.704l-4.75 1.75c-.084.03-.172.046-.26.046zm-2.58-2.5 2.58.951 2.58-.951-2.58-.951z"/><path d="m18 19c-.088 0-.176-.016-.26-.046l-4.75-1.75c-.294-.108-.49-.389-.49-.704v-6h1.5v5.477l4 1.474 4-1.474v-5.477h1.5v6c0 .314-.196.595-.49.704l-4.75 1.75c-.084.03-.172.046-.26.046z"/><path d="m17.25 12.25h1.5v6h-1.5z"/></svg>