<svg id="_x31__x2C_5" enable-background="new 0 0 36 36" height="512" viewBox="0 0 36 36" width="512" xmlns="http://www.w3.org/2000/svg"><path d="m27.623 31.833c-6.917 0-11.667 3.583-15 3.583s-10.333-1.916-10.333-17.249 9.417-17.584 13.083-17.584c17.167 0 24.5 31.25 12.25 31.25z" fill="#efefef"/><g fill="#a4afc1"><path d="m24.467 4.967h1v2h-1z" transform="matrix(.707 -.707 .707 .707 3.091 19.398)"/><path d="m28.533 9.033h1v2h-1z" transform="matrix(.707 -.707 .707 .707 1.407 23.463)"/><path d="m27.856 5.467h2v1h-2z" transform="matrix(.707 -.707 .707 .707 4.233 22.152)"/></g><path d="m16.75 20.25h-2.5c-.552 0-1-.448-1-1v-2.5c0-.552.448-1 1-1h2.5c.552 0 1 .448 1 1v2.5c0 .552-.448 1-1 1z" fill="#2fdf84"/><path d="m27 29.25h-14c-1.243 0-2.25-1.007-2.25-2.25s1.007-2.25 2.25-2.25h14c1.243 0 2.25 1.007 2.25 2.25s-1.007 2.25-2.25 2.25z" fill="#f3f3f1"/><path d="m21.75 24.5v-3.75c0-.552.448-1 1-1h2.5c.552 0 1 .448 1 1v3.75z" fill="#2fdf84"/><circle cx="8" cy="11.5" fill="#2fdf84" r="1.25"/><g fill="#00b871"><path d="m15.5 19.25v-2.5c0-.552.448-1 1-1h-2.25c-.552 0-1 .448-1 1v2.5c0 .552.448 1 1 1h2.25c-.552 0-1-.448-1-1z"/><path d="m25 19.75h-2.25c-.552 0-1 .448-1 1v3.75h2.25v-3.75c0-.552.448-1 1-1z"/><path d="m9 11.5c0-.19.049-.365.125-.526-.2-.425-.625-.724-1.125-.724-.69 0-1.25.56-1.25 1.25s.56 1.25 1.25 1.25c.5 0 .925-.299 1.125-.724-.076-.161-.125-.336-.125-.526z"/></g><path d="m13 27c0-1.243 1.007-2.25 2.25-2.25h-2.25c-1.243 0-2.25 1.007-2.25 2.25s1.007 2.25 2.25 2.25h2.25c-1.243 0-2.25-1.007-2.25-2.25z" fill="#d5dbe1"/><path d="m16.25 15.75h-1.5v-3.25c0-.138-.112-.25-.25-.25h-5.499v-1.5h5.499c.965 0 1.75.785 1.75 1.75z"/><path d="m10.999 27.75h-1.999c-.965 0-1.75-.785-1.75-1.75v-13.249h1.5v13.249c0 .138.112.25.25.25h1.999z"/><path d="m16.75 21h-2.5c-.965 0-1.75-.785-1.75-1.75v-2.5c0-.965.785-1.75 1.75-1.75h2.5c.965 0 1.75.785 1.75 1.75v2.5c0 .965-.785 1.75-1.75 1.75zm-2.5-4.5c-.138 0-.25.112-.25.25v2.5c0 .138.112.25.25.25h2.5c.138 0 .25-.112.25-.25v-2.5c0-.138-.112-.25-.25-.25z"/><path d="m27 30h-14c-1.654 0-3-1.346-3-3s1.346-3 3-3h14c1.654 0 3 1.346 3 3s-1.346 3-3 3zm-14-4.5c-.827 0-1.5.673-1.5 1.5s.673 1.5 1.5 1.5h14c.827 0 1.5-.673 1.5-1.5s-.673-1.5-1.5-1.5z"/><path d="m27 24.5h-1.5v-3.75c0-.138-.112-.25-.25-.25h-2.5c-.138 0-.25.112-.25.25v3.75h-1.5v-3.75c0-.965.785-1.75 1.75-1.75h2.5c.965 0 1.75.785 1.75 1.75z"/><path d="m14.75 26.25h3.75v1.5h-3.75z"/><path d="m21.75 26.25h3.5v1.5h-3.5z"/><path d="m8 13.5c-1.103 0-2-.897-2-2s.897-2 2-2 2 .897 2 2-.897 2-2 2zm0-2.5c-.275 0-.5.224-.5.5s.225.5.5.5.5-.224.5-.5-.225-.5-.5-.5z"/></svg>