<svg id="_x31__x2C_5" enable-background="new 0 0 36 36" height="512" viewBox="0 0 36 36" width="512" xmlns="http://www.w3.org/2000/svg"><path d="m27.623 4.167c-6.917 0-11.667-3.583-15-3.583s-10.333 1.916-10.333 17.249 9.417 17.583 13.083 17.583c17.167.001 24.5-31.249 12.25-31.249z" fill="#efefef"/><path d="m7.5 5c-.827 0-1.5-.673-1.5-1.5s.673-1.5 1.5-1.5 1.5.673 1.5 1.5-.673 1.5-1.5 1.5zm0-2c-.276 0-.5.225-.5.5s.224.5.5.5.5-.225.5-.5-.224-.5-.5-.5z" fill="#a4afc1"/><path d="m25.25 9-7.25 2.25-7.25-2.25 7.25-2.25z" fill="#2fdf84"/><path d="m25.25 9v10l-7.25 2.25v-10z" fill="#f3f3f1"/><path d="m18 11.25v10l-7.25-2.25v-10z" fill="#f3f3f1"/><path d="m20.25 11.25 5-1.552v-.698l-7.25 2.25v10l2.25-.698z" fill="#d5dbe1"/><path d="m13 19v-9.302l-2.25-.698v10l7.25 2.25v-.698z" fill="#d5dbe1"/><path d="m6 27.75h7v1.5h-7z"/><path d="m14 27.75h3v1.5h-3z"/><path d="m6 23.75h3v1.5h-3z"/><path d="m10 23.75h7v1.5h-7z"/><path d="m19 27.75h3v1.5h-3z"/><path d="m23 27.75h7v1.5h-7z"/><path d="m19 23.75h6v1.5h-6z"/><path d="m26 23.75h4v1.5h-4z"/><path d="m18 12c-.075 0-.15-.012-.222-.034l-7.25-2.25c-.314-.097-.528-.388-.528-.716s.214-.619.528-.716l7.25-2.25c.145-.045.3-.045.444 0l7.25 2.25c.314.097.528.388.528.716s-.214.619-.528.716l-7.25 2.25c-.072.022-.147.034-.222.034zm-4.72-3 4.72 1.465 4.72-1.465-4.72-1.465z"/><path d="m18 22c-.075 0-.15-.012-.222-.034l-7.25-2.25c-.314-.097-.528-.388-.528-.716v-10h1.5v9.447l6.5 2.018 6.5-2.018v-9.447h1.5v10c0 .328-.214.619-.528.716l-7.25 2.25c-.072.022-.147.034-.222.034z"/><path d="m17.25 11.25h1.5v10h-1.5z"/></svg>