<svg id="_x31__x2C_5" height="512" viewBox="0 0 36 36" width="512" xmlns="http://www.w3.org/2000/svg"><path d="m34.904 20.355c-3.782-5.791-3.38-11.727-5.203-14.518s-7.256-7.603-20.093.782-9.572 17.5-7.566 20.569c9.388 14.372 39.561 3.423 32.862-6.833z" fill="#efefef"/><path d="m6.079 9c-.827 0-1.5-.673-1.5-1.5s.672-1.5 1.5-1.5 1.5.673 1.5 1.5-.673 1.5-1.5 1.5zm0-2c-.276 0-.5.224-.5.5s.224.5.5.5.5-.224.5-.5-.225-.5-.5-.5z" fill="#a4afc1"/><path d="m15 6.5h-6.75l-1.5 2v1h2.5v18.5c0 .552.448 1 1 1h2.5c.552 0 1-.448 1-1v-18.5h7z" fill="#f3f3f1"/><path d="m14 15.5h6.25l-3.75 2.5h-2.5z" fill="#f3f3f1"/><path d="m9.25 15.5h-1.5c-.552 0-1 .448-1 1v.5c0 .552.448 1 1 1h1.5z" fill="#f3f3f1"/><circle cx="18.5" cy="12.25" fill="#2fdf84" r="2.75"/><path d="m23.5 17.75v5.75l-4.066 4.066c1.041 1.041 2.478 1.684 4.066 1.684 3.176 0 5.75-2.574 5.75-5.75s-2.574-5.75-5.75-5.75z" fill="#2fdf84"/><path d="m23.5 17.75c-3.176 0-5.75 2.574-5.75 5.75 0 1.588.644 3.025 1.684 4.066l4.066-4.066z" fill="#f3f3f1"/><path d="m21.684 27.566 4.066-4.066v-5.292c-.691-.294-1.451-.458-2.25-.458v5.75l-4.066 4.066c1.041 1.041 2.478 1.684 4.066 1.684.385 0 .761-.039 1.125-.112-1.136-.225-2.153-.784-2.941-1.572z" fill="#00b871"/><g fill="#d5dbe1"><path d="m20 23.5c0-2.377 1.443-4.417 3.5-5.292v-.458c-3.176 0-5.75 2.574-5.75 5.75 0 1.588.644 3.025 1.684 4.066l1.285-1.285c-.457-.824-.719-1.772-.719-2.781z"/><path d="m11.5 28v-18.5h-2.25v18.5c0 .552.448 1 1 1h2.25c-.552 0-1-.448-1-1z"/><path d="m14 15.5h2.25v2.5h-2.25z"/><path d="m9 17v-.5c0-.249.1-.469.25-.643v-.357h-1.5c-.552 0-1 .448-1 1v.5c0 .552.448 1 1 1h1.5v-.357c-.15-.174-.25-.395-.25-.643z"/></g><path d="m18 12.25c0-1.117.669-2.074 1.625-2.504-.344-.155-.723-.246-1.125-.246-1.519 0-2.75 1.231-2.75 2.75s1.231 2.75 2.75 2.75c.402 0 .781-.091 1.125-.246-.956-.43-1.625-1.387-1.625-2.504z" fill="#00b871"/><path d="m19.75 28c-.192 0-.384-.073-.53-.22-.293-.293-.293-.768 0-1.061l3.53-3.53v-4.94c0-.414.336-.75.75-.75s.75.336.75.75v5.25c0 .199-.079.39-.22.53l-3.75 3.75c-.146.148-.338.221-.53.221z"/><path d="m23.5 29.969c-3.567 0-6.469-2.902-6.469-6.469s2.902-6.469 6.469-6.469 6.469 2.902 6.469 6.469-2.902 6.469-6.469 6.469zm0-11.5c-2.774 0-5.031 2.257-5.031 5.031s2.257 5.031 5.031 5.031 5.031-2.257 5.031-5.031-2.257-5.031-5.031-5.031z"/><path d="m11.5 30c-1.654 0-3-1.346-3-3v-16.5h-1.75c-.414 0-.75-.336-.75-.75v-1c0-.162.053-.32.15-.45l1.5-2c.142-.189.364-.3.6-.3h6.75c.121 0 .24.029.347.085l5.75 3c.307.16.464.508.382.844-.083.335-.383.571-.729.571h-6.25v16.5c0 1.654-1.346 3-3 3zm-4-21h1.75c.414 0 .75.336.75.75v17.25c0 .827.673 1.5 1.5 1.5s1.5-.673 1.5-1.5v-17.25c0-.414.336-.75.75-.75h3.941l-2.875-1.5h-6.191z"/><path d="m16.5 19h-2.5c-.414 0-.75-.336-.75-.75s.336-.75.75-.75h2.273l1.5-1h-3.773c-.414 0-.75-.336-.75-.75s.336-.75.75-.75h6.25c.331 0 .622.216.718.533s-.027.658-.302.841l-3.75 2.5c-.123.082-.268.126-.416.126z"/><path d="m9.25 19h-1.5c-.965 0-1.75-.785-1.75-1.75v-.5c0-.965.785-1.75 1.75-1.75h1.5c.414 0 .75.336.75.75s-.336.75-.75.75h-1.5c-.138 0-.25.112-.25.25v.5c0 .138.112.25.25.25h1.5c.414 0 .75.336.75.75s-.336.75-.75.75z"/><path d="m18.5 16c-1.93 0-3.5-1.57-3.5-3.5s1.57-3.5 3.5-3.5 3.5 1.57 3.5 3.5-1.57 3.5-3.5 3.5zm0-5.5c-1.103 0-2 .897-2 2s.897 2 2 2 2-.897 2-2-.897-2-2-2z"/><circle cx="18.5" cy="12.5" r="1"/><path d="m12 23h2.25v1.5h-2.25z"/><path d="m12 20h2.25v1.5h-2.25z"/><path d="m12 17h2.25v1.5h-2.25z"/><path d="m12 14h2.25v1.5h-2.25z"/><path d="m12 11h2.25v1.5h-2.25z"/></svg>