<svg id="_x31__x2C_5" height="512" viewBox="0 0 36 36" width="512" xmlns="http://www.w3.org/2000/svg"><path d="m4.167 27.623c0-6.917-3.583-11.667-3.583-15s1.916-10.333 17.249-10.333 17.583 9.417 17.583 13.083c.001 17.167-31.249 24.5-31.249 12.25z" fill="#efefef"/><path d="m4.375 3.25h1v2h-1z" fill="#a4afc1"/><path d="m1.125 6.25h2v1h-2z" fill="#a4afc1"/><path d="m15.25 24.75h11.5c1.381 0 2.5 1.007 2.5 2.25 0 1.243-1.119 2.25-2.5 2.25h-11.5z" fill="#f3f3f1"/><path d="m15.25 29.25h-6.582c-1.059 0-1.918-.859-1.918-1.918v-14.664c0-1.059.859-1.918 1.918-1.918h6.582z" fill="#f3f3f1"/><g fill="#2fdf84"><circle cx="11" cy="15" r="1.25"/><path d="m15.75 19.75h4.5v4.5h-4.5z"/><path d="m22.75 19.75h4.5v4.5h-4.5z"/></g><path d="m15.25 24.75h2.25v4.5h-2.25z" fill="#d5dbe1"/><path d="m9 27.332v-14.664c0-1.059.859-1.918 1.918-1.918h-2.25c-1.059 0-1.918.859-1.918 1.918v14.664c0 1.059.859 1.918 1.918 1.918h2.25c-1.059 0-1.918-.859-1.918-1.918z" fill="#d5dbe1"/><path d="m12 15c0-.19.049-.365.125-.526-.2-.425-.625-.724-1.125-.724-.69 0-1.25.56-1.25 1.25s.56 1.25 1.25 1.25c.5 0 .925-.299 1.125-.724-.076-.161-.125-.336-.125-.526z" fill="#00b871"/><path d="m15.75 19.75h2.25v4.5h-2.25z" fill="#00b871"/><path d="m22.75 19.75h2.25v4.5h-2.25z" fill="#00b871"/><path d="m26.75 30h-11.5v-1.5h11.5c.965 0 1.75-.673 1.75-1.5s-.785-1.5-1.75-1.5h-11v-1.5h11c1.792 0 3.25 1.346 3.25 3s-1.458 3-3.25 3z"/><path d="m15.25 30h-6.582c-1.471 0-2.668-1.197-2.668-2.668v-14.664c0-1.471 1.197-2.668 2.668-2.668h6.582c.414 0 .75.336.75.75v18.5c0 .414-.336.75-.75.75zm-6.582-18.5c-.644 0-1.168.524-1.168 1.168v14.664c0 .644.524 1.168 1.168 1.168h5.832v-17z"/><path d="m11 17c-1.103 0-2-.897-2-2s.897-2 2-2 2 .897 2 2-.897 2-2 2zm0-2.5c-.275 0-.5.224-.5.5s.225.5.5.5.5-.224.5-.5-.225-.5-.5-.5z"/><path d="m9.75 19h2.5v1.5h-2.5z"/><path d="m9.75 22h2.5v1.5h-2.5z"/><path d="m20.25 25h-4.5c-.414 0-.75-.336-.75-.75v-4.5c0-.414.336-.75.75-.75h4.5c.414 0 .75.336.75.75v4.5c0 .414-.336.75-.75.75zm-3.75-1.5h3v-3h-3z"/><path d="m27.25 25h-4.5c-.414 0-.75-.336-.75-.75v-4.5c0-.414.336-.75.75-.75h4.5c.414 0 .75.336.75.75v4.5c0 .414-.336.75-.75.75zm-3.75-1.5h3v-3h-3z"/></svg>