<svg id="_x31__x2C_5" enable-background="new 0 0 36 36" height="512" viewBox="0 0 36 36" width="512" xmlns="http://www.w3.org/2000/svg"><path d="m8.377 31.833c6.917 0 11.667 3.583 15 3.583s10.333-1.916 10.333-17.249-9.417-17.584-13.083-17.584c-17.167 0-24.5 31.25-12.25 31.25z" fill="#efefef"/><path d="m24.105 4h1v2h-1z" fill="#a4afc1"/><path d="m26.355 7h2v1h-2z" fill="#a4afc1"/><circle cx="17" cy="17" fill="#f3f3f1" r="10.25"/><circle cx="17" cy="17" fill="#2fdf84" r="4.25"/><path d="m9 17c0-5.28 3.994-9.625 9.125-10.185-.37-.041-.744-.065-1.125-.065-5.661 0-10.25 4.589-10.25 10.25s4.589 10.25 10.25 10.25c.381 0 .755-.024 1.125-.065-5.131-.56-9.125-4.905-9.125-10.185z" fill="#d5dbe1"/><path d="m15 17c0-1.955 1.328-3.585 3.125-4.08-.361-.099-.733-.17-1.125-.17-2.347 0-4.25 1.903-4.25 4.25s1.903 4.25 4.25 4.25c.392 0 .764-.07 1.125-.17-1.797-.495-3.125-2.125-3.125-4.08z" fill="#00b871"/><path d="m17 28c-6.065 0-11-4.935-11-11s4.935-11 11-11 11 4.935 11 11-4.935 11-11 11zm0-20.5c-5.238 0-9.5 4.262-9.5 9.5s4.262 9.5 9.5 9.5 9.5-4.262 9.5-9.5-4.262-9.5-9.5-9.5z"/><path d="m17 22c-2.757 0-5-2.243-5-5s2.243-5 5-5 5 2.243 5 5-2.243 5-5 5zm0-8.5c-1.93 0-3.5 1.57-3.5 3.5s1.57 3.5 3.5 3.5 3.5-1.57 3.5-3.5-1.57-3.5-3.5-3.5z"/><path d="m12.565 7.745h1.5v5.739h-1.5z" transform="matrix(.866 -.5 .5 .866 -3.524 8.082)"/><path d="m20.516 12.565h5.739v1.5h-5.739z" transform="matrix(.866 -.5 .5 .866 -3.524 13.478)"/><path d="m19.935 20.516h1.5v5.739h-1.5z" transform="matrix(.866 -.5 .5 .866 -8.923 13.479)"/><path d="m7.745 19.935h5.739v1.5h-5.739z" transform="matrix(.866 -.5 .5 .866 -8.921 8.08)"/><path d="m9.865 10.445h1.5v5.739h-1.5z" transform="matrix(.5 -.866 .866 .5 -6.224 15.848)"/><path d="m17.816 9.865h5.739v1.5h-5.739z" transform="matrix(.5 -.866 .866 .5 1.149 23.22)"/><path d="m22.635 17.816h1.5v5.739h-1.5z" transform="matrix(.5 -.866 .866 .5 -6.222 30.591)"/><path d="m10.445 22.635h5.739v1.5h-5.739z" transform="matrix(.5 -.866 .866 .5 -13.595 23.222)"/><path d="m29.25 30c-2.194 0-3.749-.447-5.396-.922-1.84-.53-3.745-1.078-6.854-1.078v-1.5c3.321 0 5.419.604 7.27 1.137 1.608.463 2.998.863 4.98.863z"/></svg>