<svg id="_x31__x2C_5" enable-background="new 0 0 36 36" height="512" viewBox="0 0 36 36" width="512" xmlns="http://www.w3.org/2000/svg"><path d="m27.623 31.833c-6.917 0-11.667 3.583-15 3.583s-10.333-1.916-10.333-17.249 9.417-17.584 13.083-17.584c17.167 0 24.5 31.25 12.25 31.25z" fill="#efefef"/><g fill="#a4afc1"><path d="m6.917 4.5h2v1h-2z" transform="matrix(.707 -.707 .707 .707 -1.217 7.063)"/><path d="m2.85 8.566h2v1h-2z" transform="matrix(.707 -.707 .707 .707 -5.283 5.378)"/><path d="m3.527 4h1v2h-1z" transform="matrix(.707 -.707 .707 .707 -2.356 4.312)"/></g><path d="m25.25 10-9.25 3.25-9.25-3.25 9.25-3.24z" fill="#f3f3f1"/><path d="m25.25 10v12l-9.25 3.25v-12z" fill="#f3f3f1"/><path d="m16 13.25v12l-9.25-3.25v-12z" fill="#f3f3f1"/><path d="m27.75 18.77h.5c.552 0 1 .448 1 1v4.5c0 .552-.448 1-1 1h-.5c-.552 0-1-.448-1-1v-4.5c0-.55.45-1 1-1z" fill="#2fdf84"/><path d="m26.75 19.78c-.56-.32-2.31-1.01-4.99-1.01h-.51c-.94 0-1.79.68-1.94 1.6-.01 0-.56 2.72-.56 2.99 0 1.03.84 1.91 1.91 1.91h2.5s-.47.7-.47 1.87c0 1.4.7 2.11 1.17 2.11.46 0 .95-.48.95-1.65 0-1.31 1.41-2.32 1.97-2.67z" fill="#2fdf84"/><path d="m18.25 13.25 7-2.459v-.791l-9.25 3.25v12l2.25-.791z" fill="#d5dbe1"/><path d="m9 22v-11.209l-2.25-.791v12l9.25 3.25v-.791z" fill="#d5dbe1"/><path d="m21 23.36c0-.27.55-2.99.56-2.99.125-.767.738-1.361 1.483-1.539-.403-.035-.824-.061-1.283-.061h-.51c-.94 0-1.79.68-1.94 1.6-.01 0-.56 2.72-.56 2.99 0 1.03.84 1.91 1.91 1.91h2.25c-1.07 0-1.91-.88-1.91-1.91z" fill="#00b871"/><path d="m25.41 25.27h-2.25s-.47.7-.47 1.87c0 1.4.7 2.11 1.17 2.11.46 0 .95-.48.95-1.65 0-.241.059-.468.141-.687.056-1.03.459-1.643.459-1.643z" fill="#00b871"/><path d="m16 14c-.084 0-.168-.014-.249-.042l-9.25-3.25c-.3-.105-.501-.39-.501-.708s.201-.603.501-.708l9.25-3.25c.162-.057.336-.057.498 0l9.25 3.25c.3.105.501.39.501.708s-.201.603-.501.708l-9.25 3.25c-.081.028-.165.042-.249.042zm-6.987-4 6.987 2.455 6.987-2.455-6.987-2.455z"/><path d="m24.5 10h1.5v5.25h-1.5z"/><path d="m15.592 25.898-9.09-3.19c-.301-.105-.502-.39-.502-.708v-12h1.5v11.469l8.588 3.014z"/><path d="m15.25 13.25h1.5v7h-1.5z"/><path d="m28.25 26.02h-.5c-.965 0-1.75-.785-1.75-1.75v-4.5c0-.965.785-1.75 1.75-1.75h.5c.965 0 1.75.785 1.75 1.75v4.5c0 .964-.785 1.75-1.75 1.75zm-.5-6.5c-.136 0-.25.114-.25.25v4.5c0 .138.112.25.25.25h.5c.138 0 .25-.112.25-.25v-4.5c0-.138-.112-.25-.25-.25z"/><path d="m23.86 30c-.943 0-1.92-1.07-1.92-2.86 0-.427.053-.803.128-1.12h-1.408c-1.467 0-2.66-1.193-2.66-2.659 0-.093 0-.247.29-1.739.124-.638.208-1.072.292-1.37l-.013-.002c.208-1.271 1.36-2.229 2.681-2.229h.51c2.762 0 4.389.695 5.113 1.109l-.746 1.303c-.479-.274-1.862-.912-4.367-.912h-.51c-.584 0-1.111.427-1.2.972-.005.028-.011.057-.019.083-.072.311-.51 2.518-.532 2.813.001.611.522 1.131 1.161 1.131h2.5c.277 0 .531.152.662.397.13.244.115.54-.039.771s-.343.551-.343 1.452c0 .897.353 1.317.48 1.368-.043-.028.139-.259.139-.908 0-1.672 1.625-2.869 2.323-3.306l.795 1.271c-.782.489-1.618 1.281-1.618 2.034.001 1.659-.853 2.401-1.699 2.401z"/></svg>