<svg id="_x31__x2C_5" height="512" viewBox="0 0 36 36" width="512" xmlns="http://www.w3.org/2000/svg"><path d="m31.833 27.623c0-6.917 3.583-11.667 3.583-15s-1.916-10.333-17.249-10.333-17.584 9.417-17.584 13.083c0 17.167 31.25 24.5 31.25 12.25z" fill="#efefef"/><path d="m31.5 5c-.827 0-1.5-.673-1.5-1.5s.673-1.5 1.5-1.5 1.5.673 1.5 1.5-.673 1.5-1.5 1.5zm0-2c-.276 0-.5.224-.5.5s.224.5.5.5.5-.224.5-.5-.224-.5-.5-.5z" fill="#a4afc1"/><path d="m20.25 13c0 .738-.351 1.386-.9 1.8-.369.279-.846.45-1.35.45s-.981-.171-1.35-.45c-.549-.414-.9-1.062-.9-1.8 0-1.242 1.008-2.25 2.25-2.25s2.25 1.008 2.25 2.25z" fill="#f3f3f1"/><path d="m16.25 14.75h3.5v3.5h-3.5z" fill="#2fdf84"/><path d="m15.25 18.25h5.5v2.5h-5.5z" fill="#f3f3f1"/><path d="m18.9 14.8c-.549-.414-.9-1.062-.9-1.8 0-.83.456-1.548 1.125-1.938-.332-.193-.713-.312-1.125-.312-1.242 0-2.25 1.008-2.25 2.25 0 .738.351 1.386.9 1.8.369.279.846.45 1.35.45.408 0 .795-.116 1.125-.307-.077-.045-.155-.09-.225-.143z" fill="#d5dbe1"/><path d="m15.25 18.25h2.25v2.5h-2.25z" fill="#d5dbe1"/><path d="m16.25 14.75h2.25v3.5h-2.25z" fill="#00b871"/><path d="m18 16c-.649 0-1.29-.214-1.803-.602-.76-.574-1.197-1.448-1.197-2.398 0-1.654 1.346-3 3-3s3 1.346 3 3c0 .95-.437 1.824-1.198 2.398-.512.388-1.153.602-1.802.602zm0-4.5c-.827 0-1.5.673-1.5 1.5 0 .475.219.913.602 1.201.51.386 1.288.385 1.796 0 .383-.288.602-.726.602-1.201 0-.827-.673-1.5-1.5-1.5z"/><path d="m19.75 19h-3.5c-.414 0-.75-.336-.75-.75v-3.5h1.5v2.75h2v-2.75h1.5v3.5c0 .414-.336.75-.75.75z"/><path d="m20.75 21.5h-5.5c-.414 0-.75-.336-.75-.75v-2.5c0-.414.336-.75.75-.75h5.5c.414 0 .75.336.75.75v2.5c0 .414-.336.75-.75.75zm-4.75-1.5h4v-1h-4z"/><path d="m16.25 26h-1.75c-.256 0-.495-.131-.633-.347l-1.75-2.75c-.151-.237-.156-.538-.015-.781l1.75-3c.134-.23.381-.372.648-.372h1.5v1.5h-1.069l-1.302 2.233 1.283 2.017h1.338z"/><path d="m21.5 26h-1.75v-1.5h1.338l1.283-2.017-1.302-2.233h-1.069v-1.5h1.5c.267 0 .514.142.648.372l1.75 3c.141.243.136.544-.015.781l-1.75 2.75c-.138.216-.377.347-.633.347z"/><path d="m8.065 28.015-.065-3.25c-.004-.202.073-.396.214-.54s.334-.225.536-.225h3.25v1.5h-2.485l.05 2.485z"/><path d="m27.25 12h-3.25v-1.5h2.5v-2.5h1.5v3.25c0 .414-.336.75-.75.75z"/><path d="m6.512 21.466c-.34-1.128-.512-2.294-.512-3.466 0-6.617 5.383-12 12-12 3.69 0 7.108 1.653 9.379 4.536l-1.179.928c-1.984-2.519-4.972-3.964-8.2-3.964-5.79 0-10.5 4.71-10.5 10.5 0 1.025.151 2.046.448 3.034z"/><path d="m18 30c-3.69 0-7.108-1.653-9.379-4.536l1.179-.928c1.984 2.519 4.972 3.964 8.2 3.964 5.79 0 10.5-4.71 10.5-10.5 0-1.025-.151-2.046-.448-3.034l1.437-.433c.339 1.129.511 2.295.511 3.467 0 6.617-5.383 12-12 12z"/></svg>