<svg id="_x31__x2C_5" enable-background="new 0 0 36 36" height="512" viewBox="0 0 36 36" width="512" xmlns="http://www.w3.org/2000/svg"><path d="m4.167 8.377c0 6.917-3.583 11.667-3.583 15s1.916 10.333 17.249 10.333 17.583-9.417 17.583-13.083c.001-17.167-31.249-24.5-31.249-12.25z" fill="#efefef"/><path d="m29.5 9.721c-.827 0-1.5-.673-1.5-1.5s.673-1.5 1.5-1.5 1.5.673 1.5 1.5-.673 1.5-1.5 1.5zm0-2c-.275 0-.5.224-.5.5s.225.5.5.5.5-.224.5-.5-.225-.5-.5-.5z" fill="#a4afc1"/><path d="m22.25 8.75v2c0 .55-.45 1-1 1h-6.5c-.55 0-1-.45-1-1v-2h2.25c0-1.1.9-2 2-2s2 .9 2 2z" fill="#f3f3f1"/><path d="m26.25 11.75v15.5c0 1.1-.9 2-2 2h-12.5c-1.1 0-2-.9-2-2v-15.5c0-1.1.9-2 2-2h2v1c0 .55.45 1 1 1h6.5c.55 0 1-.45 1-1v-1h2c1.1 0 2 .9 2 2z" fill="#f3f3f1"/><path d="m23.25 17.5-5.25 1.75-5.25-1.75 5.25-1.75z" fill="#2fdf84"/><path d="m23.25 17.5v7l-5.25 1.75v-7z" fill="#2fdf84"/><path d="m18 19.25v7l-5.25-1.75v-7z" fill="#2fdf84"/><g fill="#d5dbe1"><path d="m16 10.75v-2h-2.25v2c0 .55.45 1 1 1h2.25c-.55 0-1-.45-1-1z"/><path d="m19.125 7.1c-.321-.22-.708-.35-1.125-.35-1.1 0-2 .9-2 2h2.25c0-.683.348-1.289.875-1.65z"/><path d="m24.5 10.75v-.975c-.083-.011-.164-.025-.25-.025h-2v1c0 .55-.45 1-1 1h2.25c.55 0 1-.45 1-1z"/><path d="m12 27.25v-15.5c0-1.014.768-1.849 1.75-1.975v-.025h-2c-1.1 0-2 .9-2 2v15.5c0 1.1.9 2 2 2h2.25c-1.1 0-2-.9-2-2z"/></g><path d="m20.25 19.25 3-1v-.75l-5.25 1.75v7l2.25-.75z" fill="#00b871"/><path d="m15 24.5v-6.25l-2.25-.75v7l5.25 1.75v-.75z" fill="#00b871"/><path d="m24.25 30h-12.5c-1.517 0-2.75-1.233-2.75-2.75v-15.5c0-1.517 1.233-2.75 2.75-2.75h1.883v1.5h-1.883c-.689 0-1.25.561-1.25 1.25v15.5c0 .689.561 1.25 1.25 1.25h12.5c.689 0 1.25-.561 1.25-1.25v-15.5c0-.689-.561-1.25-1.25-1.25h-1.883v-1.5h1.883c1.517 0 2.75 1.233 2.75 2.75v15.5c0 1.517-1.233 2.75-2.75 2.75z"/><path d="m21.25 12.5h-6.5c-.965 0-1.75-.785-1.75-1.75v-2c0-.414.336-.75.75-.75h1.604c.328-1.153 1.39-2 2.646-2s2.318.847 2.646 2h1.604c.414 0 .75.336.75.75v2c0 .965-.785 1.75-1.75 1.75zm-6.75-3v1.25c0 .138.112.25.25.25h6.5c.138 0 .25-.112.25-.25v-1.25h-1.5c-.414 0-.75-.336-.75-.75 0-.689-.561-1.25-1.25-1.25s-1.25.561-1.25 1.25c0 .414-.336.75-.75.75z"/><path d="m18 20c-.08 0-.16-.013-.237-.039l-5.25-1.75c-.306-.102-.513-.388-.513-.711s.207-.609.513-.711l5.25-1.75c.154-.052.32-.052.475 0l5.25 1.75c.305.102.512.388.512.711s-.207.609-.513.711l-5.25 1.75c-.077.026-.157.039-.237.039zm-2.878-2.5 2.878.959 2.878-.959-2.878-.959z"/><path d="m18 27c-.08 0-.16-.013-.237-.039l-5.25-1.75c-.306-.102-.513-.388-.513-.711v-7h1.5v6.459l4.5 1.5 4.5-1.5v-6.459h1.5v7c0 .323-.207.609-.513.711l-5.25 1.75c-.077.026-.157.039-.237.039z"/><path d="m17.25 19.25h1.5v7h-1.5z"/></svg>