<svg id="_x31__x2C_5" height="512" viewBox="0 0 36 36" width="512" xmlns="http://www.w3.org/2000/svg"><path d="m8.377 4.167c6.917 0 11.667-3.583 15-3.583s10.333 1.916 10.333 17.249-9.417 17.583-13.083 17.583c-17.167.001-24.5-31.249-12.25-31.249z" fill="#efefef"/><path d="m32.5 6c-.827 0-1.5-.673-1.5-1.5s.673-1.5 1.5-1.5 1.5.673 1.5 1.5-.673 1.5-1.5 1.5zm0-2c-.275 0-.5.225-.5.5s.225.5.5.5.5-.225.5-.5-.225-.5-.5-.5z" fill="#a4afc1"/><path d="m12.75 27.25h9.5v2h-9.5z" fill="#f3f3f1"/><path d="m17.44 23.439 5.879-5.88 2.407 1.836-5.226 5.226z" fill="#f3f3f1"/><path d="m29.25 16.386c0 1.585-1.279 2.864-2.864 2.864-.792 0-1.508-.325-2.024-.84l-4.773-4.773c-.515-.515-.84-1.231-.84-2.024 0-1.585 1.279-2.864 2.864-2.864.792 0 1.508.325 2.024.84l4.773 4.773c.515.516.84 1.232.84 2.024z" fill="#2fdf84"/><path d="m18.844 10.25h-5.094v2.5h5z" fill="#f3f3f1"/><path d="m10.75 10.25h3.5v2.5h-3.5z" fill="#f3f3f1" transform="matrix(0 1 -1 0 24 -1)"/><path d="m20.5 27.25h-6v-.75c0-1.657 1.343-3 3-3 1.657 0 3 1.343 3 3z" fill="#2fdf84"/><g fill="#d5dbe1"><path d="m12.75 27.25h2.25v2h-2.25z"/><path d="m19.69 23.439 4.906-4.906-1.277-.974-5.879 5.88 3.06 1.182.627-.627z"/><path d="m13.75 10.25h2.25v2.5h-2.25z"/><path d="m11.25 9.75h2.25v3.5h-2.25z"/></g><path d="m26.613 18.41-4.773-4.773c-.515-.515-.84-1.231-.84-2.023 0-1.184.715-2.196 1.737-2.633-.344-.148-.724-.231-1.123-.231-1.585 0-2.864 1.279-2.864 2.864 0 .792.325 1.508.84 2.024l4.773 4.773c.515.515 1.231.84 2.024.84.401 0 .781-.083 1.127-.231-.34-.146-.645-.354-.901-.61z" fill="#00b871"/><path d="m18.625 23.723c-.348-.142-.727-.223-1.125-.223-1.657 0-3 1.343-3 3v.75h2.25v-.75c0-1.258.776-2.332 1.875-2.777z" fill="#00b871"/><path d="m22.25 30h-9.5c-.414 0-.75-.336-.75-.75v-2c0-.414.336-.75.75-.75h9.5c.414 0 .75.336.75.75v2c0 .414-.336.75-.75.75zm-8.75-1.5h8v-.5h-8z"/><path d="m20.5 28h-6c-.414 0-.75-.336-.75-.75v-.75c0-2.067 1.683-3.75 3.75-3.75s3.75 1.683 3.75 3.75v.75c0 .414-.336.75-.75.75zm-5.25-1.5h4.5c0-1.24-1.01-2.25-2.25-2.25s-2.25 1.01-2.25 2.25z"/><path d="m19.418 21.258h7.39v1.5h-7.39z" transform="matrix(.707 -.707 .707 .707 -8.793 22.789)"/><path d="m16.222 19.75h8.315v1.5h-8.315z" transform="matrix(.707 -.707 .707 .707 -8.526 20.415)"/><path d="m26.387 20c-.964 0-1.871-.376-2.555-1.06l-4.772-4.772c-.684-.684-1.06-1.591-1.06-2.555 0-1.992 1.621-3.613 3.613-3.613.964 0 1.871.376 2.555 1.06l4.772 4.772c.684.684 1.06 1.591 1.06 2.555 0 1.992-1.621 3.613-3.613 3.613zm-4.774-10.5c-1.165 0-2.113.948-2.113 2.113 0 .563.221 1.094.62 1.494l4.772 4.772c.4.399.931.62 1.494.62 1.165 0 2.113-.948 2.113-2.113 0-.563-.221-1.094-.62-1.494l-4.772-4.772c-.4-.399-.93-.62-1.494-.62z"/><path d="m18.75 13.5h-5c-.414 0-.75-.336-.75-.75v-2.5c0-.414.336-.75.75-.75h5.094v1.5h-4.344v1h4.25z"/><path d="m13.75 14h-2.5c-.414 0-.75-.336-.75-.75v-3.5c0-.414.336-.75.75-.75h2.5c.414 0 .75.336.75.75v3.5c0 .414-.336.75-.75.75zm-1.75-1.5h1v-2h-1z"/><path d="m13.25 10.5h-1.5v-1.569l-2.233-1.303-2.997 1.907-.805-1.265 3.383-2.152c.236-.151.538-.156.78-.015l3 1.75c.23.134.372.381.372.647z"/><path d="m9.5 17c-.14 0-.28-.039-.402-.117l-3.383-2.153.805-1.266 2.997 1.907 2.233-1.303v-1.568h1.5v2c0 .267-.142.514-.372.647l-3 1.75c-.117.069-.247.103-.378.103z"/><circle cx="21.5" cy="11.5" r="1"/><circle cx="26.5" cy="16.5" r="1"/></svg>