<svg id="_x31__x2C_5" height="512" viewBox="0 0 36 36" width="512" xmlns="http://www.w3.org/2000/svg"><path d="m4.167 27.623c0-6.917-3.583-11.667-3.583-15s1.916-10.333 17.249-10.333 17.583 9.417 17.583 13.083c.001 17.167-31.249 24.5-31.249 12.25z" fill="#efefef"/><path d="m29.625 2.25h1v2h-1z" fill="#a4afc1"/><path d="m31.875 5.25h2v1h-2z" fill="#a4afc1"/><path d="m22.327 13.75c1.062 0 1.923.821 1.923 1.833v1.833c0 1.013-.861 1.833-1.923 1.833h-8.654c-1.062 0-1.923-.821-1.923-1.833v-1.833c0-1.013.861-1.833 1.923-1.833z" fill="#f3f3f1"/><circle cx="8.5" cy="10.5" fill="#f3f3f1" r="1.75"/><circle cx="27.5" cy="10.5" fill="#f3f3f1" r="1.75"/><path d="m14.75 10.75h6.5v4.5h-6.5z" fill="#2fdf84"/><path d="m16.25 19.75h3.5v2.5h-3.5z" fill="#2fdf84"/><path d="m15.25 22.25h5.5v2.5h-5.5z" fill="#f3f3f1"/><g fill="#d5dbe1"><path d="m14 17.417v-1.833c0-1.013.861-1.833 1.923-1.833h-2.25c-1.062 0-1.923.821-1.923 1.833v1.833c0 1.013.861 1.833 1.923 1.833h2.25c-1.062 0-1.923-.821-1.923-1.833z"/><path d="m9 10.5c0-.536.246-1.009.625-1.33-.305-.258-.694-.42-1.125-.42-.966 0-1.75.784-1.75 1.75s.784 1.75 1.75 1.75c.431 0 .82-.162 1.125-.42-.379-.321-.625-.794-.625-1.33z"/><path d="m28 10.5c0-.536.246-1.009.625-1.33-.305-.258-.694-.42-1.125-.42-.966 0-1.75.784-1.75 1.75s.784 1.75 1.75 1.75c.431 0 .82-.162 1.125-.42-.379-.321-.625-.794-.625-1.33z"/><path d="m15.25 22.25h2.25v2.5h-2.25z"/></g><path d="m14.75 10.75h2.25v4.5h-2.25z" fill="#00b871"/><path d="m16.25 19.75h2.25v2.5h-2.25z" fill="#00b871"/><path d="m7.75 6h1.5v3.25h-1.5z"/><path d="m8.5 13c-1.379 0-2.5-1.122-2.5-2.5s1.121-2.5 2.5-2.5 2.5 1.122 2.5 2.5-1.121 2.5-2.5 2.5zm0-3.5c-.552 0-1 .449-1 1s.448 1 1 1 1-.449 1-1-.448-1-1-1z"/><path d="m26.75 6h1.5v3.25h-1.5z"/><path d="m27.5 13c-1.379 0-2.5-1.122-2.5-2.5s1.121-2.5 2.5-2.5 2.5 1.122 2.5 2.5-1.121 2.5-2.5 2.5zm0-3.5c-.552 0-1 .449-1 1s.448 1 1 1 1-.449 1-1-.448-1-1-1z"/><path d="m10.5 9.75h15v1.5h-15z"/><path d="m21.25 16h-6.5c-.414 0-.75-.336-.75-.75v-4.5h1.5v3.75h5v-3.75h1.5v4.5c0 .414-.336.75-.75.75z"/><path d="m22.327 20h-8.654c-1.474 0-2.673-1.159-2.673-2.583v-1.833c0-1.425 1.199-2.584 2.673-2.584h.712v1.5h-.712c-.646 0-1.173.486-1.173 1.083v1.833c0 .598.526 1.083 1.173 1.083h8.654c.646 0 1.173-.486 1.173-1.083v-1.833c0-.598-.526-1.083-1.173-1.083h-.712v-1.5h.712c1.474 0 2.673 1.159 2.673 2.583v1.833c0 1.425-1.199 2.584-2.673 2.584z"/><path d="m19.75 23h-3.5c-.414 0-.75-.336-.75-.75v-2.5h1.5v1.75h2v-1.75h1.5v2.5c0 .414-.336.75-.75.75z"/><path d="m20.75 25.5h-5.5c-.414 0-.75-.336-.75-.75v-2.5c0-.414.336-.75.75-.75h5.5c.414 0 .75.336.75.75v2.5c0 .414-.336.75-.75.75zm-4.75-1.5h4v-1h-4z"/><path d="m16.25 30h-1.75c-.257 0-.495-.131-.633-.347l-1.75-2.75c-.15-.237-.156-.538-.015-.781l1.75-3c.134-.23.381-.372.647-.372h1.501v1.5h-1.069l-1.303 2.233 1.284 2.017h1.338z"/><path d="m21.5 30h-1.75v-1.5h1.338l1.284-2.017-1.303-2.233h-1.069v-1.5h1.5c.267 0 .514.142.647.372l1.75 3c.142.243.136.544-.015.781l-1.75 2.75c-.137.216-.375.347-.632.347z"/></svg>