<svg id="_x31__x2C_5" height="512" viewBox="0 0 36 36" width="512" xmlns="http://www.w3.org/2000/svg"><path d="m8.377 4.167c6.917 0 11.667-3.583 15-3.583s10.333 1.916 10.333 17.249-9.417 17.583-13.083 17.583c-17.167.001-24.5-31.249-12.25-31.249z" fill="#efefef"/><path d="m31.5 6c-.827 0-1.5-.673-1.5-1.5s.673-1.5 1.5-1.5 1.5.673 1.5 1.5-.673 1.5-1.5 1.5zm0-2c-.276 0-.5.224-.5.5s.224.5.5.5.5-.224.5-.5-.224-.5-.5-.5z" fill="#a4afc1"/><path d="m25.75 21.5h.75l2.25-3-2.25-3h-.75-4.5-.75l-2.25 3 2.25 3h.75z" fill="#2fdf84"/><path d="m14.25 22v2.5h-3.5v-2.578z" fill="#f3f3f1"/><circle cx="12.5" cy="19.5" fill="#2fdf84" r="2.75"/><circle cx="8.5" cy="8.5" fill="#2fdf84" r="1.75"/><circle cx="23.5" cy="8.5" fill="#2fdf84" r="1.75"/><path d="m10 17.667-1.97-7.222 2.152-.445 2.989 6.575z" fill="#f3f3f1"/><path d="m22 7.25h-12l.5 2.5h11z" fill="#f3f3f1"/><path d="m22.25 10.5h2.5v3.75h-2.5z" fill="#f3f3f1"/><path d="m21.25 14.25h4.5v2.5h-4.5z" fill="#f3f3f1"/><path d="m21.25 20.75h4.5v3.75h-4.5z" fill="#f3f3f1"/><path d="m27 29.25h-18c-1.243 0-2.25-1.007-2.25-2.25 0-1.243 1.007-2.25 2.25-2.25h18c1.243 0 2.25 1.007 2.25 2.25 0 1.243-1.007 2.25-2.25 2.25z" fill="#f3f3f1"/><g fill="#d5dbe1"><path d="m10.75 21.922v2.578h2.25v-2.528z"/><path d="m10.28 10.445.095-.02-.193-.425-2.152.445 1.97 7.222 2.057-.708z"/><path d="m10 7.25.5 2.5h2.25l-.5-2.5z"/><path d="m22.25 10.5h2.25v3.75h-2.25z"/><path d="m21.25 14.25h2.25v2.5h-2.25z"/><path d="m21.25 20.75h2.25v3.75h-2.25z"/><path d="m9 27c0-1.243 1.007-2.25 2.25-2.25h-2.25c-1.243 0-2.25 1.007-2.25 2.25s1.007 2.25 2.25 2.25h2.25c-1.243 0-2.25-1.007-2.25-2.25z"/></g><path d="m12 19.5c0-1.117.669-2.074 1.625-2.504-.344-.155-.723-.246-1.125-.246-1.519 0-2.75 1.231-2.75 2.75s1.231 2.75 2.75 2.75c.402 0 .781-.091 1.125-.246-.956-.43-1.625-1.387-1.625-2.504z" fill="#00b871"/><path d="m9 8.5c0-.536.246-1.009.625-1.33-.305-.258-.694-.42-1.125-.42-.966 0-1.75.784-1.75 1.75s.784 1.75 1.75 1.75c.431 0 .82-.162 1.125-.42-.379-.321-.625-.794-.625-1.33z" fill="#00b871"/><path d="m24 8.5c0-.536.246-1.009.625-1.33-.305-.258-.694-.42-1.125-.42-.966 0-1.75.784-1.75 1.75s.784 1.75 1.75 1.75c.431 0 .82-.162 1.125-.42-.379-.321-.625-.794-.625-1.33z" fill="#00b871"/><path d="m21.813 16.75h-.563v-1.25h-.75l-2.25 3 2.25 3h.75 1.5l-2.25-3z" fill="#00b871"/><path d="m10 21.922h1.5v2.578h-1.5z"/><path d="m13.5 22h1.5v2.5h-1.5z"/><path d="m12.5 23c-1.93 0-3.5-1.57-3.5-3.5s1.57-3.5 3.5-3.5 3.5 1.57 3.5 3.5-1.57 3.5-3.5 3.5zm0-5.5c-1.103 0-2 .897-2 2s.897 2 2 2 2-.897 2-2-.897-2-2-2z"/><path d="m8.5 11c-1.378 0-2.5-1.122-2.5-2.5s1.122-2.5 2.5-2.5 2.5 1.122 2.5 2.5-1.122 2.5-2.5 2.5zm0-3.5c-.551 0-1 .449-1 1s.449 1 1 1 1-.449 1-1-.449-1-1-1z"/><path d="m23.5 11c-1.378 0-2.5-1.122-2.5-2.5s1.122-2.5 2.5-2.5 2.5 1.122 2.5 2.5-1.122 2.5-2.5 2.5zm0-3.5c-.551 0-1 .449-1 1s.449 1 1 1 1-.449 1-1-.449-1-1-1z"/><path d="m10.926 9.676h1.5v7.223h-1.5z" transform="matrix(.91 -.414 .414 .91 -4.452 6.023)"/><path d="m8.265 10.312h1.5v7.486h-1.5z" transform="matrix(.965 -.263 .263 .965 -3.381 2.867)"/><path d="m9.75 9h12.5v1.5h-12.5z"/><path d="m9.25 6.5h13.5v1.5h-13.5z"/><path d="m24.75 15h-2.5c-.414 0-.75-.336-.75-.75v-4.5h1.5v3.75h1v-3.75h1.5v4.5c0 .414-.336.75-.75.75z"/><path d="m25.75 17.5h-4.5c-.414 0-.75-.336-.75-.75v-2.5c0-.414.336-.75.75-.75h4.5c.414 0 .75.336.75.75v2.5c0 .414-.336.75-.75.75zm-3.75-1.5h3v-1h-3z"/><path d="m22 22.25h-1.5c-.236 0-.458-.111-.6-.3l-2.25-3c-.2-.267-.2-.633 0-.9l2.25-3c.142-.188.364-.3.6-.3h1.5v1.5h-1.125l-1.688 2.25 1.688 2.25h1.125z"/><path d="m26.5 22.25h-1.5v-1.5h1.125l1.688-2.25-1.688-2.25h-1.125v-1.5h1.5c.236 0 .458.111.6.3l2.25 3c.2.267.2.633 0 .9l-2.25 3c-.142.189-.364.3-.6.3z"/><path d="m26.5 24.5h-1.5v-3h-3v3h-1.5v-3.75c0-.414.336-.75.75-.75h4.5c.414 0 .75.336.75.75z"/><path d="m27 30h-18c-1.654 0-3-1.346-3-3s1.346-3 3-3h18c1.654 0 3 1.346 3 3s-1.346 3-3 3zm-18-4.5c-.827 0-1.5.673-1.5 1.5s.673 1.5 1.5 1.5h18c.827 0 1.5-.673 1.5-1.5s-.673-1.5-1.5-1.5z"/><path d="m10 28c-.551 0-1-.449-1-1s.449-1 1-1 1 .449 1 1-.449 1-1 1z"/><path d="m15 28c-.551 0-1-.449-1-1s.449-1 1-1 1 .449 1 1-.449 1-1 1z"/><path d="m21 28c-.551 0-1-.449-1-1s.449-1 1-1 1 .449 1 1-.449 1-1 1z"/><path d="m26 28c-.551 0-1-.449-1-1s.449-1 1-1 1 .449 1 1-.449 1-1 1z"/></svg>