<svg id="_x31__x2C_5" enable-background="new 0 0 36 36" height="512" viewBox="0 0 36 36" width="512" xmlns="http://www.w3.org/2000/svg"><path d="m8.377 31.833c6.917 0 11.667 3.583 15 3.583s10.333-1.916 10.333-17.249-9.417-17.584-13.083-17.584c-17.167 0-24.5 31.25-12.25 31.25z" fill="#efefef"/><path d="m4.5 17c-.827 0-1.5-.673-1.5-1.5s.673-1.5 1.5-1.5 1.5.673 1.5 1.5-.673 1.5-1.5 1.5zm0-2c-.275 0-.5.224-.5.5s.225.5.5.5.5-.224.5-.5-.225-.5-.5-.5z" fill="#a4afc1"/><path d="m26.5 29.25h-17c-1.519 0-2.75-1.231-2.75-2.75s1.231-2.75 2.75-2.75h17c1.519 0 2.75 1.231 2.75 2.75s-1.231 2.75-2.75 2.75z" fill="#f3f3f1"/><g fill="#2fdf84"><path d="m24.25 9.25h-12.5c-.552 0-1-.448-1-1v-1.5h14.5v1.5c0 .552-.448 1-1 1z"/><path d="m20.25 9.25v.75c0 1.243-1.007 2.25-2.25 2.25s-2.25-1.007-2.25-2.25v-.75z"/><circle cx="25.25" cy="15" r="1.25"/></g><g fill="#00b871"><path d="m13 8.25v-1.5h-2.25v1.5c0 .552.448 1 1 1h2.25c-.552 0-1-.448-1-1z"/><path d="m18 10v-.75h-2.25v.75c0 1.243 1.007 2.25 2.25 2.25.412 0 .793-.119 1.125-.312-.67-.39-1.125-1.107-1.125-1.938z"/><path d="m26.25 15c0-.19.049-.365.125-.526-.2-.425-.625-.724-1.125-.724-.69 0-1.25.56-1.25 1.25s.56 1.25 1.25 1.25c.5 0 .925-.299 1.125-.724-.076-.161-.125-.336-.125-.526z"/></g><path d="m9 26.5c0-1.519 1.231-2.75 2.75-2.75h-2.25c-1.519 0-2.75 1.231-2.75 2.75s1.231 2.75 2.75 2.75h2.25c-1.519 0-2.75-1.231-2.75-2.75z" fill="#d5dbe1"/><path d="m26.5 30h-17c-1.93 0-3.5-1.57-3.5-3.5s1.57-3.5 3.5-3.5h17c1.93 0 3.5 1.57 3.5 3.5s-1.57 3.5-3.5 3.5zm-17-5.5c-1.103 0-2 .897-2 2s.897 2 2 2h17c1.103 0 2-.897 2-2s-.897-2-2-2z"/><path d="m11 27.5c-.552 0-1-.449-1-1s.448-1 1-1 1 .449 1 1-.448 1-1 1z"/><path d="m16 27.5c-.552 0-1-.449-1-1s.448-1 1-1 1 .449 1 1-.448 1-1 1z"/><path d="m21 27.5c-.552 0-1-.449-1-1s.448-1 1-1 1 .449 1 1-.448 1-1 1z"/><path d="m26 27.5c-.552 0-1-.449-1-1s.448-1 1-1 1 .449 1 1-.448 1-1 1z"/><path d="m24.25 10h-12.5c-.965 0-1.75-.785-1.75-1.75v-1.5c0-.414.336-.75.75-.75h14.5c.414 0 .75.336.75.75v1.5c0 .965-.785 1.75-1.75 1.75zm-12.75-2.5v.75c0 .138.112.25.25.25h12.5c.138 0 .25-.112.25-.25v-.75z"/><path d="m18 13c-1.654 0-3-1.346-3-3v-.75h1.5v.75c0 .827.673 1.5 1.5 1.5s1.5-.673 1.5-1.5v-.75h1.5v.75c0 1.654-1.346 3-3 3z"/><path d="m25.25 17c-1.103 0-2-.897-2-2s.897-2 2-2 2 .897 2 2-.897 2-2 2zm0-2.5c-.275 0-.5.224-.5.5s.225.5.5.5.5-.224.5-.5-.225-.5-.5-.5z"/><path d="m16 20.5h5v1.5h-5z"/><path d="m19.25 20.75h-1.5v-3.25c0-.314.195-.594.489-.704l6.054-2.24.521 1.407-5.563 2.059v2.728z"/><path d="m21.04 10.624h1.5v4.932h-1.5z" transform="matrix(.483 -.876 .876 .483 -.189 25.86)"/></svg>