<svg id="_x31__x2C_5" enable-background="new 0 0 36 36" height="512" viewBox="0 0 36 36" width="512" xmlns="http://www.w3.org/2000/svg"><path d="m8.377 31.833c6.917 0 11.667 3.583 15 3.583s10.333-1.916 10.333-17.249-9.417-17.584-13.083-17.584c-17.167 0-24.5 31.25-12.25 31.25z" fill="#efefef"/><path d="m30.995 12.81c-.827 0-1.5-.673-1.5-1.5s.673-1.5 1.5-1.5 1.5.673 1.5 1.5-.673 1.5-1.5 1.5zm0-2c-.275 0-.5.224-.5.5s.225.5.5.5.5-.224.5-.5-.224-.5-.5-.5z" fill="#a4afc1"/><path d="m24.25 14-6.25 2.25-6.25-2.25 6.25-2.25z" fill="#2fdf84"/><path d="m24.25 14v8l-6.25 2.25v-8z" fill="#f3f3f1"/><path d="m18 16.25v8l-6.25-2.25v-8z" fill="#f3f3f1"/><path d="m20.25 16.25 4-1.44v-.81l-6.25 2.25v8l2.25-.81z" fill="#d5dbe1"/><path d="m14 22v-7.19l-2.25-.81v8l6.25 2.25v-.81z" fill="#d5dbe1"/><path d="m18 17c-.086 0-.172-.015-.254-.044l-6.25-2.25c-.298-.107-.496-.39-.496-.706s.198-.599.496-.706l6.25-2.25c.164-.06.344-.06.508 0l6.25 2.25c.298.107.496.39.496.706s-.198.599-.496.706l-6.25 2.25c-.082.029-.168.044-.254.044zm-4.036-3 4.036 1.453 4.036-1.453-4.036-1.453z"/><path d="m18 25c-.086 0-.172-.015-.254-.044l-6.25-2.25c-.298-.107-.496-.39-.496-.706v-8h1.5v7.473l5.5 1.98 5.5-1.98v-7.473h1.5v8c0 .316-.198.599-.496.706l-6.25 2.25c-.082.029-.168.044-.254.044z"/><path d="m17.25 16.25h1.5v8h-1.5z"/><path d="m27.25 12h-3.25v-1.5h2.5v-2.5h1.5v3.25c0 .414-.336.75-.75.75z"/><path d="m6.513 21.466c-.34-1.127-.513-2.293-.513-3.466 0-6.617 5.383-12 12-12 3.689 0 7.108 1.653 9.379 4.536l-1.178.928c-1.984-2.519-4.973-3.964-8.201-3.964-5.79 0-10.5 4.71-10.5 10.5 0 1.026.151 2.046.448 3.034z"/><path d="m9.5 28h-1.5v-3.25c0-.414.336-.75.75-.75h3.25v1.5h-2.5z"/><path d="m18 30c-3.689 0-7.108-1.653-9.379-4.536l1.178-.928c1.984 2.519 4.973 3.964 8.201 3.964 5.79 0 10.5-4.71 10.5-10.5 0-1.026-.151-2.046-.448-3.034l1.436-.433c.339 1.128.512 2.294.512 3.467 0 6.617-5.383 12-12 12z"/></svg>