<svg id="_x31__x2C_5" enable-background="new 0 0 36 36" height="512" viewBox="0 0 36 36" width="512" xmlns="http://www.w3.org/2000/svg"><path d="m27.623 4.167c-6.917 0-11.667-3.583-15-3.583s-10.333 1.916-10.333 17.249 9.417 17.583 13.083 17.583c17.167.001 24.5-31.249 12.25-31.249z" fill="#efefef"/><path d="m32.5 14.88c-.827 0-1.5-.673-1.5-1.5s.673-1.5 1.5-1.5 1.5.673 1.5 1.5-.673 1.5-1.5 1.5zm0-2c-.275 0-.5.224-.5.5s.225.5.5.5.5-.224.5-.5-.225-.5-.5-.5z" fill="#a4afc1"/><g fill="#2fdf84"><path d="m26.75 26.75h2.5v2.5h-2.5z"/><path d="m6.75 26.75h2.5v2.5h-2.5z"/><path d="m26.75 6.75h2.5v2.5h-2.5z"/><path d="m6.75 6.75h2.5v2.5h-2.5z"/></g><path d="m24.25 14-6.25 2.25-6.25-2.25 6.25-2.25z" fill="#f3f3f1"/><path d="m24.25 14v8l-6.25 2.25v-8z" fill="#f3f3f1"/><path d="m18 16.25v8l-6.25-2.25v-8z" fill="#f3f3f1"/><path d="m20.25 16.25 4-1.44v-.81l-6.25 2.25v8l2.25-.81z" fill="#d5dbe1"/><path d="m14 22v-7.19l-2.25-.81v8l6.25 2.25v-.81z" fill="#d5dbe1"/><path d="m29.25 30h-2.5c-.414 0-.75-.336-.75-.75v-2.5c0-.414.336-.75.75-.75h2.5c.414 0 .75.336.75.75v2.5c0 .414-.336.75-.75.75zm-1.75-1.5h1v-1h-1z"/><path d="m9.25 30h-2.5c-.414 0-.75-.336-.75-.75v-2.5c0-.414.336-.75.75-.75h2.5c.414 0 .75.336.75.75v2.5c0 .414-.336.75-.75.75zm-1.75-1.5h1v-1h-1z"/><path d="m29.25 10h-2.5c-.414 0-.75-.336-.75-.75v-2.5c0-.414.336-.75.75-.75h2.5c.414 0 .75.336.75.75v2.5c0 .414-.336.75-.75.75zm-1.75-1.5h1v-1h-1z"/><path d="m9.25 10h-2.5c-.414 0-.75-.336-.75-.75v-2.5c0-.414.336-.75.75-.75h2.5c.414 0 .75.336.75.75v2.5c0 .414-.336.75-.75.75zm-1.75-1.5h1v-1h-1z"/><path d="m8.75 26.5h-1.5v-2h1.5zm0-5h-1.5v-2h1.5zm0-5h-1.5v-2h1.5zm0-5h-1.5v-2h1.5z"/><path d="m28.75 26.5h-1.5v-2h1.5zm0-5h-1.5v-2h1.5zm0-5h-1.5v-2h1.5zm0-5h-1.5v-2h1.5z"/><path d="m26.5 28.75h-2v-1.5h2zm-5 0h-2v-1.5h2zm-5 0h-2v-1.5h2zm-5 0h-2v-1.5h2z"/><path d="m26.5 8.75h-2v-1.5h2zm-5 0h-2v-1.5h2zm-5 0h-2v-1.5h2zm-5 0h-2v-1.5h2z"/><path d="m18 17c-.086 0-.172-.015-.254-.044l-6.25-2.25c-.298-.107-.496-.39-.496-.706s.198-.599.496-.706l6.25-2.25c.164-.06.344-.06.508 0l6.25 2.25c.298.107.496.39.496.706s-.198.599-.496.706l-6.25 2.25c-.082.029-.168.044-.254.044zm-4.036-3 4.036 1.453 4.036-1.453-4.036-1.453z"/><path d="m18 25c-.086 0-.172-.015-.254-.044l-6.25-2.25c-.298-.107-.496-.39-.496-.706v-8h1.5v7.473l5.5 1.98 5.5-1.98v-7.473h1.5v8c0 .316-.198.599-.496.706l-6.25 2.25c-.082.029-.168.044-.254.044z"/><path d="m17.25 16.25h1.5v8h-1.5z"/></svg>