<svg id="_x31__x2C_5" enable-background="new 0 0 36 36" height="512" viewBox="0 0 36 36" width="512" xmlns="http://www.w3.org/2000/svg"><path d="m8.377 4.167c6.917 0 11.667-3.583 15-3.583s10.333 1.916 10.333 17.249-9.417 17.583-13.083 17.583c-17.167.001-24.5-31.249-12.25-31.249z" fill="#efefef"/><g fill="#a4afc1"><path d="m28.438 4h1v2h-1z" transform="matrix(.707 -.707 .707 .707 4.94 21.926)"/><path d="m32.503 8.066h1v2h-1z" transform="matrix(.707 -.707 .707 .707 3.256 25.992)"/><path d="m31.826 4.5h2v1h-2z" transform="matrix(.707 -.707 .707 .707 6.079 24.676)"/></g><path d="m29.25 14.75v12.5c0 1.1-.9 2-2 2h-18.5c-1.1 0-2-.9-2-2v-12.5z" fill="#f3f3f1"/><path d="m29.25 10.75v4h-22.5v-4c0-1.1.9-2 2-2h18.5c1.1 0 2 .9 2 2z" fill="#f3f3f1"/><path d="m23.25 18.5-5.25 1.75-5.25-1.75 5.25-1.75z" fill="#2fdf84"/><path d="m23.25 18.5v7l-5.25 1.75v-7z" fill="#2fdf84"/><path d="m18 20.25v7l-5.25-1.75v-7z" fill="#2fdf84"/><path d="m9 27.25v-12.5h-2.25v12.5c0 1.1.9 2 2 2h2.25c-1.1 0-2-.9-2-2z" fill="#d5dbe1"/><path d="m11 8.75h-2.25c-1.1 0-2 .9-2 2v4h2.25v-4c0-1.1.9-2 2-2z" fill="#d5dbe1"/><path d="m20.25 20.25 3-1v-.75l-5.25 1.75v7l2.25-.75z" fill="#00b871"/><path d="m15 25.5v-6.25l-2.25-.75v7l5.25 1.75v-.75z" fill="#00b871"/><path d="m27.25 30h-18.5c-1.517 0-2.75-1.233-2.75-2.75v-16.5c0-1.517 1.233-2.75 2.75-2.75h18.5c1.517 0 2.75 1.233 2.75 2.75v16.5c0 1.517-1.233 2.75-2.75 2.75zm-18.5-20.5c-.689 0-1.25.561-1.25 1.25v16.5c0 .689.561 1.25 1.25 1.25h18.5c.689 0 1.25-.561 1.25-1.25v-16.5c0-.689-.561-1.25-1.25-1.25z"/><path d="m6.75 14h22.5v1.5h-22.5z"/><path d="m11 6h1.5v6h-1.5z"/><path d="m23.5 6h1.5v6h-1.5z"/><path d="m18 21c-.08 0-.16-.013-.237-.038l-5.25-1.75c-.306-.103-.513-.389-.513-.712s.207-.609.513-.711l5.25-1.75c.154-.052.32-.052.475 0l5.25 1.75c.305.102.512.388.512.711s-.207.609-.513.712l-5.25 1.75c-.077.025-.157.038-.237.038zm-2.878-2.5 2.878.959 2.878-.959-2.878-.959z"/><path d="m18 28c-.08 0-.16-.013-.237-.038l-5.25-1.75c-.306-.103-.513-.389-.513-.712v-7h1.5v6.459l4.5 1.5 4.5-1.5v-6.459h1.5v7c0 .323-.207.609-.513.712l-5.25 1.75c-.077.025-.157.038-.237.038z"/><path d="m17.25 20.25h1.5v7h-1.5z"/></svg>