<svg id="_x31__x2C_5" height="512" viewBox="0 0 36 36" width="512" xmlns="http://www.w3.org/2000/svg"><path d="m34.928 20.591c-3.693-5.848-3.199-11.778-4.979-14.596s-7.138-7.714-20.103.473-9.84 17.35-7.882 20.45c9.166 14.515 39.504 4.031 32.964-6.327z" fill="#efefef"/><path d="m3.605 12.605c-.401 0-.778-.156-1.061-.439s-.439-.66-.439-1.061.156-.778.439-1.061c.565-.565 1.554-.566 2.121 0 .283.283.439.66.439 1.061 0 .4-.156.777-.439 1.061s-.659.439-1.06.439zm0-2c-.134 0-.259.052-.353.146-.095.095-.147.22-.147.354 0 .133.052.259.146.354.189.19.518.189.707 0 .094-.095.146-.22.146-.354s-.052-.259-.146-.353-.219-.147-.353-.147z" fill="#a4afc1"/><circle cx="23" cy="23" fill="#2fdf84" r="4.25"/><g fill="#f3f3f1"><path d="m15 6.5h-6.75l-1.5 2v1h2.5v18.5c0 .552.448 1 1 1h2.5c.552 0 1-.448 1-1v-18.5h7z"/><path d="m14 15.5h6.25l-3.75 2.5h-2.5z"/><path d="m9.25 15.5h-1.5c-.552 0-1 .448-1 1v.5c0 .552.448 1 1 1h1.5z"/></g><circle cx="18.5" cy="12.25" fill="#2fdf84" r="2.75"/><path d="m21 23c0-1.955 1.328-3.585 3.125-4.08-.361-.099-.733-.17-1.125-.17-2.347 0-4.25 1.903-4.25 4.25s1.903 4.25 4.25 4.25c.392 0 .764-.07 1.125-.17-1.797-.495-3.125-2.125-3.125-4.08z" fill="#00b871"/><path d="m11.5 28v-18.5h-2.25v18.5c0 .552.448 1 1 1h2.25c-.552 0-1-.448-1-1z" fill="#d5dbe1"/><path d="m14 15.5h2.25v2.5h-2.25z" fill="#d5dbe1"/><path d="m9 17v-.5c0-.249.1-.469.25-.643v-.357h-1.5c-.552 0-1 .448-1 1v.5c0 .552.448 1 1 1h1.5v-.357c-.15-.174-.25-.395-.25-.643z" fill="#d5dbe1"/><path d="m18 12.25c0-1.117.669-2.074 1.625-2.504-.344-.155-.723-.246-1.125-.246-1.519 0-2.75 1.231-2.75 2.75s1.231 2.75 2.75 2.75c.402 0 .781-.091 1.125-.246-.956-.43-1.625-1.387-1.625-2.504z" fill="#00b871"/><path d="m23 28c-2.757 0-5-2.243-5-5s2.243-5 5-5 5 2.243 5 5-2.243 5-5 5zm0-8.5c-1.93 0-3.5 1.57-3.5 3.5s1.57 3.5 3.5 3.5 3.5-1.57 3.5-3.5-1.57-3.5-3.5-3.5z"/><path d="m26.966 24.796h1.5v5.839h-1.5z" transform="matrix(.707 -.707 .707 .707 -11.48 27.714)"/><path d="m11.5 30c-1.654 0-3-1.346-3-3v-16.5h-1.75c-.414 0-.75-.336-.75-.75v-1c0-.162.053-.32.15-.45l1.5-2c.142-.189.364-.3.6-.3h6.75c.121 0 .24.029.347.085l5.75 3c.307.16.464.508.382.844-.083.335-.383.571-.729.571h-6.25v16.5c0 1.654-1.346 3-3 3zm-4-21h1.75c.414 0 .75.336.75.75v17.25c0 .827.673 1.5 1.5 1.5s1.5-.673 1.5-1.5v-17.25c0-.414.336-.75.75-.75h3.941l-2.875-1.5h-6.191z"/><path d="m16.5 19h-2.5c-.414 0-.75-.336-.75-.75s.336-.75.75-.75h2.273l1.5-1h-3.773c-.414 0-.75-.336-.75-.75s.336-.75.75-.75h6.25c.331 0 .622.216.718.533s-.027.658-.302.841l-3.75 2.5c-.123.082-.268.126-.416.126z"/><path d="m9.25 19h-1.5c-.965 0-1.75-.785-1.75-1.75v-.5c0-.965.785-1.75 1.75-1.75h1.5c.414 0 .75.336.75.75s-.336.75-.75.75h-1.5c-.138 0-.25.112-.25.25v.5c0 .138.112.25.25.25h1.5c.414 0 .75.336.75.75s-.336.75-.75.75z"/><path d="m18.5 16c-1.93 0-3.5-1.57-3.5-3.5s1.57-3.5 3.5-3.5 3.5 1.57 3.5 3.5-1.57 3.5-3.5 3.5zm0-5.5c-1.103 0-2 .897-2 2s.897 2 2 2 2-.897 2-2-.897-2-2-2z"/><circle cx="18.5" cy="12.5" r="1"/><path d="m12 23h2.25v1.5h-2.25z"/><path d="m12 20h2.25v1.5h-2.25z"/><path d="m12 17h2.25v1.5h-2.25z"/><path d="m12 14h2.25v1.5h-2.25z"/><path d="m12 11h2.25v1.5h-2.25z"/></svg>