<svg id="_x31__x2C_5" enable-background="new 0 0 36 36" height="512" viewBox="0 0 36 36" width="512" xmlns="http://www.w3.org/2000/svg"><path d="m8.377 31.833c6.917 0 11.667 3.583 15 3.583s10.333-1.916 10.333-17.249-9.417-17.584-13.083-17.584c-17.167 0-24.5 31.25-12.25 31.25z" fill="#efefef"/><g fill="#a4afc1"><path d="m25.023 6.793h1v2h-1z" transform="matrix(.707 -.707 .707 .707 1.969 20.338)"/><path d="m20.957 2.727h1v2h-1z" transform="matrix(.707 -.707 .707 .707 3.649 16.264)"/><path d="m24.523 3.404h2v1h-2z" transform="matrix(.707 -.707 .707 .707 4.715 19.191)"/></g><path d="m20.75 12-5.25 1.75-5.25-1.75 5.25-1.75z" fill="#2fdf84"/><path d="m20.75 12v7l-5.25 1.75v-7z" fill="#2fdf84"/><path d="m15.5 13.75v7l-5.25-1.75v-7z" fill="#2fdf84"/><path d="m17.75 13.75 3-1v-.75l-5.25 1.75v7l2.25-.75z" fill="#00b871"/><path d="m12.5 19v-6.25l-2.25-.75v7l5.25 1.75v-.75z" fill="#00b871"/><path d="m15.5 25c-5.238 0-9.5-4.262-9.5-9.5s4.262-9.5 9.5-9.5 9.5 4.262 9.5 9.5-4.262 9.5-9.5 9.5zm0-17.5c-4.411 0-8 3.589-8 8s3.589 8 8 8 8-3.589 8-8-3.589-8-8-8z"/><path d="m24.807 20.334h1.5v10.445h-1.5z" transform="matrix(.707 -.707 .707 .707 -10.586 25.556)"/><path d="m15.5 14.5c-.08 0-.16-.013-.237-.039l-5.25-1.75c-.306-.102-.513-.388-.513-.711s.207-.609.513-.711l5.25-1.75c.154-.052.32-.052.475 0l5.25 1.75c.305.102.512.388.512.711s-.207.609-.513.711l-5.25 1.75c-.077.026-.157.039-.237.039zm-2.878-2.5 2.878.959 2.878-.959-2.878-.959z"/><path d="m15.5 21.5c-.08 0-.16-.013-.237-.039l-5.25-1.75c-.306-.102-.513-.388-.513-.711v-7h1.5v6.459l4.5 1.5 4.5-1.5v-6.459h1.5v7c0 .323-.207.609-.513.711l-5.25 1.75c-.077.026-.157.039-.237.039z"/><path d="m14.75 13.75h1.5v7h-1.5z"/></svg>