<svg id="_x31__x2C_5" enable-background="new 0 0 36 36" height="512" viewBox="0 0 36 36" width="512" xmlns="http://www.w3.org/2000/svg"><path d="m4.167 27.623c0-6.917-3.583-11.667-3.583-15s1.916-10.333 17.249-10.333 17.583 9.417 17.583 13.083c.001 17.167-31.249 24.5-31.249 12.25z" fill="#efefef"/><path d="m6.095 26.84c-.827 0-1.5-.673-1.5-1.5s.673-1.5 1.5-1.5 1.5.673 1.5 1.5-.673 1.5-1.5 1.5zm0-2c-.276 0-.5.224-.5.5s.224.5.5.5.5-.224.5-.5-.224-.5-.5-.5z" fill="#a4afc1"/><path d="m18 29.25s9.25-2.446 9.25-11.075c0-4.821 0-8.001 0-8.001l-9.25-3.424-9.25 3.424v8.001c0 8.629 9.25 11.075 9.25 11.075z" fill="#f3f3f1"/><g fill="#2fdf84"><path d="m23.25 13.5-5.25 1.75-5.25-1.75 5.25-1.75z"/><path d="m23.25 13.5v7l-5.25 1.75v-7z"/><path d="m18 15.25v7l-5.25-1.75v-7z"/></g><path d="m11 18.175c0-4.821 0-8.001 0-8.001l8.125-3.007-1.125-.417-9.25 3.424v8.001c0 8.629 9.25 11.075 9.25 11.075s.447-.124 1.125-.39c-2.457-.966-8.125-3.921-8.125-10.685z" fill="#d5dbe1"/><path d="m20.25 15.25 3-1v-.75l-5.25 1.75v7l2.25-.75z" fill="#00b871"/><path d="m15 20.5v-6.25l-2.25-.75v7l5.25 1.75v-.75z" fill="#00b871"/><path d="m18 30c-.064 0-.129-.008-.192-.025-.098-.026-9.808-2.699-9.808-11.8v-8.001c0-.314.195-.594.49-.703l9.25-3.424c.168-.062.353-.062.521 0l9.25 3.424c.294.109.489.389.489.703v8.001c0 9.102-9.71 11.774-9.808 11.8-.063.017-.128.025-.192.025zm-8.5-19.304v7.479c0 7.297 7.232 9.894 8.503 10.294 1.32-.402 8.497-2.93 8.497-10.294v-7.479l-8.5-3.146z"/><path d="m18 16c-.08 0-.16-.013-.237-.039l-5.25-1.75c-.306-.102-.513-.388-.513-.711s.207-.609.513-.711l5.25-1.75c.154-.052.32-.052.475 0l5.25 1.75c.305.102.512.388.512.711s-.207.609-.513.711l-5.25 1.75c-.077.026-.157.039-.237.039zm-2.878-2.5 2.878.959 2.878-.959-2.878-.959z"/><path d="m18 23c-.08 0-.16-.013-.237-.039l-5.25-1.75c-.306-.102-.513-.388-.513-.711v-7h1.5v6.459l4.5 1.5 4.5-1.5v-6.459h1.5v7c0 .323-.207.609-.513.711l-5.25 1.75c-.077.026-.157.039-.237.039z"/><path d="m17.25 15.25h1.5v7h-1.5z"/></svg>