<svg id="_x31__x2C_5" enable-background="new 0 0 36 36" height="512" viewBox="0 0 36 36" width="512" xmlns="http://www.w3.org/2000/svg"><path d="m31.833 27.623c0-6.917 3.583-11.667 3.583-15s-1.916-10.333-17.249-10.333-17.584 9.417-17.584 13.083c0 17.167 31.25 24.5 31.25 12.25z" fill="#efefef"/><g fill="#a4afc1"><path d="m24.717 4.707h1v2h-1z" transform="matrix(.707 -.707 .707 .707 3.35 19.503)"/><path d="m28.783 8.773h1v2h-1z" transform="matrix(.707 -.707 .707 .707 1.662 23.559)"/><path d="m28.107 5.207h2v1h-2z" transform="matrix(.707 -.707 .707 .707 4.49 22.253)"/></g><path d="m25.25 10-9.25 3.25-9.25-3.25 9.25-3.24z" fill="#f3f3f1"/><path d="m25.25 10v12l-9.25 3.25v-12z" fill="#f3f3f1"/><path d="m16 13.25v12l-9.25-3.25v-12z" fill="#f3f3f1"/><path d="m24 29.25s5.25-2.321 5.25-6.964c0-1.857 0-3.929 0-3.929l-5.25-1.607-5.25 1.607v3.929c0 4.643 5.25 6.964 5.25 6.964z" fill="#2fdf84"/><path d="m18.25 13.25 7-2.459v-.791l-9.25 3.25v12l2.25-.791z" fill="#d5dbe1"/><path d="m9 22v-11.209l-2.25-.791v12l9.25 3.25v-.791z" fill="#d5dbe1"/><path d="m21 22.286c0-2.786 0-3.929 0-3.929l4.125-1.263-1.125-.344-5.25 1.607v3.929c0 4.643 5.25 6.964 5.25 6.964s.471-.211 1.125-.623c-1.542-.971-4.125-3.082-4.125-6.341z" fill="#00b871"/><path d="m16 14c-.084 0-.168-.014-.249-.042l-9.25-3.25c-.3-.105-.501-.39-.501-.708s.201-.603.501-.708l9.25-3.25c.162-.057.336-.057.498 0l9.25 3.25c.3.105.501.39.501.708s-.201.603-.501.708l-9.25 3.25c-.081.028-.165.042-.249.042zm-6.987-4 6.987 2.455 6.987-2.455-6.987-2.455z"/><path d="m24.5 10h1.5v3.25h-1.5z"/><path d="m15.732 25.948-9.23-3.24c-.301-.105-.502-.39-.502-.708v-12h1.5v11.469l8.729 3.063z"/><path d="m15.25 13.25h1.5v3h-1.5z"/><path d="m24 30c-.104 0-.207-.021-.304-.064-.232-.103-5.696-2.578-5.696-7.65v-3.929c0-.33.215-.621.53-.717l5.25-1.607c.143-.045.297-.045.439 0l5.25 1.607c.315.096.53.387.53.717v3.929c0 5.072-5.464 7.547-5.696 7.649-.096.044-.199.065-.303.065zm-4.5-11.088v3.374c0 3.494 3.442 5.571 4.499 6.127 1.056-.558 4.501-2.646 4.501-6.127v-3.374l-4.5-1.378z"/><path d="m23.5 25c-.199 0-.39-.079-.53-.22l-1.75-1.75 1.061-1.061 1.2 1.199 2.72-2.93 1.1 1.021-3.25 3.5c-.139.148-.332.235-.536.239-.006.002-.01.002-.015.002z"/></svg>