<svg id="_x31__x2C_5" height="512" viewBox="0 0 36 36" width="512" xmlns="http://www.w3.org/2000/svg"><path d="m4.167 8.377c0 6.917-3.583 11.667-3.583 15s1.916 10.333 17.249 10.333 17.583-9.417 17.583-13.083c.001-17.167-31.249-24.5-31.249-12.25z" fill="#efefef"/><path d="m5.033 2.467h2v1h-2z" fill="#a4afc1" transform="matrix(.707 -.707 .707 .707 -.331 5.135)"/><path d="m.967 6.533h2v1h-2z" fill="#a4afc1" transform="matrix(.707 -.707 .707 .707 -4.397 3.451)"/><path d="m1.644 1.967h1v2h-1z" fill="#a4afc1" transform="matrix(.707 -.707 .707 .707 -1.47 2.385)"/><path d="m15.872 13.204c.039-.23.069-.463.069-.704s-.03-.474-.069-.704l1.185-.88c.193-.144.25-.415.131-.629l-.739-1.324c-.119-.213-.375-.298-.592-.197l-1.34.624c-.347-.3-.738-.54-1.171-.703l-.146-1.506c-.024-.245-.223-.431-.461-.431h-1.479c-.238 0-.438.187-.461.431l-.146 1.506c-.432.163-.824.403-1.17.703l-1.339-.624c-.217-.101-.473-.016-.592.197l-.739 1.324c-.12.213-.063.485.13.629l1.185.88c-.039.23-.069.463-.069.704s.03.474.069.704l-1.185.88c-.193.144-.25.415-.131.629l.739 1.324c.119.213.375.298.592.197l1.339-.624c.347.3.738.54 1.171.703l.146 1.506c.024.245.223.431.461.431h1.479c.238 0 .438-.187.461-.431l.146-1.506c.433-.163.824-.403 1.171-.703l1.339.624c.217.101.473.016.592-.197l.739-1.324c.119-.213.062-.485-.131-.629z" fill="#2fdf84"/><g fill="#f3f3f1"><path d="m17.75 19.75h4.5v4.5h-4.5z"/><path d="m20.75 14.75h4.5v4.5h-4.5z"/><path d="m22.75 19.75h4.5v4.5h-4.5z"/><circle cx="12" cy="12.5" r="1.75"/><path d="m27 29.25h-18c-1.243 0-2.25-1.007-2.25-2.25 0-1.243 1.007-2.25 2.25-2.25h18c1.243 0 2.25 1.007 2.25 2.25 0 1.243-1.007 2.25-2.25 2.25z"/></g><path d="m17.75 19.75h2.25v4.5h-2.25z" fill="#d5dbe1"/><path d="m20.75 14.75h2.25v4.5h-2.25z" fill="#d5dbe1"/><path d="m22.75 19.75h2.25v4.5h-2.25z" fill="#d5dbe1"/><path d="m12.5 12.5c0-.536.246-1.009.625-1.33-.305-.258-.694-.42-1.125-.42-.966 0-1.75.784-1.75 1.75s.784 1.75 1.75 1.75c.431 0 .82-.162 1.125-.42-.379-.321-.625-.794-.625-1.33z" fill="#d5dbe1"/><path d="m9 27c0-1.243 1.007-2.25 2.25-2.25h-2.25c-1.243 0-2.25 1.007-2.25 2.25s1.007 2.25 2.25 2.25h2.25c-1.243 0-2.25-1.007-2.25-2.25z" fill="#d5dbe1"/><path d="m9.062 14.713c-.119-.213-.062-.485.131-.629l1.185-.88c-.039-.23-.069-.463-.069-.704s.03-.474.069-.704l-1.185-.88c-.193-.144-.25-.416-.131-.629l.556-.995c-.044.035-.093.062-.135.098l-1.339-.624c-.217-.101-.473-.016-.592.197l-.74 1.324c-.119.213-.062.485.131.628l1.185.88c-.039.23-.069.463-.069.704s.03.474.069.704l-1.185.88c-.193.144-.25.415-.131.629l.74 1.324c.119.213.375.298.592.197l1.339-.624c.042.037.092.064.135.099z" fill="#00b871"/><path d="m22.25 25h-4.5c-.414 0-.75-.336-.75-.75v-4.5c0-.414.336-.75.75-.75h4.5c.414 0 .75.336.75.75v4.5c0 .414-.336.75-.75.75zm-3.75-1.5h3v-3h-3z"/><path d="m25.25 20h-4.5c-.414 0-.75-.336-.75-.75v-4.5c0-.414.336-.75.75-.75h4.5c.414 0 .75.336.75.75v4.5c0 .414-.336.75-.75.75zm-3.75-1.5h3v-3h-3z"/><path d="m27.25 25h-4.5c-.414 0-.75-.336-.75-.75v-4.5c0-.414.336-.75.75-.75h4.5c.414 0 .75.336.75.75v4.5c0 .414-.336.75-.75.75zm-3.75-1.5h3v-3h-3z"/><path d="m12 15c-1.378 0-2.5-1.122-2.5-2.5s1.122-2.5 2.5-2.5 2.5 1.122 2.5 2.5-1.122 2.5-2.5 2.5zm0-3.5c-.551 0-1 .449-1 1s.449 1 1 1 1-.449 1-1-.449-1-1-1z"/><path d="m12.739 19h-1.479c-.628 0-1.147-.478-1.208-1.11l-.104-1.068c-.195-.099-.384-.211-.565-.338l-.923.431c-.568.266-1.255.042-1.563-.51l-.74-1.325c-.303-.543-.157-1.229.339-1.598l.831-.617c-.01-.115-.017-.238-.017-.365s.007-.25.017-.365l-.831-.617c-.496-.369-.642-1.055-.338-1.597l.739-1.324c.31-.552.997-.776 1.564-.51l.923.43c.181-.127.37-.24.565-.338l.104-1.069c.06-.632.58-1.11 1.208-1.11h1.479c.628 0 1.147.478 1.208 1.11l.104 1.068c.195.099.384.211.565.338l.923-.431c.568-.266 1.255-.041 1.563.51l.74 1.324c.303.542.157 1.229-.338 1.597l-.831.617c.01.115.017.238.017.365s-.007.25-.017.365l.831.617c.496.368.642 1.055.338 1.597l-.739 1.324c-.309.552-.995.778-1.564.51l-.923-.43c-.181.127-.37.24-.565.338l-.104 1.069c-.061.634-.581 1.112-1.209 1.112zm-1.217-1.5h.956l.122-1.259c.028-.284.214-.528.481-.629.339-.128.657-.319.944-.568.224-.194.541-.238.808-.113l1.09.508.498-.891-.997-.741c-.227-.168-.339-.45-.292-.728.032-.188.058-.38.058-.578s-.026-.39-.058-.578c-.047-.278.065-.56.292-.728l.997-.741-.498-.891-1.09.508c-.268.125-.584.081-.808-.113-.287-.249-.605-.44-.944-.568-.267-.101-.454-.345-.481-.629l-.122-1.261h-.956l-.122 1.259c-.028.284-.214.528-.481.629-.339.128-.657.319-.944.568-.224.194-.541.238-.808.113l-1.09-.508-.498.891.997.741c.227.168.339.45.292.728-.032.188-.058.38-.058.578s.026.39.058.578c.047.278-.065.56-.292.728l-.997.741.498.891 1.09-.508c.268-.125.584-.081.808.113.287.249.605.44.944.568.267.101.454.345.481.629z"/><path d="m27 30h-18c-1.654 0-3-1.346-3-3s1.346-3 3-3h18c1.654 0 3 1.346 3 3s-1.346 3-3 3zm-18-4.5c-.827 0-1.5.673-1.5 1.5s.673 1.5 1.5 1.5h18c.827 0 1.5-.673 1.5-1.5s-.673-1.5-1.5-1.5z"/><path d="m10 28c-.551 0-1-.449-1-1s.449-1 1-1 1 .449 1 1-.449 1-1 1z"/><path d="m15 28c-.551 0-1-.449-1-1s.449-1 1-1 1 .449 1 1-.449 1-1 1z"/><path d="m21 28c-.551 0-1-.449-1-1s.449-1 1-1 1 .449 1 1-.449 1-1 1z"/><path d="m26 28c-.551 0-1-.449-1-1s.449-1 1-1 1 .449 1 1-.449 1-1 1z"/></svg>