<svg id="_x31__x2C_5" height="512" viewBox="0 0 36 36" width="512" xmlns="http://www.w3.org/2000/svg"><path d="m31.833 27.623c0-6.917 3.583-11.667 3.583-15s-1.916-10.333-17.249-10.333-17.584 9.417-17.584 13.083c0 17.167 31.25 24.5 31.25 12.25z" fill="#efefef"/><g fill="#a4afc1"><path d="m28.467 1.967h1v2h-1z" transform="matrix(.707 -.707 .707 .707 6.39 21.356)"/><path d="m32.533 6.033h1v2h-1z" transform="matrix(.707 -.707 .707 .707 4.705 25.423)"/><path d="m31.856 2.467h2v1h-2z" transform="matrix(.707 -.707 .707 .707 7.526 24.102)"/></g><path d="m27 16.25h-8c-1.243 0-2.25-1.007-2.25-2.25 0-1.243 1.007-2.25 2.25-2.25h8c1.243 0 2.25 1.007 2.25 2.25 0 1.243-1.007 2.25-2.25 2.25z" fill="#2fdf84"/><path d="m20.75 6.75h4.5v4.75h-4.5z" fill="#2fdf84"/><path d="m6.75 18.75v8.5h2.75l2-7.386s-1.458-1.114-4.75-1.114z" fill="#2fdf84"/><path d="m26.75 24c-1.298 0-2.805.628-4.25 1.071v-.431c0-.95-.67-1.77-1.6-1.96l-9.63-1.97-1.47 5.43c1.92.9 6.82 3.11 9.2 3.11 3 0 10.25-4 10.25-4s-.5-1.25-2.5-1.25z" fill="#f3f3f1"/><path d="m19 14c0-1.243 1.007-2.25 2.25-2.25h-2.25c-1.243 0-2.25 1.007-2.25 2.25s1.007 2.25 2.25 2.25h2.25c-1.243 0-2.25-1.007-2.25-2.25z" fill="#00b871"/><path d="m20.75 6.75h2.25v4.75h-2.25z" fill="#00b871"/><path d="m6.75 18.75v8.5h2.25v-8.3c-.626-.117-1.367-.2-2.25-.2z" fill="#00b871"/><path d="m12.05 26.14 1.352-4.994-2.132-.436-1.47 5.43c1.92.9 6.82 3.11 9.2 3.11.315 0 .684-.052 1.078-.131-2.561-.482-6.384-2.208-8.028-2.979z" fill="#d5dbe1"/><path d="m9.5 28h-2.75c-.414 0-.75-.336-.75-.75v-8.5c0-.414.336-.75.75-.75 3.505 0 5.138 1.217 5.205 1.269.242.185.349.498.269.792l-2 7.386c-.089.326-.385.553-.724.553zm-2-1.5h1.426l1.698-6.271c-.523-.247-1.546-.615-3.125-.707v6.978z"/><path d="m19 30c-2.259 0-6.423-1.73-9.519-3.182-.375-.176-.537-.622-.361-.997.176-.376.622-.539.998-.36 4.12 1.932 7.357 3.039 8.882 3.039 2.028 0 6.632-2.19 9.044-3.454-.278-.159-.692-.296-1.294-.296-.878 0-1.963.361-3.013.712-1.163.388-2.366.788-3.487.788-2.108 0-4.889-1.003-5.006-1.045-.389-.142-.59-.572-.448-.961s.572-.588.96-.449c.026.01 2.652.955 4.494.955.878 0 1.963-.361 3.013-.712 1.163-.388 2.366-.788 3.487-.788 2.479 0 3.168 1.651 3.196 1.722.141.352-.002.752-.334.935-.302.167-7.455 4.093-10.612 4.093z"/><path d="m22.5 25.84c-.414 0-.75-.336-.75-.75v-.45c0-.591-.421-1.106-1-1.226l-9.63-1.97c-.406-.083-.667-.479-.584-.885s.48-.669.885-.584l9.63 1.97c1.274.261 2.2 1.394 2.2 2.694v.45c-.001.415-.337.751-.751.751z"/><path d="m27 17h-8c-1.654 0-3-1.346-3-3s1.346-3 3-3h8c1.654 0 3 1.346 3 3s-1.346 3-3 3zm-8-4.5c-.827 0-1.5.673-1.5 1.5s.673 1.5 1.5 1.5h8c.827 0 1.5-.673 1.5-1.5s-.673-1.5-1.5-1.5z"/><path d="m19.25 15c-.551 0-1-.449-1-1s.449-1 1-1 1 .449 1 1-.449 1-1 1z"/><path d="m23 15c-.551 0-1-.449-1-1s.449-1 1-1 1 .449 1 1-.449 1-1 1z"/><path d="m26.75 15c-.551 0-1-.449-1-1s.449-1 1-1 1 .449 1 1-.449 1-1 1z"/><path d="m25.25 12.25c-.414 0-.75-.336-.75-.75v-4h-3v4c0 .414-.336.75-.75.75s-.75-.336-.75-.75v-4.75c0-.414.336-.75.75-.75h4.5c.414 0 .75.336.75.75v4.75c0 .414-.336.75-.75.75z"/></svg>