<svg id="_x31__x2C_5" enable-background="new 0 0 36 36" height="512" viewBox="0 0 36 36" width="512" xmlns="http://www.w3.org/2000/svg"><path d="m4.167 27.623c0-6.917-3.583-11.667-3.583-15s1.916-10.333 17.249-10.333 17.583 9.417 17.583 13.083c.001 17.167-31.249 24.5-31.249 12.25z" fill="#efefef"/><path d="m29.46 19.46h1v2h-1z" fill="#a4afc1"/><path d="m31.71 17.46h2v1h-2z" fill="#a4afc1"/><path d="m6.75 17.75v8.5h2.75l2-7.386s-1.458-1.114-4.75-1.114z" fill="#f3f3f1"/><path d="m26.75 23c-1.298 0-2.805.628-4.25 1.071v-.431c0-.95-.67-1.77-1.6-1.96l-9.63-1.97-1.49 5.42c1.91.9 6.83 3.12 9.22 3.12 3 0 10.25-4 10.25-4s-.5-1.25-2.5-1.25z" fill="#f3f3f1"/><g fill="#2fdf84"><path d="m29.25 9.5-5.25 1.75-5.25-1.75 5.25-1.75z"/><path d="m29.25 9.5v7l-5.25 1.75v-7z"/><path d="m24 11.25v7l-5.25-1.75v-7z"/></g><path d="m6.75 17.75v8.5h2.25v-8.3c-.626-.117-1.367-.2-2.25-.2z" fill="#d5dbe1"/><path d="m24.75 23.64v.431c1.018-.312 2.065-.712 3.049-.923-.295-.086-.633-.148-1.049-.148-.635 0-1.321.151-2.025.357.014.093.025.187.025.283z" fill="#d5dbe1"/><path d="m12.03 25.13 1.37-4.984-2.13-.436-1.49 5.42c1.91.9 6.83 3.12 9.22 3.12.314 0 .683-.052 1.077-.131-2.571-.483-6.411-2.218-8.047-2.989z" fill="#d5dbe1"/><path d="m26.25 11.25 3-1v-.75l-5.25 1.75v7l2.25-.75z" fill="#00b871"/><path d="m21 16.5v-6.25l-2.25-.75v7l5.25 1.75v-.75z" fill="#00b871"/><path d="m9.5 27h-2.75c-.414 0-.75-.336-.75-.75v-8.5c0-.414.336-.75.75-.75 3.506 0 5.138 1.217 5.205 1.269.242.185.349.498.269.792l-2 7.386c-.088.326-.385.553-.724.553zm-2-1.5h1.426l1.698-6.271c-.523-.247-1.545-.615-3.124-.707z"/><path d="m19 29c-2.409 0-7.011-2-9.539-3.191l.639-1.357c4.11 1.938 7.354 3.049 8.9 3.049 2.028 0 6.632-2.19 9.045-3.454-.278-.159-.692-.296-1.295-.296-.878 0-1.964.361-3.013.712-1.163.388-2.365.788-3.487.788-2.107 0-4.889-1.003-5.006-1.045l.512-1.41c.026.01 2.652.955 4.494.955.878 0 1.964-.361 3.013-.712 1.163-.388 2.365-.788 3.487-.788 2.479 0 3.168 1.651 3.196 1.722.141.352-.003.752-.334.935-.302.166-7.455 4.092-10.612 4.092z"/><path d="m23.25 24.09h-1.5v-.45c0-.591-.421-1.106-1-1.226l-9.631-1.97.301-1.469 9.631 1.97c1.274.261 2.199 1.394 2.199 2.694z"/><path d="m24 12c-.08 0-.16-.013-.237-.039l-5.25-1.75c-.306-.102-.513-.388-.513-.711s.207-.609.513-.711l5.25-1.75c.154-.052.32-.052.475 0l5.25 1.75c.305.102.512.388.512.711s-.207.609-.513.711l-5.25 1.75c-.077.026-.157.039-.237.039zm-2.878-2.5 2.878.959 2.878-.959-2.878-.959z"/><path d="m24 19c-.08 0-.16-.013-.237-.039l-5.25-1.75c-.306-.102-.513-.388-.513-.711v-7h1.5v6.459l4.5 1.5 4.5-1.5v-6.459h1.5v7c0 .323-.207.609-.513.711l-5.25 1.75c-.077.026-.157.039-.237.039z"/><path d="m23.25 11.25h1.5v7h-1.5z"/></svg>