<svg id="_x31__x2C_5" enable-background="new 0 0 36 36" height="512" viewBox="0 0 36 36" width="512" xmlns="http://www.w3.org/2000/svg"><path d="m8.377 31.833c6.917 0 11.667 3.583 15 3.583s10.333-1.916 10.333-17.249-9.417-17.584-13.083-17.584c-17.167 0-24.5 31.25-12.25 31.25z" fill="#efefef"/><path d="m29.25 15.5c-.827 0-1.5-.673-1.5-1.5s.673-1.5 1.5-1.5 1.5.673 1.5 1.5-.673 1.5-1.5 1.5zm0-2c-.275 0-.5.224-.5.5s.225.5.5.5.5-.224.5-.5-.225-.5-.5-.5z" fill="#a4afc1"/><path d="m25.25 13-6.25 2.25-6.25-2.25 6.25-2.25z" fill="#2fdf84"/><path d="m25.25 13v8l-6.25 2.25v-8z" fill="#f3f3f1"/><path d="m19 15.25v8l-6.25-2.25v-8z" fill="#f3f3f1"/><path d="m15 13 5.125-1.845-1.125-.405-6.25 2.25 6.25 2.25 1.125-.405z" fill="#00b871"/><path d="m21.25 15.25 4-1.44v-.81l-6.25 2.25v8l2.25-.81z" fill="#d5dbe1"/><path d="m15 21v-7.19l-2.25-.81v8l6.25 2.25v-.81z" fill="#d5dbe1"/><path d="m10.25 9.561-1.75-1.75-1.75 1.75-1.061-1.061 2.28-2.28c.293-.293.768-.293 1.061 0l2.28 2.28z"/><path d="m27.5 30.311-1.061-1.061 1.75-1.75-1.75-1.75 1.061-1.061 2.28 2.28c.293.293.293.768 0 1.061z"/><path d="m7.75 6.25h1.5v23.75h-1.5z"/><path d="m6 26.75h23.75v1.5h-23.75z"/><path d="m19 16c-.086 0-.172-.015-.254-.044l-6.25-2.25c-.298-.107-.496-.39-.496-.706s.198-.599.496-.706l6.25-2.25c.164-.06.344-.06.508 0l6.25 2.25c.298.107.496.39.496.706s-.198.599-.496.706l-6.25 2.25c-.082.029-.168.044-.254.044zm-4.036-3 4.036 1.453 4.036-1.453-4.036-1.453z"/><path d="m19 24c-.086 0-.172-.015-.254-.044l-6.25-2.25c-.298-.107-.496-.39-.496-.706v-8h1.5v7.473l5.5 1.98 5.5-1.98v-7.473h1.5v8c0 .316-.198.599-.496.706l-6.25 2.25c-.082.029-.168.044-.254.044z"/><path d="m18.25 15.25h1.5v8h-1.5z"/></svg>