<svg id="_x31__x2C_5" enable-background="new 0 0 36 36" height="512" viewBox="0 0 36 36" width="512" xmlns="http://www.w3.org/2000/svg"><path d="m31.833 27.623c0-6.917 3.583-11.667 3.583-15s-1.916-10.333-17.249-10.333-17.584 9.417-17.584 13.083c0 17.167 31.25 24.5 31.25 12.25z" fill="#efefef"/><path d="m26.25 10.25c-.827 0-1.5-.673-1.5-1.5s.673-1.5 1.5-1.5 1.5.673 1.5 1.5-.673 1.5-1.5 1.5zm0-2c-.276 0-.5.225-.5.5s.224.5.5.5.5-.225.5-.5-.224-.5-.5-.5z" fill="#a4afc1"/><g fill="#f3f3f1"><path d="m22.25 12.75v10.5c0 1.1-.9 2-2 2h-9.5c-1.1 0-2-.9-2-2v-10.5c0-1.1.9-2 2-2h9.5c1.1 0 2 .9 2 2z"/><path d="m20.15 10.75h-9.3l.31-3.1c.05-.51.48-.9.99-.9h6.7c.51 0 .94.39.99.9z"/><path d="m20.15 25.25-.31 3.1c-.05.51-.48.9-.99.9h-6.7c-.51 0-.94-.39-.99-.9l-.31-3.1z"/></g><path d="m27.25 14.5-5.25 1.75-5.25-1.75 5.25-1.75z" fill="#2fdf84"/><path d="m27.25 14.5v7l-5.25 1.75v-7z" fill="#2fdf84"/><path d="m22 16.25v7l-5.25-1.75v-7z" fill="#2fdf84"/><path d="m11 23.25v-10.5c0-1.1.9-2 2-2h-2.25c-1.1 0-2 .9-2 2v10.5c0 1.1.9 2 2 2h2.25c-1.1 0-2-.9-2-2z" fill="#d5dbe1"/><path d="m14.4 6.75h-2.25c-.51 0-.94.39-.99.9l-.31 3.1h2.25l.31-3.1c.05-.51.48-.9.99-.9z" fill="#d5dbe1"/><path d="m13.41 28.35-.31-3.1h-2.25l.31 3.1c.05.51.48.9.99.9h2.25c-.51 0-.94-.39-.99-.9z" fill="#d5dbe1"/><path d="m24.25 16.25 3-1v-.75l-5.25 1.75v7l2.25-.75z" fill="#00b871"/><path d="m19 21.5v-6.25l-2.25-.75v7l5.25 1.75v-.75z" fill="#00b871"/><path d="m18.25 26h-7.5c-1.517 0-2.75-1.233-2.75-2.75v-10.5c0-1.517 1.233-2.75 2.75-2.75h7.5v1.5h-7.5c-.689 0-1.25.561-1.25 1.25v10.5c0 .689.561 1.25 1.25 1.25h7.5z"/><path d="m11.596 10.824-1.492-.148.31-3.1c.087-.898.834-1.576 1.736-1.576h6.7c.902 0 1.648.678 1.736 1.577l.06.598-1.492.15-.06-.6c-.013-.127-.12-.225-.244-.225h-6.7c-.124 0-.231.098-.243.224z"/><path d="m18.85 30h-6.7c-.902 0-1.648-.678-1.736-1.577l-.31-3.099 1.492-.148.31 3.1c.013.127.12.225.244.225h6.7c.124 0 .231-.098.243-.224l.061-.602 1.492.15-.06.6c-.087.897-.834 1.575-1.736 1.575z"/><path d="m22 17c-.08 0-.16-.013-.237-.038l-5.25-1.75c-.306-.103-.513-.389-.513-.712s.207-.609.513-.712l5.25-1.75c.154-.051.32-.051.475 0l5.25 1.75c.305.103.512.389.512.712s-.207.609-.513.712l-5.25 1.75c-.077.025-.157.038-.237.038zm-2.878-2.5 2.878.959 2.878-.959-2.878-.959z"/><path d="m22 24c-.08 0-.16-.013-.237-.038l-5.25-1.75c-.306-.103-.513-.389-.513-.712v-7h1.5v6.459l4.5 1.5 4.5-1.5v-6.459h1.5v7c0 .323-.207.609-.513.712l-5.25 1.75c-.077.025-.157.038-.237.038z"/><path d="m21.25 16.25h1.5v7h-1.5z"/></svg>