<svg id="_x31__x2C_5" enable-background="new 0 0 36 36" height="512" viewBox="0 0 36 36" width="512" xmlns="http://www.w3.org/2000/svg"><path d="m27.623 4.167c-6.917 0-11.667-3.583-15-3.583s-10.333 1.916-10.333 17.249 9.417 17.583 13.083 17.583c17.167.001 24.5-31.249 12.25-31.249z" fill="#efefef"/><path d="m28.75 7.221h1v2h-1z" fill="#a4afc1"/><path d="m31 10.221h2v1h-2z" fill="#a4afc1"/><path d="m27.25 27.25h-18.5c-1.105 0-2-.895-2-2v-11.5c0-1.105.895-2 2-2h18.5c1.105 0 2 .895 2 2v11.5c0 1.105-.895 2-2 2z" fill="#f3f3f1"/><g fill="#2fdf84"><path d="m23.25 16.5-5.25 1.75-5.25-1.75 5.25-1.75z"/><path d="m23.25 16.5v7l-5.25 1.75v-7z"/><path d="m18 18.25v7l-5.25-1.75v-7z"/></g><path d="m9 25.25v-11.5c0-1.105.895-2 2-2h-2.25c-1.105 0-2 .895-2 2v11.5c0 1.105.895 2 2 2h2.25c-1.105 0-2-.895-2-2z" fill="#d5dbe1"/><path d="m20.25 18.25 3-1v-.75l-5.25 1.75v7l2.25-.75z" fill="#00b871"/><path d="m15 23.5v-6.25l-2.25-.75v7l5.25 1.75v-.75z" fill="#00b871"/><path d="m27.25 28h-18.5c-1.517 0-2.75-1.233-2.75-2.75v-11.5c0-1.517 1.233-2.75 2.75-2.75h18.5c1.517 0 2.75 1.233 2.75 2.75v11.5c0 1.517-1.233 2.75-2.75 2.75zm-18.5-15.5c-.689 0-1.25.561-1.25 1.25v11.5c0 .689.561 1.25 1.25 1.25h18.5c.689 0 1.25-.561 1.25-1.25v-11.5c0-.689-.561-1.25-1.25-1.25z"/><path d="m22.5 11.5h-1.5v-2.25c0-.138-.112-.25-.25-.25h-5.5c-.138 0-.25.112-.25.25v2.25h-1.5v-2.25c0-.965.785-1.75 1.75-1.75h5.5c.965 0 1.75.785 1.75 1.75z"/><path d="m18 19c-.08 0-.16-.013-.237-.039l-5.25-1.75c-.306-.102-.513-.388-.513-.711s.207-.609.513-.711l5.25-1.75c.154-.052.32-.052.475 0l5.25 1.75c.305.102.512.388.512.711s-.207.609-.513.711l-5.25 1.75c-.077.026-.157.039-.237.039zm-2.878-2.5 2.878.959 2.878-.959-2.878-.959z"/><path d="m18 26c-.08 0-.16-.013-.237-.039l-5.25-1.75c-.306-.102-.513-.388-.513-.711v-7h1.5v6.459l4.5 1.5 4.5-1.5v-6.459h1.5v7c0 .323-.207.609-.513.711l-5.25 1.75c-.077.026-.157.039-.237.039z"/><path d="m17.25 18.25h1.5v7h-1.5z"/></svg>