<svg id="_x31__x2C_5" enable-background="new 0 0 36 36" height="512" viewBox="0 0 36 36" width="512" xmlns="http://www.w3.org/2000/svg"><path d="m27.623 31.833c-6.917 0-11.667 3.583-15 3.583s-10.333-1.916-10.333-17.249 9.417-17.584 13.083-17.584c17.167 0 24.5 31.25 12.25 31.25z" fill="#efefef"/><path d="m29.25 17.5c-.827 0-1.5-.673-1.5-1.5s.673-1.5 1.5-1.5 1.5.673 1.5 1.5-.673 1.5-1.5 1.5zm0-2c-.276 0-.5.224-.5.5s.224.5.5.5.5-.224.5-.5-.224-.5-.5-.5z" fill="#a4afc1"/><circle cx="15" cy="11" fill="#f3f3f1" r="4.25"/><path d="m19.25 18.75c2.209 0 4 1.791 4 4v3.5h-16.5v-3.5c0-2.209 1.791-4 4-4z" fill="#f3f3f1"/><g fill="#2fdf84"><path d="m29.25 20.5-5.25 1.75-5.25-1.75 5.25-1.75z"/><path d="m29.25 20.5v7l-5.25 1.75v-7z"/><path d="m24 22.25v7l-5.25-1.75v-7z"/></g><path d="m13 11c0-1.955 1.328-3.585 3.125-4.08-.361-.1-.733-.17-1.125-.17-2.347 0-4.25 1.903-4.25 4.25s1.903 4.25 4.25 4.25c.392 0 .764-.07 1.125-.17-1.797-.495-3.125-2.125-3.125-4.08z" fill="#d5dbe1"/><path d="m13 18.75h-2.25c-2.209 0-4 1.791-4 4v3.5h2.25v-3.5c0-2.209 1.791-4 4-4z" fill="#d5dbe1"/><path d="m26.25 22.25 3-1v-.75l-5.25 1.75v7l2.25-.75z" fill="#00b871"/><path d="m21 27.5v-6.25l-2.25-.75v7l5.25 1.75v-.75z" fill="#00b871"/><path d="m15 16c-2.757 0-5-2.243-5-5s2.243-5 5-5 5 2.243 5 5-2.243 5-5 5zm0-8.5c-1.93 0-3.5 1.57-3.5 3.5s1.57 3.5 3.5 3.5 3.5-1.57 3.5-3.5-1.57-3.5-3.5-3.5z"/><path d="m15.25 27h-8.5c-.414 0-.75-.336-.75-.75v-3.5c0-2.619 2.131-4.75 4.75-4.75h5.5v1.5h-5.5c-1.792 0-3.25 1.458-3.25 3.25v2.75h7.75z"/><path d="m24 23c-.08 0-.16-.013-.237-.039l-5.25-1.75c-.306-.102-.513-.388-.513-.711s.207-.609.513-.711l5.25-1.75c.154-.052.32-.052.475 0l5.25 1.75c.305.102.512.388.512.711s-.207.609-.513.711l-5.25 1.75c-.077.026-.157.039-.237.039zm-2.878-2.5 2.878.959 2.878-.959-2.878-.959z"/><path d="m24 30c-.08 0-.16-.013-.237-.039l-5.25-1.75c-.306-.102-.513-.388-.513-.711v-7h1.5v6.459l4.5 1.5 4.5-1.5v-6.459h1.5v7c0 .323-.207.609-.513.711l-5.25 1.75c-.077.026-.157.039-.237.039z"/><path d="m23.25 22.25h1.5v7h-1.5z"/></svg>