<svg id="_x31__x2C_5" enable-background="new 0 0 36 36" height="512" viewBox="0 0 36 36" width="512" xmlns="http://www.w3.org/2000/svg"><path d="m4.167 27.623c0-6.917-3.583-11.667-3.583-15s1.916-10.333 17.249-10.333 17.583 9.417 17.583 13.083c.001 17.167-31.249 24.5-31.249 12.25z" fill="#efefef"/><path d="m7.375 7c-.827 0-1.5-.673-1.5-1.5s.673-1.5 1.5-1.5 1.5.673 1.5 1.5-.673 1.5-1.5 1.5zm0-2c-.276 0-.5.225-.5.5s.224.5.5.5.5-.225.5-.5-.224-.5-.5-.5z" fill="#a4afc1"/><g fill="#f3f3f1"><path d="m25.25 10-9.25 3.25-9.25-3.25 9.25-3.24z"/><path d="m25.25 10v12l-9.25 3.25v-12z"/><path d="m16 13.25v12l-9.25-3.25v-12z"/></g><circle cx="23.5" cy="23.5" fill="#2fdf84" r="5.75"/><path d="m18.25 13.25 7-2.459v-.791l-9.25 3.25v12l2.25-.791z" fill="#d5dbe1"/><path d="m9 22v-11.209l-2.25-.791v12l9.25 3.25v-.791z" fill="#d5dbe1"/><path d="m20 23.5c0-2.79 1.988-5.115 4.625-5.638-.364-.072-.74-.112-1.125-.112-3.176 0-5.75 2.574-5.75 5.75s2.574 5.75 5.75 5.75c.385 0 .761-.039 1.125-.112-2.637-.523-4.625-2.848-4.625-5.638z" fill="#00b871"/><path d="m23.5 30c-3.584 0-6.5-2.916-6.5-6.5s2.916-6.5 6.5-6.5 6.5 2.916 6.5 6.5-2.916 6.5-6.5 6.5zm0-11.5c-2.757 0-5 2.243-5 5s2.243 5 5 5 5-2.243 5-5-2.243-5-5-5z"/><path d="m22.5 26c-.199 0-.39-.079-.53-.22l-1.75-1.75 1.061-1.061 1.2 1.199 2.72-2.93 1.1 1.021-3.25 3.5c-.139.148-.332.235-.536.239-.006.002-.011.002-.015.002z"/><path d="m16 14c-.084 0-.168-.014-.249-.042l-9.25-3.25c-.3-.105-.501-.39-.501-.708s.201-.603.501-.708l9.25-3.25c.161-.057.336-.057.497 0l9.25 3.25c.301.105.502.39.502.708s-.201.603-.501.708l-9.25 3.25c-.081.028-.165.042-.249.042zm-6.987-4 6.987 2.455 6.987-2.455-6.987-2.455z"/><path d="m24.5 10h1.5v4.25h-1.5z"/><path d="m14.342 25.458-7.84-2.75c-.301-.105-.502-.39-.502-.708v-12h1.5v11.469l7.338 2.573z"/><path d="m15.25 13.25h1.5v5h-1.5z"/></svg>