<svg id="_x31__x2C_5" height="512" viewBox="0 0 36 36" width="512" xmlns="http://www.w3.org/2000/svg"><path d="m31.833 8.377c0 6.917 3.583 11.667 3.583 15s-1.916 10.333-17.249 10.333-17.584-9.417-17.584-13.083c0-17.167 31.25-24.5 31.25-12.25z" fill="#efefef"/><path d="m29.625 2.25h1v2h-1z" fill="#a4afc1"/><path d="m31.875 5.25h2v1h-2z" fill="#a4afc1"/><path d="m16.5 17.242-.541.649c-.78.935-1.209 2.127-1.209 3.359h6.5c0-1.232-.429-2.423-1.209-3.359l-.541-.649c-.596-.715-.596-1.77 0-2.485l.541-.649c.78-.935 1.209-2.127 1.209-3.359h-6.5c0 1.232.429 2.423 1.209 3.359l.541.649c.596.716.596 1.77 0 2.485z" fill="#2fdf84"/><path d="m27 29.25h-18c-1.243 0-2.25-1.007-2.25-2.25 0-1.243 1.007-2.25 2.25-2.25h18c1.243 0 2.25 1.007 2.25 2.25 0 1.243-1.007 2.25-2.25 2.25z" fill="#f3f3f1"/><path d="m9 27c0-1.243 1.007-2.25 2.25-2.25h-2.25c-1.243 0-2.25 1.007-2.25 2.25s1.007 2.25 2.25 2.25h2.25c-1.243 0-2.25-1.007-2.25-2.25z" fill="#d5dbe1"/><path d="m18.75 17.242c.202-.243.31-.528.375-.823-.062-.279-.062-.561 0-.84-.065-.294-.173-.58-.375-.823l-.541-.649c-.78-.934-1.209-2.125-1.209-3.357h-2.25c0 1.232.429 2.423 1.209 3.359l.541.649c.596.715.596 1.77 0 2.485l-.541.649c-.78.935-1.209 2.127-1.209 3.359h2.25c0-1.232.429-2.423 1.209-3.359z" fill="#00b871"/><path d="m21.25 22h-6.5c-.414 0-.75-.336-.75-.75 0-1.406.491-2.77 1.382-3.839l.542-.649c.362-.435.362-1.09 0-1.524l-.542-.649c-.891-1.069-1.382-2.433-1.382-3.839 0-.414.336-.75.75-.75h6.5c.414 0 .75.336.75.75 0 1.406-.491 2.77-1.382 3.839l-.542.649c-.362.434-.362 1.089 0 1.524l.542.649c.891 1.069 1.382 2.433 1.382 3.839 0 .414-.336.75-.75.75zm-5.688-1.5h4.876c-.131-.783-.465-1.52-.973-2.128l-.542-.649c-.832-.999-.832-2.447 0-3.445l.542-.65c.508-.608.842-1.345.973-2.128h-4.876c.131.783.465 1.52.973 2.128l.542.649c.832.999.832 2.447 0 3.445l-.542.649c-.508.609-.842 1.346-.973 2.129z"/><path d="m13 10h10v1.5h-10z"/><path d="m13 20.5h10v1.5h-10z"/><path d="m27 30h-18c-1.654 0-3-1.346-3-3s1.346-3 3-3h18c1.654 0 3 1.346 3 3s-1.346 3-3 3zm-18-4.5c-.827 0-1.5.673-1.5 1.5s.673 1.5 1.5 1.5h18c.827 0 1.5-.673 1.5-1.5s-.673-1.5-1.5-1.5z"/><path d="m10 28c-.551 0-1-.449-1-1s.449-1 1-1 1 .449 1 1-.449 1-1 1z"/><path d="m15 28c-.551 0-1-.449-1-1s.449-1 1-1 1 .449 1 1-.449 1-1 1z"/><path d="m21 28c-.551 0-1-.449-1-1s.449-1 1-1 1 .449 1 1-.449 1-1 1z"/><path d="m26 28c-.551 0-1-.449-1-1s.449-1 1-1 1 .449 1 1-.449 1-1 1z"/></svg>