<svg id="_x31__x2C_5" enable-background="new 0 0 36 36" height="512" viewBox="0 0 36 36" width="512" xmlns="http://www.w3.org/2000/svg"><path d="m27.623 31.833c-6.917 0-11.667 3.583-15 3.583s-10.333-1.916-10.333-17.249 9.417-17.584 13.083-17.584c17.167 0 24.5 31.25 12.25 31.25z" fill="#efefef"/><path d="m12.25 29.216c-.827 0-1.5-.673-1.5-1.5s.673-1.5 1.5-1.5 1.5.673 1.5 1.5-.673 1.5-1.5 1.5zm0-2c-.276 0-.5.225-.5.5s.224.5.5.5.5-.225.5-.5-.224-.5-.5-.5z" fill="#a4afc1"/><g fill="#f3f3f1"><path d="m25.25 10-9.25 3.25-9.25-3.25 9.25-3.24z"/><path d="m25.25 10v12l-9.25 3.25v-12z"/><path d="m16 13.25v12l-9.25-3.25v-12z"/></g><path d="m29.25 28.295c0 .525-.433.955-.962.955h-10.576c-.529 0-.962-.43-.962-.955 0-.181.048-.353.144-.496l5.288-8.591c.163-.277.471-.458.817-.458s.654.181.817.458l5.288 8.591c.098.143.146.315.146.496z" fill="#2fdf84"/><path d="m18.25 13.25 7-2.459v-.791l-9.25 3.25v12l2.25-.791z" fill="#d5dbe1"/><path d="m9 22v-11.209l-2.25-.791v12l9.25 3.25v-.791z" fill="#d5dbe1"/><path d="m19 28.295c0-.181.048-.353.144-.496l4.981-8.091-.308-.5c-.163-.277-.471-.458-.817-.458s-.654.181-.817.458l-5.289 8.591c-.096.143-.144.315-.144.496 0 .525.433.955.962.955h2.25c-.529 0-.962-.43-.962-.955z" fill="#00b871"/><path d="m16 14c-.084 0-.168-.014-.249-.042l-9.25-3.25c-.3-.105-.501-.39-.501-.708s.201-.603.501-.708l9.25-3.25c.161-.057.336-.057.497 0l9.25 3.25c.301.105.502.39.502.708s-.201.603-.501.708l-9.25 3.25c-.081.028-.165.042-.249.042zm-6.987-4 6.987 2.455 6.987-2.455-6.987-2.455z"/><path d="m24.5 10h1.5v6.25h-1.5z"/><path d="m14.642 25.568-8.14-2.86c-.301-.106-.502-.39-.502-.708v-12h1.5v11.469l7.639 2.684z"/><path d="m15.25 13.25h1.5v8h-1.5z"/><path d="m28.289 30h-10.578c-.943 0-1.711-.765-1.711-1.704 0-.334.094-.65.271-.915l5.273-8.566c.295-.499.855-.815 1.456-.815s1.161.316 1.463.826l5.282 8.579c.161.241.255.557.255.891 0 .939-.768 1.704-1.711 1.704zm-5.289-10.5c-.087 0-.147.049-.172.09l-5.328 8.706c0 .11.097.204.211.204h10.577c.115 0 .211-.094.211-.204 0-.034-.006-.063-.017-.079l-5.304-8.615c-.031-.053-.091-.102-.178-.102z"/><path d="m22.25 22h1.5v3.5h-1.5z"/><circle cx="23" cy="27.25" r=".75"/></svg>