<svg enable-background="new 0 0 36 36" height="512" viewBox="0 0 36 36" width="512" xmlns="http://www.w3.org/2000/svg"><g id="BG"><g><path d="m8.114 5.564c-1.805 6.677-6.504 10.327-7.374 13.545s-.847 10.475 13.955 14.477 19.432-4.501 20.388-8.041c4.481-16.572-23.772-31.807-26.969-19.981z" fill="#efefef"/></g></g><g id="effect"><g><g><path d="m6.2 21.053h2v1h-2z" fill="#a4afc1" transform="matrix(.707 -.707 .707 .707 -13.131 11.404)"/></g><g><path d="m2.135 25.119h2v1h-2z" fill="#a4afc1" transform="matrix(.707 -.707 .707 .707 -17.197 9.72)"/></g><g><path d="m2.635 20.376h1v2h-1z" fill="#a4afc1" transform="matrix(.707 -.707 .707 .707 -14.193 8.472)"/></g></g><g><path d="m27.312 15.972c-.827 0-1.5-.673-1.5-1.5s.673-1.5 1.5-1.5 1.5.673 1.5 1.5-.673 1.5-1.5 1.5zm0-2c-.276 0-.5.225-.5.5s.224.5.5.5.5-.225.5-.5-.224-.5-.5-.5z" fill="#a4afc1"/></g></g><g id="color"><g><path d="m19.75 29.25h-12c-.552 0-1-.448-1-1v-2c0-.552.448-1 1-1h12c.552 0 1 .448 1 1v2c0 .552-.448 1-1 1z" fill="#2fdf84"/></g><g><path d="m21.773 12.657c.936.936-4.68 6.552-5.616 5.616l-3.51-3.51c-.936-.936 4.68-6.552 5.616-5.616z" fill="#f3f3f1"/></g><g><path d="m16.157 19.677-.702.702c-.388.388-1.016.388-1.404 0l-3.51-3.51c-.388-.388-.388-1.016 0-1.404l.702-.702c.388-.388 1.016-.388 1.404 0l3.51 3.51c.387.387.387 1.016 0 1.404z" fill="#f3f3f1"/></g><g><path d="m23.879 11.955-.702.702c-.388.388-1.016.388-1.404 0l-3.51-3.51c-.388-.388-.388-1.016 0-1.404l.702-.702c.388-.388 1.016-.388 1.404 0l3.51 3.51c.387.387.387 1.016 0 1.404z" fill="#f3f3f1"/></g><g><path d="m28.364 22.758c-.646-.646-5.04-4.647-8.094-7.238l-1.25 1.25c2.59 3.054 6.592 7.448 7.238 8.094 1.481 1.481 2.239.723 2.534.428.295-.294 1.054-1.052-.428-2.534z" fill="#f3f3f1"/></g></g><g id="shadow"><g><path d="m9 28.25v-2c0-.552.448-1 1-1h-2.25c-.552 0-1 .448-1 1v2c0 .552.448 1 1 1h2.25c-.552 0-1-.448-1-1z" fill="#00b871"/></g><g><path d="m14.897 14.763c-.668-.668 1.996-3.709 3.92-5.062l-.554-.554c-.936-.936-6.552 4.68-5.616 5.616l3.51 3.51c.268.268.924-.011 1.696-.554z" fill="#d5dbe1"/></g><g><path d="m12.791 16.869c-.388-.388-.388-1.016 0-1.404l.279-.279-.423-.423c-.388-.388-1.016-.388-1.404 0l-.702.702c-.388.388-.388 1.016 0 1.404l3.51 3.51c.388.388 1.016.388 1.404 0l.423-.423z" fill="#d5dbe1"/></g><g><path d="m20.513 9.147c-.388-.388-.388-1.016 0-1.404l.279-.279-.423-.423c-.388-.388-1.016-.388-1.404 0l-.702.702c-.388.388-.388 1.016 0 1.404l3.51 3.51c.388.388 1.016.388 1.404 0l.423-.423z" fill="#d5dbe1"/></g><g><path d="m28.508 24.864c-.646-.646-4.647-5.04-7.238-8.094l.21-.21c-.418-.362-.825-.712-1.211-1.039l-1.25 1.25c2.59 3.054 6.592 7.448 7.238 8.094 1.481 1.481 2.239.723 2.534.428.027-.027.061-.063.094-.098-.121-.1-.242-.197-.377-.331z" fill="#d5dbe1"/></g></g><g id="_x31_.5"><g><g><path d="m19.75 30h-12c-.965 0-1.75-.785-1.75-1.75v-2c0-.965.785-1.75 1.75-1.75h12c.965 0 1.75.785 1.75 1.75v2c0 .965-.785 1.75-1.75 1.75zm-12-4c-.138 0-.25.112-.25.25v2c0 .138.112.25.25.25h12c.138 0 .25-.112.25-.25v-2c0-.138-.112-.25-.25-.25z"/></g></g><g><g><g><g><path d="m16.438 19.131c-.288 0-.571-.088-.812-.328l-3.51-3.51c-.757-.756-.001-1.944.248-2.335.424-.667 1.083-1.46 1.855-2.232.773-.774 1.567-1.435 2.235-1.859.392-.249 1.581-1.008 2.338-.25l3.51 3.51c1.02 1.02-.584 3.051-2.11 4.575-.772.772-1.565 1.431-2.231 1.854-.266.17-.904.575-1.523.575zm-3.129-4.767 3.246 3.246c1.09-.266 4.29-3.466 4.555-4.556l-3.246-3.246c-1.09.266-4.289 3.466-4.555 4.556z"/></g></g><g><g><path d="m14.752 21.419c-.446 0-.892-.17-1.232-.51l-3.51-3.51c-.328-.329-.51-.766-.51-1.232s.182-.903.511-1.232l.701-.702c.68-.68 1.785-.68 2.465 0l3.51 3.51c.68.68.68 1.785 0 2.465l-.702.702c-.34.339-.786.509-1.233.509zm-2.807-6.197c-.062 0-.125.024-.172.071l-.702.702c-.062.063-.071.135-.071.172s.009.109.071.172l3.51 3.51c.094.094.248.093.343 0l.702-.702c.095-.095.095-.249 0-.344l-3.51-3.51c-.047-.047-.109-.071-.171-.071z"/></g></g><g><g><path d="m22.475 13.696c-.446 0-.893-.17-1.232-.51l-3.51-3.51c-.679-.68-.679-1.784 0-2.464l.702-.702c.68-.681 1.785-.68 2.464 0l3.51 3.51c.68.68.68 1.785 0 2.465l-.702.701c-.34.34-.786.51-1.232.51zm-2.808-6.196c-.062 0-.124.024-.171.071l-.702.702c-.094.095-.094.248 0 .343l3.51 3.51c.095.094.249.094.344 0l.702-.701c.095-.095.095-.249 0-.344l-3.51-3.51c-.049-.047-.111-.071-.173-.071z"/></g></g></g><g><g><g><path d="m27.855 26.505c-.802 0-1.553-.536-2.127-1.11-.692-.692-4.757-5.166-7.279-8.139l1.144-.971c2.623 3.092 6.601 7.454 7.196 8.049.949.949 1.252.649 1.474.429.125-.126.223-.232.236-.367.012-.121-.028-.471-.664-1.106-.589-.59-4.944-4.562-8.049-7.196l.971-1.145c2.985 2.533 7.454 6.594 8.139 7.28.801.801 1.169 1.58 1.096 2.316-.068.679-.488 1.099-.668 1.278-.491.489-.989.682-1.469.682z"/></g></g></g></g></g></svg>