<svg id="effect" height="512" viewBox="0 0 36 36" width="512" xmlns="http://www.w3.org/2000/svg"><path d="m7.678 5.564c-1.805 6.677-6.504 10.327-7.374 13.545s-.847 10.475 13.955 14.477 19.432-4.501 20.388-8.041c4.481-16.572-23.772-31.807-26.969-19.981z" fill="#efefef"/><path d="m14 27.5s7.5-2.065 7.5-9.352c0-4.071 0-6.756 0-6.756l-7.5-2.892-7.5 2.891v6.756c0 7.288 7.5 9.353 7.5 9.353z" fill="#f3f3f1"/><path d="m29.5 17.5c0-.957-.686-1.738-1.568-1.852-.27-.674-.906-1.148-1.646-1.148-.986 0-1.786.839-1.786 1.875 0 .424.139.811.365 1.125-.226.314-.365.701-.365 1.125 0 1.036.799 1.875 1.786 1.875.741 0 1.376-.474 1.646-1.148.882-.114 1.568-.895 1.568-1.852z" fill="#2fdf84"/><path d="m15 27.13c-.61.26-1 .37-1 .37s-7.5-2.07-7.5-9.35c0-4.07 0-6.76 0-6.76l7.5-2.89 1 .39-6.5 2.5v6.76c0 5.61 4.46 8.13 6.5 8.98z" fill="#d5dbe1"/><path d="m27.29 20.18c-.29.2-.63.32-1 .32-.99 0-1.79-.84-1.79-1.88 0-.42.14-.81.37-1.12-.23-.31-.37-.7-.37-1.12 0-1.04.8-1.88 1.79-1.88.37 0 .71.12 1 .32-.48.34-.79.91-.79 1.56 0 .42.14.81.37 1.12-.23.31-.37.7-.37 1.12 0 .65.31 1.22.79 1.56z" fill="#00b871"/><path d="m26.286 21.25c-1.398 0-2.536-1.178-2.536-2.625 0-.393.085-.774.249-1.125-.164-.351-.249-.732-.249-1.125 0-1.447 1.138-2.625 2.536-2.625.891 0 1.7.478 2.156 1.245 1.056.326 1.808 1.336 1.808 2.505s-.752 2.179-1.808 2.505c-.456.767-1.265 1.245-2.156 1.245zm0-6c-.571 0-1.036.505-1.036 1.125 0 .246.077.483.224.687.188.262.188.615 0 .877-.146.203-.224.44-.224.687 0 .62.465 1.125 1.036 1.125.412 0 .784-.266.949-.678.102-.252.331-.43.601-.465.521-.066.914-.543.914-1.107s-.393-1.041-.914-1.107c-.27-.035-.499-.213-.601-.465-.165-.413-.537-.679-.949-.679z"/><path d="m13.75 14.75h1.5v5.5h-1.5z"/><path d="m14.5 16.75h10.25v1.5h-10.25z"/><path d="m14 28.25c-.07 0-.142-.01-.21-.03-.081-.023-8.04-2.442-8.04-10.62v-6.04c0-.305.185-.579.467-.694l7.5-3.06c.182-.074.385-.074.566 0l7.5 3.06c.282.115.467.39.467.694v2.94h-1.5v-2.437l-6.75-2.753-6.75 2.754v5.536c0 6.36 5.584 8.692 6.749 9.109.985-.354 5.14-2.083 6.38-6.415l1.441.412c-1.635 5.713-7.367 7.443-7.61 7.514-.068.02-.14.03-.21.03z"/><path d="m31.25 5.563c-.827 0-1.5-.673-1.5-1.5s.673-1.5 1.5-1.5 1.5.673 1.5 1.5-.673 1.5-1.5 1.5zm0-2c-.275 0-.5.225-.5.5s.225.5.5.5.5-.225.5-.5-.225-.5-.5-.5z" fill="#a4afc1"/></svg>