<svg id="effect" height="512" viewBox="0 0 36 36" width="512" xmlns="http://www.w3.org/2000/svg"><path d="m34.928 20.591c-3.693-5.848-3.199-11.778-4.979-14.596s-7.138-7.714-20.103.473-9.84 17.35-7.882 20.45c9.166 14.515 39.504 4.031 32.964-6.327z" fill="#efefef"/><path d="m26.5 25.5c1.657 0 3-1.343 3-3h-6c0 1.657 1.343 3 3 3z" fill="#2fdf84"/><path d="m9.5 16.5c1.657 0 3-1.343 3-3h-6c0 1.657 1.343 3 3 3z" fill="#2fdf84"/><path d="m27.5 25.32c-.31.12-.65.18-1 .18-.83 0-1.58-.34-2.12-.88s-.88-1.29-.88-2.12h2c0 .83.34 1.58.88 2.12.31.31.69.56 1.12.7z" fill="#00b871"/><path d="m10.5 16.32c-.31.12-.65.18-1 .18-.83 0-1.58-.34-2.12-.88s-.88-1.29-.88-2.12h2c0 .83.34 1.58.88 2.12.31.31.69.56 1.12.7z" fill="#00b871"/><path d="m26.5 26.25c-2.068 0-3.75-1.683-3.75-3.75 0-.414.336-.75.75-.75h6c.414 0 .75.336.75.75 0 2.067-1.682 3.75-3.75 3.75zm-2.122-3c.31.873 1.144 1.5 2.122 1.5s1.812-.627 2.122-1.5z"/><path d="m17.25 12.5h1.5v16.5h-1.5z"/><path d="m11.75 28.75h12.5v1.5h-12.5z"/><path d="m18 13.25c-1.241 0-2.25-1.009-2.25-2.25s1.009-2.25 2.25-2.25 2.25 1.009 2.25 2.25-1.009 2.25-2.25 2.25zm0-3c-.414 0-.75.336-.75.75s.336.75.75.75.75-.336.75-.75-.336-.75-.75-.75z"/><path d="m28.811 22.796-2.311-5.392-2.311 5.392-1.379-.592 3-7c.236-.552 1.143-.552 1.379 0l3 7z"/><path d="m9.5 17.25c-2.068 0-3.75-1.682-3.75-3.75 0-.414.336-.75.75-.75h6c.414 0 .75.336.75.75 0 2.068-1.682 3.75-3.75 3.75zm-2.122-3c.31.873 1.144 1.5 2.122 1.5s1.812-.627 2.122-1.5z"/><path d="m11.811 13.795-2.311-5.391-2.311 5.392-1.379-.591 3-7c.236-.552 1.143-.552 1.379 0l3 7z"/><path d="m12.34 4.338h1.5v8.124h-1.5z" transform="matrix(.468 -.884 .884 .468 -.457 16.041)"/><path d="m22.16 9.538h1.5v8.124h-1.5z" transform="matrix(.468 -.884 .884 .468 .173 27.488)"/><g fill="#a4afc1"><path d="m27.467 3.805h1v2h-1z" transform="matrix(.707 -.707 .707 .707 4.793 21.183)"/><path d="m31.533 7.871h1v2h-1z" transform="matrix(.707 -.707 .707 .707 3.109 25.249)"/><path d="m31.033 4.129h2v1h-2z" transform="matrix(.707 -.707 .707 .707 6.109 24.006)"/></g></svg>