<svg id="effect" height="512" viewBox="0 0 36 36" width="512" xmlns="http://www.w3.org/2000/svg"><path d="m3.442 23.883c6.061 3.333 8.497 8.761 11.417 10.367 2.921 1.606 9.978 3.299 17.366-10.137s.221-19.945-2.992-21.712c-15.042-8.27-36.525 15.58-25.791 21.482z" fill="#efefef"/><path d="m9.5 25.5c1.657 0 3-1.343 3-3h-6c0 1.657 1.343 3 3 3z" fill="#2fdf84"/><path d="m26.5 16.5c1.657 0 3-1.343 3-3h-6c0 1.657 1.343 3 3 3z" fill="#2fdf84"/><path d="m10.5 25.32c-.31.12-.65.18-1 .18-.83 0-1.58-.34-2.12-.88s-.88-1.29-.88-2.12h2c0 .83.34 1.58.88 2.12.31.31.69.56 1.12.7z" fill="#00b871"/><path d="m27.5 16.32c-.31.12-.65.18-1 .18-.83 0-1.58-.34-2.12-.88s-.88-1.29-.88-2.12h2c0 .83.34 1.58.88 2.12.31.31.69.56 1.12.7z" fill="#00b871"/><path d="m9.5 26.25c-2.068 0-3.75-1.683-3.75-3.75 0-.414.336-.75.75-.75h6c.414 0 .75.336.75.75 0 2.067-1.682 3.75-3.75 3.75zm-2.122-3c.31.873 1.144 1.5 2.122 1.5s1.812-.627 2.122-1.5z"/><path d="m17.25 12.5h1.5v16.5h-1.5z"/><path d="m11.75 28.75h12.5v1.5h-12.5z"/><path d="m18 13.25c-1.241 0-2.25-1.009-2.25-2.25s1.009-2.25 2.25-2.25 2.25 1.009 2.25 2.25-1.009 2.25-2.25 2.25zm0-3c-.414 0-.75.336-.75.75s.336.75.75.75.75-.336.75-.75-.336-.75-.75-.75z"/><path d="m11.811 22.796-2.311-5.392-2.311 5.392-1.379-.592 3-7c.236-.552 1.143-.552 1.379 0l3 7z"/><path d="m26.5 17.25c-2.068 0-3.75-1.682-3.75-3.75 0-.414.336-.75.75-.75h6c.414 0 .75.336.75.75 0 2.068-1.682 3.75-3.75 3.75zm-2.122-3c.31.873 1.144 1.5 2.122 1.5s1.812-.627 2.122-1.5z"/><path d="m28.811 13.795-2.311-5.391-2.311 5.392-1.379-.591 3-7c.236-.552 1.143-.552 1.379 0l3 7z"/><path d="m18.848 7.65h8.124v1.5h-8.124z" transform="matrix(.884 -.467 .467 .884 -1.27 11.682)"/><path d="m9.028 12.85h8.124v1.5h-8.124z" transform="matrix(.884 -.467 .467 .884 -4.839 7.696)"/><g fill="#a4afc1"><path d="m8.293 3.721h2v1h-2z" transform="matrix(.707 -.707 .707 .707 -.263 7.808)"/><path d="m4.227 7.787h2v1h-2z" transform="matrix(.707 -.707 .707 .707 -4.329 6.123)"/><path d="m4.727 3.045h1v2h-1z" transform="matrix(.707 -.707 .707 .707 -1.329 4.881)"/></g></svg>