<svg id="_x31__x2C_5" enable-background="new 0 0 36 36" height="512" viewBox="0 0 36 36" width="512" xmlns="http://www.w3.org/2000/svg"><path d="m27.623 4.167c-6.917 0-11.667-3.583-15-3.583s-10.333 1.916-10.333 17.249 9.417 17.583 13.083 17.583c17.167.001 24.5-31.249 12.25-31.249z" fill="#efefef"/><g fill="#a4afc1"><path d="m31.984 6.511h2v1h-2z" transform="matrix(.707 -.707 .707 .707 4.703 25.377)"/><path d="m32.838 9.9h1v2h-1z" transform="matrix(.707 -.707 .707 .707 2.054 26.761)"/><path d="m28.772 5.835h1v2h-1z" transform="matrix(.707 -.707 .707 .707 3.741 22.7)"/></g><path d="m25.25 13-7.25 2.25-7.25-2.25 7.25-2.25z" fill="#2fdf84"/><path d="m25.25 13v10l-7.25 2.25v-10z" fill="#f3f3f1"/><path d="m18 15.25v10l-7.25-2.25v-10z" fill="#f3f3f1"/><path d="m20.25 15.25 5-1.552v-.698l-7.25 2.25v10l2.25-.698z" fill="#d5dbe1"/><path d="m13 23v-9.302l-2.25-.698v10l7.25 2.25v-.698z" fill="#d5dbe1"/><path d="m30 12.75h-1.5v-1.231l-1.152-.436.53-1.403 1.637.619c.292.11.485.389.485.701z"/><path d="m30 21.98h-1.5v-3.346h1.5zm0-4.615h-1.5v-3.346h1.5z"/><path d="m27.878 26.32-.53-1.403 1.152-.436v-1.231h1.5v1.75c0 .312-.193.591-.485.702z"/><path d="m17.091 29.708-3.196-1.208.53-1.403 3.196 1.208zm1.818 0-.53-1.403 3.197-1.208.53 1.403zm4.485-1.693-.53-1.403 3.197-1.208.53 1.403zm-10.788 0-3.197-1.208.53-1.403 3.197 1.208z"/><path d="m8.122 26.32-1.637-.619c-.292-.11-.485-.389-.485-.701v-1.75h1.5v1.231l1.152.436z"/><path d="m7.5 21.981h-1.5v-3.346h1.5zm0-4.615h-1.5v-3.346h1.5z"/><path d="m7.5 12.75h-1.5v-1.75c0-.312.193-.591.485-.702l1.637-.618.53 1.403-1.152.436z"/><path d="m26.061 10.597-3.197-1.208.53-1.403 3.197 1.208zm-16.122 0-.53-1.403 3.197-1.208.53 1.403zm11.636-1.694-3.196-1.208.53-1.403 3.196 1.208zm-7.151 0-.53-1.403 3.197-1.208.53 1.403z"/><path d="m18 16c-.075 0-.15-.011-.223-.034l-7.25-2.25c-.313-.097-.527-.387-.527-.716s.214-.619.527-.716l7.25-2.25c.145-.045.301-.045.445 0l7.25 2.25c.314.097.528.387.528.716s-.214.619-.527.716l-7.25 2.25c-.073.023-.148.034-.223.034zm-4.72-3 4.72 1.465 4.72-1.465-4.72-1.465z"/><path d="m18 26c-.075 0-.15-.011-.223-.034l-7.25-2.25c-.313-.097-.527-.387-.527-.716v-10h1.5v9.447l6.5 2.018 6.5-2.018v-9.447h1.5v10c0 .329-.214.619-.527.716l-7.25 2.25c-.073.023-.148.034-.223.034z"/><path d="m17.25 15.25h1.5v10h-1.5z"/></svg>