<svg id="_x31__x2C_5" enable-background="new 0 0 36 36" height="512" viewBox="0 0 36 36" width="512" xmlns="http://www.w3.org/2000/svg"><path d="m4.167 8.377c0 6.917-3.583 11.667-3.583 15s1.916 10.333 17.249 10.333 17.583-9.417 17.583-13.083c.001-17.167-31.249-24.5-31.249-12.25z" fill="#efefef"/><path d="m30.5 10.83c-.827 0-1.5-.673-1.5-1.5s.673-1.5 1.5-1.5 1.5.673 1.5 1.5-.673 1.5-1.5 1.5zm0-2c-.276 0-.5.225-.5.5s.224.5.5.5.5-.225.5-.5-.224-.5-.5-.5z" fill="#a4afc1"/><g fill="#2fdf84"><circle cx="8.5" cy="19.5" r="1.75"/><circle cx="12.5" cy="9.5" r="1.75"/><circle cx="24.5" cy="8.5" r="1.75"/><circle cx="27.5" cy="16.5" r="1.75"/></g><path d="m20.479 22.657v-1.57c0-.521.421-.942.943-.942s.943.421.943.942v1.256.942-.942c0-.521.421-.942.943-.942s.943.421.943.942v3.453.013c0 2.242-1.842 3.441-4.079 3.441h-.006-1.257c-1.584-.013-2.822-1.099-3.771-3.767s-1.886-2.348-1.886-3.14c0-.289.314-.628 1.257-.628.999 0 1.785.841 2.2 1.4v-6.423c0-.521.421-.942.943-.942s.943.421.943.942v3.767 1.57-1.57c0-.521.421-.942.943-.942s.943.421.943.942v.628 1.57z" fill="#f3f3f1"/><path d="m9 19.5c0-.536.246-1.009.625-1.33-.305-.258-.694-.42-1.125-.42-.966 0-1.75.784-1.75 1.75s.784 1.75 1.75 1.75c.431 0 .82-.162 1.125-.42-.379-.321-.625-.794-.625-1.33z" fill="#00b871"/><path d="m13 9.5c0-.536.246-1.009.625-1.33-.305-.258-.694-.42-1.125-.42-.966 0-1.75.784-1.75 1.75s.784 1.75 1.75 1.75c.431 0 .82-.162 1.125-.42-.379-.321-.625-.794-.625-1.33z" fill="#00b871"/><path d="m25 8.5c0-.536.246-1.009.625-1.33-.305-.258-.694-.42-1.125-.42-.966 0-1.75.784-1.75 1.75s.784 1.75 1.75 1.75c.431 0 .82-.162 1.125-.42-.379-.321-.625-.794-.625-1.33z" fill="#00b871"/><path d="m28 16.5c0-.536.246-1.009.625-1.33-.305-.258-.694-.42-1.125-.42-.966 0-1.75.784-1.75 1.75s.784 1.75 1.75 1.75c.431 0 .82-.162 1.125-.42-.379-.321-.625-.794-.625-1.33z" fill="#00b871"/><path d="m16.757 21.715c.999 0 1.785.841 2.2 1.4v-3.382c-.217.172-.364.427-.364.726v-3.767c0-.521-.421-.942-.943-.942s-.943.421-.943.942v5.026c.018-.001.032-.003.05-.003z" fill="#d5dbe1"/><path d="m20.843 20.361v.098c0-.04.018-.074.023-.113-.008.006-.016.01-.023.015z" fill="#d5dbe1"/><path d="m17.386 25.483c-.949-2.669-1.886-2.348-1.886-3.14 0-.093.037-.19.112-.28-.326-.204-.697-.348-1.105-.348-.943 0-1.257.339-1.257.628 0 .791.937.471 1.886 3.14s2.187 3.755 3.771 3.767h1.257.006c.198 0 .388-.021.579-.04-1.389-.187-2.498-1.294-3.363-3.727z" fill="#d5dbe1"/><path d="m8.5 22c-1.378 0-2.5-1.121-2.5-2.5s1.122-2.5 2.5-2.5 2.5 1.121 2.5 2.5-1.122 2.5-2.5 2.5zm0-3.5c-.551 0-1 .448-1 1s.449 1 1 1 1-.448 1-1-.449-1-1-1z"/><path d="m12.5 12c-1.378 0-2.5-1.121-2.5-2.5s1.122-2.5 2.5-2.5 2.5 1.121 2.5 2.5-1.122 2.5-2.5 2.5zm0-3.5c-.551 0-1 .448-1 1s.449 1 1 1 1-.448 1-1-.449-1-1-1z"/><path d="m24.5 11c-1.378 0-2.5-1.121-2.5-2.5s1.122-2.5 2.5-2.5 2.5 1.121 2.5 2.5-1.122 2.5-2.5 2.5zm0-3.5c-.551 0-1 .448-1 1s.449 1 1 1 1-.448 1-1-.449-1-1-1z"/><path d="m27.5 19c-1.378 0-2.5-1.121-2.5-2.5s1.122-2.5 2.5-2.5 2.5 1.121 2.5 2.5-1.122 2.5-2.5 2.5zm0-3.5c-.551 0-1 .448-1 1s.449 1 1 1 1-.448 1-1-.449-1-1-1z"/><path d="m10.305 17.6h3.279v1.499h-3.279z" transform="matrix(.948 -.317 .317 .948 -5.204 4.737)"/><path d="m18.67 11.3h5.449v1.5h-5.449z" transform="matrix(.659 -.752 .752 .659 -1.764 20.211)"/><path d="m21.5 15.75h4v1.5h-4z"/><path d="m13.915 10.808h1.5v3.463h-1.5z" transform="matrix(.814 -.58 .58 .814 -4.555 10.838)"/><path d="m25.25 10.225h1.5v4.55h-1.5z" transform="matrix(.936 -.352 .352 .936 -2.735 9.938)"/><path d="m14.477 8.25h8.047v1.499h-8.047z" transform="matrix(.997 -.082 .082 .997 -.676 1.549)"/><path d="m7.107 13.75h6.786v1.5h-6.786z" transform="matrix(.371 -.929 .929 .371 -6.862 18.868)"/><path d="m20.17 30h-1.263c-2-.016-3.463-1.411-4.478-4.267-.508-1.429-.985-1.871-1.3-2.163-.28-.261-.629-.584-.629-1.228 0-.636.526-1.378 2.007-1.378.542 0 1.027.169 1.45.423v-4.696c0-.933.759-1.691 1.693-1.691s1.693.759 1.693 1.691v2.087c.617-.069 1.225.22 1.568.695.161-.051.333-.078.51-.078.789 0 1.454.542 1.641 1.273.986-.14 1.938.66 1.938 1.675v3.454c0 2.518-1.941 4.203-4.83 4.203zm-6.003-7.513c.399.37 1.053.994 1.675 2.744 1.037 2.916 2.25 3.262 3.071 3.269h1.251c1.542 0 3.336-.705 3.336-2.691v-3.466c0-.211-.386-.211-.386 0v.942c0 .414-.336.75-.75.75s-.75-.336-.75-.75v-2.198c0-.214-.386-.212-.386 0v1.57h-1.5v-2.198c0-.214-.386-.213-.386 0v1.57c0 .414-.336.75-.75.75s-.75-.336-.75-.75v-5.338c0-.213-.386-.213-.386 0v6.424c0 .323-.208.61-.515.712-.308.1-.645-.005-.837-.265-.304-.41-.917-1.098-1.598-1.098-.141.001-.253.011-.339.023z"/></svg>