<svg enable-background="new 0 0 36 36" height="512" viewBox="0 0 36 36" width="512" xmlns="http://www.w3.org/2000/svg"><path d="m27.417 3.914c-6.915.129-11.732-3.365-15.064-3.302s-10.296 2.109-10.009 17.44 9.744 17.404 13.41 17.336c17.163-.321 23.911-31.703 11.663-31.474z" fill="#efefef"/><path d="m18.75 11.446c0 .23-.151.428-.36.496l-4.857 1.591-1.591 4.857c-.068.209-.266.36-.496.36-.224 0-.412-.141-.485-.334l-4.174-10.956c-.027-.058-.037-.12-.037-.188 0-.287.235-.522.522-.522.068 0 .13.01.188.037l10.957 4.174c.192.072.333.26.333.485z" fill="#f3f3f1"/><path d="m9.037 7.46c-.011-.024-.01-.053-.016-.078l-1.561-.595c-.058-.027-.12-.037-.188-.037-.287 0-.522.235-.522.522 0 .068.01.13.036.188l4.174 10.957c.073.193.261.334.485.334.23 0 .428-.151.496-.36l.582-1.777z" fill="#d5dbe1"/><circle cx="22.5" cy="22.5" fill="#2fdf84" r="6.75"/><path d="m18 22.5c0-3.344 2.434-6.112 5.625-6.649-.367-.062-.741-.101-1.125-.101-3.728 0-6.75 3.022-6.75 6.75s3.022 6.75 6.75 6.75c.384 0 .758-.04 1.125-.101-3.191-.537-5.625-3.305-5.625-6.649z" fill="#00b871"/><g fill="#a4afc1"><path d="m26.555 3.717h1v2h-1z" transform="matrix(.707 -.707 .707 .707 4.592 20.517)"/><path d="m30.621 7.783h1v2h-1z" transform="matrix(.707 -.707 .707 .707 2.907 24.584)"/><path d="m25.879 8.283h2v1h-2z" transform="matrix(.707 -.707 .707 .707 1.662 21.579)"/><path d="m29.945 4.217h2v1h-2z" transform="matrix(.707 -.707 .707 .707 5.728 23.263)"/></g><path d="m21.75 19.75h1.5v5.5h-1.5z"/><path d="m19.75 21.75h5.5v1.5h-5.5z"/><path d="m11.446 19.5c-.524 0-1.001-.329-1.187-.818l-4.173-10.955c-.051-.107-.086-.275-.086-.456 0-.701.571-1.271 1.272-1.271.176 0 .342.034.492.101l10.919 4.158c.488.186.817.662.817 1.187 0 .551-.352 1.037-.876 1.209l-4.497 1.473-1.473 4.496c-.17.522-.656.876-1.208.876zm-3.779-11.832 3.763 9.874 1.39-4.243c.075-.227.252-.405.479-.479l4.243-1.39zm-.475-.181c.004.001.008.003.013.004zm.277-.34.018.047c-.005-.013-.011-.03-.018-.047z"/><path d="m22.5 30c-4.136 0-7.5-3.364-7.5-7.5s3.364-7.5 7.5-7.5 7.5 3.364 7.5 7.5-3.364 7.5-7.5 7.5zm0-13.5c-3.309 0-6 2.691-6 6s2.691 6 6 6 6-2.691 6-6-2.691-6-6-6z"/></svg>