<svg fill="none" height="512" viewBox="0 0 36 36" width="512" xmlns="http://www.w3.org/2000/svg"><path d="m19.8475 7.04443c-5.9084 1.96946-9.3966.86738-11.56504 0-7.22817-2.89126-7.950988 22.40727 3.61404 24.57577 11.5651 2.1684 20.2389-9.3966 20.9617-15.902.7228-6.50532-1.4456-8.67377-3.6141-10.1194-2.1684-1.44563-5.0597 0-9.3966 1.44563z" fill="#efefef"/><path d="m18 14.25c-2.0711 0-3.75 1.6789-3.75 3.75s1.6789 3.75 3.75 3.75 3.75-1.6789 3.75-3.75-1.6789-3.75-3.75-3.75z" fill="#2edf84"/><g clip-rule="evenodd" fill-rule="evenodd"><path d="m14.25 18c0-2.0711 1.6789-3.75 3.75-3.75.4383 0 .859.0752 1.25.2134-1.4565.5148-2.5 1.9038-2.5 3.5366s1.0435 3.0218 2.5 3.5366c-.391.1382-.8117.2134-1.25.2134-2.0711 0-3.75-1.6789-3.75-3.75z" fill="#00b872"/><path d="m18 15.75c-1.2426 0-2.25 1.0074-2.25 2.25s1.0074 2.25 2.25 2.25 2.25-1.0074 2.25-2.25-1.0074-2.25-2.25-2.25zm-3.75 2.25c0-2.0711 1.6789-3.75 3.75-3.75s3.75 1.6789 3.75 3.75-1.6789 3.75-3.75 3.75-3.75-1.6789-3.75-3.75z" fill="#000"/><path d="m18 27.25c-5.1086 0-9.25-4.1414-9.25-9.25s4.1414-9.25 9.25-9.25 9.25 4.1414 9.25 9.25h1.5c0-5.9371-4.8129-10.75-10.75-10.75s-10.75 4.8129-10.75 10.75 4.8129 10.75 10.75 10.75z" fill="#000"/><path d="m24.4395 28.4983-2-2.25 1.1211-.9966 1.4394 1.6194 1.4395-1.6194 1.1211.9966-2 2.25c-.1424.1601-.3464.2517-.5606.2517s-.4182-.0916-.5605-.2517z" fill="#000"/><path d="m25.75 22v5.625h-1.5v-5.625z" fill="#000"/></g></svg>