<svg id="_x31__x2C_5" enable-background="new 0 0 36 36" height="512" viewBox="0 0 36 36" width="512" xmlns="http://www.w3.org/2000/svg"><path d="m27.623 31.833c-6.917 0-11.667 3.583-15 3.583s-10.333-1.916-10.333-17.249 9.417-17.584 13.083-17.584c17.167 0 24.5 31.25 12.25 31.25z" fill="#efefef"/><path d="m27.76 6.227h1v2h-1z" fill="#a4afc1" transform="matrix(.707 -.707 .707 .707 3.169 22.104)"/><path d="m31.826 10.293h1v2h-1z" fill="#a4afc1" transform="matrix(.707 -.707 .707 .707 1.483 26.165)"/><path d="m31.149 6.727h2v1h-2z" fill="#a4afc1" transform="matrix(.707 -.707 .707 .707 4.306 24.85)"/><path d="m27.5 12-9.5 3.5-9.5-3.5 9.5-3.5z" fill="#f3f3f1"/><path d="m27.5 12v12l-9.5 3.5v-12z" fill="#f3f3f1"/><path d="m18 15.5v12l-9.5-3.5v-12z" fill="#f3f3f1"/><path d="m20.25 15.5 7.25-2.671v-.829l-9.5 3.5v12l2.25-.829z" fill="#d5dbe1"/><path d="m10.75 24v-11.171l-2.25-.829v12l9.5 3.5v-.829z" fill="#d5dbe1"/><g fill="#2fdf84"><circle cx="18" cy="15.5" r="1.75"/><circle cx="18" cy="8.5" r="1.75"/><circle cx="18" cy="27.5" r="1.75"/><circle cx="8.5" cy="24" r="1.75"/><circle cx="27.5" cy="24" r="1.75"/><circle cx="27.5" cy="12" r="1.75"/><circle cx="8.5" cy="12" r="1.75"/></g><path d="m10.181 9.5h6.138v1.5h-6.138z" transform="matrix(.938 -.346 .346 .938 -2.727 5.214)"/><path d="m19.681 13h6.138v1.5h-6.138z" transform="matrix(.938 -.346 .346 .938 -3.351 8.714)"/><path d="m12.5 10.681h1.5v6.138h-1.5z" transform="matrix(.345 -.938 .938 .345 -4.231 21.435)"/><path d="m22 7.181h1.5v6.138h-1.5z" transform="matrix(.345 -.938 .938 .345 5.272 28.059)"/><path d="m19.681 25h6.138v1.5h-6.138z" transform="matrix(.938 -.346 .346 .938 -7.5 9.454)"/><path d="m12.5 22.681h1.5v6.138h-1.5z" transform="matrix(.345 -.938 .938 .345 -15.492 29.29)"/><path d="m7.75 14h1.5v8h-1.5z"/><path d="m26.75 14h1.5v8h-1.5z"/><path d="m17.25 17.5h1.5v8h-1.5z"/><path d="m18 11c-1.378 0-2.5-1.122-2.5-2.5s1.122-2.5 2.5-2.5 2.5 1.122 2.5 2.5-1.122 2.5-2.5 2.5zm0-3.5c-.551 0-1 .449-1 1s.449 1 1 1 1-.449 1-1-.449-1-1-1z"/><path d="m18 18c-1.378 0-2.5-1.122-2.5-2.5s1.122-2.5 2.5-2.5 2.5 1.122 2.5 2.5-1.122 2.5-2.5 2.5zm0-3.5c-.551 0-1 .449-1 1s.449 1 1 1 1-.449 1-1-.449-1-1-1z"/><path d="m18 30c-1.378 0-2.5-1.122-2.5-2.5s1.122-2.5 2.5-2.5 2.5 1.122 2.5 2.5-1.122 2.5-2.5 2.5zm0-3.5c-.551 0-1 .449-1 1s.449 1 1 1 1-.449 1-1-.449-1-1-1z"/><path d="m8.5 26.5c-1.378 0-2.5-1.122-2.5-2.5s1.122-2.5 2.5-2.5 2.5 1.122 2.5 2.5-1.122 2.5-2.5 2.5zm0-3.5c-.551 0-1 .449-1 1s.449 1 1 1 1-.449 1-1-.449-1-1-1z"/><path d="m27.5 26.5c-1.378 0-2.5-1.122-2.5-2.5s1.122-2.5 2.5-2.5 2.5 1.122 2.5 2.5-1.122 2.5-2.5 2.5zm0-3.5c-.551 0-1 .449-1 1s.449 1 1 1 1-.449 1-1-.449-1-1-1z"/><path d="m27.5 14.5c-1.378 0-2.5-1.122-2.5-2.5s1.122-2.5 2.5-2.5 2.5 1.122 2.5 2.5-1.122 2.5-2.5 2.5zm0-3.5c-.551 0-1 .449-1 1s.449 1 1 1 1-.449 1-1-.449-1-1-1z"/><path d="m8.5 14.5c-1.378 0-2.5-1.122-2.5-2.5s1.122-2.5 2.5-2.5 2.5 1.122 2.5 2.5-1.122 2.5-2.5 2.5zm0-3.5c-.551 0-1 .449-1 1s.449 1 1 1 1-.449 1-1-.449-1-1-1z"/></svg>