<svg enable-background="new 0 0 36 36" height="512" viewBox="0 0 36 36" width="512" xmlns="http://www.w3.org/2000/svg"><g id="BG"><g><path d="m8.114 5.564c-1.805 6.677-6.504 10.327-7.374 13.545s-.847 10.475 13.955 14.477 19.432-4.501 20.388-8.041c4.481-16.572-23.772-31.807-26.969-19.981z" fill="#efefef"/></g></g><g id="Color"><g><g><path d="m3.555 26.967h1v2h-1z" fill="#a4afc1" transform="matrix(.707 -.707 .707 .707 -18.588 11.059)"/></g><g><path d="m7.621 31.033h1v2h-1z" fill="#a4afc1" transform="matrix(.707 -.707 .707 .707 -20.272 15.125)"/></g><g><path d="m2.878 31.533h2v1h-2z" fill="#a4afc1" transform="matrix(.707 -.707 .707 .707 -21.515 12.125)"/></g></g><g><path d="m4.879 7.092c-.827 0-1.5-.673-1.5-1.5s.673-1.5 1.5-1.5 1.5.673 1.5 1.5-.673 1.5-1.5 1.5zm0-2c-.276 0-.5.224-.5.5s.224.5.5.5.5-.224.5-.5-.224-.5-.5-.5z" fill="#a4afc1"/></g><g><path d="m13.75 6.75v15.5h-7v-13.5c0-1.1.9-2 2-2z" fill="#2fdf84"/></g><g><path d="m13.75 6.75h8.5v22.5h-8.5z" fill="#f3f3f1"/></g><g><path d="m13.75 22.25v7h-5c-1.1 0-2-.9-2-2v-5z" fill="#f3f3f1"/></g><g><path d="m29.25 8.75v18.5c0 1.1-.9 2-2 2h-5v-22.5h5c1.1 0 2 .9 2 2z" fill="#f3f3f1"/></g><g><path d="m11 6.75h-2.25c-1.1 0-2 .9-2 2v13.5h2.25v-13.5c0-1.1.9-2 2-2z" fill="#00b871"/></g><g><path d="m13.75 6.75h2.25v22.5h-2.25z" fill="#d5dbe1"/></g><g><path d="m9 27.25v-5h-2.25v5c0 1.1.9 2 2 2h2.25c-1.1 0-2-.9-2-2z" fill="#d5dbe1"/></g><g><path d="m22.25 6.75h2.25v22.5h-2.25z" fill="#d5dbe1"/></g></g><g id="Layer_2"><g><path d="m6.75 21.5h22.5v1.5h-22.5z"/></g><g><path d="m13.75 13h3.938v1.5h-3.938z"/></g><g><path d="m19.625 13h9.625v1.5h-9.625z"/></g><g><path d="m28.25 30h-20.5c-.965 0-1.75-.785-1.75-1.75v-20.5c0-.965.785-1.75 1.75-1.75h20.5c.965 0 1.75.785 1.75 1.75v20.5c0 .965-.785 1.75-1.75 1.75zm-20.5-22.5c-.138 0-.25.112-.25.25v20.5c0 .138.112.25.25.25h20.5c.138 0 .25-.112.25-.25v-20.5c0-.138-.112-.25-.25-.25z"/></g><g><path d="m21.5 6.75h1.5v22.5h-1.5z"/></g><g><path d="m13 6.75h1.5v22.5h-1.5z"/></g></g></svg>