<svg enable-background="new 0 0 36 36" height="512" viewBox="0 0 36 36" width="512" xmlns="http://www.w3.org/2000/svg"><g id="BG"><g><path d="m8.377 4.25c6.917 0 11.667-3.583 15-3.583s10.333 1.916 10.333 17.25-9.417 17.583-13.083 17.583c-17.167 0-24.5-31.25-12.25-31.25z" fill="#efefef"/></g></g><g id="Color"><g><g><path d="m30.625 28.561h2v1h-2z" fill="#a4afc1"/></g><g><path d="m28.375 30.811h1v2h-1z" fill="#a4afc1"/></g></g><g><path d="m6 33.311c-.827 0-1.5-.673-1.5-1.5s.673-1.5 1.5-1.5 1.5.673 1.5 1.5-.673 1.5-1.5 1.5zm0-2c-.275 0-.5.224-.5.5s.225.5.5.5.5-.224.5-.5-.225-.5-.5-.5z" fill="#a4afc1"/></g><g><path d="m29.25 22.25v5c0 1.1-.9 2-2 2h-13.5v-7z" fill="#f3f3f1"/></g><g><path d="m29.25 8.75v13.5h-22.5v-13.5c0-1.1.9-2 2-2h18.5c1.1 0 2 .9 2 2z" fill="#f3f3f1"/></g><g><path d="m13.75 22.25v7h-5c-1.1 0-2-.9-2-2v-5z" fill="#2fdf84"/></g><g><path d="m13.75 22.25h2.25v7h-2.25z" fill="#d5dbe1"/></g><g><path d="m11 6.75h-2.25c-1.1 0-2 .9-2 2v13.5h2.25v-13.5c0-1.1.9-2 2-2z" fill="#d5dbe1"/></g><g><path d="m9 27.25v-5h-2.25v5c0 1.1.9 2 2 2h2.25c-1.1 0-2-.9-2-2z" fill="#00b871"/></g></g><g id="Layer_2"><g><path d="m6.75 21.5h22.5v1.5h-22.5z"/></g><g><path d="m6.75 13h12.292v1.5h-12.292z"/></g><g><path d="m20.583 13h8.667v1.5h-8.667z"/></g><g><path d="m28.25 30h-20.5c-.965 0-1.75-.785-1.75-1.75v-20.5c0-.965.785-1.75 1.75-1.75h20.5c.965 0 1.75.785 1.75 1.75v20.5c0 .965-.785 1.75-1.75 1.75zm-20.5-22.5c-.138 0-.25.112-.25.25v20.5c0 .138.112.25.25.25h20.5c.138 0 .25-.112.25-.25v-20.5c0-.138-.112-.25-.25-.25z"/></g><g><path d="m13 22.25h1.5v7h-1.5z"/></g></g></svg>