<svg id="_x31__x2C_5" enable-background="new 0 0 36 36" height="512" viewBox="0 0 36 36" width="512" xmlns="http://www.w3.org/2000/svg"><path d="m27.623 4.167c-6.917 0-11.667-3.583-15-3.583s-10.333 1.916-10.333 17.249 9.417 17.583 13.083 17.583c17.167.001 24.5-31.249 12.25-31.249z" fill="#efefef"/><path d="m29.5 9c-.827 0-1.5-.673-1.5-1.5s.673-1.5 1.5-1.5 1.5.673 1.5 1.5-.673 1.5-1.5 1.5zm0-2c-.276 0-.5.224-.5.5s.224.5.5.5.5-.224.5-.5-.224-.5-.5-.5z" fill="#a4afc1"/><path d="m29.25 12.5-4.74 2-6.51 2.75-6.51-2.75-4.74-2 11.25-4.75z" fill="#f3f3f1"/><path d="m29.25 16.5-4.74 2-6.51 2.75-6.51-2.75-4.74-2 4.74-2 6.51 2.75 6.51-2.75z" fill="#f3f3f1"/><path d="m29.25 20.5-4.74 2-6.51 2.75-6.51-2.75-4.74-2 4.74-2 6.51 2.75 6.51-2.75z" fill="#2fdf84"/><path d="m29.25 24.5-11.25 4.75-11.25-4.75 4.74-2 6.51 2.75 6.51-2.75z" fill="#f3f3f1"/><path d="m21.5 16.75 5.386-2.275-1.126-.475-5.385 2.275z" fill="#d5dbe1"/><path d="m14.99 18-4.74-2 3.614-1.525-1.124-.475-4.74 2 4.74 2 6.51 2.75 1.125-.475z" fill="#d5dbe1"/><path d="m21.307 21.25 5.386-2.275-1.126-.475-5.385 2.275z" fill="#00b871"/><path d="m14.797 22.5-4.74-2 3.614-1.525-1.124-.475-4.74 2 4.74 2 6.51 2.75 1.125-.475z" fill="#00b871"/><path d="m20.778 25.125 5.386-2.275-1.126-.475-5.385 2.275z" fill="#d5dbe1"/><path d="m9.528 24.375 3.614-1.525-1.124-.475-4.74 2 11.25 4.75 1.125-.475z" fill="#d5dbe1"/><path d="m18 7.75 11.25 4.75-11.25 4.75-11.25-4.75z" fill="#2fdf84"/><path d="m18 18c-.099 0-.198-.02-.292-.059l-11.25-4.75c-.277-.117-.458-.39-.458-.691s.181-.574.458-.691l11.25-4.75c.187-.079.396-.079.583 0l11.25 4.75c.278.117.459.39.459.691s-.181.574-.458.691l-11.25 4.75c-.094.039-.193.059-.292.059zm-9.322-5.5 9.322 3.936 9.322-3.936-9.322-3.936z"/><path d="m18 22c-.099 0-.198-.02-.292-.059l-11.25-4.75c-.277-.117-.458-.39-.458-.691 0-.302.181-.574.458-.691l4.74-2 .583 1.382-3.102 1.309 9.321 3.936 9.321-3.936-3.103-1.31.583-1.382 4.74 2c.278.118.459.39.459.692 0 .301-.181.574-.458.691l-11.25 4.75c-.094.039-.193.059-.292.059z"/><path d="m18 26c-.099 0-.198-.02-.292-.059l-11.25-4.75c-.277-.117-.458-.39-.458-.691 0-.302.181-.574.458-.691l4.74-2 .583 1.382-3.102 1.309 9.321 3.936 9.321-3.936-3.103-1.31.583-1.382 4.74 2c.278.118.459.39.459.692 0 .301-.181.574-.458.691l-11.25 4.75c-.094.039-.193.059-.292.059z"/><path d="m18 30c-.099 0-.198-.02-.292-.059l-11.25-4.75c-.277-.117-.458-.39-.458-.691 0-.302.181-.574.458-.691l4.74-2 .583 1.382-3.102 1.309 9.321 3.936 9.321-3.936-3.103-1.31.583-1.382 4.74 2c.278.118.459.39.459.692 0 .301-.181.574-.458.691l-11.25 4.75c-.094.039-.193.059-.292.059z"/></svg>