<svg fill="none" height="512" viewBox="0 0 36 36" width="512" xmlns="http://www.w3.org/2000/svg"><path d="m19.8475 7.04443c-5.9084 1.96946-9.3966.86738-11.56504 0-7.22817-2.89126-7.950988 22.40727 3.61404 24.57577 11.5651 2.1684 20.2389-9.3966 20.9617-15.902.7228-6.50532-1.4456-8.67377-3.6141-10.1194-2.1684-1.44563-5.0597 0-9.3966 1.44563z" fill="#efefef"/><path d="m18 7.25c-5.9371 0-10.75 4.8129-10.75 10.75s4.8129 10.75 10.75 10.75 10.75-4.8129 10.75-10.75-4.8129-10.75-10.75-10.75z" fill="#2edf84"/><g clip-rule="evenodd" fill-rule="evenodd"><path d="m7.25 18c0-5.9371 4.8129-10.75 10.75-10.75.4228 0 .8399.02441 1.25.0719-5.3482.61931-9.5 5.1639-9.5 10.6781s4.1518 10.0588 9.5 10.6781c-.4101.0475-.8272.0719-1.25.0719-5.9371 0-10.75-4.8129-10.75-10.75z" fill="#00b872"/><path d="m18 8.75c-5.1086 0-9.25 4.1414-9.25 9.25s4.1414 9.25 9.25 9.25 9.25-4.1414 9.25-9.25-4.1414-9.25-9.25-9.25zm-10.75 9.25c0-5.9371 4.8129-10.75 10.75-10.75s10.75 4.8129 10.75 10.75-4.8129 10.75-10.75 10.75-10.75-4.8129-10.75-10.75z" fill="#000"/><path d="m14.4697 17.4697 5-5 1.0606 1.0606-4.4696 4.4697 4.4696 4.4697-1.0606 1.0606-5-5c-.2929-.2929-.2929-.7677 0-1.0606z" fill="#000"/><path d="m27.8878 28.5511 1.9319.5176-.2588.966-1.9319-.5177z" fill="#90a4ad"/><path d="m26.4046 30.2238-.5176 1.9319-.9659-.2588.5176-1.9319z" fill="#90a4ad"/></g></svg>