<svg id="_x31__x2C_5" enable-background="new 0 0 36 36" height="512" viewBox="0 0 36 36" width="512" xmlns="http://www.w3.org/2000/svg"><path d="m8.377 4.167c6.917 0 11.667-3.583 15-3.583s10.333 1.916 10.333 17.249-9.417 17.583-13.083 17.583c-17.167.001-24.5-31.249-12.25-31.249z" fill="#efefef"/><path d="m25.25 5c-.827 0-1.5-.673-1.5-1.5s.673-1.5 1.5-1.5 1.5.673 1.5 1.5-.673 1.5-1.5 1.5zm0-2c-.275 0-.5.225-.5.5s.225.5.5.5.5-.225.5-.5-.225-.5-.5-.5z" fill="#a4afc1"/><path d="m26.793 7.043c.181-.181.431-.293.707-.293s.526.112.707.293l.75.75c.181.181.293.431.293.707s-.112.526-.293.707l-11.668 11.668c-.598.598-1.567.598-2.164 0-.598-.598-.598-1.567 0-2.164z" fill="#2fdf84"/><path d="m17.375 18.711 11.25-11.25-.418-.418c-.181-.181-.431-.293-.707-.293s-.526.112-.707.293l-11.668 11.668c-.598.598-.598 1.567 0 2.164.598.598 1.567.598 2.164 0l.052-.052c-.553-.6-.548-1.53.034-2.112z" fill="#00b871"/><path d="m16.207 22.073c-.609 0-1.182-.237-1.612-.668s-.668-1.003-.668-1.612.237-1.182.668-1.612l11.668-11.668c.66-.662 1.814-.662 2.475 0l.75.75c.33.33.512.769.512 1.237s-.182.907-.513 1.237l-11.668 11.668c-.43.431-1.003.668-1.612.668zm11.293-14.573c-.09 0-.149.046-.177.073l-11.668 11.668c-.304.305-.304.799 0 1.104.305.305.799.305 1.104 0l11.668-11.668c.027-.028.073-.087.073-.177s-.046-.149-.073-.177l-.75-.75c-.028-.027-.087-.073-.177-.073z"/><path d="m16.5 17.392h1.5v2.715h-1.5z" transform="matrix(.707 -.707 .707 .707 -8.206 17.689)"/><path d="m19.78 11.78-1.06-1.06 3.793-3.793c.682-.682 1.793-.682 2.475 0l3.042 3.043-1.06 1.06-3.043-3.043c-.098-.098-.256-.098-.354 0z"/><path d="m29.25 30h-21c-1.24 0-2.25-1.01-2.25-2.25s1.01-2.25 2.25-2.25h19.5c.413 0 .75-.337.75-.75s-.337-.75-.75-.75h-12.586c-.71 0-1.345-.424-1.616-1.08-.272-.656-.123-1.405.379-1.907l.668-.668 1.061 1.061-.668.668c-.103.103-.078.215-.054.272.023.058.085.154.23.154h12.586c1.24 0 2.25 1.01 2.25 2.25s-1.01 2.25-2.25 2.25h-19.5c-.413 0-.75.337-.75.75s.337.75.75.75h21z"/></svg>