<svg enable-background="new 0 0 36 36" height="512" viewBox="0 0 36 36" width="512" xmlns="http://www.w3.org/2000/svg"><g id="BG"><g><path d="m1.003 14.311c3.253 6.104 2.324 11.981 3.891 14.923s6.551 8.218 20.083 1.008 11.09-16.579 9.365-19.815c-8.072-15.151-39.1-6.927-33.339 3.884z" fill="#efefef"/></g></g><g id="Color"><g><g><path d="m3.556 26.967h1v2h-1z" fill="#a4afc1" transform="matrix(.707 -.707 .707 .707 -18.588 11.059)"/></g><g><path d="m7.621 31.033h1v2h-1z" fill="#a4afc1" transform="matrix(.707 -.707 .707 .707 -20.272 15.125)"/></g><g><path d="m2.879 31.533h2v1h-2z" fill="#a4afc1" transform="matrix(.707 -.707 .707 .707 -21.515 12.125)"/></g></g><g><path d="m13.25 6.5c-.827 0-1.5-.673-1.5-1.5s.673-1.5 1.5-1.5 1.5.673 1.5 1.5-.673 1.5-1.5 1.5zm0-2c-.275 0-.5.225-.5.5s.225.5.5.5.5-.225.5-.5-.225-.5-.5-.5z" fill="#a4afc1"/></g><g><path d="m6.75 7.75v7.5c0 .552.448 1 1 1h2.5c.552 0 1-.448 1-1v-7.5c0-.552-.448-1-1-1h-2.5c-.552 0-1 .448-1 1z" fill="#2fdf84"/></g><g><path d="m9 15.25v-7.5c0-.552.448-1 1-1h-2.25c-.552 0-1 .448-1 1v7.5c0 .552.448 1 1 1h2.25c-.552 0-1-.448-1-1z" fill="#00b871"/></g><g><path d="m6.75 20.75v7.5c0 .552.448 1 1 1h2.5c.552 0 1-.448 1-1v-7.5c0-.552-.448-1-1-1h-2.5c-.552 0-1 .448-1 1z" fill="#2fdf84"/></g><g><path d="m9 28.25v-7.5c0-.552.448-1 1-1h-2.25c-.552 0-1 .448-1 1v7.5c0 .552.448 1 1 1h2.25c-.552 0-1-.448-1-1z" fill="#00b871"/></g><g><path d="m15.75 7.75v7.5c0 .552.448 1 1 1h2.5c.552 0 1-.448 1-1v-7.5c0-.552-.448-1-1-1h-2.5c-.552 0-1 .448-1 1z" fill="#2fdf84"/></g><g><path d="m18 15.25v-7.5c0-.552.448-1 1-1h-2.25c-.552 0-1 .448-1 1v7.5c0 .552.448 1 1 1h2.25c-.552 0-1-.448-1-1z" fill="#00b871"/></g><g><path d="m15.75 20.75v7.5c0 .552.448 1 1 1h2.5c.552 0 1-.448 1-1v-7.5c0-.552-.448-1-1-1h-2.5c-.552 0-1 .448-1 1z" fill="#2fdf84"/></g><g><path d="m18 28.25v-7.5c0-.552.448-1 1-1h-2.25c-.552 0-1 .448-1 1v7.5c0 .552.448 1 1 1h2.25c-.552 0-1-.448-1-1z" fill="#00b871"/></g><g><path d="m24.75 7.75v7.5c0 .552.448 1 1 1h2.5c.552 0 1-.448 1-1v-7.5c0-.552-.448-1-1-1h-2.5c-.552 0-1 .448-1 1z" fill="#2fdf84"/></g><g><path d="m27 15.25v-7.5c0-.552.448-1 1-1h-2.25c-.552 0-1 .448-1 1v7.5c0 .552.448 1 1 1h2.25c-.552 0-1-.448-1-1z" fill="#00b871"/></g><g><path d="m24.75 20.75v7.5c0 .552.448 1 1 1h2.5c.552 0 1-.448 1-1v-7.5c0-.552-.448-1-1-1h-2.5c-.552 0-1 .448-1 1z" fill="#2fdf84"/></g><g><path d="m27 28.25v-7.5c0-.552.448-1 1-1h-2.25c-.552 0-1 .448-1 1v7.5c0 .552.448 1 1 1h2.25c-.552 0-1-.448-1-1z" fill="#00b871"/></g></g><g id="Layer_2"><g><path d="m28.25 17h-2.5c-.965 0-1.75-.785-1.75-1.75v-7.5c0-.965.785-1.75 1.75-1.75h2.5c.965 0 1.75.785 1.75 1.75v7.5c0 .965-.785 1.75-1.75 1.75zm-2.5-9.5c-.138 0-.25.112-.25.25v7.5c0 .138.112.25.25.25h2.5c.138 0 .25-.112.25-.25v-7.5c0-.138-.112-.25-.25-.25z"/></g><g><path d="m19.25 17h-2.5c-.965 0-1.75-.785-1.75-1.75v-7.5c0-.965.785-1.75 1.75-1.75h2.5c.965 0 1.75.785 1.75 1.75v7.5c0 .965-.785 1.75-1.75 1.75zm-2.5-9.5c-.138 0-.25.112-.25.25v7.5c0 .138.112.25.25.25h2.5c.138 0 .25-.112.25-.25v-7.5c0-.138-.112-.25-.25-.25z"/></g><g><path d="m10.25 17h-2.5c-.965 0-1.75-.785-1.75-1.75v-7.5c0-.965.785-1.75 1.75-1.75h2.5c.965 0 1.75.785 1.75 1.75v7.5c0 .965-.785 1.75-1.75 1.75zm-2.5-9.5c-.138 0-.25.112-.25.25v7.5c0 .138.112.25.25.25h2.5c.138 0 .25-.112.25-.25v-7.5c0-.138-.112-.25-.25-.25z"/></g><g><path d="m28.25 30h-2.5c-.965 0-1.75-.785-1.75-1.75v-7.5c0-.965.785-1.75 1.75-1.75h2.5c.965 0 1.75.785 1.75 1.75v7.5c0 .965-.785 1.75-1.75 1.75zm-2.5-9.5c-.138 0-.25.112-.25.25v7.5c0 .138.112.25.25.25h2.5c.138 0 .25-.112.25-.25v-7.5c0-.138-.112-.25-.25-.25z"/></g><g><path d="m19.25 30h-2.5c-.965 0-1.75-.785-1.75-1.75v-7.5c0-.965.785-1.75 1.75-1.75h2.5c.965 0 1.75.785 1.75 1.75v7.5c0 .965-.785 1.75-1.75 1.75zm-2.5-9.5c-.138 0-.25.112-.25.25v7.5c0 .138.112.25.25.25h2.5c.138 0 .25-.112.25-.25v-7.5c0-.138-.112-.25-.25-.25z"/></g><g><path d="m10.25 30h-2.5c-.965 0-1.75-.785-1.75-1.75v-7.5c0-.965.785-1.75 1.75-1.75h2.5c.965 0 1.75.785 1.75 1.75v7.5c0 .965-.785 1.75-1.75 1.75zm-2.5-9.5c-.138 0-.25.112-.25.25v7.5c0 .138.112.25.25.25h2.5c.138 0 .25-.112.25-.25v-7.5c0-.138-.112-.25-.25-.25z"/></g></g></svg>