<svg id="_x31__x2C_5" enable-background="new 0 0 36 36" height="512" viewBox="0 0 36 36" width="512" xmlns="http://www.w3.org/2000/svg"><path d="m8.377 4.167c6.917 0 11.667-3.583 15-3.583s10.333 1.916 10.333 17.249-9.417 17.583-13.083 17.583c-17.167.001-24.5-31.249-12.25-31.249z" fill="#efefef"/><g fill="#a4afc1"><path d="m30.763 7.783h1v2h-1z" transform="matrix(.707 -.707 .707 .707 2.943 24.674)"/><path d="m26.697 3.717h1v2h-1z" transform="matrix(.707 -.707 .707 .707 4.628 20.609)"/><path d="m30.263 4.394h2v1h-2z" transform="matrix(.707 -.707 .707 .707 5.696 23.539)"/></g><ellipse cx="18" cy="13" fill="#2fdf84" rx="4.25" ry="1.25"/><path d="m22.25 13v10c0 .69-1.9 1.25-4.25 1.25s-4.25-.56-4.25-1.25v-10c0 .69 1.9 1.25 4.25 1.25s4.25-.56 4.25-1.25z" fill="#f3f3f1"/><path d="m16 13c0-.575 1.326-1.054 3.125-1.2-.36-.029-.733-.05-1.125-.05-2.35 0-4.25.56-4.25 1.25s1.9 1.25 4.25 1.25c.392 0 .765-.021 1.125-.05-1.799-.146-3.125-.625-3.125-1.2z" fill="#00b871"/><path d="m20.25 14.25c.728 0 1.402-.059 2-.153v-1.097c0 .575-1.326 1.054-3.125 1.2.36.029.733.05 1.125.05z" fill="#d5dbe1"/><path d="m16 23v-8.903c-1.334-.211-2.25-.62-2.25-1.097v10c0 .69 1.9 1.25 4.25 1.25.392 0 .765-.021 1.125-.05-1.799-.146-3.125-.625-3.125-1.2z" fill="#d5dbe1"/><path d="m27.25 12h-3.25v-1.5h2.5v-2.5h1.5v3.25c0 .414-.336.75-.75.75z"/><path d="m18 30c-6.617 0-12-5.383-12-12s5.383-12 12-12c3.69 0 7.108 1.653 9.379 4.536l-1.178.928c-1.984-2.519-4.973-3.964-8.201-3.964-5.79 0-10.5 4.71-10.5 10.5s4.71 10.5 10.5 10.5c5.512 0 10.116-4.305 10.482-9.8l1.496.1c-.417 6.28-5.679 11.2-11.978 11.2z"/><path d="m18 15c-2.307 0-5-.524-5-2s2.693-2 5-2 5 .524 5 2-2.693 2-5 2zm-3.259-2c.519.229 1.649.5 3.259.5s2.74-.271 3.259-.5c-.519-.229-1.649-.5-3.259-.5s-2.74.271-3.259.5z"/><path d="m14.471 23.16c-.001 0-.001 0 0-.002zm-.132-.16h-1.339c0-.259.089-.642.515-.995z"/><path d="m16.055 22.647-.244-1.479c.34-.057.707-.1 1.096-.128l.109 1.496c-.34.025-.662.063-.961.111zm3.883 0c-.3-.049-.622-.087-.963-.112l.111-1.496c.386.029.753.072 1.094.127z"/><path d="m23 23h-1.304l.789-.995c.426.353.515.736.515.995z"/><path d="m18 25c-2.307 0-5-.524-5-2v-10h1.5v9.866c.313.239 1.559.634 3.5.634s3.187-.395 3.5-.634v-9.866h1.5v10c0 1.476-2.693 2-5 2z"/></svg>