<svg fill="none" height="512" viewBox="0 0 36 36" width="512" xmlns="http://www.w3.org/2000/svg"><path d="m17.0589 26.9956c-3.0501-3.0501-9.15029.7625-12.20038-3.8127-6.10019-12.9628 4.57517-19.82555 6.86278-18.30051 2.2875 1.52504 5.5919-.00001 12.2003-1.52504 9.9128-2.28758 6.1002 6.86275 8.3878 14.48795s-1.5251 9.1503-5.3377 12.9629-6.1002 0-9.9128-3.8126z" fill="#efefef"/><path d="m18 7.25c-5.9371 0-10.75 4.8129-10.75 10.75s4.8129 10.75 10.75 10.75 10.75-4.8129 10.75-10.75-4.8129-10.75-10.75-10.75z" fill="#2edf84"/><g clip-rule="evenodd" fill-rule="evenodd"><path d="m7.25 18c0-5.9371 4.8129-10.75 10.75-10.75.4228 0 .8399.02441 1.25.0719-5.3482.61931-9.5 5.1639-9.5 10.6781s4.1518 10.0588 9.5 10.6781c-.4101.0475-.8272.0719-1.25.0719-5.9371 0-10.75-4.8129-10.75-10.75z" fill="#00b872"/><path d="m18 8.75c-5.1086 0-9.25 4.1414-9.25 9.25s4.1414 9.25 9.25 9.25 9.25-4.1414 9.25-9.25-4.1414-9.25-9.25-9.25zm-10.75 9.25c0-5.9371 4.8129-10.75 10.75-10.75s10.75 4.8129 10.75 10.75-4.8129 10.75-10.75 10.75-10.75-4.8129-10.75-10.75z" fill="#000"/><path d="m20.3457 14.3902.819 1.5667-1.3294.6949-1.5-2.8696c-.0943-.1804-.1112-.3913-.0469-.5844.0644-.1931.2044-.3518.388-.4396l3-1.4348.6472 1.3532-1.0015.479c2.008.8542 3.4279 2.7834 3.4279 5.0618 0 3.0866-2.6061 5.5326-5.75 5.5326v-1.5c2.379 0 4.25-1.8365 4.25-4.0326 0-1.7603-1.2021-3.2895-2.9043-3.8272z" fill="#000"/><path d="m15.6543 21.6098-.819-1.5667 1.3294-.6949 1.5 2.8696c.0943.1804.1112.3913.0469.5844-.0644.1931-.2044.3518-.388.4396l-3 1.4348-.6472-1.3532 1.0015-.479c-2.008-.8542-3.4279-2.7834-3.4279-5.0618 0-3.0866 2.6061-5.5326 5.75-5.5326v1.5c-2.379 0-4.25 1.8365-4.25 4.0326 0 1.7603 1.2021 3.2895 2.9043 3.8272z" fill="#000"/><path d="m13.122 30.7675.5176 1.9318-.9659.2589-.5176-1.9319z" fill="#90a4ad"/><path d="m10.9318 30.3194-1.93183.5177-.25882-.966 1.93185-.5176z" fill="#90a4ad"/></g></svg>