<svg fill="none" height="512" viewBox="0 0 36 36" width="512" xmlns="http://www.w3.org/2000/svg"><path d="m32.0055 20.2759c2.973-9.6626-1.4305-14.29204-3.9186-15.6743-7.0534-3.918558-18.62072.11939-21.16028 3.91856-3.91856 5.86214-4.97451 12.82114-1.79246 19.16454 3.3599 6.698 11.37674 6.3984 13.54814 2.7794 4.7023-7.8371 10.1883 0 13.3232-10.1882z" fill="#efefef"/><path d="m18 7.25c-5.9371 0-10.75 4.8129-10.75 10.75s4.8129 10.75 10.75 10.75 10.75-4.8129 10.75-10.75-4.8129-10.75-10.75-10.75z" fill="#2edf84"/><g clip-rule="evenodd" fill-rule="evenodd"><path d="m7.25 18c0-5.9371 4.8129-10.75 10.75-10.75.4228 0 .8399.02441 1.25.0719-5.3482.61931-9.5 5.1639-9.5 10.6781s4.1518 10.0588 9.5 10.6781c-.4101.0475-.8272.0719-1.25.0719-5.9371 0-10.75-4.8129-10.75-10.75z" fill="#00b872"/><path d="m18 8.75c-5.1086 0-9.25 4.1414-9.25 9.25s4.1414 9.25 9.25 9.25 9.25-4.1414 9.25-9.25-4.1414-9.25-9.25-9.25zm-10.75 9.25c0-5.9371 4.8129-10.75 10.75-10.75s10.75 4.8129 10.75 10.75-4.8129 10.75-10.75 10.75-10.75-4.8129-10.75-10.75z" fill="#000"/><path d="m20.7529 11.4238 2.7272 2.2728c.1724.1436.2714.3568.2699.5811s-.1033.4361-.2775.5775l-2.7273 2.2124-.945-1.1648 1.0848-.8801h-6.0668c-.59 0-1.0682.4783-1.0682 1.0682v.9091h-1.5v-.9091c0-1.4184 1.1498-2.5682 2.5682-2.5682h6.1103l-1.1359-.9465z" fill="#000"/><path d="m15.267 24.1117-2.7272-2.1195c-.1858-.1443-.293-.3675-.2897-.6027s.1167-.4552.3064-.5943l2.7273-2 .887 1.2096-.8798.6452h5.8908c.6829 0 1.0682-.4678 1.0682-.85v-.8h1.5v.8c0 1.3851-1.2428 2.35-2.5682 2.35h-5.9945l1.0002.7773z" fill="#000"/><path d="m26.4996 29h2v1h-2z" fill="#90a4ad"/><path d="m25.4999 30.9996v2h-1v-2z" fill="#90a4ad"/></g></svg>