<svg id="_x31__x2C_5" enable-background="new 0 0 36 36" height="512" viewBox="0 0 36 36" width="512" xmlns="http://www.w3.org/2000/svg"><path d="m4.167 8.377c0 6.917-3.583 11.667-3.583 15s1.916 10.333 17.249 10.333 17.583-9.417 17.583-13.083c.001-17.167-31.249-24.5-31.249-12.25z" fill="#efefef"/><g fill="#a4afc1"><path d="m27.528 2.822h2v1h-2z" transform="matrix(.707 -.707 .707 .707 6.007 21.145)"/><path d="m23.462 6.888h2v1h-2z" transform="matrix(.707 -.707 .707 .707 1.941 19.461)"/><path d="m28.205 6.387h1v2h-1z" transform="matrix(.707 -.707 .707 .707 3.181 22.457)"/><path d="m24.139 2.321h1v2h-1z" transform="matrix(.707 -.707 .707 .707 4.865 18.392)"/></g><path d="m25.25 13-6.25 2.25-6.25-2.25 6.25-2.25z" fill="#2fdf84"/><path d="m25.25 13v8l-6.25 2.25v-8z" fill="#f3f3f1"/><path d="m19 15.25v8l-6.25-2.25v-8z" fill="#f3f3f1"/><path d="m21.25 15.25 4-1.44v-.81l-6.25 2.25v8l2.25-.81z" fill="#d5dbe1"/><path d="m15 21v-7.19l-2.25-.81v8l6.25 2.25v-.81z" fill="#d5dbe1"/><path d="m9.01 25h-1.26c-.965 0-1.75-.785-1.75-1.75v-15.493c0-.47.184-.911.517-1.242.334-.332.756-.508 1.246-.507l1.242.009-.011 1.5-1.242-.009s-.001 0-.002 0c-.09 0-.149.045-.176.072-.028.027-.074.087-.074.177v15.493c0 .138.112.25.25.25h1.26z"/><path d="m6 18h3.01v1.5h-3.01z"/><path d="m6.75 10.756h1.5v3h-1.5z" transform="matrix(.008 -1 1 .008 -4.811 19.664)"/><path d="m28.255 30.005h-15.492c-.47 0-.912-.184-1.243-.518-.331-.333-.511-.776-.507-1.246l.008-1.241 1.5.011-.009 1.243c-.001.091.045.15.072.178.027.027.087.074.178.074h15.492c.138 0 .25-.112.25-.25v-1.26h1.5v1.26c.001.964-.784 1.749-1.749 1.749z"/><path d="m23.005 26.995h1.5v3.01h-1.5z"/><path d="m15.761 27.755h3v1.5h-3z" transform="matrix(.008 -1 1 .008 -11.373 45.551)"/><path d="m19 16c-.086 0-.172-.015-.254-.044l-6.25-2.25c-.298-.107-.496-.39-.496-.706s.198-.599.496-.706l6.25-2.25c.164-.06.344-.06.508 0l6.25 2.25c.298.107.496.39.496.706s-.198.599-.496.706l-6.25 2.25c-.082.029-.168.044-.254.044zm-4.036-3 4.036 1.453 4.036-1.453-4.036-1.453z"/><path d="m19 24c-.086 0-.172-.015-.254-.044l-6.25-2.25c-.298-.107-.496-.39-.496-.706v-8h1.5v7.473l5.5 1.98 5.5-1.98v-7.473h1.5v8c0 .316-.198.599-.496.706l-6.25 2.25c-.082.029-.168.044-.254.044z"/><path d="m18.25 15.25h1.5v8h-1.5z"/></svg>