<svg id="_x31__x2C_5" height="512" viewBox="0 0 36 36" width="512" xmlns="http://www.w3.org/2000/svg"><path d="m4.167 8.377c0 6.917-3.583 11.667-3.583 15s1.916 10.333 17.249 10.333 17.583-9.417 17.583-13.083c.001-17.167-31.249-24.5-31.249-12.25z" fill="#efefef"/><path d="m29.625 2.25h1v2h-1z" fill="#a4afc1"/><path d="m31.875 5.25h2v1h-2z" fill="#a4afc1"/><path d="m13.75 13.25h8.5c.552 0 1-.448 1-1v-1.5c0-.552-.448-1-1-1h-8.5v-2l-5 3.75 5 3.75z" fill="#f3f3f1"/><path d="m26.25 22.25h-16.5c-.552 0-1-.448-1-1v-1.5c0-.552.448-1 1-1h16.5c.552 0 1 .448 1 1v1.5c0 .552-.448 1-1 1z" fill="#f3f3f1"/><g fill="#2fdf84"><path d="m16.25 9.5v-1.75c0-.552.448-1 1-1h1.5c.552 0 1 .448 1 1v1.75z"/><path d="m16.25 13.5h3.5v5.25h-3.5z"/><path d="m16.25 22.25h3.5v7h-3.5z"/></g><path d="m11 11.5 2.75-2.062v-1.688l-5 3.75 5 3.75v-1.687z" fill="#d5dbe1"/><path d="m11 21.25v-1.5c0-.552.448-1 1-1h-2.25c-.552 0-1 .448-1 1v1.5c0 .552.448 1 1 1h2.25c-.552 0-1-.448-1-1z" fill="#d5dbe1"/><path d="m19.125 6.826c-.116-.047-.242-.076-.375-.076h-1.5c-.552 0-1 .448-1 1v1.75h2.25v-1.75c0-.419.259-.776.625-.924z" fill="#00b871"/><path d="m16.25 13.5h2.25v5.25h-2.25z" fill="#00b871"/><path d="m16.25 22.25h2.25v7h-2.25z" fill="#00b871"/><path d="m13.75 16c-.159 0-.318-.051-.45-.15l-5-3.75c-.189-.142-.3-.364-.3-.6s.111-.458.3-.6l5-3.75c.227-.172.532-.198.786-.071s.414.387.414.671v1.25h7.75c.965 0 1.75.785 1.75 1.75v1.5c0 .965-.785 1.75-1.75 1.75h-7.75v1.25c0 .284-.161.544-.415.671-.106.053-.221.079-.335.079zm-3.75-4.5 3 2.25v-.5c0-.414.336-.75.75-.75h8.5c.138 0 .25-.112.25-.25v-1.5c0-.138-.112-.25-.25-.25h-8.5c-.414 0-.75-.336-.75-.75v-.5z"/><path d="m10 28.5h16v1.5h-16z"/><path d="m26.25 23h-16.5c-.965 0-1.75-.785-1.75-1.75v-1.5c0-.965.785-1.75 1.75-1.75h16.5c.965 0 1.75.785 1.75 1.75v1.5c0 .965-.785 1.75-1.75 1.75zm-16.5-3.5c-.138 0-.25.112-.25.25v1.5c0 .138.112.25.25.25h16.5c.138 0 .25-.112.25-.25v-1.5c0-.138-.112-.25-.25-.25z"/><path d="m20.5 9.5h-1.5v-1.75c0-.138-.112-.25-.25-.25h-1.5c-.138 0-.25.112-.25.25v1.75h-1.5v-1.75c0-.965.785-1.75 1.75-1.75h1.5c.965 0 1.75.785 1.75 1.75z"/><path d="m19 13.5h1.5v5.25h-1.5z"/><path d="m19 22.25h1.5v7h-1.5z"/><path d="m15.5 13.5h1.5v5.25h-1.5z"/><path d="m15.5 22.25h1.5v7h-1.5z"/></svg>