<svg id="_x31__x2C_5" height="512" viewBox="0 0 36 36" width="512" xmlns="http://www.w3.org/2000/svg"><path d="m31.833 8.377c0 6.917 3.583 11.667 3.583 15s-1.916 10.333-17.249 10.333-17.584-9.417-17.584-13.083c0-17.167 31.25-24.5 31.25-12.25z" fill="#efefef"/><path d="m31.5 5c-.827 0-1.5-.673-1.5-1.5s.673-1.5 1.5-1.5 1.5.673 1.5 1.5-.673 1.5-1.5 1.5zm0-2c-.275 0-.5.225-.5.5s.225.5.5.5.5-.225.5-.5-.225-.5-.5-.5z" fill="#a4afc1"/><path d="m22.25 13.25h-8.5c-.552 0-1-.448-1-1v-1.5c0-.552.448-1 1-1h8.5v-2l5 3.75-5 3.75z" fill="#f3f3f1"/><path d="m26.25 22.25h-16.5c-.552 0-1-.448-1-1v-1.5c0-.552.448-1 1-1h16.5c.552 0 1 .448 1 1v1.5c0 .552-.448 1-1 1z" fill="#f3f3f1"/><g fill="#2fdf84"><path d="m16.25 9.5v-1.75c0-.552.448-1 1-1h1.5c.552 0 1 .448 1 1v1.75z"/><path d="m16.25 13.5h3.5v5.25h-3.5z"/><path d="m16.25 22.25h3.5v7h-3.5z"/></g><path d="m19.125 6.826c-.116-.047-.242-.076-.375-.076h-1.5c-.552 0-1 .448-1 1v1.75h2.25v-1.75c0-.419.259-.776.625-.924z" fill="#00b871"/><path d="m16.25 13.5h2.25v5.25h-2.25z" fill="#00b871"/><path d="m16.25 22.25h2.25v7h-2.25z" fill="#00b871"/><path d="m15 12.25v-1.5c0-.552.448-1 1-1h-2.25c-.552 0-1 .448-1 1v1.5c0 .552.448 1 1 1h2.25c-.552 0-1-.448-1-1z" fill="#d5dbe1"/><path d="m11 21.25v-1.5c0-.552.448-1 1-1h-2.25c-.552 0-1 .448-1 1v1.5c0 .552.448 1 1 1h2.25c-.552 0-1-.448-1-1z" fill="#d5dbe1"/><path d="m22.25 16c-.114 0-.229-.026-.335-.079-.255-.127-.415-.387-.415-.671v-1.25h-7.75c-.965 0-1.75-.785-1.75-1.75v-1.5c0-.965.785-1.75 1.75-1.75h7.75v-1.25c0-.284.16-.544.415-.671.253-.126.558-.1.785.071l5 3.75c.188.142.3.363.3.6s-.111.458-.3.6l-5 3.75c-.133.099-.291.15-.45.15zm-8.5-5.5c-.138 0-.25.112-.25.25v1.5c0 .138.112.25.25.25h8.5c.414 0 .75.336.75.75v.5l3-2.25-3-2.25v.5c0 .414-.336.75-.75.75z"/><path d="m10 28.5h16v1.5h-16z"/><path d="m26.25 23h-16.5c-.965 0-1.75-.785-1.75-1.75v-1.5c0-.965.785-1.75 1.75-1.75h16.5c.965 0 1.75.785 1.75 1.75v1.5c0 .965-.785 1.75-1.75 1.75zm-16.5-3.5c-.138 0-.25.112-.25.25v1.5c0 .138.112.25.25.25h16.5c.138 0 .25-.112.25-.25v-1.5c0-.138-.112-.25-.25-.25z"/><path d="m20.5 9.5h-1.5v-1.75c0-.138-.112-.25-.25-.25h-1.5c-.138 0-.25.112-.25.25v1.75h-1.5v-1.75c0-.965.785-1.75 1.75-1.75h1.5c.965 0 1.75.785 1.75 1.75z"/><path d="m19 13.5h1.5v5.25h-1.5z"/><path d="m19 22.25h1.5v7h-1.5z"/><path d="m15.5 13.5h1.5v5.25h-1.5z"/><path d="m15.5 22.25h1.5v7h-1.5z"/></svg>