<svg enable-background="new 0 0 36 36" height="512" viewBox="0 0 36 36" width="512" xmlns="http://www.w3.org/2000/svg"><path d="m7.678 5.564c-1.805 6.677-6.504 10.327-7.374 13.545s-.847 10.475 13.955 14.477 19.432-4.501 20.388-8.041c4.481-16.572-23.772-31.807-26.969-19.981z" fill="#efefef"/><circle cx="18" cy="18" fill="#2fdf84" r="4.25"/><path d="m16 18c0-1.955 1.328-3.585 3.125-4.08-.361-.099-.733-.17-1.125-.17-2.347 0-4.25 1.903-4.25 4.25s1.903 4.25 4.25 4.25c.392 0 .764-.07 1.125-.17-1.797-.495-3.125-2.125-3.125-4.08z" fill="#00b871"/><g fill="#a4afc1"><path d="m4.306 3.717h1v2h-1z" transform="matrix(.707 -.707 .707 .707 -1.928 4.779)"/><path d="m3.629 8.283h2v1h-2z" transform="matrix(.707 -.707 .707 .707 -4.855 5.846)"/><path d="m7.694 4.217h2v1h-2z" transform="matrix(.707 -.707 .707 .707 -.789 7.529)"/></g><path d="m18.001 30c-.829 0-1.656-.085-2.46-.252l.307-1.469c1.21.252 2.492.288 3.713.106l.221 1.483c-.585.087-1.184.132-1.781.132zm5.801-1.493-.727-1.312c1.094-.605 2.062-1.394 2.881-2.343l1.137.979c-.935 1.084-2.042 1.984-3.291 2.676zm-12.197-.351c-1.208-.762-2.263-1.724-3.133-2.859l1.189-.913c.763.994 1.686 1.836 2.744 2.504zm17.648-5.978-1.406-.522c.433-1.167.653-2.397.653-3.656h1.5c0 1.438-.251 2.843-.747 4.178zm-22.728-.653c-.349-1.14-.526-2.326-.525-3.525 0-.23.006-.46.02-.688l1.498.089c-.012.198-.018.398-.018.599-.001 1.05.153 2.088.459 3.085zm21.674-6.032c-.298-1.214-.806-2.354-1.511-3.39l1.24-.844c.806 1.184 1.387 2.488 1.728 3.876zm-19.82-1.706-1.373-.602c.572-1.308 1.368-2.493 2.365-3.524l1.078 1.043c-.872.902-1.568 1.94-2.07 3.083zm15.714-4.34c-1.021-.729-2.149-1.263-3.356-1.587l.391-1.448c1.379.371 2.67.982 3.837 1.815zm-10.634-.917-.65-1.352c1.289-.62 2.665-.999 4.092-1.128l.135 1.494c-1.248.113-2.451.445-3.577.986z"/><path d="m18 23c-2.757 0-5-2.243-5-5s2.243-5 5-5 5 2.243 5 5-2.243 5-5 5zm0-8.5c-1.93 0-3.5 1.57-3.5 3.5s1.57 3.5 3.5 3.5 3.5-1.57 3.5-3.5-1.57-3.5-3.5-3.5z"/></svg>