<svg enable-background="new 0 0 36 36" height="512" viewBox="0 0 36 36" width="512" xmlns="http://www.w3.org/2000/svg"><g id="BG"><g><path d="m27.417 3.914c-6.915.129-11.732-3.365-15.064-3.302s-10.296 2.109-10.009 17.44 9.744 17.404 13.41 17.336c17.163-.321 23.911-31.703 11.663-31.474z" fill="#efefef"/></g></g><g id="Color"><g><g><path d="m31.686 31.033h1v2h-1z" fill="#a4afc1" transform="matrix(.707 -.707 .707 .707 -13.224 32.133)"/></g><g><path d="m26.943 31.533h2v1h-2z" fill="#a4afc1" transform="matrix(.707 -.707 .707 .707 -14.466 29.141)"/></g><g><path d="m31.009 27.467h2v1h-2z" fill="#a4afc1" transform="matrix(.707 -.707 .707 .707 -10.401 30.825)"/></g></g><g><path d="m31 7.125c-.827 0-1.5-.673-1.5-1.5s.673-1.5 1.5-1.5 1.5.673 1.5 1.5-.673 1.5-1.5 1.5zm0-2c-.276 0-.5.224-.5.5s.224.5.5.5.5-.224.5-.5-.224-.5-.5-.5z" fill="#a4afc1"/></g><g><path d="m29.25 8.75v9.25h-22.5v-9.25c0-1.1.9-2 2-2h18.5c1.1 0 2 .9 2 2z" fill="#f3f3f1"/></g><g><path d="m29.25 18v9.25c0 1.1-.9 2-2 2h-18.5c-1.1 0-2-.9-2-2v-9.25z" fill="#2fdf84"/></g><g><path d="m11 6.75h-2.25c-1.1 0-2 .9-2 2v9.25h2.25v-9.25c0-1.1.9-2 2-2z" fill="#d5dbe1"/></g><g><path d="m9 27.25v-9.25h-2.25v9.25c0 1.1.9 2 2 2h2.25c-1.1 0-2-.9-2-2z" fill="#00b871"/></g></g><g id="Layer_2"><g><path d="m6.75 17.25h20v1.5h-20z"/></g><g><path d="m28.25 30h-20.5c-.965 0-1.75-.785-1.75-1.75v-20.5c0-.965.785-1.75 1.75-1.75h20.5c.965 0 1.75.785 1.75 1.75v20.5c0 .965-.785 1.75-1.75 1.75zm-20.5-22.5c-.138 0-.25.112-.25.25v20.5c0 .138.112.25.25.25h20.5c.138 0 .25-.112.25-.25v-20.5c0-.138-.112-.25-.25-.25z"/></g></g></svg>