<svg id="_x31__x2C_5" enable-background="new 0 0 36 36" height="512" viewBox="0 0 36 36" width="512" xmlns="http://www.w3.org/2000/svg"><path d="m27.623 31.833c-6.917 0-11.667 3.583-15 3.583s-10.333-1.916-10.333-17.249 9.417-17.584 13.083-17.584c17.167 0 24.5 31.25 12.25 31.25z" fill="#efefef"/><path d="m8.672 5h1v2h-1z" fill="#a4afc1"/><path d="m5.422 8h2v1h-2z" fill="#a4afc1"/><path d="m28.389 20.974c.333.313.411.812.186 1.213l-1.663 2.876c-.225.401-.704.577-1.145.44l-2.201-.695c-.724.597-1.546 1.086-2.446 1.418l-.509 2.26c-.098.44-.489.763-.949.763h-3.326c-.46 0-.851-.323-.949-.763l-.509-2.26c-.9-.333-1.722-.822-2.446-1.418l-2.201.695c-.44.137-.92-.039-1.145-.44l-1.663-2.876c-.225-.401-.147-.9.186-1.213l1.692-1.555c-.066-.46-.105-.94-.105-1.419s.039-.959.108-1.418l-1.692-1.555c-.333-.313-.411-.812-.186-1.213l1.663-2.876c.225-.401.704-.577 1.145-.44l2.201.695c.724-.597 1.546-1.086 2.446-1.418l.509-2.26c.098-.44.489-.763.949-.763h3.326c.46 0 .851.323.949.763l.509 2.26c.9.333 1.722.822 2.446 1.418l2.201-.695c.44-.137.92.039 1.145.44l1.663 2.876c.225.401.147.9-.186 1.213l-1.692 1.555c.068.46.108.939.108 1.418s-.039.959-.108 1.418z" fill="#f3f3f1"/><path d="m23.25 14.5-5.25 1.75-5.25-1.75 5.25-1.75z" fill="#2fdf84"/><path d="m23.25 14.5v7l-5.25 1.75v-7z" fill="#2fdf84"/><path d="m18 16.25v7l-5.25-1.75v-7z" fill="#2fdf84"/><g fill="#d5dbe1"><path d="m25.816 11.191 1.036-.327c-.241-.343-.676-.495-1.085-.368l-.623.197c.232.157.458.321.672.498z"/><path d="m11.338 25.063-1.663-2.876c-.225-.401-.147-.9.186-1.213l1.692-1.555c-.068-.46-.108-.939-.108-1.418s.039-.959.108-1.419l-1.692-1.555c-.333-.313-.411-.812-.186-1.213l1.663-2.876c.016-.028.041-.047.06-.073l-1.165-.368c-.44-.137-.92.039-1.145.44l-1.663 2.876c-.225.401-.147.9.186 1.213l1.692 1.555c-.068.46-.107.94-.107 1.419s.039.959.108 1.418l-1.692 1.555c-.333.313-.411.812-.186 1.213l1.663 2.876c.225.401.704.577 1.145.44l1.165-.368c-.019-.024-.045-.043-.061-.071z"/><path d="m14.684 11.191c.724-.597 1.546-1.086 2.446-1.419l.509-2.26c.098-.44.489-.763.949-.763h-2.25c-.46 0-.851.323-.949.763l-.509 2.26c-.633.234-1.225.549-1.773.921z"/><path d="m25.816 24.809c-.215.177-.441.341-.672.498l.623.197c.409.127.844-.025 1.085-.368z"/><path d="m17.638 28.487-.509-2.26c-.9-.333-1.722-.822-2.446-1.418l-1.578.498c.549.372 1.14.687 1.773.921l.509 2.26c.098.44.489.763.949.763h2.25c-.459-.001-.85-.324-.948-.764z"/></g><path d="m20.25 16.25 3-1v-.75l-5.25 1.75v7l2.25-.75z" fill="#00b871"/><path d="m15 21.5v-6.25l-2.25-.75v7l5.25 1.75v-.75z" fill="#00b871"/><path d="m18 17c-.08 0-.16-.013-.237-.039l-5.25-1.75c-.306-.102-.513-.388-.513-.711s.207-.609.513-.711l5.25-1.75c.154-.052.32-.052.475 0l5.25 1.75c.305.102.512.388.512.711s-.207.609-.513.711l-5.25 1.75c-.077.026-.157.039-.237.039zm-2.878-2.5 2.878.959 2.878-.959-2.878-.959z"/><path d="m18 24c-.08 0-.16-.013-.237-.039l-5.25-1.75c-.306-.102-.513-.388-.513-.711v-7h1.5v6.459l4.5 1.5 4.5-1.5v-6.459h1.5v7c0 .323-.207.609-.513.711l-5.25 1.75c-.077.026-.157.039-.237.039z"/><path d="m19.663 30h-3.326c-.812 0-1.503-.555-1.681-1.349l-.422-1.873c-.687-.291-1.341-.671-1.954-1.134l-1.822.575c-.782.242-1.632-.09-2.024-.788l-1.658-2.868c-.397-.71-.263-1.585.322-2.135l1.412-1.298c-.043-.38-.065-.759-.065-1.13s.021-.75.064-1.13l-1.406-1.292c-.591-.556-.726-1.43-.333-2.131l1.668-2.885c.388-.691 1.236-1.025 2.017-.781l1.825.576c.613-.463 1.268-.843 1.954-1.134l.422-1.874c.178-.794.869-1.349 1.681-1.349h3.326c.812 0 1.503.555 1.681 1.349l.422 1.873c.687.291 1.341.671 1.954 1.134l1.822-.575c.78-.243 1.631.089 2.024.788l1.658 2.868c.397.71.263 1.585-.322 2.135l-1.412 1.298c.043.38.064.759.064 1.13s-.021.75-.064 1.13l1.406 1.292.006.006c.585.55.72 1.424.327 2.125l-1.668 2.885c-.388.69-1.239 1.024-2.017.781l-1.825-.576c-.613.463-1.268.843-1.954 1.134l-.422 1.874c-.177.794-.868 1.349-1.68 1.349zm-7.229-5.941c.172 0 .341.059.478.171.685.565 1.435 1 2.228 1.293.238.088.416.291.472.539l.509 2.26c.023.103.115.178.218.178h3.326c.103 0 .194-.075.218-.177l.509-2.26c.056-.248.233-.451.472-.539.793-.293 1.543-.729 2.228-1.293.196-.162.46-.213.703-.137l2.201.695c.104.032.216-.004.265-.093l1.668-2.884c.05-.089.032-.211-.049-.289l-1.688-1.552c-.184-.169-.271-.417-.233-.664.066-.44.1-.88.1-1.307s-.033-.866-.1-1.307c-.037-.247.05-.495.233-.664l1.692-1.556c.076-.072.096-.195.04-.294l-1.658-2.867c-.054-.096-.161-.134-.272-.1l-2.198.694c-.243.077-.507.025-.703-.137-.685-.565-1.435-1-2.228-1.293-.238-.088-.416-.291-.472-.539l-.509-2.26c-.027-.102-.118-.177-.221-.177h-3.326c-.103 0-.194.075-.218.177l-.509 2.26c-.056.248-.233.451-.472.539-.793.293-1.543.729-2.228 1.293-.196.162-.46.214-.703.137l-2.201-.695c-.103-.032-.215.005-.265.093l-1.668 2.884c-.051.09-.031.213.051.291l1.687 1.55c.184.169.271.417.233.664-.066.44-.1.88-.1 1.307s.033.866.1 1.307c.037.247-.05.495-.233.664l-1.692 1.556c-.076.072-.096.195-.04.294l1.658 2.867c.055.096.164.135.272.1l2.198-.694c.075-.024.151-.035.227-.035z"/><path d="m17.25 16.25h1.5v7h-1.5z"/></svg>