<svg fill="none" height="512" viewBox="0 0 36 36" width="512" xmlns="http://www.w3.org/2000/svg"><path d="m14.8038 3.73516c-4.2994-1.84262-8.44529.00003-9.98081 3.07103-4.430258 8.86051 0 16.89071 4.91923 22.05981 4.55308 4.7843 17.65848 5.3743 21.49718-.7678 3.8388-6.142 1.2257-16.8906-6.142-16.8906-6.4548 0-4.9192-5.16916-10.2936-7.47244z" fill="#efefef"/><path d="m18 7.25c-5.9371 0-10.75 4.8129-10.75 10.75s4.8129 10.75 10.75 10.75 10.75-4.8129 10.75-10.75-4.8129-10.75-10.75-10.75z" fill="#2edf84"/><g clip-rule="evenodd" fill-rule="evenodd"><path d="m7.25 18c0-5.9371 4.8129-10.75 10.75-10.75.4228 0 .8399.02441 1.25.0719-5.3482.61931-9.5 5.1639-9.5 10.6781s4.1518 10.0588 9.5 10.6781c-.4101.0475-.8272.0719-1.25.0719-5.9371 0-10.75-4.8129-10.75-10.75z" fill="#00b872"/><path d="m18 8.75c-5.1086 0-9.25 4.1414-9.25 9.25s4.1414 9.25 9.25 9.25 9.25-4.1414 9.25-9.25-4.1414-9.25-9.25-9.25zm-10.75 9.25c0-5.9371 4.8129-10.75 10.75-10.75s10.75 4.8129 10.75 10.75-4.8129 10.75-10.75 10.75-10.75-4.8129-10.75-10.75z" fill="#000"/><path d="m16 15.25h-4v-1.5h4c.9072 0 1.6059.6072 2.0344 1.2372.4398.6467.7156 1.4795.7156 2.2628v2.25c0 .6078.2219.9246.5363 1.1283.3673.2378.9478.3717 1.7137.3717h.75l-1.2-.9.9-1.2 3 2.25c.1891.1419.3003.3646.3.601s-.1121.4589-.3016.6002l-3 2.2375-.8968-1.2024 1.1883-.8863h-.7399c-.891 0-1.8104-.1473-2.529-.6127-.7713-.4994-1.221-1.3076-1.221-2.3873v-2.25c0-.4593-.1719-1.0015-.456-1.4192-.2953-.4343-.5966-.5808-.794-.5808z" fill="#000"/><path d="m16 20.75h-4v1.5h4c.9072 0 1.6059-.6072 2.0344-1.2372.4398-.6467.7156-1.4795.7156-2.2628v-2.25c0-.6078.2219-.9246.5363-1.1283.3673-.2378.9478-.3717 1.7137-.3717h.75l-1.2.9.9 1.2 3-2.25c.1889-.1416.3-.3639.3-.6s-.1111-.4584-.3-.6l-3-2.25-.9 1.2 1.2.9h-.75c-.891 0-1.8104.1473-2.529.6127-.7713.4994-1.221 1.3076-1.221 2.3873v2.25c0 .4593-.1719 1.0015-.456 1.4192-.2953.4343-.5966.5808-.794.5808z" fill="#000"/><path d="m25.2247 6.54419-.5176-1.93186.9659-.25881.5177 1.93185z" fill="#90a4ad"/><path d="m27.4149 6.99226 1.9319-.51763.2588.96592-1.9319.51764z" fill="#90a4ad"/></g></svg>