<svg fill="none" height="512" viewBox="0 0 36 36" width="512" xmlns="http://www.w3.org/2000/svg"><path d="m7.22765 22.7621c4.27885 1.7115 5.68745 3.1379 8.62925 7.0603 7.0603 9.4137 14.9051-4.7069 16.474-8.6293 1.569-3.9224 1.569-10.9827-3.1379-14.90505-4.8587-4.04895-19.61192-4.70686-24.31878 0-4.706857 4.70685-3.4308 14.16035 2.35343 16.47405z" fill="#efefef"/><path d="m18 7.25c-5.9371 0-10.75 4.8129-10.75 10.75s4.8129 10.75 10.75 10.75 10.75-4.8129 10.75-10.75-4.8129-10.75-10.75-10.75z" fill="#2edf84"/><path clip-rule="evenodd" d="m7.25 18c0-5.9371 4.8129-10.75 10.75-10.75.4228 0 .8399.02441 1.25.0719-5.3482.61931-9.5 5.1639-9.5 10.6781s4.1518 10.0588 9.5 10.6781c-.4101.0475-.8272.0719-1.25.0719-5.9371 0-10.75-4.8129-10.75-10.75z" fill="#00b872" fill-rule="evenodd"/><path d="m14.5303 12.4697c-.2145-.2145-.5371-.2787-.8173-.1626-.2803.1161-.463.3895-.463.6929v10c0 .3033.1827.5768.463.6929.2802.1161.6028.0519.8173-.1626l5-5c.2929-.2929.2929-.7677 0-1.0606z" fill="#f3f3f1"/><g clip-rule="evenodd" fill-rule="evenodd"><path d="m13.713 12.3071c.2802-.1161.6028-.0519.8173.1626l1.2197 1.2196v8.6214l-1.2197 1.2196c-.2145.2145-.5371.2787-.8173.1626-.2803-.1161-.463-.3896-.463-.6929v-10c0-.3034.1827-.5768.463-.6929z" fill="#d6dbe1"/><path d="m18 8.75c-5.1086 0-9.25 4.1414-9.25 9.25s4.1414 9.25 9.25 9.25 9.25-4.1414 9.25-9.25-4.1414-9.25-9.25-9.25zm-10.75 9.25c0-5.9371 4.8129-10.75 10.75-10.75s10.75 4.8129 10.75 10.75-4.8129 10.75-10.75 10.75-10.75-4.8129-10.75-10.75z" fill="#000"/><path d="m13.713 12.3071c.2802-.1161.6028-.0519.8173.1626l5 5c.2929.2929.2929.7677 0 1.0606l-5 5c-.2145.2145-.5371.2787-.8173.1626-.2803-.1161-.463-.3896-.463-.6929v-10c0-.3034.1827-.5768.463-.6929zm1.037 2.5036v6.3786l3.1893-3.1893z" fill="#000"/><path d="m20.75 23v-10h1.5v10z" fill="#000"/><path d="m9.5 30c.27614 0 .5-.2239.5-.5s-.22386-.5-.5-.5-.5.2239-.5.5.22386.5.5.5zm0 1c.8284 0 1.5-.6716 1.5-1.5s-.6716-1.5-1.5-1.5c-.82843 0-1.5.6716-1.5 1.5s.67157 1.5 1.5 1.5z" fill="#a4afc1"/></g></svg>