<svg id="_x31__x2C_5" enable-background="new 0 0 36 36" height="512" viewBox="0 0 36 36" width="512" xmlns="http://www.w3.org/2000/svg"><g><path d="m13.25 18.25v-1.5c0-1.105.895-2 2-2h5.5c1.105 0 2 .895 2 2v1.5z" fill="#f3f3f1"/></g><path d="m8.114 5.564c-1.805 6.677-6.504 10.327-7.374 13.545s-.847 10.475 13.955 14.477 19.432-4.501 20.388-8.041c4.481-16.572-23.772-31.807-26.969-19.981z" fill="#efefef"/><path d="m30.708 32c-.827 0-1.5-.673-1.5-1.5s.673-1.5 1.5-1.5 1.5.673 1.5 1.5-.673 1.5-1.5 1.5zm0-2c-.275 0-.5.224-.5.5s.225.5.5.5.5-.224.5-.5-.225-.5-.5-.5z" fill="#a4afc1"/><circle cx="26" cy="9" fill="#2fdf84" r="1.25"/><circle cx="10" cy="9" fill="#2fdf84" r="1.25"/><path d="m29.25 15.25v-.5c0-1.105-.895-2-2-2h-2.5v2.5z" fill="#f3f3f1"/><path d="m6.75 15.25v-.5c0-1.105.895-2 2-2h2.5v2.5z" fill="#f3f3f1"/><g fill="#2fdf84"><circle cx="18" cy="9" r="2.25"/><path d="m16.25 25.75h3.5v3.5h-3.5z"/><circle cx="26" cy="9" r="1.25"/><circle cx="10" cy="9" r="1.25"/><circle cx="18" cy="9" r="2.25"/><path d="m16.25 25.75h3.5v3.5h-3.5z"/></g><path d="m17.25 14.75h-2c-1.105 0-2 .895-2 2v1.5h2v-1.5c0-1.105.895-2 2-2z" fill="#d5dbe1"/><path d="m16.25 25.75h2v3.5h-2z" fill="#00b871"/><path d="m24.75 12.75h2.25v2.5h-2.25z" fill="#d5dbe1"/><path d="m11 12.75h-2.25c-1.105 0-2 .895-2 2v.5h2.25v-.5c0-1.105.895-2 2-2z" fill="#d5dbe1"/><path d="m16.25 28.25h-4.75c-1.517 0-2.75-1.233-2.75-2.75v-8.75h1.5v8.75c0 .689.561 1.25 1.25 1.25h4.75z"/><path d="m24.5 28.25h-4.75v-1.5h4.75c.689 0 1.25-.561 1.25-1.25v-8.75h1.5v8.75c0 1.517-1.233 2.75-2.75 2.75z"/><path d="m26 11c-1.103 0-2-.897-2-2s.897-2 2-2 2 .897 2 2-.897 2-2 2zm0-2.5c-.275 0-.5.224-.5.5s.225.5.5.5.5-.224.5-.5-.225-.5-.5-.5z"/><path d="m30 15.25h-1.5v-.5c0-.689-.561-1.25-1.25-1.25h-2.5v-1.5h2.5c1.517 0 2.75 1.233 2.75 2.75z"/><path d="m10 11c-1.103 0-2-.897-2-2s.897-2 2-2 2 .897 2 2-.897 2-2 2zm0-2.5c-.275 0-.5.224-.5.5s.225.5.5.5.5-.224.5-.5-.225-.5-.5-.5z"/><path d="m7.5 15.25h-1.5v-.5c0-1.517 1.233-2.75 2.75-2.75h2.5v1.5h-2.5c-.689 0-1.25.561-1.25 1.25z"/><path d="m18 12c-1.654 0-3-1.346-3-3s1.346-3 3-3 3 1.346 3 3-1.346 3-3 3zm0-4.5c-.827 0-1.5.673-1.5 1.5s.673 1.5 1.5 1.5 1.5-.673 1.5-1.5-.673-1.5-1.5-1.5z"/><path d="m23.5 18.25h-1.5v-1.5c0-.689-.561-1.25-1.25-1.25h-5.5c-.689 0-1.25.561-1.25 1.25v1.5h-1.5v-1.5c0-1.517 1.233-2.75 2.75-2.75h5.5c1.517 0 2.75 1.233 2.75 2.75z"/><path d="m17.25 19h1.5v7.25h-1.5z"/><path d="m19.75 30h-3.5c-.414 0-.75-.336-.75-.75v-3.5c0-.414.336-.75.75-.75h3.5c.414 0 .75.336.75.75v3.5c0 .414-.336.75-.75.75zm-2.75-1.5h2v-2h-2z"/></svg>