<svg enable-background="new 0 0 36 36" height="512" viewBox="0 0 36 36" width="512" xmlns="http://www.w3.org/2000/svg"><path d="m13.411 34.999c6.298-2.859 12.105-1.559 15.14-2.936 3.035-1.378 8.617-6.016 2.28-19.978s-15.841-12.12-19.18-10.605c-15.632 7.095-9.395 38.582 1.76 33.519z" fill="#efefef"/><path d="m29.25 23.217c0 .091-.072.163-.163.163h-3.77l2.126 4.97-2.1.9-2.172-5.074-2.785 2.426c-.026.026-.065.039-.104.039-.091 0-.163-.072-.163-.163v-12.065c0-.091.072-.163.163-.163.046 0 .085.02.117.046l8.804 8.804c.027.033.047.072.047.117z" fill="#2fdf84"/><path d="m22.37 16.265-1.97-1.97c-.033-.026-.072-.046-.117-.046-.091 0-.163.072-.163.163v12.065c0 .091.072.163.163.163.039 0 .078-.013.104-.039l1.983-1.727z" fill="#00b871"/><path d="m25.422 24.176-1.639 1.428 1.56 3.646 1.902-.815z" fill="#00b871"/><path d="m31 8.5c-.827 0-1.5-.673-1.5-1.5s.673-1.5 1.5-1.5 1.5.673 1.5 1.5-.673 1.5-1.5 1.5zm0-2c-.276 0-.5.224-.5.5s.224.5.5.5.5-.224.5-.5-.224-.5-.5-.5z" fill="#a4afc1"/><path d="m7.5 9.75h-1.5v-1c0-1.517 1.233-2.75 2.75-2.75h1v1.5h-1c-.689 0-1.25.561-1.25 1.25z"/><path d="m26 9.75h-1.5v-1c0-.689-.561-1.25-1.25-1.25h-1v-1.5h1c1.517 0 2.75 1.233 2.75 2.75z"/><path d="m13.75 6h4.5v1.5h-4.5z"/><path d="m13.75 24.5h3.25v1.5h-3.25z"/><path d="m9.75 26h-1c-1.517 0-2.75-1.233-2.75-2.75v-1h1.5v1c0 .689.561 1.25 1.25 1.25h1z"/><path d="m6 13.75h1.5v4.5h-1.5z"/><path d="m24.5 13.75h1.5v1.5h-1.5z"/><path d="m25.343 30c-.095 0-.189-.018-.279-.054-.185-.074-.333-.218-.411-.401l-1.766-4.126-2.008 1.749c-.122.127-.355.224-.597.224-.503 0-.913-.41-.913-.913v-12.066c0-.503.41-.913.913-.913.212 0 .416.073.588.212l8.864 8.858c.193.231.266.435.266.647 0 .503-.41.913-.913.913h-2.633l1.679 3.925c.163.38-.014.821-.394.984l-2.1.9c-.095.041-.195.061-.296.061zm-2.171-6.574c.056 0 .112.006.167.019.233.053.428.215.522.436l1.876 4.384.722-.309-1.831-4.281c-.099-.231-.075-.498.063-.708s.374-.337.626-.337h2.362l-6.81-6.805v9.363l1.81-1.578c.138-.119.314-.184.493-.184zm-3.247 2.586c-.026.02-.051.041-.074.064z"/></svg>