<svg id="_x31__x2C_5" enable-background="new 0 0 36 36" height="512" viewBox="0 0 36 36" width="512" xmlns="http://www.w3.org/2000/svg"><path d="m31.833 8.377c0 6.917 3.583 11.667 3.583 15s-1.916 10.333-17.249 10.333-17.584-9.417-17.584-13.083c0-17.167 31.25-24.5 31.25-12.25z" fill="#efefef"/><path d="m30.5 11.26c-.827 0-1.5-.673-1.5-1.5s.673-1.5 1.5-1.5 1.5.673 1.5 1.5-.673 1.5-1.5 1.5zm0-2c-.276 0-.5.224-.5.5s.224.5.5.5.5-.224.5-.5-.224-.5-.5-.5z" fill="#a4afc1"/><path d="m27.25 14-9.25 3.25-9.25-3.25 8.589-3.008c.428-.15.894-.15 1.322 0z" fill="#2fdf84"/><path d="m27.25 14v10.325c0 .828-.51 1.571-1.283 1.867l-7.967 3.058v-12z" fill="#f3f3f1"/><path d="m18 17.25v12l-7.913-2.78c-.801-.281-1.337-1.038-1.337-1.887v-10.583z" fill="#f3f3f1"/><path d="m11 14 8.125-2.846-.464-.162c-.428-.15-.894-.15-1.322 0l-8.589 3.008 9.25 3.25 1.125-.395z" fill="#00b871"/><path d="m20.25 17.25 7-2.459v-.791l-9.25 3.25v12l2.25-.864z" fill="#d5dbe1"/><path d="m12.337 26.47c-.801-.282-1.337-1.038-1.337-1.887v-9.792l-2.25-.791v10.583c0 .849.536 1.606 1.337 1.887l7.913 2.78v-.791z" fill="#d5dbe1"/><path d="m8 14.25h1.5v8h-1.5z"/><path d="m26.5 14.25h1.5v8h-1.5z"/><path d="m19.75 9.561-1.75-1.75-1.75 1.75-1.061-1.061 2.28-2.28c.293-.293.768-.293 1.061 0l2.28 2.28z"/><path d="m17.25 6.25h1.5v7.75h-1.5z"/><path d="m29.25 30h-3.25v-1.5h2.5v-2.5h1.5v3.25c0 .414-.336.75-.75.75z"/><path d="m26.125 23.12h1.5v7.51h-1.5z" transform="matrix(.707 -.707 .707 .707 -11.132 26.875)"/><path d="m10 30h-3.25c-.414 0-.75-.336-.75-.75v-3.25h1.5v2.5h2.5z"/><path d="m5.37 26.125h7.51v1.5h-7.51z" transform="matrix(.707 -.707 .707 .707 -16.331 14.324)"/><path d="m17.25 17.5h1.5v11.251h-1.5z"/><path d="m18 18c-.084 0-.168-.014-.249-.042l-9.25-3.25c-.3-.106-.501-.39-.501-.708s.202-.602.502-.708l6-2.1.495 1.416-3.981 1.394 6.984 2.453 6.983-2.454-3.981-1.394.495-1.416 6 2.1c.301.106.503.39.503.709s-.201.603-.501.708l-9.25 3.25c-.081.028-.165.042-.249.042z"/><path d="m18 30c-.084 0-.168-.014-.249-.042l-4.92-1.73.498-1.415 4.671 1.642 4.671-1.643.498 1.415-4.92 1.73c-.081.029-.165.043-.249.043z"/></svg>