<svg enable-background="new 0 0 36 36" height="512" viewBox="0 0 36 36" width="512" xmlns="http://www.w3.org/2000/svg"><path d="m13.411 34.999c6.298-2.859 12.105-1.559 15.14-2.936 3.035-1.378 8.617-6.016 2.28-19.978s-15.841-12.12-19.18-10.605c-15.632 7.095-9.395 38.582 1.76 33.519z" fill="#efefef"/><circle cx="18" cy="18" fill="#f3f3f1" r="9.25"/><path d="m11 18c0-4.727 3.548-8.619 8.125-9.175-.37-.045-.743-.075-1.125-.075-5.109 0-9.25 4.141-9.25 9.25s4.141 9.25 9.25 9.25c.382 0 .755-.03 1.125-.075-4.577-.556-8.125-4.448-8.125-9.175z" fill="#d5dbe1"/><g fill="#a4afc1"><path d="m17.625 2h1v2h-1z"/><path d="m14.125 5.25h2v1h-2z"/><path d="m19.875 5.25h2v1h-2z"/></g><circle cx="18" cy="18" fill="#2fdf84" r="5.25"/><path d="m15 18c0-2.512 1.767-4.607 4.125-5.122-.363-.08-.738-.128-1.125-.128-2.899 0-5.25 2.351-5.25 5.25 0 2.9 2.351 5.25 5.25 5.25.387 0 .762-.048 1.125-.127-2.358-.516-4.125-2.611-4.125-5.123z" fill="#00b871"/><path d="m18 24c-3.309 0-6-2.691-6-6s2.691-6 6-6 6 2.691 6 6-2.691 6-6 6zm0-10.5c-2.481 0-4.5 2.019-4.5 4.5s2.019 4.5 4.5 4.5 4.5-2.019 4.5-4.5-2.019-4.5-4.5-4.5z"/><path d="m18 28c-5.514 0-10-4.486-10-10s4.486-10 10-10 10 4.486 10 10-4.486 10-10 10zm0-18.5c-4.687 0-8.5 3.813-8.5 8.5s3.813 8.5 8.5 8.5 8.5-3.813 8.5-8.5-3.813-8.5-8.5-8.5z"/><path d="m17.25 6.75h1.5v22.5h-1.5z"/><path d="m6.75 17.25h22.5v1.5h-22.5z"/></svg>