<svg id="_x31__x2C_5" enable-background="new 0 0 36 36" height="512" viewBox="0 0 36 36" width="512" xmlns="http://www.w3.org/2000/svg"><path d="m31.833 8.377c0 6.917 3.583 11.667 3.583 15s-1.916 10.333-17.249 10.333-17.584-9.417-17.584-13.083c0-17.167 31.25-24.5 31.25-12.25z" fill="#efefef"/><g fill="#a4afc1"><path d="m26.217 6.967h1v2h-1z" transform="matrix(.707 -.707 .707 .707 2.189 21.221)"/><path d="m30.283 11.033h1v2h-1z" transform="matrix(.707 -.707 .707 .707 .505 25.286)"/><path d="m29.606 7.467h2v1h-2z" transform="matrix(.707 -.707 .707 .707 3.331 23.976)"/></g><path d="m18 15.25v12l-9.25-3.25v-12z" fill="#f3f3f1"/><path d="m18 8.75v6.5l-9.25-3.25z" fill="#2fdf84"/><path d="m11 24v-11.209l-2.25-.791v12l9.25 3.25v-.791z" fill="#d5dbe1"/><path d="m17.751 15.958-9.25-3.25c-.3-.106-.501-.39-.501-.708s.201-.602.501-.708l9.25-3.25.498 1.415-7.236 2.543 7.236 2.542z"/><path d="m17.722 7.666h1.5v2.5h-1.5z" transform="matrix(.332 -.944 .944 .332 3.937 23.388)"/><path d="m21.876 8.65h1.5v3.451h-1.5z" transform="matrix(.332 -.944 .944 .332 5.336 28.282)"/><path d="m25.848 13.288-.396-1.125-.102-.036.046-.127-.045-.127.102-.036.396-1.125 1.651.58c.299.106.5.39.5.708s-.201.602-.501.708z"/><path d="m20.899 12.875h3.451v1.5h-3.451z" transform="matrix(.944 -.331 .331 .944 -3.237 8.268)"/><path d="m17.222 14.334h2.5v1.5h-2.5z" transform="matrix(.944 -.331 .331 .944 -3.955 6.975)"/><path d="m17.751 27.958-9.25-3.25c-.3-.106-.501-.39-.501-.708v-12h1.5v11.469l8.749 3.074z"/><path d="m17.222 26.334h2.5v1.5h-2.5z" transform="matrix(.944 -.331 .331 .944 -7.932 7.653)"/><path d="m20.9 24.875h3.451v1.5h-3.451z" transform="matrix(.944 -.331 .331 .944 -7.214 8.947)"/><path d="m25.848 25.288-.497-1.415 1.149-.404v-1.219h1.5v1.75c0 .318-.201.602-.501.708z"/><path d="m26.5 16.312h1.5v3.875h-1.5z"/><path d="m26.5 11.75h1.5v2.5h-1.5z"/><path d="m17.25 6.75h1.5v22.5h-1.5z"/></svg>