<svg id="LINE" enable-background="new 0 0 36 36" height="512" viewBox="0 0 36 36" width="512" xmlns="http://www.w3.org/2000/svg"><path d="m34.904 20.355c-3.782-5.791-3.38-11.727-5.203-14.518s-7.256-7.603-20.093.782-9.572 17.5-7.566 20.569c9.388 14.372 39.561 3.423 32.862-6.833z" fill="#efefef"/><g fill="#a4afc1"><path d="m21.162 31.949h2v1h-2z" transform="matrix(.707 -.707 .707 .707 -16.454 25.175)"/><path d="m25.227 27.883h2v1h-2z" transform="matrix(.707 -.707 .707 .707 -12.388 26.859)"/><path d="m25.728 31.626h1v2h-1z" transform="matrix(.707 -.707 .707 .707 -15.388 28.102)"/><path d="m4.939 6.863c-.827 0-1.5-.673-1.5-1.5s.673-1.5 1.5-1.5 1.5.673 1.5 1.5-.672 1.5-1.5 1.5zm0-2c-.275 0-.5.224-.5.5s.225.5.5.5.5-.224.5-.5-.224-.5-.5-.5z"/></g><path d="m20.235 20.891 3.011 6.995c.273.643-.195 1.364-.896 1.364h-14.625c-.701 0-1.169-.711-.896-1.354l1.919-4.491h.01l2.923-6.82 2.445-5.709c.146-.341.429-.536.75-.575z" fill="#2fdf84"/><circle cx="23.5" cy="12.5" fill="#2fdf84" r="5.75"/><path d="m20.75 12.25 2.75-2.5 2.75 2.5z" fill="#2fdf84"/><path d="m8.829 27.896 1.919-4.491h.01l2.923-6.82 2.006-4.683-.81-1.601c-.321.039-.604.234-.75.575l-2.445 5.709-2.923 6.82h-.01l-1.919 4.491c-.273.643.195 1.354.896 1.354h2c-.702 0-1.17-.711-.897-1.354z" fill="#00b871"/><path d="m17.905 16.25h-6.085l-3.072 7h12.707z" fill="#f3f3f1"/><path d="m11.82 16.25-3.072 7h2l3.072-7z" fill="#d5dbe1"/><path d="m19.75 12.5c0-2.834 2.052-5.183 4.75-5.657-.325-.057-.658-.093-1-.093-3.176 0-5.75 2.574-5.75 5.75s2.574 5.75 5.75 5.75c.342 0 .675-.035 1-.093-2.698-.474-4.75-2.823-4.75-5.657z" fill="#00b871"/><path d="m22.35 30h-14.624c-.582 0-1.119-.288-1.439-.771-.319-.483-.375-1.091-.147-1.626l1.92-4.493c.016-.036.033-.07.054-.104l5.324-12.426c.244-.569.749-.952 1.351-1.024l.18 1.489c-.051.006-.108.026-.151.126l-5.371 12.529c-.016.035-.033.069-.054.102l-1.874 4.388c-.041.097-.006.173.019.211.03.045.087.099.188.099h14.624c.098 0 .154-.055.185-.101.026-.039.064-.12.021-.222l-3.009-6.99 1.377-.594 3.011 6.995c.229.542.173 1.152-.149 1.64-.321.484-.857.772-1.436.772z"/><path d="m11.82 15.5h3.62v1.5h-3.62z"/><path d="m8.82 22.5h12.43v1.5h-12.43z"/><path d="m23.5 19c-3.584 0-6.5-2.916-6.5-6.5s2.916-6.5 6.5-6.5 6.5 2.916 6.5 6.5-2.916 6.5-6.5 6.5zm0-11.5c-2.757 0-5 2.243-5 5s2.243 5 5 5 5-2.243 5-5-2.243-5-5-5z"/><path d="m25.745 12.805-2.245-2.041-2.245 2.042-1.01-1.11 2.75-2.5c.287-.26.723-.26 1.01 0l2.75 2.5z"/><path d="m22.75 9.75h1.5v5.5h-1.5z"/></svg>