<svg fill="none" height="512" viewBox="0 0 36 36" width="512" xmlns="http://www.w3.org/2000/svg"><path d="m28.8032 24.7622c2.6899-4.3039.2241-13.4495-1.345-17.48438-4.0348-8.74217-14.2701-2.02775-15.4669 2.01744-1.7065 5.76764-.6725 8.06974-3.3624 10.08714-2.68991 2.0174-5.3798 3.3624-2.6899 9.4146 2.6899 6.0523 8.7422 4.7074 10.7596 1.345s8.7422 0 12.1046-5.3798z" fill="#efefef"/><path d="m18 7.25c-5.9371 0-10.75 4.8129-10.75 10.75s4.8129 10.75 10.75 10.75 10.75-4.8129 10.75-10.75-4.8129-10.75-10.75-10.75z" fill="#f3f3f1"/><path d="m18 14.25c-2.0711 0-3.75 1.6789-3.75 3.75s1.6789 3.75 3.75 3.75 3.75-1.6789 3.75-3.75-1.6789-3.75-3.75-3.75z" fill="#2edf84"/><g clip-rule="evenodd" fill-rule="evenodd"><path d="m14.25 18c0-2.0711 1.6789-3.75 3.75-3.75.4383 0 .859.0752 1.25.2134-1.4565.5148-2.5 1.9038-2.5 3.5366s1.0435 3.0218 2.5 3.5366c-.391.1382-.8117.2134-1.25.2134-2.0711 0-3.75-1.6789-3.75-3.75z" fill="#00b872"/><path d="m18 15.75c-1.2426 0-2.25 1.0074-2.25 2.25s1.0074 2.25 2.25 2.25 2.25-1.0074 2.25-2.25-1.0074-2.25-2.25-2.25zm-3.75 2.25c0-2.0711 1.6789-3.75 3.75-3.75s3.75 1.6789 3.75 3.75-1.6789 3.75-3.75 3.75-3.75-1.6789-3.75-3.75z" fill="#000"/><path d="m18 27.25c-5.1086 0-9.25-4.1414-9.25-9.25s4.1414-9.25 9.25-9.25 9.25 4.1414 9.25 9.25h1.5c0-5.9371-4.8129-10.75-10.75-10.75s-10.75 4.8129-10.75 10.75 4.8129 10.75 10.75 10.75z" fill="#000"/><path d="m25.0605 21.5017 2 2.25-1.1211.9966-1.4394-1.6194-1.4395 1.6194-1.1211-.9966 2-2.25c.1424-.1601.3464-.2517.5606-.2517s.4182.0916.5605.2517z" fill="#000"/><path d="m23.75 28v-5.625h1.5v5.625z" fill="#000"/><path d="m4.5 20c.27614 0 .5-.2239.5-.5s-.22386-.5-.5-.5-.5.2239-.5.5.22386.5.5.5zm0 1c.82843 0 1.5-.6716 1.5-1.5s-.67157-1.5-1.5-1.5-1.5.6716-1.5 1.5.67157 1.5 1.5 1.5z" fill="#a4afc1"/></g></svg>