<svg id="_x31__x2C_5" height="512" viewBox="0 0 36 36" width="512" xmlns="http://www.w3.org/2000/svg"><path d="m4.167 27.623c0-6.917-3.583-11.667-3.583-15s1.916-10.333 17.249-10.333 17.583 9.417 17.583 13.083c.001 17.167-31.249 24.5-31.249 12.25z" fill="#efefef"/><g fill="#a4afc1"><path d="m30.856 2.82h2v1h-2z" transform="matrix(.707 -.707 .707 .707 6.983 23.498)"/><path d="m27.467 1.967h1v2h-1z" transform="matrix(.707 -.707 .707 .707 6.097 20.648)"/><path d="m31.533 6.033h1v2h-1z" transform="matrix(.707 -.707 .707 .707 4.412 24.716)"/></g><path d="m29.25 24.25v-12.5c0-1.105-.895-2-2-2h-18.5c-1.105 0-2 .895-2 2v12.5c0 1.105.895 2 2 2h18.5c1.105 0 2-.895 2-2z" fill="#f3f3f1"/><path d="m6.75 21.25h6.5c1.105 0 2-.895 2-2v-2.5c0-1.105-.895-2-2-2h-6.5z" fill="#2fdf84"/><path d="m29.25 23.5-4.75-4.75-4.75 4.75h3v5.25c0 .276.224.5.5.5h2.5c.276 0 .5-.224.5-.5v-5.25z" fill="#2fdf84"/><path d="m9 24.25v-12.5c0-1.105.895-2 2-2h-2.25c-1.105 0-2 .895-2 2v12.5c0 1.105.895 2 2 2h2.25c-1.105 0-2-.895-2-2z" fill="#d5dbe1"/><path d="m6.75 14.75h2.25v6.5h-2.25z" fill="#00b871"/><path d="m24.5 18.75-4.75 4.75h2.25l3.625-3.625z" fill="#00b871"/><path d="m25 28.75v-5.25h-2.25v5.25c0 .276.224.5.5.5h2.25c-.276 0-.5-.224-.5-.5z" fill="#00b871"/><path d="m25.75 30h-2.5c-.689 0-1.25-.561-1.25-1.25v-4.5h-2.25c-.303 0-.577-.183-.693-.463s-.052-.603.163-.817l4.75-4.75c.293-.293.768-.293 1.061 0l4.75 4.75c.214.215.279.537.163.817s-.39.463-.693.463h-2.251v4.5c0 .689-.561 1.25-1.25 1.25zm-2.25-1.5h2v-5c0-.414.336-.75.75-.75h1.189l-2.939-2.939-2.939 2.939h1.189c.414 0 .75.336.75.75z"/><path d="m17.25 27h-8.5c-1.517 0-2.75-1.233-2.75-2.75v-12.5c0-1.517 1.233-2.75 2.75-2.75h18.5c1.517 0 2.75 1.233 2.75 2.75v6.5h-1.5v-6.5c0-.689-.561-1.25-1.25-1.25h-18.5c-.689 0-1.25.561-1.25 1.25v12.5c0 .689.561 1.25 1.25 1.25h8.5z"/><path d="m13.25 22h-6.5c-.414 0-.75-.336-.75-.75v-6.5c0-.414.336-.75.75-.75h6.5c1.517 0 2.75 1.233 2.75 2.75v2.5c0 1.517-1.233 2.75-2.75 2.75zm-5.75-1.5h5.75c.689 0 1.25-.561 1.25-1.25v-2.5c0-.689-.561-1.25-1.25-1.25h-5.75z"/><circle cx="11" cy="18" r="1"/></svg>