<svg enable-background="new 0 0 36 36" height="512" viewBox="0 0 36 36" width="512" xmlns="http://www.w3.org/2000/svg"><path d="m34.904 20.355c-3.782-5.791-3.38-11.727-5.203-14.518s-7.256-7.603-20.093.782-9.572 17.5-7.566 20.569c9.388 14.372 39.561 3.423 32.862-6.833z" fill="#efefef"/><path d="m18.75 11.446c0 .23-.151.428-.36.496l-4.857 1.591-1.591 4.857c-.068.209-.266.36-.496.36-.224 0-.412-.141-.485-.334l-4.174-10.956c-.027-.058-.037-.12-.037-.188 0-.287.235-.522.522-.522.068 0 .13.01.188.037l10.957 4.174c.192.072.333.26.333.485z" fill="#f3f3f1"/><path d="m9.037 7.46c-.011-.024-.01-.053-.016-.078l-1.561-.595c-.058-.027-.12-.037-.188-.037-.287 0-.522.235-.522.522 0 .068.01.13.036.188l4.174 10.957c.073.193.261.334.485.334.23 0 .428-.151.496-.36l.582-1.777z" fill="#d5dbe1"/><circle cx="22.5" cy="22.5" fill="#2fdf84" r="6.75"/><path d="m18 22.5c0-3.344 2.434-6.112 5.625-6.649-.367-.062-.741-.101-1.125-.101-3.728 0-6.75 3.022-6.75 6.75s3.022 6.75 6.75 6.75c.384 0 .758-.04 1.125-.101-3.191-.537-5.625-3.305-5.625-6.649z" fill="#00b871"/><g fill="#a4afc1"><path d="m30.694 12.033h1v2h-1z" transform="matrix(.707 -.707 .707 .707 -.079 25.875)"/><path d="m26.629 7.967h1v2h-1z" transform="matrix(.707 -.707 .707 .707 1.605 21.809)"/><path d="m30.371 8.467h2v1h-2z" transform="matrix(.707 -.707 .707 .707 2.848 24.809)"/><path d="m26.306 12.533h2v1h-2z" transform="matrix(.707 -.707 .707 .707 -1.218 23.125)"/></g><path d="m24.775 25.83-2.75-2.25c-.175-.142-.275-.355-.275-.58v-4.25h1.5v3.895l2.475 2.025z"/><path d="m11.445 19.5c-.524 0-1.001-.329-1.187-.818l-4.173-10.955c-.052-.115-.085-.28-.085-.456 0-.701.57-1.271 1.271-1.271.176 0 .341.033.491.1l10.92 4.159c.488.186.817.662.817 1.187 0 .552-.353 1.037-.877 1.209l-4.496 1.473-1.473 4.496c-.171.523-.656.876-1.208.876zm-3.778-11.832 3.763 9.874 1.39-4.243c.074-.227.253-.405.479-.479l4.243-1.39zm-.474-.181c.003.001.007.003.012.004zm.28-.33.013.034c-.004-.01-.008-.021-.013-.034z"/><path d="m22.5 30c-4.136 0-7.5-3.364-7.5-7.5s3.364-7.5 7.5-7.5 7.5 3.364 7.5 7.5-3.364 7.5-7.5 7.5zm0-13.5c-3.309 0-6 2.691-6 6s2.691 6 6 6 6-2.691 6-6-2.691-6-6-6z"/></svg>