<svg id="_x31_px" enable-background="new 0 0 36 36" height="512" viewBox="0 0 36 36" width="512" xmlns="http://www.w3.org/2000/svg"><path d="m4.167 27.623c0-6.917-3.583-11.667-3.583-15s1.916-10.333 17.249-10.333 17.583 9.417 17.583 13.083c.001 17.167-31.249 24.5-31.249 12.25z" fill="#efefef"/><path d="m30.793 6.185c-.827 0-1.5-.673-1.5-1.5s.673-1.5 1.5-1.5 1.5.673 1.5 1.5-.673 1.5-1.5 1.5zm0-2c-.275 0-.5.225-.5.5s.225.5.5.5.5-.225.5-.5-.225-.5-.5-.5z" fill="#a4afc1"/><path d="m28.62 21.04c.34.32.42.83.19 1.24l-1.7 2.94c-.23.41-.72.59-1.17.45l-2.25-.71c-.74.61-1.58 1.11-2.5 1.45l-.52 2.31c-.1.45-.5.78-.97.78h-3.4c-.47 0-.87-.33-.97-.78l-.52-2.31c-.92-.34-1.76-.84-2.5-1.45l-2.25.71c-.45.14-.94-.04-1.17-.45l-1.7-2.94c-.23-.41-.15-.92.19-1.24l1.73-1.59c-.07-.47-.11-.96-.11-1.45s.04-.98.11-1.45l-1.73-1.59c-.34-.32-.42-.83-.19-1.24l1.7-2.94c.23-.41.72-.59 1.17-.45l2.25.71c.74-.61 1.58-1.11 2.5-1.45l.52-2.31c.1-.45.5-.78.97-.78h3.4c.47 0 .87.33.97.78l.52 2.31c.92.34 1.76.84 2.5 1.45l2.25-.71c.45-.14.94.04 1.17.45l1.7 2.94c.23.41.15.92-.19 1.24l-1.73 1.59c.07.47.11.96.11 1.45s-.04.98-.11 1.45z" fill="#2fdf84"/><path d="m10.89 25.22-1.7-2.94c-.23-.41-.15-.92.19-1.24l1.73-1.59c-.07-.47-.11-.96-.11-1.45s.04-.98.11-1.45l-1.73-1.59c-.34-.32-.42-.83-.19-1.24l1.7-2.94c.033-.058.081-.101.123-.149l-.953-.301c-.45-.14-.94.04-1.17.45l-1.7 2.94c-.23.41-.15.92.19 1.24l1.73 1.59c-.07.47-.11.96-.11 1.45s.04.98.11 1.45l-1.73 1.59c-.34.32-.42.83-.19 1.24l1.7 2.94c.23.41.72.59 1.17.45l.953-.301c-.042-.048-.09-.091-.123-.149z" fill="#00b871"/><path d="m19.663 30h-3.326c-.799 0-1.506-.567-1.681-1.349l-.422-1.873c-.687-.292-1.341-.672-1.954-1.135l-1.822.574c-.78.245-1.63-.087-2.023-.786l-1.659-2.87c-.397-.709-.264-1.583.322-2.134l1.412-1.297c-.043-.38-.065-.759-.065-1.13s.021-.75.064-1.13l-1.406-1.291c-.592-.558-.726-1.432-.333-2.133l1.668-2.885c.39-.692 1.239-1.021 2.018-.78l1.824.575c.613-.463 1.268-.843 1.954-1.135l.422-1.874c.175-.78.882-1.347 1.681-1.347h3.326c.799 0 1.506.567 1.681 1.349l.422 1.873c.687.292 1.341.672 1.954 1.135l1.822-.574c.782-.243 1.63.088 2.023.786l1.659 2.87c.397.709.264 1.583-.322 2.134l-1.412 1.297c.043.38.064.759.064 1.13s-.021.75-.064 1.13l1.406 1.291c.002.003.004.005.006.007.586.551.72 1.425.327 2.126l-1.668 2.885c-.39.693-1.237 1.024-2.018.78l-1.824-.575c-.613.463-1.268.843-1.954 1.135l-.422 1.874c-.174.78-.881 1.347-1.68 1.347zm-7.229-5.941c.172 0 .341.059.478.171.685.565 1.435 1.001 2.229 1.295.238.088.415.291.471.538l.509 2.26c.023.104.115.178.218.178h3.326c.103 0 .194-.074.218-.177l.509-2.261c.056-.247.232-.45.471-.538.794-.294 1.544-.729 2.229-1.295.196-.16.459-.213.703-.136l2.201.694c.104.032.217-.005.266-.093l1.667-2.884c.05-.09.032-.212-.049-.29l-1.688-1.55c-.184-.169-.271-.418-.233-.664.066-.44.1-.881.1-1.308s-.033-.867-.1-1.308c-.037-.246.05-.495.233-.664l1.692-1.555c.076-.071.096-.194.04-.293l-1.658-2.869c-.053-.094-.16-.13-.271-.099l-2.199.693c-.244.076-.507.025-.703-.136-.685-.565-1.435-1.001-2.229-1.295-.238-.088-.415-.291-.471-.538l-.509-2.26c-.027-.101-.118-.175-.221-.175h-3.326c-.103 0-.194.074-.218.177l-.509 2.261c-.056.247-.232.45-.471.538-.794.294-1.544.729-2.229 1.295-.196.16-.459.212-.703.136l-2.201-.694c-.104-.032-.217.005-.266.093l-1.667 2.884c-.051.091-.031.214.051.292l1.687 1.548c.184.169.271.418.233.664-.066.44-.1.881-.1 1.308s.033.867.1 1.308c.037.246-.05.495-.233.664l-1.692 1.555c-.076.071-.096.194-.04.293l1.658 2.869c.054.095.163.133.271.099l2.199-.693c.075-.027.151-.038.227-.038z"/><path d="m15.614 23.999c-.192 0-.384-.073-.531-.22-.292-.294-.292-.769.001-1.062.421-.419.603-1.018.488-1.601l-.663-3.364c-.03-.147-.046-.307-.046-.469 0-1.335 1.086-2.421 2.421-2.421.162 0 .321.016.476.048l3.356.66c.587.12 1.184-.066 1.602-.487l1.063 1.06c-.773.774-1.871 1.111-2.954.899l-3.362-.661c-.565-.119-1.101.334-1.101.902 0 .061.006.119.017.173l.664 3.37c.212 1.075-.125 2.179-.899 2.953-.148.147-.34.22-.532.22z"/><path d="m18.716 21.137c-.162 0-.321-.016-.476-.048l-3.356-.66c-.585-.118-1.184.067-1.602.487l-1.063-1.06c.773-.774 1.871-1.112 2.954-.899l3.362.661c.572.123 1.101-.334 1.101-.902 0-.061-.006-.119-.017-.173l-.664-3.37c-.212-1.075.125-2.179.899-2.953.294-.292.768-.291 1.062.001.292.294.292.769-.001 1.062-.421.419-.603 1.018-.488 1.601l.663 3.364c.03.147.046.307.046.469.001 1.334-1.085 2.42-2.42 2.42z"/></svg>