<svg id="LINE" enable-background="new 0 0 36 36" height="512" viewBox="0 0 36 36" width="512" xmlns="http://www.w3.org/2000/svg"><path d="m34.904 20.355c-3.782-5.791-3.38-11.727-5.203-14.518s-7.256-7.603-20.093.782-9.572 17.5-7.566 20.569c9.388 14.372 39.561 3.423 32.862-6.833z" fill="#efefef"/><path d="m24.889 5.785h1v2h-1z" fill="#a4afc1" transform="matrix(.707 -.707 .707 .707 2.639 19.94)"/><path d="m28.955 9.851h1v2h-1z" fill="#a4afc1" transform="matrix(.707 -.707 .707 .707 .955 24.006)"/><path d="m28.455 6.108h2v1h-2z" fill="#a4afc1" transform="matrix(.707 -.707 .707 .707 3.955 22.763)"/><path d="m5.45 32.986c-.827 0-1.5-.673-1.5-1.5s.673-1.5 1.5-1.5 1.5.673 1.5 1.5-.673 1.5-1.5 1.5zm0-2c-.275 0-.5.224-.5.5s.225.5.5.5.5-.224.5-.5-.224-.5-.5-.5z" fill="#a4afc1"/><path d="m19.75 15.25h-2.125c-.759 0-1.375.616-1.375 1.375 0 .759.616 1.375 1.375 1.375h.75c.759 0 1.375.616 1.375 1.375 0 .759-.616 1.375-1.375 1.375h-2.125z" fill="#2fdf84"/><path d="m18 20.75v1.5z" fill="#2fdf84"/><path d="m18 13.75v1.5z" fill="#2fdf84"/><path d="m28.389 20.974c.333.313.411.812.186 1.213l-1.663 2.876c-.225.401-.704.577-1.145.44l-2.201-.695c-.724.597-1.546 1.086-2.446 1.418l-.509 2.26c-.098.44-.489.763-.949.763h-3.326c-.46 0-.851-.323-.949-.763l-.509-2.26c-.9-.333-1.722-.822-2.446-1.418l-2.201.695c-.44.137-.92-.039-1.145-.44l-1.663-2.876c-.225-.401-.147-.9.186-1.213l1.692-1.555c-.066-.46-.105-.94-.105-1.419s.039-.959.108-1.418l-1.692-1.555c-.333-.313-.411-.812-.186-1.213l1.663-2.876c.225-.401.704-.577 1.145-.44l2.201.695c.724-.597 1.546-1.086 2.446-1.418l.509-2.26c.098-.44.489-.763.949-.763h3.326c.46 0 .851.323.949.763l.509 2.26c.9.333 1.722.822 2.446 1.418l2.201-.695c.44-.137.92.039 1.145.44l1.663 2.876c.225.401.147.9-.186 1.213l-1.692 1.555c.068.46.108.939.108 1.418s-.039.959-.108 1.418z" fill="#2fdf84"/><g fill="#00b871"><path d="m25.566 24.809c-.19.156-.387.304-.59.445l.791.25c.382.119.784-.009 1.033-.305z"/><path d="m14.434 11.191c.724-.597 1.546-1.086 2.446-1.419l.509-2.26c.098-.44.489-.763.949-.763h-2c-.46 0-.851.323-.949.763l-.509 2.26c-.664.245-1.285.577-1.856.974z"/><path d="m25.566 11.191 1.234-.39c-.249-.296-.651-.424-1.033-.305l-.791.25c.203.141.401.289.59.445z"/><path d="m17.388 28.487-.509-2.26c-.9-.333-1.722-.822-2.446-1.419l-1.41.445c.571.396 1.192.728 1.856.974l.509 2.26c.098.44.489.763.949.763h2c-.46 0-.851-.323-.949-.763z"/><path d="m11.088 25.063-1.663-2.876c-.225-.401-.147-.9.186-1.213l1.692-1.555c-.068-.46-.108-.939-.108-1.419s.039-.959.108-1.419l-1.692-1.555c-.333-.313-.411-.812-.186-1.213l1.663-2.876c.03-.053.074-.09.111-.135l-.967-.305c-.44-.137-.92.039-1.145.44l-1.663 2.876c-.225.401-.147.9.186 1.213l1.692 1.555c-.067.46-.106.94-.106 1.419s.039.959.108 1.419l-1.692 1.555c-.333.313-.411.812-.186 1.213l1.663 2.876c.225.401.704.577 1.145.44l.967-.305c-.039-.045-.083-.082-.113-.135z"/></g><path d="m18.375 21.5h-2.875v-1.5h2.875c.345 0 .625-.28.625-.625s-.28-.625-.625-.625h-.75c-1.172 0-2.125-.953-2.125-2.125s.953-2.125 2.125-2.125h2.875v1.5h-2.875c-.345 0-.625.28-.625.625s.28.625.625.625h.75c1.172 0 2.125.953 2.125 2.125s-.953 2.125-2.125 2.125z"/><path d="m17.25 20h1.5v3h-1.5z"/><path d="m17.25 13h1.5v3h-1.5z"/><path d="m19.663 30h-3.326c-.812 0-1.503-.555-1.681-1.349l-.422-1.873c-.687-.291-1.341-.671-1.954-1.134l-1.822.575c-.782.241-1.632-.09-2.024-.788l-1.658-2.868c-.397-.71-.263-1.585.322-2.135l1.412-1.298c-.043-.38-.065-.759-.065-1.13s.021-.75.064-1.13l-1.406-1.292c-.591-.556-.726-1.43-.333-2.131l1.668-2.885c.388-.691 1.236-1.024 2.017-.781l1.825.576c.613-.463 1.268-.843 1.954-1.134l.422-1.874c.178-.794.869-1.349 1.681-1.349h3.326c.812 0 1.503.555 1.681 1.349l.422 1.873c.687.291 1.341.671 1.954 1.134l1.822-.575c.78-.243 1.631.089 2.024.788l1.658 2.868c.397.71.263 1.585-.322 2.135l-1.412 1.298c.043.38.064.759.064 1.13s-.021.75-.064 1.13l1.406 1.292c.591.556.726 1.43.333 2.131l-.481.833-1.299-.751.477-.824c.051-.09.031-.213-.051-.291l-1.687-1.55c-.184-.169-.271-.417-.233-.664.066-.44.1-.88.1-1.307s-.033-.866-.1-1.307c-.037-.247.05-.495.233-.664l1.692-1.556c.076-.072.096-.195.04-.294l-1.658-2.867c-.054-.096-.162-.133-.272-.1l-2.198.694c-.244.077-.507.025-.703-.137-.685-.565-1.435-1-2.228-1.293-.238-.088-.416-.291-.472-.539l-.509-2.26c-.023-.101-.114-.176-.217-.176h-3.326c-.103 0-.194.075-.218.177l-.509 2.26c-.056.248-.233.451-.472.539-.793.293-1.543.729-2.228 1.293-.196.162-.459.213-.703.137l-2.201-.695c-.104-.032-.215.005-.265.093l-1.668 2.884c-.051.09-.031.213.051.291l1.687 1.55c.184.169.271.417.233.664-.066.44-.1.88-.1 1.307s.033.866.1 1.307c.037.247-.05.495-.233.664l-1.692 1.556c-.076.072-.096.195-.04.294l1.658 2.867c.054.096.163.134.272.1l2.198-.694c.244-.077.507-.025.703.137.685.565 1.435 1 2.228 1.293.238.088.416.291.472.539l.509 2.26c.023.103.115.178.218.178h3.326c.103 0 .194-.075.218-.177l.509-2.26c.056-.248.233-.451.472-.539.793-.293 1.543-.729 2.228-1.293.196-.162.459-.214.703-.137l2.201.695c.104.032.216-.004.265-.093l.58-1.002 1.299.751-.575.995c-.388.69-1.239 1.024-2.017.781l-1.825-.576c-.613.463-1.268.843-1.954 1.134l-.422 1.874c-.179.791-.87 1.346-1.682 1.346z"/></svg>