<svg enable-background="new 0 0 36 36" height="512" viewBox="0 0 36 36" width="512" xmlns="http://www.w3.org/2000/svg"><path d="m13.411 34.999c6.298-2.859 12.105-1.559 15.14-2.936 3.035-1.378 8.617-6.016 2.28-19.978s-15.841-12.12-19.18-10.605c-15.632 7.095-9.395 38.582 1.76 33.519z" fill="#efefef"/><path d="m29.25 16.904v2.191c0 .489-.372.91-.861.968l-2.152.274c-.186.646-.44 1.262-.763 1.839l1.33 1.712c.303.391.274.949-.078 1.291l-1.546 1.546c-.342.352-.9.382-1.291.078l-1.712-1.33c-.577.323-1.194.577-1.839.763l-.274 2.152c-.059.489-.479.861-.968.861h-2.191c-.489 0-.91-.372-.968-.861l-.274-2.152c-.646-.186-1.262-.44-1.839-.763l-1.712 1.33c-.391.303-.949.274-1.291-.078l-1.547-1.545c-.352-.342-.382-.9-.078-1.291l1.33-1.712c-.323-.577-.577-1.193-.763-1.839l-2.152-.274c-.489-.059-.861-.479-.861-.968v-2.191c0-.489.372-.91.861-.968l2.152-.274c.186-.646.44-1.262.763-1.839l-1.33-1.712c-.303-.391-.274-.949.078-1.291l1.546-1.546c.342-.352.9-.381 1.291-.078l1.712 1.33c.577-.323 1.194-.577 1.839-.763l.274-2.152c.059-.489.479-.861.968-.861h2.191c.489 0 .91.372.968.861l.274 2.152c.646.186 1.262.44 1.839.763l1.712-1.33c.391-.303.949-.274 1.291.078l1.546 1.546c.352.342.382.9.078 1.291l-1.33 1.712c.323.577.577 1.194.763 1.839l2.152.274c.49.058.862.478.862.967z" fill="#f3f3f1"/><g fill="#d5dbe1"><path d="m16.073 10.526c.577-.323 1.193-.577 1.839-.763l.274-2.152c.057-.479.463-.84.939-.855-.01 0-.019-.005-.029-.005h-2.191c-.489 0-.91.372-.969.861l-.274 2.152c-.135.039-.262.093-.394.138z"/><path d="m24.427 10.526 1.128-.877-.375-.375c-.342-.352-.9-.381-1.291-.078l-.907.705c.501.169.988.37 1.445.625z"/><path d="m18.186 28.389-.274-2.152c-.646-.186-1.262-.44-1.839-.763l-.805.625c.132.045.259.099.394.138l.274 2.152c.059.489.479.861.969.861h2.191c.01 0 .019-.005.029-.005-.476-.016-.882-.377-.939-.856z"/><path d="m24.427 25.474c-.457.255-.944.456-1.445.625l.907.705c.391.303.949.274 1.291-.078l.375-.375z"/><path d="m11.524 25.18c-.352-.342-.382-.9-.078-1.291l1.33-1.712c-.323-.577-.577-1.193-.763-1.839l-2.152-.274c-.489-.059-.861-.479-.861-.968v-2.191c0-.489.372-.91.861-.968l2.152-.274c.186-.646.44-1.262.763-1.839l-1.33-1.712c-.303-.391-.274-.949.078-1.291l1.17-1.17-.583-.453c-.391-.303-.949-.274-1.291.078l-1.546 1.544c-.352.342-.382.9-.078 1.291l1.33 1.712c-.323.577-.577 1.193-.763 1.839l-2.152.274c-.489.059-.861.479-.861.968v2.191c0 .489.372.91.861.968l2.152.274c.186.646.44 1.262.763 1.839l-1.33 1.712c-.303.391-.274.949.078 1.291l1.546 1.546c.342.352.9.382 1.291.078l.583-.453z"/></g><circle cx="18" cy="18" fill="#2fdf84" r="6.25"/><path d="m14 18c0-3.067 2.211-5.613 5.125-6.144-.365-.066-.74-.106-1.125-.106-3.452 0-6.25 2.798-6.25 6.25s2.798 6.25 6.25 6.25c.385 0 .76-.04 1.125-.106-2.914-.531-5.125-3.077-5.125-6.144z" fill="#00b871"/><circle cx="18" cy="18" fill="#f3f3f1" r="1.75"/><g fill="#a4afc1"><path d="m30.621 29.333h1v2h-1z" transform="matrix(.707 -.707 .707 .707 -12.333 30.898)"/><path d="m25.879 29.833h2v1h-2z" transform="matrix(.707 -.707 .707 .707 -13.576 27.89)"/><path d="m29.945 25.767h2v1h-2z" transform="matrix(.707 -.707 .707 .707 -9.51 29.575)"/><path d="m5 8.5c-.827 0-1.5-.673-1.5-1.5s.673-1.5 1.5-1.5 1.5.673 1.5 1.5-.673 1.5-1.5 1.5zm0-2c-.276 0-.5.224-.5.5s.224.5.5.5.5-.224.5-.5-.224-.5-.5-.5z"/></g><path d="m19.096 30h-2.191c-.873 0-1.609-.654-1.713-1.521l-.213-1.671c-.37-.127-.729-.276-1.076-.446l-1.332 1.035c-.696.541-1.68.478-2.289-.147l-1.538-1.54c-.617-.6-.681-1.584-.141-2.281l1.035-1.332c-.169-.347-.318-.706-.446-1.076l-1.676-.213c-.862-.103-1.516-.84-1.516-1.712v-2.191c0-.873.654-1.609 1.521-1.713l1.671-.213c.127-.37.276-.729.446-1.076l-1.035-1.332c-.541-.697-.477-1.681.147-2.289l1.539-1.538c.601-.619 1.584-.68 2.281-.141l1.332 1.035c.347-.169.706-.318 1.076-.446l.213-1.676c.104-.862.841-1.516 1.713-1.516h2.191c.873 0 1.609.654 1.713 1.521l.213 1.671c.37.127.729.276 1.076.446l1.332-1.035c.697-.54 1.681-.477 2.289.147l1.538 1.539c.617.601.681 1.584.141 2.281l-1.035 1.332c.169.347.318.706.446 1.076l1.676.213c.862.104 1.516.841 1.516 1.713v2.191c0 .873-.654 1.609-1.521 1.713l-1.671.213c-.127.37-.276.729-.446 1.076l1.035 1.332c.541.697.477 1.681-.147 2.289l-1.538 1.539c-.601.618-1.586.679-2.281.141l-1.332-1.035c-.347.169-.706.318-1.076.446l-.213 1.676c-.105.861-.842 1.515-1.714 1.515zm-5.273-5.276c.125 0 .252.031.366.095.521.292 1.087.526 1.68.697.288.083.499.329.537.626l.274 2.152c.014.116.114.206.224.206h2.191c.11 0 .21-.09.224-.2l.274-2.158c.038-.297.249-.543.537-.626.593-.17 1.159-.405 1.68-.697.262-.146.589-.122.826.062l1.712 1.33c.09.07.221.066.294-.009l1.553-1.553c.083-.081.086-.21.016-.301l-1.33-1.711c-.185-.238-.209-.563-.062-.826.292-.521.526-1.087.697-1.68.083-.288.329-.499.626-.537l2.152-.274c.116-.014.206-.114.206-.224v-2.191c0-.11-.09-.21-.2-.224l-2.158-.274c-.297-.038-.543-.249-.626-.537-.17-.593-.405-1.159-.697-1.68-.147-.263-.122-.588.062-.826l1.33-1.712c.07-.091.067-.22-.009-.294l-1.552-1.554c-.082-.083-.21-.087-.302-.016l-1.711 1.33c-.237.185-.564.209-.826.062-.521-.292-1.087-.526-1.68-.697-.288-.083-.499-.329-.537-.626l-.274-2.151c-.014-.116-.114-.206-.224-.206h-2.191c-.11 0-.21.09-.224.2l-.274 2.158c-.038.297-.249.543-.537.626-.593.17-1.159.405-1.68.697-.263.146-.589.122-.826-.062l-1.712-1.33c-.091-.071-.221-.067-.294.009l-1.554 1.552c-.083.081-.086.21-.016.302l1.33 1.711c.185.238.209.563.062.826-.292.521-.526 1.087-.697 1.68-.083.288-.329.499-.626.537l-2.151.274c-.116.014-.206.114-.206.224v2.191c0 .11.09.21.2.224l2.158.274c.297.038.543.249.626.537.17.593.405 1.159.697 1.68.147.263.122.588-.062.826l-1.33 1.712c-.07.091-.067.22.009.293l1.553 1.553c.08.082.208.087.302.016l1.711-1.33c.133-.103.296-.156.459-.156z"/><path d="m18 25c-3.86 0-7-3.14-7-7s3.14-7 7-7 7 3.14 7 7-3.14 7-7 7zm0-12.5c-3.033 0-5.5 2.467-5.5 5.5s2.467 5.5 5.5 5.5 5.5-2.467 5.5-5.5-2.467-5.5-5.5-5.5z"/><path d="m18 20.5c-1.378 0-2.5-1.122-2.5-2.5s1.122-2.5 2.5-2.5 2.5 1.122 2.5 2.5-1.122 2.5-2.5 2.5zm0-3.5c-.551 0-1 .449-1 1s.449 1 1 1 1-.449 1-1-.449-1-1-1z"/><path d="m19.75 17.25h4.5v1.5h-4.5z"/><path d="m15.255 12.289h1.501v4.503h-1.501z" transform="matrix(.866 -.5 .5 .866 -5.124 9.943)"/><path d="m13.744 20.71h4.503v1.501h-4.503z" transform="matrix(.5 -.866 .866 .5 -10.587 24.589)"/></svg>