<svg id="_x31__x2C_5" enable-background="new 0 0 36 36" height="512" viewBox="0 0 36 36" width="512" xmlns="http://www.w3.org/2000/svg"><g><path d="m31.833 8.377c0 6.917 3.583 11.667 3.583 15s-1.916 10.333-17.249 10.333-17.584-9.417-17.584-13.083c0-17.167 31.25-24.5 31.25-12.25z" fill="#efefef"/></g><g><path d="m29.625 2.25h1v2h-1z" fill="#a4afc1"/></g><g><path d="m31.875 5.25h2v1h-2z" fill="#a4afc1"/></g><g><path d="m27.25 28.25h-18.5c-1.105 0-2-.895-2-2v-15h22.5v15c0 1.105-.895 2-2 2z" fill="#f3f3f1"/></g><g><path d="m29.25 11.25h-22.5v-1.5c0-1.105.895-2 2-2h18.5c1.105 0 2 .895 2 2z" fill="#2fdf84"/></g><g><path d="m22.853 21.388c.155.146.192.379.087.566l-.777 1.342c-.105.187-.329.269-.535.205l-1.028-.324c-.338.278-.722.507-1.143.662l-.238 1.055c-.046.205-.229.356-.443.356h-1.554c-.215 0-.398-.151-.443-.356l-.238-1.055c-.42-.155-.804-.383-1.143-.662l-1.028.324c-.206.064-.43-.018-.535-.205l-.777-1.342c-.105-.187-.069-.42.087-.566l.791-.726c-.032-.215-.05-.438-.05-.662s.018-.447.05-.662l-.791-.726c-.155-.146-.192-.379-.087-.566l.777-1.342c.105-.187.329-.269.535-.205l1.028.324c.338-.278.722-.507 1.143-.662l.238-1.055c.046-.205.229-.356.443-.356h1.554c.215 0 .398.151.443.356l.238 1.055c.42.155.804.383 1.143.662l1.028-.324c.206-.064.43.018.535.205l.777 1.342c.105.187.069.42-.087.566l-.791.726c.032.215.05.438.05.662s-.018.447-.05.662z" fill="#2fdf84"/></g><g><circle cx="18" cy="20" fill="#f3f3f1" r="1.75"/></g><g><path d="m9.25 26.25v-15h-2.5v15c0 1.105.895 2 2 2h2.5c-1.105 0-2-.895-2-2z" fill="#d5dbe1"/></g><g><path d="m11 7.75h-2.25c-1.105 0-2 .895-2 2v1.5h2.25v-1.5c0-1.105.895-2 2-2z" fill="#00b871"/></g><g><path d="m19.03 24.894-.238-1.055c-.42-.155-.804-.383-1.143-.662l-1.028.324c-.206.064-.43-.018-.535-.205l-.777-1.342c-.105-.187-.069-.42.087-.566l.791-.726c-.032-.215-.05-.438-.05-.662s.018-.447.05-.662l-.791-.726c-.155-.146-.192-.379-.087-.566l.777-1.342c.105-.187.329-.269.535-.205l1.028.324c.338-.278.722-.507 1.143-.662l.238-1.055c.014-.062.06-.104.095-.154-.083-.115-.198-.203-.348-.203h-1.554c-.215 0-.398.151-.443.356l-.238 1.055c-.42.155-.804.383-1.143.662l-1.028-.324c-.206-.064-.43.018-.535.205l-.777 1.342c-.105.187-.069.42.087.566l.791.726c-.032.215-.05.438-.05.662s.018.447.05.662l-.791.726c-.155.146-.192.379-.087.566l.777 1.342c.105.187.329.269.535.205l1.028-.324c.338.279.722.507 1.143.662l.238 1.055c.046.205.229.356.443.356h1.554c.15 0 .265-.088.348-.203-.036-.048-.081-.09-.095-.152z" fill="#00b871"/></g><g><path d="m18.5 20c0-.536.246-1.009.625-1.33-.305-.258-.694-.42-1.125-.42-.966 0-1.75.784-1.75 1.75s.784 1.75 1.75 1.75c.431 0 .82-.162 1.125-.42-.379-.321-.625-.794-.625-1.33z" fill="#d5dbe1"/></g><g><path d="m27.25 29h-18.5c-1.517 0-2.75-1.233-2.75-2.75v-16.5c0-1.517 1.233-2.75 2.75-2.75h18.5c1.517 0 2.75 1.233 2.75 2.75v16.5c0 1.517-1.233 2.75-2.75 2.75zm-18.5-20.5c-.689 0-1.25.561-1.25 1.25v16.5c0 .689.561 1.25 1.25 1.25h18.5c.689 0 1.25-.561 1.25-1.25v-16.5c0-.689-.561-1.25-1.25-1.25z"/></g><g><path d="m6.75 10.5h22.5v1.5h-22.5z"/></g><g><path d="m18 22.5c-1.378 0-2.5-1.122-2.5-2.5s1.122-2.5 2.5-2.5 2.5 1.122 2.5 2.5-1.122 2.5-2.5 2.5zm0-3.5c-.551 0-1 .449-1 1s.449 1 1 1 1-.449 1-1-.449-1-1-1z"/></g><g><path d="m18.777 26h-1.554c-.559 0-1.053-.396-1.175-.942l-.153-.679c-.221-.105-.434-.229-.638-.37l-.66.208c-.546.169-1.138-.063-1.414-.553l-.772-1.333c-.279-.498-.185-1.106.222-1.489l.518-.475c-.009-.122-.014-.244-.014-.366s.005-.245.014-.366l-.511-.469c-.414-.389-.507-.998-.234-1.485l.782-1.352c.271-.482.865-.715 1.406-.546l.663.209c.205-.141.417-.265.638-.37l.153-.68c.124-.554.607-.942 1.175-.942h1.554c.568 0 1.051.388 1.175.942l.153.679c.221.105.434.229.638.37l.66-.208c.544-.169 1.138.063 1.414.553l.772 1.333c.279.498.185 1.106-.222 1.489l-.518.475c.009.122.014.244.014.366s-.005.245-.014.366l.511.469.006.006c.407.383.501.991.228 1.479l-.782 1.352c-.271.481-.866.711-1.406.546l-.663-.209c-.205.141-.417.265-.638.37l-.153.68c-.122.546-.617.942-1.175.942zm-1.317-1.5h1.08l.187-.826c.056-.248.233-.451.472-.539.329-.121.64-.302.925-.537.196-.163.46-.215.703-.137l.807.254.541-.935-.618-.567c-.183-.168-.271-.417-.235-.662.027-.18.042-.366.042-.553s-.016-.373-.042-.553c-.036-.246.052-.494.235-.662l.618-.567-.542-.935-.806.254c-.242.076-.507.025-.703-.137-.285-.235-.597-.416-.925-.537-.238-.088-.416-.291-.472-.539l-.187-.822h-1.08l-.187.826c-.056.248-.233.451-.472.539-.329.121-.64.302-.925.537-.197.161-.46.212-.703.137l-.807-.254-.541.935.618.567c.183.168.271.417.235.662-.027.18-.042.366-.042.553s.016.373.042.553c.036.246-.052.494-.235.662l-.618.567.542.935.806-.254c.244-.077.507-.025.703.137.285.235.597.416.925.537.238.088.416.291.472.539zm4.054-1.579c-.001.002-.002.004-.004.007zm-7.032-.007.003.006c-.001-.002-.002-.004-.003-.006zm7.033-5.834c.001.002.002.004.003.006zm-7.025-.008-.004.007c.002-.003.003-.005.004-.007z"/></g><g><path d="m2 27.5h32v1.5h-32z"/></g></svg>