<svg id="_x31__x2C_5" enable-background="new 0 0 36 36" height="512" viewBox="0 0 36 36" width="512" xmlns="http://www.w3.org/2000/svg"><path d="m8.377 31.833c6.917 0 11.667 3.583 15 3.583s10.333-1.916 10.333-17.249-9.417-17.584-13.083-17.584c-17.167 0-24.5 31.25-12.25 31.25z" fill="#efefef"/><path d="m32.533 7.033h1v2h-1z" fill="#a4afc1" transform="matrix(.707 -.707 .707 .707 3.995 25.711)"/><path d="m28.467 2.967h1v2h-1z" fill="#a4afc1" transform="matrix(.707 -.707 .707 .707 5.679 21.645)"/><path d="m32.033 3.644h2v1h-2z" fill="#a4afc1" transform="matrix(.707 -.707 .707 .707 6.745 24.572)"/><path d="m19.75 26.25s.245 1.765 1.48 3h.02-6.5c1.25-1.25 1.48-3 1.48-3z" fill="#2fdf84"/><path d="m28.25 10.75c.55 0 1 .45 1 1v11h-22.5v-11c0-.55.45-1 1-1z" fill="#f3f3f1"/><path d="m7.75 26.25h20.5c.552 0 1-.448 1-1v-2.5h-22.5v2.5c0 .552.448 1 1 1z" fill="#2fdf84"/><circle cx="25" cy="11.5" fill="#2fdf84" r="2.75"/><path d="m11.804 20.25c-1.137 0-2.054-.871-2.054-1.95s.918-1.95 2.054-1.95h.037c.219-1.473 1.548-2.6 3.159-2.6 1.278 0 2.383.711 2.89 1.742 1.319.069 2.36 1.105 2.36 2.375 0 1.317-1.123 2.383-2.511 2.383z" fill="#2fdf84"/><g fill="#00b871"><path d="m16.23 26.25s-.23 1.75-1.48 3h2.25c1.25-1.25 1.48-3 1.48-3z"/><path d="m9 25.25v-2.5h-2.25v2.5c0 .552.448 1 1 1h2.25c-.552 0-1-.448-1-1z"/><path d="m24.5 11.5c0-1.117.669-2.074 1.625-2.504-.344-.155-.723-.246-1.125-.246-1.519 0-2.75 1.231-2.75 2.75s1.231 2.75 2.75 2.75c.402 0 .781-.091 1.125-.246-.956-.43-1.625-1.387-1.625-2.504z"/><path d="m12 18.3c0-1.079.918-1.95 2.054-1.95h.037c.165-1.107.956-2.018 2.023-2.403-.348-.123-.721-.197-1.114-.197-1.612 0-2.94 1.127-3.159 2.6h-.037c-1.137 0-2.054.871-2.054 1.95s.918 1.95 2.054 1.95h2.25c-1.136 0-2.054-.871-2.054-1.95z"/></g><path d="m10 10.75h-2.25c-.55 0-1 .45-1 1v11h2.25v-11c0-.55.45-1 1-1z" fill="#d5dbe1"/><path d="m28.25 27h-20.5c-.965 0-1.75-.785-1.75-1.75v-13.5c0-.965.785-1.75 1.75-1.75h10.25v1.5h-10.25c-.136 0-.25.114-.25.25v13.5c0 .136.114.25.25.25h20.5c.136 0 .25-.114.25-.25v-8.25h1.5v8.25c0 .965-.785 1.75-1.75 1.75z"/><path d="m6.75 22h22.5v1.5h-22.5z"/><path d="m21.25 30h-6.5c-.304 0-.577-.183-.693-.463-.115-.28-.052-.603.163-.817 1.046-1.046 1.266-2.555 1.268-2.57l1.486.198c-.007.059-.147 1.066-.743 2.152h3.522c-.591-1.08-.737-2.088-.746-2.146l1.485-.209c.003.015.223 1.459 1.186 2.489.195.136.322.361.322.616 0 .414-.336.75-.75.75z"/><path d="m25 15c-1.93 0-3.5-1.57-3.5-3.5s1.57-3.5 3.5-3.5 3.5 1.57 3.5 3.5-1.57 3.5-3.5 3.5zm0-5.5c-1.103 0-2 .897-2 2s.897 2 2 2 2-.897 2-2-.897-2-2-2z"/><path d="m24.25 13.5h1.5v3.5h-1.5z"/><path d="m24.25 6h1.5v3.5h-1.5z"/><path d="m26.505 8.88h3.62v1.499h-3.62z" transform="matrix(.882 -.472 .472 .882 -1.195 14.489)"/><path d="m19.875 12.62h3.62v1.499h-3.62z" transform="matrix(.882 -.472 .472 .882 -3.742 11.805)"/><path d="m20.935 7.82h1.499v3.62h-1.499z" transform="matrix(.472 -.882 .882 .472 2.968 24.212)"/><path d="m27.565 11.56h1.499v3.62h-1.499z" transform="matrix(.472 -.882 .882 .472 3.173 32.035)"/><path d="m17.74 21h-5.94c-1.544 0-2.8-1.211-2.8-2.7 0-1.303.962-2.393 2.236-2.646.505-1.548 2.027-2.654 3.764-2.654 1.106 0 2.165.446 2.904 1.224l-1.088 1.033c-.457-.481-1.119-.757-1.816-.757-1.212 0-2.251.843-2.418 1.961-.056.367-.371.639-.742.639-.757 0-1.34.538-1.34 1.2s.583 1.2 1.3 1.2h5.94c.971 0 1.76-.731 1.76-1.63 0-.135-.014-.244-.042-.346l1.443-.408c.067.235.099.482.099.754 0 1.726-1.462 3.13-3.26 3.13z"/></svg>