<svg enable-background="new 0 0 36 36" height="512" viewBox="0 0 36 36" width="512" xmlns="http://www.w3.org/2000/svg"><path d="m8.377 31.833c6.917 0 11.667 3.583 15 3.583s10.333-1.916 10.333-17.249-9.417-17.584-13.083-17.584c-17.167 0-24.5 31.25-12.25 31.25z" fill="#efefef"/><path d="m28.389 20.974c.333.313.411.812.186 1.213l-1.663 2.876c-.225.401-.704.577-1.145.44l-2.201-.695c-.724.597-1.546 1.086-2.446 1.418l-.509 2.26c-.098.44-.489.763-.949.763h-3.326c-.46 0-.851-.323-.949-.763l-.509-2.26c-.9-.333-1.722-.822-2.446-1.418l-2.201.695c-.44.137-.92-.039-1.145-.44l-1.663-2.876c-.225-.401-.147-.9.186-1.213l1.692-1.555c-.066-.46-.105-.94-.105-1.419s.039-.959.108-1.418l-1.692-1.555c-.333-.313-.411-.812-.186-1.213l1.663-2.876c.225-.401.704-.577 1.145-.44l2.201.695c.724-.597 1.546-1.086 2.446-1.418l.509-2.26c.098-.44.489-.763.949-.763h3.326c.46 0 .851.323.949.763l.509 2.26c.9.333 1.722.822 2.446 1.418l2.201-.695c.44-.137.92.039 1.145.44l1.663 2.876c.225.401.147.9-.186 1.213l-1.692 1.555c.068.46.108.939.108 1.418s-.039.959-.108 1.418z" fill="#f3f3f1"/><path d="m28.389 20.974c.333.313.411.812.186 1.213l-1.663 2.876c-.225.401-.704.577-1.145.44l-2.201-.695c-.724.597-1.546 1.086-2.446 1.418l-.509 2.26c-.098.44-.489.763-.949.763h-3.326c-.46 0-.851-.323-.949-.763l-.509-2.26c-.9-.333-1.722-.822-2.446-1.418l-2.201.695c-.44.137-.92-.039-1.145-.44l-1.663-2.876c-.225-.401-.147-.9.186-1.213l1.692-1.555c-.066-.46-.105-.94-.105-1.419s.039-.959.108-1.418l-1.692-1.555c-.333-.313-.411-.812-.186-1.213l1.663-2.876c.225-.401.704-.577 1.145-.44l2.201.695c.724-.597 1.546-1.086 2.446-1.418l.509-2.26c.098-.44.489-.763.949-.763h3.326c.46 0 .851.323.949.763l.509 2.26c.9.333 1.722.822 2.446 1.418l2.201-.695c.44-.137.92.039 1.145.44l1.663 2.876c.225.401.147.9-.186 1.213l-1.692 1.555c.068.46.108.939.108 1.418s-.039.959-.108 1.418z" fill="#f3f3f1"/><g fill="#d5dbe1"><path d="m14.684 11.191c.724-.597 1.546-1.086 2.446-1.419l.509-2.26c.098-.44.489-.763.949-.763h-2.25c-.46 0-.851.323-.949.763l-.509 2.26c-.633.234-1.225.549-1.773.921z"/><path d="m11.338 25.063-1.663-2.876c-.225-.401-.147-.9.186-1.213l1.692-1.555c-.068-.46-.108-.939-.108-1.419s.039-.959.108-1.419l-1.692-1.555c-.333-.313-.411-.812-.186-1.213l1.663-2.876c.016-.028.041-.047.06-.073l-1.165-.368c-.44-.137-.92.039-1.145.44l-1.663 2.876c-.225.401-.147.9.186 1.213l1.692 1.555c-.068.461-.107.941-.107 1.42s.039.959.108 1.419l-1.692 1.555c-.333.313-.411.812-.186 1.213l1.663 2.876c.225.401.704.577 1.145.44l1.165-.368c-.019-.025-.045-.044-.061-.072z"/><path d="m17.638 28.487-.509-2.26c-.9-.333-1.722-.822-2.446-1.419l-1.578.498c.549.372 1.14.687 1.773.921l.509 2.26c.098.44.489.763.949.763h2.25c-.459 0-.85-.323-.948-.763z"/></g><circle cx="18" cy="18" fill="#2fdf84" r="4.25"/><path d="m16 18c0-1.955 1.328-3.585 3.125-4.08-.361-.099-.733-.17-1.125-.17-2.347 0-4.25 1.903-4.25 4.25s1.903 4.25 4.25 4.25c.392 0 .764-.07 1.125-.17-1.797-.495-3.125-2.125-3.125-4.08z" fill="#00b871"/><g fill="#a4afc1"><path d="m26.418 4.717h1v2h-1z" transform="matrix(.707 -.707 .707 .707 3.839 20.704)"/><path d="m30.483 8.783h1v2h-1z" transform="matrix(.707 -.707 .707 .707 2.155 24.769)"/><path d="m29.807 5.217h2v1h-2z" transform="matrix(.707 -.707 .707 .707 4.981 23.458)"/><path d="m5 7.217c-.827 0-1.5-.673-1.5-1.5s.673-1.5 1.5-1.5 1.5.673 1.5 1.5-.673 1.5-1.5 1.5zm0-2c-.276 0-.5.224-.5.5s.224.5.5.5.5-.224.5-.5-.224-.5-.5-.5z"/></g><path d="m18 23c-2.757 0-5-2.243-5-5s2.243-5 5-5 5 2.243 5 5-2.243 5-5 5zm0-8.5c-1.93 0-3.5 1.57-3.5 3.5s1.57 3.5 3.5 3.5 3.5-1.57 3.5-3.5-1.57-3.5-3.5-3.5z"/><path d="m19.663 30h-3.326c-.8 0-1.507-.568-1.681-1.351l-.421-1.872c-.686-.291-1.34-.671-1.954-1.135l-1.823.576c-.782.243-1.632-.089-2.024-.789l-1.658-2.867c-.397-.71-.263-1.584.321-2.134l1.413-1.299c-.043-.381-.064-.759-.064-1.129s.021-.748.063-1.129l-1.406-1.292c-.591-.556-.726-1.43-.333-2.131l1.668-2.885c.388-.693 1.241-1.023 2.017-.783l1.826.577c.614-.464 1.268-.844 1.954-1.135l.422-1.874c.173-.78.88-1.348 1.68-1.348h3.326c.8 0 1.507.568 1.681 1.351l.421 1.872c.686.291 1.34.671 1.954 1.135l1.823-.576c.784-.241 1.632.089 2.024.789l1.658 2.867c.397.71.263 1.584-.321 2.134l-1.413 1.299c.042.381.063.76.063 1.129s-.021.748-.063 1.129l1.406 1.292c.002.002.004.004.007.006.584.55.719 1.424.326 2.125l-1.668 2.885c-.388.691-1.239 1.022-2.017.781l-1.826-.577c-.614.464-1.268.844-1.954 1.135l-.422 1.874c-.172.782-.879 1.35-1.679 1.35zm-7.229-5.941c.172 0 .341.059.477.171.687.565 1.436 1.001 2.229 1.293.239.088.416.291.472.539l.509 2.26c.023.104.114.178.217.178h3.326c.103 0 .194-.074.216-.176l.51-2.262c.056-.248.233-.451.472-.539.792-.292 1.542-.728 2.229-1.293.195-.162.461-.214.703-.137l2.201.695c.105.033.217-.005.265-.092l1.668-2.885c.05-.089.032-.211-.048-.289l-1.688-1.552c-.183-.168-.271-.417-.234-.663.066-.443.099-.883.099-1.308s-.033-.865-.099-1.308c-.037-.246.051-.494.234-.663l1.692-1.556c.076-.071.094-.195.039-.294l-1.658-2.867c-.053-.096-.167-.134-.272-.1l-2.198.694c-.241.077-.506.025-.703-.137-.687-.565-1.436-1.001-2.229-1.293-.239-.088-.416-.291-.472-.539l-.509-2.26c-.025-.102-.116-.176-.219-.176h-3.326c-.103 0-.194.074-.216.176l-.51 2.262c-.056.248-.233.451-.472.539-.792.292-1.542.728-2.229 1.293-.196.161-.462.212-.703.137l-2.201-.695c-.104-.031-.217.006-.265.092l-1.668 2.885c-.05.09-.032.214.051.292l1.686 1.549c.183.168.271.417.234.663-.065.442-.098.882-.098 1.307s.033.865.099 1.308c.037.246-.051.494-.234.663l-1.692 1.556c-.076.071-.094.195-.039.294l1.658 2.867c.053.095.165.131.272.1l2.198-.694c.074-.024.15-.035.226-.035z"/></svg>