<svg id="LINE" enable-background="new 0 0 36 36" height="512" viewBox="0 0 36 36" width="512" xmlns="http://www.w3.org/2000/svg"><path d="m8.377 4.167c6.917 0 11.667-3.583 15-3.583s10.333 1.916 10.333 17.249-9.417 17.583-13.083 17.583c-17.167.001-24.5-31.249-12.25-31.249z" fill="#efefef"/><path d="m17.965 2.477h1v2h-1z" fill="#a4afc1" transform="matrix(.707 -.707 .707 .707 2.95 14.075)"/><path d="m22.03 6.543h1v2h-1z" fill="#a4afc1" transform="matrix(.707 -.707 .707 .707 1.265 18.141)"/><path d="m21.53 2.8h2v1h-2z" fill="#a4afc1" transform="matrix(.707 -.707 .707 .707 4.265 16.898)"/><path d="m29.626 33.737c-.827 0-1.5-.673-1.5-1.5s.673-1.5 1.5-1.5 1.5.673 1.5 1.5-.673 1.5-1.5 1.5zm0-2c-.275 0-.5.224-.5.5s.225.5.5.5.5-.224.5-.5-.225-.5-.5-.5z" fill="#a4afc1"/><path d="m29.25 17.13v1.74c0 .51-.37.93-.87 1l-2.43.32c-.18.67-.44 1.3-.78 1.89l1.49 1.94c.31.4.27.96-.09 1.32l-1.23 1.23c-.36.36-.92.4-1.32.09l-1.94-1.49c-.59.34-1.22.6-1.89.78l-.32 2.43c-.07.5-.49.87-1 .87h-1.74c-.51 0-.93-.37-1-.87l-.32-2.43c-.67-.18-1.3-.44-1.89-.78l-1.94 1.49c-.4.31-.96.27-1.32-.09l-1.23-1.23c-.36-.36-.4-.92-.09-1.32l1.49-1.94c-.34-.59-.6-1.22-.78-1.89l-2.43-.32c-.5-.07-.87-.49-.87-1v-1.74c0-.51.37-.93.87-1l2.43-.32c.18-.67.44-1.3.78-1.89l-1.49-1.94c-.31-.4-.27-.96.09-1.32l1.23-1.23c.36-.36.92-.4 1.32-.09l1.94 1.49c.59-.34 1.22-.6 1.89-.78l.32-2.43c.07-.5.49-.87 1-.87h1.74c.51 0 .93.37 1 .87l.32 2.43c.67.18 1.3.44 1.89.78l1.94-1.49c.4-.31.96-.27 1.32.09l1.23 1.23c.36.36.4.92.09 1.32l-1.49 1.94c.34.59.6 1.22.78 1.89l2.43.32c.5.07.87.49.87 1z" fill="#2fdf84"/><path d="m19.75 15.25h-2.125c-.759 0-1.375.616-1.375 1.375 0 .759.616 1.375 1.375 1.375h.75c.759 0 1.375.616 1.375 1.375 0 .759-.616 1.375-1.375 1.375h-2.125z" fill="#2fdf84"/><path d="m18 20.75v1.5z" fill="#2fdf84"/><path d="m18 13.75v1.5z" fill="#2fdf84"/><g fill="#00b871"><path d="m24.08 10.83 1.504-1.156-.244-.244c-.36-.36-.92-.4-1.32-.09l-1.201.923c.436.157.861.337 1.261.567z"/><path d="m15.92 10.83c.59-.34 1.22-.6 1.89-.78l.32-2.43c.064-.455.422-.788.87-.846-.044-.006-.084-.024-.13-.024h-1.74c-.51 0-.93.37-1 .87l-.32 2.43c-.216.058-.421.138-.629.213z"/><path d="m18.13 28.38-.32-2.43c-.67-.18-1.3-.44-1.89-.78l-.739.567c.208.075.413.155.629.213l.32 2.43c.07.5.49.87 1 .87h1.74c.046 0 .086-.018.13-.024-.448-.058-.806-.391-.87-.846z"/><path d="m11.43 25.34c-.36-.36-.4-.92-.09-1.32l1.49-1.94c-.34-.59-.6-1.22-.78-1.89l-2.43-.32c-.5-.07-.87-.49-.87-1v-1.74c0-.51.37-.93.87-1l2.43-.32c.18-.67.44-1.3.78-1.89l-1.49-1.94c-.31-.4-.27-.96.09-1.32l.986-.986-.436-.334c-.4-.31-.96-.27-1.32.09l-1.23 1.23c-.36.36-.4.92-.09 1.32l1.49 1.94c-.34.59-.6 1.22-.78 1.89l-2.43.32c-.5.07-.87.49-.87 1v1.74c0 .51.37.93.87 1l2.43.32c.18.67.44 1.3.78 1.89l-1.49 1.94c-.31.4-.27.96.09 1.32l1.23 1.23c.36.36.92.4 1.32.09l.435-.334z"/><path d="m24.08 25.17c-.4.23-.825.41-1.261.567l1.201.923c.4.31.96.27 1.32-.09l.245-.245z"/></g><path d="m18.87 30h-1.74c-.887 0-1.619-.637-1.743-1.516l-.258-1.956c-.391-.13-.771-.287-1.136-.469l-1.556 1.195c-.692.533-1.685.47-2.309-.155l-.428-.429 1.061-1.061.43.43c.095.093.229.106.331.027l1.941-1.492c.24-.185.569-.206.831-.055.531.306 1.107.543 1.71.706.293.079.51.326.549.626l.32 2.43c.019.126.124.218.257.218h1.74c.133 0 .238-.092.257-.225l.32-2.423c.039-.3.256-.547.549-.626.603-.163 1.179-.4 1.71-.706.262-.152.591-.13.831.055l1.939 1.49c.102.079.237.068.332-.025l1.231-1.23c.094-.094.104-.23.027-.331l-1.492-1.942c-.185-.241-.206-.569-.055-.832.305-.529.542-1.105.705-1.711.079-.292.326-.509.627-.548l2.43-.32c.125-.018.218-.124.218-.256v-1.74c0-.133-.093-.239-.225-.257l-2.423-.319c-.301-.04-.548-.256-.627-.548-.163-.606-.4-1.182-.705-1.711-.151-.263-.13-.591.055-.832l1.49-1.94c.079-.103.068-.239-.025-.333l-1.229-1.229c-.095-.094-.23-.104-.331-.028l-1.941 1.492c-.239.186-.568.207-.831.055-.531-.306-1.107-.543-1.71-.706-.293-.079-.51-.326-.549-.626l-.32-2.43c-.02-.125-.125-.217-.258-.217h-1.74c-.133 0-.238.092-.257.225l-.32 2.423c-.039.3-.256.547-.549.626-.603.163-1.179.4-1.71.706-.263.15-.592.129-.831-.055l-1.939-1.49c-.102-.079-.238-.069-.332.025l-1.232 1.23c-.094.094-.104.23-.027.331l1.492 1.942c.185.241.206.569.055.832-.305.529-.542 1.105-.705 1.711-.079.292-.326.509-.627.548l-2.43.32c-.125.017-.218.123-.218.256v1.74c0 .133.093.239.225.257l2.423.319c.301.04.548.256.627.548.163.606.4 1.182.705 1.711.151.263.13.591-.055.832l-1.49 1.94c-.08.103-.069.239.025.333l.261.26-1.061 1.061-.261-.261c-.623-.624-.688-1.617-.152-2.309l1.193-1.554c-.183-.365-.339-.745-.469-1.137l-1.949-.256c-.884-.125-1.522-.858-1.522-1.744v-1.74c0-.886.638-1.619 1.516-1.743l1.956-.257c.13-.392.286-.772.469-1.137l-1.195-1.556c-.534-.69-.469-1.683.154-2.307l1.23-1.23c.624-.624 1.616-.69 2.31-.153l1.554 1.193c.365-.182.745-.339 1.136-.469l.258-1.949c.123-.885.855-1.522 1.742-1.522h1.74c.887 0 1.619.637 1.743 1.516l.258 1.956c.391.13.771.287 1.136.469l1.556-1.195c.691-.535 1.686-.469 2.309.155l1.229 1.229c.623.624.688 1.617.152 2.309l-1.193 1.554c.183.365.339.745.469 1.137l1.949.256c.884.125 1.522.858 1.522 1.744v1.74c0 .886-.638 1.619-1.516 1.743l-1.956.257c-.13.392-.286.772-.469 1.137l1.195 1.556c.534.69.469 1.683-.154 2.307l-1.23 1.23c-.622.624-1.614.692-2.31.153l-1.554-1.193c-.365.182-.745.339-1.136.469l-.258 1.949c-.123.885-.855 1.522-1.742 1.522z"/><path d="m18.375 21.5h-2.875v-1.5h2.875c.345 0 .625-.28.625-.625s-.28-.625-.625-.625h-.75c-1.172 0-2.125-.953-2.125-2.125s.953-2.125 2.125-2.125h2.875v1.5h-2.875c-.345 0-.625.28-.625.625s.28.625.625.625h.75c1.172 0 2.125.953 2.125 2.125s-.953 2.125-2.125 2.125z"/><path d="m17.25 20h1.5v3h-1.5z"/><path d="m17.25 13h1.5v3h-1.5z"/></svg>