<svg id="Capa_1" enable-background="new 0 0 512 512" height="512" viewBox="0 0 512 512" width="512" xmlns="http://www.w3.org/2000/svg"><g><path d="m496.412 289.493c-53.788-82.361-48.071-166.784-73.998-206.478s-103.196-108.131-285.767 11.122-136.135 248.889-107.605 292.537c133.518 204.402 562.645 48.682 467.37-97.181z" fill="#efefef"/><path d="m416.043 323.556v35.556c0 7.822-6.4 14.222-14.222 14.222h-291.556c-7.964 0-14.222-6.4-14.222-14.222v-35.556z" fill="#2fdf84"/><path d="m128.043 359.111v-35.556h-32v35.556c0 7.822 6.258 14.222 14.222 14.222h32c-7.965 0-14.222-6.4-14.222-14.222z" fill="#00b871"/><path d="m401.82 152.889h-49.778-192-49.778c-7.964 0-14.222 6.4-14.222 14.222v156.444h320v-156.444c.001-7.822-6.399-14.222-14.222-14.222z" fill="#f3f3f1"/><path d="m142.265 152.889h-32c-7.964 0-14.222 6.4-14.222 14.222v156.444h32v-156.444c0-7.822 6.257-14.222 14.222-14.222z" fill="#d5dbe1"/><path d="m301.98 416h-92.16c17.778-17.778 21.049-42.667 21.049-42.667h50.062c.001 0 3.414 25.031 21.049 42.667z" fill="#f3f3f1"/><path d="m230.869 373.333s-3.271 24.889-21.049 42.667h32c17.778-17.778 21.049-42.667 21.049-42.667z" fill="#d5dbe1"/><circle cx="256" cy="163.556" fill="#2fdf84" r="39.111"/><path d="m248.889 163.556c0-15.886 9.515-29.497 23.111-35.612-4.892-2.204-10.283-3.499-16-3.499-21.604 0-39.111 17.508-39.111 39.111s17.508 39.111 39.111 39.111c5.717 0 11.108-1.294 16-3.499-13.596-6.116-23.111-19.726-23.111-35.612z" fill="#00b871"/><g fill="#a4afc1"><path d="m441.648 436.228 10.055-10.055 20.11 20.11-10.055 10.055z"/><path d="m381.33 446.384 20.11-20.11 10.055 10.055-20.11 20.11z"/><path d="m439.148 388.576 20.11-20.11 10.055 10.055-20.11 20.11z"/><path d="m440.889 106.667c-11.762 0-21.333-9.572-21.333-21.333s9.571-21.334 21.333-21.334 21.333 9.572 21.333 21.333-9.571 21.334-21.333 21.334zm0-28.445c-3.911 0-7.111 3.186-7.111 7.111s3.2 7.111 7.111 7.111 7.111-3.185 7.111-7.111c0-3.925-3.2-7.111-7.111-7.111z"/></g><path d="m401.778 384h-291.556c-13.724 0-24.889-11.164-24.889-24.889v-192c0-13.724 11.164-24.889 24.889-24.889h49.778v21.333h-49.778c-1.963 0-3.556 1.593-3.556 3.556v192c0 1.963 1.593 3.556 3.556 3.556h291.556c1.963 0 3.556-1.593 3.556-3.556v-192c0-1.963-1.593-3.556-3.556-3.556h-49.778v-21.333h49.778c13.724 0 24.889 11.164 24.889 24.889v192c0 13.725-11.165 24.889-24.889 24.889z"/><path d="m96 312.889h320v21.333h-320z"/><path d="m302.222 426.667h-92.444c-4.324 0-8.206-2.603-9.856-6.585-1.636-3.982-.74-8.576 2.318-11.62 14.876-14.862 18.005-36.338 18.034-36.551l21.134 2.83c-.1.825-2.091 15.147-10.567 30.606h50.091c-8.405-15.36-10.482-29.696-10.61-30.535l21.12-2.958c.043.213 3.172 20.75 16.868 35.413 2.773 1.906 4.58 5.106 4.58 8.732-.001 5.889-4.78 10.668-10.668 10.668z"/><path d="m256 213.333c-27.449 0-49.778-22.329-49.778-49.778s22.329-49.778 49.778-49.778 49.778 22.329 49.778 49.778-22.329 49.778-49.778 49.778zm0-78.222c-15.687 0-28.444 12.757-28.444 28.444s12.757 28.445 28.444 28.445 28.444-12.757 28.444-28.444-12.757-28.445-28.444-28.445z"/><path d="m245.333 202.667h21.333v28.444h-21.333z"/><path d="m245.333 96h21.333v28.444h-21.333z"/><path d="m284.502 134.842 24.621-14.215 10.667 18.475-24.621 14.215z"/><path d="m192.195 188.031 24.621-14.215 10.667 18.475-24.621 14.215z"/><path d="m192.17 139.01 10.667-18.475 24.621 14.215-10.667 18.475z"/><path d="m284.441 192.168 10.667-18.475 24.621 14.215-10.667 18.475z"/></g></svg>