<svg enable-background="new 0 0 36 36" height="512" viewBox="0 0 36 36" width="512" xmlns="http://www.w3.org/2000/svg"><path d="m26.982 3.914c-6.916.129-11.732-3.365-15.065-3.302s-10.296 2.109-10.009 17.44 9.744 17.404 13.41 17.336c17.164-.321 23.911-31.703 11.664-31.474z" fill="#efefef"/><g fill="#2fdf84"><path d="m12.25 15.25h-4.5c-.552 0-1-.448-1-1v-1.5c0-.552.448-1 1-1h4.5c.552 0 1 .448 1 1v1.5c0 .552-.448 1-1 1z"/><path d="m28.25 15.25h-4.5c-.552 0-1-.448-1-1v-1.5c0-.552.448-1 1-1h4.5c.552 0 1 .448 1 1v1.5c0 .552-.448 1-1 1z"/><path d="m20.25 21.75h-4.5c-.552 0-1 .448-1 1v1.5c0 .552.448 1 1 1h4.5c.552 0 1-.448 1-1v-1.5c0-.552-.448-1-1-1z"/></g><path d="m9 14.25v-1.5c0-.552.448-1 1-1h-2.25c-.552 0-1 .448-1 1v1.5c0 .552.448 1 1 1h2.25c-.552 0-1-.448-1-1z" fill="#00b871"/><path d="m25 14.25v-1.5c0-.552.448-1 1-1h-2.25c-.552 0-1 .448-1 1v1.5c0 .552.448 1 1 1h2.25c-.552 0-1-.448-1-1z" fill="#00b871"/><path d="m17 24.25v-1.5c0-.552.448-1 1-1h-2.25c-.552 0-1 .448-1 1v1.5c0 .552.448 1 1 1h2.25c-.552 0-1-.448-1-1z" fill="#00b871"/><g fill="#a4afc1"><path d="m6.125 29.375h2v1h-2z"/><path d="m11.875 29.375h2v1h-2z"/><path d="m9.375 31.875h1v2h-1z"/><path d="m30 6.467c-.827 0-1.5-.673-1.5-1.5s.673-1.5 1.5-1.5 1.5.673 1.5 1.5-.673 1.5-1.5 1.5zm0-2c-.275 0-.5.225-.5.5s.225.5.5.5.5-.225.5-.5-.225-.5-.5-.5z"/></g><path d="m12.25 16h-4.5c-.965 0-1.75-.785-1.75-1.75v-1.5c0-.965.785-1.75 1.75-1.75h4.5c.965 0 1.75.785 1.75 1.75v1.5c0 .965-.785 1.75-1.75 1.75zm-4.5-3.5c-.138 0-.25.112-.25.25v1.5c0 .138.112.25.25.25h4.5c.138 0 .25-.112.25-.25v-1.5c0-.138-.112-.25-.25-.25z"/><path d="m9.25 15.25h1.5v14h-1.5z"/><path d="m9.25 6.75h1.5v5h-1.5z"/><path d="m28.25 16h-4.5c-.965 0-1.75-.785-1.75-1.75v-1.5c0-.965.785-1.75 1.75-1.75h4.5c.965 0 1.75.785 1.75 1.75v1.5c0 .965-.785 1.75-1.75 1.75zm-4.5-3.5c-.138 0-.25.112-.25.25v1.5c0 .138.112.25.25.25h4.5c.138 0 .25-.112.25-.25v-1.5c0-.138-.112-.25-.25-.25z"/><path d="m25.25 15.25h1.5v14h-1.5z"/><path d="m25.25 6.75h1.5v5h-1.5z"/><path d="m20.25 26h-4.5c-.965 0-1.75-.785-1.75-1.75v-1.5c0-.965.785-1.75 1.75-1.75h4.5c.965 0 1.75.785 1.75 1.75v1.5c0 .965-.785 1.75-1.75 1.75zm-4.5-3.5c-.138 0-.25.112-.25.25v1.5c0 .138.112.25.25.25h4.5c.138 0 .25-.112.25-.25v-1.5c0-.138-.112-.25-.25-.25z"/><path d="m17.25 6.75h1.5v15h-1.5z"/><path d="m17.25 25.25h1.5v4h-1.5z"/></svg>