<svg enable-background="new 0 0 36 36" height="512" viewBox="0 0 36 36" width="512" xmlns="http://www.w3.org/2000/svg"><path d="m8.377 4.167c6.917 0 11.667-3.583 15-3.583s10.333 1.916 10.333 17.249-9.417 17.583-13.083 17.583c-17.167.001-24.5-31.249-12.25-31.249z" fill="#efefef"/><path d="m28.25 10.75h-3.5-13.5-3.5c-.552 0-1 .448-1 1v12.5c0 .552.448 1 1 1h20.5c.552 0 1-.448 1-1v-12.5c0-.552-.448-1-1-1z" fill="#f3f3f1"/><path d="m9 24.25v-12.5c0-.552.448-1 1-1h-2.25c-.552 0-1 .448-1 1v12.5c0 .552.448 1 1 1h2.25c-.552 0-1-.448-1-1z" fill="#d5dbe1"/><circle cx="18" cy="11.5" fill="#2fdf84" r="2.75"/><path d="m17.5 11.5c0-1.117.669-2.074 1.625-2.504-.344-.155-.723-.246-1.125-.246-1.519 0-2.75 1.231-2.75 2.75s1.231 2.75 2.75 2.75c.402 0 .781-.091 1.125-.246-.956-.43-1.625-1.387-1.625-2.504z" fill="#00b871"/><g fill="#a4afc1"><path d="m4.379 3.717h1v2h-1z" transform="matrix(.707 -.707 .707 .707 -1.907 4.83)"/><path d="m8.121 4.217h2v1h-2z" transform="matrix(.707 -.707 .707 .707 -.664 7.831)"/><path d="m4.056 8.283h2v1h-2z" transform="matrix(.707 -.707 .707 .707 -4.73 6.147)"/><path d="m31 29.5c-.827 0-1.5-.673-1.5-1.5s.673-1.5 1.5-1.5 1.5.673 1.5 1.5-.673 1.5-1.5 1.5zm0-2c-.275 0-.5.224-.5.5s.225.5.5.5.5-.224.5-.5-.225-.5-.5-.5z"/></g><path d="m28.25 26h-20.5c-.965 0-1.75-.785-1.75-1.75v-12.5c0-.965.785-1.75 1.75-1.75h3.5v1.5h-3.5c-.138 0-.25.112-.25.25v12.5c0 .138.112.25.25.25h20.5c.138 0 .25-.112.25-.25v-12.5c0-.138-.112-.25-.25-.25h-3.5v-1.5h3.5c.965 0 1.75.785 1.75 1.75v12.5c0 .965-.785 1.75-1.75 1.75z"/><path d="m13.75 28.5h8.5v1.5h-8.5z"/><path d="m17.25 25.25h1.5v4h-1.5z"/><path d="m18 15c-1.93 0-3.5-1.57-3.5-3.5s1.57-3.5 3.5-3.5 3.5 1.57 3.5 3.5-1.57 3.5-3.5 3.5zm0-5.5c-1.103 0-2 .897-2 2s.897 2 2 2 2-.897 2-2-.897-2-2-2z"/><path d="m17.25 14.25h1.5v2h-1.5z"/><path d="m17.25 6.75h1.5v2h-1.5z"/><path d="m20.246 8.88h1.999v1.5h-1.999z" transform="matrix(.866 -.5 .5 .866 -1.969 11.914)"/><path d="m13.756 12.62h1.999v1.5h-1.999z" transform="matrix(.866 -.5 .5 .866 -4.709 9.17)"/><path d="m14.005 8.631h1.5v1.999h-1.5z" transform="matrix(.5 -.866 .866 .5 -.965 17.587)"/><path d="m20.495 12.371h1.5v1.999h-1.5z" transform="matrix(.5 -.866 .866 .5 -.961 25.075)"/></svg>