<svg id="_x31__x2C_5" enable-background="new 0 0 36 36" height="512" viewBox="0 0 36 36" width="512" xmlns="http://www.w3.org/2000/svg"><g><path d="m4.167 27.623c0-6.917-3.583-11.667-3.583-15s1.916-10.333 17.249-10.333 17.583 9.417 17.583 13.083c.001 17.167-31.249 24.5-31.249 12.25z" fill="#efefef"/></g><g><path d="m2.5 24c-.827 0-1.5-.673-1.5-1.5s.673-1.5 1.5-1.5 1.5.673 1.5 1.5-.673 1.5-1.5 1.5zm0-2c-.276 0-.5.224-.5.5s.224.5.5.5.5-.224.5-.5-.224-.5-.5-.5z" fill="#a4afc1"/></g><g><path d="m27.25 28.25h-18.5c-1.105 0-2-.895-2-2v-15h22.5v15c0 1.105-.895 2-2 2z" fill="#f3f3f1"/></g><g><path d="m29.25 11.25h-22.5v-1.5c0-1.105.895-2 2-2h18.5c1.105 0 2 .895 2 2z" fill="#2fdf84"/></g><g><circle cx="16" cy="17" fill="#2fdf84" r="1.25"/></g><g><circle cx="21" cy="23" fill="#2fdf84" r="1.25"/></g><g><path d="m17 17c0-.19.049-.365.125-.526-.2-.425-.625-.724-1.125-.724-.69 0-1.25.56-1.25 1.25s.56 1.25 1.25 1.25c.5 0 .925-.299 1.125-.724-.076-.161-.125-.336-.125-.526z" fill="#00b871"/></g><g><path d="m22 23c0-.19.049-.365.125-.526-.2-.425-.625-.724-1.125-.724-.69 0-1.25.56-1.25 1.25s.56 1.25 1.25 1.25c.5 0 .925-.299 1.125-.724-.076-.161-.125-.336-.125-.526z" fill="#00b871"/></g><g><path d="m9.25 26.25v-15h-2.5v15c0 1.105.895 2 2 2h2.5c-1.105 0-2-.895-2-2z" fill="#d5dbe1"/></g><g><path d="m11 7.75h-2.25c-1.105 0-2 .895-2 2v1.5h2.25v-1.5c0-1.105.895-2 2-2z" fill="#00b871"/></g><g><path d="m16 19c-1.103 0-2-.897-2-2s.897-2 2-2 2 .897 2 2-.897 2-2 2zm0-2.5c-.276 0-.5.224-.5.5s.224.5.5.5.5-.224.5-.5-.224-.5-.5-.5z"/></g><g><path d="m16.75 16.25h10.25v1.5h-10.25z"/></g><g><path d="m9 16.25h6.25v1.5h-6.25z"/></g><g><path d="m21 25c-1.103 0-2-.897-2-2s.897-2 2-2 2 .897 2 2-.897 2-2 2zm0-2.5c-.276 0-.5.224-.5.5s.224.5.5.5.5-.224.5-.5-.224-.5-.5-.5z"/></g><g><path d="m21.75 22.25h5.25v1.5h-5.25z"/></g><g><path d="m9 22.25h11.25v1.5h-11.25z"/></g><g><path d="m27.25 29h-18.5c-1.517 0-2.75-1.233-2.75-2.75v-16.5c0-1.517 1.233-2.75 2.75-2.75h18.5c1.517 0 2.75 1.233 2.75 2.75v16.5c0 1.517-1.233 2.75-2.75 2.75zm-18.5-20.5c-.689 0-1.25.561-1.25 1.25v16.5c0 .689.561 1.25 1.25 1.25h18.5c.689 0 1.25-.561 1.25-1.25v-16.5c0-.689-.561-1.25-1.25-1.25z"/></g><g><path d="m6.75 10.5h22.5v1.5h-22.5z"/></g><g><path d="m2 27.5h32v1.5h-32z"/></g></svg>