<svg enable-background="new 0 0 36 36" height="512" viewBox="0 0 36 36" width="512" xmlns="http://www.w3.org/2000/svg"><path d="m34.904 20.355c-3.782-5.791-3.38-11.727-5.203-14.518s-7.256-7.603-20.093.782-9.572 17.5-7.566 20.569c9.388 14.372 39.561 3.423 32.862-6.833z" fill="#efefef"/><path d="m27.25 8.75h-11.25l-2-2h-5.25c-1.105 0-2 .895-2 2v12.5c0 1.105.895 2 2 2h2.5 13.5 2.5c1.105 0 2-.895 2-2v-10.5c0-1.105-.895-2-2-2z" fill="#f3f3f1"/><path d="m9 21.25v-12.5c0-1.105.895-2 2-2h-2.25c-1.105 0-2 .895-2 2v12.5c0 1.105.895 2 2 2h2.25c-1.105 0-2-.895-2-2z" fill="#d5dbe1"/><circle cx="18" cy="23.5" fill="#2fdf84" r="2.75"/><path d="m17.5 23.5c0-1.117.669-2.074 1.625-2.504-.344-.155-.723-.246-1.125-.246-1.519 0-2.75 1.231-2.75 2.75s1.231 2.75 2.75 2.75c.402 0 .781-.091 1.125-.246-.956-.43-1.625-1.387-1.625-2.504z" fill="#00b871"/><g fill="#a4afc1"><path d="m4.306 26.217h1v2h-1z" transform="matrix(.707 -.707 .707 .707 -17.835 11.366)"/><path d="m8.371 30.283h1v2h-1z" transform="matrix(.707 -.707 .707 .707 -19.519 15.431)"/><path d="m3.629 30.783h2v1h-2z" transform="matrix(.707 -.707 .707 .707 -20.765 12.436)"/><path d="m7.694 26.717h2v1h-2z" transform="matrix(.707 -.707 .707 .707 -16.699 14.12)"/><path d="m30 5.467c-.827 0-1.5-.673-1.5-1.5s.673-1.5 1.5-1.5 1.5.673 1.5 1.5-.673 1.5-1.5 1.5zm0-2c-.275 0-.5.224-.5.5s.225.5.5.5.5-.224.5-.5-.225-.5-.5-.5z"/></g><path d="m27.25 24h-2.5v-1.5h2.5c.689 0 1.25-.561 1.25-1.25v-10.5c0-.689-.561-1.25-1.25-1.25h-11.25c-.199 0-.39-.079-.53-.22l-1.78-1.78h-4.94c-.689 0-1.25.561-1.25 1.25v12.5c0 .689.561 1.25 1.25 1.25h2.5v1.5h-2.5c-1.517 0-2.75-1.233-2.75-2.75v-12.5c0-1.517 1.233-2.75 2.75-2.75h5.25c.199 0 .39.079.53.22l1.781 1.78h10.939c1.517 0 2.75 1.233 2.75 2.75v10.5c0 1.517-1.233 2.75-2.75 2.75z"/><path d="m18 27c-1.93 0-3.5-1.57-3.5-3.5s1.57-3.5 3.5-3.5 3.5 1.57 3.5 3.5-1.57 3.5-3.5 3.5zm0-5.5c-1.103 0-2 .897-2 2s.897 2 2 2 2-.897 2-2-.897-2-2-2z"/><path d="m17.25 26.25h1.5v2h-1.5z"/><path d="m17.25 18.75h1.5v2h-1.5z"/><path d="m20.246 20.88h1.999v1.5h-1.999z" transform="matrix(.866 -.5 .5 .866 -7.969 13.523)"/><path d="m13.756 24.62h1.999v1.5h-1.999z" transform="matrix(.866 -.5 .5 .866 -10.709 10.778)"/><path d="m14.005 20.631h1.5v1.999h-1.5z" transform="matrix(.5 -.866 .866 .5 -11.355 23.583)"/><path d="m20.495 24.371h1.5v1.999h-1.5z" transform="matrix(.5 -.866 .866 .5 -11.351 31.071)"/></svg>