<svg enable-background="new 0 0 36 36" height="512" viewBox="0 0 36 36" width="512" xmlns="http://www.w3.org/2000/svg"><path d="m8.114 5.564c-1.805 6.677-6.504 10.327-7.374 13.545s-.847 10.475 13.955 14.477 19.432-4.501 20.388-8.041c4.481-16.572-23.772-31.807-26.969-19.981z" fill="#efefef"/><path d="m20.207 22.174 1.832 1.429c.191.149.243.416.122.625l-1.035 1.793c-.121.209-.377.298-.601.208l-2.172-.872c-.573.514-1.262.922-2.009 1.165l-.329 2.31c-.034.239-.239.417-.48.417h-2.07c-.242 0-.446-.178-.48-.417l-.329-2.31c-.757-.243-1.436-.65-2.019-1.165l-2.162.871c-.224.09-.481.002-.602-.208l-1.035-1.794c-.121-.209-.069-.475.121-.624l1.833-1.439c-.077-.377-.116-.765-.116-1.163s.039-.786.116-1.165v-.01l-1.832-1.429c-.191-.149-.243-.416-.122-.625l1.035-1.793c.121-.209.377-.298.601-.208l2.172.872c.573-.514 1.262-.922 2.009-1.165l.329-2.31c.034-.239.239-.417.48-.417h2.07c.242 0 .446.178.48.417l.329 2.31c.757.243 1.436.65 2.019 1.165l2.162-.871c.224-.09.481-.002.602.208l1.035 1.794c.121.209.069.475-.121.624l-1.833 1.439c.078.379.116.767.116 1.165s-.039.786-.116 1.165z" fill="#f3f3f1"/><g fill="#d5dbe1"><path d="m12.897 16.642c.573-.514 1.262-.922 2.009-1.165l.329-2.31c.03-.208.191-.362.39-.4-.03-.006-.059-.016-.09-.016h-2.07c-.242 0-.446.178-.48.417l-.329 2.31c-.431.14-.839.34-1.22.578z"/><path d="m9.089 24.228c-.121-.209-.069-.475.121-.624l1.833-1.439c-.078-.379-.116-.767-.116-1.165s.039-.786.116-1.165v-.01l-1.832-1.429c-.191-.149-.243-.416-.122-.625l.822-1.424-1.436-.577c-.224-.09-.48-.001-.601.208l-1.035 1.793c-.121.21-.069.476.122.625l1.832 1.429v.01c-.078.379-.117.767-.117 1.165s.039.786.116 1.165l-1.832 1.438c-.19.149-.241.415-.121.624l1.035 1.794c.121.209.378.298.602.208l1.434-.578z"/><path d="m15.235 28.833-.329-2.31c-.757-.243-1.436-.65-2.019-1.165l-1.456.587c.381.238.788.438 1.224.578l.329 2.31c.034.239.239.417.48.417h2.07c.032 0 .06-.011.09-.016-.199-.039-.36-.193-.389-.401z"/></g><circle cx="24.5" cy="11" fill="#2fdf84" r="2.25"/><circle cx="14.5" cy="21" fill="#2fdf84" r="2.25"/><g fill="#a4afc1"><path d="m26.555 25.483h1v2h-1z" transform="matrix(.707 -.707 .707 .707 -10.802 26.894)"/><path d="m30.621 29.549h1v2h-1z" transform="matrix(.707 -.707 .707 .707 -12.486 30.954)"/><path d="m25.878 30.049h2v1h-2z" transform="matrix(.707 -.707 .707 .707 -13.729 27.954)"/><path d="m29.945 25.983h2v1h-2z" transform="matrix(.707 -.707 .707 .707 -9.663 29.638)"/><path d="m31 7.217c-.827 0-1.5-.673-1.5-1.5s.673-1.5 1.5-1.5 1.5.673 1.5 1.5-.673 1.5-1.5 1.5zm0-2c-.276 0-.5.224-.5.5s.224.5.5.5.5-.224.5-.5-.224-.5-.5-.5z"/></g><path d="m24.5 14c-1.654 0-3-1.346-3-3s1.346-3 3-3 3 1.346 3 3-1.346 3-3 3zm0-4.5c-.827 0-1.5.673-1.5 1.5s.673 1.5 1.5 1.5 1.5-.673 1.5-1.5-.673-1.5-1.5-1.5z"/><path d="m23.75 13.25h1.5v2h-1.5z"/><path d="m23.75 6.75h1.5v2h-1.5z"/><path d="m26.316 8.63h1.998v1.5h-1.998z" transform="matrix(.866 -.5 .5 .866 -1.027 14.932)"/><path d="m20.686 11.87h1.998v1.5h-1.998z" transform="matrix(.866 -.5 .5 .866 -3.405 12.549)"/><path d="m20.935 8.381h1.5v1.998h-1.5z" transform="matrix(.5 -.866 .866 .5 2.712 23.46)"/><path d="m26.565 11.621h1.5v1.998h-1.5z" transform="matrix(.5 -.866 .866 .5 2.719 29.953)"/><path d="m14.5 24c-1.654 0-3-1.346-3-3s1.346-3 3-3 3 1.346 3 3-1.346 3-3 3zm0-4.5c-.827 0-1.5.673-1.5 1.5s.673 1.5 1.5 1.5 1.5-.673 1.5-1.5-.673-1.5-1.5-1.5z"/><path d="m15.535 30h-2.069c-.611 0-1.137-.456-1.223-1.061l-.266-1.867c-.519-.212-1.012-.498-1.472-.852l-1.749.705c-.568.228-1.227 0-1.532-.528l-1.035-1.795c-.305-.529-.173-1.212.308-1.589l1.484-1.165c-.037-.279-.055-.563-.055-.848 0-.288.019-.574.055-.856l-1.481-1.156c-.483-.377-.616-1.061-.311-1.591l1.035-1.793c.304-.529.964-.754 1.53-.529l1.757.706c.45-.347.946-.635 1.465-.85l.266-1.868c.087-.607.612-1.063 1.223-1.063h2.069c.611 0 1.137.456 1.223 1.061l.266 1.867c.52.212 1.012.498 1.473.852l1.748-.705c.567-.228 1.227-.001 1.532.528l1.035 1.795c.305.529.173 1.212-.308 1.589l-1.484 1.165c.036.279.054.563.054.849 0 .288-.019.574-.055.856l1.481 1.156c.483.377.616 1.061.311 1.591l-1.035 1.793c-.304.529-.961.754-1.53.529l-1.757-.706c-.45.348-.946.635-1.465.85l-.266 1.869c-.086.605-.611 1.061-1.222 1.061zm-1.84-1.5h1.61l.296-2.083c.041-.283.239-.519.511-.607.631-.205 1.233-.554 1.739-1.009.212-.191.516-.246.781-.138l1.959.786.805-1.395-1.65-1.288c-.182-.142-.289-.36-.289-.591v-.01c0-.051.005-.101.015-.151.067-.328.102-.669.102-1.014s-.034-.686-.102-1.014c-.057-.279.048-.565.272-.741l1.653-1.297-.805-1.396-1.949.786c-.264.106-.565.053-.777-.134-.531-.47-1.12-.81-1.751-1.012-.273-.088-.473-.324-.514-.608l-.296-2.084h-1.61l-.296 2.083c-.041.283-.239.519-.511.607-.632.205-1.233.554-1.739 1.009-.212.191-.517.246-.781.138l-1.959-.786-.805 1.395 1.65 1.288c.182.142.289.36.289.591 0 .051-.005.111-.015.161-.068.328-.102.669-.102 1.014s.034.686.102 1.014c.057.279-.048.565-.272.741l-1.653 1.297.805 1.396 1.949-.786c.262-.106.563-.056.777.134.532.47 1.121.811 1.751 1.012.273.088.473.324.514.608z"/></svg>