<svg id="LINE" enable-background="new 0 0 36 36" height="512" viewBox="0 0 36 36" width="512" xmlns="http://www.w3.org/2000/svg"><path d="m4.167 27.623c0-6.917-3.583-11.667-3.583-15s1.916-10.333 17.249-10.333 17.583 9.417 17.583 13.083c.001 17.167-31.249 24.5-31.249 12.25z" fill="#efefef"/><path d="m23.251 29.745h2v1h-2z" fill="#a4afc1" transform="matrix(.707 -.707 .707 .707 -14.283 26.007)"/><path d="m27.317 25.679h2v1h-2z" fill="#a4afc1" transform="matrix(.707 -.707 .707 .707 -10.217 27.691)"/><path d="m27.817 29.421h1v2h-1z" fill="#a4afc1" transform="matrix(.707 -.707 .707 .707 -13.218 28.948)"/><path d="m4.255 7.25c-.827 0-1.5-.673-1.5-1.5s.673-1.5 1.5-1.5 1.5.673 1.5 1.5-.673 1.5-1.5 1.5zm0-2c-.275 0-.5.224-.5.5s.225.5.5.5.5-.224.5-.5-.225-.5-.5-.5z" fill="#a4afc1"/><path d="m28.761 16.533h-1.585c-.098-.636-.264-1.252-.489-1.849l1.37-.792c.235-.137.313-.43.176-.665l-.978-1.702c-.137-.235-.43-.313-.665-.176l-1.38.791c-.401-.499-.851-.949-1.35-1.35l.792-1.379c.137-.235.059-.528-.176-.665l-1.702-.978c-.235-.137-.528-.059-.665.176l-.792 1.37c-.597-.225-1.213-.391-1.849-.489v-1.586c0-.274-.215-.489-.489-.489h-1.957c-.274 0-.489.215-.489.489v1.585c-.636.098-1.252.264-1.849.489l-.792-1.37c-.137-.235-.43-.313-.665-.176l-1.702.978c-.235.137-.313.43-.176.665l.792 1.379c-.499.401-.949.851-1.35 1.35l-1.379-.792c-.235-.137-.528-.059-.665.176l-.978 1.702c-.137.235-.059.528.176.665l1.37.792c-.225.597-.391 1.213-.489 1.849h-1.587c-.274 0-.489.215-.489.489v1.957c0 .274.215.489.489.489h1.585c.098.636.264 1.252.489 1.849l-1.37.792c-.235.137-.313.43-.176.665l.978 1.702c.137.235.43.313.665.176l1.379-.792c.401.499.851.949 1.35 1.35l-.792 1.379c-.137.235-.059.528.176.665l1.702.978c.235.137.528.059.665-.176l.792-1.37c.597.225 1.213.391 1.849.489v1.585c0 .274.215.489.489.489h1.957c.274 0 .489-.215.489-.489v-1.585c.636-.098 1.252-.264 1.849-.489l.792 1.37c.137.235.43.313.665.176l1.702-.978c.235-.137.313-.43.176-.665l-.79-1.377c.499-.401.949-.851 1.35-1.35l1.379.792c.235.137.528.059.665-.176l.978-1.702c.137-.235.059-.528-.176-.665l-1.37-.792c.225-.597.391-1.213.489-1.849h1.585c.274 0 .489-.215.489-.489v-1.957c.001-.274-.214-.489-.488-.489z" fill="#2fdf84"/><path d="m19.75 15.25h-2.125c-.759 0-1.375.616-1.375 1.375 0 .759.616 1.375 1.375 1.375h.75c.759 0 1.375.616 1.375 1.375 0 .759-.616 1.375-1.375 1.375h-2.125z" fill="#2fdf84"/><path d="m18 20.75v1.5z" fill="#2fdf84"/><path d="m18 13.75v1.5z" fill="#2fdf84"/><g fill="#00b871"><path d="m26.524 11.386c.242.238.472.488.686.755l.3-.172-.255-.444c-.137-.235-.43-.313-.665-.176z"/><path d="m16.684 9.313c.597-.225 1.213-.391 1.849-.489v-1.585c0-.266.205-.473.467-.485-.008 0-.014-.004-.022-.004h-1.957c-.274 0-.489.215-.489.489v1.585c-.04.006-.078.018-.118.025z"/><path d="m9.767 22.774c-.137-.235-.059-.528.176-.665l1.37-.792c-.225-.597-.391-1.213-.489-1.849h-1.585c-.274 0-.489-.215-.489-.489v-1.957c0-.274.215-.489.489-.489h1.585c.098-.636.264-1.252.489-1.849l-1.37-.792c-.235-.137-.313-.43-.176-.665l.723-1.258-1.08-.62c-.235-.137-.528-.059-.665.176l-.978 1.702c-.137.235-.059.528.176.665l1.37.792c-.225.597-.391 1.213-.489 1.849h-1.585c-.274 0-.489.215-.489.489v1.957c0 .274.215.489.489.489h1.585c.098.636.264 1.252.489 1.849l-1.37.792c-.235.137-.313.43-.176.665l.978 1.702c.137.235.43.313.665.176l1.08-.62z"/><path d="m23.316 9.313.536-.926-1.078-.62c-.235-.137-.528-.059-.665.176l-.524.905c.594.1 1.172.254 1.731.465z"/><path d="m12.14 10.79c-.233.187-.452.387-.664.595l1.314.755c.401-.499.851-.949 1.35-1.35l-.792-1.379c-.137-.235-.059-.528.176-.665l.624-.359-.257-.444c-.137-.235-.43-.313-.665-.176l-1.702.978c-.235.137-.313.43-.176.665z"/><path d="m13.524 27.254c-.235-.137-.313-.43-.176-.665l.792-1.379c-.499-.401-.949-.851-1.35-1.35l-1.314.755c.211.208.431.408.664.595l-.792 1.379c-.137.235-.059.528.176.665l1.702.978c.235.137.528.059.665-.176l.257-.444z"/><path d="m27.21 23.86c-.214.266-.444.516-.686.755l.066.038c.235.137.528.059.665-.176l.255-.444z"/><path d="m23.316 26.687c-.559.211-1.138.365-1.731.464l.524.905c.137.235.43.313.665.176l1.078-.62z"/><path d="m18.533 28.761v-1.585c-.636-.098-1.252-.264-1.849-.489l-.269.464c.04.007.078.019.118.025v1.585c0 .274.215.489.489.489h1.957c.008 0 .014-.004.022-.004-.264-.012-.468-.219-.468-.485z"/></g><path d="m18.979 30h-1.957c-.684 0-1.239-.556-1.239-1.239v-.963c-.254-.057-.507-.124-.758-.201l-.483.836c-.349.593-1.106.79-1.693.448l-1.697-.975c-.594-.347-.793-1.105-.451-1.693l.482-.838c-.192-.177-.378-.362-.555-.554l-.842.484c-.586.339-1.344.14-1.688-.449l-.98-1.706c-.341-.585-.141-1.344.448-1.687l.839-.485c-.077-.252-.145-.505-.201-.759h-.965c-.683-.002-1.239-.558-1.239-1.241v-1.956c0-.683.556-1.239 1.239-1.239h.964c.057-.254.124-.507.201-.759l-.837-.483c-.591-.345-.791-1.103-.448-1.692l.312-.542 1.301.747-.184.32 1.142.66c.317.184.455.571.325.915-.211.558-.362 1.129-.449 1.698-.056.366-.371.636-.741.636h-1.325v1.435h1.324c.37 0 .686.27.741.636.088.569.238 1.14.449 1.698.13.343-.008.73-.325.915l-1.142.66.716 1.246 1.152-.663c.32-.184.727-.107.958.18.365.454.781.87 1.236 1.236.288.231.364.638.181.958l-.663 1.153 1.247.716.659-1.141c.186-.318.573-.455.914-.326.559.21 1.13.362 1.698.45.366.057.636.371.636.741v1.323h1.436v-1.324c0-.37.27-.685.636-.741.568-.088 1.14-.239 1.698-.45.343-.128.729.008.914.326l.659 1.141 1.247-.716-.663-1.153c-.184-.32-.107-.727.181-.958.455-.366.871-.782 1.236-1.236.23-.288.638-.365.958-.18l1.152.663.716-1.246-1.142-.66c-.317-.184-.455-.571-.325-.915.211-.558.361-1.129.449-1.698.056-.366.371-.636.741-.636h1.326v-1.435h-1.324c-.37 0-.686-.27-.741-.636-.087-.568-.238-1.14-.449-1.698-.13-.343.008-.73.325-.915l1.142-.66-.716-1.246-1.152.663c-.32.183-.728.107-.958-.18-.365-.454-.781-.87-1.236-1.236-.288-.231-.364-.638-.181-.958l.663-1.153-1.247-.716-.659 1.141c-.185.318-.571.455-.914.326-.559-.21-1.13-.362-1.698-.45-.366-.057-.636-.371-.636-.741v-1.323h-1.436v1.324c0 .37-.27.685-.636.741-.568.088-1.14.239-1.698.45-.341.129-.729-.008-.914-.326l-.659-1.141-1.247.716.663 1.153c.184.32.107.727-.181.958-.455.366-.871.782-1.236 1.236-.231.288-.639.363-.958.18l-1.152-.663-.146.253-1.301-.748.278-.483c.345-.592 1.1-.795 1.692-.451l.839.482c.177-.192.362-.377.555-.555l-.484-.842c-.34-.584-.141-1.342.447-1.687l1.709-.981c.581-.339 1.34-.141 1.686.447l.485.84c.251-.077.504-.145.758-.201v-.963c-.001-.683.555-1.239 1.238-1.239h1.957c.684 0 1.239.556 1.239 1.239v.963c.254.057.507.124.758.201l.483-.836c.349-.592 1.106-.79 1.693-.448l1.697.975c.594.347.793 1.105.45 1.693l-.481.838c.192.178.378.363.555.555l.842-.484c.584-.34 1.344-.14 1.688.449l.98 1.706c.341.585.141 1.344-.448 1.687l-.839.485c.077.252.145.505.201.759h.964c.684 0 1.239.556 1.239 1.239v1.956c0 .683-.556 1.239-1.239 1.239h-.964c-.057.254-.124.507-.201.759l.837.483c.591.345.791 1.103.448 1.692l-.977 1.699c-.346.591-1.101.793-1.692.451l-.839-.482c-.177.192-.362.377-.555.554l.484.842c.34.584.141 1.343-.447 1.687l-1.709.981c-.58.342-1.34.142-1.686-.447l-.485-.84c-.251.077-.504.145-.758.201v.963c.002.685-.554 1.241-1.237 1.241zm3.419-2.417c-.001.001-.003.001-.004.002zm-8.801-.003.003.002c-.001 0-.002-.001-.003-.002zm10.406-.616c0 .001.001.001.001.002zm-12.004-.004-.001.002s.001-.001.001-.002zm-2.963-2.958s-.001.001-.002.001zm17.925-.001.002.001c-.001-.001-.002-.001-.002-.001zm.621-1.601c0 .001-.001.002-.001.002zm-19.166-.004.001.002s-.001-.001-.001-.002zm19.167-8.795s.001.001.001.002zm-19.164-.004-.001.003c0-.001.001-.002.001-.003zm.618-1.599c.001 0 .002 0 .002.001zm17.929-.002-.002.001s.001 0 .002-.001zm-2.964-2.959c0 .001-.001.002-.001.003zm-12.007-.004.002.003c-.001-.001-.001-.002-.002-.003zm10.405-.615c.001 0 .002.001.003.002zm-8.795-.003-.004.002c.002-.001.003-.001.004-.002z"/><path d="m18.375 21.5h-2.125v-1.5h2.125c.345 0 .625-.28.625-.625s-.28-.625-.625-.625h-.75c-1.172 0-2.125-.953-2.125-2.125s.953-2.125 2.125-2.125h2.125v1.5h-2.125c-.345 0-.625.28-.625.625s.28.625.625.625h.75c1.172 0 2.125.953 2.125 2.125s-.953 2.125-2.125 2.125z"/><path d="m17.25 20h1.5v3h-1.5z"/><path d="m17.25 13h1.5v3h-1.5z"/></svg>