<svg enable-background="new 0 0 36 36" height="512" viewBox="0 0 36 36" width="512" xmlns="http://www.w3.org/2000/svg"><path d="m34.904 20.355c-3.782-5.791-3.38-11.727-5.203-14.518s-7.256-7.603-20.093.782-9.572 17.5-7.566 20.569c9.388 14.372 39.561 3.423 32.862-6.833z" fill="#efefef"/><path d="m27.253 13.753v12.5h-18.5v-12.5c0-.56.44-1 1-1h16.5c.55 0 1 .44 1 1z" fill="#f3f3f1"/><path d="m12.003 12.753h-2.25c-.56 0-1 .44-1 1v12.5h2.25v-12.5c0-.56.44-1 1-1z" fill="#d5dbe1"/><g fill="#a4afc1"><path d="m26.555 4.717h1v2h-1z" transform="matrix(.707 -.707 .707 .707 3.882 20.806)"/><path d="m30.621 8.783h1v2h-1z" transform="matrix(.707 -.707 .707 .707 2.198 24.872)"/><path d="m25.878 9.283h2v1h-2z" transform="matrix(.707 -.707 .707 .707 .955 21.871)"/><path d="m29.944 5.217h2v1h-2z" transform="matrix(.707 -.707 .707 .707 5.021 23.556)"/><path d="m5.579 12.25c-.827 0-1.5-.673-1.5-1.5s.673-1.5 1.5-1.5 1.5.673 1.5 1.5-.673 1.5-1.5 1.5zm0-2c-.276 0-.5.224-.5.5s.224.5.5.5.5-.224.5-.5-.225-.5-.5-.5z"/></g><circle cx="18" cy="13.5" fill="#2fdf84" r="2.75"/><path d="m17.5 13.5c0-1.117.669-2.074 1.625-2.504-.344-.155-.723-.246-1.125-.246-1.519 0-2.75 1.231-2.75 2.75s1.231 2.75 2.75 2.75c.402 0 .781-.091 1.125-.246-.956-.43-1.625-1.387-1.625-2.504z" fill="#00b871"/><path d="m18 17c-1.93 0-3.5-1.57-3.5-3.5s1.57-3.5 3.5-3.5 3.5 1.57 3.5 3.5-1.57 3.5-3.5 3.5zm0-5.5c-1.103 0-2 .897-2 2s.897 2 2 2 2-.897 2-2-.897-2-2-2z"/><path d="m17.25 16.25h1.5v2h-1.5z"/><path d="m17.25 8.75h1.5v2h-1.5z"/><path d="m20.246 10.88h1.998v1.5h-1.998z" transform="matrix(.866 -.5 .5 .866 -2.968 12.196)"/><path d="m13.756 14.62h1.998v1.5h-1.998z" transform="matrix(.866 -.5 .5 .866 -5.712 9.45)"/><path d="m14.005 10.631h1.5v1.998h-1.5z" transform="matrix(.5 -.866 .866 .5 -2.698 18.584)"/><path d="m20.495 14.371h1.5v1.998h-1.5z" transform="matrix(.5 -.866 .866 .5 -2.694 26.071)"/><path d="m28 26.25h-1.5v-12.5c0-.138-.112-.25-.25-.25h-2.5v-1.5h2.5c.965 0 1.75.785 1.75 1.75z"/><path d="m9.5 26.25h-1.5v-12.5c0-.965.785-1.75 1.75-1.75h2.5v1.5h-2.5c-.138 0-.25.112-.25.25z"/><path d="m6.75 25.5h22.5v1.5h-22.5z"/></svg>