<svg id="_x31__x2C_5" height="512" viewBox="0 0 36 36" width="512" xmlns="http://www.w3.org/2000/svg"><path d="m8.377 4.167c6.917 0 11.667-3.583 15-3.583s10.333 1.916 10.333 17.249-9.417 17.583-13.083 17.583c-17.167.001-24.5-31.249-12.25-31.249z" fill="#efefef"/><g fill="#a4afc1"><path d="m8.54 4.305h2v1h-2z" transform="matrix(.707 -.707 .707 .707 -.604 8.153)"/><path d="m4.475 8.371h2v1h-2z" transform="matrix(.707 -.707 .707 .707 -4.67 6.47)"/><path d="m4.975 3.629h1v2h-1z" transform="matrix(.707 -.707 .707 .707 -1.67 5.226)"/></g><circle cx="18" cy="18" fill="#f3f3f1" r="2.25"/><path d="m23.89 18.91c.05-.29.07-.6.07-.91s-.02-.62-.07-.91l1.15-1.01c.22-.2.28-.52.12-.78l-1.12-1.85c-.16-.26-.48-.37-.78-.29l-1.49.45c-.49-.38-1.05-.7-1.66-.91l-.34-1.46c-.07-.28-.33-.49-.64-.49h-2.26c-.31 0-.57.21-.64.49l-.34 1.46c-.61.21-1.17.53-1.66.91l-1.49-.45c-.3-.08-.62.03-.78.29l-1.12 1.85c-.16.26-.1.58.12.78l1.15 1.01c-.05.29-.07.6-.07.91s.02.62.07.91l-1.15 1.01c-.22.2-.28.52-.12.78l1.12 1.85c.16.26.48.37.78.29l1.49-.45c.49.38 1.05.7 1.66.91l.34 1.46c.07.28.33.49.64.49h2.26c.31 0 .57-.21.64-.49l.34-1.46c.61-.21 1.17-.53 1.66-.91l1.49.45c.3.08.62-.03.78-.29l1.12-1.85c.16-.26.1-.58-.12-.78zm-5.89 1.34c-1.24 0-2.25-1.01-2.25-2.25s1.01-2.25 2.25-2.25 2.25 1.01 2.25 2.25-1.01 2.25-2.25 2.25z" fill="#2fdf84"/><path d="m18 18c0 .828.456 1.546 1.125 1.937.669-.391 1.125-1.108 1.125-1.937s-.456-1.546-1.125-1.937c-.669.391-1.125 1.109-1.125 1.937z" fill="none"/><path d="m10.84 20.7 1.12 1.85c.16.26.48.37.78.29l1.391-.42-1.041-1.72c-.16-.26-.1-.58.12-.78l1.15-1.01c-.05-.29-.07-.6-.07-.91s.02-.62.07-.91l-1.15-1.01c-.22-.2-.28-.52-.12-.78l1.041-1.72-1.391-.42c-.3-.08-.62.03-.78.29l-1.12 1.85c-.16.26-.1.58.12.78l1.15 1.01c-.05.29-.07.6-.07.91s.02.62.07.91l-1.15 1.01c-.22.2-.28.52-.12.78z" fill="#00b871"/><path d="m18 20.25c.411 0 .793-.119 1.125-.313-.669-.391-1.125-1.109-1.125-1.937s.456-1.546 1.125-1.937c-.332-.194-.714-.313-1.125-.313-1.24 0-2.25 1.01-2.25 2.25s1.01 2.25 2.25 2.25z" fill="#d5dbe1"/><path d="m18 21c-1.654 0-3-1.346-3-3s1.346-3 3-3 3 1.346 3 3-1.346 3-3 3zm0-4.5c-.827 0-1.5.673-1.5 1.5s.673 1.5 1.5 1.5 1.5-.673 1.5-1.5-.673-1.5-1.5-1.5z"/><path d="m19.127 26h-2.254c-.661 0-1.226-.44-1.373-1.071l-.254-1.072c-.404-.173-.792-.388-1.16-.644l-1.132.34c-.637.192-1.31-.066-1.638-.621l-1.12-1.845c-.342-.578-.229-1.286.267-1.73l.853-.746c-.02-.206-.029-.41-.029-.612s.01-.406.029-.612l-.847-.74c-.502-.449-.614-1.157-.278-1.727l1.132-1.862c.322-.547 1-.799 1.629-.614l1.135.341c.368-.255.756-.471 1.16-.644l.255-1.074c.145-.627.71-1.067 1.371-1.067h2.254c.661 0 1.226.44 1.373 1.071l.254 1.072c.404.173.792.388 1.16.644l1.132-.34c.642-.19 1.31.066 1.638.621l1.12 1.845c.342.578.229 1.286-.267 1.73l-.853.746c.02.206.029.41.029.612s-.01.406-.029.612l.847.74c.002.001.004.003.006.005.496.444.608 1.152.272 1.722l-1.132 1.862c-.322.547-.998.802-1.629.614l-1.135-.341c-.368.255-.756.471-1.16.644l-.255 1.074c-.145.627-.71 1.067-1.371 1.067zm-.088-1.414c0 .001 0 .001 0 0zm-2.099-.086h2.119l.325-1.371c.059-.249.239-.45.48-.535.514-.181.999-.449 1.442-.796.191-.15.443-.199.679-.128l1.445.434 1.029-1.694-1.064-.931c-.193-.169-.287-.427-.247-.682.043-.269.064-.537.064-.797s-.021-.528-.064-.797c-.04-.255.054-.512.247-.682l1.064-.931-1.029-1.694-1.445.434c-.235.072-.487.022-.679-.128-.443-.348-.929-.616-1.442-.796-.241-.085-.422-.286-.48-.535l-.324-1.371h-2.12l-.325 1.371c-.059.249-.239.45-.48.535-.514.181-.999.449-1.442.796-.191.15-.444.2-.679.128l-1.445-.434-1.029 1.694 1.064.931c.193.169.287.427.247.682-.043.269-.064.537-.064.797s.021.528.064.797c.04.255-.054.512-.247.682l-1.064.931 1.029 1.694 1.445-.434c.234-.07.487-.022.679.128.443.348.929.616 1.442.796.241.085.422.286.48.535zm6.453-2.333c0 .001-.001.002-.002.003zm-10.79-.007.001.002s-.001-.001-.001-.002zm10.793-8.323c0 .001.001.001.001.002zm-10.787-.008-.002.003s.001-.002.002-.003z"/><path d="m18 30c-6.617 0-12-5.383-12-12s5.383-12 12-12 12 5.383 12 12-5.383 12-12 12zm0-22.5c-5.79 0-10.5 4.71-10.5 10.5s4.71 10.5 10.5 10.5 10.5-4.71 10.5-10.5-4.71-10.5-10.5-10.5z"/></svg>