<svg id="_x31__x2C_5" height="512" viewBox="0 0 36 36" width="512" xmlns="http://www.w3.org/2000/svg"><path d="m13.411 34.999c6.298-2.859 12.105-1.559 15.14-2.936 3.035-1.378 8.617-6.016 2.28-19.978s-15.841-12.12-19.18-10.605c-15.632 7.095-9.395 38.582 1.76 33.519z" fill="#efefef"/><path d="m16.851 6.974c-.827 0-1.5-.673-1.5-1.5s.673-1.5 1.5-1.5 1.5.673 1.5 1.5-.673 1.5-1.5 1.5zm0-2c-.275 0-.5.224-.5.5s.225.5.5.5.5-.224.5-.5-.225-.5-.5-.5z" fill="#a4afc1"/><path d="m10.859 22.471h-.01c-.215-.049-.44-.068-.675-.068-1.888 0-3.424 1.536-3.424 3.424s1.536 3.424 3.424 3.424 3.424-1.536 3.424-3.424c0-.293-.039-.587-.117-.861l11.671-11.436c.215.049.44.068.675.068 1.888 0 3.424-1.536 3.424-3.424s-1.537-3.424-3.425-3.424-3.424 1.536-3.424 3.424c0 .333.049.655.147.968l-11.69 11.329h-.01z" fill="#f3f3f1"/><path d="m6.8 8.111.877 2.264 2.698-2.698-2.264-.877c-.81-.27-1.581.501-1.311 1.311z" fill="#2fdf84"/><path d="m21.132 17.662.38.19 6.98 6.98c1.011 1.011 1.011 2.649 0 3.66-1.011 1.011-2.649 1.011-3.66 0l-6.98-6.98-.21-.42z" fill="#2fdf84"/><path d="m20.102 21.512-.21-.42 2.451-2.409-.831-.831-.38-.19-3.49 3.43.21.42 6.98 6.98c.8.8 1.991.956 2.955.489-.253-.123-.495-.279-.705-.489z" fill="#00b871"/><path d="m7.677 10.375 1.622-1.622-.249-.642c-.11-.33-.042-.649.126-.898l-1.065-.413c-.81-.27-1.581.501-1.311 1.311z" fill="#00b871"/><path d="m9 25.826c0-1.888 1.536-3.424 3.424-3.424.235 0 .46.02.675.068h.01l11.69-11.328c-.098-.313-.147-.636-.147-.969 0-1.492.965-2.75 2.299-3.219-.354-.124-.729-.205-1.125-.205-1.888 0-3.424 1.536-3.424 3.424 0 .333.049.655.147.969l-11.69 11.328h-.01c-.215-.049-.44-.068-.675-.068-1.888 0-3.424 1.536-3.424 3.424s1.536 3.424 3.424 3.424c.396 0 .771-.081 1.125-.205-1.334-.468-2.299-1.727-2.299-3.219z" fill="#d5dbe1"/><path d="m10.174 30c-2.302 0-4.174-1.873-4.174-4.174s1.872-4.174 4.174-4.174c.15 0 .293.007.43.021l11.115-10.77c-.044-.239-.066-.483-.066-.729-.001-2.301 1.871-4.174 4.173-4.174s4.174 1.873 4.174 4.174-1.872 4.174-4.174 4.174c-.146 0-.285-.006-.419-.02l-11.106 10.883c.031.201.047.406.047.615 0 2.301-1.872 4.174-4.174 4.174zm0-6.848c-1.475 0-2.674 1.2-2.674 2.674s1.199 2.674 2.674 2.674 2.674-1.2 2.674-2.674c0-.226-.03-.452-.089-.655-.075-.264 0-.549.196-.741l11.671-11.436c.183-.179.446-.25.691-.196.147.034.313.05.509.05 1.475 0 2.674-1.2 2.674-2.674s-1.199-2.674-2.674-2.674-2.674 1.2-2.674 2.674c0 .255.038.506.112.746.084.27.01.565-.194.762l-11.69 11.327c-.076.074-.166.13-.265.166-.078.029-.163.045-.252.045-.001 0-.001 0-.001 0-.001 0-.001 0-.002 0 0 0-.001 0-.002 0h-.01c-.001 0-.002 0-.003 0-.001 0-.002 0-.002 0s0 0-.001 0c-.06 0-.117-.008-.174-.021-.143-.032-.305-.047-.494-.047z"/><path d="m26.662 29.998c-.854 0-1.71-.325-2.36-.976l-6.98-6.98c-.058-.057-.104-.123-.141-.195l-.21-.42 1.342-.67.155.311 6.895 6.894c.717.716 1.883.716 2.6 0 .347-.347.538-.809.538-1.3s-.191-.953-.538-1.3l-6.895-6.894-.271-.135.67-1.342.38.19c.072.036.139.083.195.141l6.98 6.98c1.302 1.301 1.302 3.419 0 4.721-.65.65-1.505.975-2.36.975z"/><path d="m12.18 7.556h1.5v10.749h-1.5z" transform="matrix(.707 -.707 .707 .707 -5.356 12.931)"/><path d="m7.677 11.125c-.052 0-.104-.005-.155-.016-.248-.052-.452-.227-.544-.463l-.877-2.264c-.005-.011-.009-.023-.013-.034-.215-.647-.049-1.347.433-1.828.481-.481 1.179-.646 1.827-.432l2.298.889c.236.091.411.296.463.544.053.248-.023.506-.203.685l-2.698 2.698c-.143.143-.334.221-.531.221zm-.169-3.264.452 1.17 1.07-1.07-1.19-.462c-.11-.038-.212.034-.259.082-.046.045-.114.141-.073.28z"/></svg>