<svg enable-background="new 0 0 36 36" height="512" viewBox="0 0 36 36" width="512" xmlns="http://www.w3.org/2000/svg"><path d="m8.377 4.167c6.917 0 11.667-3.583 15-3.583s10.333 1.916 10.333 17.249-9.417 17.583-13.083 17.583c-17.167.001-24.5-31.249-12.25-31.249z" fill="#efefef"/><circle cx="15.5" cy="15.5" fill="#f3f3f1" r="8.75"/><path d="m9 15.5c0-4.45 3.325-8.116 7.625-8.67-.369-.047-.743-.08-1.125-.08-4.833 0-8.75 3.918-8.75 8.75 0 4.833 3.917 8.75 8.75 8.75.382 0 .756-.033 1.125-.08-4.3-.554-7.625-4.22-7.625-8.67z" fill="#d5dbe1"/><circle cx="15.5" cy="15.5" fill="#2fdf84" r="2.75"/><path d="m15 15.5c0-1.117.669-2.074 1.625-2.504-.344-.155-.723-.246-1.125-.246-1.519 0-2.75 1.231-2.75 2.75s1.231 2.75 2.75 2.75c.402 0 .781-.091 1.125-.246-.956-.43-1.625-1.387-1.625-2.504z" fill="#00b871"/><g fill="#a4afc1"><path d="m23 6.5c-.827 0-1.5-.673-1.5-1.5s.673-1.5 1.5-1.5 1.5.673 1.5 1.5-.673 1.5-1.5 1.5zm0-2c-.275 0-.5.224-.5.5s.225.5.5.5.5-.224.5-.5-.225-.5-.5-.5z"/><path d="m4.556 25.967h1v2h-1z" transform="matrix(.707 -.707 .707 .707 -17.585 11.469)"/><path d="m8.621 30.033h1v2h-1z" transform="matrix(.707 -.707 .707 .707 -19.269 15.534)"/><path d="m3.879 30.533h2v1h-2z" transform="matrix(.707 -.707 .707 .707 -20.515 12.539)"/><path d="m7.944 26.467h2v1h-2z" transform="matrix(.707 -.707 .707 .707 -16.449 14.223)"/></g><path d="m15.5 25c-5.238 0-9.5-4.262-9.5-9.5s4.262-9.5 9.5-9.5 9.5 4.262 9.5 9.5-4.262 9.5-9.5 9.5zm0-17.5c-4.411 0-8 3.589-8 8s3.589 8 8 8 8-3.589 8-8-3.589-8-8-8z"/><path d="m24.72 20.124h1.5v10.691h-1.5z" transform="matrix(.707 -.707 .707 .707 -10.55 25.469)"/><path d="m15.5 19c-1.93 0-3.5-1.57-3.5-3.5s1.57-3.5 3.5-3.5 3.5 1.57 3.5 3.5-1.57 3.5-3.5 3.5zm0-5.5c-1.103 0-2 .897-2 2s.897 2 2 2 2-.897 2-2-.897-2-2-2z"/><path d="m14.75 18.25h1.5v2h-1.5z"/><path d="m14.75 10.75h1.5v2h-1.5z"/><path d="m17.746 12.88h1.999v1.5h-1.999z" transform="matrix(.866 -.5 .5 .866 -4.304 11.2)"/><path d="m11.256 16.62h1.999v1.5h-1.999z" transform="matrix(.866 -.5 .5 .866 -7.044 8.456)"/><path d="m11.505 12.631h1.5v1.999h-1.5z" transform="matrix(.5 -.866 .866 .5 -5.678 17.421)"/><path d="m17.995 16.371h1.5v1.999h-1.5z" transform="matrix(.5 -.866 .866 .5 -5.673 24.909)"/></svg>