<svg id="_x31_px" enable-background="new 0 0 36 36" height="512" viewBox="0 0 36 36" width="512" xmlns="http://www.w3.org/2000/svg"><path d="m27.623 4.167c-6.917 0-11.667-3.583-15-3.583s-10.333 1.916-10.333 17.249 9.417 17.583 13.083 17.583c17.167.001 24.5-31.249 12.25-31.249z" fill="#efefef"/><g fill="#a4afc1"><path d="m28.467 1.967h1v2h-1z" transform="matrix(.707 -.707 .707 .707 6.383 21.348)"/><path d="m32.533 6.033h1v2h-1z" transform="matrix(.707 -.707 .707 .707 4.699 25.413)"/><path d="m31.856 2.467h2v1h-2z" transform="matrix(.707 -.707 .707 .707 7.525 24.102)"/></g><path d="m9.5 8.5h-2c-.55.01-1 .45-1 1v12c0 .55.45 1 1 1h9.5 9.5c.552 0 1-.448 1-1v-12c0-.55-.45-1-1-1h-2z" fill="#2fdf84"/><path d="m17 22.5c-2.04-1.78-4.16-2.43-6.37-2.18-.6.07-1.13-.38-1.13-.98v-11.75c0-.5.37-.93.87-1 2.29-.34 4.51.29 6.63 2.14 2.12-1.85 4.34-2.48 6.63-2.14.5.07.87.5.87 1v11.91 1s-5.042-.625-7.5 2z" fill="#f3f3f1"/><path d="m28.056 24.235c.041-.24.072-.483.072-.735s-.031-.495-.072-.735l1.241-.919c.203-.15.262-.434.137-.656l-.775-1.381c-.125-.222-.393-.311-.62-.206l-1.403.652c-.363-.313-.773-.563-1.227-.734l-.153-1.571c-.025-.256-.234-.45-.483-.45h-1.549c-.25 0-.458.195-.483.45l-.153 1.571c-.453.171-.863.421-1.227.734l-1.403-.652c-.227-.106-.496-.017-.62.206l-.775 1.381c-.125.222-.065.506.137.656l1.241.919c-.041.24-.072.483-.072.735s.031.495.072.735l-1.241.919c-.203.15-.262.434-.137.656l.775 1.381c.125.222.393.311.62.206l1.403-.652c.363.313.773.563 1.227.734l.153 1.571c.025.256.234.45.483.45h1.549c.25 0 .458-.195.483-.45l.153-1.571c.453-.171.863-.421 1.227-.734l1.403.652c.227.106.496.017.62-.206l.775-1.381c.125-.222.065-.506-.137-.656z" fill="#f3f3f1"/><circle cx="24" cy="23.5" fill="#2fdf84" r="2"/><path d="m20.565 25.809c-.125-.222-.065-.506.137-.656l1.241-.919c-.041-.24-.072-.483-.072-.735s.031-.495.072-.735l-1.241-.919c-.203-.15-.262-.434-.137-.656l.581-1.036-1.186-.551c-.227-.106-.496-.017-.62.206l-.775 1.381c-.125.222-.065.506.137.656l1.241.919c-.041.24-.072.483-.072.735s.031.495.072.735l-1.241.919c-.203.15-.262.434-.137.656l.775 1.381c.125.222.393.311.62.206l1.186-.551z" fill="#d5dbe1"/><path d="m24 23.5c0-.738.405-1.376 1-1.723-.295-.172-.634-.277-1-.277-1.105 0-2 .895-2 2s.895 2 2 2c.366 0 .705-.106 1-.277-.595-.347-1-.985-1-1.723z" fill="#00b871"/><path d="m8.5 21.5v-12c0-.55.45-.99 1-1h-2c-.55.01-1 .45-1 1v12c0 .55.45 1 1 1h2c-.55 0-1-.45-1-1z" fill="#00b871"/><path d="m12.75 20.312c-.04.004-.08.004-.12.008-.6.07-1.13-.38-1.13-.98v-11.75c0-.5.37-.93.87-1 .046-.007.091-.007.137-.013-.705-.093-1.417-.094-2.137.013-.5.07-.87.5-.87 1v11.75c0 .6.53 1.05 1.13.98.716-.081 1.422-.057 2.12.059z" fill="#d5dbe1"/><path d="m24 26c-1.379 0-2.5-1.122-2.5-2.5s1.121-2.5 2.5-2.5 2.5 1.122 2.5 2.5-1.121 2.5-2.5 2.5zm0-4c-.827 0-1.5.673-1.5 1.5s.673 1.5 1.5 1.5 1.5-.673 1.5-1.5-.673-1.5-1.5-1.5z"/><path d="m24.774 30h-1.549c-.51 0-.932-.388-.981-.903l-.123-1.273c-.291-.133-.568-.299-.829-.495l-1.121.521c-.471.217-1.014.038-1.267-.415l-.775-1.381c-.248-.442-.13-1.002.275-1.303l1-.74c-.019-.156-.033-.33-.033-.512s.015-.356.033-.512l-1-.74c-.405-.301-.523-.86-.274-1.303l.773-1.381c.255-.453.798-.631 1.267-.415l1.122.521c.261-.196.538-.362.829-.495l.123-1.274c.05-.512.472-.9.982-.9h1.549c.51 0 .932.388.981.903l.123 1.273c.291.134.568.299.829.495l1.121-.521c.472-.216 1.014-.038 1.267.415l.775 1.381c.248.442.13 1.002-.275 1.303l-1 .74c.019.156.033.33.033.512s-.015.356-.033.512l1 .74c.405.301.523.86.274 1.303l-.773 1.381c-.254.453-.799.632-1.267.415l-1.122-.521c-.261.196-.538.362-.829.495l-.123 1.274c-.05.512-.472.9-.982.9zm-3.411-3.755c.118 0 .234.042.327.122.326.282.688.499 1.075.644.179.067.304.23.322.42l.152 1.571 1.535-.002.138-1.57c.019-.19.144-.353.322-.42.387-.145.749-.362 1.075-.644.148-.129.358-.159.538-.075l1.403.652.747-1.378-1.239-.928c-.151-.112-.227-.3-.195-.486.037-.212.065-.427.065-.65s-.028-.438-.065-.65c-.031-.186.044-.374.195-.486l1.242-.92-.776-1.391-1.376.655c-.179.083-.39.053-.538-.076-.325-.282-.688-.498-1.075-.644-.179-.067-.304-.23-.322-.42l-.152-1.571-1.535.002-.138 1.57c-.019.19-.144.353-.322.42-.387.145-.749.362-1.075.644-.149.128-.359.158-.538.075l-1.403-.652-.747 1.378 1.239.928c.151.112.227.3.195.486-.037.212-.065.427-.065.65s.028.438.065.65c.031.186-.044.374-.195.486l-1.242.92.776 1.391 1.376-.655c.068-.031.14-.046.211-.046z"/><path d="m15.5 21.91c-.088 0-.177-.023-.258-.071-1.449-.872-2.938-1.205-4.556-1.022-.431.055-.867-.085-1.19-.372-.315-.281-.496-.684-.496-1.105v-11.75c0-.748.56-1.391 1.301-1.495 2.387-.353 4.64.311 6.699 1.982 2.058-1.671 4.316-2.333 6.703-1.981.737.103 1.297.746 1.297 1.494v6.91c0 .276-.224.5-.5.5s-.5-.224-.5-.5v-6.91c0-.252-.189-.47-.439-.505-2.254-.337-4.29.328-6.231 2.022-.189.164-.469.164-.658 0-1.941-1.694-3.975-2.353-6.228-2.022-.255.035-.444.252-.444.505v11.75c0 .138.057.265.16.357.11.098.263.142.411.126 1.82-.208 3.563.183 5.187 1.158.236.143.313.45.171.687-.094.156-.26.242-.429.242z"/><path d="m27.5 16c-.276 0-.5-.224-.5-.5v-6c0-.276-.225-.5-.5-.5h-2c-.276 0-.5-.224-.5-.5s.224-.5.5-.5h2c.827 0 1.5.673 1.5 1.5v6c0 .276-.224.5-.5.5z"/><path d="m15.5 23h-8c-.827 0-1.5-.673-1.5-1.5v-12c0-.812.669-1.485 1.491-1.5h2.009c.276 0 .5.224.5.5s-.224.5-.5.5h-2c-.271.005-.5.229-.5.5v12c0 .276.225.5.5.5h8c.276 0 .5.224.5.5s-.224.5-.5.5z"/><path d="m17 18c-.276 0-.5-.224-.5-.5v-9c0-.276.224-.5.5-.5s.5.224.5.5v9c0 .276-.224.5-.5.5z"/></svg>