<svg id="line" enable-background="new 0 0 36 36" height="512" viewBox="0 0 36 36" width="512" xmlns="http://www.w3.org/2000/svg"><g><path d="m4.167 27.623c0-6.917-3.583-11.667-3.583-15s1.916-10.333 17.249-10.333 17.583 9.417 17.583 13.083c.001 17.167-31.249 24.5-31.249 12.25z" fill="#efefef"/></g><g><g><path d="m28.625 7.25h1v2h-1z" fill="#a4afc1"/></g><g><path d="m30.875 10.25h2v1h-2z" fill="#a4afc1"/></g></g><g><path d="m21.25 24.32v-15.57c0-1.105-.895-2-2-2h-10.5c-1.105 0-2 .895-2 2v15.57c0 1.105.895 2 2 2h10.5c1.105 0 2-.895 2-2z" fill="#f3f3f1"/></g><g><path d="m29.039 25.084-1.298-.88c.043-.23.075-.463.075-.704s-.033-.474-.075-.704l1.298-.88c.212-.144.274-.415.143-.629l-.81-1.324c-.13-.213-.411-.298-.649-.197l-1.466.624c-.38-.3-.808-.54-1.282-.703l-.16-1.506c-.026-.245-.244-.431-.505-.431h-1.62c-.261 0-.479.187-.505.431l-.16 1.506c-.474.163-.903.403-1.282.703l-1.466-.625c-.238-.101-.518-.016-.649.197l-.81 1.324c-.13.213-.068.485.143.629l1.298.88c-.043.23-.075.463-.075.704s.033.474.075.704l-1.298.88c-.212.144-.274.415-.143.629l.81 1.324c.13.213.411.298.649.197l1.466-.624c.38.3.808.54 1.282.703l.16 1.505c.026.245.244.432.505.432h1.62c.261 0 .479-.187.505-.432l.16-1.505c.474-.163.903-.403 1.282-.703l1.466.624c.238.101.518.016.649-.197l.81-1.324c.13-.212.068-.484-.143-.628zm-5.539.166c-.966 0-1.75-.784-1.75-1.75s.784-1.75 1.75-1.75 1.75.784 1.75 1.75-.784 1.75-1.75 1.75z" fill="#2fdf84"/></g><g><path d="m9 24.32v-15.57c0-1.105.895-2 2-2h-2.25c-1.105 0-2 .895-2 2v15.57c0 1.105.895 2 2 2h2.25c-1.105 0-2-.895-2-2z" fill="#d5dbe1"/></g><g><path d="m20.068 25.713c-.13-.213-.068-.485.143-.629l1.298-.88c-.043-.23-.075-.463-.075-.704s.033-.474.075-.704l-1.298-.88c-.211-.144-.273-.416-.143-.629l.575-.939-1.366-.582c-.238-.101-.518-.016-.649.197l-.81 1.324c-.13.213-.068.485.143.629l1.298.88c-.043.23-.075.463-.075.704s.033.474.075.704l-1.298.88c-.212.144-.274.415-.143.629l.81 1.324c.13.213.411.298.649.197l1.366-.582z" fill="#00b871"/></g><g><path d="m23.5 26c-1.379 0-2.5-1.122-2.5-2.5s1.121-2.5 2.5-2.5 2.5 1.122 2.5 2.5-1.121 2.5-2.5 2.5zm0-3.5c-.552 0-1 .449-1 1s.448 1 1 1 1-.449 1-1-.448-1-1-1z"/></g><g><path d="m24.31 30h-1.62c-.646 0-1.184-.474-1.252-1.102l-.111-1.058c-.235-.107-.462-.233-.679-.375l-1.078.459c-.579.246-1.257.034-1.581-.494l-.811-1.326c-.339-.551-.181-1.273.362-1.641l.909-.617c-.01-.11-.017-.227-.017-.346s.007-.236.017-.346l-.909-.618c-.543-.367-.701-1.089-.361-1.642l.809-1.323c.326-.529 1.007-.742 1.583-.495l1.077.458c.217-.143.443-.268.679-.375l.111-1.057c.069-.628.607-1.102 1.252-1.102h1.619c.646 0 1.184.474 1.252 1.102l.111 1.058c.235.107.462.233.679.375l1.078-.459c.576-.249 1.256-.035 1.581.494l.811 1.325c.339.552.18 1.273-.362 1.641l-.909.617c.01.11.017.227.017.346s-.007.236-.017.346l.909.618c.543.367.701 1.089.361 1.642l-.809 1.323c-.325.53-1.004.743-1.583.495l-1.077-.458c-.217.143-.443.268-.679.375l-.111 1.057c-.068.629-.606 1.103-1.251 1.103zm-1.405-1.5h1.189l.134-1.266c.031-.289.227-.535.501-.63.384-.132.741-.329 1.062-.583.215-.171.507-.21.76-.102l1.29.549.558-.912-1.078-.732c-.246-.167-.37-.463-.316-.755.033-.186.063-.375.063-.569s-.029-.383-.063-.569c-.054-.292.07-.588.316-.755l1.078-.732-.558-.912-1.29.549c-.253.108-.543.069-.759-.102-.322-.255-.68-.451-1.063-.583-.274-.095-.47-.341-.501-.63l-.133-1.266h-1.189l-.134 1.266c-.031.289-.227.535-.501.63-.384.132-.741.329-1.062.583-.215.171-.507.21-.76.102l-1.29-.549-.558.912 1.078.732c.246.167.37.463.316.755-.033.186-.063.375-.063.569s.029.383.063.569c.054.292-.07.588-.316.755l-1.078.732.558.912 1.29-.549c.253-.108.545-.069.76.102.32.254.678.45 1.062.583.274.095.47.341.501.63zm-4.448-3.18c.001.001 0 0 0 0zm.002-3.643c-.001.001 0 .001 0 0z"/></g><g><path d="m15.25 27h-6.5c-1.517 0-2.75-1.233-2.75-2.75v-15.5c0-1.517 1.233-2.75 2.75-2.75h10.5c1.517 0 2.75 1.233 2.75 2.75v5.5h-1.5v-5.5c0-.689-.561-1.25-1.25-1.25h-10.5c-.689 0-1.25.561-1.25 1.25v15.5c0 .689.561 1.25 1.25 1.25h6.5z"/></g><g><path d="m10.28 18.78-1.06-1.06 2.5-2.5c.239-.24.608-.29.902-.121l1.273.728 2.846-2.627 1.018 1.103-3.25 3c-.241.222-.598.262-.881.1l-1.253-.716z"/></g><g><path d="m18 17h-1.5v-2.5h-2.5v-1.5h3.25c.414 0 .75.336.75.75z"/></g></svg>