<svg id="_x31__x2C_5" height="512" viewBox="0 0 36 36" width="512" xmlns="http://www.w3.org/2000/svg"><path d="m8.377 4.167c6.917 0 11.667-3.583 15-3.583s10.333 1.916 10.333 17.249-9.417 17.583-13.083 17.583c-17.167.001-24.5-31.249-12.25-31.249z" fill="#efefef"/><g fill="#a4afc1"><path d="m30.856 2.467h2v1h-2z" transform="matrix(.707 -.707 .707 .707 7.233 23.395)"/><path d="m31.533 6.033h1v2h-1z" transform="matrix(.707 -.707 .707 .707 4.412 24.716)"/><path d="m27.467 1.967h1v2h-1z" transform="matrix(.707 -.707 .707 .707 6.097 20.648)"/></g><path d="m23.427 22.496-1.123-1.124.743-4.305c.093-.768-.167-1.521-.713-2.067l-3.842-3.86-11.352 11.352 3.86 3.843c.547.546 1.299.807 2.068.713l4.305-.743 1.123 1.123c.298.299.698.463 1.126.463.427 0 .827-.164 1.126-.463l1.873-1.872.805-.805c.299-.298.463-.699.463-1.127.001-.43-.163-.831-.462-1.128z" fill="#f3f3f1"/><path d="m27.872 13.204c.091-.54.091-.869 0-1.408l1.185-.88c.193-.144.25-.415.131-.629l-.739-1.324c-.119-.213-.375-.298-.592-.197l-1.34.624c-.347-.3-.738-.54-1.171-.703l-.146-1.506c-.024-.245-.223-.431-.461-.431h-1.479c-.238 0-.438.187-.461.431l-.146 1.506c-.432.163-.824.403-1.17.703l-1.339-.625c-.217-.101-.473-.016-.592.197l-.739 1.324c-.119.213-.062.485.131.629l1.185.88c-.091.54-.091.869 0 1.408l-1.185.88c-.193.144-.25.415-.131.629l.739 1.324c.119.213.375.298.592.197l1.339-.624c.347.3.738.54 1.171.703l.146 1.506c.024.245.223.431.461.431h1.479c.238 0 .438-.187.461-.431l.146-1.506c.433-.163.824-.403 1.171-.703l1.339.624c.217.101.473.016.592-.197l.739-1.324c.119-.213.062-.485-.131-.629z" fill="#2fdf84"/><path d="m9.88 19.5-1.69-1.69c-.27-.27-.44-.65-.44-1.06s.17-.79.44-1.06l3.5-3.5c.27-.27.65-.44 1.06-.44s.79.17 1.06.44l1.69 1.69z" fill="#2fdf84"/><circle cx="24" cy="12.5" fill="#f3f3f1" r="1.75"/><path d="m13.25 26.334-3.86-3.843 10.224-10.224-1.122-1.128-11.352 11.353 3.86 3.842c.547.546 1.299.807 2.068.713l1.012-.175c-.304-.123-.589-.297-.83-.538z" fill="#d5dbe1"/><path d="m24.5 12.5c0-.536.246-1.009.625-1.33-.305-.258-.694-.42-1.125-.42-.966 0-1.75.784-1.75 1.75s.784 1.75 1.75 1.75c.431 0 .82-.162 1.125-.42-.379-.321-.625-.794-.625-1.33z" fill="#d5dbe1"/><path d="m21.062 14.713c-.119-.213-.062-.485.131-.629l1.185-.88c-.091-.54-.091-.869 0-1.408l-1.185-.88c-.193-.144-.25-.415-.131-.629l.556-.995c-.044.035-.093.062-.135.099l-1.339-.625c-.217-.101-.473-.016-.592.197l-.74 1.324c-.119.213-.062.485.131.629l1.185.88c-.091.54-.091.869 0 1.408l-1.185.88c-.193.144-.25.415-.131.629l.74 1.324c.119.213.375.298.592.197l1.339-.624c.042.037.092.064.135.099z" fill="#00b871"/><path d="m10.44 17.81c-.27-.27-.44-.65-.44-1.06s.17-.79.44-1.06l3.435-3.435-.065-.065c-.27-.27-.65-.44-1.06-.44s-.79.17-1.06.44l-3.5 3.5c-.27.27-.44.65-.44 1.06s.17.79.44 1.06l1.69 1.69 1.125-1.125z" fill="#00b871"/><path d="m6.875 18.638h1.5v3.975h-1.5z" transform="matrix(.707 -.707 .707 .707 -12.351 11.433)"/><path d="m4.036 17.759h14.909v1.5h-14.909z" transform="matrix(.707 -.707 .707 .707 -9.723 13.546)"/><path d="m9.35 20.03-1.69-1.69c-.419-.418-.66-.998-.66-1.59s.241-1.172.66-1.591l3.5-3.499c.837-.838 2.343-.838 3.181 0l1.689 1.689-1.06 1.061-1.69-1.689c-.28-.281-.78-.281-1.059 0l-3.5 3.5c-.141.139-.221.333-.221.529s.08.39.22.528l1.69 1.691z"/><path d="m19.75 29c-.471 0-.912-.181-1.24-.51l-1.237-1.236-4.465.543c-.849.102-1.674-.183-2.277-.785l-3.771-3.772 1.06-1.06 3.771 3.771c.274.273.652.402 1.035.357l4.828-.588c.227-.03.458.051.621.214l1.495 1.495c.064.064.295.063.36-.001l2.612-2.611 1.061 1.061-2.613 2.612c-.329.329-.77.51-1.24.51z"/><path d="m21.878 27.603-1.061-1.061 2.612-2.612c.032-.032.07-.089.07-.18s-.038-.147-.07-.179l-1.495-1.496c-.163-.163-.242-.392-.214-.621l.09-.74 1.489.182-.046.377 1.236 1.237c.329.327.51.769.51 1.24s-.181.913-.51 1.241z"/><path d="m12.129 18.25h5.742v1.5h-5.742z" transform="matrix(.707 -.707 .707 .707 -9.042 16.172)"/><path d="m14.129 20.25h5.742v1.5h-5.742z" transform="matrix(.707 -.707 .707 .707 -9.87 18.172)"/><path d="m23 24.879h1.5v5.742h-1.5z" transform="matrix(.707 -.707 .707 .707 -12.666 24.922)"/><path d="m24 15c-1.378 0-2.5-1.121-2.5-2.5s1.122-2.5 2.5-2.5 2.5 1.121 2.5 2.5-1.122 2.5-2.5 2.5zm0-3.5c-.551 0-1 .448-1 1s.449 1 1 1 1-.448 1-1-.449-1-1-1z"/><path d="m24.739 19h-1.479c-.628 0-1.147-.478-1.208-1.11l-.104-1.068c-.195-.099-.383-.212-.564-.339l-.923.432c-.581.269-1.251.049-1.564-.511l-.74-1.324c-.302-.54-.158-1.227.336-1.596l.833-.618c-.022-.25-.022-.48 0-.73l-.831-.618c-.496-.367-.641-1.054-.338-1.596l.739-1.324c.313-.559.985-.777 1.562-.512l.926.433c.181-.127.37-.24.564-.339l.104-1.069c.061-.633.581-1.111 1.209-1.111h1.479c.628 0 1.147.478 1.208 1.11l.104 1.068c.195.099.384.212.565.338l.923-.431c.581-.268 1.251-.049 1.564.511l.74 1.324c.303.542.158 1.229-.338 1.597l-.831.617c.022.25.022.48 0 .73l.831.616c.496.371.641 1.058.338 1.598l-.739 1.324c-.313.559-.985.777-1.562.512l-.926-.433c-.181.127-.37.24-.564.339l-.104 1.069c-.062.633-.582 1.111-1.21 1.111zm-1.217-1.5h.956l.122-1.26c.028-.284.214-.528.482-.63.338-.127.656-.318.944-.568.224-.194.54-.236.809-.112l1.089.509.498-.892-.997-.74c-.226-.169-.339-.449-.292-.728.077-.455.077-.703 0-1.158-.047-.278.065-.559.292-.727l.997-.741-.498-.892-1.089.509c-.269.123-.586.081-.809-.113-.286-.249-.604-.439-.943-.567-.268-.102-.454-.346-.482-.63l-.123-1.26h-.956l-.122 1.26c-.028.284-.214.528-.482.63-.338.127-.656.318-.944.568-.224.193-.542.235-.809.112l-1.089-.509-.498.892.997.741c.227.168.339.448.292.727-.077.455-.077.703 0 1.158.047.278-.066.559-.292.728l-.997.74.498.892 1.089-.509c.269-.124.585-.08.809.112.288.25.605.441.944.568.268.102.454.346.482.63z"/></svg>