<svg id="Line" height="512" viewBox="0 0 36 36" width="512" xmlns="http://www.w3.org/2000/svg"><path d="m27.417 3.914c-6.915.129-11.732-3.365-15.064-3.302s-10.296 2.109-10.009 17.44 9.744 17.404 13.41 17.336c17.163-.321 23.911-31.703 11.663-31.474z" fill="#efefef"/><path d="m32.731 5.505c-.827 0-1.5-.673-1.5-1.5s.673-1.5 1.5-1.5 1.5.673 1.5 1.5-.672 1.5-1.5 1.5zm0-2c-.276 0-.5.225-.5.5s.224.5.5.5.5-.225.5-.5-.224-.5-.5-.5z" fill="#a4afc1"/><path d="m13.25 24.25h-1.5c-1.105 0-2-.895-2-2v-10.5c0-1.105.895-2 2-2h10.5c1.105 0 2 .895 2 2v12.5z" fill="#f3f3f1"/><path d="m16.25 21.25h-2.5c-.552 0-1-.448-1-1v-6.5c0-.552.448-1 1-1h3.086c.265 0 .52.105.707.293l3.414 3.414c.188.188.293.442.293.707v3.086c0 .552-.448 1-1 1z" fill="#2fdf84"/><circle cx="25" cy="24.5" fill="#2fdf84" r="2.75"/><path d="m13.75 24.25h-2c-1.1 0-2-.9-2-2v-10.5c0-1.1.9-2 2-2h2c-1.1 0-2 .9-2 2v10.5c0 1.1.9 2 2 2z" fill="#d5dbe1"/><path d="m15.75 21.25h-2c-.55 0-1-.45-1-1v-6.5c0-.55.45-1 1-1h2c-.55 0-1 .45-1 1v6.5c0 .55.45 1 1 1z" fill="#00b871"/><path d="m25.88 27.11c-.28.09-.57.14-.88.14-1.52 0-2.75-1.23-2.75-2.75s1.23-2.75 2.75-2.75c.31 0 .6.05.88.14-1.09.36-1.88 1.39-1.88 2.61s.79 2.25 1.88 2.61z" fill="#00b871"/><path d="m25 28c-1.93 0-3.5-1.57-3.5-3.5s1.57-3.5 3.5-3.5 3.5 1.57 3.5 3.5-1.57 3.5-3.5 3.5zm0-5.5c-1.103 0-2 .897-2 2s.897 2 2 2 2-.897 2-2-.897-2-2-2z"/><path d="m24.25 27.25h1.5v2h-1.5z"/><path d="m24.25 19.75h1.5v2h-1.5z"/><path d="m27.255 21.88h2.121v1.499h-2.121z" transform="matrix(.882 -.472 .472 .882 -7.325 16.025)"/><path d="m20.625 25.62h2.121v1.499h-2.121z" transform="matrix(.882 -.472 .472 .882 -9.872 13.341)"/><path d="m20.935 21.57h1.499v2.121h-1.499z" transform="matrix(.472 -.882 .882 .472 -8.496 31.082)"/><path d="m27.565 25.31h1.499v2.121h-1.499z" transform="matrix(.472 -.882 .882 .472 -8.291 38.905)"/><path d="m18.25 25h-6.5c-1.517 0-2.75-1.233-2.75-2.75v-10.5c0-1.517 1.233-2.75 2.75-2.75h10.5c1.517 0 2.75 1.233 2.75 2.75v4.501h-1.5v-4.501c0-.689-.561-1.25-1.25-1.25h-10.5c-.689 0-1.25.561-1.25 1.25v10.5c0 .689.561 1.25 1.25 1.25h6.5z"/><path d="m17.25 22h-3.5c-.965 0-1.75-.785-1.75-1.75v-6.5c0-.965.785-1.75 1.75-1.75h3.086c.467 0 .907.182 1.237.513l3.414 3.414c.326.326.513.776.513 1.237v1.086h-1.5v-1.086c0-.065-.027-.13-.073-.177l-3.414-3.414c-.047-.047-.111-.073-.177-.073h-3.086c-.138 0-.25.112-.25.25v6.5c0 .138.112.25.25.25h3.5z"/><path d="m12 24.5h1.5v2.75h-1.5z"/><path d="m16.25 24.5h1.5v2.75h-1.5z"/><path d="m16.25 6.75h1.5v2.75h-1.5z"/><path d="m12 6.75h1.5v2.75h-1.5z"/><path d="m20.5 6.75h1.5v2.75h-1.5z"/><path d="m6.75 16.25h2.75v1.5h-2.75z"/><path d="m6.75 12h2.75v1.5h-2.75z"/><path d="m6.75 20.5h2.75v1.5h-2.75z"/><path d="m24.5 12h2.75v1.5h-2.75z"/></svg>