<svg enable-background="new 0 0 36 36" height="512" viewBox="0 0 36 36" width="512" xmlns="http://www.w3.org/2000/svg"><path d="m7.678 5.564c-1.805 6.677-6.504 10.327-7.374 13.545s-.847 10.475 13.955 14.477 19.432-4.501 20.388-8.041c4.481-16.572-23.772-31.807-26.969-19.981z" fill="#efefef"/><path d="m27.25 29.25h-18.5c-1.105 0-2-.895-2-2v-18.5c0-1.105.895-2 2-2h18.5c1.105 0 2 .895 2 2v18.5c0 1.105-.895 2-2 2z" fill="#f3f3f1"/><path d="m9 27.25v-18.5c0-1.105.895-2 2-2h-2.25c-1.105 0-2 .895-2 2v18.5c0 1.105.895 2 2 2h2.25c-1.105 0-2-.895-2-2z" fill="#d5dbe1"/><path d="m23.707 19.174 1.832 1.429c.191.149.243.416.122.625l-1.035 1.793c-.121.209-.377.298-.601.208l-2.172-.872c-.573.514-1.262.922-2.009 1.165l-.329 2.31c-.034.239-.239.417-.48.417h-2.07c-.242 0-.446-.178-.48-.417l-.329-2.31c-.757-.243-1.436-.65-2.019-1.165l-2.162.871c-.224.09-.481.002-.602-.208l-1.035-1.794c-.121-.209-.069-.475.121-.624l1.833-1.439c-.078-.379-.116-.767-.116-1.165s.039-.786.116-1.165v-.01l-1.832-1.429c-.191-.149-.243-.416-.122-.625l1.035-1.793c.121-.209.377-.298.601-.208l2.172.872c.573-.514 1.262-.922 2.009-1.165l.329-2.31c.034-.239.239-.417.48-.417h2.07c.242 0 .446.178.48.417l.329 2.31c.757.243 1.436.65 2.019 1.165l2.162-.871c.224-.09.481-.002.602.208l1.035 1.794c.121.209.069.475-.121.624l-1.833 1.439c.078.379.116.767.116 1.165s-.039.786-.116 1.165z" fill="#2fdf84"/><g fill="#00b871"><path d="m16.397 13.642c.573-.514 1.262-.922 2.009-1.165l.329-2.31c.03-.208.191-.362.39-.4-.03-.006-.059-.016-.09-.016h-2.07c-.242 0-.446.178-.48.417l-.329 2.31c-.431.14-.839.34-1.22.578z"/><path d="m24.113 13.642.727-.293-.214-.371c-.121-.209-.377-.298-.602-.208l-.706.284c.281.177.548.37.795.588z"/><path d="m12.589 21.228c-.121-.209-.069-.475.121-.624l1.833-1.439c-.078-.379-.116-.767-.116-1.165s.039-.786.116-1.165v-.01l-1.832-1.429c-.191-.149-.243-.416-.122-.625l.822-1.424-1.436-.577c-.224-.09-.48-.001-.601.208l-1.035 1.793c-.121.21-.069.476.122.625l1.832 1.429v.01c-.078.379-.116.767-.116 1.165s.039.786.116 1.165l-1.833 1.439c-.19.149-.241.415-.121.624l1.035 1.794c.121.209.378.298.602.208l1.434-.578z"/><path d="m18.735 25.833-.329-2.31c-.757-.243-1.436-.65-2.019-1.165l-1.456.587c.381.238.788.438 1.224.578l.329 2.31c.034.239.239.417.48.417h2.07c.032 0 .06-.011.09-.016-.199-.039-.36-.193-.389-.401z"/><path d="m24.103 22.358c-.242.218-.51.411-.789.586l.711.285c.224.09.48.001.601-.208l.213-.369z"/></g><circle cx="18" cy="18" fill="#f3f3f1" r="2.25"/><path d="m31.417 7.25c-.827 0-1.5-.673-1.5-1.5s.673-1.5 1.5-1.5 1.5.673 1.5 1.5-.673 1.5-1.5 1.5zm0-2c-.275 0-.5.224-.5.5s.225.5.5.5.5-.224.5-.5-.225-.5-.5-.5z" fill="#a4afc1"/><path d="m18 21c-1.654 0-3-1.346-3-3s1.346-3 3-3 3 1.346 3 3-1.346 3-3 3zm0-4.5c-.827 0-1.5.673-1.5 1.5s.673 1.5 1.5 1.5 1.5-.673 1.5-1.5-.673-1.5-1.5-1.5z"/><path d="m19.035 27h-2.07c-.61 0-1.137-.456-1.223-1.061l-.266-1.867c-.519-.212-1.011-.498-1.473-.852l-1.748.705c-.572.229-1.229.001-1.532-.53l-1.034-1.792c-.307-.529-.174-1.212.309-1.59l1.482-1.164c-.036-.278-.054-.562-.054-.849 0-.29.019-.576.055-.856l-1.481-1.156c-.482-.377-.615-1.062-.31-1.591l1.034-1.793c.306-.529.964-.756 1.529-.53l1.757.706c.451-.348.947-.635 1.466-.85l.266-1.868c.086-.606.612-1.062 1.223-1.062h2.07c.61 0 1.137.456 1.223 1.061l.266 1.866c.519.213 1.012.498 1.473.853l1.748-.705c.571-.229 1.229 0 1.532.53l1.034 1.792c.307.529.174 1.212-.309 1.59l-1.482 1.164c.036.278.054.562.054.849 0 .29-.019.576-.055.856l1.481 1.156c.482.377.615 1.062.31 1.591l-1.034 1.793c-.306.529-.964.755-1.529.53l-1.758-.706c-.45.348-.946.635-1.465.85l-.266 1.868c-.086.606-.612 1.062-1.223 1.062zm-1.841-1.5h1.611l.296-2.083c.04-.284.238-.52.511-.608.63-.205 1.232-.554 1.74-1.009.214-.191.519-.244.78-.138l1.958.786.805-1.396-1.649-1.287c-.183-.142-.289-.36-.289-.591v-.01c0-.051.005-.102.016-.152.066-.324.101-.664.101-1.013s-.034-.689-.101-1.013c-.058-.279.048-.566.271-.742l1.652-1.297-.805-1.396-1.948.785c-.264.104-.563.054-.776-.133-.533-.47-1.122-.811-1.752-1.013-.274-.088-.474-.324-.514-.609l-.295-2.081h-1.611l-.296 2.083c-.04.284-.238.52-.511.608-.631.205-1.232.554-1.74 1.009-.212.192-.518.246-.78.138l-1.958-.786-.805 1.396 1.649 1.287c.183.142.289.36.289.591 0 .051-.005.111-.016.162-.066.324-.101.664-.101 1.013s.034.689.101 1.013c.058.279-.048.566-.271.742l-1.652 1.297.805 1.396 1.948-.785c.262-.105.562-.055.776.133.533.471 1.123.812 1.752 1.013.274.088.474.324.514.609z"/><path d="m27.25 30h-18.5c-1.517 0-2.75-1.233-2.75-2.75v-18.5c0-1.517 1.233-2.75 2.75-2.75h18.5c1.517 0 2.75 1.233 2.75 2.75v18.5c0 1.517-1.233 2.75-2.75 2.75zm-18.5-22.5c-.689 0-1.25.561-1.25 1.25v18.5c0 .689.561 1.25 1.25 1.25h18.5c.689 0 1.25-.561 1.25-1.25v-18.5c0-.689-.561-1.25-1.25-1.25z"/></svg>