<svg id="line" enable-background="new 0 0 36 36" height="512" viewBox="0 0 36 36" width="512" xmlns="http://www.w3.org/2000/svg"><g><path d="m8.377 4.167c6.917 0 11.667-3.583 15-3.583s10.333 1.916 10.333 17.249-9.417 17.583-13.083 17.583c-17.167.001-24.5-31.249-12.25-31.249z" fill="#efefef"/></g><g><path d="m2.879 6.621h2v1h-2z" fill="#a4afc1" transform="matrix(.707 -.707 .707 .707 -3.899 4.829)"/></g><g><path d="m3.379 1.879h1v2h-1z" fill="#a4afc1" transform="matrix(.707 -.707 .707 .707 -.9 3.585)"/></g><g><path d="m7.121 2.379h2v1h-2z" fill="#a4afc1" transform="matrix(.707 -.707 .707 .707 .343 6.586)"/></g><g><path d="m7.621 6.121h1v2h-1z" fill="#a4afc1" transform="matrix(.707 -.707 .707 .707 -2.657 7.826)"/></g><g><circle cx="10.5" cy="22.5" fill="#f3f3f1" r="1.75"/></g><g><path d="m14.25 30v-1.25c0-1.105-.895-2-2-2h-3.5c-1.105 0-2 .895-2 2v1.25z" fill="#f3f3f1"/></g><g><circle cx="25.5" cy="22.5" fill="#f3f3f1" r="1.75"/></g><g><path d="m29.25 30v-1.25c0-1.105-.895-2-2-2h-3.5c-1.105 0-2 .895-2 2v1.25z" fill="#f3f3f1"/></g><g><path d="m22.61 14.327c.046-.27.082-.543.082-.827 0-.283-.035-.557-.082-.827l1.411-1.033c.23-.169.298-.488.156-.738l-.88-1.554c-.142-.25-.447-.35-.705-.231l-1.595.733c-.413-.352-.879-.634-1.394-.826l-.173-1.767c-.029-.288-.266-.507-.55-.507h-1.76c-.284 0-.521.219-.549.507l-.173 1.767c-.515.192-.981.474-1.394.826l-1.594-.733c-.258-.119-.563-.019-.705.231l-.88 1.554c-.142.25-.074.569.156.738l1.411 1.033c-.046.27-.082.543-.082.827 0 .283.035.557.082.827l-1.412 1.033c-.23.169-.298.488-.156.738l.88 1.554c.142.25.447.35.705.231l1.594-.733c.413.352.879.634 1.394.826l.173 1.767c.028.288.266.507.549.507h1.761c.284 0 .521-.219.549-.507l.173-1.767c.515-.192.981-.474 1.394-.826l1.594.733c.258.119.563.019.705-.231l.88-1.554c.142-.25.074-.569-.156-.738zm-4.61.923c-.966 0-1.75-.784-1.75-1.75s.784-1.75 1.75-1.75 1.75.784 1.75 1.75-.784 1.75-1.75 1.75z" fill="#2fdf84"/></g><g><path d="m11 22.5c0-.536.246-1.009.625-1.33-.305-.258-.694-.42-1.125-.42-.966 0-1.75.784-1.75 1.75s.784 1.75 1.75 1.75c.431 0 .82-.162 1.125-.42-.379-.321-.625-.794-.625-1.33z" fill="#d5dbe1"/></g><g><path d="m11 26.75h-2.25c-1.105 0-2 .895-2 2v1.25h2.25v-1.25c0-1.105.895-2 2-2z" fill="#d5dbe1"/></g><g><path d="m26 22.5c0-.536.246-1.009.625-1.33-.305-.258-.694-.42-1.125-.42-.966 0-1.75.784-1.75 1.75s.784 1.75 1.75 1.75c.431 0 .82-.162 1.125-.42-.379-.321-.625-.794-.625-1.33z" fill="#d5dbe1"/></g><g><path d="m26 26.75h-2.25c-1.105 0-2 .895-2 2v1.25h2.25v-1.25c0-1.105.895-2 2-2z" fill="#d5dbe1"/></g><g><path d="m14.074 16.098c-.142-.25-.074-.569.156-.738l1.411-1.033c-.046-.27-.082-.543-.082-.827 0-.283.035-.557.082-.827l-1.411-1.033c-.23-.169-.298-.488-.156-.738l.665-1.174-1.33-.612c-.258-.119-.563-.019-.705.231l-.88 1.554c-.142.25-.074.569.156.738l1.411 1.033c-.046.27-.082.543-.082.827 0 .283.035.557.082.827l-1.411 1.034c-.23.169-.298.488-.156.738l.88 1.554c.142.25.447.35.705.231l1.33-.612z" fill="#00b871"/></g><g><path d="m17.253 9.85c.413-.352.879-.634 1.394-.826l.173-1.767c.019-.197.141-.356.305-.441-.075-.039-.156-.066-.245-.066h-1.76c-.284 0-.521.219-.549.507l-.173 1.767c-.161.06-.308.144-.46.221z" fill="#00b871"/></g><g><path d="m18.82 19.743-.173-1.767c-.515-.192-.981-.474-1.394-.826l-1.316.605c.151.077.299.161.46.221l.173 1.767c.028.288.266.507.549.507h1.761c.089 0 .17-.028.245-.066-.164-.084-.285-.243-.305-.441z" fill="#00b871"/></g><g><path d="m18 16c-1.379 0-2.5-1.122-2.5-2.5s1.121-2.5 2.5-2.5 2.5 1.122 2.5 2.5-1.121 2.5-2.5 2.5zm0-3.5c-.552 0-1 .449-1 1s.448 1 1 1 1-.449 1-1-.448-1-1-1z"/></g><g><path d="m18.88 21h-1.76c-.673 0-1.229-.508-1.296-1.183l-.13-1.326c-.275-.132-.54-.289-.792-.469l-1.18.542c-.614.284-1.334.051-1.672-.544l-.879-1.553c-.329-.582-.173-1.317.363-1.712l1.05-.769c-.018-.171-.026-.33-.026-.487s.009-.316.026-.487l-1.049-.768c-.537-.396-.693-1.131-.365-1.712l.881-1.554c.335-.594 1.054-.829 1.672-.542l1.179.542c.252-.18.517-.336.792-.469l.13-1.325c.067-.676.623-1.184 1.296-1.184h1.76c.673 0 1.229.508 1.296 1.183l.13 1.326c.275.132.54.289.792.469l1.18-.542c.614-.284 1.335-.051 1.672.544l.879 1.553c.329.582.173 1.317-.363 1.712l-1.05.769c.018.171.026.33.026.487s-.009.316-.026.487l1.049.768c.537.396.693 1.131.365 1.712l-.881 1.554c-.336.594-1.054.829-1.672.542l-1.179-.542c-.252.18-.517.336-.792.469l-.13 1.325c-.067.676-.623 1.184-1.296 1.184zm-1.58-1.5h1.4l.156-1.597c.027-.286.216-.53.484-.63.419-.156.812-.389 1.17-.693.224-.19.534-.231.8-.111l1.423.655.711-1.256-1.278-.936c-.229-.168-.345-.453-.296-.733.05-.282.071-.498.071-.698s-.021-.416-.071-.698c-.049-.281.066-.565.296-.733l1.278-.936-.711-1.256-1.423.655c-.267.12-.577.079-.8-.111-.357-.304-.751-.538-1.17-.693-.269-.1-.457-.345-.484-.63l-.156-1.599h-1.4l-.156 1.597c-.027.286-.216.53-.484.63-.419.156-.812.389-1.17.693-.223.19-.534.231-.8.111l-1.423-.655-.711 1.256 1.278.936c.229.168.345.453.296.733-.05.282-.071.498-.071.698s.021.416.071.698c.049.281-.066.565-.296.733l-1.278.936.711 1.256 1.423-.655c.265-.122.577-.08.8.111.357.304.751.538 1.17.693.269.1.457.345.484.63zm-4.204-2.298c-.001 0-.001 0 0 0zm9.809-7.405c0 .001 0 .001 0 0z"/></g><g><path d="m10.5 25c-1.379 0-2.5-1.122-2.5-2.5s1.121-2.5 2.5-2.5 2.5 1.122 2.5 2.5-1.121 2.5-2.5 2.5zm0-3.5c-.552 0-1 .449-1 1s.448 1 1 1 1-.449 1-1-.448-1-1-1z"/></g><g><path d="m15 30h-1.5v-1.25c0-.689-.561-1.25-1.25-1.25h-3.5c-.689 0-1.25.561-1.25 1.25v1.25h-1.5v-1.25c0-1.517 1.233-2.75 2.75-2.75h3.5c1.517 0 2.75 1.233 2.75 2.75z"/></g><g><path d="m25.5 25c-1.379 0-2.5-1.122-2.5-2.5s1.121-2.5 2.5-2.5 2.5 1.122 2.5 2.5-1.121 2.5-2.5 2.5zm0-3.5c-.552 0-1 .449-1 1s.448 1 1 1 1-.449 1-1-.448-1-1-1z"/></g><g><path d="m30 30h-1.5v-1.25c0-.689-.561-1.25-1.25-1.25h-3.5c-.689 0-1.25.561-1.25 1.25v1.25h-1.5v-1.25c0-1.517 1.233-2.75 2.75-2.75h3.5c1.517 0 2.75 1.233 2.75 2.75z"/></g><g><path d="m2 28.5h32v1.5h-32z"/></g></svg>