<svg id="regular" enable-background="new 0 0 36 36" height="512" viewBox="0 0 36 36" width="512" xmlns="http://www.w3.org/2000/svg"><path d="m4.167 8.377c0 6.917-3.583 11.667-3.583 15s1.916 10.333 17.249 10.333 17.583-9.417 17.583-13.083c.001-17.167-31.249-24.5-31.249-12.25z" fill="#efefef"/><g fill="#a4afc1"><path d="m25.467 4.967h1v2h-1z" transform="matrix(.707 -.707 .707 .707 3.386 20.109)"/><path d="m29.533 9.033h1v2h-1z" transform="matrix(.707 -.707 .707 .707 1.702 24.175)"/><path d="m28.857 5.467h2v1h-2z" transform="matrix(.707 -.707 .707 .707 4.526 22.859)"/><path d="m14 33.5c-.827 0-1.5-.673-1.5-1.5s.673-1.5 1.5-1.5 1.5.673 1.5 1.5-.673 1.5-1.5 1.5zm0-2c-.275 0-.5.225-.5.5s.225.5.5.5.5-.225.5-.5-.225-.5-.5-.5z"/></g><path d="m17.25 26.25h-8.5c-1.1 0-2-.9-2-2v-13.5c0-1.11.9-2 2-2h1v-1c0-.55.45-1 1-1h4.5c.55 0 1 .45 1 1v1h1c1.1 0 2 .89 2 2v13.5c0 1.105-.895 2-2 2z" fill="#f3f3f1"/><circle cx="24" cy="23.5" fill="#f3f3f1" r="1.75"/><path d="m27.872 24.204c.039-.23.069-.463.069-.704s-.03-.474-.069-.704l1.185-.88c.193-.144.25-.415.131-.629l-.739-1.324c-.119-.213-.375-.298-.592-.197l-1.339.624c-.347-.3-.738-.54-1.171-.703l-.146-1.506c-.024-.245-.223-.431-.461-.431h-1.479c-.238 0-.438.187-.461.431l-.146 1.506c-.433.163-.824.403-1.171.703l-1.339-.625c-.217-.101-.473-.016-.592.197l-.739 1.324c-.119.213-.062.485.131.629l1.185.88c-.039.23-.069.463-.069.704s.03.474.069.704l-1.185.88c-.193.144-.25.415-.131.629l.739 1.324c.119.213.375.298.592.197l1.339-.624c.347.3.738.54 1.171.703l.146 1.506c.024.245.223.431.461.431h1.479c.238 0 .438-.187.461-.431l.146-1.506c.433-.163.824-.403 1.171-.703l1.339.624c.217.101.473.016.592-.197l.739-1.324c.119-.213.062-.485-.131-.629z" fill="#2fdf84"/><circle cx="24" cy="23.5" fill="#f3f3f1" r="1.75"/><path d="m9 24.25v-13.5c0-1.11.9-2 2-2h1v-1c0-.55.45-1 1-1h-2.25c-.55 0-1 .45-1 1v1h-1c-1.1 0-2 .89-2 2v13.5c0 1.1.9 2 2 2h2.25c-1.1 0-2-.9-2-2z" fill="#d5dbe1"/><path d="m23.733 20.39c.347-.3.738-.54 1.171-.703l.146-1.506c.008-.078.037-.146.076-.207-.083-.133-.223-.224-.386-.224h-1.479c-.238 0-.438.187-.461.431l-.146 1.506c-.074.028-.139.07-.21.102z" fill="#00b871"/><path d="m21.062 25.713c-.119-.213-.062-.485.131-.629l1.185-.88c-.039-.23-.069-.463-.069-.704s.03-.474.069-.704l-1.185-.88c-.193-.144-.25-.415-.131-.629l.556-.995c-.044.035-.093.062-.135.099l-1.339-.625c-.217-.101-.473-.016-.592.197l-.74 1.324c-.119.213-.063.485.131.629l1.185.88c-.039.23-.069.463-.069.704s.03.474.069.704l-1.185.88c-.193.144-.25.415-.131.629l.74 1.324c.119.213.375.298.592.197l1.339-.624c.042.037.092.064.135.099z" fill="#00b871"/><path d="m25.049 28.818-.146-1.505c-.433-.163-.824-.403-1.171-.703l-1.289.601c.071.032.136.074.21.102l.146 1.505c.024.245.223.432.461.432h1.479c.163 0 .303-.091.386-.224-.038-.062-.068-.13-.076-.208z" fill="#00b871"/><path d="m24 26c-1.379 0-2.5-1.121-2.5-2.5s1.121-2.5 2.5-2.5 2.5 1.121 2.5 2.5-1.121 2.5-2.5 2.5zm0-3.5c-.552 0-1 .448-1 1s.448 1 1 1 1-.448 1-1-.448-1-1-1z"/><path d="m24.739 30h-1.479c-.626 0-1.146-.476-1.208-1.107l-.104-1.071c-.194-.099-.383-.212-.564-.339l-.924.432c-.581.269-1.251.049-1.563-.511l-.74-1.325c-.302-.539-.157-1.226.337-1.595l.832-.618c-.011-.127-.017-.246-.017-.365s.006-.238.017-.365l-.83-.618c-.496-.367-.642-1.054-.338-1.596l.738-1.323c.313-.561.985-.778 1.563-.513l.926.433c.182-.127.37-.24.564-.339l.104-1.069c.062-.635.582-1.111 1.208-1.111h1.479c.626 0 1.146.476 1.208 1.107l.104 1.071c.195.099.384.212.565.338l.923-.431c.58-.268 1.251-.048 1.563.511l.74 1.325c.303.541.157 1.228-.339 1.596l-.83.617c.011.127.017.246.017.365s-.006.238-.017.365l.83.616c.496.371.641 1.058.338 1.598l-.738 1.323c-.313.561-.984.778-1.563.513l-.926-.433c-.182.127-.37.24-.564.339l-.104 1.069c-.062.635-.582 1.111-1.208 1.111zm-1.218-1.5h.957l.122-1.26c.027-.284.214-.528.481-.63.338-.127.656-.318.945-.568.223-.193.539-.236.808-.112l1.089.509.498-.892-.997-.74c-.227-.169-.34-.45-.292-.729.032-.188.058-.38.058-.578s-.025-.39-.058-.578c-.048-.278.065-.56.292-.728l.996-.741-.497-.892-1.089.509c-.269.124-.585.081-.809-.113-.287-.249-.604-.439-.944-.567-.268-.102-.454-.346-.481-.63l-.122-1.26h-.957l-.122 1.26c-.027.284-.214.528-.481.63-.338.127-.656.318-.945.568-.223.193-.539.236-.808.112l-1.089-.509-.497.892.996.741c.227.168.34.449.292.728-.032.188-.058.38-.058.578s.025.39.058.578c.048.278-.065.56-.292.729l-.997.74.498.892 1.089-.509c.269-.124.585-.081.808.112.289.25.607.441.945.568.268.102.454.346.481.63z"/><path d="m15.25 27h-6.5c-1.517 0-2.75-1.233-2.75-2.75v-13.5c0-1.517 1.233-2.75 2.75-2.75h.25v-.25c0-.965.785-1.75 1.75-1.75h4.5c.965 0 1.75.785 1.75 1.75v.25h.25c1.517 0 2.75 1.233 2.75 2.75v4.52h-1.5v-4.52c0-.689-.561-1.25-1.25-1.25h-1c-.414 0-.75-.336-.75-.75v-1c0-.136-.114-.25-.25-.25h-4.5c-.136 0-.25.114-.25.25v1c0 .414-.336.75-.75.75h-1c-.689 0-1.25.561-1.25 1.25v13.5c0 .689.561 1.25 1.25 1.25h6.5z"/><path d="m13.049 21.268-1.316-.719 1.254-2.299h-1.237c-.265 0-.51-.14-.645-.367-.136-.228-.141-.51-.014-.742l1.859-3.408 1.316.719-1.254 2.299h1.236c.265 0 .51.14.645.367.136.228.141.51.014.742z"/></svg>