<svg id="line" enable-background="new 0 0 36 36" height="512" viewBox="0 0 36 36" width="512" xmlns="http://www.w3.org/2000/svg"><g><path d="m4.167 27.623c0-6.917-3.583-11.667-3.583-15s1.916-10.333 17.249-10.333 17.583 9.417 17.583 13.083c.001 17.167-31.249 24.5-31.249 12.25z" fill="#efefef"/></g><g><g><path d="m28.625 7.25h1v2h-1z" fill="#a4afc1"/></g><g><path d="m30.875 10.25h2v1h-2z" fill="#a4afc1"/></g></g><g><path d="m21.25 24.32v-15.57c0-1.105-.895-2-2-2h-10.5c-1.105 0-2 .895-2 2v15.57c0 1.105.895 2 2 2h10.5c1.105 0 2-.895 2-2z" fill="#f3f3f1"/></g><g><path d="m29.039 25.084-1.298-.88c.043-.23.075-.463.075-.704s-.033-.474-.075-.704l1.298-.88c.212-.144.274-.415.143-.629l-.81-1.324c-.13-.213-.411-.298-.649-.197l-1.466.624c-.38-.3-.808-.54-1.282-.703l-.16-1.506c-.026-.245-.244-.431-.505-.431h-1.62c-.261 0-.479.187-.505.431l-.16 1.506c-.474.163-.903.403-1.282.703l-1.466-.625c-.238-.101-.518-.016-.649.197l-.81 1.324c-.13.213-.068.485.143.629l1.298.88c-.043.23-.075.463-.075.704s.033.474.075.704l-1.298.88c-.212.144-.274.415-.143.629l.81 1.324c.13.213.411.298.649.197l1.466-.624c.38.3.808.54 1.282.703l.16 1.505c.026.245.244.432.505.432h1.62c.261 0 .479-.187.505-.432l.16-1.505c.474-.163.903-.403 1.282-.703l1.466.624c.238.101.518.016.649-.197l.81-1.324c.13-.212.068-.484-.143-.628zm-5.539.166c-.966 0-1.75-.784-1.75-1.75s.784-1.75 1.75-1.75 1.75.784 1.75 1.75-.784 1.75-1.75 1.75z" fill="#2fdf84"/></g><g><path d="m15.75 11.75h2.5v8.5h-2.5z" fill="#2fdf84"/></g><g><path d="m9.75 15.75h2.5v4.5h-2.5z" fill="#2fdf84"/></g><g><path d="m9 24.32v-15.57c0-1.105.895-2 2-2h-2.25c-1.105 0-2 .895-2 2v15.57c0 1.105.895 2 2 2h2.25c-1.105 0-2-.895-2-2z" fill="#d5dbe1"/></g><g><path d="m20.068 25.713c-.13-.213-.068-.485.143-.629l1.298-.88c-.043-.23-.075-.463-.075-.704s.033-.474.075-.704l-1.298-.88c-.211-.144-.273-.416-.143-.629l.575-.939-1.366-.582c-.238-.101-.518-.016-.649.197l-.81 1.324c-.13.213-.068.485.143.629l1.298.88c-.043.23-.075.463-.075.704s.033.474.075.704l-1.298.88c-.212.144-.274.415-.143.629l.81 1.324c.13.213.411.298.649.197l1.366-.582z" fill="#00b871"/></g><g><path d="m15.75 11.75h2.25v8.5h-2.25z" fill="#00b871"/></g><g><path d="m9.75 15.75h2.25v4.5h-2.25z" fill="#00b871"/></g><g><path d="m16.5 18.25h-1.5v-6.5c0-.414.336-.75.75-.75h2.5c.414 0 .75.336.75.75v4.5h-1.5v-3.75h-1z"/></g><g><path d="m12.25 21h-2.5c-.414 0-.75-.336-.75-.75v-4.5c0-.414.336-.75.75-.75h2.5c.414 0 .75.336.75.75v4.5c0 .414-.336.75-.75.75zm-1.75-1.5h1v-3h-1z"/></g><g><path d="m8 19.5h7v1.5h-7z"/></g><g><path d="m23.5 26c-1.379 0-2.5-1.121-2.5-2.5s1.121-2.5 2.5-2.5 2.5 1.121 2.5 2.5-1.121 2.5-2.5 2.5zm0-3.5c-.552 0-1 .448-1 1s.448 1 1 1 1-.448 1-1-.448-1-1-1z"/></g><g><path d="m24.31 30h-1.62c-.646 0-1.184-.474-1.252-1.102l-.111-1.059c-.235-.106-.462-.232-.679-.375l-1.078.46c-.582.244-1.259.031-1.581-.495l-.811-1.325c-.338-.551-.181-1.271.36-1.64l.911-.618c-.01-.11-.017-.228-.017-.347 0-.12.007-.236.017-.347l-.91-.618c-.542-.367-.7-1.088-.36-1.641l.809-1.323c.324-.526 1.004-.74 1.581-.496l1.079.46c.217-.143.443-.269.679-.375l.111-1.057c.069-.628.607-1.102 1.252-1.102h1.619c.646 0 1.184.474 1.252 1.102l.111 1.059c.235.106.462.232.679.375l1.078-.46c.58-.246 1.258-.032 1.581.495l.811 1.325c.339.552.181 1.272-.362 1.641l-.909.617c.01.11.017.227.017.347 0 .119-.007.236-.017.347l.909.616c.543.37.7 1.091.361 1.643l-.809 1.323c-.324.527-1.002.742-1.581.496l-1.079-.46c-.217.143-.443.269-.679.375l-.111 1.058c-.068.627-.606 1.101-1.251 1.101zm-1.405-1.5h1.189l.134-1.267c.031-.289.227-.535.502-.63.382-.132.739-.327 1.061-.582.215-.17.507-.209.76-.103l1.29.55.558-.912-1.078-.731c-.246-.167-.37-.464-.316-.756.033-.186.063-.374.063-.569s-.029-.384-.063-.569c-.054-.292.07-.588.315-.755l1.079-.732-.558-.912-1.29.55c-.253.106-.545.067-.76-.103-.321-.254-.678-.45-1.061-.582-.275-.095-.471-.341-.502-.63l-.133-1.267h-1.189l-.134 1.267c-.031.289-.227.535-.502.63-.382.132-.739.327-1.061.582-.215.17-.507.209-.76.103l-1.29-.55-.558.912 1.079.732c.245.167.369.463.315.755-.033.186-.063.374-.063.569s.029.384.063.569c.054.292-.07.589-.316.756l-1.078.731.558.912 1.29-.55c.253-.106.545-.067.76.103.321.255.679.45 1.061.582.275.095.471.341.502.63zm5.637-3.179c0 .001-.001.001 0 0zm-10.083-3.643c-.001 0 0 0 0 0z"/></g><g><path d="m15.25 27h-6.5c-1.517 0-2.75-1.233-2.75-2.75v-15.5c0-1.517 1.233-2.75 2.75-2.75h10.5c1.517 0 2.75 1.233 2.75 2.75v5.5h-1.5v-5.5c0-.689-.561-1.25-1.25-1.25h-10.5c-.689 0-1.25.561-1.25 1.25v15.5c0 .689.561 1.25 1.25 1.25h6.5z"/></g></svg>