<svg id="Line" height="512" viewBox="0 0 36 36" width="512" xmlns="http://www.w3.org/2000/svg"><path d="m1.063 15.31c3.655 5.872 3.123 11.798 4.885 14.628s7.088 7.76 20.105-.343 9.951-17.286 8.014-20.399c-9.072-14.574-39.477-4.285-33.004 6.114z" fill="#efefef"/><path d="m1.597 3.617h2v1h-2z" fill="#a4afc1"/><path d="m5.097.117h1v2h-1z" fill="#a4afc1"/><path d="m24.25 29.25h-15.5c-1.105 0-2-.895-2-2v-9c0-.552.448-1 1-1 .552 0 1-.448 1-1v-2.5c0-.552-.448-1-1-1-.552 0-1-.448-1-1v-3c0-1.105.895-2 2-2h9.671c.53 0 1.039.211 1.414.586l3.829 3.828c.375.375.586.884.586 1.414v4.672z" fill="#f3f3f1"/><path d="m16.25 19.75h3.25c.55 0 1 .45 1 1v4.5c0 .55-.45 1-1 1h-3.25-2.25-3.25c-.55 0-1-.45-1-1v-4.5c0-.55.45-1 1-1h3.25z" fill="#2fdf84"/><circle cx="25" cy="24.5" fill="#2fdf84" r="2.75"/><path d="m10.75 13.75v2.5c0 .55-.45 1-1 1s-1 .45-1 1v9c0 1.1.9 2 2 2h-2c-1.1 0-2-.9-2-2v-9c0-.55.45-1 1-1s1-.45 1-1v-2.5c0-.55-.45-1-1-1s-1-.45-1-1v-3c0-1.1.9-2 2-2h2c-1.1 0-2 .9-2 2v3c0 .55.45 1 1 1s1 .45 1 1z" fill="#d5dbe1"/><path d="m12.75 26.25h-2c-.55 0-1-.45-1-1v-4.5c0-.55.45-1 1-1h2c-.55 0-1 .45-1 1v4.5c0 .55.45 1 1 1z" fill="#00b871"/><path d="m26 27.06c-.31.12-.65.19-1 .19-1.52 0-2.75-1.23-2.75-2.75s1.23-2.75 2.75-2.75c.35 0 .69.07 1 .19-1.03.4-1.75 1.39-1.75 2.56s.72 2.16 1.75 2.56z" fill="#00b871"/><path d="m25 28c-1.93 0-3.5-1.57-3.5-3.5s1.57-3.5 3.5-3.5 3.5 1.57 3.5 3.5-1.57 3.5-3.5 3.5zm0-5.5c-1.103 0-2 .897-2 2s.897 2 2 2 2-.897 2-2-.897-2-2-2z"/><path d="m24.25 27.25h1.5v2h-1.5z"/><path d="m24.25 19.75h1.5v2h-1.5z"/><path d="m27.255 21.88h2.121v1.5h-2.121z" transform="matrix(.882 -.471 .471 .882 -7.323 16.014)"/><path d="m20.625 25.62h2.121v1.5h-2.121z" transform="matrix(.882 -.471 .471 .882 -9.868 13.331)"/><path d="m20.935 21.57h1.5v2.121h-1.5z" transform="matrix(.472 -.882 .882 .472 -8.496 31.082)"/><path d="m27.565 25.31h1.5v2.121h-1.5z" transform="matrix(.472 -.882 .882 .472 -8.291 38.905)"/><path d="m18.249 30h-9.499c-1.517 0-2.75-1.233-2.75-2.75v-9c0-.965.785-1.75 1.75-1.75.138 0 .25-.112.25-.25v-2.5c0-.138-.112-.25-.25-.25-.965 0-1.75-.785-1.75-1.75v-3c0-1.517 1.233-2.75 2.75-2.75h9.671c.734 0 1.425.286 1.944.806l3.829 3.828c.52.52.806 1.21.806 1.945v3.671h-1.5v-3.671c0-.334-.13-.648-.366-.884l-3.829-3.828c-.237-.237-.55-.367-.884-.367h-9.671c-.689 0-1.25.561-1.25 1.25v3c0 .138.112.25.25.25.965 0 1.75.785 1.75 1.75v2.5c0 .965-.785 1.75-1.75 1.75-.138 0-.25.112-.25.25v9c0 .689.561 1.25 1.25 1.25h9.499z"/><path d="m10 7h1.5v3.25h-1.5z"/><path d="m13.75 7h1.5v3.25h-1.5z"/><path d="m17.5 7h1.5v3.25h-1.5z"/><path d="m17.25 27h-6.5c-.965 0-1.75-.785-1.75-1.75v-4.5c0-.965.785-1.75 1.75-1.75h7.5v1.5h-7.5c-.138 0-.25.112-.25.25v4.5c0 .138.112.25.25.25h6.5z"/></svg>