<svg id="Line" height="512" viewBox="0 0 36 36" width="512" xmlns="http://www.w3.org/2000/svg"><path d="m34.904 20.355c-3.782-5.791-3.38-11.727-5.203-14.518s-7.256-7.603-20.093.782-9.572 17.5-7.566 20.569c9.388 14.372 39.561 3.423 32.862-6.833z" fill="#efefef"/><g fill="#a4afc1"><path d="m4.91 1.426h2v1h-2z" transform="matrix(.707 -.707 .707 .707 .369 4.743)"/><path d="m.844 5.492h2v1h-2z" transform="matrix(.707 -.707 .707 .707 -3.697 3.059)"/><path d="m1.344.749h1v2h-1z" transform="matrix(.707 -.707 .707 .707 -.697 1.816)"/></g><circle cx="25" cy="11.5" fill="#2fdf84" r="2.75"/><path d="m8.75 10.468h12.665v15.636h-12.665z" fill="#f3f3f1"/><path d="m21.75 29.25h-13.5c-.828 0-1.5-.672-1.5-1.5 0-.828.672-1.5 1.5-1.5h13.5c.828 0 1.5.672 1.5 1.5 0 .828-.672 1.5-1.5 1.5z" fill="#2fdf84"/><path d="m21.75 11.75h-13.5c-.828 0-1.5-.672-1.5-1.5 0-.828.672-1.5 1.5-1.5h13.5c.828 0 1.5.672 1.5 1.5 0 .828-.672 1.5-1.5 1.5z" fill="#2fdf84"/><path d="m8.75 11.72h2v14.38h-2z" fill="#d5dbe1"/><path d="m10.25 29.25h-2c-.83 0-1.5-.67-1.5-1.5s.67-1.5 1.5-1.5h2c-.83 0-1.5.67-1.5 1.5s.67 1.5 1.5 1.5z" fill="#00b871"/><path d="m10.25 11.75h-2c-.83 0-1.5-.67-1.5-1.5s.67-1.5 1.5-1.5h2c-.83 0-1.5.67-1.5 1.5s.67 1.5 1.5 1.5z" fill="#00b871"/><path d="m26 14.06c-.31.12-.65.19-1 .19-1.52 0-2.75-1.23-2.75-2.75s1.23-2.75 2.75-2.75c.35 0 .69.07 1 .19-1.03.4-1.75 1.39-1.75 2.56s.72 2.16 1.75 2.56z" fill="#00b871"/><path d="m25 15c-1.93 0-3.5-1.57-3.5-3.5s1.57-3.5 3.5-3.5 3.5 1.57 3.5 3.5-1.57 3.5-3.5 3.5zm0-5.5c-1.103 0-2 .897-2 2s.897 2 2 2 2-.897 2-2-.897-2-2-2z"/><path d="m24.25 13.5h1.5v3.5h-1.5z"/><path d="m24.25 6h1.5v3.5h-1.5z"/><path d="m26.505 8.88h3.621v1.5h-3.621z" transform="matrix(.882 -.472 .472 .882 -1.195 14.493)"/><path d="m19.875 12.62h3.621v1.5h-3.621z" transform="matrix(.882 -.472 .472 .882 -3.743 11.808)"/><path d="m20.935 7.819h1.5v3.621h-1.5z" transform="matrix(.472 -.882 .882 .472 2.967 24.211)"/><path d="m27.565 11.56h1.5v3.621h-1.5z" transform="matrix(.472 -.882 .882 .472 3.172 32.034)"/><path d="m20.5 17.75h1.5v8.5h-1.5z"/><path d="m8 12h1.5v14.25h-1.5z"/><path d="m14.82 26.567-1.75-3.75c-.099-.213-.093-.459.016-.667l2.274-4.322-1.453-1.868c-.103-.132-.158-.293-.158-.46v-3.75h1.5v3.493l1.592 2.047c.181.232.209.549.072.81l-2.327 4.421 1.593 3.413z"/><path d="m21.75 30h-13.5c-1.241 0-2.25-1.009-2.25-2.25s1.009-2.25 2.25-2.25h13.5c1.241 0 2.25 1.009 2.25 2.25s-1.009 2.25-2.25 2.25zm-13.5-3c-.414 0-.75.336-.75.75s.336.75.75.75h13.5c.414 0 .75-.336.75-.75s-.336-.75-.75-.75z"/><path d="m17.25 12.5h-9c-1.241 0-2.25-1.009-2.25-2.25s1.009-2.25 2.25-2.25h9v1.5h-9c-.414 0-.75.336-.75.75s.336.75.75.75h9z"/></svg>