<svg id="_x31__x2C_5" enable-background="new 0 0 36 36" height="512" viewBox="0 0 36 36" width="512" xmlns="http://www.w3.org/2000/svg"><path d="m27.623 31.833c-6.917 0-11.667 3.583-15 3.583s-10.333-1.916-10.333-17.249 9.417-17.584 13.083-17.584c17.167 0 24.5 31.25 12.25 31.25z" fill="#efefef"/><g fill="#a4afc1"><path d="m31.679 2.644h2v1h-2z" transform="matrix(.707 -.707 .707 .707 7.349 24.029)"/><path d="m32.533 6.033h1v2h-1z" transform="matrix(.707 -.707 .707 .707 4.702 25.418)"/><path d="m28.467 1.967h1v2h-1z" transform="matrix(.707 -.707 .707 .707 6.386 21.352)"/></g><path d="m18 27.592v-19.184c0-.916.742-1.658 1.658-1.658.457 0 .853.317.954.763l.509 2.26c.9.333 1.722.822 2.446 1.418l2.201-.695c.44-.137.92.039 1.145.44l1.663 2.876c.225.401.147.9-.186 1.213l-1.692 1.555c.068.46.108.939.108 1.418s-.039.959-.108 1.418l1.692 1.555c.333.313.411.812.186 1.213l-1.663 2.876c-.225.401-.704.577-1.145.44l-2.201-.695c-.724.597-1.546 1.086-2.446 1.418l-.51 2.265c-.1.443-.493.758-.948.758h-.005c-.916.004-1.658-.738-1.658-1.654z" fill="#f3f3f1"/><path d="m14.786 6.75c-2.068 0-3.75 1.536-3.75 3.424 0 .342.054.675.161.988l.006.006c-.056-.004-.11-.015-.167-.015-2.368 0-4.286 1.751-4.286 3.913 0 1.389.793 2.602 1.982 3.297-.579.724-.911 1.614-.911 2.573 0 1.947 1.382 3.6 3.3 4.177-.054.225-.086.47-.086.714 0 1.888 1.682 3.424 3.75 3.424 1.371 0 2.561-.675 3.214-1.673v-19.155c-.653-.998-1.842-1.673-3.213-1.673z" fill="#2fdf84"/><path d="m18 13.75c2.347 0 4.25 1.903 4.25 4.25s-1.903 4.25-4.25 4.25z" fill="#2fdf84"/><path d="m13.286 25.826c0-.245.032-.489.086-.714-1.918-.577-3.3-2.23-3.3-4.177 0-.959.332-1.849.911-2.573-1.19-.695-1.983-1.908-1.983-3.297 0-2.162 1.918-3.913 4.286-3.913.057 0 .111.011.167.015l-.006-.006c-.107-.313-.161-.646-.161-.988 0-1.534 1.118-2.82 2.643-3.254-.361-.106-.742-.17-1.143-.17-2.068 0-3.75 1.536-3.75 3.424 0 .342.054.675.161.988l.006.006c-.056-.004-.11-.015-.167-.015-2.368 0-4.286 1.751-4.286 3.913 0 1.389.793 2.602 1.982 3.297-.579.724-.911 1.614-.911 2.573 0 1.947 1.382 3.6 3.3 4.177-.054.225-.086.47-.086.714 0 1.888 1.682 3.424 3.75 3.424.4 0 .782-.063 1.143-.17-1.525-.434-2.642-1.72-2.642-3.254z" fill="#00b871"/><path d="m20.25 14.407c-.654-.41-1.421-.657-2.25-.657v8.5c.829 0 1.596-.247 2.25-.657z" fill="#00b871"/><path d="m20.25 8.408c0-.368.124-.705.327-.98-.13-.398-.493-.678-.919-.678-.916 0-1.658.742-1.658 1.658v5.342c.829 0 1.596.247 2.25.657z" fill="#d5dbe1"/><path d="m20.25 27.592v-5.999c-.654.41-1.421.657-2.25.657v5.342c0 .916.742 1.658 1.658 1.658h.005c.424 0 .786-.28.914-.677-.203-.276-.327-.613-.327-.981z" fill="#d5dbe1"/><path d="m14.786 30c-2.481 0-4.5-1.873-4.5-4.174 0-.072.002-.146.006-.218-1.951-.833-3.221-2.641-3.221-4.673 0-.843.215-1.653.626-2.379-1.074-.879-1.697-2.137-1.697-3.491 0-2.338 1.869-4.28 4.295-4.613-.006-.092-.01-.185-.01-.279 0-2.301 2.019-4.174 4.5-4.174 1.58 0 3.017.752 3.842 2.012.08.122.123.265.123.411v19.154c0 .146-.042.289-.123.411-.825 1.261-2.261 2.013-3.841 2.013zm-3.75-18.098c-1.95 0-3.536 1.419-3.536 3.163 0 1.07.602 2.06 1.61 2.649.188.11.319.296.359.51s-.015.435-.151.605c-.488.612-.747 1.34-.747 2.105 0 1.571 1.112 2.961 2.767 3.459.38.115.605.506.513.893-.043.179-.065.366-.065.54 0 1.474 1.346 2.674 3 2.674.997 0 1.902-.431 2.464-1.161v-18.678c-.562-.73-1.468-1.161-2.464-1.161-1.654 0-3 1.2-3 2.674 0 .111.007.22.022.326 1.222.317 2.121 1.366 2.121 2.609h-1.5c0-.666-.625-1.207-1.393-1.207z"/><path d="m12.244 25.961c-.602 0-1.078-.094-1.18-.116l.311-1.467c.385.079 1.61.208 2.158-.238.126-.103.294-.292.294-.759 0-.925-.282-1.207-1.207-1.207v-1.5c1.745 0 2.707.961 2.707 2.707 0 1.022-.463 1.612-.852 1.927-.649.524-1.526.653-2.231.653z"/><path d="m19.663 30h-.75v-1.5h.75c.103 0 .194-.074.216-.176l.51-2.262c.056-.248.233-.451.472-.539.792-.292 1.542-.728 2.229-1.293.196-.162.46-.214.703-.137l2.201.695c.105.033.216-.006.265-.092l1.668-2.885c.05-.09.032-.214-.051-.292l-1.686-1.549c-.183-.168-.271-.417-.234-.663.066-.443.099-.883.099-1.308s-.033-.865-.099-1.308c-.037-.246.051-.494.234-.663l1.692-1.556c.076-.071.094-.195.039-.294l-1.658-2.867c-.054-.095-.167-.133-.272-.1l-2.198.694c-.242.077-.506.025-.703-.137-.687-.565-1.436-1.001-2.229-1.293-.239-.088-.416-.291-.472-.539l-.509-2.26c-.023-.102-.114-.176-.217-.176h-.75v-1.5h.75c.8 0 1.507.568 1.681 1.351l.421 1.872c.686.291 1.34.671 1.954 1.135l1.823-.576c.782-.241 1.632.09 2.024.789l1.658 2.867c.397.71.263 1.584-.321 2.134l-1.413 1.299c.042.381.063.76.063 1.129s-.021.748-.063 1.129l1.406 1.292c.591.556.726 1.43.333 2.131l-1.668 2.885c-.387.691-1.238 1.023-2.017.781l-1.826-.577c-.614.464-1.268.844-1.954 1.135l-.422 1.874c-.172.782-.879 1.35-1.679 1.35z"/><path d="m18 23v-1.5c1.93 0 3.5-1.57 3.5-3.5s-1.57-3.5-3.5-3.5v-1.5c2.757 0 5 2.243 5 5s-2.243 5-5 5z"/></svg>