<svg id="_x31__x2C_5" enable-background="new 0 0 36 36" height="512" viewBox="0 0 36 36" width="512" xmlns="http://www.w3.org/2000/svg"><path d="m4.167 8.377c0 6.917-3.583 11.667-3.583 15s1.916 10.333 17.249 10.333 17.583-9.417 17.583-13.083c.001-17.167-31.249-24.5-31.249-12.25z" fill="#efefef"/><g fill="#a4afc1"><path d="m5.033 2.467h2v1h-2z" transform="matrix(.707 -.707 .707 .707 -.331 5.135)"/><path d="m.967 6.533h2v1h-2z" transform="matrix(.707 -.707 .707 .707 -4.397 3.451)"/><path d="m1.644 1.967h1v2h-1z" transform="matrix(.707 -.707 .707 .707 -1.47 2.385)"/></g><path d="m23.25 25.25h-10.5c-1.105 0-2-.895-2-2v-10.5c0-1.105.895-2 2-2h10.5c1.105 0 2 .895 2 2v10.5c0 1.105-.895 2-2 2z" fill="#f3f3f1"/><circle cx="18" cy="18" fill="#2fdf84" r="2.75"/><path d="m17.5 18c0-1.117.669-2.074 1.625-2.504-.344-.155-.723-.246-1.125-.246-1.519 0-2.75 1.231-2.75 2.75s1.231 2.75 2.75 2.75c.402 0 .781-.091 1.125-.246-.956-.43-1.625-1.387-1.625-2.504z" fill="#00b871"/><path d="m13 23.25v-10.5c0-1.105.895-2 2-2h-2.25c-1.105 0-2 .895-2 2v10.5c0 1.105.895 2 2 2h2.25c-1.105 0-2-.895-2-2z" fill="#d5dbe1"/><path d="m23.25 26h-10.5c-1.517 0-2.75-1.233-2.75-2.75v-10.5c0-1.517 1.233-2.75 2.75-2.75h10.5c1.517 0 2.75 1.233 2.75 2.75v10.5c0 1.517-1.233 2.75-2.75 2.75zm-10.5-14.5c-.689 0-1.25.561-1.25 1.25v10.5c0 .689.561 1.25 1.25 1.25h10.5c.689 0 1.25-.561 1.25-1.25v-10.5c0-.689-.561-1.25-1.25-1.25z"/><path d="m13 6h1.5v5.5h-1.5z"/><path d="m17.25 6h1.5v5.5h-1.5z"/><path d="m21.5 6h1.5v5.5h-1.5z"/><path d="m13 24.5h1.5v5.5h-1.5z"/><path d="m17.25 24.5h1.5v5.5h-1.5z"/><path d="m21.5 24.5h1.5v5.5h-1.5z"/><path d="m24.5 12.75h5.5v1.5h-5.5z"/><path d="m24.5 17.25h5.5v1.5h-5.5z"/><path d="m24.5 21.5h5.5v1.5h-5.5z"/><path d="m6 13h5.5v1.5h-5.5z"/><path d="m6 17.25h5.5v1.5h-5.5z"/><path d="m6 21.5h5.5v1.5h-5.5z"/><path d="m18 21.5c-1.93 0-3.5-1.57-3.5-3.5s1.57-3.5 3.5-3.5 3.5 1.57 3.5 3.5-1.57 3.5-3.5 3.5zm0-5.5c-1.103 0-2 .897-2 2s.897 2 2 2 2-.897 2-2-.897-2-2-2z"/><path d="m17.25 20h1.5v3.5h-1.5z"/><path d="m17.25 12.5h1.5v3.5h-1.5z"/><path d="m19.505 15.38h3.621v1.5h-3.621z" transform="matrix(.882 -.472 .472 .882 -5.088 11.96)"/><path d="m12.875 19.12h3.621v1.5h-3.621z" transform="matrix(.882 -.472 .472 .882 -7.636 9.275)"/><path d="m13.935 14.319h1.5v3.621h-1.5z" transform="matrix(.472 -.882 .882 .472 -6.464 21.473)"/><path d="m20.565 18.06h1.5v3.621h-1.5z" transform="matrix(.472 -.882 .882 .472 -6.259 29.296)"/></svg>