<svg id="_x31__x2C_5" height="512" viewBox="0 0 36 36" width="512" xmlns="http://www.w3.org/2000/svg"><path d="m27.623 31.833c-6.917 0-11.667 3.583-15 3.583s-10.333-1.916-10.333-17.249 9.417-17.584 13.083-17.584c17.167 0 24.5 31.25 12.25 31.25z" fill="#efefef"/><g fill="#a4afc1"><path d="m31.369 2.705h2v1h-2z" transform="matrix(.707 -.707 .707 .707 7.215 23.827)"/><path d="m32.222 6.094h1v2h-1z" transform="matrix(.707 -.707 .707 .707 4.568 25.216)"/><path d="m28.156 2.028h1v2h-1z" transform="matrix(.707 -.707 .707 .707 6.252 21.15)"/></g><circle cx="18" cy="11.5" fill="#2fdf84" r="2.75"/><path d="m27.25 24.75c1.1 0 2 .9 2 2v2.5h-22.5v-2.5c0-1.1.9-2 2-2z" fill="#f3f3f1"/><circle cx="18" cy="24" fill="#2fdf84" r="2.25"/><path d="m17.5 11.5c0-1.117.669-2.074 1.625-2.504-.344-.155-.723-.246-1.125-.246-1.519 0-2.75 1.231-2.75 2.75s1.231 2.75 2.75 2.75c.402 0 .781-.091 1.125-.246-.956-.43-1.625-1.387-1.625-2.504z" fill="#00b871"/><path d="m11 24.75h-2.25c-1.1 0-2 .9-2 2v2.5h2.25v-2.5c0-1.1.9-2 2-2z" fill="#d5dbe1"/><path d="m18 24c0-.831.455-1.548 1.125-1.938-.332-.193-.713-.312-1.125-.312-1.243 0-2.25 1.007-2.25 2.25s1.007 2.25 2.25 2.25c.412 0 .793-.119 1.125-.312-.67-.39-1.125-1.107-1.125-1.938z" fill="#00b871"/><path d="m18 15c-1.93 0-3.5-1.57-3.5-3.5s1.57-3.5 3.5-3.5 3.5 1.57 3.5 3.5-1.57 3.5-3.5 3.5zm0-5.5c-1.103 0-2 .897-2 2s.897 2 2 2 2-.897 2-2-.897-2-2-2z"/><path d="m17.25 13.5h1.5v3.5h-1.5z"/><path d="m17.25 6h1.5v3.5h-1.5z"/><path d="m19.505 8.88h3.621v1.5h-3.621z" transform="matrix(.882 -.472 .472 .882 -2.022 11.192)"/><path d="m12.875 12.62h3.621v1.5h-3.621z" transform="matrix(.882 -.472 .472 .882 -4.57 8.507)"/><path d="m13.935 7.819h1.5v3.621h-1.5z" transform="matrix(.472 -.882 .882 .472 -.732 18.038)"/><path d="m20.565 11.56h1.5v3.621h-1.5z" transform="matrix(.472 -.882 .882 .472 -.527 25.861)"/><path d="m29.25 30h-22.5c-.414 0-.75-.336-.75-.75v-2.5c0-1.517 1.233-2.75 2.75-2.75h6.8v1.5h-6.8c-.689 0-1.25.561-1.25 1.25v1.75h21v-1.75c0-.689-.561-1.25-1.25-1.25h-6.8v-1.5h6.8c1.517 0 2.75 1.233 2.75 2.75v2.5c0 .414-.336.75-.75.75z"/><path d="m18.859 16.375h16.782v1.5h-16.782z" transform="matrix(.262 -.965 .965 .262 3.588 38.941)"/><path d="m8 8.734h1.5v16.782h-1.5z" transform="matrix(.965 -.262 .262 .965 -4.177 2.887)"/><path d="m18 27c-1.654 0-3-1.346-3-3s1.346-3 3-3 3 1.346 3 3-1.346 3-3 3zm0-4.5c-.827 0-1.5.673-1.5 1.5s.673 1.5 1.5 1.5 1.5-.673 1.5-1.5-.673-1.5-1.5-1.5z"/></svg>