<svg id="_x31__x2C_5" height="512" viewBox="0 0 36 36" width="512" xmlns="http://www.w3.org/2000/svg"><path d="m27.623 31.833c-6.917 0-11.667 3.583-15 3.583s-10.333-1.916-10.333-17.249 9.417-17.584 13.083-17.584c17.167 0 24.5 31.25 12.25 31.25z" fill="#efefef"/><path d="m31.5 6c-.827 0-1.5-.673-1.5-1.5s.673-1.5 1.5-1.5 1.5.673 1.5 1.5-.673 1.5-1.5 1.5zm0-2c-.276 0-.5.225-.5.5s.224.5.5.5.5-.225.5-.5-.224-.5-.5-.5z" fill="#a4afc1"/><g fill="#2fdf84"><path d="m27.872 24.204c.039-.23.069-.463.069-.704s-.03-.474-.069-.704l1.185-.88c.193-.144.25-.415.131-.629l-.739-1.324c-.119-.213-.375-.298-.592-.197l-1.339.624c-.347-.3-.738-.54-1.171-.703l-.146-1.506c-.024-.245-.223-.431-.461-.431h-1.479c-.238 0-.438.187-.461.431l-.146 1.506c-.433.163-.824.403-1.171.703l-1.339-.625c-.217-.101-.473-.016-.592.197l-.739 1.324c-.119.213-.062.485.131.629l1.185.88c-.039.23-.069.463-.069.704s.03.474.069.704l-1.185.88c-.193.144-.25.415-.131.629l.739 1.324c.119.213.375.298.592.197l1.339-.624c.347.3.738.54 1.171.703l.146 1.506c.024.245.223.431.461.431h1.479c.238 0 .438-.187.461-.431l.146-1.506c.433-.163.824-.403 1.171-.703l1.339.624c.217.101.473.016.592-.197l.739-1.324c.119-.213.062-.485-.131-.629z"/><path d="m9.25 12.5 2 2.25h1.5l2-2.25z"/><path d="m10.75 19.25h2.5l1 3h-4.5z"/></g><circle cx="24" cy="23.5" fill="#f3f3f1" r="1.75"/><path d="m26.5 12.25h-19.75v-5.5h19.75c1.519 0 2.75 1.231 2.75 2.75 0 1.519-1.231 2.75-2.75 2.75z" fill="#f3f3f1"/><path d="m24.5 23.5c0-.536.246-1.009.625-1.33-.305-.258-.694-.42-1.125-.42-.966 0-1.75.784-1.75 1.75s.784 1.75 1.75 1.75c.431 0 .82-.162 1.125-.42-.379-.321-.625-.794-.625-1.33z" fill="#d5dbe1"/><path d="m6.75 6.75h2.25v5.5h-2.25z" fill="#d5dbe1"/><path d="m21.062 25.713c-.119-.213-.062-.485.131-.629l1.185-.88c-.039-.23-.069-.463-.069-.704s.03-.474.069-.704l-1.185-.88c-.193-.144-.25-.415-.131-.629l.556-.995c-.044.035-.093.062-.135.099l-1.339-.625c-.217-.101-.473-.016-.592.197l-.74 1.324c-.119.213-.063.485.131.629l1.185.88c-.039.23-.069.463-.069.704s.03.474.069.704l-1.185.88c-.193.144-.25.415-.131.629l.74 1.324c.119.213.375.298.592.197l1.339-.624c.042.037.092.064.135.099z" fill="#00b871"/><path d="m11.5 12.5h-2.25l2 2.25h1.5l.375-.422z" fill="#00b871"/><path d="m10.75 19.25-1 3h2.25l1-3z" fill="#00b871"/><path d="m12.75 15.5h-1.5c-.214 0-.418-.092-.561-.252l-2-2.25 1.121-.996 1.777 1.998h.826l1.776-1.998 1.121.996-2 2.25c-.142.16-.346.252-.56.252z"/><path d="m11.25 14.75h1.5v4.5h-1.5z"/><path d="m14.25 23h-4.5c-.241 0-.467-.116-.608-.312s-.179-.447-.103-.676l1-3c.102-.306.389-.513.711-.513h2.5c.323 0 .609.207.711.513l1 3c.076.229.038.48-.103.676s-.367.312-.608.312zm-3.459-1.5h2.419l-.5-1.5h-1.419z"/><path d="m12 30c-1.517 0-2.75-1.233-2.75-2.75h1.5c0 .689.561 1.25 1.25 1.25s1.25-.561 1.25-1.25-.561-1.25-1.25-1.25c-.414 0-.75-.336-.75-.75v-3h1.5v2.354c1.153.328 2 1.39 2 2.646 0 1.517-1.233 2.75-2.75 2.75z"/><path d="m24 26c-1.378 0-2.5-1.121-2.5-2.5s1.122-2.5 2.5-2.5 2.5 1.121 2.5 2.5-1.122 2.5-2.5 2.5zm0-3.5c-.551 0-1 .448-1 1s.449 1 1 1 1-.448 1-1-.449-1-1-1z"/><path d="m24.739 30h-1.479c-.628 0-1.147-.478-1.208-1.11l-.104-1.068c-.195-.099-.383-.212-.564-.339l-.923.432c-.581.268-1.251.049-1.564-.511l-.74-1.324c-.302-.54-.158-1.227.336-1.596l.833-.618c-.01-.115-.017-.237-.017-.365s.007-.25.017-.365l-.831-.618c-.496-.367-.641-1.054-.338-1.596l.739-1.324c.313-.559.985-.778 1.562-.512l.926.433c.181-.127.37-.24.564-.339l.104-1.069c.061-.633.581-1.111 1.209-1.111h1.479c.628 0 1.147.478 1.208 1.11l.104 1.068c.195.099.384.212.565.338l.923-.431c.581-.269 1.251-.049 1.564.511l.74 1.324c.303.542.158 1.229-.338 1.597l-.831.617c.01.115.017.237.017.365s-.007.25-.017.365l.831.616c.496.371.641 1.058.338 1.598l-.739 1.324c-.313.559-.985.776-1.562.512l-.926-.433c-.181.127-.37.24-.564.339l-.104 1.069c-.062.633-.582 1.111-1.21 1.111zm-1.217-1.5h.956l.122-1.26c.028-.284.214-.528.482-.63.338-.127.656-.318.944-.568.224-.193.54-.236.809-.112l1.089.509.498-.892-.997-.74c-.227-.169-.339-.45-.292-.729.032-.188.058-.38.058-.578s-.026-.39-.058-.578c-.047-.278.065-.56.292-.728l.997-.741-.498-.892-1.089.509c-.269.123-.586.082-.809-.113-.286-.249-.604-.439-.943-.567-.268-.102-.454-.346-.482-.63l-.122-1.26h-.956l-.123 1.26c-.028.284-.214.528-.482.63-.338.127-.656.318-.944.568-.224.193-.542.234-.809.112l-1.089-.509-.498.892.997.741c.227.168.339.449.292.728-.032.188-.058.38-.058.578s.026.39.058.578c.047.278-.065.56-.292.729l-.997.74.498.892 1.089-.509c.269-.124.585-.081.809.112.288.25.605.441.944.568.268.102.454.346.482.63z"/><path d="m26.5 13h-19.75c-.414 0-.75-.336-.75-.75v-5.5c0-.414.336-.75.75-.75h19.75c1.93 0 3.5 1.57 3.5 3.5s-1.57 3.5-3.5 3.5zm-19-1.5h19c1.103 0 2-.897 2-2s-.897-2-2-2h-19z"/><circle cx="25.5" cy="9.5" r="1"/><path d="m9 8.75h13v1.5h-13z"/></svg>