<svg enable-background="new 0 0 36 36" height="512" viewBox="0 0 36 36" width="512" xmlns="http://www.w3.org/2000/svg"><path d="m8.377 4.167c6.917 0 11.667-3.583 15-3.583s10.333 1.916 10.333 17.249-9.417 17.583-13.083 17.583c-17.167.001-24.5-31.249-12.25-31.249z" fill="#efefef"/><path d="m28.477 22.353-1.467 2.543c-.538.939-1.741 1.252-2.671.714l-1.487-.861c-.44.323-.92.597-1.428.822v1.722c0 1.076-.88 1.957-1.957 1.957h-2.935c-1.076 0-1.957-.88-1.957-1.957v-1.722c-.509-.225-.988-.499-1.428-.822l-1.487.861c-.929.538-2.133.225-2.671-.714l-1.467-2.543c-.538-.939-.215-2.133.714-2.671l1.487-.861c-.029-.274-.029-1.37 0-1.644l-1.487-.861c-.929-.538-1.252-1.732-.714-2.671l1.467-2.543c.538-.939 1.741-1.252 2.671-.714l1.487.861c.44-.323.92-.597 1.428-.822v-1.72c0-1.076.88-1.957 1.957-1.957h2.935c1.076 0 1.957.88 1.957 1.957v1.722c.509.225.988.499 1.428.822l1.487-.861c.929-.538 2.133-.225 2.671.714l1.467 2.543c.538.939.215 2.133-.714 2.671l-1.487.861c.029.274.039.548.039.822s-.01.548-.039.822l1.487.861c.929.537 1.252 1.73.714 2.669z" fill="#fff"/><g fill="#d5dbe1"><path d="m15.398 11.25c.44-.323.92-.597 1.428-.822v-1.722c0-1.076.88-1.956 1.956-1.956h-2.25c-1.076 0-1.956.88-1.956 1.956v1.722c-.11.048-.212.108-.319.161z"/><path d="m11.24 24.897-1.467-2.543c-.538-.939-.215-2.133.714-2.671l1.487-.861c-.029-.274-.029-1.37 0-1.644l-1.487-.861c-.929-.538-1.252-1.732-.714-2.671l1.467-2.543c.148-.258.349-.464.578-.623l-.158-.091c-.929-.538-2.133-.225-2.671.714l-1.467 2.543c-.538.939-.215 2.133.714 2.671l1.487.861c-.029.274-.029 1.37 0 1.644l-1.487.861c-.929.538-1.252 1.732-.714 2.671l1.467 2.543c.538.939 1.741 1.252 2.671.714l.158-.091c-.229-.159-.43-.365-.578-.623z"/><path d="m16.826 27.293v-1.722c-.509-.225-.988-.499-1.428-.822l-1.141.66c.107.053.209.113.319.161v1.722c0 1.076.88 1.957 1.956 1.957h2.25c-1.075.001-1.956-.879-1.956-1.956z"/></g><circle cx="18" cy="18" fill="#2fdf84" r="5.25"/><path d="m15 18c0-2.512 1.767-4.607 4.125-5.123-.363-.079-.738-.127-1.125-.127-2.899 0-5.25 2.35-5.25 5.25 0 2.899 2.351 5.25 5.25 5.25.387 0 .762-.048 1.125-.128-2.358-.515-4.125-2.61-4.125-5.122z" fill="#00b871"/><g fill="#a4afc1"><path d="m29.77 4.904h2v1h-2z" transform="matrix(.707 -.707 .707 .707 5.192 23.341)"/><path d="m26.205 4.227h1v2h-1z" transform="matrix(.707 -.707 .707 .707 4.126 20.414)"/><path d="m30.271 8.293h1v2h-1z" transform="matrix(.707 -.707 .707 .707 2.446 24.49)"/></g><path d="m19.467 30h-2.935c-1.492 0-2.707-1.215-2.707-2.707v-1.248c-.246-.126-.483-.263-.712-.409l-1.077.624c-.628.363-1.362.458-2.061.27-.698-.188-1.279-.635-1.637-1.26l-1.466-2.542c-.742-1.294-.298-2.95.987-3.694l1.097-.634c-.005-.253-.005-.547 0-.8l-1.095-.633c-1.285-.744-1.729-2.4-.988-3.693l1.468-2.546c.357-.623.938-1.07 1.637-1.258.702-.189 1.434-.093 2.06.27l1.077.624c.228-.146.466-.282.712-.408v-1.25c-.001-1.492 1.214-2.706 2.706-2.706h2.935c1.492 0 2.706 1.214 2.706 2.706v1.249c.246.126.484.263.712.409l1.078-.625c.626-.363 1.355-.459 2.059-.27.697.188 1.279.635 1.638 1.26l1.467 2.542c.741 1.294.298 2.95-.987 3.695l-1.082.625c.006.137.008.272.008.408s-.002.271-.008.407l1.082.626c1.285.745 1.729 2.401.988 3.692 0 .001 0 .001-.001.002l-1.468 2.544c-.356.623-.938 1.07-1.636 1.259-.701.187-1.432.093-2.06-.271l-1.078-.624c-.229.146-.466.283-.712.409v1.248c0 1.494-1.214 2.709-2.707 2.709zm-6.319-6c.156 0 .312.049.443.146.391.286.823.535 1.287.739.271.12.447.39.447.687v1.722c0 .666.541 1.207 1.207 1.207h2.935c.665 0 1.206-.541 1.206-1.207v-1.722c0-.297.176-.566.447-.687.463-.204.896-.453 1.288-.74.24-.175.56-.192.819-.044l1.487.86c.279.162.604.206.918.12.31-.083.566-.281.726-.558l1.468-2.544c.33-.577.134-1.316-.439-1.647l-1.487-.861c-.257-.149-.401-.435-.37-.729.026-.247.035-.494.035-.741 0-.248-.009-.495-.035-.742-.031-.295.114-.581.37-.729l1.487-.86c.573-.331.77-1.071.439-1.648l-1.467-2.542c-.16-.278-.418-.477-.728-.56s-.639-.042-.917.12l-1.486.86c-.259.147-.58.132-.819-.045-.388-.284-.822-.534-1.289-.741-.271-.12-.446-.389-.446-.686v-1.722c0-.665-.541-1.206-1.206-1.206h-2.935c-.666 0-1.207.541-1.207 1.206v1.722c0 .297-.175.565-.446.686-.468.208-.901.457-1.287.741-.241.178-.562.193-.82.045l-1.487-.861c-.278-.161-.606-.204-.918-.12-.311.083-.568.281-.727.558l-1.468 2.546c-.329.575-.133 1.315.44 1.646l1.487.86c.256.148.401.435.37.729-.024.222-.024 1.262 0 1.483.031.295-.113.58-.37.729l-1.487.861c-.573.331-.771 1.07-.439 1.647l1.466 2.542c.159.278.417.477.727.56.315.083.64.041.919-.12l1.487-.86c.116-.066.246-.1.375-.1z"/><path d="m18 24c-3.309 0-6-2.691-6-6s2.691-6 6-6 6 2.691 6 6-2.692 6-6 6zm0-10.5c-2.481 0-4.5 2.019-4.5 4.5s2.019 4.5 4.5 4.5 4.5-2.019 4.5-4.5-2.019-4.5-4.5-4.5z"/><path d="m19.219 20.281-1.75-1.75c-.14-.141-.219-.331-.219-.531v-2.75h1.5v2.439l1.53 1.53z"/></svg>