<svg id="_x31__x2C_5" enable-background="new 0 0 36 36" height="512" viewBox="0 0 36 36" width="512" xmlns="http://www.w3.org/2000/svg"><path d="m31.833 8.377c0 6.917 3.583 11.667 3.583 15s-1.916 10.333-17.249 10.333-17.584-9.417-17.584-13.083c0-17.167 31.25-24.5 31.25-12.25z" fill="#efefef"/><g fill="#a4afc1"><path d="m31.68 3.644h2v1h-2z" transform="matrix(.707 -.707 .707 .707 6.642 24.322)"/><path d="m32.533 7.033h1v2h-1z" transform="matrix(.707 -.707 .707 .707 3.995 25.711)"/><path d="m28.467 2.967h1v2h-1z" transform="matrix(.707 -.707 .707 .707 5.679 21.645)"/></g><path d="m17.75 7.74v7.84c-3.53-1.09-3.76-2.83-3.76-2.83 0 2.82-3.37 3.76-3.37 3.76l-1.71 4.63c-.21-1.09-.16-1.88-.16-7.07 0-4.82 4.15-6.99 7.98-7.32.55-.04 1.02.41 1.02.99z" fill="#2fdf84"/><path d="m17.75 15.58v12.68c0 .59-.5 1.05-1.06.98-4.07-.49-6.92-4.2-7.71-7.74-.03-.13-.05-.25-.07-.36l1.71-4.63s3.37-.94 3.37-3.76c0 0 .23 1.74 3.76 2.83z" fill="#f3f3f1"/><path d="m8.536 17.81c-.982 0-1.786.788-1.786 1.75s.804 1.75 1.786 1.75z" fill="#f3f3f1"/><path d="m18 27.592v-19.184c0-.916.742-1.658 1.658-1.658.457 0 .853.317.954.763l.509 2.26c.9.333 1.722.822 2.446 1.418l2.201-.695c.44-.137.92.039 1.145.44l1.663 2.876c.225.401.147.9-.186 1.213l-1.692 1.555c.068.46.108.939.108 1.418s-.039.959-.108 1.418l1.692 1.555c.333.313.411.812.186 1.213l-1.663 2.876c-.225.401-.704.577-1.145.44l-2.201-.695c-.724.597-1.546 1.086-2.446 1.418l-.51 2.265c-.1.443-.493.758-.948.758h-.005c-.916.004-1.658-.738-1.658-1.654z" fill="#f3f3f1"/><path d="m18 13.75c2.347 0 4.25 1.903 4.25 4.25s-1.903 4.25-4.25 4.25z" fill="#2fdf84"/><path d="m11 14.07c0-4.165 3.1-6.348 6.413-7.078-.183-.164-.422-.261-.683-.242-3.83.33-7.98 2.5-7.98 7.32 0 5.19-.05 5.98.16 7.07l1.71-4.63s.149-.043.377-.132c.002-.657.003-1.413.003-2.308z" fill="#00b871"/><path d="m20.25 14.407c-.654-.41-1.421-.657-2.25-.657v8.5c.829 0 1.596-.247 2.25-.657z" fill="#00b871"/><g fill="#d5dbe1"><path d="m20.25 27.592v-5.999c-.654.41-1.421.657-2.25.657v5.342c0 .916.742 1.658 1.658 1.658h.005c.424 0 .786-.28.914-.677-.203-.276-.327-.613-.327-.981z"/><path d="m20.25 8.408c0-.368.124-.705.327-.98-.13-.398-.493-.678-.919-.678-.916 0-1.658.742-1.658 1.658v5.342c.829 0 1.596.247 2.25.657z"/><path d="m8.536 17.81c-.982 0-1.786.788-1.786 1.75s.804 1.75 1.786 1.75z"/><path d="m11.23 21.5c-.03-.13-.05-.25-.07-.36l1.71-4.63s1.784-.503 2.755-1.864c-1.505-.939-1.635-1.896-1.635-1.896 0 2.82-3.37 3.76-3.37 3.76l-1.71 4.63c.02.11.04.23.07.36.79 3.54 3.64 7.25 7.71 7.74.315.039.599-.099.798-.324-3.291-1.082-5.566-4.314-6.258-7.416z"/></g><path d="m19.663 30h-.75v-1.5h.75c.103 0 .194-.074.218-.177l.509-2.261c.056-.247.232-.45.471-.538.794-.294 1.544-.729 2.229-1.295.196-.16.459-.213.703-.136l2.201.694c.105.032.217-.005.266-.093l1.667-2.884c.051-.091.031-.214-.051-.292l-1.687-1.548c-.184-.169-.271-.418-.233-.664.066-.44.1-.881.1-1.308s-.033-.867-.1-1.308c-.037-.246.05-.495.233-.664l1.692-1.555c.076-.071.096-.194.04-.293l-1.658-2.869c-.053-.094-.16-.13-.271-.099l-2.199.693c-.244.076-.507.026-.703-.136-.685-.565-1.435-1.001-2.229-1.295-.238-.088-.415-.291-.471-.538l-.509-2.26c-.024-.1-.115-.174-.218-.174h-.75v-1.5h.75c.799 0 1.506.567 1.681 1.349l.422 1.873c.687.292 1.341.672 1.954 1.135l1.822-.574c.782-.243 1.63.088 2.023.786l1.659 2.87c.397.709.264 1.583-.322 2.134l-1.412 1.297c.043.38.064.759.064 1.13s-.021.75-.064 1.13l1.406 1.291c.592.558.726 1.432.333 2.133l-1.668 2.885c-.39.693-1.237 1.024-2.018.78l-1.824-.575c-.613.463-1.268.843-1.954 1.135l-.422 1.874c-.174.78-.881 1.347-1.68 1.347z"/><path d="m18 23v-1.5c1.93 0 3.5-1.57 3.5-3.5s-1.57-3.5-3.5-3.5v-1.5c2.757 0 5 2.243 5 5s-2.243 5-5 5z"/><path d="m14 21c-.827 0-1.5-.673-1.5-1.5s.673-1.5 1.5-1.5 1.5.673 1.5 1.5-.673 1.5-1.5 1.5z"/><path d="m9.613 21.399-1.406-.52 1.71-4.63c.083-.226.27-.398.502-.463.113-.032 2.821-.829 2.821-3.037 0-.396.307-.723.701-.748.391-.017.741.258.792.65v-.001c.002 0 .324 1.313 3.238 2.212l-.443 1.434c-1.592-.492-2.594-1.123-3.224-1.712-.772 1.499-2.371 2.245-3.105 2.521z"/><path d="m17.704 25.259c-1.008-.063-1.965-.499-2.694-1.229l1.061-1.061c.478.478 1.074.751 1.726.791z"/><path d="m8.536 22.06c-1.398 0-2.536-1.122-2.536-2.5s1.138-2.5 2.536-2.5v1.5c-.571 0-1.036.448-1.036 1s.465 1 1.036 1z"/><path d="m16.797 30c-.066 0-.133-.004-.199-.013-4.589-.553-7.546-4.705-8.353-8.329-.257-1.183-.256-1.625-.248-5.069l.003-2.521c0-5.405 4.666-7.722 8.662-8.063.457-.039.927.12 1.273.438.359.33.565.802.565 1.294v20.523c0 .503-.215.982-.589 1.313-.31.277-.709.427-1.114.427zm.006-22.5c-.005 0-.009 0-.014 0-3.523.301-7.289 2.185-7.289 6.568l-.003 2.523c-.008 3.372-.009 3.724.213 4.744.694 3.121 3.203 6.697 7.068 7.163.068.004.109-.021.139-.048.024-.021.083-.084.083-.189v-20.524c0-.073-.029-.143-.079-.188-.025-.024-.066-.049-.118-.049z"/></svg>