<svg enable-background="new 0 0 36 36" height="512" viewBox="0 0 36 36" width="512" xmlns="http://www.w3.org/2000/svg"><path d="m27.417 3.914c-6.915.129-11.732-3.365-15.064-3.302s-10.296 2.109-10.009 17.44 9.744 17.404 13.41 17.336c17.163-.321 23.911-31.703 11.663-31.474z" fill="#efefef"/><path d="m29.25 17.13v1.74c0 .51-.37.93-.87 1l-2.43.32c-.18.67-.44 1.3-.78 1.89l1.49 1.94c.31.4.27.96-.09 1.32l-1.23 1.23c-.36.36-.92.4-1.32.09l-1.94-1.49c-.59.34-1.22.6-1.89.78l-.32 2.43c-.07.5-.49.87-1 .87h-1.74c-.51 0-.93-.37-1-.87l-.32-2.43c-.67-.18-1.3-.44-1.89-.78l-1.94 1.49c-.4.31-.96.27-1.32-.09l-1.23-1.23c-.36-.36-.4-.92-.09-1.32l1.49-1.94c-.34-.59-.6-1.22-.78-1.89l-2.43-.32c-.5-.07-.87-.49-.87-1v-1.74c0-.51.37-.93.87-1l2.43-.32c.18-.67.44-1.3.78-1.89l-1.49-1.94c-.31-.4-.27-.96.09-1.32l1.23-1.23c.36-.36.92-.4 1.32-.09l1.94 1.49c.59-.34 1.22-.6 1.89-.78l.32-2.43c.07-.5.49-.87 1-.87h1.74c.51 0 .93.37 1 .87l.32 2.43c.67.18 1.3.44 1.89.78l1.94-1.49c.4-.31.96-.27 1.32.09l1.23 1.23c.36.36.4.92.09 1.32l-1.49 1.94c.34.59.6 1.22.78 1.89l2.43.32c.5.07.87.49.87 1z" fill="#f3f3f1"/><circle cx="18" cy="18" fill="#2fdf84" r="4.25"/><g fill="#d5dbe1"><path d="m16.17 10.83c.59-.34 1.22-.6 1.89-.78l.32-2.43c.058-.412.358-.722.745-.824-.083-.021-.165-.046-.255-.046h-1.74c-.51 0-.93.37-1 .87l-.32 2.43c-.156.042-.303.103-.455.154z"/><path d="m24.33 10.83 1.363-1.047-.353-.353c-.36-.36-.92-.4-1.32-.09l-1.125.864c.499.167.983.365 1.435.626z"/><path d="m11.68 25.34c-.36-.36-.4-.92-.09-1.32l1.49-1.94c-.34-.59-.6-1.22-.78-1.89l-2.43-.32c-.5-.07-.87-.49-.87-1v-1.74c0-.51.37-.93.87-1l2.43-.32c.18-.67.44-1.3.78-1.89l-1.49-1.94c-.31-.4-.27-.96.09-1.32l.877-.877-.577-.443c-.4-.31-.96-.27-1.32.09l-1.23 1.23c-.36.36-.4.92-.09 1.32l1.49 1.94c-.34.59-.6 1.22-.78 1.89l-2.43.32c-.5.07-.87.49-.87 1v1.74c0 .51.37.93.87 1l2.43.32c.18.67.44 1.3.78 1.89l-1.49 1.94c-.31.4-.27.96.09 1.32l1.23 1.23c.36.36.92.4 1.32.09l.577-.443z"/><path d="m24.33 25.17c-.452.261-.936.459-1.435.626l1.125.864c.4.31.96.27 1.32-.09l.353-.353z"/><path d="m18.38 28.38-.32-2.43c-.67-.18-1.3-.44-1.89-.78l-.815.626c.152.051.299.112.455.154l.32 2.43c.07.5.49.87 1 .87h1.74c.09 0 .172-.025.255-.046-.387-.102-.687-.412-.745-.824z"/></g><path d="m16 18c0-1.955 1.328-3.585 3.125-4.08-.361-.099-.733-.17-1.125-.17-2.347 0-4.25 1.903-4.25 4.25s1.903 4.25 4.25 4.25c.392 0 .764-.07 1.125-.17-1.797-.495-3.125-2.125-3.125-4.08z" fill="#00b871"/><g fill="#a4afc1"><path d="m26.055 4.717h1v2h-1z" transform="matrix(.707 -.707 .707 .707 3.735 20.452)"/><path d="m30.121 8.783h1v2h-1z" transform="matrix(.707 -.707 .707 .707 2.051 24.518)"/><path d="m29.444 5.217h2v1h-2z" transform="matrix(.707 -.707 .707 .707 4.875 23.202)"/><path d="m5.31 30.75c-.827 0-1.5-.673-1.5-1.5s.673-1.5 1.5-1.5 1.5.673 1.5 1.5-.673 1.5-1.5 1.5zm0-2c-.276 0-.5.224-.5.5s.224.5.5.5.5-.224.5-.5-.225-.5-.5-.5z"/></g><path d="m18.87 30h-1.74c-.886 0-1.619-.637-1.743-1.516l-.257-1.956c-.392-.13-.771-.287-1.137-.469l-1.556 1.195c-.691.536-1.685.469-2.308-.155l-1.229-1.229c-.624-.623-.69-1.616-.153-2.309l1.194-1.554c-.183-.366-.339-.746-.469-1.137l-1.949-.256c-.886-.125-1.523-.858-1.523-1.744v-1.74c0-.886.637-1.619 1.516-1.743l1.956-.257c.13-.392.287-.771.469-1.137l-1.195-1.556c-.536-.691-.47-1.684.154-2.308l1.23-1.229c.623-.624 1.617-.691 2.31-.153l1.553 1.193c.366-.183.746-.339 1.137-.469l.256-1.949c.125-.885.858-1.522 1.744-1.522h1.74c.886 0 1.619.637 1.743 1.516l.257 1.956c.392.13.771.287 1.137.469l1.556-1.195c.691-.535 1.685-.469 2.308.155l1.229 1.229c.624.623.69 1.616.153 2.309l-1.194 1.554c.183.366.339.746.469 1.137l1.949.256c.886.125 1.523.858 1.523 1.744v1.74c0 .886-.637 1.619-1.516 1.743l-1.956.257c-.13.392-.287.771-.469 1.137l1.195 1.556c.535.691.469 1.684-.155 2.308l-1.229 1.229c-.623.624-1.616.689-2.309.153l-1.554-1.194c-.366.183-.746.339-1.137.469l-.256 1.949c-.125.886-.858 1.523-1.744 1.523zm-4.95-5.58c.129 0 .258.033.375.1.531.306 1.106.543 1.71.706.292.079.509.326.549.626l.32 2.43c.018.125.124.218.256.218h1.74c.133 0 .239-.092.257-.225l.319-2.423c.04-.301.256-.548.549-.626.604-.163 1.18-.4 1.71-.706.263-.151.59-.13.832.055l1.94 1.49c.103.081.239.069.332-.025l1.23-1.23c.094-.094.105-.23.027-.331l-1.492-1.942c-.185-.241-.207-.569-.055-.832.306-.531.543-1.106.706-1.71.079-.292.326-.509.626-.549l2.43-.32c.125-.018.218-.124.218-.256v-1.74c0-.133-.092-.239-.225-.257l-2.423-.319c-.301-.04-.548-.256-.626-.549-.163-.604-.4-1.18-.706-1.71-.151-.263-.129-.591.055-.832l1.49-1.94c.08-.103.068-.238-.025-.332l-1.23-1.23c-.095-.094-.23-.106-.33-.028l-1.942 1.492c-.242.185-.569.206-.832.055-.531-.306-1.106-.543-1.71-.706-.292-.079-.509-.326-.549-.626l-.32-2.43c-.017-.126-.123-.218-.256-.218h-1.74c-.133 0-.239.092-.257.225l-.319 2.423c-.04.301-.256.548-.549.626-.604.163-1.18.4-1.71.706-.264.151-.591.129-.832-.055l-1.94-1.49c-.102-.079-.238-.068-.332.025l-1.23 1.23c-.094.094-.105.23-.027.331l1.492 1.942c.185.241.207.569.055.832-.306.531-.543 1.106-.706 1.71-.079.292-.326.509-.626.549l-2.43.32c-.127.017-.219.123-.219.256v1.74c0 .133.092.239.225.257l2.423.319c.301.04.548.256.626.549.163.604.4 1.18.706 1.71.151.263.129.591-.055.832l-1.49 1.94c-.08.103-.068.238.025.332l1.23 1.23c.094.093.229.105.331.027l1.942-1.492c.134-.102.295-.154.457-.154z"/><path d="m18 23c-2.757 0-5-2.243-5-5s2.243-5 5-5 5 2.243 5 5-2.243 5-5 5zm0-8.5c-1.93 0-3.5 1.57-3.5 3.5s1.57 3.5 3.5 3.5 3.5-1.57 3.5-3.5-1.57-3.5-3.5-3.5z"/></svg>