<svg id="_x31__x2C_5" enable-background="new 0 0 36 36" height="512" viewBox="0 0 36 36" width="512" xmlns="http://www.w3.org/2000/svg"><path d="m27.623 31.833c-6.917 0-11.667 3.583-15 3.583s-10.333-1.916-10.333-17.249 9.417-17.584 13.083-17.584c17.167 0 24.5 31.25 12.25 31.25z" fill="#efefef"/><g fill="#a4afc1"><path d="m30.679 3.644h2v1h-2z" transform="matrix(.707 -.707 .707 .707 6.349 23.614)"/><path d="m31.533 7.033h1v2h-1z" transform="matrix(.707 -.707 .707 .707 3.705 25.009)"/><path d="m27.467 2.967h1v2h-1z" transform="matrix(.707 -.707 .707 .707 5.389 20.941)"/></g><circle cx="18" cy="18" fill="#f3f3f1" r="9.25"/><circle cx="18" cy="18" fill="#2fdf84" r="2.75"/><path d="m11 18c0-4.727 3.548-8.619 8.125-9.175-.37-.045-.743-.075-1.125-.075-5.109 0-9.25 4.141-9.25 9.25s4.141 9.25 9.25 9.25c.382 0 .755-.03 1.125-.075-4.577-.556-8.125-4.448-8.125-9.175z" fill="#d5dbe1"/><path d="m17.5 18c0-1.117.669-2.074 1.625-2.504-.344-.155-.723-.246-1.125-.246-1.519 0-2.75 1.231-2.75 2.75s1.231 2.75 2.75 2.75c.402 0 .781-.091 1.125-.246-.956-.43-1.625-1.387-1.625-2.504z" fill="#00b871"/><path d="m18 21.5c-1.93 0-3.5-1.57-3.5-3.5s1.57-3.5 3.5-3.5 3.5 1.57 3.5 3.5-1.57 3.5-3.5 3.5zm0-5.5c-1.103 0-2 .897-2 2s.897 2 2 2 2-.897 2-2-.897-2-2-2z"/><path d="m17.25 20h1.5v3.5h-1.5z"/><path d="m17.25 12.5h1.5v3.5h-1.5z"/><path d="m19.505 15.38h3.621v1.5h-3.621z" transform="matrix(.882 -.472 .472 .882 -5.089 11.964)"/><path d="m12.875 19.12h3.621v1.5h-3.621z" transform="matrix(.882 -.472 .472 .882 -7.637 9.279)"/><path d="m13.935 14.32h1.5v3.621h-1.5z" transform="matrix(.472 -.882 .882 .472 -6.463 21.475)"/><path d="m20.565 18.06h1.5v3.621h-1.5z" transform="matrix(.472 -.882 .882 .472 -6.258 29.299)"/><path d="m18 28c-5.514 0-10-4.486-10-10s4.486-10 10-10 10 4.486 10 10-4.486 10-10 10zm0-18.5c-4.687 0-8.5 3.813-8.5 8.5s3.813 8.5 8.5 8.5 8.5-3.813 8.5-8.5-3.813-8.5-8.5-8.5z"/><path d="m17.25 6h1.5v4.435h-1.5z"/><path d="m17.25 25.565h1.5v4.435h-1.5z"/><path d="m25.565 17.25h4.435v1.5h-4.435z"/><path d="m6 17.25h4.435v1.5h-4.435z"/></svg>