<svg id="_x31__x2C_5" height="512" viewBox="0 0 36 36" width="512" xmlns="http://www.w3.org/2000/svg"><path d="m31.833 8.377c0 6.917 3.583 11.667 3.583 15s-1.916 10.333-17.249 10.333-17.584-9.417-17.584-13.083c0-17.167 31.25-24.5 31.25-12.25z" fill="#efefef"/><g fill="#a4afc1"><path d="m28.467 1.967h1v2h-1z" transform="matrix(.707 -.707 .707 .707 6.383 21.348)"/><path d="m32.533 6.033h1v2h-1z" transform="matrix(.707 -.707 .707 .707 4.699 25.413)"/><path d="m31.856 2.467h2v1h-2z" transform="matrix(.707 -.707 .707 .707 7.525 24.102)"/></g><path d="m25.872 13.204c.091-.54.091-.869 0-1.408l1.185-.88c.193-.144.25-.415.131-.629l-.739-1.324c-.119-.213-.375-.298-.592-.197l-1.34.624c-.347-.3-.738-.54-1.171-.703l-.146-1.506c-.024-.245-.223-.431-.461-.431h-1.479c-.238 0-.438.187-.461.431l-.146 1.506c-.432.163-.824.403-1.17.703l-1.339-.625c-.217-.101-.473-.016-.592.197l-.739 1.324c-.119.213-.062.485.131.629l1.185.88c-.091.54-.091.869 0 1.408l-1.185.88c-.193.144-.25.415-.131.629l.739 1.324c.119.213.375.298.592.197l1.339-.624c.347.3.738.54 1.171.703l.146 1.506c.024.245.223.431.461.431h1.479c.238 0 .438-.187.461-.431l.146-1.506c.433-.163.824-.403 1.171-.703l1.339.624c.217.101.473.016.592-.197l.739-1.324c.119-.213.062-.485-.131-.629z" fill="#2fdf84"/><path d="m11.75 14.75h-2.5v-6.75c0-.69.56-1.25 1.25-1.25.69 0 1.25.56 1.25 1.25z" fill="#2fdf84"/><circle cx="22" cy="12.5" fill="#f3f3f1" r="1.75"/><path d="m10.5 26.25c-1.519 0-2.75-1.231-2.75-2.75v-7.75c0-.552.448-1 1-1h3.5c.552 0 1 .448 1 1v7.75c0 1.519-1.231 2.75-2.75 2.75z" fill="#f3f3f1"/><path d="m22.5 12.5c0-.536.246-1.009.625-1.33-.305-.258-.694-.42-1.125-.42-.966 0-1.75.784-1.75 1.75s.784 1.75 1.75 1.75c.431 0 .82-.162 1.125-.42-.379-.321-.625-.794-.625-1.33z" fill="#d5dbe1"/><path d="m10 23.5v-7.75c0-.552.448-1 1-1h-2.25c-.552 0-1 .448-1 1v7.75c0 1.519 1.231 2.75 2.75 2.75.402 0 .781-.091 1.125-.246-.956-.43-1.625-1.387-1.625-2.504z" fill="#d5dbe1"/><path d="m19.062 14.713c-.119-.213-.062-.485.131-.629l1.185-.88c-.091-.54-.091-.869 0-1.408l-1.185-.88c-.193-.144-.25-.415-.131-.629l.556-.995c-.044.035-.093.062-.135.099l-1.339-.625c-.217-.101-.473-.016-.592.197l-.74 1.324c-.119.213-.063.485.131.629l1.185.88c-.091.54-.091.869 0 1.408l-1.185.88c-.193.144-.25.415-.131.629l.74 1.324c.119.213.375.298.592.197l1.339-.624c.042.037.092.064.135.099z" fill="#00b871"/><path d="m11.625 7.474c-.2-.425-.625-.724-1.125-.724-.69 0-1.25.56-1.25 1.25v6.75h2.25v-6.75c0-.19.049-.365.125-.526z" fill="#00b871"/><path d="m22 15c-1.379 0-2.5-1.122-2.5-2.5s1.121-2.5 2.5-2.5 2.5 1.122 2.5 2.5-1.121 2.5-2.5 2.5zm0-3.5c-.552 0-1 .449-1 1s.448 1 1 1 1-.449 1-1-.448-1-1-1z"/><path d="m22.739 19h-1.479c-.626 0-1.146-.476-1.208-1.107l-.104-1.071c-.195-.099-.384-.211-.565-.338l-.923.431c-.567.264-1.255.042-1.563-.51l-.74-1.325c-.303-.542-.157-1.228.339-1.596l.83-.617c-.022-.25-.022-.48 0-.73l-.83-.617c-.496-.368-.642-1.055-.338-1.597l.738-1.324c.311-.553.998-.775 1.565-.51l.922.43c.182-.127.37-.24.565-.338l.104-1.069c.063-.636.583-1.112 1.209-1.112h1.479c.626 0 1.146.476 1.208 1.107l.104 1.071c.195.099.384.211.565.338l.923-.431c.567-.266 1.254-.043 1.563.51l.74 1.324c.303.542.156 1.229-.339 1.597l-.83.617c.022.25.022.48 0 .73l.83.617c.496.368.642 1.055.338 1.597l-.738 1.324c-.311.552-.998.776-1.565.51l-.922-.43c-.182.127-.37.24-.565.338l-.104 1.069c-.063.636-.583 1.112-1.209 1.112zm-1.218-1.5h.957l.122-1.259c.027-.284.214-.528.48-.629.34-.128.658-.32.945-.569.225-.194.539-.238.809-.113l1.089.508.497-.891-.996-.741c-.227-.168-.34-.45-.292-.728.077-.454.077-.703 0-1.156-.048-.278.065-.56.292-.728l.997-.741-.498-.891-1.089.508c-.27.125-.584.081-.809-.113-.287-.249-.605-.44-.945-.569-.267-.101-.453-.345-.48-.629l-.121-1.259h-.957l-.122 1.259c-.027.284-.214.528-.48.629-.34.128-.658.32-.945.569-.225.194-.54.238-.809.113l-1.089-.508-.497.891.996.741c.227.168.34.45.292.728-.077.454-.077.703 0 1.156.048.278-.065.56-.292.728l-.996.741.497.891 1.089-.508c.269-.125.584-.082.809.113.287.249.605.44.945.569.267.101.453.345.48.629z"/><path d="m11.75 15.5h-2.5c-.414 0-.75-.336-.75-.75v-6.75c0-1.103.897-2 2-2s2 .897 2 2v6.75c0 .414-.336.75-.75.75zm-1.75-1.5h1v-6c0-.276-.225-.5-.5-.5s-.5.224-.5.5z"/><path d="m10.5 27c-1.93 0-3.5-1.57-3.5-3.5v-7.75c0-.965.785-1.75 1.75-1.75h3.5c.965 0 1.75.785 1.75 1.75v7.75c0 1.93-1.57 3.5-3.5 3.5zm-1.75-11.5c-.138 0-.25.112-.25.25v7.75c0 1.103.897 2 2 2s2-.897 2-2v-7.75c0-.138-.112-.25-.25-.25z"/><path d="m9.25 10.75h2.5v1.5h-2.5z"/><path d="m9.75 17.75h1.5v4.5h-1.5z"/><path d="m22 30h-8.5c-2.067 0-3.75-1.682-3.75-3.75v-.75h1.5v.75c0 1.241 1.01 2.25 2.25 2.25h8.5z"/></svg>