<svg id="_x31__x2C_5" enable-background="new 0 0 36 36" height="512" viewBox="0 0 36 36" width="512" xmlns="http://www.w3.org/2000/svg"><path d="m31.833 8.377c0 6.917 3.583 11.667 3.583 15s-1.916 10.333-17.249 10.333-17.584-9.417-17.584-13.083c0-17.167 31.25-24.5 31.25-12.25z" fill="#f3f3f1"/><path d="m29.93 4.707h2v1h-2z" fill="#a4afc1" transform="matrix(.707 -.707 .707 .707 5.378 23.396)"/><path d="m30.783 8.096h1v2h-1z" fill="#a4afc1" transform="matrix(.707 -.707 .707 .707 2.731 24.785)"/><path d="m26.717 4.03h1v2h-1z" fill="#a4afc1" transform="matrix(.707 -.707 .707 .707 4.415 20.718)"/><path d="m28.389 20.974c.333.313.411.812.186 1.213l-1.663 2.876c-.225.401-.704.577-1.145.44l-2.201-.695c-.724.597-1.546 1.086-2.446 1.418l-.509 2.26c-.098.44-.489.763-.949.763h-3.326c-.46 0-.851-.323-.949-.763l-.509-2.26c-.9-.333-1.722-.822-2.446-1.418l-2.201.695c-.44.137-.92-.039-1.145-.44l-1.663-2.876c-.225-.401-.147-.9.186-1.213l1.692-1.555c-.066-.46-.105-.94-.105-1.419s.039-.959.108-1.418l-1.692-1.555c-.333-.313-.411-.812-.186-1.213l1.663-2.876c.225-.401.704-.577 1.145-.44l2.201.695c.724-.597 1.546-1.086 2.446-1.418l.509-2.26c.098-.44.489-.763.949-.763h3.326c.46 0 .851.323.949.763l.509 2.26c.9.333 1.722.822 2.446 1.418l2.201-.695c.44-.137.92.039 1.145.44l1.663 2.876c.225.401.147.9-.186 1.213l-1.692 1.555c.068.46.108.939.108 1.418s-.039.959-.108 1.418z" fill="#efefef"/><g fill="#d5dbe1"><path d="m14.684 11.191c.724-.597 1.546-1.086 2.446-1.419l.509-2.26c.098-.44.489-.763.949-.763h-2.25c-.46 0-.851.323-.949.763l-.509 2.26c-.633.234-1.225.549-1.773.921z"/><path d="m11.338 25.063-1.663-2.876c-.225-.401-.147-.9.186-1.213l1.692-1.555c-.068-.46-.108-.939-.108-1.418s.039-.959.108-1.419l-1.692-1.555c-.333-.313-.411-.812-.186-1.213l1.663-2.876c.016-.028.041-.047.06-.073l-1.165-.368c-.44-.137-.92.039-1.145.44l-1.663 2.876c-.225.401-.147.9.186 1.213l1.692 1.555c-.068.46-.107.94-.107 1.419s.039.959.108 1.418l-1.692 1.555c-.333.313-.411.812-.186 1.213l1.663 2.876c.225.401.704.577 1.145.44l1.165-.368c-.019-.024-.045-.043-.061-.071z"/><path d="m25.816 11.191 1.036-.327c-.241-.343-.676-.495-1.085-.368l-.623.197c.232.157.458.321.672.498z"/><path d="m25.816 24.809c-.215.177-.441.341-.672.498l.623.197c.409.127.844-.025 1.085-.368z"/><path d="m17.638 28.487-.509-2.26c-.9-.333-1.722-.822-2.446-1.418l-1.578.498c.549.372 1.14.687 1.773.921l.509 2.26c.098.44.489.763.949.763h2.25c-.459-.001-.85-.324-.948-.764z"/></g><path d="m19.663 30h-3.326c-.812 0-1.503-.555-1.681-1.349l-.422-1.873c-.687-.291-1.341-.671-1.954-1.134l-1.822.575c-.783.24-1.632-.09-2.024-.788l-1.658-2.868c-.397-.71-.263-1.585.322-2.135l1.412-1.298c-.043-.38-.065-.759-.065-1.13s.021-.75.064-1.13l-1.406-1.292c-.591-.556-.726-1.43-.333-2.131l1.668-2.885c.388-.69 1.236-1.024 2.017-.781l1.825.576c.613-.463 1.268-.843 1.954-1.134l.422-1.874c.178-.794.869-1.349 1.681-1.349h3.326c.812 0 1.503.555 1.681 1.349l.422 1.873c.687.291 1.341.671 1.954 1.134l1.822-.575c.779-.242 1.631.089 2.024.788l1.658 2.868c.397.71.263 1.585-.322 2.135l-1.412 1.298c.043.38.064.759.064 1.13s-.021.75-.064 1.13l1.406 1.292.006.006c.585.55.72 1.424.327 2.125l-1.668 2.885c-.388.69-1.239 1.022-2.017.781l-1.825-.576c-.613.463-1.268.843-1.954 1.134l-.422 1.874c-.177.794-.868 1.349-1.68 1.349zm-7.229-5.941c.172 0 .341.059.478.171.685.565 1.435 1 2.228 1.293.238.088.416.291.472.539l.509 2.26c.023.103.115.178.218.178h3.326c.103 0 .194-.075.218-.177l.509-2.26c.056-.248.233-.451.472-.539.793-.293 1.543-.729 2.228-1.293.196-.162.459-.214.703-.137l2.201.695c.105.033.216-.004.265-.093l1.668-2.884c.05-.089.032-.211-.049-.289l-1.688-1.552c-.184-.169-.271-.417-.233-.664.066-.44.1-.88.1-1.307s-.033-.866-.1-1.307c-.037-.247.05-.495.233-.664l1.692-1.556c.076-.072.096-.195.04-.294l-1.658-2.867c-.054-.096-.162-.133-.272-.1l-2.198.694c-.244.078-.507.024-.703-.137-.685-.565-1.435-1-2.228-1.293-.238-.088-.416-.291-.472-.539l-.509-2.26c-.027-.102-.118-.177-.221-.177h-3.326c-.103 0-.194.075-.218.177l-.509 2.26c-.056.248-.233.451-.472.539-.793.293-1.543.729-2.228 1.293-.196.161-.459.214-.703.137l-2.201-.695c-.104-.031-.216.005-.265.093l-1.668 2.884c-.051.09-.031.213.051.291l1.687 1.55c.184.169.271.417.233.664-.066.44-.1.88-.1 1.307s.033.866.1 1.307c.037.247-.05.495-.233.664l-1.692 1.556c-.076.072-.096.195-.04.294l1.658 2.867c.055.096.163.136.272.1l2.198-.694c.075-.024.151-.035.227-.035z"/><path d="m17.251 22c-.057 0-.113-.006-.17-.019-.403-.093-.655-.496-.562-.899l1.5-6.5c.094-.405.503-.653.899-.563.403.093.655.496.562.899l-1.5 6.5c-.08.348-.388.582-.729.582z"/><path d="m21.25 21c-.205 0-.409-.083-.558-.248-.277-.308-.252-.782.056-1.06l1.881-1.692-1.881-1.692c-.308-.277-.333-.751-.056-1.06.278-.307.752-.332 1.06-.056l2.5 2.25c.158.143.248.346.248.558s-.09.415-.248.558l-2.5 2.25c-.144.129-.323.192-.502.192z"/><path d="m14.75 21c-.179 0-.358-.063-.502-.192l-2.5-2.25c-.158-.143-.248-.346-.248-.558s.09-.415.248-.558l2.5-2.25c.308-.277.781-.252 1.06.056.277.308.252.782-.056 1.06l-1.881 1.692 1.881 1.692c.308.277.333.751.056 1.06-.149.165-.353.248-.558.248z"/></svg>