<svg id="_x31__x2C_5" height="512" viewBox="0 0 36 36" width="512" xmlns="http://www.w3.org/2000/svg"><path d="m31.833 27.623c0-6.917 3.583-11.667 3.583-15s-1.916-10.333-17.249-10.333-17.584 9.417-17.584 13.083c0 17.167 31.25 24.5 31.25 12.25z" fill="#efefef"/><path d="m31.5 7c-.827 0-1.5-.673-1.5-1.5s.673-1.5 1.5-1.5 1.5.673 1.5 1.5-.673 1.5-1.5 1.5zm0-2c-.275 0-.5.224-.5.5s.225.5.5.5.5-.224.5-.5-.225-.5-.5-.5z" fill="#a4afc1"/><path d="m27.872 13.204c.091-.54.091-.869 0-1.408l1.185-.88c.193-.144.25-.415.131-.629l-.739-1.324c-.119-.213-.375-.298-.592-.197l-1.34.624c-.347-.3-.738-.54-1.171-.703l-.146-1.506c-.024-.245-.223-.431-.461-.431h-1.479c-.238 0-.438.187-.461.431l-.146 1.506c-.432.163-.824.403-1.17.703l-1.339-.625c-.217-.101-.473-.016-.592.197l-.739 1.324c-.119.213-.062.485.131.629l1.185.88c-.091.54-.091.869 0 1.408l-1.185.88c-.193.144-.25.415-.131.629l.739 1.324c.119.213.375.298.592.197l1.339-.624c.347.3.738.54 1.171.703l.146 1.506c.024.245.223.431.461.431h1.479c.238 0 .438-.187.461-.431l.146-1.506c.433-.163.824-.403 1.171-.703l1.339.624c.217.101.473.016.592-.197l.739-1.324c.119-.213.062-.485-.131-.629z" fill="#2fdf84"/><circle cx="24" cy="12.5" fill="#f3f3f1" r="1.75"/><path d="m9.801 18.25c-1.685 0-3.051-1.366-3.051-3.051v-2.449c0-1.105.895-2 2-2h5c1.105 0 2 .895 2 2v2.449c0 1.685-1.366 3.051-3.051 3.051z" fill="#f3f3f1"/><path d="m24.5 12.5c0-.536.246-1.009.625-1.33-.305-.258-.694-.42-1.125-.42-.966 0-1.75.784-1.75 1.75s.784 1.75 1.75 1.75c.431 0 .82-.162 1.125-.42-.379-.321-.625-.794-.625-1.33z" fill="#d5dbe1"/><path d="m9 15.199v-2.449c0-1.105.895-2 2-2h-2.25c-1.105 0-2 .895-2 2v2.449c0 1.685 1.366 3.051 3.051 3.051h2.25c-1.685 0-3.051-1.366-3.051-3.051z" fill="#d5dbe1"/><path d="m21.062 14.713c-.119-.213-.062-.485.131-.629l1.185-.88c-.091-.54-.091-.869 0-1.408l-1.185-.88c-.193-.144-.25-.415-.131-.629l.556-.995c-.044.035-.093.062-.135.099l-1.339-.625c-.217-.101-.473-.016-.592.197l-.74 1.324c-.119.213-.063.485.131.629l1.185.88c-.091.54-.091.869 0 1.408l-1.185.88c-.193.144-.25.415-.131.629l.74 1.324c.119.213.375.298.592.197l1.339-.624c.042.037.092.064.135.099z" fill="#00b871"/><path d="m24 15c-1.379 0-2.5-1.122-2.5-2.5s1.121-2.5 2.5-2.5 2.5 1.122 2.5 2.5-1.121 2.5-2.5 2.5zm0-3.5c-.552 0-1 .449-1 1s.448 1 1 1 1-.449 1-1-.448-1-1-1z"/><path d="m24.739 19h-1.479c-.626 0-1.146-.476-1.208-1.107l-.104-1.071c-.195-.099-.384-.211-.565-.338l-.923.431c-.566.264-1.255.043-1.563-.51l-.74-1.325c-.303-.542-.157-1.228.339-1.596l.83-.617c-.022-.25-.022-.48 0-.73l-.83-.617c-.496-.368-.642-1.055-.338-1.597l.738-1.324c.311-.553.997-.776 1.565-.51l.922.43c.182-.127.37-.24.565-.338l.104-1.069c.063-.636.583-1.112 1.209-1.112h1.479c.626 0 1.146.476 1.208 1.107l.104 1.071c.195.099.384.211.565.338l.923-.431c.567-.265 1.255-.042 1.563.51l.74 1.324c.303.542.156 1.229-.339 1.597l-.83.617c.022.25.022.48 0 .73l.83.617c.496.368.642 1.055.338 1.597l-.738 1.324c-.31.553-.997.775-1.565.51l-.922-.43c-.182.127-.37.24-.565.338l-.104 1.069c-.063.636-.583 1.112-1.209 1.112zm-1.218-1.5h.957l.122-1.259c.027-.284.214-.528.48-.629.34-.128.658-.32.945-.569.225-.194.54-.238.809-.113l1.089.508.497-.891-.996-.741c-.227-.168-.34-.45-.292-.728.077-.454.077-.703 0-1.156-.048-.278.065-.56.292-.728l.997-.741-.498-.891-1.089.508c-.269.125-.584.081-.809-.113-.287-.249-.605-.44-.945-.569-.267-.101-.453-.345-.48-.629l-.121-1.259h-.957l-.122 1.259c-.027.284-.214.528-.48.629-.34.128-.658.32-.945.569-.225.193-.54.238-.809.113l-1.089-.508-.497.891.996.741c.227.168.34.45.292.728-.077.454-.077.703 0 1.156.048.278-.065.56-.292.728l-.996.741.497.891 1.089-.508c.269-.125.584-.081.809.113.287.249.605.44.945.569.267.101.453.345.48.629z"/><path d="m12.698 19h-2.896c-2.097 0-3.802-1.705-3.802-3.801v-2.449c0-1.517 1.233-2.75 2.75-2.75h5c1.517 0 2.75 1.233 2.75 2.75v2.449c0 2.096-1.705 3.801-3.802 3.801zm-3.948-7.5c-.689 0-1.25.561-1.25 1.25v2.449c0 1.269 1.032 2.301 2.302 2.301h2.896c1.27 0 2.302-1.032 2.302-2.301v-2.449c0-.689-.561-1.25-1.25-1.25z"/><path d="m12 6h1.5v5.5h-1.5z"/><path d="m9.75 13h3v1.5h-3z"/><path d="m9 6h1.5v5.5h-1.5z"/><path d="m17.25 30c-3.722 0-6.75-3.028-6.75-6.75v-5.5h1.5v5.5c0 2.895 2.355 5.25 5.25 5.25s5.25-2.355 5.25-5.25v-1.75h1.5v1.75c0 3.722-3.028 6.75-6.75 6.75z"/></svg>