<svg enable-background="new 0 0 36 36" height="512" viewBox="0 0 36 36" width="512" xmlns="http://www.w3.org/2000/svg"><path d="m1.063 15.31c3.655 5.872 3.123 11.798 4.885 14.628s7.088 7.76 20.105-.343 9.951-17.286 8.014-20.399c-9.072-14.574-39.477-4.285-33.004 6.114z" fill="#efefef"/><circle cx="23" cy="12.5" fill="#2fdf84" r="2.75"/><path d="m22.5 12.5c0-1.117.669-2.074 1.625-2.504-.344-.155-.723-.246-1.125-.246-1.519 0-2.75 1.231-2.75 2.75s1.231 2.75 2.75 2.75c.402 0 .781-.091 1.125-.246-.956-.43-1.625-1.387-1.625-2.504z" fill="#00b871"/><path d="m11.503 19.863-.23.85-1.47 5.43-.3 1.11h-2.75v-8.5c3.29 0 4.75 1.11 4.75 1.11z" fill="#2fdf84"/><path d="m6.753 18.753v8.5h2.25v-8.301c-.626-.116-1.367-.199-2.25-.199z" fill="#00b871"/><path d="m29.253 25.253s-7.25 4-10.25 4c-2.38 0-7.28-2.21-9.2-3.11l1.47-5.43 9.63 1.97c.93.19 1.6 1.01 1.6 1.96v.44c1.44-.45 2.95-1.08 4.25-1.08 2 0 2.5 1.25 2.5 1.25z" fill="#f3f3f1"/><path d="m12.053 26.393 1.416-5.231-2.196-.449-1.47 5.43c1.92.9 6.82 3.11 9.2 3.11.123 0 .264-.017.401-.03-2.518-.62-5.847-2.125-7.351-2.83z" fill="#d5dbe1"/><g fill="#a4afc1"><path d="m4.556 4.055h1v2h-1z" transform="matrix(.707 -.707 .707 .707 -2.094 5.054)"/><path d="m8.621 8.121h1v2h-1z" transform="matrix(.707 -.707 .707 .707 -3.778 9.119)"/><path d="m3.879 8.621h2v1h-2z" transform="matrix(.707 -.707 .707 .707 -5.021 6.122)"/><path d="m7.944 4.555h2v1h-2z" transform="matrix(.707 -.707 .707 .707 -.955 7.805)"/><path d="m31 31.5c-.827 0-1.5-.673-1.5-1.5s.673-1.5 1.5-1.5 1.5.673 1.5 1.5-.673 1.5-1.5 1.5zm0-2c-.275 0-.5.224-.5.5s.225.5.5.5.5-.224.5-.5-.225-.5-.5-.5z"/></g><path d="m23 16c-1.93 0-3.5-1.57-3.5-3.5s1.57-3.5 3.5-3.5 3.5 1.57 3.5 3.5-1.57 3.5-3.5 3.5zm0-5.5c-1.103 0-2 .897-2 2s.897 2 2 2 2-.897 2-2-.897-2-2-2z"/><path d="m22.25 15.25h1.5v2h-1.5z"/><path d="m22.25 7.75h1.5v2h-1.5z"/><path d="m25.246 9.88h1.999v1.5h-1.999z" transform="matrix(.866 -.5 .5 .866 -1.799 14.549)"/><path d="m18.756 13.62h1.999v1.5h-1.999z" transform="matrix(.866 -.5 .5 .866 -4.539 11.804)"/><path d="m19.005 9.631h1.5v1.999h-1.5z" transform="matrix(.5 -.866 .866 .5 .667 22.416)"/><path d="m25.495 13.371h1.5v1.999h-1.5z" transform="matrix(.5 -.866 .866 .5 .672 29.904)"/><path d="m9.5 28h-2.75c-.414 0-.75-.336-.75-.75v-8.5c0-.414.336-.75.75-.75 3.506 0 5.138 1.217 5.205 1.269.242.185.349.498.269.792l-2 7.386c-.088.326-.385.553-.724.553zm-2-1.5h1.426l1.698-6.271c-.523-.247-1.545-.615-3.124-.707z"/><path d="m19 30c-2.405 0-7.009-2-9.539-3.191l.639-1.357c4.112 1.938 7.356 3.049 8.9 3.049 2.028 0 6.632-2.191 9.045-3.455-.278-.159-.692-.295-1.295-.295-.878 0-1.964.362-3.013.711-1.163.388-2.365.789-3.487.789-2.107 0-4.889-1.002-5.006-1.045l.512-1.41c.026.01 2.652.955 4.494.955.878 0 1.964-.362 3.013-.711 1.163-.388 2.365-.789 3.487-.789 2.479 0 3.168 1.651 3.196 1.722.141.351-.003.752-.334.935-.302.166-7.455 4.092-10.612 4.092z"/><path d="m23.25 25.09h-1.5v-.45c0-.591-.421-1.107-1-1.225l-9.631-1.97.301-1.47 9.631 1.97c1.274.26 2.199 1.394 2.199 2.695z"/></svg>