<svg enable-background="new 0 0 36 36" height="512" viewBox="0 0 36 36" width="512" xmlns="http://www.w3.org/2000/svg"><path d="m4.167 27.623c0-6.917-3.583-11.667-3.583-15s1.916-10.333 17.249-10.333 17.583 9.417 17.583 13.083c.001 17.167-31.249 24.5-31.249 12.25z" fill="#efefef"/><circle cx="23.5" cy="18" fill="#2fdf84" r="2.75"/><path d="m23 18c0-1.117.669-2.074 1.625-2.504-.344-.155-.723-.246-1.125-.246-1.519 0-2.75 1.231-2.75 2.75s1.231 2.75 2.75 2.75c.402 0 .781-.091 1.125-.246-.956-.43-1.625-1.387-1.625-2.504z" fill="#00b871"/><path d="m18.75 6h.5v1.5h-.5z"/><path d="m8.75 6h.5v1.5h-.5z"/><path d="m18.75 6.75c-.83 0-1.5.67-1.5 1.5 0 .55-.45 1-1 1h-4.5c-.55 0-1-.45-1-1 0-.83-.67-1.5-1.5-1.5z" fill="#2fdf84"/><path d="m21.25 8.71v18.58c0 1.08-.87 1.96-1.93 1.96h-10.64c-1.06 0-1.93-.88-1.93-1.96v-18.58c0-1.08.87-1.96 1.93-1.96h.57c.83 0 1.5.67 1.5 1.5 0 .55.45 1 1 1h4.5c.55 0 1-.45 1-1 0-.83.67-1.5 1.5-1.5h.57c1.06 0 1.93.88 1.93 1.96z" fill="#f3f3f1"/><path d="m9 27.29v-18.58c0-.753.428-1.401 1.043-1.729-.23-.144-.501-.231-.793-.231h-.57c-1.06 0-1.93.88-1.93 1.96v18.58c0 1.08.87 1.96 1.93 1.96h2.25c-1.06 0-1.93-.88-1.93-1.96z" fill="#d5dbe1"/><g fill="#a4afc1"><path d="m27.61 6.217c-.827 0-1.5-.673-1.5-1.5s.673-1.5 1.5-1.5 1.5.673 1.5 1.5-.672 1.5-1.5 1.5zm0-2c-.275 0-.5.224-.5.5s.225.5.5.5.5-.224.5-.5-.224-.5-.5-.5z"/><path d="m26.166 25.707h1v2h-1z" transform="matrix(.707 -.707 .707 .707 -11.075 26.691)"/><path d="m30.231 29.773h1v2h-1z" transform="matrix(.707 -.707 .707 .707 -12.759 30.744)"/><path d="m25.488 30.273h2v1h-2z" transform="matrix(.707 -.707 .707 .707 -14.002 27.743)"/><path d="m29.555 26.207h2v1h-2z" transform="matrix(.707 -.707 .707 .707 -9.936 29.428)"/></g><path d="m23.5 21.5c-1.93 0-3.5-1.57-3.5-3.5s1.57-3.5 3.5-3.5 3.5 1.57 3.5 3.5-1.57 3.5-3.5 3.5zm0-5.5c-1.103 0-2 .897-2 2s.897 2 2 2 2-.897 2-2-.897-2-2-2z"/><path d="m22.75 20.75h1.5v2h-1.5z"/><path d="m22.75 13.25h1.5v2h-1.5z"/><path d="m25.746 15.38h1.999v1.5h-1.999z" transform="matrix(.866 -.5 .5 .866 -4.482 15.536)"/><path d="m19.256 19.12h1.999v1.5h-1.999z" transform="matrix(.866 -.5 .5 .866 -7.222 12.792)"/><path d="m19.505 15.131h1.5v1.999h-1.5z" transform="matrix(.5 -.866 .866 .5 -3.845 25.597)"/><path d="m25.995 18.871h1.5v1.999h-1.5z" transform="matrix(.5 -.866 .866 .5 -3.841 33.085)"/><path d="m16.25 10h-4.5c-.965 0-1.75-.785-1.75-1.75 0-.414-.337-.75-.75-.75h-.5v-1.5h.5c1.24 0 2.25 1.009 2.25 2.25 0 .138.112.25.25.25h4.5c.138 0 .25-.112.25-.25 0-1.241 1.01-2.25 2.25-2.25h.5v1.5h-.5c-.413 0-.75.336-.75.75 0 .965-.785 1.75-1.75 1.75z"/><path d="m19.316 30h-10.632c-1.48 0-2.684-1.214-2.684-2.707v-18.586c0-1.493 1.204-2.707 2.684-2.707h10.633c1.479 0 2.683 1.214 2.683 2.707v3.503h-1.5v-3.503c0-.666-.531-1.207-1.184-1.207h-10.632c-.653 0-1.184.541-1.184 1.207v18.587c0 .666.531 1.207 1.184 1.207h10.633c.652 0 1.184-.541 1.184-1.207v-3.504h1.499v3.503c0 1.493-1.204 2.707-2.684 2.707z"/></svg>