<svg fill="none" height="512" viewBox="0 0 36 36" width="512" xmlns="http://www.w3.org/2000/svg"><path d="m32.6685 29.9696c-1.8629 5.5888-16.5592 2.3287-22.5101.7763-10.090753-2.3287-4.65727-11.6432-6.20969-14.748-1.55243-3.1049-2.32865-6.98597 6.98589-12.41944 7.1839-4.190591 20.9577.77622 17.8529 5.43349-4.6573 6.98595 6.2097 13.97175 3.881 20.95765z" fill="#efefef"/><path d="m18 13.25c-3.7279 0-6.75 3.0221-6.75 6.75s3.0221 6.75 6.75 6.75 6.75-3.0221 6.75-6.75-3.0221-6.75-6.75-6.75z" fill="#2edf84"/><g clip-rule="evenodd" fill-rule="evenodd"><path d="m11.25 20c0-3.7279 3.0221-6.75 6.75-6.75.4271 0 .8449.0397 1.25.1155-3.1307.5862-5.5 3.3337-5.5 6.6345s2.3693 6.0483 5.5 6.6345c-.4051.0758-.8229.1155-1.25.1155-3.7279 0-6.75-3.0221-6.75-6.75z" fill="#00b872"/><path d="m18 10.75c-5.1086 0-9.25 4.1414-9.25 9.25 0 2.0836.68804 4.0044 1.8496 5.5505l-1.19922.901c-1.35006-1.7969-2.15038-4.0318-2.15038-6.4515 0-5.9371 4.8129-10.75 10.75-10.75s10.75 4.8129 10.75 10.75c0 2.4197-.8003 4.6546-2.1504 6.4515l-1.1992-.901c1.1616-1.5461 1.8496-3.4669 1.8496-5.5505 0-5.1086-4.1414-9.25-9.25-9.25z" fill="#000"/><path d="m18 14.75c-2.8995 0-5.25 2.3505-5.25 5.25s2.3505 5.25 5.25 5.25 5.25-2.3505 5.25-5.25-2.3505-5.25-5.25-5.25zm-6.75 5.25c0-3.7279 3.0221-6.75 6.75-6.75s6.75 3.0221 6.75 6.75-3.0221 6.75-6.75 6.75-6.75-3.0221-6.75-6.75z" fill="#000"/><path d="m15.4697 18.5303-2-2 1.0606-1.0606 2 2z" fill="#000"/><path d="m31.5 12c.2761 0 .5-.2239.5-.5s-.2239-.5-.5-.5-.5.2239-.5.5.2239.5.5.5zm0 1c.8284 0 1.5-.6716 1.5-1.5s-.6716-1.5-1.5-1.5-1.5.6716-1.5 1.5.6716 1.5 1.5 1.5z" fill="#a4afc1"/></g></svg>