<svg enable-background="new 0 0 36 36" height="512" viewBox="0 0 36 36" width="512" xmlns="http://www.w3.org/2000/svg"><path d="m34.928 20.591c-3.693-5.848-3.199-11.778-4.979-14.596s-7.138-7.714-20.103.473-9.84 17.35-7.882 20.45c9.166 14.515 39.504 4.031 32.964-6.327z" fill="#efefef"/><path d="m29.247 9.753v1.5h-22.5v-1.5c0-1.11.9-2 2-2h18.5c1.11 0 2 .89 2 2z" fill="#2fdf84"/><path d="m29.247 11.253v15c0 1.1-.89 2-2 2h-18.5c-1.1 0-2-.9-2-2v-15z" fill="#f3f3f1"/><path d="m10.997 7.753h-2.25c-1.1 0-2 .89-2 2v1.5h2.25v-1.5c0-1.11.9-2 2-2z" fill="#00b871"/><path d="m8.997 26.253v-15h-2.25v15c0 1.1.9 2 2 2h2.25c-1.1 0-2-.9-2-2z" fill="#d5dbe1"/><circle cx="18" cy="20.5" fill="#2fdf84" r="2.75"/><path d="m17.5 20.5c0-1.117.669-2.074 1.625-2.504-.344-.155-.723-.246-1.125-.246-1.519 0-2.75 1.231-2.75 2.75s1.231 2.75 2.75 2.75c.402 0 .781-.091 1.125-.246-.956-.43-1.625-1.387-1.625-2.504z" fill="#00b871"/><path d="m30 6.22c-.827 0-1.5-.673-1.5-1.5s.673-1.5 1.5-1.5 1.5.673 1.5 1.5-.673 1.5-1.5 1.5zm0-2c-.276 0-.5.224-.5.5s.224.5.5.5.5-.224.5-.5-.224-.5-.5-.5z" fill="#a4afc1"/><path d="m27.25 29h-18.5c-1.517 0-2.75-1.233-2.75-2.75v-16.5c0-1.517 1.233-2.75 2.75-2.75h18.5c1.517 0 2.75 1.233 2.75 2.75v16.5c0 1.517-1.233 2.75-2.75 2.75zm-18.5-20.5c-.689 0-1.25.561-1.25 1.25v16.5c0 .689.561 1.25 1.25 1.25h18.5c.689 0 1.25-.561 1.25-1.25v-16.5c0-.689-.561-1.25-1.25-1.25z"/><path d="m6.75 10.5h22.5v1.5h-22.5z"/><path d="m18 24c-1.93 0-3.5-1.57-3.5-3.5s1.57-3.5 3.5-3.5 3.5 1.57 3.5 3.5-1.57 3.5-3.5 3.5zm0-5.5c-1.103 0-2 .897-2 2s.897 2 2 2 2-.897 2-2-.897-2-2-2z"/><path d="m17.25 23.25h1.5v2h-1.5z"/><path d="m17.25 15.75h1.5v2h-1.5z"/><path d="m20.246 17.88h1.998v1.5h-1.998z" transform="matrix(.866 -.5 .5 .866 -6.472 13.136)"/><path d="m13.756 21.62h1.998v1.5h-1.998z" transform="matrix(.866 -.5 .5 .866 -9.216 10.39)"/><path d="m14.005 17.631h1.5v1.998h-1.5z" transform="matrix(.5 -.866 .866 .5 -8.758 22.081)"/><path d="m20.495 21.371h1.5v1.998h-1.5z" transform="matrix(.5 -.866 .866 .5 -8.754 29.568)"/></svg>