<svg enable-background="new 0 0 36 36" height="512" viewBox="0 0 36 36" width="512" xmlns="http://www.w3.org/2000/svg"><g id="BG"><path d="m13.411 34.999c6.298-2.859 12.105-1.559 15.14-2.936 3.035-1.378 8.617-6.016 2.28-19.978s-15.841-12.12-19.18-10.605c-15.632 7.095-9.395 38.582 1.76 33.519z" fill="#efefef"/></g><g id="effect"><g><path d="m18.375 3.5h2v1h-2z" fill="#a4afc1"/></g><g><path d="m12.625 3.5h2v1h-2z" fill="#a4afc1"/></g><g><path d="m16.125 0h1v2h-1z" fill="#a4afc1"/></g><path d="m30.122 12c-.827 0-1.5-.673-1.5-1.5s.673-1.5 1.5-1.5 1.5.673 1.5 1.5-.673 1.5-1.5 1.5zm0-2c-.276 0-.5.224-.5.5s.224.5.5.5.5-.224.5-.5-.224-.5-.5-.5z" fill="#a4afc1"/></g><g id="color"><path d="m26.25 14.5v-6.75c0-.552-.448-1-1-1h-17.5c-.552 0-1 .448-1 1v17.5c0 .552.448 1 1 1h6.75 11.75z" fill="#f3f3f1"/><g fill="#2fdf84"><path d="m20.25 14.25-3.75-3-3.75 3v-7.5h7.5z"/><path d="m28.948 18.872c.407-.385.398-1.425.002-1.822-.396-.396-1.436-.406-1.82.002l-2.368 2.515c-.141.151-.351.216-.552.172l-6.609-1.4c-.156-.034-.319.013-.432.127-.268.269-.214.718.112.915l4.541 2.404c.317.191.379.626.127.898l-2.828 3.047-1.563-.683c-.22-.096-.477-.048-.647.122-.234.234-.205.623.062.819l1.705 1.256c.073.053.136.118.189.19l1.162 1.593c.195.267.583.298.817.063.17-.17.219-.427.122-.648l-.683-1.564 3.042-2.827c.27-.25.702-.191.895.123l2.516 4.652c.198.322.644.374.911.107.116-.116.163-.284.126-.443l-1.519-6.679c-.048-.204.016-.419.17-.562z"/></g></g><g id="shadow"><path d="m9 25.25v-17.5c0-.552.448-1 1-1h-2.25c-.552 0-1 .448-1 1v17.5c0 .552.448 1 1 1h2.25c-.552 0-1-.448-1-1z" fill="#d5dbe1"/><g fill="#00b871"><path d="m15 6.75h-2.25v7.5l2.25-1.8z"/><path d="m18.75 11.25-1.125.9 2.625 2.1v-1.8z"/><path d="m26.46 19.74c.201.044.411-.021.552-.172l2.11-2.242c-.046-.106-.101-.204-.172-.276-.396-.396-1.436-.406-1.82.002l-2.221 2.359z"/><path d="m17.279 19.381 4.541 2.404c.317.191.379.626.127.898l-2.189 2.359c.016.005.033-.001.048.005l1.563.683 2.828-3.047c.252-.272.19-.707-.127-.898l-4.541-2.404c-.244-.147-.336-.437-.253-.686l-1.676-.355c-.156-.034-.319.013-.432.127-.269.268-.214.718.111.914z"/><path d="m26.47 24.176c-.193-.314-.625-.373-.895-.123l-.946.879 2.107 3.896c.198.322.644.374.911.107.116-.116.163-.284.126-.443l-.748-3.291z"/><path d="m20.284 26.88.065-.06-1.128-.83c-.103-.076-.159-.183-.19-.297l-1.475-.645c-.22-.096-.477-.048-.647.122-.234.234-.205.622.062.819l1.705 1.256c.073.053.136.118.189.19l1.162 1.593c.195.268.583.298.817.063.17-.17.219-.427.122-.648z"/></g></g><g id="reg"><path d="m20.463 30c-.034 0-.067-.001-.101-.004-.376-.029-.72-.221-.942-.526l-1.162-1.592-1.733-1.284c-.303-.224-.494-.568-.522-.943s.108-.744.374-1.01c.391-.392.969-.502 1.479-.28l1.075.47 2.319-2.5-4.323-2.288c-.39-.234-.622-.592-.672-1.002-.05-.411.089-.813.381-1.105.293-.295.715-.419 1.123-.33l6.518 1.381 2.306-2.449c.315-.334.828-.53 1.409-.538.625-.023 1.149.181 1.488.52s.528.882.52 1.489c-.008.581-.204 1.094-.537 1.408v.001l-2.457 2.315 1.5 6.592c.097.41-.025.838-.327 1.14-.29.291-.691.432-1.099.382-.409-.048-.767-.276-.982-.627l-2.419-4.471-2.494 2.319.47 1.077c.222.507.111 1.087-.28 1.479-.243.241-.571.376-.912.376zm6.579-1.34c0 .001 0 .002.001.004zm-3.321-5.513c.061 0 .122.004.183.013.397.054.746.282.956.624l1.853 3.424-1.189-5.228c-.108-.458.04-.949.389-1.276l2.516-2.371c.102-.139.094-.623-.012-.756-.125-.098-.613-.104-.749 0l-2.359 2.507c-.317.341-.8.493-1.26.39l-5.179-1.097 3.303 1.748c.381.229.612.577.668.977s-.068.798-.342 1.094l-2.829 3.048c-.217.234-.559.305-.85.177l.303.223c.137.102.254.221.352.354l.109.15c-.107-.284-.033-.606.191-.815l3.042-2.828c.247-.233.57-.358.904-.358zm3.218-1.352c0 .001 0 .001 0 0zm.045-.155v.003c.001-.001 0-.002 0-.003zm-9.539-2.566h.003zm6.918-.069h.002c-.001.001-.002.001-.002 0z"/><path d="m14.5 27h-6.75c-.965 0-1.75-.785-1.75-1.75v-17.5c0-.965.785-1.75 1.75-1.75h17.5c.965 0 1.75.785 1.75 1.75v6.75h-1.5v-6.75c0-.138-.112-.25-.25-.25h-17.5c-.138 0-.25.112-.25.25v17.5c0 .138.112.25.25.25h6.75z"/><path d="m20.25 15c-.167 0-.333-.056-.469-.165l-3.281-2.625-3.281 2.625c-.226.182-.534.216-.793.09-.261-.124-.426-.387-.426-.675v-7.5c0-.414.336-.75.75-.75h7.5c.414 0 .75.336.75.75v7.5c0 .288-.165.551-.425.676-.103.05-.215.074-.325.074zm-3.75-4.5c.166 0 .332.055.469.165l2.531 2.025v-5.19h-6v5.189l2.531-2.025c.137-.109.303-.164.469-.164z"/></g></svg>