<svg enable-background="new 0 0 36 36" height="512" viewBox="0 0 36 36" width="512" xmlns="http://www.w3.org/2000/svg"><g id="BG"><path d="m34.904 20.355c-3.782-5.791-3.38-11.727-5.203-14.518s-7.256-7.603-20.093.782-9.572 17.5-7.566 20.569c9.388 14.372 39.561 3.423 32.862-6.833z" fill="#efefef"/></g><g id="effect"><g><path d="m10.043 3.088h2v1h-2z" fill="#a4afc1" transform="matrix(.707 -.707 .707 .707 .697 8.859)"/></g><g><path d="m5.977 7.154h2v1h-2z" fill="#a4afc1" transform="matrix(.707 -.707 .707 .707 -3.369 7.175)"/></g><g><path d="m6.477 2.411h1v2h-1z" fill="#a4afc1" transform="matrix(.707 -.707 .707 .707 -.369 5.933)"/></g><path d="m28.764 21.5c-.827 0-1.5-.673-1.5-1.5s.673-1.5 1.5-1.5 1.5.673 1.5 1.5-.673 1.5-1.5 1.5zm0-2c-.276 0-.5.224-.5.5s.224.5.5.5.5-.224.5-.5-.224-.5-.5-.5z" fill="#a4afc1"/></g><g id="color"><path d="m25.25 24.75h-14.5v-16c0-1.105.895-2 2-2h10.5c1.105 0 2 .895 2 2z" fill="#f3f3f1"/><g fill="#2fdf84"><path d="m18 20.25h5.25v4.5h-5.25z"/><path d="m15.75 15.25h4.5v5h-4.5z"/><path d="m12.75 20.25h5.25v4.5h-5.25z"/><path d="m23.25 29.25h-.5c-.552 0-1-.448-1-1v-3.5h2.5v3.5c0 .552-.448 1-1 1z"/><path d="m13.25 29.25h-.5c-.552 0-1-.448-1-1v-3.5h2.5v3.5c0 .552-.448 1-1 1z"/></g></g><g id="shadow"><path d="m15 6.75h-2.25c-1.105 0-2 .895-2 2v16h2.25v-16c0-1.105.895-2 2-2z" fill="#d5dbe1"/><g fill="#00b871"><path d="m18 20.25h2.25v4.5h-2.25z"/><path d="m15.75 15.25h2.25v5h-2.25z"/><path d="m12.75 20.25h2.25v4.5h-2.25z"/><path d="m24 28.25v-3.5h-2.25v3.5c0 .552.448 1 1 1h.5c.384 0 .708-.224.875-.542-.073-.139-.125-.29-.125-.458z"/><path d="m14 28.25v-3.5h-2.25v3.5c0 .552.448 1 1 1h.5c.384 0 .708-.224.875-.542-.073-.139-.125-.29-.125-.458z"/></g></g><g id="reg"><path d="m25.25 25.5h-14.5c-.414 0-.75-.336-.75-.75v-16c0-1.517 1.233-2.75 2.75-2.75h10.5c1.517 0 2.75 1.233 2.75 2.75v16c0 .414-.336.75-.75.75zm-13.75-1.5h13v-15.25c0-.689-.561-1.25-1.25-1.25h-10.5c-.689 0-1.25.561-1.25 1.25z"/><path d="m23.25 25.5h-5.25c-.414 0-.75-.336-.75-.75v-4.5c0-.414.336-.75.75-.75h5.25c.414 0 .75.336.75.75v4.5c0 .414-.336.75-.75.75zm-4.5-1.5h3.75v-3h-3.75z"/><path d="m20.25 21h-4.5c-.414 0-.75-.336-.75-.75v-5c0-.414.336-.75.75-.75h4.5c.414 0 .75.336.75.75v5c0 .414-.336.75-.75.75zm-3.75-1.5h3v-3.5h-3z"/><path d="m18 25.5h-5.25c-.414 0-.75-.336-.75-.75v-4.5c0-.414.336-.75.75-.75h5.25c.414 0 .75.336.75.75v4.5c0 .414-.336.75-.75.75zm-4.5-1.5h3.75v-3h-3.75z"/><path d="m17.25 14.5h1.5v3h-1.5z"/><path d="m14.75 19.5h1.5v3h-1.5z"/><path d="m19.75 19.5h1.5v3h-1.5z"/><path d="m13.75 8.5h8.5v1.5h-8.5z"/><path d="m13.75 11h8.5v1.5h-8.5z"/><path d="m23.25 30h-.5c-.965 0-1.75-.785-1.75-1.75v-3.5c0-.414.336-.75.75-.75h2.5c.414 0 .75.336.75.75v3.5c0 .965-.785 1.75-1.75 1.75zm-.75-4.5v2.75c0 .138.112.25.25.25h.5c.138 0 .25-.112.25-.25v-2.75z"/><path d="m13.25 30h-.5c-.965 0-1.75-.785-1.75-1.75v-3.5c0-.414.336-.75.75-.75h2.5c.414 0 .75.336.75.75v3.5c0 .965-.785 1.75-1.75 1.75zm-.75-4.5v2.75c0 .138.112.25.25.25h.5c.138 0 .25-.112.25-.25v-2.75z"/><path d="m14.5 26.5h7v1.5h-7z"/><path d="m8.75 24h18.5v1.5h-18.5z"/></g></svg>