<svg enable-background="new 0 0 36 36" height="512" viewBox="0 0 36 36" width="512" xmlns="http://www.w3.org/2000/svg"><g id="BG"><path d="m8.114 5.564c-1.805 6.677-6.504 10.327-7.374 13.545s-.847 10.475 13.955 14.477 19.432-4.501 20.388-8.041c4.481-16.572-23.772-31.807-26.969-19.981z" fill="#efefef"/></g><g id="effect"><g><path d="m7.783 2.35h2v1h-2z" fill="#a4afc1" transform="matrix(.707 -.707 .707 .707 .557 7.045)"/></g><g><path d="m3.717 6.416h2v1h-2z" fill="#a4afc1" transform="matrix(.707 -.707 .707 .707 -3.509 5.361)"/></g><g><path d="m4.217 1.673h1v2h-1z" fill="#a4afc1" transform="matrix(.707 -.707 .707 .707 -.508 4.119)"/></g><path d="m22.75 13c-.827 0-1.5-.673-1.5-1.5s.673-1.5 1.5-1.5 1.5.673 1.5 1.5-.673 1.5-1.5 1.5zm0-2c-.276 0-.5.224-.5.5s.224.5.5.5.5-.224.5-.5-.224-.5-.5-.5z" fill="#a4afc1"/></g><g id="color"><path d="m19.53 16.75h-11.28v3.5 7h3.5 3.48 7.52v-6.95-3.55z" fill="#f3f3f1"/><path d="m25.25 20.3h-2.5v6.95h1 3.479 2.021v-2.95c0-2.209-1.791-4-4-4z" fill="#2fdf84"/><circle cx="13.5" cy="27.5" fill="#f3f3f1" r="1.75"/><circle cx="25.5" cy="27.5" fill="#f3f3f1" r="1.75"/><circle cx="12.5" cy="12.5" fill="#2fdf84" r="5.75"/></g><g id="shadow"><path d="m10.5 16.75h-2.25v3.5 7h2.25v-7z" fill="#d5dbe1"/><path d="m22.75 20.3v6.95h1 1.25v-6.95z" fill="#00b871"/><path d="m14 27.5c0-.536.246-1.009.625-1.33-.305-.258-.694-.42-1.125-.42-.966 0-1.75.784-1.75 1.75s.784 1.75 1.75 1.75c.431 0 .82-.162 1.125-.42-.379-.321-.625-.794-.625-1.33z" fill="#d5dbe1"/><path d="m26 27.5c0-.536.246-1.009.625-1.33-.305-.258-.694-.42-1.125-.42-.966 0-1.75.784-1.75 1.75s.784 1.75 1.75 1.75c.431 0 .82-.162 1.125-.42-.379-.321-.625-.794-.625-1.33z" fill="#d5dbe1"/><path d="m9 12.5c0-2.79 1.988-5.115 4.625-5.638-.364-.073-.74-.112-1.125-.112-3.176 0-5.75 2.574-5.75 5.75s2.574 5.75 5.75 5.75c.385 0 .761-.039 1.125-.112-2.637-.523-4.625-2.848-4.625-5.638z" fill="#00b871"/></g><g id="reg"><path d="m12.5 19c-3.584 0-6.5-2.916-6.5-6.5s2.916-6.5 6.5-6.5 6.5 2.916 6.5 6.5-2.916 6.5-6.5 6.5zm0-11.5c-2.757 0-5 2.243-5 5s2.243 5 5 5 5-2.243 5-5-2.243-5-5-5z"/><path d="m11.5 15.25c-.199 0-.39-.079-.53-.22l-2-2 1.061-1.061 1.433 1.433 2.972-3.396 1.129.987-3.5 4c-.137.156-.332.249-.54.256-.008.001-.017.001-.025.001z"/><path d="m12.5 28h-4.25c-.414 0-.75-.336-.75-.75v-7.86h1.5v7.11h3.5z"/><path d="m22.75 28h-8.27v-1.5h7.52v-9h-2.61v-1.5h3.36c.414 0 .75.336.75.75v10.5c0 .414-.336.75-.75.75z"/><path d="m29.25 28h-2.771v-1.5h2.021v-2.2c0-1.792-1.458-3.25-3.25-3.25h-1.75v5.45h1v1.5h-1.75c-.414 0-.75-.336-.75-.75v-6.95c0-.414.336-.75.75-.75h2.5c2.619 0 4.75 2.131 4.75 4.75v2.95c0 .414-.336.75-.75.75z"/><path d="m13.5 30c-1.378 0-2.5-1.122-2.5-2.5s1.122-2.5 2.5-2.5 2.5 1.122 2.5 2.5-1.122 2.5-2.5 2.5zm0-3.5c-.551 0-1 .449-1 1s.449 1 1 1 1-.449 1-1-.449-1-1-1z"/><path d="m25.5 30c-1.378 0-2.5-1.122-2.5-2.5s1.122-2.5 2.5-2.5 2.5 1.122 2.5 2.5-1.122 2.5-2.5 2.5zm0-3.5c-.551 0-1 .449-1 1s.449 1 1 1 1-.449 1-1-.449-1-1-1z"/></g></svg>