<svg enable-background="new 0 0 36 36" height="512" viewBox="0 0 36 36" width="512" xmlns="http://www.w3.org/2000/svg"><g id="BG"><path d="m7.678 5.564c-1.805 6.677-6.504 10.327-7.374 13.545s-.847 10.475 13.955 14.477 19.432-4.501 20.388-8.041c4.481-16.572-23.772-31.807-26.969-19.981z" fill="#efefef"/></g><g id="effect"><g><path d="m2.239 18.997h1v2h-1z" fill="#a4afc1" transform="matrix(.707 -.707 .707 .707 -13.336 7.791)"/></g><g><path d="m6.306 23.063h1v2h-1z" fill="#a4afc1" transform="matrix(.707 -.707 .707 .707 -15.02 11.857)"/></g><g><path d="m1.562 23.563h2v1h-2z" fill="#a4afc1" transform="matrix(.707 -.707 .707 .707 -16.265 8.86)"/></g><path d="m30.122 13.75c-.827 0-1.5-.673-1.5-1.5s.673-1.5 1.5-1.5 1.5.673 1.5 1.5-.673 1.5-1.5 1.5zm0-2c-.275 0-.5.224-.5.5s.225.5.5.5.5-.224.5-.5-.225-.5-.5-.5z" fill="#a4afc1"/></g><g id="color"><path d="m16 25.513 9.25-5.028v-4.985-4.25l-9.244 5h-.012l-9.244-5v5.129 4.121z" fill="#f3f3f1"/><g fill="#2fdf84"><path d="m28.948 18.872c.407-.385.398-1.425.002-1.822-.396-.396-1.436-.406-1.82.002l-2.368 2.515c-.141.151-.351.216-.552.172l-6.609-1.4c-.156-.034-.319.013-.432.127-.268.269-.214.718.112.915l4.541 2.404c.317.191.379.626.127.898l-2.828 3.047-1.563-.683c-.22-.096-.477-.048-.647.122-.234.234-.205.623.062.819l1.705 1.256c.073.053.136.118.189.19l1.162 1.593c.195.267.583.298.817.063.17-.17.219-.427.122-.648l-.683-1.564 3.042-2.827c.27-.25.702-.191.895.123l2.516 4.652c.198.322.644.374.911.107.116-.116.163-.284.126-.443l-1.519-6.679c-.048-.204.016-.419.17-.562z"/><path d="m6.75 11.25 9.244-4.5 9.256 4.5-9.244 5z"/></g></g><g id="shadow"><path d="m18.244 16.25h.012l6.994-3.783v-1.217l-8.125 4.395z" fill="#d5dbe1"/><path d="m9 20.5v-4.121-3.912l-2.25-1.217v5.129 4.121l9.25 5.013 1.123-.61z" fill="#d5dbe1"/><g fill="#00b871"><path d="m17.279 19.381 4.541 2.404c.317.191.379.626.127.898l-2.189 2.359c.016.005.033-.001.048.005l1.563.683 2.828-3.047c.252-.272.19-.707-.127-.898l-4.541-2.404c-.244-.147-.336-.437-.253-.686l-1.676-.355c-.156-.034-.319.013-.432.127-.269.268-.214.718.111.914z"/><path d="m26.46 19.74c.201.044.411-.021.552-.172l2.11-2.242c-.046-.106-.101-.204-.172-.276-.396-.396-1.436-.406-1.82.002l-2.221 2.359z"/><path d="m26.47 24.176c-.193-.314-.625-.373-.895-.123l-.946.879 2.107 3.896c.198.322.644.374.911.107.116-.116.163-.284.126-.443l-.748-3.291z"/><path d="m20.284 26.88.065-.06-1.128-.83c-.103-.076-.159-.183-.19-.297l-1.475-.645c-.22-.096-.477-.048-.647.122-.234.234-.205.622.062.819l1.705 1.256c.073.053.136.118.189.19l1.162 1.593c.195.268.583.298.817.063.17-.17.219-.427.122-.648z"/><path d="m10.5 11.25 7.37-3.588-1.876-.912-9.244 4.5 9.256 5 1.874-1.013z"/></g></g><g id="reg"><path d="m14.237 25.41-7.845-4.25c-.242-.132-.392-.385-.392-.66v-9.25c0-.264.139-.509.366-.644.228-.136.509-.142.74-.016l8.894 4.81 8.894-4.81c.231-.125.513-.12.74.016.227.135.366.38.366.644v4.25h-1.5v-2.992l-8.138 4.401c-.219.118-.506.118-.725 0l-8.137-4.401v7.545l7.452 4.037z"/><path d="m24.922 11.924-8.928-4.34-8.916 4.34-.656-1.349 9.244-4.5c.207-.101.449-.101.656 0l9.256 4.5z"/><path d="m11.793 17.239h-1.5v-3.468c0-.284.16-.543.414-.671l9.494-4.75.672 1.342-9.08 4.542z"/><path d="m20.464 30c-.033 0-.066-.001-.1-.004-.376-.029-.72-.22-.942-.525l-1.162-1.593-1.733-1.284c-.304-.224-.494-.568-.522-.943s.108-.744.375-1.01c.391-.392.973-.5 1.478-.279l1.075.47 2.319-2.5-4.322-2.288c-.391-.234-.622-.592-.672-1.002-.051-.411.089-.813.381-1.105.296-.295.718-.418 1.123-.33l6.518 1.38 2.306-2.449c.313-.333.827-.53 1.407-.538.588-.04 1.149.18 1.488.52.34.339.529.882.521 1.49-.009.58-.205 1.093-.538 1.408l-2.456 2.314 1.499 6.593c.096.412-.026.839-.327 1.14-.289.291-.685.433-1.098.382-.408-.048-.767-.276-.982-.626l-2.42-4.473-2.494 2.319.47 1.077c.219.498.106 1.092-.279 1.478-.244.243-.572.378-.913.378zm6.578-1.341c.001 0 .001.001.001.002zm-3.321-5.512c.061 0 .121.004.183.013.397.054.745.281.956.623l1.853 3.424-1.188-5.228c-.109-.457.039-.949.388-1.276l2.516-2.372c.103-.139.095-.623-.012-.756-.126-.099-.615-.104-.747-.001l-2.36 2.507c-.317.34-.799.492-1.26.39l-5.18-1.097 3.303 1.748c.382.229.612.577.669.977s-.068.798-.343 1.094l-2.828 3.048c-.218.234-.559.303-.85.177l-.002-.001.303.223c.135.099.254.218.353.354l.108.149c-.106-.284-.032-.605.191-.813l3.042-2.828c.248-.23.571-.355.905-.355zm3.263-1.509.001.003c-.001 0-.001-.002-.001-.003zm-9.539-2.564h.003zm6.918-.069h.002c-.001.001-.001.001-.002 0z"/></g></svg>