<svg enable-background="new 0 0 36 36" height="512" viewBox="0 0 36 36" width="512" xmlns="http://www.w3.org/2000/svg"><path d="m8.377 4.167c6.917 0 11.667-3.583 15-3.583s10.333 1.916 10.333 17.249-9.417 17.583-13.083 17.583c-17.167.001-24.5-31.249-12.25-31.249z" fill="#efefef"/><path d="m25.25 6.75h-17.5c-.552 0-1 .448-1 1v17.5c0 .552.448 1 1 1h16.5c1.105 0 2-.895 2-2v-9-7.5c0-.552-.448-1-1-1z" fill="#f3f3f1"/><path d="m12.75 6.75v7.5l3.75-3.5 3.75 3.5v-7.5z" fill="#2fdf84"/><circle cx="23.5" cy="23.5" fill="#2fdf84" r="5.75"/><path d="m20 23.5c0-2.79 1.988-5.115 4.625-5.638-.364-.072-.74-.112-1.125-.112-3.176 0-5.75 2.574-5.75 5.75s2.574 5.75 5.75 5.75c.385 0 .761-.039 1.125-.112-2.637-.523-4.625-2.848-4.625-5.638z" fill="#00b871"/><path d="m9 25.25v-17.5c0-.552.448-1 1-1h-2.25c-.552 0-1 .448-1 1v17.5c0 .552.448 1 1 1h2.25c-.552 0-1-.448-1-1z" fill="#d5dbe1"/><path d="m15 6.75h-2.25v7.5l2.25-2.1z" fill="#00b871"/><path d="m18.75 10.75-1.125 1.05 2.625 2.45v-2.1z" fill="#00b871"/><g fill="#a4afc1"><path d="m19.875 3.5h2v1h-2z"/><path d="m14.125 3.5h2v1h-2z"/><path d="m17.625 0h1v2h-1z"/><path d="m30.758 19.25c-.827 0-1.5-.673-1.5-1.5s.673-1.5 1.5-1.5 1.5.673 1.5 1.5-.673 1.5-1.5 1.5zm0-2c-.275 0-.5.224-.5.5s.225.5.5.5.5-.224.5-.5-.225-.5-.5-.5z"/></g><path d="m23.5 30c-3.584 0-6.5-2.916-6.5-6.5s2.916-6.5 6.5-6.5 6.5 2.916 6.5 6.5-2.916 6.5-6.5 6.5zm0-11.5c-2.757 0-5 2.243-5 5s2.243 5 5 5 5-2.243 5-5-2.243-5-5-5z"/><path d="m23.5 26c-.181 0-.361-.065-.505-.195l-2.75-2.5 1.01-1.11 2.245 2.042 2.245-2.042 1.01 1.11-2.75 2.5c-.144.13-.324.195-.505.195z"/><path d="m15.25 27h-7.5c-.965 0-1.75-.785-1.75-1.75v-17.5c0-.965.785-1.75 1.75-1.75h17.5c.965 0 1.75.785 1.75 1.75v7.5h-1.5v-7.5c0-.138-.112-.25-.25-.25h-17.5c-.138 0-.25.112-.25.25v17.5c0 .138.112.25.25.25h7.5z"/><path d="m20.25 15c-.187 0-.37-.069-.512-.202l-3.238-3.022-3.238 3.022c-.219.204-.538.257-.811.14-.274-.119-.451-.389-.451-.688v-7.5c0-.414.336-.75.75-.75h7.5c.414 0 .75.336.75.75v7.5c0 .299-.177.569-.451.688-.096.041-.198.062-.299.062zm-3.75-5c.184 0 .367.067.512.202l2.488 2.322v-5.024h-6v5.024l2.488-2.322c.145-.135.328-.202.512-.202z"/></svg>