<svg enable-background="new 0 0 36 36" height="512" viewBox="0 0 36 36" width="512" xmlns="http://www.w3.org/2000/svg"><path d="m34.904 20.355c-3.782-5.791-3.38-11.727-5.203-14.518s-7.256-7.603-20.093.782-9.572 17.5-7.566 20.569c9.388 14.372 39.561 3.423 32.862-6.833z" fill="#efefef"/><path d="m16.006 15.75h-.012l-9.244-4.5v5.129 4.121l9.25 5.125 9.25-5.125v-9.25z" fill="#f3f3f1"/><path d="m6.75 11.25 9.244-4.5 9.256 4.5-9.256 4.5z" fill="#2fdf84"/><path d="m29.25 28.295c0 .525-.433.955-.962.955h-10.576c-.529 0-.962-.43-.962-.955 0-.181.048-.353.144-.496l5.288-8.591c.163-.277.471-.458.817-.458s.654.181.817.458l5.288 8.591c.098.143.146.315.146.496z" fill="#2fdf84"/><path d="m18.244 15.75h.012l6.994-3.405v-1.095l-8.125 3.955z" fill="#d5dbe1"/><path d="m9 20.5v-4.121-4.034l-2.25-1.095v5.129 4.121l9.25 5.125 1.125-.623z" fill="#d5dbe1"/><path d="m10.25 11.25 7.495-3.649-1.751-.851-9.244 4.5 9.244 4.5 1.751-.851z" fill="#00b871"/><path d="m19 28.295c0-.181.048-.353.144-.496l4.981-8.091-.308-.5c-.163-.277-.471-.458-.817-.458s-.654.181-.817.458l-5.288 8.591c-.096.143-.144.315-.144.496 0 .525.433.955.962.955h2.25c-.53 0-.963-.43-.963-.955z" fill="#00b871"/><g fill="#a4afc1"><path d="m30.25 22.25c-.827 0-1.5-.673-1.5-1.5s.673-1.5 1.5-1.5 1.5.673 1.5 1.5-.673 1.5-1.5 1.5zm0-2c-.275 0-.5.224-.5.5s.225.5.5.5.5-.224.5-.5-.225-.5-.5-.5z"/><path d="m11.14 27.509h2v1h-2z" transform="matrix(.707 -.707 .707 .707 -16.249 16.788)"/><path d="m7.074 31.575h2v1h-2z" transform="matrix(.707 -.707 .707 .707 -20.315 15.104)"/><path d="m7.574 26.832h1v2h-1z" transform="matrix(.707 -.707 .707 .707 -17.315 13.861)"/><path d="m11.64 30.898h1v2h-1z" transform="matrix(.707 -.707 .707 .707 -19.004 17.938)"/></g><path d="m28.288 30h-10.576c-.944 0-1.712-.765-1.712-1.705 0-.335.095-.652.273-.916l5.271-8.564c.293-.498.853-.815 1.456-.815s1.163.317 1.464.827l5.28 8.579c.161.238.256.554.256.889 0 .94-.768 1.705-1.712 1.705zm-5.288-10.5c-.088 0-.147.048-.171.089l-5.329 8.706c0 .111.097.205.212.205h10.576c.115 0 .212-.094.212-.205 0-.049-.013-.071-.016-.076l-5.306-8.618c-.031-.053-.09-.101-.178-.101z"/><path d="m22.25 21.75h1.5v3.5h-1.5z"/><path d="m14.884 25.905-8.5-4.75c-.238-.133-.384-.384-.384-.655v-9.25c0-.258.133-.499.353-.636.22-.138.495-.151.726-.039l8.921 4.344 8.922-4.343c.231-.113.507-.099.726.039.219.136.352.377.352.635v4h-1.5v-2.801l-8.166 3.975c-.205.1-.463.1-.668 0l-8.166-3.975v7.611l8.116 4.535z"/><path d="m24.922 11.924-8.928-4.34-8.916 4.34-.656-1.349 9.244-4.5c.207-.101.449-.101.656 0l9.256 4.5z"/><path d="m12 17.24h-1.5v-3.8c0-.283.159-.542.412-.67l9.09-4.581.676 1.34-8.678 4.373z"/><path d="m23 28c-.101 0-.2-.02-.29-.06s-.17-.09-.24-.16c-.14-.14-.22-.33-.22-.53 0-.1.02-.2.06-.29.03-.09.09-.17.16-.24s.15-.12.24-.16c.28-.12.609-.05.82.16.14.14.22.33.22.53s-.08.39-.22.53-.33.22-.53.22z"/></svg>