<svg enable-background="new 0 0 36 36" height="512" viewBox="0 0 36 36" width="512" xmlns="http://www.w3.org/2000/svg"><path d="m4.167 27.623c0-6.917-3.583-11.667-3.583-15s1.916-10.333 17.249-10.333 17.583 9.417 17.583 13.083c.001 17.167-31.249 24.5-31.249 12.25z" fill="#efefef"/><path d="m16.006 15.75h-.012l-9.244-4.5v5.129 4.121l9.25 5.125 9.25-5.125v-9.25z" fill="#f3f3f1"/><path d="m6.75 11.25 9.244-4.5 9.256 4.5-9.256 4.5z" fill="#2fdf84"/><circle cx="23" cy="23" fill="#2fdf84" r="4.25"/><path d="m18.244 15.75h.012l6.994-3.405v-1.095l-8.125 3.955z" fill="#d5dbe1"/><path d="m9 20.5v-4.121-4.034l-2.25-1.095v5.129 4.121l9.25 5.125 1.125-.623z" fill="#d5dbe1"/><path d="m10.25 11.25 7.495-3.649-1.751-.851-9.244 4.5 9.244 4.5 1.751-.851z" fill="#00b871"/><path d="m21 23c0-1.955 1.328-3.585 3.125-4.08-.361-.099-.733-.17-1.125-.17-2.347 0-4.25 1.903-4.25 4.25s1.903 4.25 4.25 4.25c.392 0 .764-.07 1.125-.17-1.797-.495-3.125-2.125-3.125-4.08z" fill="#00b871"/><g fill="#a4afc1"><path d="m6.063 7.816h2v1h-2z" transform="matrix(.707 -.707 .707 .707 -3.812 7.43)"/><path d="m1.997 11.882h2v1h-2z" transform="matrix(.707 -.707 .707 .707 -7.878 5.746)"/><path d="m2.497 7.14h1v2h-1z" transform="matrix(.707 -.707 .707 .707 -4.878 4.503)"/><path d="m30.25 17.625c-.827 0-1.5-.673-1.5-1.5s.673-1.5 1.5-1.5 1.5.673 1.5 1.5-.673 1.5-1.5 1.5zm0-2c-.275 0-.5.224-.5.5s.225.5.5.5.5-.224.5-.5-.225-.5-.5-.5z"/></g><path d="m23 28c-2.757 0-5-2.243-5-5s2.243-5 5-5 5 2.243 5 5-2.243 5-5 5zm0-8.5c-1.93 0-3.5 1.57-3.5 3.5s1.57 3.5 3.5 3.5 3.5-1.57 3.5-3.5-1.57-3.5-3.5-3.5z"/><path d="m26.966 25.546h1.5v4.339h-1.5z" transform="matrix(.707 -.707 .707 .707 -11.48 27.716)"/><path d="m16.334 16.424-.656-1.349 9.244-4.5c.231-.113.507-.099.726.039.219.137.352.378.352.636v5h-1.5v-3.801z"/><path d="m16.006 26c-.122 0-.245-.03-.356-.09l-9.256-5c-.243-.131-.394-.385-.394-.66v-9c0-.258.133-.499.353-.636.219-.138.495-.151.726-.039l9.244 4.5c.258.125.422.387.422.673l.012 9.5c0 .265-.139.51-.365.645-.12.072-.253.107-.386.107zm-8.506-6.197 7.754 4.188-.009-7.772-7.745-3.77z"/><path d="m24.922 11.924-8.928-4.34-8.916 4.34-.656-1.349 9.244-4.5c.207-.101.449-.101.656 0l9.256 4.5z"/><path d="m12 17.24h-1.5v-3.8c0-.283.159-.542.412-.67l9.09-4.581.676 1.34-8.678 4.373z"/></svg>