<svg enable-background="new 0 0 36 36" height="512" viewBox="0 0 36 36" width="512" xmlns="http://www.w3.org/2000/svg"><path d="m34.928 20.591c-3.693-5.848-3.199-11.778-4.979-14.596s-7.138-7.714-20.103.473-9.84 17.35-7.882 20.45c9.166 14.515 39.504 4.031 32.964-6.327z" fill="#efefef"/><path d="m26.25 15.065c0 6.848-8.25 14.185-8.25 14.185s-8.25-7.337-8.25-14.185c0-4.592 3.694-8.315 8.25-8.315s8.25 3.723 8.25 8.315z" fill="#2fdf84"/><circle cx="18" cy="15" fill="#f3f3f1" r="4.25"/><path d="m12 15.065c0-4.207 3.102-7.675 7.125-8.229-.369-.051-.742-.086-1.125-.086-4.556 0-8.25 3.723-8.25 8.315 0 6.848 8.25 14.185 8.25 14.185s.45-.404 1.125-1.088c-2.252-2.283-7.125-7.828-7.125-13.097z" fill="#00b871"/><path d="m16 15c0-1.955 1.328-3.585 3.125-4.08-.361-.099-.733-.17-1.125-.17-2.347 0-4.25 1.903-4.25 4.25s1.903 4.25 4.25 4.25c.392 0 .764-.07 1.125-.17-1.797-.495-3.125-2.125-3.125-4.08z" fill="#d5dbe1"/><g fill="#a4afc1"><path d="m20.355 3.002h1v1.986h-1z" transform="matrix(.007 -1 1 .007 16.716 24.822)"/><path d="m14.645 2.962h1v1.986h-1z" transform="matrix(.007 -1 1 .007 11.086 19.073)"/><path d="m17.603.004h1v1.985h-1z" transform="matrix(1 -.007 .007 1 -.007 .129)"/><path d="m30.625 11.75c-.827 0-1.5-.667-1.5-1.486s.673-1.486 1.5-1.486 1.5.667 1.5 1.486-.673 1.486-1.5 1.486zm0-1.973c-.276 0-.5.218-.5.486s.224.486.5.486.5-.218.5-.486-.224-.486-.5-.486z"/></g><path d="m18 30c-.178 0-.356-.063-.499-.189-.347-.309-8.501-7.643-8.501-14.746 0-4.999 4.038-9.065 9-9.065s9 4.066 9 9.065c0 7.103-8.154 14.437-8.501 14.745-.143.127-.321.19-.499.19zm0-22.5c-4.136 0-7.5 3.394-7.5 7.565 0 5.478 5.75 11.462 7.5 13.155 1.75-1.693 7.5-7.678 7.5-13.155 0-4.171-3.364-7.565-7.5-7.565z"/><path d="m18 20c-2.757 0-5-2.243-5-5s2.243-5 5-5 5 2.243 5 5-2.243 5-5 5zm0-8.5c-1.93 0-3.5 1.57-3.5 3.5s1.57 3.5 3.5 3.5 3.5-1.57 3.5-3.5-1.57-3.5-3.5-3.5z"/></svg>