<svg enable-background="new 0 0 36 36" height="512" viewBox="0 0 36 36" width="512" xmlns="http://www.w3.org/2000/svg"><path d="m13.411 34.999c6.298-2.859 12.105-1.559 15.14-2.936 3.035-1.378 8.617-6.016 2.28-19.978s-15.841-12.12-19.18-10.605c-15.632 7.095-9.395 38.582 1.76 33.519z" fill="#efefef"/><path d="m7.75 13.25v11c0 .55.45 1 1 1h13.5c1.105 0 2-.895 2-2v-10z" fill="#f3f3f1"/><path d="m6.75 9.75h18.5v3.5h-18.5z" fill="#2fdf84"/><path d="m22.5 6.75h-13l-2.75 3h18.5z" fill="#2fdf84"/><path d="m10 24.25v-11h-2.25v11c0 .55.45 1 1 1h2.25c-.55 0-1-.45-1-1z" fill="#d5dbe1"/><path d="m6.75 9.75h2.25v3.5h-2.25z" fill="#00b871"/><path d="m9.5 6.75-2.75 3h2.25l2.75-3z" fill="#00b871"/><g fill="#a4afc1"><path d="m3.123 23.799h1v2h-1z" transform="matrix(.707 -.707 .707 .707 -16.477 9.829)"/><path d="m7.189 27.864h1v2h-1z" transform="matrix(.707 -.707 .707 .707 -18.158 13.891)"/><path d="m2.446 28.364h2v1h-2z" transform="matrix(.707 -.707 .707 .707 -19.401 10.891)"/><path d="m29.25 18.5c-.827 0-1.5-.673-1.5-1.5s.673-1.5 1.5-1.5 1.5.673 1.5 1.5-.673 1.5-1.5 1.5zm0-2c-.276 0-.5.225-.5.5s.224.5.5.5.5-.225.5-.5-.224-.5-.5-.5z"/></g><path d="m26.625 28h-2.875v-1.5h2.875c.482 0 .875-.393.875-.875s-.393-.875-.875-.875h-1.25c-1.31 0-2.375-1.065-2.375-2.375s1.065-2.375 2.375-2.375h2.875v1.5h-2.875c-.482 0-.875.393-.875.875s.393.875.875.875h1.25c1.31 0 2.375 1.065 2.375 2.375s-1.065 2.375-2.375 2.375z"/><path d="m25.262 27.457h1.5v1.793h-1.5z"/><path d="m25.262 18.75h1.5v2h-1.5z"/><path d="m21.25 26h-12.5c-.965 0-1.75-.785-1.75-1.75v-11c0-.414.336-.75.75-.75h16.5c.414 0 .75.336.75.75v3h-1.5v-2.25h-15v10.25c0 .136.114.25.25.25h12.5z"/><path d="m13.75 15.5h4.5v1.5h-4.5z"/><path d="m25.25 14h-18.5c-.414 0-.75-.336-.75-.75v-3.5c0-.414.336-.75.75-.75h18.5c.414 0 .75.336.75.75v3.5c0 .414-.336.75-.75.75zm-17.75-1.5h17v-2h-17z"/><path d="m24.697 10.257-2.527-2.757h-12.34l-2.527 2.757-1.106-1.014 2.75-3c.142-.155.343-.243.553-.243h13c.21 0 .411.088.553.243l2.75 3z"/></svg>