<svg enable-background="new 0 0 36 36" height="512" viewBox="0 0 36 36" width="512" xmlns="http://www.w3.org/2000/svg"><path d="m8.114 5.564c-1.805 6.677-6.504 10.327-7.374 13.545s-.847 10.475 13.955 14.477 19.432-4.501 20.388-8.041c4.481-16.572-23.772-31.807-26.969-19.981z" fill="#efefef"/><path d="m29.25 11.062c0 3.551-4.25 7.188-4.25 7.188s-4.25-3.636-4.25-7.188c0-2.382 1.903-4.312 4.25-4.312s4.25 1.931 4.25 4.312z" fill="#2fdf84"/><circle cx="25" cy="11" fill="#f3f3f1" r="1.25"/><path d="m23 11.062c0-1.984 1.328-3.637 3.125-4.14-.361-.101-.733-.172-1.125-.172-2.347 0-4.25 1.931-4.25 4.312 0 3.551 4.25 7.188 4.25 7.188s.486-.419 1.125-1.102c-1.259-1.344-3.125-3.73-3.125-6.086z" fill="#00b871"/><g fill="#a4afc1"><path d="m31.454 7.183h1v2h-1z" transform="matrix(.707 -.707 .707 .707 3.573 24.991)"/><path d="m27.388 3.117h1v2h-1z" transform="matrix(.707 -.707 .707 .707 5.257 20.926)"/><path d="m31.13 3.617h2v1h-2z" transform="matrix(.707 -.707 .707 .707 6.5 23.926)"/><path d="m18.75 6.617c-.827 0-1.5-.673-1.5-1.5s.673-1.5 1.5-1.5 1.5.673 1.5 1.5-.673 1.5-1.5 1.5zm0-2c-.276 0-.5.225-.5.5s.224.5.5.5.5-.225.5-.5-.224-.5-.5-.5z"/></g><path d="m11.75 17.5h-5v-1.5h4.25v-9.25h1.5v10c0 .414-.336.75-.75.75z"/><path d="m29.25 21.5h-15c-.414 0-.75-.336-.75-.75v-14h1.5v13.25h14.25z"/><path d="m12.5 29.25h-1.5v-9.25h-4.25v-1.5h5c.414 0 .75.336.75.75z"/><path d="m15 29.25h-1.5v-6c0-.414.336-.75.75-.75h15v1.5h-14.25z"/><path d="m8.75 10h3v1.5h-3z"/><path d="m22.25 28h-2.5c-.414 0-.75-.336-.75-.75v-4h1.5v3.25h1.75z"/><path d="m14.25 14.5h5.25v1.5h-5.25z"/><path d="m8 19.25h1.5v3h-1.5z"/><path d="m25 19c-.174 0-.347-.06-.487-.18-.185-.158-4.513-3.905-4.513-7.758 0-2.791 2.243-5.062 5-5.062s5 2.271 5 5.062c0 3.853-4.328 7.6-4.513 7.758-.14.12-.313.18-.487.18zm0-11.5c-1.93 0-3.5 1.598-3.5 3.562 0 2.482 2.436 5.127 3.5 6.164 1.064-1.037 3.5-3.682 3.5-6.164 0-1.964-1.57-3.562-3.5-3.562z"/><path d="m25 13c-1.103 0-2-.897-2-2s.897-2 2-2 2 .897 2 2-.897 2-2 2zm0-2.5c-.276 0-.5.225-.5.5s.224.5.5.5.5-.225.5-.5-.224-.5-.5-.5z"/></svg>