<svg enable-background="new 0 0 36 36" height="512" viewBox="0 0 36 36" width="512" xmlns="http://www.w3.org/2000/svg"><path d="m34.904 20.355c-3.782-5.791-3.38-11.727-5.203-14.518s-7.256-7.603-20.093.782-9.572 17.5-7.566 20.569c9.388 14.372 39.561 3.423 32.862-6.833z" fill="#efefef"/><path d="m27.25 28.25h-18.5c-1.105 0-2-.895-2-2v-16.5c0-1.105.895-2 2-2h18.5c1.105 0 2 .895 2 2v16.5c0 1.105-.895 2-2 2z" fill="#f3f3f1"/><g fill="#2fdf84"><path d="m17.986 25.25-5.246-2.554v-5.642l5.246 2.446z"/><path d="m23.24 22.696-5.246 2.554v-5.75l5.246-2.446z"/><path d="m12.74 17.054 5.254-2.304 5.246 2.304-5.246 2.446z"/></g><path d="m9 26.25v-16.5c0-1.105.895-2 2-2h-2.25c-1.105 0-2 .895-2 2v16.5c0 1.105.895 2 2 2h2.25c-1.105 0-2-.895-2-2z" fill="#d5dbe1"/><path d="m15 22.696v-4.593l-2.25-1.049v5.642l5.246 2.554v-1.095z" fill="#00b871"/><path d="m20.254 19.5 2.996-1.397v-1.049l-5.246 2.446v5.75l2.25-1.095z" fill="#00b871"/><path d="m16.5 17.054 3.377-1.481-1.873-.823-5.254 2.304 5.254 2.446 1.873-.874z" fill="#00b871"/><g fill="#a4afc1"><path d="m1.963 26.217h1v2h-1z" transform="matrix(.707 -.707 .707 .707 -18.524 9.713)"/><path d="m6.028 30.283h1v2h-1z" transform="matrix(.707 -.707 .707 .707 -20.209 13.779)"/><path d="m1.286 30.783h2v1h-2z" transform="matrix(.707 -.707 .707 .707 -21.451 10.779)"/><path d="m33.495 26.75c-.827 0-1.5-.673-1.5-1.5s.673-1.5 1.5-1.5 1.5.673 1.5 1.5-.673 1.5-1.5 1.5zm0-2c-.275 0-.5.225-.5.5s.225.5.5.5.5-.225.5-.5-.224-.5-.5-.5z"/></g><path d="m27.25 29h-18.5c-1.517 0-2.75-1.233-2.75-2.75v-16.5c0-1.517 1.233-2.75 2.75-2.75h18.5c1.517 0 2.75 1.233 2.75 2.75v16.5c0 1.517-1.233 2.75-2.75 2.75zm-18.5-20.5c-.689 0-1.25.561-1.25 1.25v16.5c0 .689.561 1.25 1.25 1.25h18.5c.689 0 1.25-.561 1.25-1.25v-16.5c0-.689-.561-1.25-1.25-1.25z"/><path d="m6.75 10.5h22.5v1.5h-22.5z"/><path d="m17.996 26c-.112 0-.225-.025-.328-.075l-5.246-2.554c-.258-.126-.422-.388-.422-.675v-5.643c0-.256.131-.495.347-.633.218-.139.487-.154.721-.047l5.246 2.446c.264.123.433.389.433.68v5.75c0 .259-.133.499-.353.636-.122.077-.259.115-.398.115zm-4.496-3.772 3.746 1.823v-4.073l-3.746-1.747z"/><path d="m18.004 26c-.139 0-.276-.038-.397-.114-.22-.137-.353-.377-.353-.636v-5.75c0-.291.169-.557.433-.68l5.246-2.446c.235-.108.504-.09.721.047.215.138.346.377.346.633v5.643c0 .287-.164.549-.422.675l-5.246 2.554c-.103.049-.216.074-.328.074zm.75-6.022v4.073l3.746-1.823v-3.996z"/><path d="m13.051 17.74-.602-1.373 5.254-2.304c.191-.084.409-.084.603 0l5.246 2.304-.604 1.373-4.944-2.171z"/><path d="m21.5 20.27h-1.5v-1.547l-4.921-2.133.596-1.377 5.373 2.329c.274.119.452.39.452.688z"/></svg>