<svg enable-background="new 0 0 36 36" height="512" viewBox="0 0 36 36" width="512" xmlns="http://www.w3.org/2000/svg"><path d="m4.167 27.623c0-6.917-3.583-11.667-3.583-15s1.916-10.333 17.249-10.333 17.583 9.417 17.583 13.083c.001 17.167-31.249 24.5-31.249 12.25z" fill="#efefef"/><path d="m16.006 15.75h-.012l-9.244-4.5v5.129 4.121l9.25 5.125 9.25-5.125v-9.25z" fill="#f3f3f1"/><path d="m6.75 11.25 9.244-4.5 9.256 4.5-9.256 4.5z" fill="#2fdf84"/><path d="m25 29.25s4.25-1.875 4.25-5.625c0-1.5 0-3.375 0-3.375l-4.25-1.5-4.25 1.5v3.375c0 3.75 4.25 5.625 4.25 5.625z" fill="#2fdf84"/><path d="m18.244 15.75h.012l6.994-3.405v-1.095l-8.125 3.955z" fill="#d5dbe1"/><path d="m9 20.5v-4.121-4.034l-2.25-1.095v5.129 4.121l9.25 5.125 1.125-.623z" fill="#d5dbe1"/><path d="m10.25 11.25 7.495-3.649-1.751-.851-9.244 4.5 9.244 4.5 1.751-.851z" fill="#00b871"/><path d="m23 23.625c0-2.25 0-3.375 0-3.375l3.125-1.103-1.125-.397-4.25 1.5v3.375c0 3.75 4.25 5.625 4.25 5.625s.486-.218 1.125-.643c-1.259-.838-3.125-2.495-3.125-4.982z" fill="#00b871"/><g fill="#a4afc1"><path d="m6.063 7.816h2v1h-2z" transform="matrix(.707 -.707 .707 .707 -3.812 7.43)"/><path d="m1.997 11.882h2v1h-2z" transform="matrix(.707 -.707 .707 .707 -7.878 5.746)"/><path d="m2.497 7.14h1v2h-1z" transform="matrix(.707 -.707 .707 .707 -4.878 4.503)"/><path d="m30.25 17.625c-.827 0-1.5-.673-1.5-1.5s.673-1.5 1.5-1.5 1.5.673 1.5 1.5-.673 1.5-1.5 1.5zm0-2c-.275 0-.5.224-.5.5s.225.5.5.5.5-.224.5-.5-.225-.5-.5-.5z"/></g><path d="m25 30c-.104 0-.206-.021-.303-.064-.191-.084-4.697-2.12-4.697-6.311v-3.375c0-.318.2-.602.5-.707l4.25-1.5c.162-.058.338-.058.5 0l4.25 1.5c.3.105.5.389.5.707v3.375c0 4.191-4.506 6.227-4.697 6.311-.097.043-.199.064-.303.064zm-3.5-9.219v2.844c0 2.664 2.598 4.298 3.5 4.786.902-.487 3.5-2.122 3.5-4.786v-2.844l-3.5-1.236z"/><path d="m24.591 26.019c-.007 0-.015 0-.021 0-.211-.006-.41-.101-.548-.261l-1.387-1.615 1.139-.978.85.99 2.041-2.118 1.08 1.041-2.613 2.711c-.143.148-.338.23-.541.23z"/><path d="m16.334 16.424-.656-1.349 9.244-4.5c.231-.113.507-.099.726.039.219.137.352.378.352.636v5h-1.5v-3.801z"/><path d="m16.006 26c-.121 0-.242-.029-.353-.088l-9.256-4.923c-.244-.13-.397-.385-.397-.662v-9.077c0-.258.133-.499.353-.636.219-.138.495-.151.726-.039l9.244 4.5c.258.125.422.387.422.673l.012 9.5c0 .264-.138.508-.363.644-.121.072-.254.108-.388.108zm-8.506-6.124 7.754 4.125-.009-7.782-7.745-3.77z"/><path d="m24.922 11.924-8.928-4.34-8.916 4.34-.656-1.349 9.244-4.5c.207-.101.449-.101.656 0l9.256 4.5z"/><path d="m12 17.24h-1.5v-3.8c0-.283.159-.542.412-.67l9.09-4.581.676 1.34-8.678 4.373z"/><path d="m15.871 23.934h2.513v1.501h-2.513z" transform="matrix(.893 -.45 .45 .893 -9.281 10.358)"/></svg>