<svg enable-background="new 0 0 36 36" height="512" viewBox="0 0 36 36" width="512" xmlns="http://www.w3.org/2000/svg"><path d="m7.678 5.564c-1.805 6.677-6.504 10.327-7.374 13.545s-.847 10.475 13.955 14.477 19.432-4.501 20.388-8.041c4.481-16.572-23.772-31.807-26.969-19.981z" fill="#efefef"/><path d="m7.75 13.25v11c0 .55.45 1 1 1h13.5c1.105 0 2-.895 2-2v-10z" fill="#f3f3f1"/><path d="m6.75 9.75h18.5v3.5h-18.5z" fill="#2fdf84"/><path d="m22.5 6.75h-13l-2.75 3h18.5z" fill="#2fdf84"/><path d="m10 24.25v-11h-2.25v11c0 .55.45 1 1 1h2.25c-.55 0-1-.45-1-1z" fill="#d5dbe1"/><path d="m6.75 9.75h2.25v3.5h-2.25z" fill="#00b871"/><path d="m9.5 6.75-2.75 3h2.25l2.75-3z" fill="#00b871"/><g fill="#a4afc1"><path d="m17.875 3.5h2v1h-2z"/><path d="m12.125 3.5h2v1h-2z"/><path d="m15.625 0h1v2h-1z"/><path d="m4.494 8.25c-.827 0-1.5-.673-1.5-1.5s.673-1.5 1.5-1.5 1.5.673 1.5 1.5-.673 1.5-1.5 1.5zm0-2c-.275 0-.5.225-.5.5s.225.5.5.5.5-.225.5-.5-.224-.5-.5-.5z"/></g><path d="m30 29.25h-1.5v-1.909c0-2.744-2.187-4.978-4.875-4.978h-1.875v-1.5h1.875c3.516 0 6.375 2.906 6.375 6.478z"/><path d="m24.538 25.043-3.281-2.864c-.163-.143-.257-.349-.257-.566s.094-.423.257-.565l3.281-2.863.986 1.131-2.634 2.298 2.634 2.299z"/><path d="m21.25 26h-12.5c-.965 0-1.75-.785-1.75-1.75v-11c0-.414.336-.75.75-.75h16.5c.414 0 .75.336.75.75v3h-1.5v-2.25h-15v10.25c0 .136.114.25.25.25h12.5z"/><path d="m13.75 15.5h4.5v1.5h-4.5z"/><path d="m25.25 14h-18.5c-.414 0-.75-.336-.75-.75v-3.5c0-.414.336-.75.75-.75h18.5c.414 0 .75.336.75.75v3.5c0 .414-.336.75-.75.75zm-17.75-1.5h17v-2h-17z"/><path d="m24.697 10.257-2.527-2.757h-12.34l-2.527 2.757-1.106-1.014 2.75-3c.142-.155.343-.243.553-.243h13c.21 0 .411.088.553.243l2.75 3z"/></svg>