<svg id="Line" height="512" viewBox="0 0 36 36" width="512" xmlns="http://www.w3.org/2000/svg"><path d="m8.377 4.167c6.917 0 11.667-3.583 15-3.583s10.333 1.916 10.333 17.249-9.417 17.583-13.083 17.583c-17.167.001-24.5-31.249-12.25-31.249z" fill="#efefef"/><path d="m33 6.045c-.827 0-1.5-.673-1.5-1.5s.673-1.5 1.5-1.5 1.5.673 1.5 1.5-.673 1.5-1.5 1.5zm0-2c-.275 0-.5.224-.5.5s.225.5.5.5.5-.224.5-.5-.225-.5-.5-.5z" fill="#a4afc1"/><path d="m27.094 26.25h1.219c.518 0 .938-.425.938-.95v-3.501c0-.195-.059-.385-.169-.545l-2.832-4.099c-.175-.254-.462-.405-.768-.405h-3.293c-.518 0-.937.425-.937.95v8.55h.748z" fill="#f3f3f1"/><path d="m14.435 26.25h6.815v-8.7-4.833c0-.532-.435-.967-.967-.967h-12.566c-.532 0-.967.435-.967.967v12.567c0 .532.435.967.967.967h1.982 4.736z" fill="#f3f3f1"/><circle cx="24.75" cy="27" fill="#2fdf84" r="2.25"/><circle cx="12" cy="27" fill="#2fdf84" r="2.25"/><path d="m9.7 26.25h-1.98c-.53 0-.97-.43-.97-.97v-12.56c0-.54.44-.97.97-.97h2c-.53 0-.97.43-.97.97v12.56c0 .53.43.96.95.97z" fill="#d5dbe1"/><path d="m21.25 16.75h2v9.356h-2z" fill="#d5dbe1"/><path d="m25.75 29.01c-.3.16-.64.24-1 .24-1.24 0-2.25-1.01-2.25-2.25s1.01-2.25 2.25-2.25c.36 0 .7.08 1 .24-.74.37-1.25 1.13-1.25 2.01s.51 1.64 1.25 2.01z" fill="#00b871"/><path d="m13 29.01c-.3.16-.64.24-1 .24-1.24 0-2.25-1.01-2.25-2.25s1.01-2.25 2.25-2.25c.36 0 .7.08 1 .24-.74.37-1.25 1.13-1.25 2.01s.51 1.64 1.25 2.01z" fill="#00b871"/><path d="m28.313 27h-1.219v-1.5h1.219c.104 0 .188-.09.188-.2v-3.5c0-.042-.013-.083-.037-.118l-2.831-4.1c-.036-.051-.093-.082-.153-.082h-3.293c-.103 0-.187.09-.187.2v9.3h-.75c-.414 0-.75-.336-.75-.75v-8.55c0-.938.757-1.7 1.688-1.7h3.293c.552 0 1.069.272 1.385.729l2.832 4.1c.198.286.302.622.302.97v3.5c0 .938-.757 1.701-1.687 1.701z"/><path d="m21.25 27h-6.815v-1.5h6.065v-12.783c0-.118-.1-.217-.217-.217h-12.566c-.117 0-.217.099-.217.217v12.566c0 .118.1.217.217.217h1.981v1.5h-1.981c-.946 0-1.717-.77-1.717-1.717v-12.566c0-.947.771-1.717 1.717-1.717h12.566c.946 0 1.717.77 1.717 1.717v13.533c0 .414-.336.75-.75.75z"/><path d="m24.75 30c-1.654 0-3-1.346-3-3s1.346-3 3-3 3 1.346 3 3-1.346 3-3 3zm0-4.5c-.827 0-1.5.673-1.5 1.5s.673 1.5 1.5 1.5 1.5-.673 1.5-1.5-.673-1.5-1.5-1.5z"/><path d="m12 30c-1.654 0-3-1.346-3-3s1.346-3 3-3 3 1.346 3 3-1.346 3-3 3zm0-4.5c-.827 0-1.5.673-1.5 1.5s.673 1.5 1.5 1.5 1.5-.673 1.5-1.5-.673-1.5-1.5-1.5z"/><path d="m8.849 15.75h4.301v1.5h-4.301z" transform="matrix(.581 -.814 .814 .581 -8.82 15.859)"/><path d="m14.849 18.75h4.301v1.5h-4.301z" transform="matrix(.581 -.814 .814 .581 -8.749 21.997)"/><path d="m10.047 17.25h7.906v1.499h-7.906z" transform="matrix(.569 -.822 .822 .569 -8.769 19.261)"/></svg>