<svg id="Line" height="512" viewBox="0 0 36 36" width="512" xmlns="http://www.w3.org/2000/svg"><path d="m34.904 20.355c-3.782-5.791-3.38-11.727-5.203-14.518s-7.256-7.603-20.093.782-9.572 17.5-7.566 20.569c9.388 14.372 39.561 3.423 32.862-6.833z" fill="#efefef"/><g fill="#a4afc1"><path d="m4.699 1.045h2v1h-2z" transform="matrix(.707 -.707 .707 .707 .577 4.483)"/><path d="m.634 5.111h2v1h-2z" transform="matrix(.707 -.707 .707 .707 -3.489 2.799)"/><path d="m1.134.369h1v2h-1z" transform="matrix(.707 -.707 .707 .707 -.489 1.556)"/></g><path d="m14.435 26.25h6.815v-8.7-4.833c0-.532-.435-.967-.967-.967h-12.566c-.532 0-.967.435-.967.967v12.567c0 .532.435.967.967.967h1.982 4.736z" fill="#f3f3f1"/><path d="m27.094 26.25h1.219c.518 0 .938-.423.938-.944v-1.889c0-3.13-2.518-5.667-5.625-5.667h-2.376v8.5h1.25z" fill="#f3f3f1"/><circle cx="24.75" cy="27" fill="#2fdf84" r="2.25"/><circle cx="12" cy="27" fill="#2fdf84" r="2.25"/><path d="m9.7 26.25h-1.98c-.53 0-.97-.43-.97-.97v-12.56c0-.54.44-.97.97-.97h2c-.53 0-.97.43-.97.97v12.56c0 .53.43.96.95.97z" fill="#d5dbe1"/><path d="m21.25 17.75h2v8.5h-2z" fill="#d5dbe1"/><path d="m25.75 29.01c-.3.16-.64.24-1 .24-1.24 0-2.25-1.01-2.25-2.25s1.01-2.25 2.25-2.25c.36 0 .7.08 1 .24-.74.37-1.25 1.13-1.25 2.01s.51 1.64 1.25 2.01z" fill="#00b871"/><path d="m13 29.01c-.3.16-.64.24-1 .24-1.24 0-2.25-1.01-2.25-2.25s1.01-2.25 2.25-2.25c.36 0 .7.08 1 .24-.74.37-1.25 1.13-1.25 2.01s.51 1.64 1.25 2.01z" fill="#00b871"/><path d="m21.25 27h-6.815v-1.5h6.065v-12.783c0-.118-.1-.217-.217-.217h-12.566c-.117 0-.217.099-.217.217v12.566c0 .118.1.217.217.217h1.981v1.5h-1.981c-.946 0-1.717-.77-1.717-1.717v-12.566c0-.947.771-1.717 1.717-1.717h12.566c.946 0 1.717.77 1.717 1.717v13.533c0 .414-.336.75-.75.75z"/><path d="m28.313 27h-1.219v-1.5h1.219c.104 0 .188-.087.188-.194v-1.889c0-2.711-2.187-4.917-4.875-4.917h-1.626v7h.5v1.5h-1.25c-.414 0-.75-.336-.75-.75v-8.5c0-.414.336-.75.75-.75h2.375c3.516 0 6.375 2.878 6.375 6.417v1.889c0 .934-.757 1.694-1.687 1.694z"/><path d="m24.75 30c-1.654 0-3-1.346-3-3s1.346-3 3-3 3 1.346 3 3-1.346 3-3 3zm0-4.5c-.827 0-1.5.673-1.5 1.5s.673 1.5 1.5 1.5 1.5-.673 1.5-1.5-.673-1.5-1.5-1.5z"/><path d="m12 30c-1.654 0-3-1.346-3-3s1.346-3 3-3 3 1.346 3 3-1.346 3-3 3zm0-4.5c-.827 0-1.5.673-1.5 1.5s.673 1.5 1.5 1.5 1.5-.673 1.5-1.5-.673-1.5-1.5-1.5z"/><path d="m8.849 15.75h4.301v1.5h-4.301z" transform="matrix(.581 -.814 .814 .581 -8.82 15.859)"/><path d="m14.849 18.75h4.301v1.5h-4.301z" transform="matrix(.581 -.814 .814 .581 -8.749 21.997)"/><path d="m10.047 17.25h7.906v1.499h-7.906z" transform="matrix(.569 -.822 .822 .569 -8.769 19.261)"/></svg>