<svg enable-background="new 0 0 36 36" height="512" viewBox="0 0 36 36" width="512" xmlns="http://www.w3.org/2000/svg"><path d="m13.411 34.999c6.298-2.859 12.105-1.559 15.14-2.936 3.035-1.378 8.617-6.016 2.28-19.978s-15.841-12.12-19.18-10.605c-15.632 7.095-9.395 38.582 1.76 33.519z" fill="#efefef"/><path d="m16.006 15.75h-.012l-9.244-4.5v5.129 4.121l9.25 5.125 9.25-5.125v-9.25z" fill="#f3f3f1"/><path d="m6.75 11.25 9.244-4.5 9.256 4.5-9.256 4.5z" fill="#2fdf84"/><path d="m23.5 26.831-3.554 2.419 1.09-4.301-3.286-2.806 4.227-.24 1.523-4.153 1.523 4.153 4.227.24-3.286 2.806 1.09 4.301z" fill="#2fdf84"/><path d="m18.244 15.75h.012l6.994-3.405v-1.095l-8.125 3.955z" fill="#d5dbe1"/><path d="m9 20.5v-4.121-4.034l-2.25-1.095v5.129 4.121l9.25 5.125 1.125-.623z" fill="#d5dbe1"/><g fill="#00b871"><path d="m10.25 11.25 7.495-3.649-1.751-.851-9.244 4.5 9.244 4.5 1.751-.851z"/><path d="m25.75 26.831-1.125.766 2.429 1.653-.469-1.85z"/><path d="m22.665 27.4.621-2.451-3.286-2.806 4.227-.24.398-1.085-1.125-3.068-1.523 4.153-4.227.24 3.286 2.806-1.09 4.301z"/></g><g fill="#a4afc1"><path d="m6.041 6.555h2v1h-2z" transform="matrix(.707 -.707 .707 .707 -2.927 7.046)"/><path d="m1.976 10.621h2v1h-2z" transform="matrix(.707 -.707 .707 .707 -6.992 5.362)"/><path d="m2.476 5.878h1v2h-1z" transform="matrix(.707 -.707 .707 .707 -3.992 4.119)"/><path d="m23.5 7.556c-.827 0-1.5-.673-1.5-1.5s.673-1.5 1.5-1.5 1.5.673 1.5 1.5-.673 1.5-1.5 1.5zm0-2c-.276 0-.5.224-.5.5s.224.5.5.5.5-.224.5-.5-.224-.5-.5-.5z"/></g><path d="m27.054 30c-.147 0-.294-.043-.422-.13l-3.132-2.131-3.132 2.131c-.258.175-.595.173-.852-.006-.255-.178-.374-.497-.297-.798l.975-3.85-2.932-2.503c-.233-.199-.321-.52-.224-.81.098-.29.363-.492.668-.509l3.735-.211 1.354-3.69c.109-.297.391-.493.705-.493s.596.196.704.492l1.354 3.69 3.735.211c.306.018.57.219.668.509.098.291.009.611-.224.81l-2.932 2.503.975 3.85c.077.302-.042.62-.297.798-.129.092-.279.137-.429.137zm-3.554-3.918c.147 0 .294.043.422.13l1.919 1.306-.604-2.385c-.07-.276.023-.569.24-.754l1.865-1.593-2.362-.134c-.299-.017-.559-.21-.662-.491l-.818-2.233-.819 2.233c-.103.281-.363.474-.662.491l-2.362.134 1.865 1.593c.217.186.31.478.24.754l-.604 2.385 1.919-1.306c.129-.087.276-.13.423-.13z"/><path d="m16.334 16.424-.656-1.349 9.244-4.5c.233-.113.507-.099.726.039.219.137.352.378.352.636v4h-1.5v-2.801z"/><path d="m14.884 25.905-8.5-4.75c-.237-.133-.384-.384-.384-.655v-9.25c0-.258.133-.499.353-.636.218-.138.492-.153.726-.039l9.244 4.5-.656 1.349-8.167-3.975v7.611l8.116 4.535z"/><path d="m24.922 11.924-8.928-4.34-8.916 4.34-.656-1.349 9.244-4.5c.207-.101.449-.101.656 0l9.256 4.5z"/><path d="m12 17.24h-1.5v-3.8c0-.283.16-.542.413-.67l9.09-4.581.675 1.34-8.678 4.373z"/><path d="m15.256 15.75h1.5v3.5h-1.5z"/></svg>