<svg enable-background="new 0 0 36 36" height="512" viewBox="0 0 36 36" width="512" xmlns="http://www.w3.org/2000/svg"><path d="m3.442 23.883c6.061 3.333 8.497 8.761 11.417 10.367 2.921 1.606 9.978 3.299 17.366-10.137s.221-19.945-2.992-21.712c-15.042-8.27-36.525 15.58-25.791 21.482z" fill="#efefef"/><path d="m25.75 10.75h2.5c.552 0 1 .448 1 1v12.5c0 .552-.448 1-1 1h-20.5c-.552 0-1-.448-1-1v-12.5c0-.552.448-1 1-1h2.5z" fill="#f3f3f1"/><g fill="#2fdf84"><path d="m17.986 17.25-5.246-2.554v-5.642l5.246 2.446z"/><path d="m23.24 14.696-5.246 2.554v-5.75l5.246-2.446z"/><path d="m12.74 9.054 5.254-2.304 5.246 2.304-5.246 2.446z"/></g><path d="m9 24.25v-12.5c0-.552.448-1 1-1h-2.25c-.552 0-1 .448-1 1v12.5c0 .552.448 1 1 1h2.25c-.552 0-1-.448-1-1z" fill="#d5dbe1"/><path d="m15 14.696v-4.593l-2.25-1.049v5.642l5.246 2.554v-1.095z" fill="#00b871"/><path d="m20.254 11.5 2.996-1.397v-1.049l-5.246 2.446v5.75l2.25-1.095z" fill="#00b871"/><path d="m16.5 9.054 3.377-1.481-1.873-.823-5.254 2.304 5.254 2.446 1.873-.874z" fill="#00b871"/><g fill="#a4afc1"><path d="m6.159 5.457h2v1h-2z" transform="matrix(.707 -.707 .707 .707 -2.115 6.807)"/><path d="m2.094 9.523h2v1h-2z" transform="matrix(.707 -.707 .707 .707 -6.182 5.123)"/><path d="m2.594 4.78h1v2h-1z" transform="matrix(.707 -.707 .707 .707 -3.181 3.881)"/><path d="m27.094 6.5c-.827 0-1.5-.673-1.5-1.5s.673-1.5 1.5-1.5 1.5.673 1.5 1.5-.673 1.5-1.5 1.5zm0-2c-.276 0-.5.225-.5.5s.224.5.5.5.5-.225.5-.5-.224-.5-.5-.5z"/></g><path d="m28.25 26h-20.5c-.965 0-1.75-.785-1.75-1.75v-12.5c0-.965.785-1.75 1.75-1.75h2.5v1.5h-2.5c-.138 0-.25.112-.25.25v12.5c0 .138.112.25.25.25h20.5c.138 0 .25-.112.25-.25v-12.5c0-.138-.112-.25-.25-.25h-2.5v-1.5h2.5c.965 0 1.75.785 1.75 1.75v12.5c0 .965-.785 1.75-1.75 1.75z"/><path d="m13.75 28.5h8.5v1.5h-8.5z"/><path d="m17.25 25.25h1.5v4h-1.5z"/><path d="m17.997 18c-.112 0-.224-.025-.328-.075l-5.247-2.554c-.258-.126-.422-.388-.422-.675v-5.642c0-.256.131-.495.347-.633s.488-.155.72-.047l5.247 2.446c.264.123.433.389.433.68v5.75c0 .259-.133.499-.353.636-.121.076-.259.114-.397.114zm-4.497-3.772 3.747 1.823v-4.073l-3.747-1.748z"/><path d="m18.003 18c-.139 0-.276-.038-.397-.114-.219-.137-.353-.377-.353-.636v-5.75c0-.291.169-.557.433-.68l5.247-2.446c.232-.108.504-.091.72.047s.347.377.347.633v5.643c0 .287-.164.549-.422.675l-5.247 2.554c-.103.049-.216.074-.328.074zm.75-6.022v4.073l3.747-1.823v-3.998z"/><path d="m13.051 9.74-.603-1.373 5.253-2.304c.192-.084.411-.084.603 0l5.247 2.304-.603 1.373-4.945-2.171z"/><path d="m21.5 12.27h-1.5v-1.547l-4.921-2.133.597-1.377 5.373 2.329c.274.119.452.39.452.688v2.04z"/></svg>