<svg enable-background="new 0 0 36 36" height="512" viewBox="0 0 36 36" width="512" xmlns="http://www.w3.org/2000/svg"><path d="m8.114 5.564c-1.805 6.677-6.504 10.327-7.374 13.545s-.847 10.475 13.955 14.477 19.432-4.501 20.388-8.041c4.481-16.572-23.772-31.807-26.969-19.981z" fill="#efefef"/><path d="m26.25 11.75h-.5-15.5-.5c-.552 0-1 .448-1 1v11.5h18.5v-11.5c0-.552-.448-1-1-1z" fill="#f3f3f1"/><g fill="#2fdf84"><path d="m17.986 17.25-5.246-2.554v-5.642l5.246 2.446z"/><path d="m23.24 14.696-5.246 2.554v-5.75l5.246-2.446z"/><path d="m12.74 9.054 5.254-2.304 5.246 2.304-5.246 2.446z"/></g><path d="m12 11.75h-1.75-.5c-.552 0-1 .448-1 1v11.5h2.25v-11.5c0-.552.448-1 1-1z" fill="#d5dbe1"/><path d="m15 14.696v-4.593l-2.25-1.049v5.642l5.246 2.554v-1.095z" fill="#00b871"/><path d="m20.254 11.5 2.996-1.397v-1.049l-5.246 2.446v5.75l2.25-1.095z" fill="#00b871"/><path d="m16.5 9.054 3.377-1.481-1.873-.823-5.254 2.304 5.254 2.446 1.873-.874z" fill="#00b871"/><g fill="#a4afc1"><path d="m19.875 3.5h2v1h-2z"/><path d="m14.125 3.5h2v1h-2z"/><path d="m17.625 0h1v2h-1z"/><path d="m31.25 21.77c-.827 0-1.5-.673-1.5-1.5s.673-1.5 1.5-1.5 1.5.673 1.5 1.5-.673 1.5-1.5 1.5zm0-2c-.276 0-.5.225-.5.5s.224.5.5.5.5-.225.5-.5-.224-.5-.5-.5z"/></g><path d="m6.75 23.5h22.5v1.5h-22.5z"/><path d="m28 24.25h-1.5v-11.5c0-.138-.112-.25-.25-.25h-.5v-1.5h.5c.965 0 1.75.785 1.75 1.75z"/><path d="m9.5 24.25h-1.5v-11.5c0-.965.785-1.75 1.75-1.75h.5v1.5h-.5c-.138 0-.25.112-.25.25z"/><path d="m17.997 18c-.112 0-.224-.025-.328-.075l-5.247-2.554c-.258-.126-.422-.388-.422-.675v-5.642c0-.256.131-.495.347-.633.215-.138.488-.155.72-.047l5.247 2.446c.264.123.433.389.433.68v5.75c0 .259-.133.499-.353.636-.121.076-.259.114-.397.114zm-4.497-3.772 3.747 1.823v-4.073l-3.747-1.748z"/><path d="m18.003 18c-.139 0-.276-.038-.397-.114-.219-.137-.353-.377-.353-.636v-5.75c0-.291.169-.557.433-.68l5.247-2.446c.232-.108.504-.091.72.047s.347.377.347.633v5.643c0 .287-.164.549-.422.675l-5.247 2.554c-.103.049-.216.074-.328.074zm.75-6.022v4.073l3.747-1.823v-3.998z"/><path d="m13.051 9.74-.603-1.373 5.253-2.304c.192-.084.411-.084.603 0l5.247 2.304-.603 1.373-4.945-2.171z"/><path d="m21.5 12.27h-1.5v-1.547l-4.921-2.133.597-1.377 5.373 2.329c.274.119.452.39.452.688v2.04z"/></svg>