<svg enable-background="new 0 0 36 36" height="512" viewBox="0 0 36 36" width="512" xmlns="http://www.w3.org/2000/svg"><path d="m26.982 3.914c-6.916.129-11.732-3.365-15.065-3.302s-10.296 2.109-10.009 17.44 9.744 17.404 13.41 17.336c17.164-.321 23.911-31.703 11.664-31.474z" fill="#efefef"/><path d="m7.75 13.25v11c0 .55.45 1 1 1h13.5c1.105 0 2-.895 2-2v-10z" fill="#f3f3f1"/><path d="m6.75 9.75h18.5v3.5h-18.5z" fill="#2fdf84"/><path d="m22.5 6.75h-13l-2.75 3h18.5z" fill="#2fdf84"/><path d="m10 24.25v-11h-2.25v11c0 .55.45 1 1 1h2.25c-.55 0-1-.45-1-1z" fill="#d5dbe1"/><path d="m6.75 9.75h2.25v3.5h-2.25z" fill="#00b871"/><path d="m9.5 6.75-2.75 3h2.25l2.75-3z" fill="#00b871"/><g fill="#a4afc1"><path d="m26.625 5.25c-.827 0-1.5-.673-1.5-1.5s.673-1.5 1.5-1.5 1.5.673 1.5 1.5-.673 1.5-1.5 1.5zm0-2c-.275 0-.5.225-.5.5s.225.5.5.5.5-.225.5-.5-.225-.5-.5-.5z"/><path d="m3.5 0h1v2h-1z"/><path d="m3.5 5.75h1v2h-1z"/><path d="m0 3.25h2v1h-2z"/><path d="m5.75 3.25h2v1h-2z"/></g><path d="m22.5 29.25h-1.5v-1.909c0-3.571 2.859-6.478 6.375-6.478h1.875v1.5h-1.875c-2.688 0-4.875 2.233-4.875 4.978z"/><path d="m26.462 25.043-.986-1.131 2.634-2.299-2.634-2.298.986-1.131 3.281 2.863c.163.143.257.349.257.566s-.094.423-.257.565z"/><path d="m19.25 26h-10.5c-.965 0-1.75-.785-1.75-1.75v-11c0-.414.336-.75.75-.75h16.5c.414 0 .75.336.75.75v3h-1.5v-2.25h-15v10.25c0 .136.114.25.25.25h10.5z"/><path d="m13.75 15.5h4.5v1.5h-4.5z"/><path d="m25.25 14h-18.5c-.414 0-.75-.336-.75-.75v-3.5c0-.414.336-.75.75-.75h18.5c.414 0 .75.336.75.75v3.5c0 .414-.336.75-.75.75zm-17.75-1.5h17v-2h-17z"/><path d="m24.697 10.257-2.527-2.757h-12.34l-2.527 2.757-1.106-1.014 2.75-3c.142-.155.343-.243.553-.243h13c.21 0 .411.088.553.243l2.75 3z"/></svg>