<svg enable-background="new 0 0 36 36" height="512" viewBox="0 0 36 36" width="512" xmlns="http://www.w3.org/2000/svg"><path d="m34.904 20.355c-3.782-5.791-3.38-11.727-5.203-14.518s-7.256-7.603-20.093.782-9.572 17.5-7.566 20.569c9.388 14.372 39.561 3.423 32.862-6.833z" fill="#efefef"/><path d="m16.006 15.75h-.012l-9.244-4.5v5.129 4.121l9.25 5.125 9.25-5.125v-9.25z" fill="#f3f3f1"/><path d="m6.75 11.25 9.244-4.5 9.256 4.5-9.256 4.5z" fill="#2fdf84"/><circle cx="23.5" cy="23.5" fill="#2fdf84" r="5.75"/><path d="m18.244 15.75h.012l6.994-3.405v-1.095l-8.125 3.955z" fill="#d5dbe1"/><path d="m9 20.5v-4.121-4.034l-2.25-1.095v5.129 4.121l9.25 5.125 1.125-.623z" fill="#d5dbe1"/><path d="m10.25 11.25 7.495-3.649-1.751-.851-9.244 4.5 9.244 4.5 1.751-.851z" fill="#00b871"/><path d="m20 23.5c0-2.79 1.988-5.115 4.625-5.638-.364-.072-.74-.112-1.125-.112-3.176 0-5.75 2.574-5.75 5.75s2.574 5.75 5.75 5.75c.385 0 .761-.039 1.125-.112-2.637-.523-4.625-2.848-4.625-5.638z" fill="#00b871"/><g fill="#a4afc1"><path d="m30.25 22.25c-.827 0-1.5-.673-1.5-1.5s.673-1.5 1.5-1.5 1.5.673 1.5 1.5-.673 1.5-1.5 1.5zm0-2c-.275 0-.5.225-.5.5s.225.5.5.5.5-.225.5-.5-.225-.5-.5-.5z"/><path d="m11.14 27.509h2v1h-2z" transform="matrix(.707 -.707 .707 .707 -16.249 16.788)"/><path d="m7.074 31.575h2v1h-2z" transform="matrix(.707 -.707 .707 .707 -20.315 15.104)"/><path d="m7.574 26.832h1v2h-1z" transform="matrix(.707 -.707 .707 .707 -17.315 13.861)"/><path d="m11.64 30.897h1v2.001h-1z" transform="matrix(.707 -.707 .707 .707 -19 17.927)"/></g><path d="m23.5 30c-3.584 0-6.5-2.916-6.5-6.5s2.916-6.5 6.5-6.5 6.5 2.916 6.5 6.5-2.916 6.5-6.5 6.5zm0-11.5c-2.757 0-5 2.243-5 5s2.243 5 5 5 5-2.243 5-5-2.243-5-5-5z"/><path d="m25.745 24.805-2.245-2.041-2.245 2.041-1.01-1.109 2.75-2.5c.287-.26.723-.26 1.01 0l2.75 2.5z"/><path d="m14.884 25.904-8.5-4.75c-.238-.132-.384-.383-.384-.654v-9.25c0-.258.133-.499.353-.636.22-.138.495-.151.726-.039l8.921 4.344 8.922-4.343c.231-.113.507-.099.726.039.219.136.352.377.352.635v4h-1.5v-2.801l-8.166 3.975c-.205.1-.463.1-.668 0l-8.166-3.975v7.61l8.116 4.536z"/><path d="m24.922 11.924-8.928-4.34-8.916 4.34-.656-1.349 9.244-4.5c.207-.101.449-.101.656 0l9.256 4.5z"/><path d="m12 17.24h-1.5v-3.8c0-.283.159-.542.412-.67l9.09-4.581.676 1.34-8.678 4.373z"/></svg>