<svg enable-background="new 0 0 36 36" height="512" viewBox="0 0 36 36" width="512" xmlns="http://www.w3.org/2000/svg"><path d="m27.417 3.914c-6.915.129-11.732-3.365-15.064-3.302s-10.296 2.109-10.009 17.44 9.744 17.404 13.41 17.336c17.163-.321 23.911-31.703 11.663-31.474z" fill="#efefef"/><path d="m15 6.75c-4.556 0-8.25 3.694-8.25 8.25v.25 7.26c0 .409.331.74.74.74h7.26.5 7.26c.409 0 .74-.331.74-.74v-7.26-.25c0-4.556-3.694-8.25-8.25-8.25z" fill="#f3f3f1"/><circle cx="23.5" cy="23.5" fill="#2fdf84" r="5.75"/><path d="m9 22.51v-7.26-.25c0-4.174 3.102-7.614 7.125-8.164-.369-.051-.742-.086-1.125-.086-4.556 0-8.25 3.694-8.25 8.25v.25 7.26c0 .409.331.74.74.74h2.25c-.409 0-.74-.331-.74-.74z" fill="#d5dbe1"/><path d="m20 23.5c0-2.79 1.988-5.115 4.625-5.638-.364-.072-.74-.112-1.125-.112-3.176 0-5.75 2.574-5.75 5.75s2.574 5.75 5.75 5.75c.385 0 .761-.039 1.125-.112-2.637-.523-4.625-2.848-4.625-5.638z" fill="#00b871"/><g fill="#a4afc1"><path d="m7.783 3.13h2v1h-2z" transform="matrix(.707 -.707 .707 .707 .006 7.274)"/><path d="m3.717 7.196h2v1h-2z" transform="matrix(.707 -.707 .707 .707 -4.061 5.59)"/><path d="m4.217 2.453h1v2h-1z" transform="matrix(.707 -.707 .707 .707 -1.06 4.348)"/><path d="m28.25 15.25c-.827 0-1.5-.673-1.5-1.5s.673-1.5 1.5-1.5 1.5.673 1.5 1.5-.673 1.5-1.5 1.5zm0-2c-.276 0-.5.225-.5.5s.224.5.5.5.5-.225.5-.5-.224-.5-.5-.5z"/></g><path d="m15.25 24h-7.76c-.822 0-1.49-.669-1.49-1.49v-7.51c0-4.963 4.038-9 9-9s9 4.037 9 9v.25h-1.5v-.25c0-4.136-3.364-7.5-7.5-7.5s-7.5 3.364-7.5 7.5v7.51l7.75-.01z"/><path d="m15.25 24h-4.5c-.414 0-.75-.336-.75-.75v-8.5c0-.414.336-.75.75-.75h8.5c.414 0 .75.336.75.75v1.5h-1.5v-.75h-7v7h3.75z"/><path d="m10.75 16.5h6.5v1.5h-6.5z"/><path d="m10.75 19.5h4.5v1.5h-4.5z"/><path d="m23.5 30c-3.584 0-6.5-2.916-6.5-6.5s2.916-6.5 6.5-6.5 6.5 2.916 6.5 6.5-2.916 6.5-6.5 6.5zm0-11.5c-2.757 0-5 2.243-5 5s2.243 5 5 5 5-2.243 5-5-2.243-5-5-5z"/><path d="m22.75 20.75h1.5v5.5h-1.5z"/><path d="m20.75 22.75h5.5v1.5h-5.5z"/></svg>