<svg enable-background="new 0 0 36 36" height="512" viewBox="0 0 36 36" width="512" xmlns="http://www.w3.org/2000/svg"><path d="m34.904 20.355c-3.782-5.791-3.38-11.727-5.203-14.518s-7.256-7.603-20.093.782-9.572 17.5-7.566 20.569c9.388 14.372 39.561 3.423 32.862-6.833z" fill="#efefef"/><path d="m18 10.25-9.25 6.546v11.454c0 .55.45 1 1 1h16.5c.55 0 1-.45 1-1v-11.422z" fill="#f3f3f1"/><path d="m6.75 14.75 11.25-8 11.25 8v3.5l-11.25-8-11.25 8z" fill="#f3f3f1"/><g fill="#2fdf84"><path d="m18 23.75h6.75v5.5h-6.75z"/><path d="m14.75 17.75h6.5v6h-6.5z"/><path d="m11.25 23.75h6.75v5.5h-6.75z"/></g><path d="m11 28.25v-11.454l8.122-5.748-1.122-.798-9.25 6.546v11.454c0 .55.45 1 1 1h2.25c-.55 0-1-.45-1-1z" fill="#d5dbe1"/><path d="m20.25 10.25-1.125.8 10.125 7.2v-1.6z" fill="#d5dbe1"/><path d="m9 14.75 10.125-7.2-1.125-.8-11.25 8v3.5l2.25-1.6z" fill="#d5dbe1"/><path d="m18 23.75h2.25v5.5h-2.25z" fill="#00b871"/><path d="m14.75 17.75h2.25v6h-2.25z" fill="#00b871"/><path d="m11.25 23.75h2.25v5.5h-2.25z" fill="#00b871"/><g fill="#a4afc1"><path d="m5.826 10.055h2v1h-2z" transform="matrix(.707 -.707 .707 .707 -5.465 7.918)"/><path d="m1.76 14.121h2.001v1h-2.001z" transform="matrix(.707 -.707 .707 .707 -9.53 6.234)"/><path d="m2.26 9.378h1v2.001h-1z" transform="matrix(.707 -.707 .707 .707 -6.531 4.993)"/><path d="m31.272 12.183c-.827 0-1.5-.673-1.5-1.5s.673-1.5 1.5-1.5 1.5.673 1.5 1.5-.672 1.5-1.5 1.5zm0-2c-.275 0-.5.224-.5.5s.225.5.5.5.5-.224.5-.5-.224-.5-.5-.5z"/></g><path d="m26.25 30h-16.5c-.965 0-1.75-.785-1.75-1.75v-11h1.5v11c0 .136.114.25.25.25h16.5c.136 0 .25-.114.25-.25v-11h1.5v11c0 .965-.785 1.75-1.75 1.75z"/><path d="m29.25 19c-.153 0-.306-.047-.435-.139l-10.815-7.691-10.815 7.691c-.228.162-.528.184-.778.055-.251-.128-.407-.385-.407-.666v-3.5c0-.243.117-.471.315-.611l11.25-8c.26-.185.609-.185.869 0l11.25 8c.199.14.316.368.316.611v3.5c0 .281-.156.538-.406.667-.109.055-.227.083-.344.083zm-11.25-9.5c.152 0 .305.046.435.139l10.065 7.157v-1.659l-10.5-7.467-10.5 7.467v1.659l10.065-7.158c.13-.092.283-.138.435-.138z"/><path d="m24.75 30h-6.75c-.414 0-.75-.336-.75-.75v-5.5c0-.414.336-.75.75-.75h6.75c.414 0 .75.336.75.75v5.5c0 .414-.336.75-.75.75zm-6-1.5h5.25v-4h-5.25z"/><path d="m21.25 24.5h-6.5c-.414 0-.75-.336-.75-.75v-6c0-.414.336-.75.75-.75h6.5c.414 0 .75.336.75.75v6c0 .414-.336.75-.75.75zm-5.75-1.5h5v-4.5h-5z"/><path d="m18 30h-6.75c-.414 0-.75-.336-.75-.75v-5.5c0-.414.336-.75.75-.75h6.75c.414 0 .75.336.75.75v5.5c0 .414-.336.75-.75.75zm-6-1.5h5.25v-4h-5.25z"/><path d="m17.25 17h1.5v3h-1.5z"/><path d="m14 23h1.5v3h-1.5z"/><path d="m20.5 23h1.5v3h-1.5z"/></svg>