<svg enable-background="new 0 0 36 36" height="512" viewBox="0 0 36 36" width="512" xmlns="http://www.w3.org/2000/svg"><path d="m27.417 3.914c-6.915.129-11.732-3.365-15.064-3.302s-10.296 2.109-10.009 17.44 9.744 17.404 13.41 17.336c17.163-.321 23.911-31.703 11.663-31.474z" fill="#efefef"/><path d="m28.25 29.25h-20.5c-.552 0-1-.448-1-1v-13.75l11.25-7.75 11.25 7.75v13.75c0 .552-.448 1-1 1z" fill="#f3f3f1"/><g fill="#2fdf84"><path d="m18 23.75h6.75v5.5h-6.75z"/><path d="m14.75 17.75h6.5v6h-6.5z"/><path d="m11.25 23.75h6.75v5.5h-6.75z"/></g><path d="m9 28.25v-13.75l10.125-6.975-1.125-.775-11.25 7.75v13.75c0 .552.448 1 1 1h2.25c-.552 0-1-.448-1-1z" fill="#d5dbe1"/><path d="m18 23.75h2.25v5.5h-2.25z" fill="#00b871"/><path d="m14.75 17.75h2.25v6h-2.25z" fill="#00b871"/><path d="m11.25 23.75h2.25v5.5h-2.25z" fill="#00b871"/><g fill="#a4afc1"><path d="m29.25 11.5c-.827 0-1.5-.673-1.5-1.5s.673-1.5 1.5-1.5 1.5.673 1.5 1.5-.673 1.5-1.5 1.5zm0-2c-.276 0-.5.224-.5.5s.224.5.5.5.5-.224.5-.5-.224-.5-.5-.5z"/><path d="m6.375 2h1v2h-1z"/><path d="m6.375 7.75h1v2h-1z"/><path d="m2.875 5.25h2v1h-2z"/><path d="m8.625 5.25h2v1h-2z"/></g><path d="m24.75 30h-6.75c-.414 0-.75-.336-.75-.75v-5.5c0-.414.336-.75.75-.75h6.75c.414 0 .75.336.75.75v5.5c0 .414-.336.75-.75.75zm-6-1.5h5.25v-4h-5.25z"/><path d="m21.25 24.5h-6.5c-.414 0-.75-.336-.75-.75v-6c0-.414.336-.75.75-.75h6.5c.414 0 .75.336.75.75v6c0 .414-.336.75-.75.75zm-5.75-1.5h5v-4.5h-5z"/><path d="m18 30h-6.75c-.414 0-.75-.336-.75-.75v-5.5c0-.414.336-.75.75-.75h6.75c.414 0 .75.336.75.75v5.5c0 .414-.336.75-.75.75zm-6-1.5h5.25v-4h-5.25z"/><path d="m17.25 17.75h1.5v1.5h-1.5z"/><path d="m14 23.75h1.5v1.5h-1.5z"/><path d="m20.5 23.75h1.5v1.5h-1.5z"/><path d="m28.25 30h-20.5c-.965 0-1.75-.785-1.75-1.75v-13.75c0-.247.122-.478.325-.618l11.25-7.75c.256-.177.595-.177.851 0l11.25 7.75c.202.14.324.371.324.618v13.75c0 .965-.785 1.75-1.75 1.75zm-20.75-15.106v13.356c0 .138.112.25.25.25h20.5c.138 0 .25-.112.25-.25v-13.356l-10.5-7.233z"/></svg>