<svg id="_x31__x2C_5" enable-background="new 0 0 36 36" height="512" viewBox="0 0 36 36" width="512" xmlns="http://www.w3.org/2000/svg"><path d="m8.114 5.564c-1.805 6.677-6.504 10.327-7.374 13.545s-.847 10.475 13.955 14.477 19.432-4.501 20.388-8.041c4.481-16.572-23.772-31.807-26.969-19.981z" fill="#efefef"/><path d="m25.05 19.999h2v1h-2z" fill="#a4afc1" transform="matrix(.707 -.707 .707 .707 -6.865 24.424)"/><path d="m29.116 15.933h2v1h-2z" fill="#a4afc1" transform="matrix(.707 -.707 .707 .707 -2.799 26.108)"/><path d="m29.616 19.675h1v2h-1z" fill="#a4afc1" transform="matrix(.707 -.707 .707 .707 -5.8 27.345)"/><path d="m16.25 11.25h-8.5c-.55 0-1 .45-1 1v17h10.5v-17c0-.552-.448-1-1-1z" fill="#f3f3f1"/><g fill="#2fdf84"><path d="m15.25 11.25h-6.5v-1.5c0-.552.448-1 1-1h4.5c.552 0 1 .448 1 1z"/><path d="m10.25 24.75h3.5v4.5h-3.5z"/><path d="m10.25 24.75h3.5v4.5h-3.5z"/><circle cx="21" cy="24" r="1.25"/></g><path d="m9.75 11.25h-2c-.55 0-1 .45-1 1v17h2v-17c0-.55.45-1 1-1z" fill="#d5dbe1"/><path d="m11.75 8.75h-2c-.552 0-1 .448-1 1v1.5h2v-1.5c0-.552.448-1 1-1z" fill="#00b871"/><path d="m22 24c0-.19.049-.365.125-.526-.2-.425-.625-.724-1.125-.724-.69 0-1.25.56-1.25 1.25s.56 1.25 1.25 1.25c.5 0 .925-.299 1.125-.724-.076-.161-.125-.336-.125-.526z" fill="#00b871"/><path d="m10.25 24.75h2.25v4.5h-2.25z" fill="#00b871"/><path d="m17.25 30h-10.5c-.414 0-.75-.336-.75-.75v-17c0-.965.785-1.75 1.75-1.75h8.5c.965 0 1.75.785 1.75 1.75v17c0 .414-.336.75-.75.75zm-9.75-1.5h9v-16.25c0-.138-.112-.25-.25-.25h-8.5c-.136 0-.25.114-.25.25z"/><path d="m15.25 12h-6.5c-.414 0-.75-.336-.75-.75v-1.5c0-.965.785-1.75 1.75-1.75h4.5c.965 0 1.75.785 1.75 1.75v1.5c0 .414-.336.75-.75.75zm-5.75-1.5h5v-.75c0-.138-.112-.25-.25-.25h-4.5c-.138 0-.25.112-.25.25z"/><path d="m11.25 6h1.5v3.5h-1.5z"/><path d="m20.25 25.505h1.5v3.745h-1.5z"/><path d="m21 26c-1.103 0-2-.897-2-2s.897-2 2-2 2 .897 2 2-.897 2-2 2zm0-2.5c-.276 0-.5.224-.5.5s.224.5.5.5.5-.224.5-.5-.224-.5-.5-.5z"/><path d="m13.75 30h-3.5c-.414 0-.75-.336-.75-.75v-4.5c0-.414.336-.75.75-.75h3.5c.414 0 .75.336.75.75v4.5c0 .414-.336.75-.75.75zm-2.75-1.5h2v-3h-2z"/><path d="m10 19.5h4v1.5h-4z"/><path d="m10 13.5h4v1.5h-4z"/><path d="m10 16.5h4v1.5h-4z"/><path d="m15 28.5h10v1.5h-10z"/><path d="m21.708 11.881-1.066-1.055c.893-.904 2.088-1.412 3.366-1.431 1.256-.029 2.487.455 3.407 1.332l-1.035 1.086c-.634-.604-1.469-.94-2.35-.917-.883.013-1.707.362-2.322.985z"/><path d="m19.283 9.57-1.066-1.055c1.52-1.537 3.558-2.401 5.74-2.433 2.162-.023 4.245.772 5.811 2.264l-1.035 1.086c-1.279-1.219-2.989-1.891-4.754-1.85-1.787.026-3.454.732-4.696 1.988z"/><circle cx="24.035" cy="14" r="1"/></svg>