<svg id="_x31__x2C_5" height="512" viewBox="0 0 36 36" width="512" xmlns="http://www.w3.org/2000/svg"><path d="m31.833 8.377c0 6.917 3.583 11.667 3.583 15s-1.916 10.333-17.249 10.333-17.584-9.417-17.584-13.083c0-17.167 31.25-24.5 31.25-12.25z" fill="#efefef"/><path d="m25.5 5c-.827 0-1.5-.673-1.5-1.5s.673-1.5 1.5-1.5 1.5.673 1.5 1.5-.673 1.5-1.5 1.5zm0-2c-.276 0-.5.224-.5.5s.224.5.5.5.5-.224.5-.5-.224-.5-.5-.5z" fill="#a4afc1"/><path d="m6.75 9.75v16.5c0 .552.448 1 1 1h13.5v-14.5z" fill="#f3f3f1"/><path d="m24.5 8.75h2.75v6.75h-2.75z" fill="#f3f3f1"/><path d="m21.25 15.75h6c1.105 0 2 .895 2 2v8.5c0 .552-.448 1-1 1h-7z" fill="#2fdf84"/><path d="m9 26.25v-16.034l-2.25-.466v16.5c0 .552.448 1 1 1h2.25c-.552 0-1-.448-1-1z" fill="#d5dbe1"/><path d="m24.5 8.75h2.25v6.75h-2.25z" fill="#d5dbe1"/><path d="m21.25 15.75h2.25v11.5h-2.25z" fill="#00b871"/><path d="m21.25 28h-13.5c-.965 0-1.75-.785-1.75-1.75v-16.5c0-.226.102-.439.276-.582.175-.143.405-.199.625-.153l14.5 3c.349.072.599.38.599.735v14.5c0 .414-.336.75-.75.75zm-13.75-17.329v15.579c0 .138.112.25.25.25h12.75v-13.139z"/><path d="m28.25 28h-7v-1.5h7c.138 0 .25-.112.25-.25v-8.5c0-.689-.561-1.25-1.25-1.25h-6v-1.5h6c1.517 0 2.75 1.233 2.75 2.75v8.5c0 .965-.785 1.75-1.75 1.75z"/><path d="m26.5 18.5h3.5v1.5h-3.5z"/><path d="m26.5 23h3.5v1.5h-3.5z"/><path d="m28 15.5h-1.5v-6h-1.25v6h-1.5v-6.75c0-.414.336-.75.75-.75h2.75c.414 0 .75.336.75.75z"/><path d="m22.5 8h6.5v1.5h-6.5z"/><path d="m10.25 17h-.5c-.414 0-.75-.336-.75-.75v-.5c0-.414.336-.75.75-.75h.5c.414 0 .75.336.75.75v.5c0 .414-.336.75-.75.75z"/><path d="m14.25 17h-.5c-.414 0-.75-.336-.75-.75v-.5c0-.414.336-.75.75-.75h.5c.414 0 .75.336.75.75v.5c0 .414-.336.75-.75.75z"/><path d="m18.25 17h-.5c-.414 0-.75-.336-.75-.75v-.5c0-.414.336-.75.75-.75h.5c.414 0 .75.336.75.75v.5c0 .414-.336.75-.75.75z"/><path d="m10.25 21h-.5c-.414 0-.75-.336-.75-.75v-.5c0-.414.336-.75.75-.75h.5c.414 0 .75.336.75.75v.5c0 .414-.336.75-.75.75z"/><path d="m14.25 21h-.5c-.414 0-.75-.336-.75-.75v-.5c0-.414.336-.75.75-.75h.5c.414 0 .75.336.75.75v.5c0 .414-.336.75-.75.75z"/><path d="m18.25 21h-.5c-.414 0-.75-.336-.75-.75v-.5c0-.414.336-.75.75-.75h.5c.414 0 .75.336.75.75v.5c0 .414-.336.75-.75.75z"/><path d="m10.25 25h-.5c-.414 0-.75-.336-.75-.75v-.5c0-.414.336-.75.75-.75h.5c.414 0 .75.336.75.75v.5c0 .414-.336.75-.75.75z"/><path d="m14.25 25h-.5c-.414 0-.75-.336-.75-.75v-.5c0-.414.336-.75.75-.75h.5c.414 0 .75.336.75.75v.5c0 .414-.336.75-.75.75z"/><path d="m18.25 25h-.5c-.414 0-.75-.336-.75-.75v-.5c0-.414.336-.75.75-.75h.5c.414 0 .75.336.75.75v.5c0 .414-.336.75-.75.75z"/></svg>