<svg id="line" enable-background="new 0 0 36 36" height="512" viewBox="0 0 36 36" width="512" xmlns="http://www.w3.org/2000/svg"><path d="m27.623 31.833c-6.917 0-11.667 3.583-15 3.583s-10.333-1.916-10.333-17.249 9.417-17.584 13.083-17.584c17.167 0 24.5 31.25 12.25 31.25z" fill="#efefef"/><g fill="#a4afc1"><path d="m25.056 9.533h2v1h-2z" transform="matrix(.707 -.707 .707 .707 .537 21.363)"/><path d="m29.121 5.467h2v1h-2z" transform="matrix(.707 -.707 .707 .707 4.603 23.047)"/><path d="m25.379 4.967h1v2h-1z" transform="matrix(.707 -.707 .707 .707 3.358 20.043)"/><path d="m29.444 9.033h1v2h-1z" transform="matrix(.707 -.707 .707 .707 1.674 24.108)"/></g><path d="m19.75 29.25h-12c-.552 0-1-.448-1-1v-20.32c0-.618.555-1.088 1.164-.986l11 1.667c.482.08.836.498.836.986z" fill="#f3f3f1"/><path d="m28.25 29.25h-8.5v-13.5l8.717 1.826c.458.102.783.507.783.976v9.698c0 .552-.448 1-1 1z" fill="#2fdf84"/><path d="m15.75 29h-4.5v-4.25c0-.552.448-1 1-1h2.5c.552 0 1 .448 1 1z" fill="#2fdf84"/><path d="m19.75 15.75v13.5h2.25v-13.029z" fill="#00b871"/><path d="m14.5 23.75h-2.25c-.552 0-1 .448-1 1v4.25h2.25v-4.25c0-.552.448-1 1-1z" fill="#00b871"/><path d="m9 28.25v-20.32c0-.312.143-.585.361-.767l-1.447-.219c-.609-.102-1.164.369-1.164.986v20.32c0 .552.448 1 1 1h2.25c-.552 0-1-.448-1-1z" fill="#d5dbe1"/><path d="m19.75 30h-12c-.965 0-1.75-.785-1.75-1.75v-20.319c0-.516.226-1.002.619-1.336.393-.333.909-.478 1.418-.391l10.989 1.665c.859.143 1.474.869 1.474 1.728v19.653c0 .414-.336.75-.75.75zm-11.999-22.319c-.081 0-.135.035-.162.058-.033.029-.089.091-.089.192v20.319c0 .138.112.25.25.25h11.25v-18.903c0-.123-.088-.227-.209-.247l-10.989-1.664c-.018-.003-.035-.005-.051-.005z"/><path d="m28.25 30h-8.5c-.414 0-.75-.336-.75-.75v-13.5c0-.226.102-.44.277-.582.175-.143.404-.199.626-.152l8.717 1.826c.816.181 1.38.883 1.38 1.71v9.698c0 .965-.785 1.75-1.75 1.75zm-7.75-1.5h7.75c.138 0 .25-.112.25-.25v-9.698c0-.118-.08-.218-.195-.244l-7.805-1.635z"/><path d="m15.75 29.75h-4.5c-.414 0-.75-.336-.75-.75v-4.25c0-.965.785-1.75 1.75-1.75h2.5c.965 0 1.75.785 1.75 1.75v4.25c0 .414-.336.75-.75.75zm-3.75-1.5h3v-3.5c0-.138-.112-.25-.25-.25h-2.5c-.138 0-.25.112-.25.25z"/><path d="m9.5 10.5h3v1.5h-3z"/><path d="m14.5 10.5h3v1.5h-3z"/><path d="m9.5 13.5h3v1.5h-3z"/><path d="m14.5 13.5h3v1.5h-3z"/><path d="m9.5 16.5h3v1.5h-3z"/><path d="m14.5 16.5h3v1.5h-3z"/><path d="m9.5 19.5h3v1.5h-3z"/><path d="m14.5 19.5h3v1.5h-3z"/><path d="m23 19.5h3v1.5h-3z"/><path d="m23 22.5h3v1.5h-3z"/><path d="m23 25.5h3v1.5h-3z"/><path d="m2 28.5h32v1.5h-32z"/></svg>