<svg id="_x31__x2C_5" height="512" viewBox="0 0 36 36" width="512" xmlns="http://www.w3.org/2000/svg"><path d="m8.377 31.833c6.917 0 11.667 3.583 15 3.583s10.333-1.916 10.333-17.249-9.417-17.584-13.083-17.584c-17.167 0-24.5 31.25-12.25 31.25z" fill="#efefef"/><path d="m27.467 1.967h1v2h-1z" fill="#a4afc1" transform="matrix(.707 -.707 .707 .707 6.093 20.645)"/><path d="m31.533 6.033h1v2h-1z" fill="#a4afc1" transform="matrix(.707 -.707 .707 .707 4.409 24.711)"/><path d="m30.856 2.467h2v1h-2z" fill="#a4afc1" transform="matrix(.707 -.707 .707 .707 7.233 23.395)"/><path d="m6.75 15.75h22.5v13.5h-22.5z" fill="#f3f3f1"/><g fill="#2fdf84"><path d="m10.75 18.75h2.5v2.5h-2.5z"/><path d="m16.75 18.75h2.5v2.5h-2.5z"/><path d="m22.75 18.75h2.5v2.5h-2.5z"/><path d="m10.75 23.75h2.5v2.5h-2.5z"/><path d="m16.75 23.75h2.5v2.5h-2.5z"/><path d="m22.75 23.75h2.5v2.5h-2.5z"/><path d="m9.75 8.75h2.5v7h-2.5z"/><path d="m16.75 8.75h2.5v7h-2.5z"/><path d="m27.25 15.75h-4.5v-5h2.75l1.75 2z"/></g><path d="m6.75 15.75h2.25v13.5h-2.25z" fill="#d5dbe1"/><g fill="#00b871"><path d="m10.75 18.75h2.25v2.5h-2.25z"/><path d="m16.75 18.75h2.25v2.5h-2.25z"/><path d="m22.75 18.75h2.25v2.5h-2.25z"/><path d="m10.75 23.75h2.25v2.5h-2.25z"/><path d="m16.75 23.75h2.25v2.5h-2.25z"/><path d="m22.75 23.75h2.25v2.5h-2.25z"/><path d="m9.75 8.75h2.25v7h-2.25z"/><path d="m16.75 8.75h2.25v7h-2.25z"/><path d="m22.75 10.75h2.25v5h-2.25z"/></g><path d="m13.25 22h-2.5c-.414 0-.75-.336-.75-.75v-2.5c0-.414.336-.75.75-.75h2.5c.414 0 .75.336.75.75v2.5c0 .414-.336.75-.75.75zm-1.75-1.5h1v-1h-1z"/><path d="m19.25 22h-2.5c-.414 0-.75-.336-.75-.75v-2.5c0-.414.336-.75.75-.75h2.5c.414 0 .75.336.75.75v2.5c0 .414-.336.75-.75.75zm-1.75-1.5h1v-1h-1z"/><path d="m25.25 22h-2.5c-.414 0-.75-.336-.75-.75v-2.5c0-.414.336-.75.75-.75h2.5c.414 0 .75.336.75.75v2.5c0 .414-.336.75-.75.75zm-1.75-1.5h1v-1h-1z"/><path d="m13.25 27h-2.5c-.414 0-.75-.336-.75-.75v-2.5c0-.414.336-.75.75-.75h2.5c.414 0 .75.336.75.75v2.5c0 .414-.336.75-.75.75zm-1.75-1.5h1v-1h-1z"/><path d="m19.25 27h-2.5c-.414 0-.75-.336-.75-.75v-2.5c0-.414.336-.75.75-.75h2.5c.414 0 .75.336.75.75v2.5c0 .414-.336.75-.75.75zm-1.75-1.5h1v-1h-1z"/><path d="m25.25 27h-2.5c-.414 0-.75-.336-.75-.75v-2.5c0-.414.336-.75.75-.75h2.5c.414 0 .75.336.75.75v2.5c0 .414-.336.75-.75.75zm-1.75-1.5h1v-1h-1z"/><path d="m12.25 16.5h-2.5c-.414 0-.75-.336-.75-.75v-7c0-.414.336-.75.75-.75h2.5c.414 0 .75.336.75.75v7c0 .414-.336.75-.75.75zm-1.75-1.5h1v-5.5h-1z"/><path d="m19.25 16.5h-2.5c-.414 0-.75-.336-.75-.75v-7c0-.414.336-.75.75-.75h2.5c.414 0 .75.336.75.75v7c0 .414-.336.75-.75.75zm-1.75-1.5h1v-5.5h-1z"/><path d="m8 8h6v1.5h-6z"/><path d="m15 8h6v1.5h-6z"/><path d="m27.25 16.5h-4.5c-.414 0-.75-.336-.75-.75v-5c0-.414.336-.75.75-.75h2.75c.216 0 .422.093.564.256l1.75 2c.12.137.186.312.186.494v3c0 .414-.336.75-.75.75zm-3.75-1.5h3v-1.968l-1.34-1.532h-1.66z"/><path d="m29.25 30h-22.5c-.414 0-.75-.336-.75-.75v-13.5c0-.414.336-.75.75-.75h22.5c.414 0 .75.336.75.75v13.5c0 .414-.336.75-.75.75zm-21.75-1.5h21v-12h-21z"/></svg>