<svg enable-background="new 0 0 36 36" height="512" viewBox="0 0 36 36" width="512" xmlns="http://www.w3.org/2000/svg"><g id="BG"><g><path d="m27.417 3.914c-6.915.129-11.732-3.365-15.064-3.302s-10.296 2.109-10.009 17.44 9.744 17.404 13.41 17.336c17.163-.321 23.911-31.703 11.663-31.474z" fill="#efefef"/></g></g><g id="effect"><g><g><path d="m7.033 8.856h2v1h-2z" fill="#a4afc1" transform="matrix(.707 -.707 .707 .707 -4.262 8.421)"/></g><g><path d="m2.967 12.921h2v1h-2z" fill="#a4afc1" transform="matrix(.707 -.707 .707 .707 -8.329 6.736)"/></g><g><path d="m3.467 8.179h1v2h-1z" fill="#a4afc1" transform="matrix(.707 -.707 .707 .707 -5.329 5.493)"/></g></g><g><path d="m30 14.921c-.827 0-1.5-.673-1.5-1.5s.673-1.5 1.5-1.5 1.5.673 1.5 1.5-.673 1.5-1.5 1.5zm0-2c-.275 0-.5.224-.5.5s.225.5.5.5.5-.224.5-.5-.225-.5-.5-.5z" fill="#a4afc1"/></g></g><g id="color"><g><path d="m29.25 28.3c0 .552-.448 1-1 1h-20.5c-.552 0-1-.448-1-1v-9.75c0-.552.448-1 1-1h4v-4l6.25-2.75 6.25 2.75v4h4c.552 0 1 .448 1 1z" fill="#f3f3f1"/></g><g><path d="m18 21.8c-1.795 0-3.25 1.455-3.25 3.25v4.25h6.5v-4.25c0-1.795-1.455-3.25-3.25-3.25z" fill="#2fdf84"/></g><g><g><path d="m26.5 19.3h2.75v-.75c0-.552-.448-1-1-1h-1.75z" fill="#d5dbe1"/></g><g><path d="m9 20.3c0-.552.448-1 1-1h4v-4l6.25-2.75 4 1.76v-.76l-6.25-2.75-6.25 2.75v4h-4c-.552 0-1 .448-1 1v9.75c0 .552.448 1 1 1h1.25z" fill="#d5dbe1"/></g></g><g><path d="m19.125 22.012c-.352-.131-.728-.212-1.125-.212-1.795 0-3.25 1.455-3.25 3.25v4.25h2.25v-4.25c0-1.398.887-2.579 2.125-3.038z" fill="#00b871"/></g></g><g id="_x31_.5"><g><path d="m28.25 30.05h-20.5c-.965 0-1.75-.785-1.75-1.75v-9.75c0-.965.785-1.75 1.75-1.75h3.25v-3.25c0-.297.176-.567.448-.687l6.25-2.75c.191-.085.412-.085.604 0l6.25 2.75c.272.12.448.389.448.687v3.25h3.25c.965 0 1.75.785 1.75 1.75v9.75c0 .965-.785 1.75-1.75 1.75zm-20.5-11.75c-.138 0-.25.112-.25.25v9.75c0 .138.112.25.25.25h20.5c.138 0 .25-.112.25-.25v-9.75c0-.138-.112-.25-.25-.25h-4c-.414 0-.75-.336-.75-.75v-3.511l-5.5-2.42-5.5 2.42v3.511c0 .414-.336.75-.75.75z"/></g><g><path d="m16.5 7.55h3v1.5h-3z"/></g><g><path d="m17.25 6.8h1.5v4h-1.5z"/></g><g><path d="m22 29.3h-1.5v-4.25c0-1.378-1.121-2.5-2.5-2.5s-2.5 1.122-2.5 2.5v4.25h-1.5v-4.25c0-2.206 1.794-4 4-4s4 1.794 4 4z"/></g></g></svg>