<svg id="_x31__x2C_5" height="512" viewBox="0 0 36 36" width="512" xmlns="http://www.w3.org/2000/svg"><path d="m8.377 31.833c6.917 0 11.667 3.583 15 3.583s10.333-1.916 10.333-17.249-9.417-17.584-13.083-17.584c-17.167 0-24.5 31.25-12.25 31.25z" fill="#efefef"/><path d="m28.467 1.967h1v2h-1z" fill="#a4afc1" transform="matrix(.707 -.707 .707 .707 6.386 21.352)"/><path d="m32.533 6.033h1v2h-1z" fill="#a4afc1" transform="matrix(.707 -.707 .707 .707 4.702 25.418)"/><path d="m31.856 2.467h2v1h-2z" fill="#a4afc1" transform="matrix(.707 -.707 .707 .707 7.525 24.102)"/><path d="m29.25 29.25h-22.5v-8.5c0-1.105.895-2 2-2h18.5c1.105 0 2 .895 2 2z" fill="#f3f3f1"/><path d="m27.25 18.75h-7.5v-5c0-.552.448-1 1-1h5.5c.552 0 1 .448 1 1z" fill="#f3f3f1"/><g fill="#2fdf84"><path d="m23.5 10.75c-1.105 0-2 .895-2 2h4c0-1.105-.895-2-2-2z"/><path d="m19.75 29.25h-3.5v-5.75c0-.966.784-1.75 1.75-1.75s1.75.784 1.75 1.75z"/><path d="m26.75 29.25h-3.5v-5.75c0-.966.784-1.75 1.75-1.75s1.75.784 1.75 1.75z"/><path d="m12.75 29.25h-3.5v-5.75c0-.966.784-1.75 1.75-1.75s1.75.784 1.75 1.75z"/></g><path d="m11 18.75h-2.25c-1.105 0-2 .895-2 2v8.5h2.25v-8.5c0-1.105.895-2 2-2z" fill="#d5dbe1"/><path d="m23 12.75h-2.25c-.552 0-1 .448-1 1v5h2.25v-5c0-.552.448-1 1-1z" fill="#d5dbe1"/><g fill="#00b871"><path d="m24.625 11.097c-.321-.219-.708-.347-1.125-.347-1.105 0-2 .895-2 2h2.25c0-.687.347-1.293.875-1.653z"/><path d="m19.125 22.17c-.305-.258-.694-.42-1.125-.42-.966 0-1.75.784-1.75 1.75v5.75h2.25v-5.75c0-.536.246-1.009.625-1.33z"/><path d="m26.125 22.17c-.305-.258-.694-.42-1.125-.42-.966 0-1.75.784-1.75 1.75v5.75h2.25v-5.75c0-.536.246-1.009.625-1.33z"/><path d="m12.125 22.17c-.305-.258-.694-.42-1.125-.42-.966 0-1.75.784-1.75 1.75v5.75h2.25v-5.75c0-.536.246-1.009.625-1.33z"/></g><path d="m29.25 30h-22.5c-.414 0-.75-.336-.75-.75v-8.5c0-1.517 1.233-2.75 2.75-2.75h18.5c1.517 0 2.75 1.233 2.75 2.75v8.5c0 .414-.336.75-.75.75zm-21.75-1.5h21v-7.75c0-.689-.561-1.25-1.25-1.25h-18.5c-.689 0-1.25.561-1.25 1.25z"/><path d="m27.25 19.5h-7.5c-.414 0-.75-.336-.75-.75v-5c0-.965.785-1.75 1.75-1.75h5.5c.965 0 1.75.785 1.75 1.75v5c0 .414-.336.75-.75.75zm-6.75-1.5h6v-4.25c0-.138-.112-.25-.25-.25h-5.5c-.138 0-.25.112-.25.25z"/><path d="m25.5 13.5h-4c-.414 0-.75-.336-.75-.75 0-1.517 1.233-2.75 2.75-2.75s2.75 1.233 2.75 2.75c0 .414-.336.75-.75.75zm-3-1.5h2c-.229-.303-.591-.5-1-.5s-.771.197-1 .5z"/><path d="m22.75 6h1.5v5.5h-1.5z"/><path d="m19.75 30h-3.5c-.414 0-.75-.336-.75-.75v-5.75c0-1.378 1.122-2.5 2.5-2.5s2.5 1.122 2.5 2.5v5.75c0 .414-.336.75-.75.75zm-2.75-1.5h2v-5c0-.551-.449-1-1-1s-1 .449-1 1z"/><path d="m26.75 30h-3.5c-.414 0-.75-.336-.75-.75v-5.75c0-1.378 1.122-2.5 2.5-2.5s2.5 1.122 2.5 2.5v5.75c0 .414-.336.75-.75.75zm-2.75-1.5h2v-5c0-.551-.449-1-1-1s-1 .449-1 1z"/><path d="m12.75 30h-3.5c-.414 0-.75-.336-.75-.75v-5.75c0-1.378 1.122-2.5 2.5-2.5s2.5 1.122 2.5 2.5v5.75c0 .414-.336.75-.75.75zm-2.75-1.5h2v-5c0-.551-.449-1-1-1s-1 .449-1 1z"/></svg>