<svg id="_x31__x2C_5" height="512" viewBox="0 0 36 36" width="512" xmlns="http://www.w3.org/2000/svg"><path d="m31.833 27.623c0-6.917 3.583-11.667 3.583-15s-1.916-10.333-17.249-10.333-17.584 9.417-17.584 13.083c0 17.167 31.25 24.5 31.25 12.25z" fill="#efefef"/><path d="m27.856 3.467h2v1h-2z" fill="#a4afc1" transform="matrix(.707 -.707 .707 .707 5.647 21.566)"/><path d="m28.533 7.033h1v2h-1z" fill="#a4afc1" transform="matrix(.707 -.707 .707 .707 2.823 22.882)"/><path d="m24.467 2.967h1v2h-1z" fill="#a4afc1" transform="matrix(.707 -.707 .707 .707 4.508 18.816)"/><path d="m21.25 27.25h-13.5c-.552 0-1-.448-1-1v-10.5c0-.552.448-1 1-1h13.5c.552 0 1 .448 1 1v10.5c0 .552-.448 1-1 1z" fill="#f3f3f1"/><g fill="#2fdf84"><path d="m28.375 27.25h-1.75c-.483 0-.875-.392-.875-.875v-3.375c0-.966.784-1.75 1.75-1.75s1.75.784 1.75 1.75v3.375c0 .483-.392.875-.875.875z"/><path d="m16.5 27.25h-4v-3c0-.552.448-1 1-1h2c.552 0 1 .448 1 1z"/><path d="m9.75 8.75h2.5v6h-2.5z"/><path d="m16.75 8.75h2.5v6h-2.5z"/></g><path d="m9 26.25v-10.5c0-.552.448-1 1-1h-2.25c-.552 0-1 .448-1 1v10.5c0 .552.448 1 1 1h2.25c-.552 0-1-.448-1-1z" fill="#d5dbe1"/><g fill="#00b871"><path d="m28 26.375v-3.375c0-.536.246-1.009.625-1.33-.305-.258-.694-.42-1.125-.42-.966 0-1.75.784-1.75 1.75v3.375c0 .483.392.875.875.875h1.75c.089 0 .169-.026.25-.05-.359-.11-.625-.43-.625-.825z"/><path d="m15.625 23.275c-.043-.006-.081-.025-.125-.025h-2c-.552 0-1 .448-1 1v3h2.25v-3c0-.508.384-.911.875-.975z"/><path d="m9.75 8.75h2.25v6h-2.25z"/><path d="m16.75 8.75h2.25v6h-2.25z"/></g><path d="m21.25 28h-13.5c-.965 0-1.75-.785-1.75-1.75v-10.5c0-.965.785-1.75 1.75-1.75h13.5c.965 0 1.75.785 1.75 1.75v10.5c0 .965-.785 1.75-1.75 1.75zm-13.5-12.5c-.138 0-.25.112-.25.25v10.5c0 .138.112.25.25.25h13.5c.138 0 .25-.112.25-.25v-10.5c0-.138-.112-.25-.25-.25z"/><path d="m28.375 28h-1.75c-.896 0-1.625-.729-1.625-1.625v-3.375c0-1.378 1.122-2.5 2.5-2.5s2.5 1.122 2.5 2.5v3.375c0 .896-.729 1.625-1.625 1.625zm-.875-6c-.551 0-1 .449-1 1v3.375c0 .069.056.125.125.125h1.75c.069 0 .125-.056.125-.125v-3.375c0-.551-.449-1-1-1z"/><path d="m9 18h11v1.5h-11z"/><path d="m16.5 28h-4c-.414 0-.75-.336-.75-.75v-3c0-.965.785-1.75 1.75-1.75h2c.965 0 1.75.785 1.75 1.75v3c0 .414-.336.75-.75.75zm-3.25-1.5h2.5v-2.25c0-.138-.112-.25-.25-.25h-2c-.138 0-.25.112-.25.25z"/><path d="m28.25 20.75h-1.5v-1c0-.689-.561-1.25-1.25-1.25h-3.25v-1.5h3.25c1.517 0 2.75 1.233 2.75 2.75z"/><path d="m25.75 23h3.5v1.5h-3.5z"/><path d="m12.25 15.5h-2.5c-.414 0-.75-.336-.75-.75v-6c0-.414.336-.75.75-.75h2.5c.414 0 .75.336.75.75v6c0 .414-.336.75-.75.75zm-1.75-1.5h1v-4.5h-1z"/><path d="m19.25 15.5h-2.5c-.414 0-.75-.336-.75-.75v-6c0-.414.336-.75.75-.75h2.5c.414 0 .75.336.75.75v6c0 .414-.336.75-.75.75zm-1.75-1.5h1v-4.5h-1z"/><path d="m8 8h6v1.5h-6z"/><path d="m15 8h6v1.5h-6z"/></svg>