<svg id="_x31__x2C_5" height="512" viewBox="0 0 36 36" width="512" xmlns="http://www.w3.org/2000/svg"><path d="m4.167 27.623c0-6.917-3.583-11.667-3.583-15s1.916-10.333 17.249-10.333 17.583 9.417 17.583 13.083c.001 17.167-31.249 24.5-31.249 12.25z" fill="#efefef"/><g fill="#a4afc1"><path d="m28.467 2.967h1v2h-1z" transform="matrix(.707 -.707 .707 .707 5.679 21.645)"/><path d="m32.533 7.033h1v2h-1z" transform="matrix(.707 -.707 .707 .707 3.995 25.711)"/><path d="m31.856 3.467h2v1h-2z" transform="matrix(.707 -.707 .707 .707 6.818 24.395)"/></g><path d="m25.25 28.25v-16.5l-18.5 2.75v12.75c0 .552.448 1 1 1z" fill="#f3f3f1"/><path d="m28.25 28.25h-9.5c-.552 0-1-.448-1-1v-5.5c0-.552.448-1 1-1h9.5c.552 0 1 .448 1 1v5.5c0 .552-.448 1-1 1z" fill="#2fdf84"/><path d="m26.25 28.25h-5.5v-2.5c0-.552.448-1 1-1h3.5c.552 0 1 .448 1 1z" fill="#f3f3f1"/><path d="m8.75 14.184v-6.684h2.5v6z" fill="#2fdf84"/><path d="m9 27.25v-12.75l16.25-2.416v-.334l-18.5 2.75v12.75c0 .552.448 1 1 1h2.25c-.552 0-1-.448-1-1z" fill="#d5dbe1"/><path d="m24 24.75h-2.25c-.552 0-1 .448-1 1v2.5h2.25v-2.5c0-.552.448-1 1-1z" fill="#d5dbe1"/><path d="m20 27.25v-5.5c0-.552.448-1 1-1h-2.25c-.552 0-1 .448-1 1v5.5c0 .552.448 1 1 1h2.25c-.552 0-1-.448-1-1z" fill="#00b871"/><path d="m11 7.5h-2.25v6.684l2.25-.616z" fill="#00b871"/><path d="m28.25 29h-9.5c-.965 0-1.75-.785-1.75-1.75v-5.5c0-.965.785-1.75 1.75-1.75h9.5c.965 0 1.75.785 1.75 1.75v5.5c0 .965-.785 1.75-1.75 1.75zm-9.5-7.5c-.138 0-.25.112-.25.25v5.5c0 .138.112.25.25.25h9.5c.138 0 .25-.112.25-.25v-5.5c0-.138-.112-.25-.25-.25z"/><path d="m26.25 29h-5.5c-.414 0-.75-.336-.75-.75v-2.5c0-.965.785-1.75 1.75-1.75h3.5c.965 0 1.75.785 1.75 1.75v2.5c0 .414-.336.75-.75.75zm-4.75-1.5h4v-1.75c0-.138-.112-.25-.25-.25h-3.5c-.138 0-.25.112-.25.25z"/><path d="m22.75 24.75h1.5v3.5h-1.5z"/><path d="m18.75 29h-11c-.965 0-1.75-.785-1.75-1.75v-12.75c0-.372.272-.687.64-.742l18.5-2.75c.214-.035.435.031.6.174s.26.35.26.568v9h-1.5v-8.13l-17 2.527v12.103c0 .138.112.25.25.25h11z"/><path d="m10.25 18h-.5c-.414 0-.75-.336-.75-.75v-.5c0-.414.336-.75.75-.75h.5c.414 0 .75.336.75.75v.5c0 .414-.336.75-.75.75z"/><path d="m14.25 18h-.5c-.414 0-.75-.336-.75-.75v-.5c0-.414.336-.75.75-.75h.5c.414 0 .75.336.75.75v.5c0 .414-.336.75-.75.75z"/><path d="m10.25 22h-.5c-.414 0-.75-.336-.75-.75v-.5c0-.414.336-.75.75-.75h.5c.414 0 .75.336.75.75v.5c0 .414-.336.75-.75.75z"/><path d="m14.25 22h-.5c-.414 0-.75-.336-.75-.75v-.5c0-.414.336-.75.75-.75h.5c.414 0 .75.336.75.75v.5c0 .414-.336.75-.75.75z"/><path d="m10.25 26h-.5c-.414 0-.75-.336-.75-.75v-.5c0-.414.336-.75.75-.75h.5c.414 0 .75.336.75.75v.5c0 .414-.336.75-.75.75z"/><path d="m14.25 26h-.5c-.414 0-.75-.336-.75-.75v-.5c0-.414.336-.75.75-.75h.5c.414 0 .75.336.75.75v.5c0 .414-.336.75-.75.75z"/><path d="m18.25 18h-.5c-.414 0-.75-.336-.75-.75v-.5c0-.414.336-.75.75-.75h.5c.414 0 .75.336.75.75v.5c0 .414-.336.75-.75.75z"/><path d="m22.25 18h-.5c-.414 0-.75-.336-.75-.75v-.5c0-.414.336-.75.75-.75h.5c.414 0 .75.336.75.75v.5c0 .414-.336.75-.75.75z"/><path d="m9.5 14.184h-1.5v-6.684c0-.414.336-.75.75-.75h2.5c.414 0 .75.336.75.75v6h-1.5v-5.25h-1z"/><path d="m7 6.75h6v1.5h-6z"/></svg>