<svg enable-background="new 0 0 36 36" height="512" viewBox="0 0 36 36" width="512" xmlns="http://www.w3.org/2000/svg"><g id="Layer_2"><g><path d="m4.167 27.671c0-6.917-3.583-11.667-3.583-15s1.916-10.334 17.249-10.334 17.583 9.417 17.583 13.083c.001 17.167-31.249 24.501-31.249 12.251z" fill="#efefef"/></g></g><g id="color"><g><path d="m29.25 12.75v1.5h-22.5v-1.5l11.25-6z" fill="#2fdf84"/></g><g><path d="m9 13.5 10.828-5.775-1.828-.975-11.25 6v1.5h2.25z" fill="#00b871"/></g><g><path d="m9.75 14.25h16.5v15h-16.5z" fill="#f3f3f1"/></g><g><path d="m9.75 14.25h2.25v15h-2.25z" fill="#d5dbe1"/></g><g><g><path d="m30.033 4.379h2v1h-2z" fill="#a4afc1" transform="matrix(.707 -.707 .707 .707 5.64 23.373)"/></g><g><path d="m30.533 8.121h1v2h-1z" fill="#a4afc1" transform="matrix(.707 -.707 .707 .707 2.64 24.615)"/></g><g><path d="m26.467 4.056h1v2h-1z" fill="#a4afc1" transform="matrix(.707 -.707 .707 .707 4.324 20.549)"/></g></g><g><path d="m5 6.556c-.827 0-1.5-.673-1.5-1.5s.673-1.5 1.5-1.5 1.5.673 1.5 1.5-.673 1.5-1.5 1.5zm0-2c-.275 0-.5.225-.5.5s.225.5.5.5.5-.225.5-.5-.225-.5-.5-.5z" fill="#a4afc1"/></g></g><g id="line"><g><path d="m29.25 15h-22.5c-.414 0-.75-.336-.75-.75v-1.5c0-.277.152-.531.397-.662l11.25-6c.221-.117.484-.117.705 0l11.25 6c.246.131.398.385.398.662v1.5c0 .414-.336.75-.75.75zm-21.75-1.5h21v-.3l-10.5-5.6-10.5 5.6z"/></g><g><path d="m6.75 28.5h22.5v1.5h-22.5z"/></g><g><g><path d="m18.38 24.5h-2.13v-1.5h2.13c.342 0 .62-.278.62-.62 0-.352-.278-.63-.62-.63h-.76c-1.169 0-2.12-.951-2.12-2.12 0-1.179.951-2.13 2.12-2.13h2.13v1.5h-2.13c-.342 0-.62.278-.62.62 0 .352.278.63.62.63h.76c1.169 0 2.12.951 2.12 2.12 0 1.179-.951 2.13-2.12 2.13z"/></g><g><path d="m17.25 16.75h1.5v1.5h-1.5z"/></g><g><path d="m17.25 23.75h1.5v1.5h-1.5z"/></g></g><g><path d="m9 14.25h1.5v15h-1.5z"/></g><g><path d="m25.5 14.25h1.5v15h-1.5z"/></g></g></svg>