<svg id="effect" height="512" viewBox="0 0 36 36" width="512" xmlns="http://www.w3.org/2000/svg"><path d="m8.377 4.167c6.917 0 11.667-3.583 15-3.583s10.333 1.916 10.333 17.249-9.417 17.583-13.083 17.583c-17.167.001-24.5-31.249-12.25-31.249z" fill="#efefef"/><path d="m26.5 16c0 .28-.22.5-.5.5h-2.5v7.5c0 .83-.67 1.5-1.5 1.5h-11c-.83 0-1.5-.67-1.5-1.5v-7.5h-2.5c-.28 0-.5-.22-.5-.5 0-.14.06-.28.16-.37l9.84-9.13 4 3.71v-2.71h3v5.49l1.5 1.39 1.34 1.25c.1.09.16.23.16.37z" fill="#f3f3f1"/><path d="m22.751 22.916c-.077-1.473.424-4.223 2.734-6.301.271-.243.694-.081.751.284.545 3.496 4.487 5.074 2.884 9.439-.983 2.675-4.308 3.956-6.849 2.639-1.962-1.016-2.996-2.992-2.727-5.191.13-1.064.429-2.173 1.251-2.847.247-.202.621-.066.716.244.246.811.613 1.278 1.24 1.733z" fill="#2fdf84"/><path d="m9 16.5h-2c-.28 0-.5-.22-.5-.5 0-.14.06-.28.16-.37l9.84-9.13 1 .93-8.84 8.2c-.1.09-.16.23-.16.37 0 .28.22.5.5.5z" fill="#d5dbe1"/><path d="m13 25.5h-2c-.83 0-1.5-.67-1.5-1.5v-7.5h2v7.5c0 .83.67 1.5 1.5 1.5z" fill="#d5dbe1"/><path d="m24.75 22.92c-.63-.46-.99-.93-1.24-1.74-.08-.24-.33-.38-.55-.33.33-1.35 1.07-2.92 2.52-4.23.28-.25.7-.09.76.28.05.29.11.57.21.84-1.44 1.86-1.77 3.96-1.7 5.18z" fill="#00b871"/><path d="m25.47 29.39c-1.06.22-2.19.11-3.2-.41-1.96-1.02-3-2.99-2.73-5.19.13-1.07.43-2.18 1.25-2.85.25-.2.62-.07.72.24.12.38.26.68.44.94-.22.52-.34 1.1-.41 1.67-.27 2.2.77 4.17 2.73 5.19.39.2.79.34 1.2.41z" fill="#00b871"/><path d="m16.5 26.25h-5.5c-1.24 0-2.25-1.009-2.25-2.25v-6.75h-1.75c-.689 0-1.25-.561-1.25-1.25 0-.356.149-.695.409-.928l9.831-9.122c.285-.267.73-.268 1.02 0l2.74 2.541v-.991c0-.414.336-.75.75-.75h3c.414 0 .75.336.75.75v5.163l1.261 1.17-1.021 1.099-1.5-1.393c-.152-.142-.239-.341-.239-.549v-4.74h-1.5v1.96c0 .298-.177.568-.45.688-.273.119-.59.066-.81-.138l-3.491-3.237-8.866 8.227h1.866c.414 0 .75.336.75.75v7.5c0 .414.337.75.75.75h5.5zm-9.324-10.075-.006.005c.002-.002.004-.004.006-.005z"/><path d="m24.445 30.25c-.878 0-1.742-.203-2.521-.605-2.235-1.158-3.434-3.437-3.127-5.948.121-.998.411-2.428 1.52-3.336.305-.25.712-.327 1.09-.213.355.108.641.37.78.711.349-1.596 1.198-3.363 2.795-4.8.328-.293.787-.386 1.2-.238.421.15.725.52.794.965.186 1.187.835 2.147 1.521 3.165 1.145 1.693 2.44 3.611 1.325 6.647-.541 1.472-1.729 2.657-3.26 3.251-.687.268-1.407.401-2.117.401zm-3.494-8.397c-.338.449-.553 1.107-.665 2.025-.231 1.901.639 3.559 2.328 4.434 1.026.531 2.268.58 3.406.139 1.129-.438 2.002-1.302 2.395-2.371.851-2.315-.081-3.694-1.159-5.29-.66-.977-1.34-1.982-1.654-3.245-1.658 1.72-2.176 3.909-2.102 5.333.015.289-.137.561-.392.698-.251.138-.563.118-.799-.053-.658-.479-1.073-.983-1.358-1.67z"/><g fill="#a4afc1"><path d="m4.217 2.379h1v2h-1z" transform="matrix(.707 -.707 .707 .707 -1.008 4.324)"/><path d="m3.717 7.121h2v1h-2z" transform="matrix(.707 -.707 .707 .707 -4.008 5.568)"/><path d="m7.96 2.879h2v1h-2z" transform="matrix(.707 -.707 .707 .707 .235 7.325)"/></g></svg>