<svg enable-background="new 0 0 36 36" height="512" viewBox="0 0 36 36" width="512" xmlns="http://www.w3.org/2000/svg"><path d="m4.167 27.623c0-6.917-3.583-11.667-3.583-15s1.916-10.333 17.249-10.333 17.583 9.417 17.583 13.083c.001 17.167-31.249 24.5-31.249 12.25z" fill="#efefef"/><g fill="#2fdf84"><path d="m9.75 23.75h6v5.5h-6z"/><path d="m15.75 23.75h6v5.5h-6z"/><path d="m21.75 24.75h4.5v4.5h-4.5z"/><path d="m13.75 17.75h5.5v6h-5.5z"/></g><g fill="#00b871"><path d="m9.75 23.75h2.25v5.5h-2.25z"/><path d="m15.75 23.75h2.25v5.5h-2.25z"/><path d="m21.75 24.75h2.25v4.5h-2.25z"/><path d="m13.75 17.75h2.25v6h-2.25z"/></g><path d="m6.184 12.589h2v1h-2z" fill="#a4afc1" transform="matrix(.707 -.707 .707 .707 -7.151 8.914)"/><path d="m2.119 16.655h2v1h-2z" fill="#a4afc1" transform="matrix(.707 -.707 .707 .707 -11.217 7.23)"/><path d="m2.619 11.912h1v2h-1z" fill="#a4afc1" transform="matrix(.707 -.707 .707 .707 -8.215 5.984)"/><path d="m32.612 17.534c-.827 0-1.5-.673-1.5-1.5s.673-1.5 1.5-1.5 1.5.673 1.5 1.5-.673 1.5-1.5 1.5zm0-2c-.275 0-.5.225-.5.5s.225.5.5.5.5-.225.5-.5-.224-.5-.5-.5z" fill="#a4afc1"/><path d="m29.25 30h-22.5c-.414 0-.75-.336-.75-.75v-11.75c0-.269.144-.518.377-.651l8-4.58.746 1.303-7.623 4.363v10.565h21v-10.565l-7.623-4.363.746-1.303 8 4.58c.233.133.377.382.377.651v11.75c0 .414-.336.75-.75.75z"/><path d="m15.75 30h-6c-.414 0-.75-.336-.75-.75v-5.5c0-.414.336-.75.75-.75h6c.414 0 .75.336.75.75v5.5c0 .414-.336.75-.75.75zm-5.25-1.5h4.5v-4h-4.5z"/><path d="m12 23.75h1.5v2.5h-1.5z"/><path d="m21.75 30h-6c-.414 0-.75-.336-.75-.75v-5.5c0-.414.336-.75.75-.75h6c.414 0 .75.336.75.75v5.5c0 .414-.336.75-.75.75zm-5.25-1.5h4.5v-4h-4.5z"/><path d="m18 23.75h1.5v2.5h-1.5z"/><path d="m26.25 30h-4.5c-.414 0-.75-.336-.75-.75v-4.5c0-.414.336-.75.75-.75h4.5c.414 0 .75.336.75.75v4.5c0 .414-.336.75-.75.75zm-3.75-1.5h3v-3h-3z"/><path d="m23.25 24.75h1.5v1.5h-1.5z"/><path d="m19.25 24.5h-5.5c-.414 0-.75-.336-.75-.75v-6c0-.414.336-.75.75-.75h5.5c.414 0 .75.336.75.75v6c0 .414-.336.75-.75.75zm-4.75-1.5h4v-4.5h-4z"/><path d="m15.75 17.75h1.5v2.5h-1.5z"/><path d="m18 13c-1.103 0-2-.897-2-2 0-.838.518-1.557 1.25-1.854v-3.146h1.5v3.75c0 .192-.072.367-.191.5h1.441v.75c0 1.103-.897 2-2 2zm.5-2.691c-.133.119-.308.191-.5.191-.275 0-.5.225-.5.5s.225.5.5.5.5-.225.5-.5z"/></svg>