<svg id="_x31__x2C_5" height="512" viewBox="0 0 36 36" width="512" xmlns="http://www.w3.org/2000/svg"><path d="m4.167 27.623c0-6.917-3.583-11.667-3.583-15s1.916-10.333 17.249-10.333 17.583 9.417 17.583 13.083c.001 17.167-31.249 24.5-31.249 12.25z" fill="#efefef"/><path d="m29.875 2h1v2h-1z" fill="#a4afc1"/><path d="m32.125 5h2v1h-2z" fill="#a4afc1"/><path d="m12.25 26.25h-4.5c-.552 0-1-.448-1-1v-5.75c0-.552.448-1 1-1h4.5c.552 0 1 .448 1 1v5.75c0 .552-.448 1-1 1z" fill="#f3f3f1"/><path d="m8.75 10.75h2.5v7.75h-2.5z" fill="#2fdf84"/><path d="m29.5 9.75v16.5h-12v-14.5l6-2v2z" fill="#f3f3f1"/><path d="m17.5 17.5-4.25 3v3l4.25-3z" fill="#2fdf84"/><path d="m9 25.25v-5.75c0-.552.448-1 1-1h-2.25c-.552 0-1 .448-1 1v5.75c0 .552.448 1 1 1h2.25c-.552 0-1-.448-1-1z" fill="#d5dbe1"/><path d="m23.5 10.5v-.75l-6 2v14.5h2.25v-14.5z" fill="#d5dbe1"/><path d="m8.75 10.75h2.25v7.75h-2.25z" fill="#00b871"/><path d="m15.5 20.5 2-1.412v-1.588l-4.25 3v3l2.25-1.588z" fill="#00b871"/><path d="m12.25 27h-4.5c-.965 0-1.75-.785-1.75-1.75v-5.75c0-.965.785-1.75 1.75-1.75h4.5c.965 0 1.75.785 1.75 1.75v5.75c0 .965-.785 1.75-1.75 1.75zm-4.5-7.75c-.138 0-.25.112-.25.25v5.75c0 .138.112.25.25.25h4.5c.138 0 .25-.112.25-.25v-5.75c0-.138-.112-.25-.25-.25z"/><path d="m11.25 19.25h-2.5c-.414 0-.75-.336-.75-.75v-7.75c0-.414.336-.75.75-.75h2.5c.414 0 .75.336.75.75v7.75c0 .414-.336.75-.75.75zm-1.75-1.5h1v-6.25h-1z"/><path d="m7 10h6v1.5h-6z"/><path d="m29.5 27h-12c-.414 0-.75-.336-.75-.75v-14.5c0-.323.207-.609.513-.711l6-2c.226-.077.479-.039.675.103.195.141.312.367.312.608v.959l5.013-1.671c.227-.076.48-.039.676.103.195.141.312.367.312.608v16.5c-.001.415-.337.751-.751.751zm-11.25-1.5h10.5v-14.709l-5.013 1.671c-.227.076-.48.038-.676-.103-.195-.141-.312-.367-.312-.608v-.959l-4.5 1.5v13.208z"/><path d="m12.774 21.25h5.202v1.5h-5.202z" transform="matrix(.817 -.577 .577 .817 -9.874 12.895)"/><path d="m12.774 18.25h5.202v1.5h-5.202z" transform="matrix(.817 -.577 .577 .817 -8.143 12.346)"/><path d="m20.5 22h6v1.5h-6z"/><path d="m20.5 18.25h6v1.5h-6z"/><path d="m20.5 14.5h6v1.5h-6z"/><path d="m6.75 20.75h6.5v1.5h-6.5z"/></svg>