<svg id="_x31__x2C_5" height="512" viewBox="0 0 36 36" width="512" xmlns="http://www.w3.org/2000/svg"><path d="m8.377 4.167c6.917 0 11.667-3.583 15-3.583s10.333 1.916 10.333 17.249-9.417 17.583-13.083 17.583c-17.167.001-24.5-31.249-12.25-31.249z" fill="#efefef"/><g fill="#a4afc1"><path d="m32.533 6.033h1v2h-1z" transform="matrix(.707 -.707 .707 .707 4.699 25.413)"/><path d="m28.467 1.967h1v2h-1z" transform="matrix(.707 -.707 .707 .707 6.383 21.348)"/><path d="m32.033 2.644h2v1h-2z" transform="matrix(.707 -.707 .707 .707 7.452 24.279)"/></g><path d="m16.25 17.5h-6v-1.25c0-.552.448-1 1-1h4c.552 0 1 .448 1 1z" fill="#2fdf84"/><path d="m11.25 15.25 1-8.5h2l1 8.5z" fill="#f3f3f1"/><path d="m25.75 17.5h-6v-1.25c0-.552.448-1 1-1h4c.552 0 1 .448 1 1z" fill="#2fdf84"/><path d="m20.75 15.25 1-8.5h2l1 8.5z" fill="#f3f3f1"/><path d="m27.75 29.25h-19.5v-10.75c0-.552.448-1 1-1h17.5c.552 0 1 .448 1 1z" fill="#f3f3f1"/><path d="m22.5 29.25h-9v-2.5c0-2.485 2.015-4.5 4.5-4.5s4.5 2.015 4.5 4.5z" fill="#2fdf84"/><g fill="#d5dbe1"><path d="m14.25 6.75h-2l-1 8.5h2.25l.875-7.437z"/><path d="m23.75 6.75h-2l-1 8.5h2.25l.875-7.437z"/><path d="m11.5 17.5h-2.25c-.552 0-1 .448-1 1v10.75h2.25v-10.75c0-.552.448-1 1-1z"/></g><path d="m13.5 15.25h-2.25c-.552 0-1 .448-1 1v1.25h2.25v-1.25c0-.552.448-1 1-1z" fill="#00b871"/><path d="m23 15.25h-2.25c-.552 0-1 .448-1 1v1.25h2.25v-1.25c0-.552.448-1 1-1z" fill="#00b871"/><path d="m19.125 22.409c-.362-.094-.734-.159-1.125-.159-2.485 0-4.5 2.015-4.5 4.5v2.5h2.25v-2.5c0-2.094 1.437-3.839 3.375-4.341z" fill="#00b871"/><path d="m16.25 18.25h-6c-.414 0-.75-.336-.75-.75v-1.25c0-.965.785-1.75 1.75-1.75h4c.965 0 1.75.785 1.75 1.75v1.25c0 .414-.336.75-.75.75zm-5.25-1.5h4.5v-.5c0-.138-.112-.25-.25-.25h-4c-.138 0-.25.112-.25.25z"/><path d="m14.505 15.337-.922-7.837h-.666l-.922 7.837-1.49-.175 1-8.5c.045-.377.365-.662.745-.662h2c.38 0 .7.285.745.663l1 8.5z"/><path d="m25.75 18.25h-6c-.414 0-.75-.336-.75-.75v-1.25c0-.965.785-1.75 1.75-1.75h4c.965 0 1.75.785 1.75 1.75v1.25c0 .414-.336.75-.75.75zm-5.25-1.5h4.5v-.5c0-.138-.112-.25-.25-.25h-4c-.138 0-.25.112-.25.25z"/><path d="m24.005 15.337-.922-7.837h-.666l-.922 7.837-1.49-.175 1-8.5c.045-.377.365-.662.745-.662h2c.38 0 .7.285.745.663l1 8.5z"/><path d="m27.75 30h-19.5c-.414 0-.75-.336-.75-.75v-10.75c0-.965.785-1.75 1.75-1.75h17.5c.965 0 1.75.785 1.75 1.75v10.75c0 .414-.336.75-.75.75zm-18.75-1.5h18v-10c0-.138-.112-.25-.25-.25h-17.5c-.138 0-.25.112-.25.25z"/><path d="m22.5 30h-9c-.414 0-.75-.336-.75-.75v-2.5c0-2.895 2.355-5.25 5.25-5.25s5.25 2.355 5.25 5.25v2.5c0 .414-.336.75-.75.75zm-8.25-1.5h7.5v-1.75c0-2.068-1.683-3.75-3.75-3.75s-3.75 1.682-3.75 3.75z"/><path d="m8.25 19h19.5v1.5h-19.5z"/></svg>