<svg id="_x31__x2C_5" height="512" viewBox="0 0 36 36" width="512" xmlns="http://www.w3.org/2000/svg"><path d="m27.623 31.833c-6.917 0-11.667 3.583-15 3.583s-10.333-1.916-10.333-17.249 9.417-17.584 13.083-17.584c17.167 0 24.5 31.25 12.25 31.25z" fill="#efefef"/><path d="m5.375 2.25h1v2h-1z" fill="#a4afc1"/><path d="m2.125 5.25h2v1h-2z" fill="#a4afc1"/><path d="m6.75 18.5h10.5v10.75h-10.5z" fill="#2fdf84"/><path d="m14.75 29.25h-5.5v-5.25c0-1.519 1.231-2.75 2.75-2.75s2.75 1.231 2.75 2.75z" fill="#f3f3f1"/><path d="m8.75 16.5h6.5v2h-6.5z" fill="#f3f3f1"/><path d="m9.75 16.5 1-9.75h2.5l1 9.75z" fill="#2fdf84"/><path d="m17.25 21.5h12v7.75h-12z" fill="#f3f3f1"/><g fill="#d5dbe1"><path d="m13.125 21.496c-.344-.155-.723-.246-1.125-.246-1.519 0-2.75 1.231-2.75 2.75v5.25h2.25v-5.25c0-1.117.669-2.074 1.625-2.504z"/><path d="m8.75 16.5h2.25v2h-2.25z"/><path d="m17.25 21.5h2.25v7.75h-2.25z"/></g><path d="m6.75 18.5h2.25v10.75h-2.25z" fill="#00b871"/><path d="m10.75 6.75-1 9.75h2.25l1-9.75z" fill="#00b871"/><path d="m17.25 30h-10.5c-.414 0-.75-.336-.75-.75v-10.75c0-.414.336-.75.75-.75h10.5c.414 0 .75.336.75.75v10.75c0 .414-.336.75-.75.75zm-9.75-1.5h9v-9.25h-9z"/><path d="m14.75 30h-5.5c-.414 0-.75-.336-.75-.75v-5.25c0-1.93 1.57-3.5 3.5-3.5s3.5 1.57 3.5 3.5v5.25c0 .414-.336.75-.75.75zm-4.75-1.5h4v-4.5c0-1.103-.897-2-2-2s-2 .897-2 2z"/><path d="m15.25 19.25h-6.5c-.414 0-.75-.336-.75-.75v-2c0-.414.336-.75.75-.75h6.5c.414 0 .75.336.75.75v2c0 .414-.336.75-.75.75zm-5.75-1.5h5v-.5h-5z"/><path d="m13.504 16.577-.931-9.077h-1.146l-.931 9.077-1.492-.153 1-9.75c.039-.383.361-.674.746-.674h2.5c.385 0 .707.291.746.673l1 9.75z"/><path d="m29.25 30h-12c-.414 0-.75-.336-.75-.75v-7.75c0-.414.336-.75.75-.75h12c.414 0 .75.336.75.75v7.75c0 .414-.336.75-.75.75zm-11.25-1.5h10.5v-6.25h-10.5z"/><path d="m19.75 23.5h7.5v1.5h-7.5z"/><path d="m19.75 26h7.5v1.5h-7.5z"/></svg>