<svg id="_x31__x2C_5" enable-background="new 0 0 36 36" height="512" viewBox="0 0 36 36" width="512" xmlns="http://www.w3.org/2000/svg"><path d="m4.167 27.623c0-6.917-3.583-11.667-3.583-15s1.916-10.333 17.249-10.333 17.583 9.417 17.583 13.083c.001 17.167-31.249 24.5-31.249 12.25z" fill="#efefef"/><path d="m31.5 24c-.827 0-1.5-.673-1.5-1.5s.673-1.5 1.5-1.5 1.5.673 1.5 1.5-.673 1.5-1.5 1.5zm0-2c-.276 0-.5.224-.5.5s.224.5.5.5.5-.224.5-.5-.224-.5-.5-.5z" fill="#a4afc1"/><path d="m17.25 29.25h-10.5v-17c0-.552.448-1 1-1h8.5c.552 0 1 .448 1 1z" fill="#f3f3f1"/><g fill="#2fdf84"><path d="m15.25 11.25h-6.5v-1.5c0-.552.448-1 1-1h4.5c.552 0 1 .448 1 1z"/><circle cx="21" cy="24" r="1.25"/><path d="m10.25 24.75h3.5v4.5h-3.5z"/><path d="m29.25 12.063c0 3.551-4.25 7.187-4.25 7.187s-4.25-3.636-4.25-7.187c0-2.382 1.903-4.313 4.25-4.313s4.25 1.931 4.25 4.313z"/></g><circle cx="25" cy="12" fill="#f3f3f1" r="1.25"/><path d="m10 11.25h-2.25c-.552 0-1 .448-1 1v17h2.25v-17c0-.552.448-1 1-1z" fill="#d5dbe1"/><path d="m12 8.75h-2.25c-.552 0-1 .448-1 1v1.5h2.25v-1.5c0-.552.448-1 1-1z" fill="#00b871"/><path d="m22 24c0-.19.049-.365.125-.526-.2-.425-.625-.724-1.125-.724-.69 0-1.25.56-1.25 1.25s.56 1.25 1.25 1.25c.5 0 .925-.299 1.125-.724-.076-.161-.125-.336-.125-.526z" fill="#00b871"/><path d="m10.25 24.75h2.25v4.5h-2.25z" fill="#00b871"/><path d="m23 12.062c0-1.984 1.328-3.637 3.125-4.14-.361-.101-.733-.172-1.125-.172-2.347 0-4.25 1.931-4.25 4.312 0 3.551 4.25 7.188 4.25 7.188s.486-.419 1.125-1.102c-1.259-1.344-3.125-3.73-3.125-6.086z" fill="#00b871"/><path d="m26 12c0-.19.049-.365.125-.526-.2-.425-.625-.724-1.125-.724-.69 0-1.25.56-1.25 1.25s.56 1.25 1.25 1.25c.5 0 .925-.299 1.125-.724-.076-.161-.125-.336-.125-.526z" fill="#d5dbe1"/><path d="m2 28.5h32v1.5h-32z"/><path d="m18 29.25h-1.5v-17c0-.138-.112-.25-.25-.25h-8.5c-.138 0-.25.112-.25.25v17h-1.5v-17c0-.965.785-1.75 1.75-1.75h8.5c.965 0 1.75.785 1.75 1.75z"/><path d="m11.25 6h1.5v3.5h-1.5z"/><path d="m20.25 25.505h1.5v3.745h-1.5z"/><path d="m21 26c-1.103 0-2-.897-2-2s.897-2 2-2 2 .897 2 2-.897 2-2 2zm0-2.5c-.276 0-.5.224-.5.5s.224.5.5.5.5-.224.5-.5-.224-.5-.5-.5z"/><path d="m14.5 29.25h-1.5v-3.75h-2v3.75h-1.5v-4.5c0-.414.336-.75.75-.75h3.5c.414 0 .75.336.75.75z"/><path d="m10 19.5h4v1.5h-4z"/><path d="m10 13.5h4v1.5h-4z"/><path d="m10 16.5h4v1.5h-4z"/><path d="m25 20c-.174 0-.347-.06-.488-.18-.184-.158-4.512-3.905-4.512-7.758 0-2.791 2.243-5.062 5-5.062s5 2.271 5 5.062c0 3.853-4.328 7.6-4.512 7.757-.141.121-.314.181-.488.181zm0-11.5c-1.93 0-3.5 1.598-3.5 3.562 0 2.482 2.436 5.126 3.5 6.164 1.064-1.037 3.5-3.682 3.5-6.164 0-1.964-1.57-3.562-3.5-3.562z"/><path d="m25 14c-1.103 0-2-.897-2-2s.897-2 2-2 2 .897 2 2-.897 2-2 2zm0-2.5c-.276 0-.5.224-.5.5s.224.5.5.5.5-.224.5-.5-.224-.5-.5-.5z"/><path d="m16 11.25h-1.5v-1.5c0-.138-.112-.25-.25-.25h-4.5c-.138 0-.25.112-.25.25v1.5h-1.5v-1.5c0-.965.785-1.75 1.75-1.75h4.5c.965 0 1.75.785 1.75 1.75z"/></svg>