<svg id="_x31__x2C_5" height="512" viewBox="0 0 36 36" width="512" xmlns="http://www.w3.org/2000/svg"><path d="m8.377 31.833c6.917 0 11.667 3.583 15 3.583s10.333-1.916 10.333-17.249-9.417-17.584-13.083-17.584c-17.167 0-24.5 31.25-12.25 31.25z" fill="#efefef"/><path d="m26.5 11c-.827 0-1.5-.673-1.5-1.5s.673-1.5 1.5-1.5 1.5.673 1.5 1.5-.673 1.5-1.5 1.5zm0-2c-.276 0-.5.225-.5.5s.224.5.5.5.5-.225.5-.5-.224-.5-.5-.5z" fill="#a4afc1"/><path d="m6.75 21.75h14.75v4.5h-14.75z" fill="#f3f3f1"/><path d="m11.5 6.75h5v15h-5z" fill="#f3f3f1"/><path d="m28.25 29.25h-6.5c-.552 0-1-.448-1-1v-4.5c0-.552.448-1 1-1h6.5c.552 0 1 .448 1 1v4.5c0 .552-.448 1-1 1z" fill="#2fdf84"/><path d="m8.75 9.5h2.75v12.25h-2.75z" fill="#2fdf84"/><path d="m6.75 21.75h2.25v4.5h-2.25z" fill="#d5dbe1"/><path d="m11.5 6.75h2.25v15h-2.25z" fill="#d5dbe1"/><path d="m23 28.25v-4.5c0-.552.448-1 1-1h-2.25c-.552 0-1 .448-1 1v4.5c0 .552.448 1 1 1h2.25c-.552 0-1-.448-1-1z" fill="#00b871"/><path d="m8.75 9.5h2.25v12.25h-2.25z" fill="#00b871"/><path d="m28.25 30h-6.5c-.965 0-1.75-.785-1.75-1.75v-4.5c0-.965.785-1.75 1.75-1.75h6.5c.965 0 1.75.785 1.75 1.75v4.5c0 .965-.785 1.75-1.75 1.75zm-6.5-6.5c-.138 0-.25.112-.25.25v4.5c0 .138.112.25.25.25h6.5c.138 0 .25-.112.25-.25v-4.5c0-.138-.112-.25-.25-.25z"/><path d="m27.25 23.5h-4.5c-.414 0-.75-.336-.75-.75v-1.75c0-1.654 1.346-3 3-3s3 1.346 3 3v1.75c0 .414-.336.75-.75.75zm-3.75-1.5h3v-1c0-.827-.673-1.5-1.5-1.5s-1.5.673-1.5 1.5z"/><path d="m18.25 27h-11.5c-.414 0-.75-.336-.75-.75v-4.5c0-.414.336-.75.75-.75h11.5v1.5h-10.75v3h10.75z"/><path d="m17.25 21.75h-1.5v-14.25h-3.5v14.25h-1.5v-15c0-.414.336-.75.75-.75h5c.414 0 .75.336.75.75z"/><path d="m9.5 21.75h-1.5v-12.25c0-.414.336-.75.75-.75h2.75v1.5h-2z"/><path d="m8.75 11.75h2.75v1.5h-2.75z"/><path d="m8.75 14.75h2.75v1.5h-2.75z"/><path d="m8.75 17.75h2.75v1.5h-2.75z"/><path d="m14 17.75h3.25v1.5h-3.25z"/><path d="m14 14.75h3.25v1.5h-3.25z"/><path d="m14 11.75h3.25v1.5h-3.25z"/><path d="m14 8.75h3.25v1.5h-3.25z"/></svg>