<svg id="_x31__x2C_5" height="512" viewBox="0 0 36 36" width="512" xmlns="http://www.w3.org/2000/svg"><path d="m27.623 31.833c-6.917 0-11.667 3.583-15 3.583s-10.333-1.916-10.333-17.249 9.417-17.584 13.083-17.584c17.167 0 24.5 31.25 12.25 31.25z" fill="#efefef"/><path d="m31.5 5c-.827 0-1.5-.673-1.5-1.5s.673-1.5 1.5-1.5 1.5.673 1.5 1.5-.673 1.5-1.5 1.5zm0-2c-.275 0-.5.225-.5.5s.225.5.5.5.5-.225.5-.5-.225-.5-.5-.5z" fill="#a4afc1"/><circle cx="23.5" cy="16.5" fill="#f3f3f1" r="4.75"/><path d="m6.75 16.75h7.5v6.5h-7.5z" fill="#f3f3f1"/><path d="m28.25 29.25h-6.5c-.552 0-1-.448-1-1v-4.5c0-.552.448-1 1-1h6.5c.552 0 1 .448 1 1v4.5c0 .552-.448 1-1 1z" fill="#2fdf84"/><path d="m13.25 16.75h-5.5v-1.5c0-.552.448-1 1-1h3.5c.552 0 1 .448 1 1z" fill="#2fdf84"/><path d="m22.88 20.26c-.09.23-.13.48-.13.74v.19c-2.26-.36-4-2.32-4-4.69 0-2.62 2.13-4.75 4.75-4.75.39 0 .76.06 1.12.15-2.07.51-3.62 2.37-3.62 4.6 0 1.54.74 2.91 1.88 3.76z" fill="#d5dbe1"/><path d="m6.75 16.75h2.25v6.5h-2.25z" fill="#d5dbe1"/><path d="m23 28.25v-4.5c0-.552.448-1 1-1h-2.25c-.552 0-1 .448-1 1v4.5c0 .552.448 1 1 1h2.25c-.552 0-1-.448-1-1z" fill="#00b871"/><path d="m11 14.25h-2.25c-.552 0-1 .448-1 1v1.5h2.25v-1.5c0-.552.448-1 1-1z" fill="#00b871"/><path d="m28.25 30h-6.5c-.965 0-1.75-.785-1.75-1.75v-4.5c0-.965.785-1.75 1.75-1.75h6.5c.965 0 1.75.785 1.75 1.75v4.5c0 .965-.785 1.75-1.75 1.75zm-6.5-6.5c-.138 0-.25.112-.25.25v4.5c0 .138.112.25.25.25h6.5c.138 0 .25-.112.25-.25v-4.5c0-.138-.112-.25-.25-.25z"/><path d="m27.25 23.5h-4.5c-.414 0-.75-.336-.75-.75v-1.75c0-1.654 1.346-3 3-3s3 1.346 3 3v1.75c0 .414-.336.75-.75.75zm-3.75-1.5h3v-1c0-.827-.673-1.5-1.5-1.5s-1.5.673-1.5 1.5z"/><path d="m18.797 19.352c-.522-.858-.797-1.843-.797-2.852 0-3.032 2.468-5.5 5.5-5.5s5.5 2.468 5.5 5.5h-1.5c0-2.206-1.794-4-4-4s-4 1.794-4 4c0 .733.2 1.45.578 2.072z"/><path d="m17 15.75h13v1.5h-13z"/><path d="m24.25 12.25h-1.5c-.414 0-.75-.336-.75-.75v-1c0-.414.336-.75.75-.75h1.5c.414 0 .75.336.75.75v1c0 .414-.336.75-.75.75z"/><path d="m11.25 15h-1.5c-.414 0-.75-.336-.75-.75v-1c0-.414.336-.75.75-.75h1.5c.414 0 .75.336.75.75v1c0 .414-.336.75-.75.75z"/><path d="m14.25 24h-7.5c-.414 0-.75-.336-.75-.75v-6.5c0-.414.336-.75.75-.75h7.5c.414 0 .75.336.75.75v6.5c0 .414-.336.75-.75.75zm-6.75-1.5h6v-5h-6z"/><path d="m13.25 17.5h-5.5c-.414 0-.75-.336-.75-.75v-1.5c0-.965.785-1.75 1.75-1.75h3.5c.965 0 1.75.785 1.75 1.75v1.5c0 .414-.336.75-.75.75zm-4.75-1.5h4v-.75c0-.138-.112-.25-.25-.25h-3.5c-.138 0-.25.112-.25.25z"/><path d="m11.25 13.25h-1.5v-4.5c0-1.517 1.233-2.75 2.75-2.75h9c1.517 0 2.75 1.233 2.75 2.75v1.75h-1.5v-1.75c0-.689-.561-1.25-1.25-1.25h-9c-.689 0-1.25.561-1.25 1.25z"/><path d="m8 16.75h1.5v6.5h-1.5z"/><path d="m11.5 16.75h1.5v6.5h-1.5z"/></svg>