<svg id="_x31__x2C_5" height="512" viewBox="0 0 36 36" width="512" xmlns="http://www.w3.org/2000/svg"><path d="m27.623 4.167c-6.917 0-11.667-3.583-15-3.583s-10.333 1.916-10.333 17.249 9.417 17.583 13.083 17.583c17.167.001 24.5-31.249 12.25-31.249z" fill="#efefef"/><path d="m30.5 5c-.827 0-1.5-.673-1.5-1.5s.673-1.5 1.5-1.5 1.5.673 1.5 1.5-.673 1.5-1.5 1.5zm0-2c-.276 0-.5.224-.5.5s.224.5.5.5.5-.224.5-.5-.224-.5-.5-.5z" fill="#a4afc1"/><path d="m7.75 14.75h10.5v2h-10.5z" fill="#2fdf84"/><path d="m6.75 16.75h12.5v12.5h-12.5z" fill="#f3f3f1"/><path d="m19.25 27.5h6v1.75h-6z" fill="#f3f3f1"/><path d="m22.25 27.5h-3v-6h3c1.657 0 3 1.343 3 3s-1.343 3-3 3z" fill="#2fdf84"/><path d="m6.75 16.75h2.25v12.5h-2.25z" fill="#d5dbe1"/><path d="m19.25 27.5h2.25v1.75h-2.25z" fill="#d5dbe1"/><path d="m7.75 14.75h2.25v2h-2.25z" fill="#00b871"/><path d="m19.25 21.5h2.25v6h-2.25z" fill="#00b871"/><path d="m11.25 22h-1.5c-.414 0-.75-.336-.75-.75v-1.5c0-.414.336-.75.75-.75h1.5c.414 0 .75.336.75.75v1.5c0 .414-.336.75-.75.75z"/><path d="m16.25 22h-1.5c-.414 0-.75-.336-.75-.75v-1.5c0-.414.336-.75.75-.75h1.5c.414 0 .75.336.75.75v1.5c0 .414-.336.75-.75.75z"/><path d="m11.25 27h-1.5c-.414 0-.75-.336-.75-.75v-1.5c0-.414.336-.75.75-.75h1.5c.414 0 .75.336.75.75v1.5c0 .414-.336.75-.75.75z"/><path d="m16.25 27h-1.5c-.414 0-.75-.336-.75-.75v-1.5c0-.414.336-.75.75-.75h1.5c.414 0 .75.336.75.75v1.5c0 .414-.336.75-.75.75z"/><path d="m18.25 17.5h-10.5c-.414 0-.75-.336-.75-.75v-2c0-.414.336-.75.75-.75h10.5c.414 0 .75.336.75.75v2c0 .414-.336.75-.75.75zm-9.75-1.5h9v-.5h-9z"/><path d="m23 21.5h-1.5v-8.75c0-.689-.561-1.25-1.25-1.25h-7.75c-.689 0-1.25.561-1.25 1.25v2h-1.5v-2c0-1.517 1.233-2.75 2.75-2.75h7.75c1.517 0 2.75 1.233 2.75 2.75z"/><path d="m14.75 10.75h1.5v4h-1.5z"/><path d="m19.25 30h-12.5c-.414 0-.75-.336-.75-.75v-12.5c0-.414.336-.75.75-.75h12.5c.414 0 .75.336.75.75v12.5c0 .414-.336.75-.75.75zm-11.75-1.5h11v-11h-11z"/><circle cx="22.25" cy="24.5" r="1"/><path d="m25.25 30h-6c-.414 0-.75-.336-.75-.75v-1.75c0-.414.336-.75.75-.75h6c.414 0 .75.336.75.75v1.75c0 .414-.336.75-.75.75zm-5.25-1.5h4.5v-.25h-4.5z"/><path d="m22.25 28.25h-3c-.414 0-.75-.336-.75-.75v-6c0-.414.336-.75.75-.75h3c2.068 0 3.75 1.682 3.75 3.75s-1.682 3.75-3.75 3.75zm-2.25-1.5h2.25c1.241 0 2.25-1.009 2.25-2.25s-1.009-2.25-2.25-2.25h-2.25z"/><path d="m30 30h-1.5v-3.5c0-.689-.561-1.25-1.25-1.25h-2.75v-1.5h2.75c1.517 0 2.75 1.233 2.75 2.75z"/></svg>