<svg id="_x31__x2C_5" enable-background="new 0 0 36 36" height="512" viewBox="0 0 36 36" width="512" xmlns="http://www.w3.org/2000/svg"><g><path d="m31.833 8.377c0 6.917 3.583 11.667 3.583 15s-1.916 10.333-17.249 10.333-17.584-9.417-17.584-13.083c0-17.167 31.25-24.5 31.25-12.25z" fill="#efefef"/></g><g><path d="m3.497 8c-.331 0-.652-.109-.918-.316-.316-.246-.518-.601-.567-.998-.05-.397.059-.79.304-1.106.246-.316.601-.518.998-.567.397-.05.791.059 1.107.305s.518.601.567.998c.05.397-.059.79-.304 1.106-.246.315-.601.516-.998.566-.063.008-.126.012-.189.012zm.003-2c-.021 0-.041.001-.062.004-.273.034-.468.284-.434.558.034.272.285.473.558.434.273-.034.468-.284.434-.558-.032-.252-.247-.438-.496-.438z" fill="#a4afc1"/></g><g><path d="m9.75 9.75h16.5v19.5h-16.5z" fill="#f3f3f1"/></g><g><path d="m26.25 9.75-2-3h-12.5l-2 3z" fill="#2fdf84"/></g><g><path d="m21.25 29.25h-6.5v-1.25c0-1.795 1.455-3.25 3.25-3.25 1.795 0 3.25 1.455 3.25 3.25z" fill="#2fdf84"/></g><g><path d="m9.75 9.75h2.25v19.5h-2.25z" fill="#d5dbe1"/></g><g><path d="m11.75 6.75-2 3h2.25l2-3z" fill="#00b871"/></g><g><path d="m19.125 24.962c-.352-.13-.728-.212-1.125-.212-1.795 0-3.25 1.455-3.25 3.25v1.25h2.25v-1.25c0-1.398.887-2.579 2.125-3.038z" fill="#00b871"/></g><g><path d="m25.626 10.166-1.777-2.666h-11.698l-1.777 2.666-1.248-.832 2-3c.139-.209.373-.334.624-.334h12.5c.251 0 .485.125.624.334l2 3z"/></g><g><path d="m2 28.5h32v1.5h-32z"/></g><g><path d="m13 19.5h10v1.5h-10z"/></g><g><path d="m13 13.5h10v1.5h-10z"/></g><g><path d="m22 29.25h-1.5v-1.25c0-1.379-1.122-2.5-2.5-2.5s-2.5 1.121-2.5 2.5v1.25h-1.5v-1.25c0-2.206 1.794-4 4-4s4 1.794 4 4z"/></g><g><path d="m27 29.25h-1.5v-18.75h-15v18.75h-1.5v-19.5c0-.414.336-.75.75-.75h16.5c.414 0 .75.336.75.75z"/></g></svg>