<svg id="_x31__x2C_5" height="512" viewBox="0 0 36 36" width="512" xmlns="http://www.w3.org/2000/svg"><path d="m4.167 8.377c0 6.917-3.583 11.667-3.583 15s1.916 10.333 17.249 10.333 17.583-9.417 17.583-13.083c.001-17.167-31.249-24.5-31.249-12.25z" fill="#efefef"/><g fill="#a4afc1"><path d="m28.467 1.967h1v2h-1z" transform="matrix(.707 -.707 .707 .707 6.383 21.348)"/><path d="m32.533 6.033h1v2h-1z" transform="matrix(.707 -.707 .707 .707 4.699 25.413)"/><path d="m31.856 2.467h2v1h-2z" transform="matrix(.707 -.707 .707 .707 7.525 24.102)"/></g><path d="m29.25 7.75v20.5h-22.5v-13.75h16v-6.75z" fill="#f3f3f1"/><path d="m6.75 14.5h2.25v13.75h-2.25z" fill="#d5dbe1"/><path d="m29.25 29h-22.5c-.414 0-.75-.336-.75-.75v-13.75c0-.414.336-.75.75-.75h15.25v-6c0-.414.336-.75.75-.75h6.5c.414 0 .75.336.75.75v20.5c0 .414-.336.75-.75.75zm-21.75-1.5h21v-19h-5v6c0 .414-.336.75-.75.75h-15.25z"/><path d="m24.75 10.75h2.5v1.5h-2.5z"/><path d="m25.25 15.5h1.5v12.75h-1.5z"/><path d="m10.25 20h-.5c-.414 0-.75-.336-.75-.75v-.5c0-.414.336-.75.75-.75h.5c.414 0 .75.336.75.75v.5c0 .414-.336.75-.75.75z"/><path d="m14.25 20h-.5c-.414 0-.75-.336-.75-.75v-.5c0-.414.336-.75.75-.75h.5c.414 0 .75.336.75.75v.5c0 .414-.336.75-.75.75z"/><path d="m18.25 20h-.5c-.414 0-.75-.336-.75-.75v-.5c0-.414.336-.75.75-.75h.5c.414 0 .75.336.75.75v.5c0 .414-.336.75-.75.75z"/><path d="m22.25 20h-.5c-.414 0-.75-.336-.75-.75v-.5c0-.414.336-.75.75-.75h.5c.414 0 .75.336.75.75v.5c0 .414-.336.75-.75.75z"/><path d="m10.25 25h-.5c-.414 0-.75-.336-.75-.75v-.5c0-.414.336-.75.75-.75h.5c.414 0 .75.336.75.75v.5c0 .414-.336.75-.75.75z"/><path d="m14.25 25h-.5c-.414 0-.75-.336-.75-.75v-.5c0-.414.336-.75.75-.75h.5c.414 0 .75.336.75.75v.5c0 .414-.336.75-.75.75z"/><path d="m18.25 25h-.5c-.414 0-.75-.336-.75-.75v-.5c0-.414.336-.75.75-.75h.5c.414 0 .75.336.75.75v.5c0 .414-.336.75-.75.75z"/><path d="m22.25 25h-.5c-.414 0-.75-.336-.75-.75v-.5c0-.414.336-.75.75-.75h.5c.414 0 .75.336.75.75v.5c0 .414-.336.75-.75.75z"/></svg>