<svg id="_x31__x2C_5" height="512" viewBox="0 0 36 36" width="512" xmlns="http://www.w3.org/2000/svg"><path d="m27.623 31.833c-6.917 0-11.667 3.583-15 3.583s-10.333-1.916-10.333-17.249 9.417-17.584 13.083-17.584c17.167 0 24.5 31.25 12.25 31.25z" fill="#efefef"/><path d="m3.5 7c-.827 0-1.5-.673-1.5-1.5s.673-1.5 1.5-1.5 1.5.673 1.5 1.5-.673 1.5-1.5 1.5zm0-2c-.276 0-.5.224-.5.5s.224.5.5.5.5-.224.5-.5-.224-.5-.5-.5z" fill="#a4afc1"/><path d="m20.25 14.75h-4.5c-1.105 0-2-.895-2-2v-2c0-1.105.895-2 2-2h4.5c1.105 0 2 .895 2 2v2c0 1.105-.895 2-2 2z" fill="#2fdf84"/><g fill="#f3f3f1"><path d="m16.5 6.75h3v2h-3z"/><path d="m29.25 29.25h-2v-4.75c0-.552.448-1 1-1s1 .448 1 1z"/><path d="m25.25 29.25h-2v-4.75c0-.552.448-1 1-1s1 .448 1 1z"/><path d="m6.75 29.25h2v-4.75c0-.552-.448-1-1-1s-1 .448-1 1z"/><path d="m10.75 29.25h2v-4.75c0-.552-.448-1-1-1s-1 .448-1 1z"/><path d="m15.5 14.75h5v14.5h-5z"/></g><g fill="#d5dbe1"><path d="m29.25 29.25h-2v-4.75c0-.552.448-1 1-1s1 .448 1 1z"/><path d="m25.25 29.25h-2v-4.75c0-.552.448-1 1-1s1 .448 1 1z"/><path d="m6.75 29.25h2v-4.75c0-.552-.448-1-1-1s-1 .448-1 1z"/><path d="m10.75 29.25h2v-4.75c0-.552-.448-1-1-1s-1 .448-1 1z"/><path d="m16.5 6.75h2.25v2h-2.25z"/><path d="m15.5 14.75h2.25v14.5h-2.25z"/></g><path d="m16 12.75v-2c0-1.105.895-2 2-2h-2.25c-1.105 0-2 .895-2 2v2c0 1.105.895 2 2 2h2.25c-1.105 0-2-.895-2-2z" fill="#00b871"/><path d="m20.25 15.5h-4.5c-1.517 0-2.75-1.233-2.75-2.75v-2c0-1.517 1.233-2.75 2.75-2.75h4.5c1.517 0 2.75 1.233 2.75 2.75v2c0 1.517-1.233 2.75-2.75 2.75zm-4.5-6c-.689 0-1.25.561-1.25 1.25v2c0 .689.561 1.25 1.25 1.25h4.5c.689 0 1.25-.561 1.25-1.25v-2c0-.689-.561-1.25-1.25-1.25z"/><path d="m20.25 8.75h-1.5v-1.25h-1.5v1.25h-1.5v-2c0-.414.336-.75.75-.75h3c.414 0 .75.336.75.75z"/><path d="m29 23.5h-1.5v-9.75c0-.689-.561-1.25-1.25-1.25h-4v-1.5h4c1.517 0 2.75 1.233 2.75 2.75z"/><path d="m16.5 11h3v1.5h-3z"/><path d="m25 23.5h-1.5v-3.75c0-.689-.561-1.25-1.25-1.25h-1.75v-1.5h1.75c1.517 0 2.75 1.233 2.75 2.75z"/><path d="m8.5 23.5h-1.5v-9.75c0-1.517 1.233-2.75 2.75-2.75h4v1.5h-4c-.689 0-1.25.561-1.25 1.25z"/><path d="m12.5 23.5h-1.5v-3.75c0-1.517 1.233-2.75 2.75-2.75h1.75v1.5h-1.75c-.689 0-1.25.561-1.25 1.25z"/><path d="m15 6h6v1.5h-6z"/><path d="m29.25 30h-2c-.414 0-.75-.336-.75-.75v-4.75c0-.965.785-1.75 1.75-1.75s1.75.785 1.75 1.75v4.75c0 .414-.336.75-.75.75zm-1.25-1.5h.5v-4c0-.275-.5-.275-.5 0z"/><path d="m25.25 30h-2c-.414 0-.75-.336-.75-.75v-4.75c0-.965.785-1.75 1.75-1.75s1.75.785 1.75 1.75v4.75c0 .414-.336.75-.75.75zm-1.25-1.5h.5v-4c0-.275-.5-.275-.5 0z"/><path d="m8.75 30h-2c-.414 0-.75-.336-.75-.75v-4.75c0-.965.785-1.75 1.75-1.75s1.75.785 1.75 1.75v4.75c0 .414-.336.75-.75.75zm-1.25-1.5h.5v-4c0-.275-.5-.275-.5 0z"/><path d="m12.75 30h-2c-.414 0-.75-.336-.75-.75v-4.75c0-.965.785-1.75 1.75-1.75s1.75.785 1.75 1.75v4.75c0 .414-.336.75-.75.75zm-1.25-1.5h.5v-4c0-.275-.5-.275-.5 0z"/><path d="m20.5 30h-5c-.414 0-.75-.336-.75-.75v-14.5c0-.414.336-.75.75-.75h5c.414 0 .75.336.75.75v14.5c0 .414-.336.75-.75.75zm-4.25-1.5h3.5v-13h-3.5z"/></svg>