<svg id="_x31__x2C_5" height="512" viewBox="0 0 36 36" width="512" xmlns="http://www.w3.org/2000/svg"><path d="m4.167 27.623c0-6.917-3.583-11.667-3.583-15s1.916-10.333 17.249-10.333 17.583 9.417 17.583 13.083c.001 17.167-31.249 24.5-31.249 12.25z" fill="#efefef"/><path d="m17.5 5c-.827 0-1.5-.673-1.5-1.5s.673-1.5 1.5-1.5 1.5.673 1.5 1.5-.673 1.5-1.5 1.5zm0-2c-.275 0-.5.225-.5.5s.225.5.5.5.5-.225.5-.5-.225-.5-.5-.5z" fill="#a4afc1"/><circle cx="23.5" cy="16.5" fill="#f3f3f1" r="4.75"/><path d="m6.75 16.75h7.5v6.5h-7.5z" fill="#f3f3f1"/><path d="m27.393 16.75-4.643 6.731h2.786l-.929 5.769 4.643-7.692h-2.786z" fill="#2fdf84"/><path d="m13.25 16.75h-5.5v-1.5c0-.552.448-1 1-1h3.5c.552 0 1 .448 1 1z" fill="#2fdf84"/><path d="m21 16.5c0-2.234 1.547-4.094 3.625-4.601-.362-.089-.735-.149-1.125-.149-2.623 0-4.75 2.127-4.75 4.75s2.127 4.75 4.75 4.75c.39 0 .763-.06 1.125-.149-2.078-.507-3.625-2.367-3.625-4.601z" fill="#d5dbe1"/><path d="m6.75 16.75h2.25v6.5h-2.25z" fill="#d5dbe1"/><g fill="#00b871"><path d="m26.518 21.28.875-4.53-4.643 6.731h2.25z"/><path d="m27.786 23.481h-2.25l-.929 5.769 3.068-5.083z"/><path d="m11 14.25h-2.25c-.552 0-1 .448-1 1v1.5h2.25v-1.5c0-.552.448-1 1-1z"/></g><path d="m24.607 30c-.086 0-.174-.015-.258-.046-.338-.123-.54-.469-.482-.823l.788-4.9h-1.905c-.278 0-.534-.154-.664-.401s-.111-.545.047-.774l4.643-6.73c.202-.292.584-.404.907-.266.327.137.514.485.446.834l-.756 3.915h1.877c.271 0 .521.146.653.381.133.236.129.525-.011.757l-4.643 7.692c-.139.229-.385.361-.642.361zm-.428-7.27h1.357c.22 0 .429.097.571.264s.204.389.169.605l-.314 1.954 1.959-3.246h-1.457c-.224 0-.436-.1-.578-.272s-.201-.4-.158-.62l.25-1.292z"/><path d="m20.604 21.178c-1.63-1.012-2.604-2.761-2.604-4.678 0-3.032 2.468-5.5 5.5-5.5 1.731 0 3.382.83 4.416 2.222l-1.203.895c-.764-1.028-1.935-1.617-3.213-1.617-2.206 0-4 1.794-4 4 0 1.395.709 2.666 1.896 3.402z"/><path d="m17 15.75h8.292v1.5h-8.292z"/><path d="m24.25 12.25h-1.5c-.414 0-.75-.336-.75-.75v-1c0-.414.336-.75.75-.75h1.5c.414 0 .75.336.75.75v1c0 .414-.336.75-.75.75z"/><path d="m11.25 15h-1.5c-.414 0-.75-.336-.75-.75v-1c0-.414.336-.75.75-.75h1.5c.414 0 .75.336.75.75v1c0 .414-.336.75-.75.75z"/><path d="m14.25 24h-7.5c-.414 0-.75-.336-.75-.75v-6.5c0-.414.336-.75.75-.75h7.5c.414 0 .75.336.75.75v6.5c0 .414-.336.75-.75.75zm-6.75-1.5h6v-5h-6z"/><path d="m13.25 17.5h-5.5c-.414 0-.75-.336-.75-.75v-1.5c0-.965.785-1.75 1.75-1.75h3.5c.965 0 1.75.785 1.75 1.75v1.5c0 .414-.336.75-.75.75zm-4.75-1.5h4v-.75c0-.138-.112-.25-.25-.25h-3.5c-.138 0-.25.112-.25.25z"/><path d="m11.25 13.25h-1.5v-4.5c0-1.517 1.233-2.75 2.75-2.75h9c1.517 0 2.75 1.233 2.75 2.75v1.75h-1.5v-1.75c0-.689-.561-1.25-1.25-1.25h-9c-.689 0-1.25.561-1.25 1.25z"/><path d="m8 16.75h1.5v6.5h-1.5z"/><path d="m11.5 16.75h1.5v6.5h-1.5z"/></svg>