<svg id="_x31__x2C_5" height="512" viewBox="0 0 36 36" width="512" xmlns="http://www.w3.org/2000/svg"><path d="m31.833 8.377c0 6.917 3.583 11.667 3.583 15s-1.916 10.333-17.249 10.333-17.584-9.417-17.584-13.083c0-17.167 31.25-24.5 31.25-12.25z" fill="#efefef"/><path d="m31.5 5c-.827 0-1.5-.673-1.5-1.5s.673-1.5 1.5-1.5 1.5.673 1.5 1.5-.673 1.5-1.5 1.5zm0-2c-.275 0-.5.224-.5.5s.225.5.5.5.5-.224.5-.5-.225-.5-.5-.5z" fill="#a4afc1"/><path d="m6.75 19.75h13.75v9.5h-13.75z" fill="#f3f3f1"/><path d="m20.5 23.75h8.75v5.5h-8.75z" fill="#2fdf84"/><path d="m23.75 23.75 1-11h1.5l1 11z" fill="#f3f3f1"/><path d="m14.25 19.75h-5.5v-1.5c0-.552.448-1 1-1h3.5c.552 0 1 .448 1 1z" fill="#2fdf84"/><path d="m9.75 17.25 1-10.5h1.5l1 10.5z" fill="#f3f3f1"/><g fill="#d5dbe1"><path d="m6.75 19.75h2.25v9.5h-2.25z"/><path d="m26.25 12.75h-1.5l-1 11h2.25l.625-6.875z"/><path d="m12.25 6.75h-1.5l-1 10.5h2.25l.625-6.562z"/></g><path d="m20.5 23.75h2.25v5.5h-2.25z" fill="#00b871"/><path d="m12 17.25h-2.25c-.552 0-1 .448-1 1v1.5h2.25v-1.5c0-.552.448-1 1-1z" fill="#00b871"/><path d="m20.5 30h-13.75c-.414 0-.75-.336-.75-.75v-9.5c0-.414.336-.75.75-.75h13.75c.414 0 .75.336.75.75v9.5c0 .414-.336.75-.75.75zm-13-1.5h12.25v-8h-12.25z"/><path d="m29.25 30h-8.75c-.414 0-.75-.336-.75-.75v-5.5c0-.414.336-.75.75-.75h8.75c.414 0 .75.336.75.75v5.5c0 .414-.336.75-.75.75zm-8-1.5h7.25v-4h-7.25z"/><path d="m25.75 25.5h3.5v1.5h-3.5z"/><path d="m6.75 22h6.75v1.5h-6.75z"/><path d="m6.75 26h6.75v1.5h-6.75z"/><path d="m26.503 23.818-.938-10.318h-.131l-.938 10.318-1.494-.136 1-11c.036-.386.36-.682.748-.682h1.5c.388 0 .712.296.747.682l1 11z"/><path d="m14.25 20.5h-5.5c-.414 0-.75-.336-.75-.75v-1.5c0-.965.785-1.75 1.75-1.75h3.5c.965 0 1.75.785 1.75 1.75v1.5c0 .414-.336.75-.75.75zm-4.75-1.5h4v-.75c0-.138-.112-.25-.25-.25h-3.5c-.138 0-.25.112-.25.25z"/><path d="m12.503 17.321-.935-9.821h-.137l-.935 9.821-1.494-.143 1-10.5c.038-.384.361-.678.748-.678h1.5c.387 0 .71.294.747.679l1 10.5z"/></svg>