<svg id="_x31__x2C_5" height="512" viewBox="0 0 36 36" width="512" xmlns="http://www.w3.org/2000/svg"><path d="m31.833 27.623c0-6.917 3.583-11.667 3.583-15s-1.916-10.333-17.249-10.333-17.584 9.417-17.584 13.083c0 17.167 31.25 24.5 31.25 12.25z" fill="#efefef"/><path d="m3.5 10c-.827 0-1.5-.673-1.5-1.5s.673-1.5 1.5-1.5 1.5.673 1.5 1.5-.673 1.5-1.5 1.5zm0-2c-.275 0-.5.225-.5.5s.225.5.5.5.5-.225.5-.5-.225-.5-.5-.5z" fill="#a4afc1"/><path d="m6.75 21.75h14.75v4.5h-14.75z" fill="#f3f3f1"/><path d="m11.5 6.75h5v15h-5z" fill="#f3f3f1"/><path d="m8.75 9.5h2.75v12.25h-2.75z" fill="#2fdf84"/><path d="m27.393 16.75-4.643 6.731h2.786l-.929 5.769 4.643-7.692h-2.786z" fill="#2fdf84"/><path d="m6.75 21.75h2.25v4.5h-2.25z" fill="#d5dbe1"/><path d="m11.5 6.75h2.25v15h-2.25z" fill="#d5dbe1"/><g fill="#00b871"><path d="m8.75 9.5h2.25v12.25h-2.25z"/><path d="m27.786 23.481h-2.25l-.929 5.769 3.068-5.083z"/><path d="m26.518 21.28.875-4.53-4.643 6.731h2.25z"/></g><path d="m21.5 27h-14.75c-.414 0-.75-.336-.75-.75v-4.5c0-.414.336-.75.75-.75h13.75v1.5h-13v3h14z"/><path d="m16.5 22.5h-5c-.414 0-.75-.336-.75-.75v-15c0-.414.336-.75.75-.75h5c.414 0 .75.336.75.75v15c0 .414-.336.75-.75.75zm-4.25-1.5h3.5v-13.5h-3.5z"/><path d="m9.5 21.75h-1.5v-12.25c0-.414.336-.75.75-.75h2.75v1.5h-2z"/><path d="m8.75 11.75h2.75v1.5h-2.75z"/><path d="m8.75 14.75h2.75v1.5h-2.75z"/><path d="m8.75 17.75h2.75v1.5h-2.75z"/><path d="m14 17.75h3.25v1.5h-3.25z"/><path d="m14 14.75h3.25v1.5h-3.25z"/><path d="m14 11.75h3.25v1.5h-3.25z"/><path d="m14 8.75h3.25v1.5h-3.25z"/><path d="m24.607 30c-.086 0-.174-.015-.258-.046-.338-.123-.54-.469-.482-.823l.788-4.9h-1.905c-.278 0-.534-.154-.664-.401s-.111-.545.047-.774l4.643-6.73c.202-.293.584-.402.907-.266.327.137.514.485.446.834l-.756 3.915h1.877c.271 0 .521.146.653.381.133.236.129.525-.011.757l-4.643 7.692c-.139.229-.385.361-.642.361zm-.428-7.27h1.357c.22 0 .429.097.571.264s.204.389.169.605l-.314 1.954 1.959-3.246h-1.457c-.224 0-.436-.1-.578-.272s-.201-.4-.158-.62l.25-1.292z"/></svg>