<svg id="_x31__x2C_5" height="512" viewBox="0 0 36 36" width="512" xmlns="http://www.w3.org/2000/svg"><path d="m31.833 27.623c0-6.917 3.583-11.667 3.583-15s-1.916-10.333-17.249-10.333-17.584 9.417-17.584 13.083c0 17.167 31.25 24.5 31.25 12.25z" fill="#efefef"/><g fill="#a4afc1"><path d="m6.033 2.467h2v1h-2z" transform="matrix(.707 -.707 .707 .707 -.038 5.842)"/><path d="m1.967 6.533h2v1h-2z" transform="matrix(.707 -.707 .707 .707 -4.104 4.158)"/><path d="m2.644 1.967h1v2h-1z" transform="matrix(.707 -.707 .707 .707 -1.177 3.091)"/></g><path d="m14.75 25.5v-12.5l14.5 3v9.5z" fill="#f3f3f1"/><path d="m14.75 18.25-7.214 1.578c-.459.1-.786.507-.786.977v3.695c0 .552.448 1 1 1h7z" fill="#2fdf84"/><path d="m7.767 19.527.983-12.777h2.5l.901 11.709z" fill="#f3f3f1"/><path d="m27.393 16.75-4.643 6.731h2.786l-.929 5.769 4.643-7.692h-2.786z" fill="#2fdf84"/><path d="m14.75 13v12.5h2.25v-12.034z" fill="#d5dbe1"/><path d="m9 24.5v-3.695c0-.47.327-.876.786-.977l4.964-1.086v-.492l-7.214 1.578c-.459.1-.786.507-.786.977v3.695c0 .552.448 1 1 1h2.25c-.552 0-1-.448-1-1z" fill="#00b871"/><path d="m11 6.75h-2.25l-.983 12.777 2.293-.559z" fill="#d5dbe1"/><path d="m26.518 21.28.875-4.53-4.643 6.731h2.25z" fill="#00b871"/><path d="m27.786 23.481h-2.25l-.929 5.769 3.068-5.083z" fill="#00b871"/><path d="m24.607 30c-.086 0-.174-.015-.258-.046-.338-.123-.54-.469-.482-.823l.788-4.9h-1.905c-.278 0-.534-.154-.664-.401s-.111-.545.047-.774l4.643-6.73c.202-.292.584-.401.907-.266.327.137.514.485.446.833l-.756 3.916h1.877c.271 0 .521.146.653.381.133.236.129.525-.011.757l-4.643 7.692c-.139.229-.385.361-.642.361zm-.428-7.27h1.357c.22 0 .429.097.571.264s.204.389.169.605l-.314 1.954 1.959-3.246h-1.457c-.224 0-.436-.1-.578-.272s-.201-.4-.158-.62l.25-1.292z"/><path d="m15.5 25.5h-1.5v-12.5c0-.226.102-.439.276-.582.175-.142.405-.198.626-.153l9.25 1.914-.305 1.469-8.347-1.727z"/><path d="m21.25 26.25h-13.5c-.965 0-1.75-.785-1.75-1.75v-3.695c0-.815.578-1.534 1.376-1.709l7.214-1.579.32 1.466-7.214 1.578c-.113.025-.196.127-.196.244v3.695c0 .138.112.25.25.25h13.5z"/><path d="m8.516 19.585-1.496-.115.982-12.778c.03-.39.356-.692.748-.692h2.5c.392 0 .718.302.748.692l.9 11.709-1.496.115-.846-11.016h-1.112z"/><path d="m7.75 6h4.5v1.5h-4.5z"/><path d="m9.5 22h2v1.5h-2z"/></svg>