<svg id="_x31__x2C_5" enable-background="new 0 0 36 36" height="512" viewBox="0 0 36 36" width="512" xmlns="http://www.w3.org/2000/svg"><path d="m27.623 4.167c-6.917 0-11.667-3.583-15-3.583s-10.333 1.916-10.333 17.249 9.417 17.583 13.083 17.583c17.167.001 24.5-31.249 12.25-31.249z" fill="#efefef"/><path d="m29.625 2.25h1v2h-1z" fill="#a4afc1"/><path d="m31.875 5.25h2v1h-2z" fill="#a4afc1"/><path d="m17.25 29.25h-10.5v-17c0-.552.448-1 1-1h8.5c.552 0 1 .448 1 1z" fill="#f3f3f1"/><g fill="#2fdf84"><path d="m15.25 11.25h-6.5v-1.5c0-.552.448-1 1-1h4.5c.552 0 1 .448 1 1z"/><circle cx="21" cy="24" r="1.25"/><path d="m10.25 24.75h3.5v4.5h-3.5z"/><path d="m28 10.75h-9.25l1 4.5h7.5l2-7.5z"/></g><path d="m10 11.25h-2.25c-.552 0-1 .448-1 1v17h2.25v-17c0-.552.448-1 1-1z" fill="#d5dbe1"/><path d="m12 8.75h-2.25c-.552 0-1 .448-1 1v1.5h2.25v-1.5c0-.552.448-1 1-1z" fill="#00b871"/><path d="m22 24c0-.19.049-.365.125-.526-.2-.425-.625-.724-1.125-.724-.69 0-1.25.56-1.25 1.25s.56 1.25 1.25 1.25c.5 0 .925-.299 1.125-.724-.076-.161-.125-.336-.125-.526z" fill="#00b871"/><path d="m10.25 24.75h2.25v4.5h-2.25z" fill="#00b871"/><path d="m18.75 10.75 1 4.5h2.25l-1-4.5z" fill="#00b871"/><path d="m2 28.5h32v1.5h-32z"/><path d="m16.5 17.33h1.5v11.92h-1.5z"/><path d="m11.25 6h1.5v3.5h-1.5z"/><path d="m20.25 25.505h1.5v3.745h-1.5z"/><path d="m21 26c-1.103 0-2-.897-2-2s.897-2 2-2 2 .897 2 2-.897 2-2 2zm0-2.5c-.275 0-.5.224-.5.5s.225.5.5.5.5-.224.5-.5-.225-.5-.5-.5z"/><path d="m14.5 29.25h-1.5v-3.75h-2v3.75h-1.5v-4.5c0-.414.336-.75.75-.75h3.5c.414 0 .75.336.75.75z"/><path d="m10 19.5h4v1.5h-4z"/><path d="m10 13.5h4v1.5h-4z"/><path d="m10 16.5h4v1.5h-4z"/><path d="m27.25 16h-7.5c-.352 0-.656-.244-.732-.587l-1-4.5c-.049-.222.005-.455.147-.632.143-.178.357-.281.585-.281h9.124l.845-3.168 1.449.387-2.193 8.225c-.088.327-.385.556-.725.556zm-6.898-1.5h6.322l.8-3h-7.789z"/><circle cx="22" cy="18" r="1"/><circle cx="26" cy="18" r="1"/><path d="m7.5 29.25h-1.5v-17c0-.965.785-1.75 1.75-1.75h.25v-.75c0-.965.785-1.75 1.75-1.75h4.5c.965 0 1.75.785 1.75 1.75v1.5c0 .414-.336.75-.75.75h-7.5c-.136 0-.25.114-.25.25zm2-18.75h5v-.75c0-.138-.112-.25-.25-.25h-4.5c-.138 0-.25.112-.25.25z"/></svg>