<svg id="_x31__x2C_5" height="512" viewBox="0 0 36 36" width="512" xmlns="http://www.w3.org/2000/svg"><path d="m4.167 27.623c0-6.917-3.583-11.667-3.583-15s1.916-10.333 17.249-10.333 17.583 9.417 17.583 13.083c.001 17.167-31.249 24.5-31.249 12.25z" fill="#efefef"/><g fill="#a4afc1"><path d="m5.033 2.467h2v1h-2z" transform="matrix(.707 -.707 .707 .707 -.331 5.135)"/><path d="m.967 6.533h2v1h-2z" transform="matrix(.707 -.707 .707 .707 -4.397 3.451)"/><path d="m1.644 1.967h1v2h-1z" transform="matrix(.707 -.707 .707 .707 -1.47 2.385)"/></g><circle cx="23.5" cy="19.5" fill="#f3f3f1" r="4.75"/><path d="m6.75 19.75h7.5v6.5h-7.5z" fill="#f3f3f1"/><path d="m13.25 19.75h-5.5v-1.5c0-.552.448-1 1-1h3.5c.552 0 1 .448 1 1z" fill="#2fdf84"/><path d="m21 19.5c0-2.234 1.547-4.094 3.625-4.601-.362-.089-.735-.149-1.125-.149-2.623 0-4.75 2.127-4.75 4.75s2.127 4.75 4.75 4.75c.39 0 .763-.06 1.125-.149-2.078-.507-3.625-2.367-3.625-4.601z" fill="#d5dbe1"/><path d="m6.75 19.75h2.25v6.5h-2.25z" fill="#d5dbe1"/><path d="m11 17.25h-2.25c-.552 0-1 .448-1 1v1.5h2.25v-1.5c0-.552.448-1 1-1z" fill="#00b871"/><path d="m23.5 25c-3.033 0-5.5-2.467-5.5-5.5s2.467-5.5 5.5-5.5 5.5 2.467 5.5 5.5-2.467 5.5-5.5 5.5zm0-9.5c-2.206 0-4 1.794-4 4s1.794 4 4 4 4-1.794 4-4-1.794-4-4-4z"/><path d="m17 18.75h13v1.5h-13z"/><path d="m22.75 23.75h1.5v3.25h-1.5z"/><path d="m19 22.069h1.5v4.931h-1.5z"/><path d="m26.5 22.069h1.5v4.931h-1.5z"/><path d="m24.25 15.25h-1.5c-.414 0-.75-.336-.75-.75v-1c0-.414.336-.75.75-.75h1.5c.414 0 .75.336.75.75v1c0 .414-.336.75-.75.75z"/><path d="m11.25 18h-1.5c-.414 0-.75-.336-.75-.75v-1c0-.414.336-.75.75-.75h1.5c.414 0 .75.336.75.75v1c0 .414-.336.75-.75.75z"/><path d="m14.25 27h-7.5c-.414 0-.75-.336-.75-.75v-6.5c0-.414.336-.75.75-.75h7.5c.414 0 .75.336.75.75v6.5c0 .414-.336.75-.75.75zm-6.75-1.5h6v-5h-6z"/><path d="m13.25 20.5h-5.5c-.414 0-.75-.336-.75-.75v-1.5c0-.965.785-1.75 1.75-1.75h3.5c.965 0 1.75.785 1.75 1.75v1.5c0 .414-.336.75-.75.75zm-4.75-1.5h4v-.75c0-.138-.112-.25-.25-.25h-3.5c-.138 0-.25.112-.25.25z"/><path d="m11.25 16.25h-1.5v-4.5c0-1.517 1.233-2.75 2.75-2.75h9c1.517 0 2.75 1.233 2.75 2.75v1.75h-1.5v-1.75c0-.689-.561-1.25-1.25-1.25h-9c-.689 0-1.25.561-1.25 1.25z"/><path d="m8 19.75h1.5v6.5h-1.5z"/><path d="m11.5 19.75h1.5v6.5h-1.5z"/></svg>