<svg id="_x31__x2C_5" height="512" viewBox="0 0 36 36" width="512" xmlns="http://www.w3.org/2000/svg"><path d="m31.833 27.623c0-6.917 3.583-11.667 3.583-15s-1.916-10.333-17.249-10.333-17.584 9.417-17.584 13.083c0 17.167 31.25 24.5 31.25 12.25z" fill="#efefef"/><g fill="#a4afc1"><path d="m31.121 2.467h2v1h-2z" transform="matrix(.707 -.707 .707 .707 7.31 23.582)"/><path d="m27.379 1.967h1v2h-1z" transform="matrix(.707 -.707 .707 .707 6.071 20.586)"/><path d="m31.445 6.033h1v2h-1z" transform="matrix(.707 -.707 .707 .707 4.386 24.653)"/></g><circle cx="23.5" cy="16.5" fill="#f3f3f1" r="4.75"/><path d="m6.75 16.75h7.5v6.5h-7.5z" fill="#f3f3f1"/><path d="m13.25 16.75h-5.5v-1.5c0-.552.448-1 1-1h3.5c.552 0 1 .448 1 1z" fill="#2fdf84"/><circle cx="23.5" cy="23.5" fill="#2fdf84" r="5.75"/><path d="m6.75 16.75h2.25v6.5h-2.25z" fill="#d5dbe1"/><path d="m11 14.25h-2.25c-.552 0-1 .448-1 1v1.5h2.25v-1.5c0-.552.448-1 1-1z" fill="#00b871"/><path d="m20 23.5c0-2.79 1.988-5.115 4.625-5.638-.364-.072-.74-.112-1.125-.112-3.176 0-5.75 2.574-5.75 5.75s2.574 5.75 5.75 5.75c.385 0 .761-.039 1.125-.112-2.637-.523-4.625-2.848-4.625-5.638z" fill="#00b871"/><path d="m21.316 18.182c-.2-.523-.316-1.088-.316-1.682 0-2.234 1.547-4.094 3.625-4.601-.362-.089-.735-.149-1.125-.149-2.623 0-4.75 2.127-4.75 4.75 0 1.027.334 1.972.888 2.749.491-.446 1.055-.811 1.678-1.067z" fill="#d5dbe1"/><path d="m23.5 30c-3.584 0-6.5-2.916-6.5-6.5s2.916-6.5 6.5-6.5 6.5 2.916 6.5 6.5-2.916 6.5-6.5 6.5zm0-11.5c-2.757 0-5 2.243-5 5s2.243 5 5 5 5-2.243 5-5-2.243-5-5-5z"/><path d="m22.5 26.25c-.199 0-.39-.079-.53-.22l-1.75-1.75 1.061-1.061 1.181 1.181 2.722-3.142 1.134.982-3.25 3.75c-.137.157-.332.251-.54.259-.01.001-.019.001-.028.001z"/><path d="m29 16.5h-1.5c0-2.206-1.794-4-4-4s-4 1.794-4 4h-1.5c0-3.032 2.467-5.5 5.5-5.5s5.5 2.468 5.5 5.5z"/><path d="m26.958 15.75h3.042v1.5h-3.042z"/><path d="m17 15.75h2.958v1.5h-2.958z"/><path d="m24.25 12.25h-1.5c-.414 0-.75-.336-.75-.75v-1c0-.414.336-.75.75-.75h1.5c.414 0 .75.336.75.75v1c0 .414-.336.75-.75.75z"/><path d="m11.25 15h-1.5c-.414 0-.75-.336-.75-.75v-1c0-.414.336-.75.75-.75h1.5c.414 0 .75.336.75.75v1c0 .414-.336.75-.75.75z"/><path d="m14.25 24h-7.5c-.414 0-.75-.336-.75-.75v-6.5c0-.414.336-.75.75-.75h7.5c.414 0 .75.336.75.75v6.5c0 .414-.336.75-.75.75zm-6.75-1.5h6v-5h-6z"/><path d="m13.25 17.5h-5.5c-.414 0-.75-.336-.75-.75v-1.5c0-.965.785-1.75 1.75-1.75h3.5c.965 0 1.75.785 1.75 1.75v1.5c0 .414-.336.75-.75.75zm-4.75-1.5h4v-.75c0-.138-.112-.25-.25-.25h-3.5c-.138 0-.25.112-.25.25z"/><path d="m11.25 13.25h-1.5v-4.5c0-1.517 1.233-2.75 2.75-2.75h9c1.517 0 2.75 1.233 2.75 2.75v1.75h-1.5v-1.75c0-.689-.561-1.25-1.25-1.25h-9c-.689 0-1.25.561-1.25 1.25z"/><path d="m8 16.75h1.5v6.5h-1.5z"/><path d="m11.5 16.75h1.5v6.5h-1.5z"/></svg>