<svg enable-background="new 0 0 36 36" height="512" viewBox="0 0 36 36" width="512" xmlns="http://www.w3.org/2000/svg"><path d="m7.678 5.564c-1.805 6.677-6.504 10.327-7.374 13.545s-.847 10.475 13.955 14.477 19.432-4.501 20.388-8.041c4.481-16.572-23.772-31.807-26.969-19.981z" fill="#efefef"/><path d="m8.75 11.931v17.319h18.5v-21.995z" fill="#f3f3f1"/><g fill="#2fdf84"><path d="m18 23.75h6.75v5.5h-6.75z"/><path d="m14.75 17.75h6.5v6h-6.5z"/><path d="m11.25 23.75h6.75v5.5h-6.75z"/></g><path d="m27.25 7.824v-.569l-18.5 4.676v17.319h2.25v-17.319z" fill="#d5dbe1"/><path d="m18 23.75h2.25v5.5h-2.25z" fill="#00b871"/><path d="m14.75 17.75h2.25v6h-2.25z" fill="#00b871"/><path d="m11.25 23.75h2.25v5.5h-2.25z" fill="#00b871"/><g fill="#a4afc1"><path d="m13.125 5.381h2v1h-2z"/><path d="m7.375 5.381h2v1h-2z"/><path d="m10.875 1.881h1v2h-1z"/><path d="m31.25 11.435c-.827 0-1.5-.673-1.5-1.5s.673-1.5 1.5-1.5 1.5.673 1.5 1.5-.673 1.5-1.5 1.5zm0-2c-.275 0-.5.224-.5.5s.225.5.5.5.5-.224.5-.5-.225-.5-.5-.5z"/></g><path d="m24.75 30h-6.75c-.414 0-.75-.336-.75-.75v-5.5c0-.414.336-.75.75-.75h6.75c.414 0 .75.336.75.75v5.5c0 .414-.336.75-.75.75zm-6-1.5h5.25v-4h-5.25z"/><path d="m21.25 24.5h-6.5c-.414 0-.75-.336-.75-.75v-6c0-.414.336-.75.75-.75h6.5c.414 0 .75.336.75.75v6c0 .414-.336.75-.75.75zm-5.75-1.5h5v-4.5h-5z"/><path d="m18 30h-6.75c-.414 0-.75-.336-.75-.75v-5.5c0-.414.336-.75.75-.75h6.75c.414 0 .75.336.75.75v5.5c0 .414-.336.75-.75.75zm-6-1.5h5.25v-4h-5.25z"/><path d="m17.25 17h1.5v3h-1.5z"/><path d="m14 23h1.5v3h-1.5z"/><path d="m20.5 23h1.5v3h-1.5z"/><path d="m6.142 8.875h23.465v1.5h-23.465z" transform="matrix(.97 -.245 .245 .97 -1.813 4.669)"/><path d="m27.25 30h-18.5c-.414 0-.75-.336-.75-.75v-17.319h1.5v16.569h17v-20.978h1.5v21.728c0 .414-.336.75-.75.75z"/><path d="m10.5 7.75h1.5v3.185h-1.5z"/></svg>