<svg id="_x31__x2C_5" enable-background="new 0 0 36 36" height="512" viewBox="0 0 36 36" width="512" xmlns="http://www.w3.org/2000/svg"><g><path d="m8.377 31.833c6.917 0 11.667 3.583 15 3.583s10.333-1.916 10.333-17.249-9.417-17.584-13.083-17.584c-17.167 0-24.5 31.25-12.25 31.25z" fill="#efefef"/></g><g><path d="m28.5 7c-.827 0-1.5-.673-1.5-1.5s.673-1.5 1.5-1.5 1.5.673 1.5 1.5-.673 1.5-1.5 1.5zm0-2c-.276 0-.5.225-.5.5s.224.5.5.5.5-.225.5-.5-.224-.5-.5-.5z" fill="#a4afc1"/></g><g><path d="m25.25 8.75v17h-14.5v-17c0-1.105.895-2 2-2h10.5c1.105 0 2 .895 2 2z" fill="#f3f3f1"/></g><g><path d="m25.25 25.75v1.5c0 1.105-.895 2-2 2h-10.5c-1.105 0-2-.895-2-2v-1.5z" fill="#2fdf84"/></g><g><path d="m20.75 21.25h-5.5v-8.25l5.5-1.25z" fill="#2fdf84"/></g><g><path d="m20.75 12.261v-.511l-5.5 1.25v8.25h2.25v-8.25z" fill="#00b871"/></g><g><path d="m15 6.75h-2.25c-1.105 0-2 .895-2 2v17h2.25v-17c0-1.105.895-2 2-2z" fill="#d5dbe1"/></g><g><path d="m13 27.25v-1.5h-2.25v1.5c0 1.105.895 2 2 2h2.25c-1.105 0-2-.895-2-2z" fill="#00b871"/></g><g><path d="m10.75 25h14.5v1.5h-14.5z"/></g><g><path d="m23.25 30h-10.5c-1.517 0-2.75-1.233-2.75-2.75v-18.5c0-1.517 1.233-2.75 2.75-2.75h10.5c1.517 0 2.75 1.233 2.75 2.75v18.5c0 1.517-1.233 2.75-2.75 2.75zm-10.5-22.5c-.689 0-1.25.561-1.25 1.25v18.5c0 .689.561 1.25 1.25 1.25h10.5c.689 0 1.25-.561 1.25-1.25v-18.5c0-.689-.561-1.25-1.25-1.25z"/></g><g><path d="m14.5 14.5h4v1.5h-4z"/></g><g><path d="m14.5 17.5h4v1.5h-4z"/></g><g><path d="m13 20.5h10v1.5h-10z"/></g><g><path d="m21.5 21.25h-1.5v-8.561l-4 .909v7.651h-1.5v-8.249c0-.351.242-.653.584-.731l5.5-1.25c.222-.052.456.003.634.146s.282.356.282.585z"/></g></svg>