<svg id="_x31__x2C_5" height="512" viewBox="0 0 36 36" width="512" xmlns="http://www.w3.org/2000/svg"><path d="m31.833 27.623c0-6.917 3.583-11.667 3.583-15s-1.916-10.333-17.249-10.333-17.584 9.417-17.584 13.083c0 17.167 31.25 24.5 31.25 12.25z" fill="#efefef"/><path d="m5.5 7c-.827 0-1.5-.673-1.5-1.5s.673-1.5 1.5-1.5 1.5.673 1.5 1.5-.673 1.5-1.5 1.5zm0-2c-.276 0-.5.224-.5.5s.224.5.5.5.5-.224.5-.5-.224-.5-.5-.5z" fill="#a4afc1"/><ellipse cx="12.5" cy="19.5" fill="#f3f3f1" rx="4.512" ry="4.75"/><path d="m23.5 20.5h5.75v5.75h-5.75z" fill="#2fdf84"/><path d="m24.5 20.5 1-10.75h1.5l1 10.75z" fill="#f3f3f1"/><path d="m10.237 19.5c0-2.212 1.443-4.055 3.388-4.583-.362-.098-.734-.167-1.125-.167-2.492 0-4.513 2.127-4.513 4.75s2.02 4.75 4.513 4.75c.391 0 .763-.069 1.125-.167-1.945-.528-3.388-2.371-3.388-4.583z" fill="#d5dbe1"/><path d="m27 9.75h-1.5l-1 10.75h2.25l.625-6.719z" fill="#d5dbe1"/><path d="m23.5 20.5h2.25v5.75h-2.25z" fill="#00b871"/><path d="m12.5 25c-2.902 0-5.263-2.467-5.263-5.5s2.361-5.5 5.263-5.5 5.263 2.467 5.263 5.5-2.361 5.5-5.263 5.5zm0-9.5c-2.075 0-3.763 1.794-3.763 4s1.688 4 3.763 4 3.763-1.794 3.763-4-1.688-4-3.763-4z"/><path d="m6 18.75h13v1.5h-13z"/><path d="m11.75 23.75h1.5v3.25h-1.5z"/><path d="m8 21.819h1.5v5.181h-1.5z"/><path d="m15.5 21.819h1.5v5.181h-1.5z"/><path d="m13.5 15.25h-2c-.414 0-.75-.336-.75-.75v-1c0-.414.336-.75.75-.75h2c.414 0 .75.336.75.75v1c0 .414-.336.75-.75.75z"/><path d="m29.25 27h-5.75c-.414 0-.75-.336-.75-.75v-5.75c0-.414.336-.75.75-.75h5.75c.414 0 .75.336.75.75v5.75c0 .414-.336.75-.75.75zm-5-1.5h4.25v-4.25h-4.25z"/><path d="m26.5 22.5h2.75v1.5h-2.75z"/><path d="m27.253 20.569-.937-10.069h-.133l-.937 10.069-1.493-.139 1-10.75c.036-.385.36-.68.747-.68h1.5c.387 0 .711.295.747.681l1 10.75z"/><path d="m23.5 24.25h-1c-1.517 0-2.75-1.233-2.75-2.75v-9.75c0-.689-.561-1.25-1.25-1.25h-4c-.689 0-1.25.561-1.25 1.25v1.75h-1.5v-1.75c0-1.517 1.233-2.75 2.75-2.75h4c1.517 0 2.75 1.233 2.75 2.75v9.75c0 .689.561 1.25 1.25 1.25h1z"/></svg>