<svg id="_x31__x2C_5" height="512" viewBox="0 0 36 36" width="512" xmlns="http://www.w3.org/2000/svg"><path d="m4.167 8.377c0 6.917-3.583 11.667-3.583 15s1.916 10.333 17.249 10.333 17.583-9.417 17.583-13.083c.001-17.167-31.249-24.5-31.249-12.25z" fill="#efefef"/><path d="m5.5 6c-.827 0-1.5-.673-1.5-1.5s.673-1.5 1.5-1.5 1.5.673 1.5 1.5-.673 1.5-1.5 1.5zm0-2c-.276 0-.5.224-.5.5s.224.5.5.5.5-.224.5-.5-.224-.5-.5-.5z" fill="#a4afc1"/><g fill="#f3f3f1"><path d="m13.5 20.75h9c0 1.1-.9 2-2 2h-5c-1.1 0-2-.9-2-2z"/><path d="m22.5 8.75h-9c0-1.1.9-2 2-2h5c1.1 0 2 .9 2 2z"/><path d="m13.5 10.75h9v3h-9z"/><path d="m13.5 15.75h9v3h-9z"/><path d="m15.5 22.75h5v2.5h-5z"/></g><path d="m25.25 19.75c0 .552-.448 1-1 1h-12.5c-.552 0-1-.448-1-1s.448-1 1-1h12.5c.552 0 1 .448 1 1z" fill="#2fdf84"/><path d="m25.25 14.75c0 .552-.448 1-1 1h-12.5c-.552 0-1-.448-1-1s.448-1 1-1h12.5c.552 0 1 .448 1 1z" fill="#2fdf84"/><path d="m25.25 9.75c0 .552-.448 1-1 1h-12.5c-.552 0-1-.448-1-1s.448-1 1-1h12.5c.552 0 1 .448 1 1z" fill="#2fdf84"/><path d="m15.5 22.75h5v2.5h-5z" fill="#2fdf84"/><path d="m16.5 25.25h3v4h-3z" fill="#f3f3f1"/><g fill="#d5dbe1"><path d="m15.75 20.75h-2.25c0 1.1.9 2 2 2h2.25c-1.1 0-2-.9-2-2z"/><path d="m17.75 6.75h-2.25c-1.1 0-2 .9-2 2h2.25c0-1.1.9-2 2-2z"/><path d="m13.5 10.75h2.25v3h-2.25z"/><path d="m13.5 15.75h2.25v3h-2.25z"/><path d="m15.5 22.75h2.25v2.5h-2.25z"/><path d="m16.5 25.25h2.25v4h-2.25z"/></g><path d="m13 19.75c0-.552.448-1 1-1h-2.25c-.552 0-1 .448-1 1s.448 1 1 1h2.25c-.552 0-1-.448-1-1z" fill="#00b871"/><path d="m13 14.75c0-.552.448-1 1-1h-2.25c-.552 0-1 .448-1 1s.448 1 1 1h2.25c-.552 0-1-.448-1-1z" fill="#00b871"/><path d="m13 9.75c0-.552.448-1 1-1h-2.25c-.552 0-1 .448-1 1s.448 1 1 1h2.25c-.552 0-1-.448-1-1z" fill="#00b871"/><path d="m15.5 22.75h2.25v2.5h-2.25z" fill="#00b871"/><path d="m20.5 23.5h-5c-1.517 0-2.75-1.233-2.75-2.75 0-.414.336-.75.75-.75h9c.414 0 .75.336.75.75 0 1.517-1.233 2.75-2.75 2.75zm-6-2c.229.303.591.5 1 .5h5c.408 0 .771-.197 1-.5z"/><path d="m22.5 9.5h-9c-.414 0-.75-.336-.75-.75 0-1.517 1.233-2.75 2.75-2.75h5c1.517 0 2.75 1.233 2.75 2.75 0 .414-.336.75-.75.75zm-8-1.5h7c-.229-.303-.591-.5-1-.5h-5c-.408 0-.771.197-1 .5z"/><path d="m22.5 14.5h-9c-.414 0-.75-.336-.75-.75v-3c0-.414.336-.75.75-.75h9c.414 0 .75.336.75.75v3c0 .414-.336.75-.75.75zm-8.25-1.5h7.5v-1.5h-7.5z"/><path d="m22.5 19.5h-9c-.414 0-.75-.336-.75-.75v-3c0-.414.336-.75.75-.75h9c.414 0 .75.336.75.75v3c0 .414-.336.75-.75.75zm-8.25-1.5h7.5v-1.5h-7.5z"/><path d="m20.5 26h-5c-.414 0-.75-.336-.75-.75v-2.5c0-.414.336-.75.75-.75h5c.414 0 .75.336.75.75v2.5c0 .414-.336.75-.75.75zm-4.25-1.5h3.5v-1h-3.5z"/><path d="m24.25 21.5h-12.5c-.965 0-1.75-.785-1.75-1.75s.785-1.75 1.75-1.75h12.5c.965 0 1.75.785 1.75 1.75s-.785 1.75-1.75 1.75zm-12.5-2c-.138 0-.25.112-.25.25s.112.25.25.25h12.5c.138 0 .25-.112.25-.25s-.112-.25-.25-.25z"/><path d="m24.25 16.5h-12.5c-.965 0-1.75-.785-1.75-1.75s.785-1.75 1.75-1.75h12.5c.965 0 1.75.785 1.75 1.75s-.785 1.75-1.75 1.75zm-12.5-2c-.138 0-.25.112-.25.25s.112.25.25.25h12.5c.138 0 .25-.112.25-.25s-.112-.25-.25-.25z"/><path d="m24.25 11.5h-12.5c-.965 0-1.75-.785-1.75-1.75s.785-1.75 1.75-1.75h12.5c.965 0 1.75.785 1.75 1.75s-.785 1.75-1.75 1.75zm-12.5-2c-.138 0-.25.112-.25.25s.112.25.25.25h12.5c.138 0 .25-.112.25-.25s-.112-.25-.25-.25z"/><path d="m20.5 26h-5c-.414 0-.75-.336-.75-.75v-2.5c0-.414.336-.75.75-.75h5c.414 0 .75.336.75.75v2.5c0 .414-.336.75-.75.75zm-4.25-1.5h3.5v-1h-3.5z"/><path d="m11.75 20h1.5v10h-1.5z"/><path d="m22.75 20h1.5v10h-1.5z"/><path d="m19.5 30h-3c-.414 0-.75-.336-.75-.75v-4c0-.414.336-.75.75-.75h3c.414 0 .75.336.75.75v4c0 .414-.336.75-.75.75zm-2.25-1.5h1.5v-2.5h-1.5z"/><path d="m14 26.5h3.25v1.5h-3.25z"/><path d="m18.75 26.5h3.25v1.5h-3.25z"/></svg>