<svg id="Line" height="512" viewBox="0 0 36 36" width="512" xmlns="http://www.w3.org/2000/svg"><path d="m34.904 20.355c-3.782-5.791-3.38-11.727-5.203-14.518s-7.256-7.603-20.093.782-9.572 17.5-7.566 20.569c9.388 14.372 39.561 3.423 32.862-6.833z" fill="#efefef"/><path d="m3.25 5c-.827 0-1.5-.673-1.5-1.5s.673-1.5 1.5-1.5 1.5.673 1.5 1.5-.673 1.5-1.5 1.5zm0-2c-.276 0-.5.224-.5.5s.224.5.5.5.5-.224.5-.5-.224-.5-.5-.5z" fill="#a4afc1"/><path d="m9.75 15.75h16.5v13.5h-16.5z" fill="#f3f3f1"/><path d="m26.349 15.25h-16.698c-.497 0-.901-.403-.901-.901v-.698c0-.497.403-.901.901-.901h16.698c.497 0 .901.403.901.901v.698c0 .498-.403.901-.901.901z" fill="#f3f3f1"/><path d="m25.351 9.25h-14.702c-.497 0-.899-.403-.899-.899v-.702c0-.497.403-.899.899-.899h14.701c.497 0 .899.403.899.899v.701c.001.497-.402.9-.898.9z" fill="#2fdf84"/><path d="m23.25 29.25h-10.5v-8.548c0-.526.426-.952.952-.952h8.595c.526 0 .952.426.952.952v8.548z" fill="#f3f3f1"/><path d="m23.25 29.25h-10.5v-8.548c0-.526.426-.952.952-.952h8.595c.526 0 .952.426.952.952v8.548z" fill="#f3f3f1"/><path d="m9.75 15.75h2v13.5h-2z" fill="#d5dbe1"/><path d="m11.65 15.25h-2c-.5 0-.9-.4-.9-.9v-.7c0-.5.4-.9.9-.9h2c-.5 0-.9.4-.9.9v.7c0 .5.4.9.9.9z" fill="#d5dbe1"/><path d="m12.65 9.25h-2c-.5 0-.9-.4-.9-.9v-.7c0-.5.4-.9.9-.9h2c-.5 0-.9.4-.9.9v.7c0 .5.4.9.9.9z" fill="#00b871"/><path d="m26.25 30h-16.5c-.414 0-.75-.336-.75-.75v-13.5c0-.414.336-.75.75-.75h16.5c.414 0 .75.336.75.75v13.5c0 .414-.336.75-.75.75zm-15.75-1.5h15v-12h-15z"/><path d="m26.349 16h-16.698c-.91 0-1.651-.741-1.651-1.651v-.698c0-.91.741-1.651 1.651-1.651h16.698c.91 0 1.651.741 1.651 1.651v.698c0 .91-.741 1.651-1.651 1.651zm-16.698-2.5c-.083 0-.151.068-.151.151v.698c0 .083.068.151.151.151h16.698c.083 0 .151-.068.151-.151v-.698c0-.083-.068-.151-.151-.151z"/><path d="m11 9.5h1.5v3h-1.5z"/><path d="m23.5 9.5h1.5v3h-1.5z"/><path d="m25.351 10h-14.702c-.909 0-1.649-.74-1.649-1.649v-.702c0-.909.74-1.649 1.649-1.649h14.701c.91 0 1.65.74 1.65 1.649v.701c0 .91-.74 1.65-1.649 1.65zm-14.702-2.5c-.083 0-.149.067-.149.149v.701c0 .083.067.149.149.149h14.701c.083 0 .149-.067.149-.149v-.701c0-.083-.067-.149-.149-.149z"/><path d="m6.75 28.5h22.5v1.5h-22.5z"/><path d="m23.25 30h-10.5c-.414 0-.75-.336-.75-.75v-8.548c0-.938.764-1.702 1.702-1.702h8.596c.938 0 1.702.764 1.702 1.702v8.548c0 .414-.336.75-.75.75zm-9.75-1.5h9v-7.798c0-.111-.091-.202-.202-.202h-8.596c-.111 0-.202.091-.202.202z"/><path d="m17.25 19.75h1.5v9.5h-1.5z"/></svg>