<svg id="_x31__x2C_5" height="512" viewBox="0 0 36 36" width="512" xmlns="http://www.w3.org/2000/svg"><path d="m31.833 8.377c0 6.917 3.583 11.667 3.583 15s-1.916 10.333-17.249 10.333-17.584-9.417-17.584-13.083c0-17.167 31.25-24.5 31.25-12.25z" fill="#efefef"/><path d="m31.5 6c-.827 0-1.5-.673-1.5-1.5s.673-1.5 1.5-1.5 1.5.673 1.5 1.5-.673 1.5-1.5 1.5zm0-2c-.276 0-.5.224-.5.5s.224.5.5.5.5-.224.5-.5-.224-.5-.5-.5z" fill="#a4afc1"/><path d="m7.75 26.25h5.5v-9.5l-1.325-2.168c-.318-.52-.852-.832-1.425-.832s-1.107.312-1.425.832l-1.325 2.168z" fill="#f3f3f1"/><path d="m22.25 26.25h-2.5v-11.25c0-.69.56-1.25 1.25-1.25s1.25.56 1.25 1.25z" fill="#2fdf84"/><path d="m28.25 26.25h-2.5v-9.25c0-.69.56-1.25 1.25-1.25s1.25.56 1.25 1.25z" fill="#2fdf84"/><path d="m11.325 14.582c.085-.139.188-.26.3-.368-.308-.294-.706-.464-1.125-.464-.573 0-1.107.312-1.425.832l-1.325 2.168v9.5h2.25v-9.5z" fill="#d5dbe1"/><path d="m22.125 14.474c-.2-.425-.625-.724-1.125-.724-.69 0-1.25.56-1.25 1.25v11.25h2.25v-11.25c0-.19.049-.365.125-.526z" fill="#00b871"/><path d="m28.125 16.474c-.2-.425-.625-.724-1.125-.724-.69 0-1.25.56-1.25 1.25v9.25h2.25v-9.25c0-.19.049-.365.125-.526z" fill="#00b871"/><path d="m13.25 27h-5.5c-.414 0-.75-.336-.75-.75v-9.5c0-.138.038-.273.11-.391l1.325-2.168c.456-.746 1.228-1.191 2.065-1.191s1.609.445 2.065 1.191l1.325 2.168c.072.118.11.253.11.391v9.5c0 .414-.336.75-.75.75zm-4.75-1.5h4v-8.539l-1.215-1.988c-.361-.593-1.209-.593-1.57 0l-1.215 1.988z"/><path d="m6 25.5h24v1.5h-24z"/><path d="m22.25 27h-2.5c-.414 0-.75-.336-.75-.75v-11.25c0-1.103.897-2 2-2s2 .897 2 2v11.25c0 .414-.336.75-.75.75zm-1.75-1.5h1v-10.5c0-.276-.224-.5-.5-.5s-.5.224-.5.5z"/><path d="m28.25 27h-2.5c-.414 0-.75-.336-.75-.75v-9.25c0-1.103.897-2 2-2s2 .897 2 2v9.25c0 .414-.336.75-.75.75zm-1.75-1.5h1v-8.5c0-.276-.224-.5-.5-.5s-.5.224-.5.5z"/><path d="m7.75 16h5.5v1.5h-5.5z"/><path d="m19.5 21.5h-1c-1.517 0-2.75-1.233-2.75-2.75v-7c0-.689-.561-1.25-1.25-1.25h-2c-.689 0-1.25.561-1.25 1.25v2h-1.5v-2c0-1.517 1.233-2.75 2.75-2.75h2c1.517 0 2.75 1.233 2.75 2.75v7c0 .689.561 1.25 1.25 1.25h1z"/><path d="m15.75 13h1.5v1.5h-1.5z"/><path d="m25.5 13h3v1.5h-3z"/><path d="m27.75 15.75h-1.5v-4c0-.689-.561-1.25-1.25-1.25h-2c-.689 0-1.25.561-1.25 1.25v2h-1.5v-2c0-1.517 1.233-2.75 2.75-2.75h2c1.517 0 2.75 1.233 2.75 2.75z"/></svg>