<svg id="_x31__x2C_5" height="512" viewBox="0 0 36 36" width="512" xmlns="http://www.w3.org/2000/svg"><path d="m31.833 8.377c0 6.917 3.583 11.667 3.583 15s-1.916 10.333-17.249 10.333-17.584-9.417-17.584-13.083c0-17.167 31.25-24.5 31.25-12.25z" fill="#efefef"/><g fill="#a4afc1"><path d="m5.773 2.467h2v1h-2z" transform="matrix(.707 -.707 .707 .707 -.114 5.658)"/><path d="m1.707 6.533h2v1h-2z" transform="matrix(.707 -.707 .707 .707 -4.18 3.974)"/><path d="m2.384 1.967h1v2h-1z" transform="matrix(.707 -.707 .707 .707 -1.253 2.908)"/></g><path d="m18.75 20.5h10.5v5.75h-10.5z" fill="#f3f3f1"/><path d="m20.5 18.25h6v2.25h-6z" fill="#2fdf84"/><circle cx="23.5" cy="14.5" fill="#f3f3f1" r="1.75"/><path d="m6.75 26.25h3v-11.25c0-.828-.672-1.5-1.5-1.5s-1.5.672-1.5 1.5z" fill="#2fdf84"/><path d="m12.75 26.25h3v-11.25c0-.828-.672-1.5-1.5-1.5s-1.5.672-1.5 1.5z" fill="#2fdf84"/><path d="m18.75 20.5h2.25v5.75h-2.25z" fill="#d5dbe1"/><path d="m24 14.5c0-.536.246-1.009.625-1.33-.305-.258-.694-.42-1.125-.42-.966 0-1.75.784-1.75 1.75s.784 1.75 1.75 1.75c.431 0 .82-.162 1.125-.42-.379-.321-.625-.794-.625-1.33z" fill="#d5dbe1"/><g fill="#00b871"><path d="m20.5 18.25h2.25v2.25h-2.25z"/><path d="m9.375 14.017c-.275-.314-.674-.517-1.125-.517-.828 0-1.5.672-1.5 1.5v11.25h2.25v-11.25c0-.378.144-.719.375-.983z"/><path d="m15.375 14.017c-.275-.314-.674-.517-1.125-.517-.828 0-1.5.672-1.5 1.5v11.25h2.25v-11.25c0-.378.144-.719.375-.983z"/></g><path d="m29.25 27h-10.5c-.414 0-.75-.336-.75-.75v-5.75c0-.414.336-.75.75-.75h10.5c.414 0 .75.336.75.75v5.75c0 .414-.336.75-.75.75zm-9.75-1.5h9v-4.25h-9z"/><path d="m26 22.5h4v1.5h-4z"/><path d="m26.5 21.25h-6c-.414 0-.75-.336-.75-.75v-2.25c0-.414.336-.75.75-.75h6c.414 0 .75.336.75.75v2.25c0 .414-.336.75-.75.75zm-5.25-1.5h4.5v-.75h-4.5z"/><path d="m22.75 16.5h1.5v1.75h-1.5z"/><path d="m23.5 17c-1.378 0-2.5-1.122-2.5-2.5s1.122-2.5 2.5-2.5 2.5 1.122 2.5 2.5-1.122 2.5-2.5 2.5zm0-3.5c-.551 0-1 .449-1 1s.449 1 1 1 1-.449 1-1-.449-1-1-1z"/><path d="m9.75 27h-3c-.414 0-.75-.336-.75-.75v-11.25c0-1.241 1.009-2.25 2.25-2.25s2.25 1.009 2.25 2.25v11.25c0 .414-.336.75-.75.75zm-2.25-1.5h1.5v-10.5c0-.414-.336-.75-.75-.75s-.75.336-.75.75z"/><path d="m15.75 27h-3c-.414 0-.75-.336-.75-.75v-11.25c0-1.241 1.009-2.25 2.25-2.25s2.25 1.009 2.25 2.25v11.25c0 .414-.336.75-.75.75zm-2.25-1.5h1.5v-10.5c0-.414-.336-.75-.75-.75s-.75.336-.75.75z"/><path d="m9 13.5h-1.5v-1.75c0-1.517 1.233-2.75 2.75-2.75h11.25c1.517 0 2.75 1.233 2.75 2.75v.75h-1.5v-.75c0-.689-.561-1.25-1.25-1.25h-11.25c-.689 0-1.25.561-1.25 1.25z"/><path d="m13.5 9.75h1.5v3.75h-1.5z"/><path d="m20 13.75h2.5v1.5h-2.5z"/><path d="m24.5 13.75h2.5v1.5h-2.5z"/></svg>