<svg id="_x31__x2C_5" height="512" viewBox="0 0 36 36" width="512" xmlns="http://www.w3.org/2000/svg"><path d="m4.167 8.377c0 6.917-3.583 11.667-3.583 15s1.916 10.333 17.249 10.333 17.583-9.417 17.583-13.083c.001-17.167-31.249-24.5-31.249-12.25z" fill="#efefef"/><path d="m31.5 6c-.827 0-1.5-.673-1.5-1.5s.673-1.5 1.5-1.5 1.5.673 1.5 1.5-.673 1.5-1.5 1.5zm0-2c-.276 0-.5.224-.5.5s.224.5.5.5.5-.224.5-.5-.224-.5-.5-.5z" fill="#a4afc1"/><circle cx="18" cy="17" fill="#f3f3f1" r="8.25"/><path d="m14.75 9.125v-1.375c0-.552.448-1 1-1h4.5c.552 0 1 .448 1 1v1.25z" fill="#2fdf84"/><path d="m19.25 18.25h-2.5c-.552 0-1-.448-1-1v-.5c0-.552.448-1 1-1h2.5c.552 0 1 .448 1 1v.5c0 .552-.448 1-1 1z" fill="#2fdf84"/><path d="m12 17c0-4.174 3.102-7.614 7.125-8.164-.369-.051-.742-.086-1.125-.086-4.556 0-8.25 3.694-8.25 8.25s3.694 8.25 8.25 8.25c.383 0 .756-.035 1.125-.086-4.023-.55-7.125-3.99-7.125-8.164z" fill="#d5dbe1"/><path d="m17 7.75c0-.552.448-1 1-1h-2.25c-.552 0-1 .448-1 1v1.375l2.25-.043z" fill="#00b871"/><path d="m18 17.25v-.5c0-.552.448-1 1-1h-2.25c-.552 0-1 .448-1 1v.5c0 .552.448 1 1 1h2.25c-.552 0-1-.448-1-1z" fill="#00b871"/><path d="m18 26c-4.962 0-9-4.038-9-9s4.038-9 9-9 9 4.038 9 9-4.038 9-9 9zm0-16.5c-4.136 0-7.5 3.364-7.5 7.5s3.364 7.5 7.5 7.5 7.5-3.364 7.5-7.5-3.364-7.5-7.5-7.5z"/><path d="m15.5 9.125h-1.5v-1.375c0-.965.785-1.75 1.75-1.75h4.5c.965 0 1.75.785 1.75 1.75v1.25h-1.5v-1.25c0-.138-.112-.25-.25-.25h-4.5c-.138 0-.25.112-.25.25z"/><path d="m4.04 24.787h9.259v1.5h-9.259z" transform="matrix(.415 -.91 .91 .415 -18.164 22.837)"/><path d="m26.576 20.885h1.5v9.282h-1.5z" transform="matrix(.91 -.415 .415 .91 -8.124 13.627)"/><path d="m20.814 25.074h1.5v4.777h-1.5z" transform="matrix(.958 -.287 .287 .958 -6.98 7.352)"/><path d="m12.048 26.713h4.777v1.5h-4.777z" transform="matrix(.287 -.958 .958 .287 -16.015 33.404)"/><path d="m19.25 19h-2.5c-.965 0-1.75-.785-1.75-1.75v-.5c0-.965.785-1.75 1.75-1.75h2.5c.965 0 1.75.785 1.75 1.75v.5c0 .965-.785 1.75-1.75 1.75zm-2.5-2.5c-.138 0-.25.112-.25.25v.5c0 .138.112.25.25.25h2.5c.138 0 .25-.112.25-.25v-.5c0-.138-.112-.25-.25-.25z"/><path d="m9.75 16.25h6v1.5h-6z"/><path d="m20.25 16.25h6v1.5h-6z"/></svg>