<svg id="_x31__x2C_5" enable-background="new 0 0 36 36" height="512" viewBox="0 0 36 36" width="512" xmlns="http://www.w3.org/2000/svg"><g><path d="m8.377 31.833c6.917 0 11.667 3.583 15 3.583s10.333-1.916 10.333-17.249-9.417-17.584-13.083-17.584c-17.167 0-24.5 31.25-12.25 31.25z" fill="#efefef"/></g><g><g><path d="m26.207 4.967h1v2h-1z" fill="#a4afc1" transform="matrix(.707 -.707 .707 .707 3.603 20.632)"/></g><g><path d="m30.273 9.033h1v2h-1z" fill="#a4afc1" transform="matrix(.707 -.707 .707 .707 1.919 24.698)"/></g><g><path d="m29.596 5.467h2v1h-2z" fill="#a4afc1" transform="matrix(.707 -.707 .707 .707 4.742 23.382)"/></g></g><g><path d="m11.75 12.75h12.5v16.5h-12.5z" fill="#f3f3f1"/></g><g><path d="m13.75 9.75h8.5v3h-8.5z" fill="#2fdf84"/></g><g><path d="m11.75 12.75h2.25v16.5h-2.25z" fill="#d5dbe1"/></g><g><path d="m13.75 9.75h2.25v3h-2.25z" fill="#00b871"/></g><g><path d="m2 28.5h32v1.5h-32z"/></g><g><path d="m23 12.75h-1.5v-2.25h-7v2.25h-1.5v-3c0-.414.336-.75.75-.75h8.5c.414 0 .75.336.75.75z"/></g><g><path d="m17.25 6h1.5v4.5h-1.5z"/></g><g><path d="m14 16h1.5v14h-1.5z"/></g><g><path d="m17.25 16h1.5v14h-1.5z"/></g><g><path d="m20.5 16h1.5v14h-1.5z"/></g><g><path d="m25 29.25h-1.5v-15.75h-11v15.75h-1.5v-16.5c0-.414.336-.75.75-.75h12.5c.414 0 .75.336.75.75z"/></g></svg>