<svg id="_x31__x2C_5" height="512" viewBox="0 0 36 36" width="512" xmlns="http://www.w3.org/2000/svg"><path d="m8.377 4.167c6.917 0 11.667-3.583 15-3.583s10.333 1.916 10.333 17.249-9.417 17.583-13.083 17.583c-17.167.001-24.5-31.249-12.25-31.249z" fill="#efefef"/><path d="m31.5 7c-.827 0-1.5-.673-1.5-1.5s.673-1.5 1.5-1.5 1.5.673 1.5 1.5-.673 1.5-1.5 1.5zm0-2c-.275 0-.5.224-.5.5s.225.5.5.5.5-.224.5-.5-.225-.5-.5-.5z" fill="#a4afc1"/><path d="m29.25 26.25v-11.5l-7.75-5v16.5z" fill="#f3f3f1"/><path d="m13.5 17.75h-4.75l-2 2v6.5h6.75z" fill="#f3f3f1"/><path d="m21.5 26.25v-11.5l-8-5v16.5z" fill="#2fdf84"/><path d="m21.5 9.75v16.5h2.25v-15.048z" fill="#d5dbe1"/><path d="m11 17.75h-2.25l-2 2v6.5h2.25v-6.5z" fill="#d5dbe1"/><path d="m13.5 9.75v16.5h2.25v-15.094z" fill="#00b871"/><path d="m29.25 27h-7.75c-.414 0-.75-.336-.75-.75v-16.5c0-.274.15-.527.392-.659.239-.131.535-.121.765.028l7.75 5c.214.139.343.376.343.631v11.5c0 .414-.336.75-.75.75zm-7-1.5h6.25v-10.341l-6.25-4.032z"/><path d="m21.5 27h-8c-.414 0-.75-.336-.75-.75v-16.5c0-.272.148-.524.387-.656.238-.131.53-.124.761.02l8 5c.22.137.353.377.353.636v11.5c-.001.414-.337.75-.751.75zm-7.25-1.5h6.5v-10.334l-6.5-4.063z"/><circle cx="17.5" cy="18" r="1"/><path d="m16 20.75h3v1.5h-3z"/><circle cx="25.5" cy="18" r="1"/><path d="m24 20.75h3v1.5h-3z"/><path d="m13.5 27h-6.75c-.414 0-.75-.336-.75-.75v-6.5c0-.199.079-.39.22-.53l2-2c.14-.141.331-.22.53-.22h4.75v1.5h-4.439l-1.561 1.561v5.439h6z"/><path d="m6.75 21h3.5v1.5h-3.5z"/></svg>