<svg id="_x31__x2C_5" height="512" viewBox="0 0 36 36" width="512" xmlns="http://www.w3.org/2000/svg"><path d="m4.167 27.623c0-6.917-3.583-11.667-3.583-15s1.916-10.333 17.249-10.333 17.583 9.417 17.583 13.083c.001 17.167-31.249 24.5-31.249 12.25z" fill="#efefef"/><g fill="#a4afc1"><path d="m28.467 2.967h1v2h-1z" transform="matrix(.707 -.707 .707 .707 5.679 21.645)"/><path d="m32.533 7.033h1v2h-1z" transform="matrix(.707 -.707 .707 .707 3.995 25.711)"/><path d="m31.857 3.467h2v1h-2z" transform="matrix(.707 -.707 .707 .707 6.819 24.395)"/></g><circle cx="23.5" cy="16.5" fill="#f3f3f1" r="4.75"/><path d="m6.75 16.75h7.5v6.5h-7.5z" fill="#f3f3f1"/><g fill="#2fdf84"><circle cx="22" cy="23" r="1.25"/><path d="m18.75 30v-1.25c0-1.105.895-2 2-2h2.5c1.105 0 2 .895 2 2v1.25z"/><path d="m13.25 16.75h-5.5v-1.5c0-.552.448-1 1-1h3.5c.552 0 1 .448 1 1z"/></g><path d="m21 16.5c0-2.234 1.547-4.094 3.625-4.601-.362-.089-.735-.149-1.125-.149-2.623 0-4.75 2.127-4.75 4.75s2.127 4.75 4.75 4.75c.39 0 .763-.06 1.125-.149-2.078-.507-3.625-2.367-3.625-4.601z" fill="#d5dbe1"/><path d="m6.75 16.75h2.25v6.5h-2.25z" fill="#d5dbe1"/><path d="m23 23c0-.19.049-.365.125-.526-.2-.425-.625-.724-1.125-.724-.69 0-1.25.56-1.25 1.25s.56 1.25 1.25 1.25c.5 0 .925-.299 1.125-.724-.076-.161-.125-.336-.125-.526z" fill="#00b871"/><path d="m23 26.75h-2.25c-1.105 0-2 .895-2 2v1.25h2.25v-1.25c0-1.105.895-2 2-2z" fill="#00b871"/><path d="m11 14.25h-2.25c-.552 0-1 .448-1 1v1.5h2.25v-1.5c0-.552.448-1 1-1z" fill="#00b871"/><path d="m22 25c-1.103 0-2-.897-2-2s.897-2 2-2 2 .897 2 2-.897 2-2 2zm0-2.5c-.275 0-.5.225-.5.5s.225.5.5.5.5-.225.5-.5-.225-.5-.5-.5z"/><path d="m26 30h-1.5v-1.25c0-.689-.561-1.25-1.25-1.25h-2.5c-.689 0-1.25.561-1.25 1.25v1.25h-1.5v-1.25c0-1.517 1.233-2.75 2.75-2.75h2.5c1.517 0 2.75 1.233 2.75 2.75z"/><path d="m27.25 22.5h1.5v4h-1.5z"/><path d="m26 23.75h4v1.5h-4z"/><path d="m27.389 20.389-1.061-1.061c.756-.756 1.172-1.76 1.172-2.828s-.416-2.072-1.172-2.828c-1.512-1.512-4.145-1.512-5.656 0-1.384 1.383-1.568 3.543-.439 5.136l-1.225.867c-1.552-2.192-1.299-5.163.604-7.063 1.037-1.04 2.419-1.612 3.888-1.612s2.851.572 3.889 1.611c1.039 1.038 1.611 2.42 1.611 3.889s-.572 2.851-1.611 3.889z"/><path d="m17 15.75h13v1.5h-13z"/><path d="m24.25 12.25h-1.5c-.414 0-.75-.336-.75-.75v-1c0-.414.336-.75.75-.75h1.5c.414 0 .75.336.75.75v1c0 .414-.336.75-.75.75z"/><path d="m11.25 15h-1.5c-.414 0-.75-.336-.75-.75v-1c0-.414.336-.75.75-.75h1.5c.414 0 .75.336.75.75v1c0 .414-.336.75-.75.75z"/><path d="m14.25 24h-7.5c-.414 0-.75-.336-.75-.75v-6.5c0-.414.336-.75.75-.75h7.5c.414 0 .75.336.75.75v6.5c0 .414-.336.75-.75.75zm-6.75-1.5h6v-5h-6z"/><path d="m13.25 17.5h-5.5c-.414 0-.75-.336-.75-.75v-1.5c0-.965.785-1.75 1.75-1.75h3.5c.965 0 1.75.785 1.75 1.75v1.5c0 .414-.336.75-.75.75zm-4.75-1.5h4v-.75c0-.138-.112-.25-.25-.25h-3.5c-.138 0-.25.112-.25.25z"/><path d="m11.25 13.25h-1.5v-4.5c0-1.517 1.233-2.75 2.75-2.75h9c1.517 0 2.75 1.233 2.75 2.75v1.75h-1.5v-1.75c0-.689-.561-1.25-1.25-1.25h-9c-.689 0-1.25.561-1.25 1.25z"/><path d="m8 16.75h1.5v6.5h-1.5z"/><path d="m11.5 16.75h1.5v6.5h-1.5z"/></svg>