<svg id="_x31__x2C_5" height="512" viewBox="0 0 36 36" width="512" xmlns="http://www.w3.org/2000/svg"><path d="m4.167 8.377c0 6.917-3.583 11.667-3.583 15s1.916 10.333 17.249 10.333 17.583-9.417 17.583-13.083c.001-17.167-31.249-24.5-31.249-12.25z" fill="#efefef"/><path d="m31.5 5c-.827 0-1.5-.673-1.5-1.5s.673-1.5 1.5-1.5 1.5.673 1.5 1.5-.673 1.5-1.5 1.5zm0-2c-.276 0-.5.224-.5.5s.224.5.5.5.5-.224.5-.5-.224-.5-.5-.5z" fill="#a4afc1"/><path d="m27.25 21.875h-13.5l-2-9.5h17.5z" fill="#f3f3f1"/><path d="m29.25 12.125-4.75 4.75-4.75-4.75h3v-5.25c0-.276.224-.5.5-.5h2.5c.276 0 .5.224.5.5v5.25z" fill="#2fdf84"/><path d="m11.75 12.375 2 9.5h2.25l-2-9.5z" fill="#d5dbe1"/><path d="m25 6.875c0-.276.224-.5.5-.5h-2.25c-.276 0-.5.224-.5.5v5.25h2.25z" fill="#00b871"/><path d="m22 12.125h-2.25l4.75 4.75 1.125-1.125z" fill="#00b871"/><path d="m24.5 17.625c-.192 0-.384-.073-.53-.22l-4.75-4.75c-.214-.214-.279-.537-.163-.817s.39-.463.693-.463h2.25v-4.5c0-.689.561-1.25 1.25-1.25h2.5c.689 0 1.25.561 1.25 1.25v4.5h2.25c.303 0 .577.183.693.463s.052.603-.163.817l-4.75 4.75c-.146.147-.338.22-.53.22zm-2.939-4.75 2.939 2.939 2.939-2.939h-1.189c-.414 0-.75-.336-.75-.75v-5h-2v5c0 .414-.336.75-.75.75z"/><path d="m27.25 22.625h-13.5c-.354 0-.661-.249-.734-.596l-2-9.5c-.046-.221.009-.451.151-.627.143-.175.356-.277.583-.277h5.333v1.5h-4.409l1.684 8h12.283l.927-4.404 1.468.309-1.053 5c-.072.346-.379.595-.733.595z"/><path d="m13.016 22.029-2.505-11.901c-.121-.572-.633-.99-1.218-.992l-3.545-.011.005-1.5 3.546.011c1.288.005 2.415.923 2.68 2.183l2.505 11.901z"/><path d="m28 25.625h-15.75c-1.241 0-2.25-1.009-2.25-2.25s1.009-2.25 2.25-2.25h2.25v1.5h-2.25c-.414 0-.75.336-.75.75s.336.75.75.75h15.75z"/><circle cx="16.5" cy="28.125" r="1.5"/><circle cx="24.5" cy="28.125" r="1.5"/></svg>