<svg id="_x31__x2C_5" height="512" viewBox="0 0 36 36" width="512" xmlns="http://www.w3.org/2000/svg"><path d="m8.377 31.833c6.917 0 11.667 3.583 15 3.583s10.333-1.916 10.333-17.249-9.417-17.584-13.083-17.584c-17.167 0-24.5 31.25-12.25 31.25z" fill="#efefef"/><g fill="#a4afc1"><path d="m5.773 2.467h2v1h-2z" transform="matrix(.707 -.707 .707 .707 -.114 5.658)"/><path d="m1.707 6.533h2v1h-2z" transform="matrix(.707 -.707 .707 .707 -4.18 3.974)"/><path d="m2.384 1.967h1v2h-1z" transform="matrix(.707 -.707 .707 .707 -1.253 2.908)"/></g><path d="m27.25 21.875h-13.5l-2-9.5h17.5z" fill="#f3f3f1"/><path d="m29.25 11.125-4.75-4.75-4.75 4.75h3v5.25c0 .276.224.5.5.5h2.5c.276 0 .5-.224.5-.5v-5.25z" fill="#2fdf84"/><path d="m11.75 12.375 2 9.5h2.25l-2-9.5z" fill="#d5dbe1"/><path d="m24.5 6.375-4.75 4.75h2.25l3.625-3.625z" fill="#00b871"/><path d="m25 16.375v-5.25h-2.25v5.25c0 .276.224.5.5.5h2.25c-.276 0-.5-.224-.5-.5z" fill="#00b871"/><path d="m25.75 17.625h-2.5c-.689 0-1.25-.561-1.25-1.25v-4.5h-2.25c-.303 0-.577-.183-.693-.463s-.052-.603.163-.817l4.75-4.75c.293-.293.768-.293 1.061 0l4.75 4.75c.214.214.279.537.163.817s-.39.463-.693.463h-2.251v4.5c0 .689-.561 1.25-1.25 1.25zm-2.25-1.5h2v-5c0-.414.336-.75.75-.75h1.189l-2.939-2.939-2.939 2.939h1.189c.414 0 .75.336.75.75z"/><path d="m27.25 22.625h-13.5c-.354 0-.661-.249-.734-.596l-2-9.5c-.046-.221.009-.451.151-.627.143-.175.356-.277.583-.277h5.875v1.5h-4.951l1.684 8h12.283l.466-2.216 1.468.309-.592 2.812c-.072.346-.379.595-.733.595z"/><path d="m13.016 22.029-2.505-11.901c-.121-.572-.633-.99-1.218-.992l-3.545-.011.005-1.5 3.546.011c1.288.005 2.415.923 2.68 2.183l2.505 11.901z"/><path d="m28 25.625h-15.75c-1.241 0-2.25-1.009-2.25-2.25s1.009-2.25 2.25-2.25h2.25v1.5h-2.25c-.414 0-.75.336-.75.75s.336.75.75.75h15.75z"/><circle cx="16.5" cy="28.125" r="1.5"/><circle cx="24.5" cy="28.125" r="1.5"/></svg>