<svg version="1.1" id="Layer_1" xmlns="http://www.w3.org/2000/svg" xmlns:xlink="http://www.w3.org/1999/xlink" x="0px" y="0px"
	 width="100%" viewBox="0 0 420 420" enable-background="new 0 0 420 420" xml:space="preserve">
<path fill="#F0F0F0" opacity="0.000000" stroke="none" 
	d="
M229.000000,421.000000 
	C152.666672,421.000000 76.833351,421.000000 1.000020,421.000000 
	C1.000014,281.000031 1.000014,141.000046 1.000007,1.000058 
	C140.999954,1.000039 280.999908,1.000039 420.999908,1.000019 
	C420.999939,140.999939 420.999939,280.999878 420.999969,420.999908 
	C357.166656,421.000000 293.333344,421.000000 229.000000,421.000000 
M287.500000,387.000000 
	C297.244720,387.000000 306.989410,387.000000 317.245117,387.000000 
	C317.245117,363.204956 317.245117,340.297760 317.245117,316.864319 
	C340.683960,316.864319 363.591644,316.864319 386.564636,316.864319 
	C386.564636,222.988251 386.564636,129.650208 386.564636,36.349846 
	C269.580444,36.349846 153.032013,36.349846 36.448708,36.349846 
	C36.448708,130.038513 36.448708,223.376633 36.448708,317.250732 
	C59.800713,317.250732 82.708122,317.250732 106.141312,317.250732 
	C106.141312,340.689728 106.141312,363.597137 106.141312,387.000000 
	C166.618164,387.000000 226.559082,387.000000 287.500000,387.000000 
z"/>
<path fill="#6FDFC3" opacity="1.000000" stroke="none" 
	d="
M287.000000,387.000000 
	C226.559082,387.000000 166.618164,387.000000 106.141312,387.000000 
	C106.141312,363.597137 106.141312,340.689728 106.141312,317.250732 
	C82.708122,317.250732 59.800713,317.250732 36.448708,317.250732 
	C36.448708,223.376633 36.448708,130.038513 36.448708,36.349846 
	C153.032013,36.349846 269.580444,36.349846 386.564636,36.349846 
	C386.564636,129.650208 386.564636,222.988251 386.564636,316.864319 
	C363.591644,316.864319 340.683960,316.864319 317.245117,316.864319 
	C317.245117,340.297760 317.245117,363.204956 317.245117,387.000000 
	C306.989410,387.000000 297.244720,387.000000 287.000000,387.000000 
M107.000000,229.498199 
	C107.000000,234.910355 107.000000,240.322495 107.000000,245.665619 
	C177.087112,245.665619 246.286484,245.665619 315.556396,245.665619 
	C315.556396,222.649643 315.556396,199.970856 315.556396,177.334335 
	C245.912918,177.334335 176.713547,177.334335 107.000000,177.334335 
	C107.000000,194.608810 107.000000,211.553726 107.000000,229.498199 
z"/>
<path fill="#F0F0F0" opacity="0.000000" stroke="none" 
	d="
M107.000000,228.998428 
	C107.000000,211.553726 107.000000,194.608810 107.000000,177.334335 
	C176.713547,177.334335 245.912918,177.334335 315.556396,177.334335 
	C315.556396,199.970856 315.556396,222.649643 315.556396,245.665619 
	C246.286484,245.665619 177.087112,245.665619 107.000000,245.665619 
	C107.000000,240.322495 107.000000,234.910355 107.000000,228.998428 
z"/>
</svg>