<svg id="_x31_px" enable-background="new 0 0 36 36" height="512" viewBox="0 0 36 36" width="512" xmlns="http://www.w3.org/2000/svg"><path d="m3.442 23.883c6.061 3.333 8.497 8.761 11.417 10.367 2.921 1.606 9.978 3.299 17.366-10.137s.221-19.945-2.992-21.712c-15.042-8.27-36.525 15.58-25.791 21.482z" fill="#efefef"/><path d="m30.75 6.375c-.827 0-1.5-.673-1.5-1.5s.673-1.5 1.5-1.5 1.5.673 1.5 1.5-.673 1.5-1.5 1.5zm0-2c-.276 0-.5.224-.5.5s.224.5.5.5.5-.224.5-.5-.224-.5-.5-.5z" fill="#a4afc1"/><path d="m27.5 29.5h-18c-.552 0-1-.448-1-1v-1c0-.552.448-1 1-1h18c.552 0 1 .448 1 1v1c0 .552-.448 1-1 1z" fill="#f3f3f1"/><path d="m26.5 26.5v-18c0-1.105-.895-2-2-2h-16.5c-.276 0-.5.224-.5.5 0 .145.062.275.16.367l2.2 2.04c.408.378.64.91.64 1.467v15.626z" fill="#f3f3f1"/><path d="m25.5 19.5c-.46 0-.92-.16-1.25-.5s-.79-.5-1.25-.5-.92.16-1.25.5-.79.5-1.25.5-.92-.16-1.25-.5-.79-.5-1.25-.5-.92.16-1.25.5-.79.5-1.25.5-.92-.16-1.25-.5-.79-.5-1.25-.5-.92.16-1.25.5-.79.5-1.25.5v7h16v-7-.3c-.29.21-.65.3-1 .3z" fill="#2fdf84"/><path d="m10.5 28.5v-1c0-.552.448-1 1-1h-2c-.552 0-1 .448-1 1v1c0 .552.448 1 1 1h2c-.552 0-1-.448-1-1z" fill="#d5dbe1"/><path d="m11.86 9.407-2.2-2.04c-.098-.092-.16-.222-.16-.367 0-.276.224-.5.5-.5h-2c-.276 0-.5.224-.5.5 0 .145.062.275.16.367l2.2 2.04c.408.378.64.91.64 1.466v15.627h2v-15.627c0-.557-.232-1.088-.64-1.466z" fill="#d5dbe1"/><path d="m26.5 19.205v-.005l-.004.002z" fill="#00b871"/><path d="m13.75 19c.076-.079.161-.146.25-.205-.294-.198-.647-.295-1-.295-.46 0-.92.16-1.25.5s-.79.5-1.25.5v7h2v-7c.46 0 .92-.16 1.25-.5z" fill="#00b871"/><path d="m27.25 30h-17.5c-.965 0-1.75-.785-1.75-1.75v-1c0-.965.785-1.75 1.75-1.75h17.5c.965 0 1.75.785 1.75 1.75v1c0 .965-.785 1.75-1.75 1.75zm-17.5-3c-.138 0-.25.112-.25.25v1c0 .138.112.25.25.25h17.5c.138 0 .25-.112.25-.25v-1c0-.138-.112-.25-.25-.25z"/><path d="m24 10h3v1.5h-3z"/><path d="m24 14h3v1.5h-3z"/><path d="m24 22h3v1.5h-3z"/><path d="m25.5 20.5c-.697 0-1.333-.258-1.788-.728-.231-.236-.545-.272-.712-.272s-.481.036-.712.272c-.911.938-2.665.938-3.576 0-.231-.236-.545-.272-.712-.272s-.481.036-.712.272c-.911.938-2.665.938-3.576 0-.231-.236-.545-.272-.712-.272s-.481.036-.712.272c-.378.392-.896.643-1.458.703-.411.039-.782-.253-.826-.665s.253-.782.665-.826c.212-.023.404-.114.541-.255.914-.941 2.667-.94 3.578-.001.231.236.545.272.712.272s.481-.036.712-.272c.911-.938 2.665-.938 3.576 0 .231.236.545.272.712.272s.481-.036.712-.272c.911-.938 2.665-.938 3.576 0 .231.236.545.272.712.272.161 0 .321-.031.451-.087.382-.165.822.009.987.388.166.38-.008.822-.388.987-.32.139-.682.212-1.05.212z"/><path d="m26.25 27c-.414 0-.75-.336-.75-.75v-17.5c0-.689-.561-1.25-1.25-1.25h-15.363l1.732 1.607c.56.519.88 1.253.88 2.016v15.127c0 .414-.336.75-.75.75s-.749-.336-.749-.75v-15.127c0-.347-.146-.681-.4-.917l-2.2-2.04c-.254-.235-.4-.569-.4-.916 0-.689.561-1.25 1.25-1.25h16c1.517 0 2.75 1.233 2.75 2.75v17.5c0 .414-.336.75-.75.75z"/><circle cx="17" cy="23" r="1"/></svg>