<svg id="_x31__x2C_5" height="512" viewBox="0 0 36 36" width="512" xmlns="http://www.w3.org/2000/svg"><path d="m34.904 20.355c-3.782-5.791-3.38-11.727-5.203-14.518s-7.256-7.603-20.093.782-9.572 17.5-7.566 20.569c9.388 14.372 39.561 3.423 32.862-6.833z" fill="#efefef"/><path d="m7 5c-.827 0-1.5-.673-1.5-1.5s.673-1.5 1.5-1.5 1.5.673 1.5 1.5-.673 1.5-1.5 1.5zm0-2c-.276 0-.5.224-.5.5s.224.5.5.5.5-.224.5-.5-.224-.5-.5-.5z" fill="#a4afc1"/><path d="m6.75 7.75v13.5c0 .552.448 1 1 1h4.5c.552 0 1-.448 1-1v-8l-6.207-6.207c-.181.181-.293.431-.293.707z" fill="#2fdf84"/><path d="m28.25 6.75h-20.5c-.276 0-.526.112-.707.293l6.207 6.207h15c.552 0 1-.448 1-1v-4.5c0-.552-.448-1-1-1z" fill="#f3f3f1"/><circle cx="23.5" cy="23.5" fill="#2fdf84" r="5.75"/><path d="m7.75 22.25h2.25c-.552 0-1-.448-1-1v-12.25l-1.957-1.957c-.181.181-.293.431-.293.707v13.5c0 .552.448 1 1 1z" fill="#00b871"/><path d="m20 23.5c0-2.79 1.988-5.115 4.625-5.638-.364-.072-.74-.112-1.125-.112-3.176 0-5.75 2.574-5.75 5.75s2.574 5.75 5.75 5.75c.385 0 .761-.039 1.125-.112-2.637-.523-4.625-2.848-4.625-5.638z" fill="#00b871"/><path d="m10 6.75h-2.25c-.276 0-.526.112-.707.293l6.207 6.207h2.25l-6.207-6.207c.181-.181.431-.293.707-.293z" fill="#d5dbe1"/><path d="m12.25 23h-4.5c-.965 0-1.75-.785-1.75-1.75v-13.5c0-.965.785-1.75 1.75-1.75h20.5c.965 0 1.75.785 1.75 1.75v4.5c0 .965-.785 1.75-1.75 1.75h-14.25v7.25c0 .965-.785 1.75-1.75 1.75zm-4.5-15.5c-.138 0-.25.112-.25.25v13.5c0 .138.112.25.25.25h4.5c.138 0 .25-.112.25-.25v-8c0-.414.336-.75.75-.75h15c.138 0 .25-.112.25-.25v-4.5c0-.138-.112-.25-.25-.25z"/><path d="m9.5 6.007h1.5v8.485h-1.5z" transform="matrix(.707 -.707 .707 .707 -4.246 10.25)"/><path d="m25.5 6.75h1.5v1.5h-1.5z"/><path d="m19.5 6.75h1.5v1.5h-1.5z"/><path d="m13.5 6.75h1.5v1.5h-1.5z"/><path d="m22.5 11.75h1.5v1.5h-1.5z"/><path d="m16.5 11.75h1.5v1.5h-1.5z"/><path d="m23.5 30c-3.584 0-6.5-2.916-6.5-6.5s2.916-6.5 6.5-6.5 6.5 2.916 6.5 6.5-2.916 6.5-6.5 6.5zm0-11.5c-2.757 0-5 2.243-5 5s2.243 5 5 5 5-2.243 5-5-2.243-5-5-5z"/><path d="m24.72 26.28-1.75-1.75c-.141-.141-.22-.332-.22-.53v-3.25h1.5v2.939l1.53 1.53z"/></svg>