<svg id="_x31__x2C_5" enable-background="new 0 0 36 36" height="512" viewBox="0 0 36 36" width="512" xmlns="http://www.w3.org/2000/svg"><path d="m13.411 34.999c6.298-2.859 12.105-1.559 15.14-2.936 3.035-1.378 8.617-6.016 2.28-19.978s-15.841-12.12-19.18-10.605c-15.632 7.095-9.395 38.582 1.76 33.519z" fill="#efefef"/><g fill="#a4afc1"><path d="m13.783 3.184h2.001v1h-2.001z" transform="matrix(.707 -.707 .707 .707 1.725 11.532)"/><path d="m9.717 7.25h2v1h-2z" transform="matrix(.707 -.707 .707 .707 -2.341 9.848)"/><path d="m10.217 2.507h1v2.001h-1z" transform="matrix(.707 -.707 .707 .707 .658 8.604)"/></g><path d="m20.25 12.25h-4.5v-3.25c0-1.243 1.007-2.25 2.25-2.25 1.243 0 2.25 1.007 2.25 2.25z" fill="#2fdf84"/><path d="m19 6.994c-.302-.151-.639-.244-1-.244-1.243 0-2.25 1.007-2.25 2.25v3.25h2v-3.25c0-.882.512-1.637 1.25-2.006z" fill="#00b871"/><path d="m20.25 13h-4.5c-.414 0-.75-.336-.75-.75v-3.25c0-1.654 1.346-3 3-3s3 1.346 3 3v3.25c0 .414-.336.75-.75.75zm-3.75-1.5h3v-2.5c0-.827-.673-1.5-1.5-1.5s-1.5.673-1.5 1.5z"/><path d="m13.303 30.212-1.167-3.188c-.09-.251-.136-.51-.136-.774 0-.162.018-.323.052-.479l4.187-14.449 1.441.417-4.176 14.401c.001.002-.004.056-.004.11 0 .089.015.176.046.26l1.166 3.187z"/><path d="m22.697 30.212-1.409-.516 1.167-3.188c.03-.082.045-.169.045-.258 0-.055-.006-.108-.017-.159l-4.163-14.353 1.441-.417 4.174 14.4c.047.206.065.367.065.529 0 .264-.046.523-.136.771z"/><path d="m10 22h16v1.5h-16z"/><path d="m17.25 20h1.5v5h-1.5z"/></svg>