<svg id="_x31__x2C_5" height="512" viewBox="0 0 36 36" width="512" xmlns="http://www.w3.org/2000/svg"><path d="m11.532 34.802c6.645-1.919 12.203.206 15.405-.719s9.396-4.708 5.142-19.44-13.924-14.28-17.447-13.263c-16.493 4.763-14.869 36.821-3.1 33.422z" fill="#efefef"/><g fill="#a4afc1"><path d="m31.773 6.835h1v2h-1z" transform="matrix(.707 -.707 .707 .707 3.918 25.125)"/><path d="m27.707 2.77h1v2h-1z" transform="matrix(.707 -.707 .707 .707 5.596 21.05)"/><path d="m31.449 3.27h2v1h-2z" transform="matrix(.707 -.707 .707 .707 6.839 24.05)"/></g><path d="m20.25 16.5v5.75c0 1.1-.9 2-2 2h-9.5c-1.1 0-2-.9-2-2v-5.75c0-3.25 2.3-5.97 5.36-6.6.01 0 .02 0 .03-.01.44-.09.89-.14 1.36-.14s.92.05 1.36.14c.01 0 .02 0 .03.01 3.06.63 5.36 3.35 5.36 6.6z" fill="#f3f3f1"/><circle cx="13.5" cy="17.5" fill="#2fdf84" r="1.75"/><path d="m23.5 6.75c-3.176 0-5.75 2.574-5.75 5.75 0 1.588.644 3.025 1.684 4.066l4.066-4.066z" fill="#f3f3f1"/><path d="m23.5 6.75v5.75l-4.066 4.066c1.041 1.041 2.478 1.684 4.066 1.684 3.176 0 5.75-2.574 5.75-5.75s-2.574-5.75-5.75-5.75z" fill="#2fdf84"/><path d="m14.625 18.83c-.379-.321-.625-.794-.625-1.33s.246-1.009.625-1.33c-.305-.258-.694-.42-1.125-.42-.966 0-1.75.784-1.75 1.75s.784 1.75 1.75 1.75c.431 0 .82-.162 1.125-.42z" fill="#00b871"/><path d="m25.75 12.5v-5.292c-.691-.295-1.451-.458-2.25-.458v5.75l-4.066 4.066c1.041 1.041 2.478 1.684 4.066 1.684.385 0 .761-.039 1.125-.112-1.136-.226-2.153-.784-2.941-1.573z" fill="#00b871"/><path d="m8.75 24.25h2.25c-1.1 0-2-.9-2-2v-5.75c0-3.25 2.3-5.97 5.36-6.6.01 0 .02 0 .03-.01.077-.016.157-.023.235-.036-.366-.063-.738-.104-1.125-.104-.47 0-.92.05-1.36.14-.01.01-.02.01-.03.01-3.06.63-5.36 3.35-5.36 6.6v5.75c0 1.1.9 2 2 2z" fill="#d5dbe1"/><path d="m19.268 16.691 1.408-1.367c-1.686-3.474-.019-6.906 2.824-8.116v-.458c-4.516 0-7.809 5.209-4.232 9.941z" fill="#d5dbe1"/><path d="m20.28 16.78-1.06-1.06 3.53-3.53v-4.94h1.5v5.25c0 .199-.079.39-.22.53z"/><path d="m23.5 18.969c-3.566 0-6.469-2.902-6.469-6.469s2.902-6.469 6.469-6.469 6.469 2.902 6.469 6.469-2.903 6.469-6.469 6.469zm0-11.5c-2.774 0-5.031 2.257-5.031 5.031s2.257 5.031 5.031 5.031 5.031-2.257 5.031-5.031-2.257-5.031-5.031-5.031z"/><path d="m20.25 25h-11.5c-1.517 0-2.75-1.233-2.75-2.75v-5.75c0-4.136 3.364-7.5 7.5-7.5.538 0 1.046.055 1.553.168l-.326 1.464c-.398-.089-.8-.132-1.227-.132-3.309 0-6 2.691-6 6v5.75c0 .689.561 1.25 1.25 1.25h10.75v-2.61h1.5v3.36c0 .414-.336.75-.75.75z"/><path d="m15.5 29.25h-1.5v-.5c0-.965.785-1.75 1.75-1.75h9c.552 0 1-.449 1-1s-.448-1-1-1h-4.75v-1.5h4.75c1.379 0 2.5 1.122 2.5 2.5s-1.121 2.5-2.5 2.5h-9c-.138 0-.25.112-.25.25z"/><path d="m13.5 20c-1.379 0-2.5-1.122-2.5-2.5s1.121-2.5 2.5-2.5 2.5 1.122 2.5 2.5-1.121 2.5-2.5 2.5zm0-3.5c-.552 0-1 .449-1 1s.448 1 1 1 1-.449 1-1-.448-1-1-1z"/></svg>