<svg id="_x31__x2C_5" height="512" viewBox="0 0 36 36" width="512" xmlns="http://www.w3.org/2000/svg"><path d="m8.377 4.167c6.917 0 11.667-3.583 15-3.583s10.333 1.916 10.333 17.249-9.417 17.583-13.083 17.583c-17.167.001-24.5-31.249-12.25-31.249z" fill="#efefef"/><path d="m4.25 5.556c-.827 0-1.5-.673-1.5-1.5s.673-1.5 1.5-1.5 1.5.673 1.5 1.5-.673 1.5-1.5 1.5zm0-2c-.275 0-.5.224-.5.5s.225.5.5.5.5-.224.5-.5-.225-.5-.5-.5z" fill="#a4afc1"/><path d="m6.75 7.75v13.5c0 .552.448 1 1 1h4.5c.552 0 1-.448 1-1v-8l-6.207-6.207c-.181.181-.293.431-.293.707z" fill="#2fdf84"/><path d="m28.25 6.75h-20.5c-.276 0-.526.112-.707.293l6.207 6.207h15c.552 0 1-.448 1-1v-4.5c0-.552-.448-1-1-1z" fill="#f3f3f1"/><path d="m24 29.25s5.25-2.321 5.25-6.964c0-1.857 0-3.679 0-3.679l-5.25-1.857-5.25 1.857v3.679c0 4.643 5.25 6.964 5.25 6.964z" fill="#2fdf84"/><path d="m7.75 22.25h2.25c-.552 0-1-.448-1-1v-12.25l-1.957-1.957c-.181.181-.293.431-.293.707v13.5c0 .552.448 1 1 1z" fill="#00b871"/><path d="m21 22.286c0-2.786 0-3.679 0-3.679l4.125-1.459-1.125-.398-5.25 1.857v3.679c0 4.643 5.25 6.964 5.25 6.964s.471-.211 1.125-.623c-1.542-.971-4.125-3.082-4.125-6.341z" fill="#00b871"/><path d="m10 6.75h-2.25c-.276 0-.526.112-.707.293l6.207 6.207h2.25l-6.207-6.207c.181-.181.431-.293.707-.293z" fill="#d5dbe1"/><path d="m12.25 23h-4.5c-.965 0-1.75-.785-1.75-1.75v-13.5c0-.965.785-1.75 1.75-1.75h20.5c.965 0 1.75.785 1.75 1.75v4.5c0 .965-.785 1.75-1.75 1.75h-14.25v7.25c0 .965-.785 1.75-1.75 1.75zm-4.5-15.5c-.138 0-.25.112-.25.25v13.5c0 .138.112.25.25.25h4.5c.138 0 .25-.112.25-.25v-8c0-.414.336-.75.75-.75h15c.138 0 .25-.112.25-.25v-4.5c0-.138-.112-.25-.25-.25z"/><path d="m9.5 6.007h1.5v8.485h-1.5z" transform="matrix(.707 -.707 .707 .707 -4.246 10.25)"/><path d="m25.5 6.75h1.5v1.5h-1.5z"/><path d="m19.5 6.75h1.5v1.5h-1.5z"/><path d="m13.5 6.75h1.5v1.5h-1.5z"/><path d="m22.5 11.75h1.5v1.5h-1.5z"/><path d="m16.5 11.75h1.5v1.5h-1.5z"/><path d="m23.5 25c-.014 0-.026 0-.04-.001-.202-.011-.392-.103-.524-.255l-1.75-2 1.129-.987 1.243 1.42 2.684-2.478 1.018 1.103-3.25 3c-.14.127-.322.198-.51.198z"/><path d="m24 30c-.104 0-.207-.021-.304-.064-.232-.103-5.696-2.577-5.696-7.65v-3.679c0-.318.2-.601.5-.707l5.25-1.857c.162-.058.338-.058.5 0l5.25 1.857c.3.106.5.389.5.707v3.679c0 5.073-5.464 7.547-5.696 7.65-.097.043-.2.064-.304.064zm-4.5-10.863v3.148c0 3.495 3.442 5.572 4.499 6.127 1.056-.558 4.501-2.646 4.501-6.127v-3.148l-4.5-1.592z"/></svg>