<svg id="_x31__x2C_5" height="512" viewBox="0 0 36 36" width="512" xmlns="http://www.w3.org/2000/svg"><path d="m8.114 5.564c-1.805 6.677-6.504 10.327-7.374 13.545s-.847 10.475 13.955 14.477 19.432-4.501 20.388-8.041c4.481-16.572-23.772-31.807-26.969-19.981z" fill="#efefef"/><g fill="#a4afc1"><path d="m32.209 6.199h1v2h-1z" transform="matrix(.707 -.707 .707 .707 4.487 25.232)"/><path d="m28.143 2.133h1v2h-1z" transform="matrix(.707 -.707 .707 .707 6.174 21.171)"/><path d="m31.886 2.633h2v1h-2z" transform="matrix(.707 -.707 .707 .707 7.416 24.172)"/></g><path d="m6.75 7.75v13.5c0 .552.448 1 1 1h4.5c.552 0 1-.448 1-1v-8l-6.207-6.207c-.181.181-.293.431-.293.707z" fill="#2fdf84"/><path d="m28.25 6.75h-20.5c-.276 0-.526.112-.707.293l6.207 6.207h15c.552 0 1-.448 1-1v-4.5c0-.552-.448-1-1-1z" fill="#f3f3f1"/><circle cx="23.5" cy="23.5" fill="#2fdf84" r="5.75"/><path d="m7.75 22.25h2.25c-.552 0-1-.448-1-1v-12.25l-1.957-1.957c-.181.181-.293.431-.293.707v13.5c0 .552.448 1 1 1z" fill="#00b871"/><path d="m20 23.5c0-2.79 1.988-5.115 4.625-5.638-.364-.072-.74-.112-1.125-.112-3.176 0-5.75 2.574-5.75 5.75s2.574 5.75 5.75 5.75c.385 0 .761-.039 1.125-.112-2.637-.523-4.625-2.848-4.625-5.638z" fill="#00b871"/><path d="m10 6.75h-2.25c-.276 0-.526.112-.707.293l6.207 6.207h2.25l-6.207-6.207c.181-.181.431-.293.707-.293z" fill="#d5dbe1"/><path d="m12.25 23h-4.5c-.965 0-1.75-.785-1.75-1.75v-13.5c0-.965.785-1.75 1.75-1.75h20.5c.965 0 1.75.785 1.75 1.75v4.5c0 .965-.785 1.75-1.75 1.75h-14.25v7.25c0 .965-.785 1.75-1.75 1.75zm-4.5-15.5c-.138 0-.25.112-.25.25v13.5c0 .138.112.25.25.25h4.5c.138 0 .25-.112.25-.25v-8c0-.414.336-.75.75-.75h15c.138 0 .25-.112.25-.25v-4.5c0-.138-.112-.25-.25-.25z"/><path d="m9.5 6.007h1.5v8.485h-1.5z" transform="matrix(.707 -.707 .707 .707 -4.246 10.25)"/><path d="m25.5 6.75h1.5v1.5h-1.5z"/><path d="m19.5 6.75h1.5v1.5h-1.5z"/><path d="m13.5 6.75h1.5v1.5h-1.5z"/><path d="m22.5 11.75h1.5v1.5h-1.5z"/><path d="m16.5 11.75h1.5v1.5h-1.5z"/><path d="m23.5 30c-3.584 0-6.5-2.916-6.5-6.5s2.916-6.5 6.5-6.5 6.5 2.916 6.5 6.5-2.916 6.5-6.5 6.5zm0-11.5c-2.757 0-5 2.243-5 5s2.243 5 5 5 5-2.243 5-5-2.243-5-5-5z"/><path d="m22.75 22.5h1.5v4.5h-1.5z"/><circle cx="23.5" cy="20.75" r=".75"/></svg>