<svg id="_x31__x2C_5" height="512" viewBox="0 0 36 36" width="512" xmlns="http://www.w3.org/2000/svg"><path d="m34.904 20.355c-3.782-5.791-3.38-11.727-5.203-14.518s-7.256-7.603-20.093.782-9.572 17.5-7.566 20.569c9.388 14.372 39.561 3.423 32.862-6.833z" fill="#efefef"/><g fill="#a4afc1"><path d="m28.589 2.285h1v2h-1z" transform="matrix(.707 -.707 .707 .707 6.197 21.531)"/><path d="m32.655 6.35h1v2.001h-1z" transform="matrix(.707 -.707 .707 .707 4.517 25.602)"/><path d="m32.155 2.608h2v1h-2z" transform="matrix(.707 -.707 .707 .707 7.513 24.354)"/></g><path d="m6.75 7.75v13.5c0 .552.448 1 1 1h4.5c.552 0 1-.448 1-1v-8l-6.207-6.207c-.181.181-.293.431-.293.707z" fill="#2fdf84"/><path d="m28.25 6.75h-20.5c-.276 0-.526.112-.707.293l6.207 6.207h15c.552 0 1-.448 1-1v-4.5c0-.552-.448-1-1-1z" fill="#f3f3f1"/><path d="m28.25 29.25h-5.5c-.552 0-1-.448-1-1v-4c0-.552.448-1 1-1h5.5c.552 0 1 .448 1 1v4c0 .552-.448 1-1 1z" fill="#2fdf84"/><path d="m7.75 22.25h2.25c-.552 0-1-.448-1-1v-12.25l-1.957-1.957c-.181.181-.293.431-.293.707v13.5c0 .552.448 1 1 1z" fill="#00b871"/><path d="m24 28.25v-4c0-.552.448-1 1-1h-2.25c-.552 0-1 .448-1 1v4c0 .552.448 1 1 1h2.25c-.552 0-1-.448-1-1z" fill="#00b871"/><path d="m10 6.75h-2.25c-.276 0-.526.112-.707.293l6.207 6.207h2.25l-6.207-6.207c.181-.181.431-.293.707-.293z" fill="#d5dbe1"/><path d="m12.25 23h-4.5c-.965 0-1.75-.785-1.75-1.75v-13.5c0-.965.785-1.75 1.75-1.75h20.5c.965 0 1.75.785 1.75 1.75v4.5c0 .965-.785 1.75-1.75 1.75h-14.25v7.25c0 .965-.785 1.75-1.75 1.75zm-4.5-15.5c-.138 0-.25.112-.25.25v13.5c0 .138.112.25.25.25h4.5c.138 0 .25-.112.25-.25v-8c0-.414.336-.75.75-.75h15c.138 0 .25-.112.25-.25v-4.5c0-.138-.112-.25-.25-.25z"/><path d="m9.5 6.007h1.5v8.485h-1.5z" transform="matrix(.707 -.707 .707 .707 -4.246 10.25)"/><path d="m25.5 6.75h1.5v1.5h-1.5z"/><path d="m19.5 6.75h1.5v1.5h-1.5z"/><path d="m13.5 6.75h1.5v1.5h-1.5z"/><path d="m22.5 11.75h1.5v1.5h-1.5z"/><path d="m16.5 11.75h1.5v1.5h-1.5z"/><path d="m28.25 30h-5.5c-.965 0-1.75-.785-1.75-1.75v-4c0-.965.785-1.75 1.75-1.75h5.5c.965 0 1.75.785 1.75 1.75v4c0 .965-.785 1.75-1.75 1.75zm-5.5-6c-.138 0-.25.112-.25.25v4c0 .138.112.25.25.25h5.5c.138 0 .25-.112.25-.25v-4c0-.138-.112-.25-.25-.25z"/><path d="m27.25 24h-3.5c-.414 0-.75-.336-.75-.75v-1.75c0-1.378 1.121-2.5 2.5-2.5s2.5 1.122 2.5 2.5v1.75c0 .414-.336.75-.75.75zm-2.75-1.5h2v-1c0-.551-.448-1-1-1s-1 .449-1 1z"/></svg>