<svg id="_x31__x2C_5" height="512" viewBox="0 0 36 36" width="512" xmlns="http://www.w3.org/2000/svg"><path d="m34.904 20.355c-3.782-5.791-3.38-11.727-5.203-14.518s-7.256-7.603-20.093.782-9.572 17.5-7.566 20.569c9.388 14.372 39.561 3.423 32.862-6.833z" fill="#efefef"/><g fill="#a4afc1"><path d="m31.033 8.283h1v2h-1z" transform="matrix(.707 -.707 .707 .707 2.672 25.016)"/><path d="m26.967 4.217h1v2h-1z" transform="matrix(.707 -.707 .707 .707 4.356 20.95)"/><path d="m30.709 4.717h2v1h-2z" transform="matrix(.707 -.707 .707 .707 5.599 23.95)"/></g><path d="m20.25 16.5v5.75c0 1.1-.9 2-2 2h-9.5c-1.1 0-2-.9-2-2v-5.75c0-3.25 2.3-5.97 5.36-6.6.01 0 .02 0 .03-.01.44-.09.89-.14 1.36-.14s.92.05 1.36.14c.01 0 .02 0 .03.01 3.06.63 5.36 3.35 5.36 6.6z" fill="#f3f3f1"/><circle cx="13.5" cy="17.5" fill="#2fdf84" r="1.75"/><path d="m28.25 16.25h-5.5c-.552 0-1-.448-1-1v-4c0-.552.448-1 1-1h5.5c.552 0 1 .448 1 1v4c0 .552-.448 1-1 1z" fill="#2fdf84"/><path d="m14.625 18.83c-.379-.321-.625-.794-.625-1.33s.246-1.009.625-1.33c-.305-.258-.694-.42-1.125-.42-.966 0-1.75.784-1.75 1.75s.784 1.75 1.75 1.75c.431 0 .82-.162 1.125-.42z" fill="#00b871"/><path d="m24 15.25v-4c0-.552.448-1 1-1h-2.25c-.552 0-1 .448-1 1v4c0 .552.448 1 1 1h2.25c-.552 0-1-.448-1-1z" fill="#00b871"/><path d="m8.75 24.25h2.25c-1.1 0-2-.9-2-2v-5.75c0-3.25 2.3-5.97 5.36-6.6.01 0 .02 0 .03-.01.077-.016.157-.023.235-.036-.366-.063-.738-.104-1.125-.104-.47 0-.92.05-1.36.14-.01.01-.02.01-.03.01-3.06.63-5.36 3.35-5.36 6.6v5.75c0 1.1.9 2 2 2z" fill="#d5dbe1"/><path d="m20.25 25h-11.5c-1.517 0-2.75-1.233-2.75-2.75v-5.75c0-4.136 3.364-7.5 7.5-7.5 2.011 0 3.894.782 5.302 2.202.1.1.201.204.29.318l-1.185.921c-.05-.065-.11-.122-.168-.18-1.127-1.136-2.632-1.76-4.24-1.76-3.309 0-6 2.691-6 6v5.75c0 .689.561 1.25 1.25 1.25h10.751v-4.83h1.5v5.58c0 .413-.336.749-.75.749z"/><path d="m15.5 29.25h-1.5v-.5c0-.965.785-1.75 1.75-1.75h9c.551 0 1-.449 1-1s-.449-1-1-1h-4.75v-1.5h4.75c1.378 0 2.5 1.122 2.5 2.5s-1.122 2.5-2.5 2.5h-9c-.138 0-.25.112-.25.25z"/><path d="m13.5 20c-1.378 0-2.5-1.122-2.5-2.5s1.122-2.5 2.5-2.5 2.5 1.122 2.5 2.5-1.122 2.5-2.5 2.5zm0-3.5c-.551 0-1 .449-1 1s.449 1 1 1 1-.449 1-1-.449-1-1-1z"/><path d="m28.25 17h-5.5c-.965 0-1.75-.785-1.75-1.75v-4c0-.965.785-1.75 1.75-1.75h5.5c.965 0 1.75.785 1.75 1.75v4c0 .965-.785 1.75-1.75 1.75zm-5.5-6c-.138 0-.25.112-.25.25v4c0 .138.112.25.25.25h5.5c.138 0 .25-.112.25-.25v-4c0-.138-.112-.25-.25-.25z"/><path d="m27.25 11h-3.5c-.414 0-.75-.336-.75-.75v-1.75c0-1.378 1.122-2.5 2.5-2.5s2.5 1.122 2.5 2.5v1.75c0 .414-.336.75-.75.75zm-2.75-1.5h2v-1c0-.551-.449-1-1-1s-1 .449-1 1z"/></svg>