<svg id="effect" height="512" viewBox="0 0 36 36" width="512" xmlns="http://www.w3.org/2000/svg"><path d="m34.904 20.355c-3.782-5.791-3.38-11.727-5.203-14.518s-7.256-7.603-20.093.782-9.572 17.5-7.566 20.569c9.388 14.372 39.561 3.423 32.862-6.833z" fill="#efefef"/><path d="m6.731 27.86c-.144.174-.231.397-.231.64 0 .552.448 1 1 1 .243 0 .466-.087.64-.231l8.594-7.157c.602-.502 1.339-.815 2.118-.902l1.911-.212c.903-.1 1.744-.505 2.387-1.147l5.179-5.179c1.562-1.562 1.562-4.095 0-5.657l-1.343-1.343c-1.562-1.562-4.095-1.562-5.657 0l-5.179 5.179c-.642.642-1.047 1.484-1.147 2.387l-.212 1.911c-.087.779-.4 1.516-.902 2.118z" fill="#f3f3f1"/><circle cx="19.5" cy="16.5" fill="#2fdf84" r="2"/><path d="m20.5 18.23c-.29.17-.64.27-1 .27-1.1 0-2-.9-2-2s.9-2 2-2c.36 0 .71.1 1 .27-.6.35-1 .99-1 1.73s.4 1.38 1 1.73z" fill="#00b871"/><path d="m25.16 6.63c-.67.17-1.31.52-1.83 1.04l-5.18 5.18c-.64.64-1.05 1.48-1.15 2.39l-.21 1.91c-.09.78-.4 1.51-.9 2.12l-7.16 8.59c-.14.17-.23.4-.23.64 0 .14.03.28.08.4l-.44.37c-.17.14-.4.23-.64.23-.55 0-1-.45-1-1 0-.24.09-.47.23-.64l7.16-8.59c.5-.61.81-1.34.9-2.12l.21-1.91c.1-.91.51-1.75 1.15-2.39l5.18-5.18c1.04-1.04 2.5-1.38 3.83-1.04z" fill="#d5dbe1"/><path d="m7.5 30.25c-.965 0-1.75-.785-1.75-1.75 0-.408.144-.806.405-1.119l7.156-8.594c.409-.491.662-1.087.732-1.722l.212-1.911c.119-1.067.602-2.073 1.362-2.834l5.18-5.179c.897-.897 2.09-1.392 3.359-1.392s2.461.494 3.358 1.392l1.343 1.343c1.852 1.853 1.852 4.865 0 6.718l-5.18 5.179c-.759.76-1.766 1.243-2.834 1.362l-1.912.212c-.634.071-1.229.324-1.72.733l-8.591 7.157c-.313.261-.711.405-1.12.405zm-.192-1.91c-.027.032-.058.086-.058.16 0 .212.321.268.409.192l8.594-7.156c.717-.598 1.586-.968 2.515-1.071l1.912-.212c.731-.082 1.419-.413 1.938-.933l5.18-5.179c1.267-1.268 1.267-3.329 0-4.597l-1.343-1.343c-1.229-1.229-3.369-1.229-4.596 0l-5.18 5.179c-.52.521-.851 1.209-.932 1.939l-.212 1.911c-.103.928-.474 1.798-1.071 2.516z"/><path d="m19.5 19.25c-1.517 0-2.75-1.233-2.75-2.75s1.233-2.75 2.75-2.75 2.75 1.233 2.75 2.75-1.233 2.75-2.75 2.75zm0-4c-.689 0-1.25.561-1.25 1.25s.561 1.25 1.25 1.25 1.25-.561 1.25-1.25-.561-1.25-1.25-1.25z"/><path d="m19.318 12h7.864v1.5h-7.864z" transform="matrix(.707 -.707 .707 .707 -2.206 20.175)"/><path d="m8.5 10c-.827 0-1.5-.673-1.5-1.5s.673-1.5 1.5-1.5 1.5.673 1.5 1.5-.673 1.5-1.5 1.5zm0-2c-.276 0-.5.225-.5.5s.224.5.5.5.5-.225.5-.5-.224-.5-.5-.5z" fill="#a4afc1"/></svg>