<svg id="_x31__x2C_5" height="512" viewBox="0 0 36 36" width="512" xmlns="http://www.w3.org/2000/svg"><path d="m8.377 31.833c6.917 0 11.667 3.583 15 3.583s10.333-1.916 10.333-17.249-9.417-17.584-13.083-17.584c-17.167 0-24.5 31.25-12.25 31.25z" fill="#efefef"/><g fill="#a4afc1"><path d="m28.467 1.967h1v2h-1z" transform="matrix(.707 -.707 .707 .707 6.383 21.348)"/><path d="m32.533 6.033h1v2h-1z" transform="matrix(.707 -.707 .707 .707 4.699 25.413)"/><path d="m31.856 2.467h2v1h-2z" transform="matrix(.707 -.707 .707 .707 7.525 24.102)"/></g><path d="m29.25 12.25h-19.25v-5.5h17.25c1.105 0 2 .895 2 2z" fill="#f3f3f1"/><path d="m10 12.25h-2.25c-.552 0-1-.448-1-1v-3.5c0-.552.448-1 1-1h2.25z" fill="#2fdf84"/><path d="m28.25 29.25h-8.5c-1.105 0-2-.895-2-2v-3.5h10.5c.552 0 1 .198 1 .75v3.75c0 .552-.448 1-1 1z" fill="#f3f3f1"/><path d="m29.253 12.25-3.753 11.5h-7.75l3.753-11.5z" fill="#2fdf84"/><path d="m9 11.25v-3.5c0-.552.448-1 1-1h-2.25c-.552 0-1 .448-1 1v3.5c0 .552.448 1 1 1h2.25c-.552 0-1-.448-1-1z" fill="#00b871"/><path d="m21.503 12.25-3.753 11.5h2.25l3.753-11.5z" fill="#00b871"/><path d="m10 6.75h2.25v5.5h-2.25z" fill="#d5dbe1"/><path d="m20 27.25v-3.5h-2.25v3.5c0 1.105.895 2 2 2h2.25c-1.105 0-2-.895-2-2z" fill="#d5dbe1"/><path d="m29.25 13h-21.5c-.965 0-1.75-.785-1.75-1.75v-3.5c0-.965.785-1.75 1.75-1.75h19.5c1.517 0 2.75 1.233 2.75 2.75v3.5c0 .414-.336.75-.75.75zm-21.5-5.5c-.138 0-.25.112-.25.25v3.5c0 .138.112.25.25.25h20.75v-2.75c0-.689-.561-1.25-1.25-1.25z"/><path d="m10 13h-2.25c-.965 0-1.75-.785-1.75-1.75v-3.5c0-.965.785-1.75 1.75-1.75h2.25c.414 0 .75.336.75.75v5.5c0 .414-.336.75-.75.75zm-2.25-5.5c-.138 0-.25.112-.25.25v3.5c0 .138.112.25.25.25h1.5v-4z"/><path d="m28.25 30h-8.5c-1.517 0-2.75-1.233-2.75-2.75v-3.5c0-.414.336-.75.75-.75h10.5c1.292 0 1.75.808 1.75 1.5v3.75c0 .965-.785 1.75-1.75 1.75zm-9.75-5.5v2.75c0 .689.561 1.25 1.25 1.25h8.5c.138 0 .25-.112.25-.25v-3.737c-.021.004-.105-.014-.25-.013z"/><path d="m13.5 6h1.5v3.5h-1.5z"/><path d="m17.5 6h1.5v3.5h-1.5z"/><path d="m21.5 6h1.5v3.5h-1.5z"/><path d="m25.5 6h1.5v3.5h-1.5z"/><path d="m20 23h1.5v3.25h-1.5z"/><path d="m23 23h1.5v3.25h-1.5z"/><path d="m26 23h1.5v3.25h-1.5z"/><path d="m13.578 17.25h12.097v1.5h-12.097z" transform="matrix(.311 -.951 .951 .311 -3.579 31.066)"/><path d="m21.328 17.25h12.097v1.5h-12.097z" transform="matrix(.311 -.951 .951 .311 1.765 38.433)"/></svg>