<svg id="_x31_px" enable-background="new 0 0 36 36" height="512" viewBox="0 0 36 36" width="512" xmlns="http://www.w3.org/2000/svg"><path d="m27.417 3.914c-6.915.129-11.732-3.365-15.064-3.302s-10.296 2.109-10.009 17.44 9.744 17.404 13.41 17.336c17.163-.321 23.911-31.703 11.663-31.474z" fill="#efefef"/><path d="m9.533 4.055h2v1h-2z" fill="#a4afc1" transform="matrix(.707 -.707 .707 .707 -.136 8.782)"/><path d="m5.467 8.121h2v1h-2z" fill="#a4afc1" transform="matrix(.707 -.707 .707 .707 -4.202 7.098)"/><path d="m5.967 3.378h1v2h-1z" fill="#a4afc1" transform="matrix(.707 -.707 .707 .707 -1.202 5.855)"/><path d="m7.5 26.5h21c.552 0 1-.448 1-1 0-.085-.011-.168-.031-.247l-1.586-6.245c-.225-.887-1.024-1.508-1.938-1.508h-15.889c-.915 0-1.713.621-1.938 1.508l-1.586 6.245c-.021.079-.032.162-.032.247 0 .552.448 1 1 1z" fill="#f3f3f1"/><g fill="#2fdf84"><path d="m12.5 26.5v1c0 .552-.448 1-1 1h-2c-.552 0-1-.448-1-1v-1z"/><path d="m27.5 26.5v1c0 .552-.448 1-1 1h-2c-.552 0-1-.448-1-1v-1z"/><path d="m24.5 23.5h-8c-.552 0-1-.448-1-1v-1c0-.552.448-1 1-1h8c.552 0 1 .448 1 1v1c0 .552-.448 1-1 1z"/><path d="m12.5 14.5v-3c0-.552.448-1 1-1h2c.552 0 1 .448 1 1v3z"/><path d="m16.5 14.5v-6c0-.552.448-1 1-1h5c.552 0 1 .448 1 1v6z"/></g><path d="m8.5 25.5c0-.085.011-.168.031-.247l1.586-6.245c.225-.887 1.023-1.508 1.938-1.508h-2c-.915 0-1.713.621-1.938 1.508l-1.586 6.245c-.02.079-.031.162-.031.247 0 .552.448 1 1 1h2c-.552 0-1-.448-1-1z" fill="#d5dbe1"/><path d="m10.5 27.5v-1h-2v1c0 .552.448 1 1 1h2c-.552 0-1-.448-1-1z" fill="#00b871"/><path d="m25.5 27.5v-1h-2v1c0 .552.448 1 1 1h2c-.552 0-1-.448-1-1z" fill="#00b871"/><path d="m17.5 22.5v-1c0-.552.448-1 1-1h-2c-.552 0-1 .448-1 1v1c0 .552.448 1 1 1h2c-.552 0-1-.448-1-1z" fill="#00b871"/><path d="m15.5 10.5h-2c-.552 0-1 .448-1 1v3h2v-3c0-.552.448-1 1-1z" fill="#00b871"/><path d="m19.5 7.5h-2c-.552 0-1 .448-1 1v6h2v-6c0-.552.448-1 1-1z" fill="#00b871"/><path d="m11.25 29h-1.5c-.965 0-1.75-.785-1.75-1.75v-.75c0-.414.336-.75.75-.75s.75.336.75.75v.75c0 .138.112.25.25.25h1.5c.138 0 .25-.112.25-.25v-.75c0-.414.336-.75.75-.75s.75.336.75.75v.75c0 .965-.785 1.75-1.75 1.75z"/><path d="m26.25 29h-1.5c-.965 0-1.75-.785-1.75-1.75v-.75c0-.414.336-.75.75-.75s.75.336.75.75v.75c0 .138.112.25.25.25h1.5c.138 0 .25-.112.25-.25v-.75c0-.414.336-.75.75-.75s.75.336.75.75v.75c0 .965-.785 1.75-1.75 1.75z"/><path d="m28.25 27h-20.5c-.965 0-1.75-.785-1.75-1.75 0-.146.018-.291.054-.431l1.59-5.761c.306-1.205 1.402-2.058 2.662-2.058h15.389c1.259 0 2.355.853 2.666 2.073l1.583 5.73c.038.156.056.301.056.447 0 .965-.785 1.75-1.75 1.75zm-17.944-8.5c-.572 0-1.071.388-1.211.942l-1.59 5.76c-.005.186.107.298.245.298h20.5c.138 0 .25-.112.25-.25l-1.59-5.792c-.145-.57-.643-.958-1.215-.958z"/><path d="m24.25 24h-7.5c-.965 0-1.75-.785-1.75-1.75v-.5c0-.965.785-1.75 1.75-1.75h7.5c.965 0 1.75.785 1.75 1.75v.5c0 .965-.785 1.75-1.75 1.75zm-7.5-2.5c-.138 0-.25.112-.25.25v.5c0 .138.112.25.25.25h7.5c.138 0 .25-.112.25-.25v-.5c0-.138-.112-.25-.25-.25z"/><path d="m10 20h3v1.5h-3z"/><path d="m10 22.5h3v1.5h-3z"/><path d="m11.75 18.25c-.414 0-.75-.336-.75-.75v-2.75c0-.414.336-.75.75-.75s.75.336.75.75v2.75c0 .414-.336.75-.75.75z"/><path d="m24.25 18.25c-.414 0-.75-.336-.75-.75v-2.75c0-.414.336-.75.75-.75s.75.336.75.75v2.75c0 .414-.336.75-.75.75z"/><path d="m26.221 15.5h-16.442c-.195 0-.383-.076-.522-.212l-1.567-1.523 1.045-1.076 1.348 1.311h15.833l1.349-1.311 1.045 1.076-1.567 1.523c-.139.136-.327.212-.522.212z"/><path d="m16.75 15.5c-.414 0-.75-.336-.75-.75v-3c0-.138-.112-.25-.25-.25h-2c-.138 0-.25.112-.25.25v3c0 .414-.336.75-.75.75s-.75-.336-.75-.75v-3c0-.965.785-1.75 1.75-1.75h2c.965 0 1.75.785 1.75 1.75v3c0 .414-.336.75-.75.75z"/><path d="m23.25 15.5c-.414 0-.75-.336-.75-.75v-6c0-.138-.112-.25-.25-.25h-4.5c-.138 0-.25.112-.25.25v6c0 .414-.336.75-.75.75s-.75-.336-.75-.75v-6c0-.965.785-1.75 1.75-1.75h4.5c.965 0 1.75.785 1.75 1.75v6c0 .414-.336.75-.75.75z"/></svg>