<svg id="_x31__x2C_5" height="512" viewBox="0 0 36 36" width="512" xmlns="http://www.w3.org/2000/svg"><path d="m13.411 34.999c6.298-2.859 12.105-1.559 15.14-2.936 3.035-1.378 8.617-6.016 2.28-19.978s-15.841-12.12-19.18-10.605c-15.632 7.095-9.395 38.582 1.76 33.519z" fill="#efefef"/><path d="m30 6.555c-.827 0-1.5-.673-1.5-1.5s.673-1.5 1.5-1.5 1.5.673 1.5 1.5-.673 1.5-1.5 1.5zm0-2c-.276 0-.5.224-.5.5s.224.5.5.5.5-.224.5-.5-.224-.5-.5-.5z" fill="#a4afc1"/><path d="m20.25 16.5v5.75c0 1.1-.9 2-2 2h-9.5c-1.1 0-2-.9-2-2v-5.75c0-3.25 2.3-5.97 5.36-6.6.01 0 .02 0 .03-.01.44-.09.89-.14 1.36-.14s.92.05 1.36.14c.01 0 .02 0 .03.01 3.06.63 5.36 3.35 5.36 6.6z" fill="#f3f3f1"/><circle cx="13.5" cy="17.5" fill="#2fdf84" r="1.75"/><circle cx="23.5" cy="12.5" fill="#2fdf84" r="5.75"/><path d="m14 17.5c0-.536.246-1.009.625-1.33-.305-.258-.694-.42-1.125-.42-.966 0-1.75.784-1.75 1.75s.784 1.75 1.75 1.75c.431 0 .82-.162 1.125-.42-.379-.321-.625-.794-.625-1.33z" fill="#00b871"/><path d="m20 12.5c0-2.79 1.988-5.115 4.625-5.638-.364-.073-.74-.112-1.125-.112-3.176 0-5.75 2.574-5.75 5.75s2.574 5.75 5.75 5.75c.385 0 .761-.039 1.125-.112-2.637-.523-4.625-2.848-4.625-5.638z" fill="#00b871"/><path d="m8.75 24.25h2.25c-1.1 0-2-.9-2-2v-5.75c0-3.25 2.3-5.97 5.36-6.6.01 0 .02 0 .03-.01.077-.016.157-.023.235-.036-.366-.063-.738-.104-1.125-.104-.47 0-.92.05-1.36.14-.01.01-.02.01-.03.01-3.06.63-5.36 3.35-5.36 6.6v5.75c0 1.1.9 2 2 2z" fill="#d5dbe1"/><path d="m20.25 25h-11.5c-1.517 0-2.75-1.233-2.75-2.75v-5.75c0-4.136 3.364-7.5 7.5-7.5.537 0 1.045.055 1.553.168l-.325 1.464c-.4-.089-.801-.132-1.228-.132-3.309 0-6 2.691-6 6v5.75c0 .689.561 1.25 1.25 1.25h10.75v-2.61h1.5v3.36c0 .414-.336.75-.75.75z"/><path d="m15.5 29.25h-1.5v-.5c0-.965.785-1.75 1.75-1.75h9c.551 0 1-.449 1-1s-.449-1-1-1h-4.75v-1.5h4.75c1.378 0 2.5 1.122 2.5 2.5s-1.122 2.5-2.5 2.5h-9c-.138 0-.25.112-.25.25z"/><path d="m13.5 20c-1.378 0-2.5-1.122-2.5-2.5s1.122-2.5 2.5-2.5 2.5 1.122 2.5 2.5-1.122 2.5-2.5 2.5zm0-3.5c-.551 0-1 .449-1 1s.449 1 1 1 1-.449 1-1-.449-1-1-1z"/><path d="m23.5 19c-3.584 0-6.5-2.916-6.5-6.5s2.916-6.5 6.5-6.5 6.5 2.916 6.5 6.5-2.916 6.5-6.5 6.5zm0-11.5c-2.757 0-5 2.243-5 5s2.243 5 5 5 5-2.243 5-5-2.243-5-5-5z"/><path d="m22.5 15.25c-.199 0-.39-.079-.53-.22l-1.75-1.75 1.061-1.061 1.181 1.18 2.722-3.141 1.134.982-3.25 3.75c-.137.157-.332.251-.54.258-.01.002-.019.002-.028.002z"/></svg>