<svg id="_x31__x2C_5" enable-background="new 0 0 36 36" height="512" viewBox="0 0 36 36" width="512" xmlns="http://www.w3.org/2000/svg"><path d="m31.833 27.623c0-6.917 3.583-11.667 3.583-15s-1.916-10.333-17.249-10.333-17.584 9.417-17.584 13.083c0 17.167 31.25 24.5 31.25 12.25z" fill="#efefef"/><path d="m5.5 17c-.827 0-1.5-.673-1.5-1.5s.673-1.5 1.5-1.5 1.5.673 1.5 1.5-.673 1.5-1.5 1.5zm0-2c-.276 0-.5.225-.5.5s.224.5.5.5.5-.225.5-.5-.224-.5-.5-.5z" fill="#a4afc1"/><path d="m26.764 11.25h-17.66c-.818 0-1.553-.498-1.857-1.257l-.497-1.243h22.5l-.697 1.394c-.339.678-1.032 1.106-1.789 1.106z" fill="#2fdf84"/><path d="m10.75 27.25h14.5c.552 0 1-.448 1-1 0-.043-.003-.085-.008-.126l-1.264-9.634c-.131-.995-.979-1.74-1.983-1.74h-9.99c-1.004 0-1.852.744-1.983 1.74l-1.264 9.634c-.005.041-.008.083-.008.126 0 .552.448 1 1 1z" fill="#f3f3f1"/><path d="m9.497 9.993-.497-1.243h-2.25l.497 1.243c.304.759 1.039 1.257 1.857 1.257h2.25c-.818 0-1.553-.498-1.857-1.257z" fill="#00b871"/><path d="m12 26.25c0-.043.003-.085.008-.126l1.264-9.634c.131-.995.979-1.74 1.983-1.74h-2.25c-1.004 0-1.852.744-1.983 1.74l-1.264 9.634c-.005.041-.008.083-.008.126 0 .552.448 1 1 1h2.25c-.552 0-1-.448-1-1z" fill="#d5dbe1"/><path d="m14.5 10.75h1.5v4.5h-1.5z"/><path d="m20 10.75h1.5v4.5h-1.5z"/><path d="m26.764 12h-17.66c-1.131 0-2.133-.679-2.553-1.729l-.497-1.243c-.092-.23-.064-.493.075-.699s.372-.329.621-.329h22.5c.26 0 .501.135.638.355.136.222.149.497.033.729l-.697 1.395c-.469.939-1.411 1.521-2.46 1.521zm-18.907-2.5.086.215c.191.476.647.785 1.161.785h17.66c.477 0 .905-.265 1.118-.69l.155-.31z"/><path d="m25.25 28h-14.5c-.965 0-1.75-.785-1.75-1.75 0-.076.005-.15.014-.224l1.264-9.634c.179-1.364 1.351-2.392 2.727-2.392h9.99c1.376 0 2.548 1.028 2.727 2.393l1.264 9.634c.009.073.014.147.014.223 0 .965-.785 1.75-1.75 1.75zm-12.245-12.5c-.625 0-1.158.468-1.239 1.088l-1.264 9.634c-.002.166.11.278.248.278h14.5c.138 0 .25-.112.25-.25l-1.266-9.662c-.081-.62-.614-1.088-1.239-1.088z"/><path d="m16.787 21.75h3.176v1.5h-3.176z" transform="matrix(.447 -.894 .894 .447 -9.967 28.873)"/><path d="m22.5 23.25h-1.5v-.75c0-1.654-1.346-3-3-3s-3 1.346-3 3v.75h-1.5v-.75c0-2.481 2.019-4.5 4.5-4.5s4.5 2.019 4.5 4.5z"/></svg>