<svg id="_x31__x2C_5" enable-background="new 0 0 36 36" height="512" viewBox="0 0 36 36" width="512" xmlns="http://www.w3.org/2000/svg"><path d="m8.377 31.833c6.917 0 11.667 3.583 15 3.583s10.333-1.916 10.333-17.249-9.417-17.584-13.083-17.584c-17.167 0-24.5 31.25-12.25 31.25z" fill="#efefef"/><path d="m4.5 9c-.827 0-1.5-.673-1.5-1.5s.673-1.5 1.5-1.5 1.5.673 1.5 1.5-.673 1.5-1.5 1.5zm0-2c-.276 0-.5.225-.5.5s.224.5.5.5.5-.225.5-.5-.224-.5-.5-.5z" fill="#a4afc1"/><path d="m14.25 6.75c-.828 0-1.5.672-1.5 1.5 0 .337.111.649.299.899l1.501 2.001c.494.659.024 1.6-.8 1.6h-2c-1.105 0-2 .895-2 2v12.5c0 1.105.895 2 2 2h12.5c1.105 0 2-.895 2-2v-12.5c0-1.105-.895-2-2-2h-2c-.824 0-1.294-.941-.8-1.6l1.501-2.001c.188-.251.299-.562.299-.899 0-.828-.672-1.5-1.5-1.5z" fill="#f3f3f1"/><path d="m16.8 11.15-1.501-2.001c-.188-.25-.299-.562-.299-.899 0-.828.672-1.5 1.5-1.5h-2.25c-.828 0-1.5.672-1.5 1.5 0 .337.111.649.299.899l1.501 2.001c.494.659.024 1.6-.8 1.6h-2c-1.105 0-2 .895-2 2v12.5c0 1.105.895 2 2 2h2.25c-1.105 0-2-.895-2-2v-12.5c0-1.105.895-2 2-2h2c.824 0 1.294-.941.8-1.6z" fill="#d5dbe1"/><path d="m24.25 30h-12.5c-1.517 0-2.75-1.233-2.75-2.75v-12.5c0-1.517 1.233-2.75 2.75-2.75h2c.135 0 .198-.087.224-.138.026-.052.057-.154-.024-.262l-1.5-2.001c-.295-.392-.45-.859-.45-1.349 0-1.24 1.009-2.25 2.25-2.25h7.5c1.241 0 2.25 1.01 2.25 2.25 0 .49-.155.957-.449 1.349l-1.5 2.002c-.081.107-.05.21-.024.262.025.05.088.137.223.137h2c1.517 0 2.75 1.233 2.75 2.75v12.5c0 1.517-1.233 2.75-2.75 2.75zm-12.5-16.5c-.689 0-1.25.561-1.25 1.25v12.5c0 .689.561 1.25 1.25 1.25h12.5c.689 0 1.25-.561 1.25-1.25v-12.5c0-.689-.561-1.25-1.25-1.25h-2c-.667 0-1.267-.371-1.565-.968s-.235-1.299.165-1.832l1.5-2.001c.098-.13.15-.285.15-.449 0-.413-.336-.75-.75-.75h-7.5c-.414 0-.75.337-.75.75 0 .164.052.319.149.45l1.5 2c.4.533.464 1.235.166 1.832s-.898.968-1.565.968z"/><path d="m23.25 24h-2.5c-.965 0-1.75-.785-1.75-1.75v-3.5c0-.965.785-1.75 1.75-1.75h3.25v1.5h-3.25c-.138 0-.25.112-.25.25v3.5c0 .138.112.25.25.25h1.75v-1h-1.5v-1.5h2.25c.414 0 .75.336.75.75v2.5c0 .414-.336.75-.75.75z"/><path d="m12 17h1.5v7h-1.5z"/><path d="m16.475 24.286-4.131-2.655c-.195-.125-.321-.334-.341-.564s.067-.458.237-.616l4.049-3.76 1.021 1.099-3.341 3.103 3.318 2.133z"/></svg>