<svg id="_x31__x2C_5" height="512" viewBox="0 0 36 36" width="512" xmlns="http://www.w3.org/2000/svg"><path d="m8.114 5.564c-1.805 6.677-6.504 10.327-7.374 13.545s-.847 10.475 13.955 14.477 19.432-4.501 20.388-8.041c4.481-16.572-23.772-31.807-26.969-19.981z" fill="#efefef"/><path d="m31.875 10c-.827 0-1.5-.673-1.5-1.5s.673-1.5 1.5-1.5 1.5.673 1.5 1.5-.673 1.5-1.5 1.5zm0-2c-.276 0-.5.224-.5.5s.224.5.5.5.5-.224.5-.5-.224-.5-.5-.5z" fill="#a4afc1"/><path d="m20.25 16.5v5.75c0 1.1-.9 2-2 2h-9.5c-1.1 0-2-.9-2-2v-5.75c0-3.25 2.3-5.97 5.36-6.6.01 0 .02 0 .03-.01.44-.09.89-.14 1.36-.14s.92.05 1.36.14c.01 0 .02 0 .03.01 3.06.63 5.36 3.35 5.36 6.6z" fill="#f3f3f1"/><circle cx="13.5" cy="17.5" fill="#2fdf84" r="1.75"/><path d="m23.5 15.831-3.554 2.419 1.09-4.301-3.286-2.806 4.227-.24 1.523-4.153 1.523 4.153 4.227.24-3.286 2.806 1.09 4.301z" fill="#2fdf84"/><path d="m14 17.5c0-.536.246-1.009.625-1.33-.305-.258-.694-.42-1.125-.42-.966 0-1.75.784-1.75 1.75s.784 1.75 1.75 1.75c.431 0 .82-.162 1.125-.42-.379-.321-.625-.794-.625-1.33z" fill="#00b871"/><path d="m20 11.143 4.227-.24.398-1.085-1.125-3.068-1.523 4.153-4.227.24 3.286 2.806-1.09 4.301 2.719-1.85.621-2.451z" fill="#00b871"/><path d="m8.75 24.25h2.25c-1.1 0-2-.9-2-2v-5.75c0-3.25 2.3-5.97 5.36-6.6.01 0 .02 0 .03-.01.077-.016.157-.023.235-.036-.366-.063-.738-.104-1.125-.104-.47 0-.92.05-1.36.14-.01.01-.02.01-.03.01-3.06.63-5.36 3.35-5.36 6.6v5.75c0 1.1.9 2 2 2z" fill="#d5dbe1"/><path d="m20.25 25h-11.5c-1.517 0-2.75-1.233-2.75-2.75v-5.75c0-4.136 3.364-7.5 7.5-7.5.482 0 .958.045 1.414.134l-.287 1.473c-.361-.071-.74-.106-1.126-.106-3.309 0-6 2.691-6 6v5.75c0 .689.561 1.25 1.25 1.25h10.749v-2.03h1.5v2.78c0 .413-.336.749-.75.749z"/><path d="m15.5 29.25h-1.5v-.5c0-.965.785-1.75 1.75-1.75h9c.551 0 1-.449 1-1s-.449-1-1-1h-4.75v-1.5h4.75c1.378 0 2.5 1.122 2.5 2.5s-1.122 2.5-2.5 2.5h-9c-.138 0-.25.112-.25.25z"/><path d="m13.5 20c-1.378 0-2.5-1.122-2.5-2.5s1.122-2.5 2.5-2.5 2.5 1.122 2.5 2.5-1.122 2.5-2.5 2.5zm0-3.5c-.551 0-1 .449-1 1s.449 1 1 1 1-.449 1-1-.449-1-1-1z"/><path d="m27.054 19c-.147 0-.294-.043-.422-.13l-3.132-2.131-3.132 2.131c-.257.174-.596.173-.852-.006-.255-.178-.374-.497-.297-.798l.975-3.85-2.932-2.503c-.233-.199-.321-.52-.224-.81.098-.29.363-.492.668-.509l3.735-.211 1.354-3.69c.109-.297.391-.493.705-.493s.596.196.704.492l1.354 3.69 3.735.211c.306.018.57.219.668.509.098.291.009.611-.224.81l-2.932 2.503.975 3.85c.077.302-.042.62-.297.798-.129.092-.279.137-.429.137zm-3.554-3.918c.147 0 .294.043.422.13l1.919 1.306-.604-2.385c-.07-.276.023-.569.24-.754l1.865-1.593-2.362-.134c-.299-.017-.559-.21-.662-.491l-.818-2.233-.819 2.233c-.103.281-.363.474-.662.491l-2.362.134 1.865 1.593c.217.186.31.478.24.754l-.604 2.385 1.919-1.306c.129-.087.276-.13.423-.13z"/></svg>