<svg id="_x31__x2C_5" height="512" viewBox="0 0 36 36" width="512" xmlns="http://www.w3.org/2000/svg"><path d="m7.678 5.564c-1.805 6.677-6.504 10.327-7.374 13.545s-.847 10.475 13.955 14.477 19.432-4.501 20.388-8.041c4.481-16.572-23.772-31.807-26.969-19.981z" fill="#efefef"/><g fill="#a4afc1"><path d="m14.073 1.555h1v2h-1z" transform="matrix(.707 -.707 .707 .707 2.46 11.051)"/><path d="m18.139 5.621h1v2h-1z" transform="matrix(.707 -.707 .707 .707 .776 15.116)"/><path d="m17.639 1.879h2v1h-2z" transform="matrix(.707 -.707 .707 .707 3.777 13.876)"/></g><path d="m28.5 29.25h-5.75c-.552 0-1-.448-1-1v-20.5c0-.552.448-1 1-1h5.75c.552 0 1 .448 1 1v20.5c0 .552-.448 1-1 1z" fill="#f3f3f1"/><path d="m14.25 14.25-2.75 1-2.75-1v-1.5c0-1.105.895-2 2-2h1.5c1.105 0 2 .895 2 2z" fill="#2fdf84"/><path d="m8.75 14.25-2 13h2l2.907-11.627z" fill="#f3f3f1"/><path d="m14.25 14.25 2 13h-2l-2.877-11.51z" fill="#f3f3f1"/><path d="m12.625 14.841-1.625-.591v-1.5c0-.976.7-1.786 1.625-1.962-.122-.023-.247-.038-.375-.038h-1.5c-1.105 0-2 .895-2 2v1.5l2.75 1z" fill="#00b871"/><path d="m24 28.25v-20.5c0-.552.448-1 1-1h-2.25c-.552 0-1 .448-1 1v20.5c0 .552.448 1 1 1h2.25c-.552 0-1-.448-1-1z" fill="#d5dbe1"/><path d="m9.4 24.65 1.448-9.41-2.098-.99-2 13h2z" fill="#d5dbe1"/><path d="m12.625 20.75 1.625 6.5h2l-.4-2.6-2.1-8.4z" fill="#d5dbe1"/><path d="m28.5 30h-5.75c-.965 0-1.75-.785-1.75-1.75v-20.5c0-.965.785-1.75 1.75-1.75h5.75c.965 0 1.75.785 1.75 1.75v20.5c0 .965-.785 1.75-1.75 1.75zm-5.75-22.5c-.138 0-.25.112-.25.25v20.5c0 .138.112.25.25.25h5.75c.138 0 .25-.112.25-.25v-20.5c0-.138-.112-.25-.25-.25z"/><path d="m11.5 16c-.087 0-.174-.015-.256-.045l-2.75-1c-.297-.108-.494-.39-.494-.705v-1.5c0-1.517 1.233-2.75 2.75-2.75h1.5c1.517 0 2.75 1.233 2.75 2.75v1.5c0 .315-.197.597-.494.705l-2.75 1c-.082.03-.169.045-.256.045zm-2-2.275 2 .728 2-.728v-.975c0-.689-.561-1.25-1.25-1.25h-1.5c-.689 0-1.25.561-1.25 1.25z"/><path d="m8.75 28h-2c-.219 0-.427-.096-.569-.262s-.205-.386-.172-.603l2-13 1.482.229-1.867 12.136h.54l2.608-10.432 1.455.364-2.75 11c-.082.334-.383.568-.727.568z"/><path d="m16.25 28h-2c-.344 0-.645-.234-.728-.568l-2.75-11 1.455-.364 2.609 10.432h.54l-1.867-12.136 1.482-.229 2 13c.033.216-.029.437-.172.603s-.35.262-.569.262z"/><path d="m7.972 29.453-1.443-.405c.219-.78.472-1.72.499-1.879l.698.119.642-.49c.255.337.255.337-.396 2.655z"/><path d="m15.05 29.453c-.651-2.319-.651-2.319-.396-2.655l1.171.937-.573-.483.742-.084c.027.158.281 1.099.5 1.881z"/><path d="m10.75 6.75h1.5v3.75h-1.5z"/><path d="m27.75 9.5h1.75v1.5h-1.75z"/><path d="m27.75 12.5h1.75v1.5h-1.75z"/><path d="m26.75 15.5h2.75v1.5h-2.75z"/><path d="m27.75 18.5h1.75v1.5h-1.75z"/><path d="m27.75 21.5h1.75v1.5h-1.75z"/><path d="m26.75 24.5h2.75v1.5h-2.75z"/></svg>