<svg id="_x31_px" enable-background="new 0 0 36 36" height="512" viewBox="0 0 36 36" width="512" xmlns="http://www.w3.org/2000/svg"><path d="m8.114 5.564c-1.805 6.677-6.504 10.327-7.374 13.545s-.847 10.475 13.955 14.477 19.432-4.501 20.388-8.041c4.481-16.572-23.772-31.807-26.969-19.981z" fill="#efefef"/><g fill="#a4afc1"><path d="m5.559 1.938h1v2h-1z"/><path d="m5.559 7.688h1v2h-1z"/><path d="m2.059 5.188h2v1h-2z"/><path d="m7.809 5.188h2v1h-2z"/></g><path d="m26.5 12.5v15c0 1.1-.9 2-2 2h-10c-1.1 0-2-.9-2-2v-13.5c0-.315-.148-.611-.4-.8l-2.4-1.8c-.12-.09-.2-.24-.2-.4 0-.28.22-.5.5-.5h11.5 3c1.105 0 2 .895 2 2z" fill="#f3f3f1"/><circle cx="19.5" cy="24.5" fill="#2fdf84" r="2"/><path d="m14.5 27.5v-13.5c0-.315-.148-.611-.4-.8l-2.4-1.8c-.12-.09-.2-.24-.2-.4 0-.28.22-.5.5-.5h-2c-.28 0-.5.22-.5.5 0 .16.08.31.2.4l2.4 1.8c.252.189.4.485.4.8v13.5c0 1.1.9 2 2 2h2c-1.1 0-2-.9-2-2z" fill="#d5dbe1"/><path d="m19.5 24.5c0-.738.405-1.376 1-1.723-.295-.172-.634-.277-1-.277-1.105 0-2 .895-2 2s.895 2 2 2c.366 0 .705-.106 1-.277-.595-.347-1-.985-1-1.723z" fill="#00b871"/><path d="m19.5 27c-1.378 0-2.5-1.121-2.5-2.5s1.122-2.5 2.5-2.5 2.5 1.121 2.5 2.5-1.122 2.5-2.5 2.5zm0-3.5c-.551 0-1 .448-1 1s.449 1 1 1 1-.448 1-1-.449-1-1-1z"/><path d="m13.987 13.945h18.496v1.5h-18.496z" transform="matrix(.355 -.935 .935 .355 1.252 31.204)"/><path d="m14.75 26h-2c-.414 0-.75-.336-.75-.75s.336-.75.75-.75h2c.414 0 .75.336.75.75s-.336.75-.75.75z"/><path d="m14.75 22h-2c-.414 0-.75-.336-.75-.75s.336-.75.75-.75h2c.414 0 .75.336.75.75s-.336.75-.75.75z"/><path d="m14.75 18h-2c-.414 0-.75-.336-.75-.75s.336-.75.75-.75h2c.414 0 .75.336.75.75s-.336.75-.75.75z"/><path d="m24.25 30h-9.5c-1.517 0-2.75-1.233-2.75-2.75v-13c0-.075-.041-.154-.103-.202l-2.397-1.798c-.314-.237-.5-.61-.5-1 0-.689.561-1.25 1.25-1.25h11.75v1.5h-11l1.801 1.351c.439.333.7.855.7 1.399v13c0 .689.561 1.25 1.25 1.25h9.5c.689 0 1.25-.561 1.25-1.25v-13.25h1.499v13.25c0 1.517-1.233 2.75-2.75 2.75z"/></svg>