<svg id="_x31__x2C_5" enable-background="new 0 0 36 36" height="512" viewBox="0 0 36 36" width="512" xmlns="http://www.w3.org/2000/svg"><path d="m34.904 20.355c-3.782-5.791-3.38-11.727-5.203-14.518s-7.256-7.603-20.093.782-9.572 17.5-7.566 20.569c9.388 14.372 39.561 3.423 32.862-6.833z" fill="#efefef"/><g fill="#a4afc1"><path d="m9.816 5.803h2v1h-2z" transform="matrix(.707 -.707 .707 .707 -1.289 9.494)"/><path d="m5.75 9.869h2v1h-2z" transform="matrix(.707 -.707 .707 .707 -5.355 7.81)"/><path d="m6.25 5.127h1v2h-1z" transform="matrix(.707 -.707 .707 .707 -2.355 6.567)"/></g><path d="m26.804 20.429c0-4.793-3.942-8.679-8.804-8.679s-8.804 3.886-8.804 8.679h-1.468c-.54 0-.978.432-.978.964v2.893c0 .533.438.964.978.964h20.543c.54 0 .978-.432.978-.964v-2.893c0-.533-.438-.964-.978-.964z" fill="#2fdf84"/><path d="m22.75 20.25c0-2.485-2.127-4.5-4.75-4.5s-4.75 2.015-4.75 4.5z" fill="#f3f3f1"/><path d="m8.75 24.286v-2.893c0-.533.438-.964.978-.964h1.467c0-4.459 3.413-8.129 7.804-8.619-.329-.037-.661-.06-1-.06-4.862 0-8.804 3.886-8.804 8.679h-1.467c-.54 0-.978.432-.978.964v2.893c0 .533.438.964.978.964h2c-.54 0-.978-.432-.978-.964z" fill="#00b871"/><path d="m28.272 26h-20.544c-.953 0-1.728-.769-1.728-1.714v-2.893c0-.945.775-1.714 1.728-1.714h.748c.388-4.85 4.511-8.679 9.524-8.679s9.136 3.829 9.524 8.679h.748c.953 0 1.728.769 1.728 1.714v2.893c0 .945-.775 1.714-1.728 1.714zm-20.544-4.821c-.126 0-.228.096-.228.214v2.893c0 .118.102.214.228.214h20.544c.126 0 .228-.096.228-.214v-2.893c0-.118-.102-.214-.228-.214h-1.468c-.414 0-.75-.336-.75-.75 0-4.372-3.613-7.929-8.054-7.929s-8.054 3.557-8.054 7.929c0 .414-.336.75-.75.75zm19.826-.75h.01z"/><path d="m22.75 21h-9.5c-.414 0-.75-.336-.75-.75 0-2.895 2.467-5.25 5.5-5.25s5.5 2.355 5.5 5.25c0 .414-.336.75-.75.75zm-8.669-1.5h7.839c-.372-1.709-1.988-3-3.919-3s-3.549 1.291-3.92 3z"/><path d="m21.75 23h1.5v3h-1.5z"/><path d="m25.75 22h1.5v4h-1.5z"/><path d="m17.75 22h1.5v4h-1.5z"/><path d="m9.75 22h1.5v4h-1.5z"/><path d="m13.75 23h1.5v3h-1.5z"/></svg>