<svg id="line" enable-background="new 0 0 36 36" height="512" viewBox="0 0 36 36" width="512" xmlns="http://www.w3.org/2000/svg"><path d="m8.377 31.833c6.917 0 11.667 3.583 15 3.583s10.333-1.916 10.333-17.249-9.417-17.584-13.083-17.584c-17.167 0-24.5 31.25-12.25 31.25z" fill="#efefef"/><path d="m5.5 11c-.827 0-1.5-.673-1.5-1.5s.673-1.5 1.5-1.5 1.5.673 1.5 1.5-.673 1.5-1.5 1.5zm0-2c-.276 0-.5.224-.5.5s.224.5.5.5.5-.224.5-.5-.224-.5-.5-.5z" fill="#a4afc1"/><path d="m12.697 28.96-5.657-5.657c-.391-.391-.391-1.024 0-1.414l14.849-14.849c.391-.391 1.024-.391 1.414 0l5.657 5.657c.391.391.391 1.024 0 1.414l-14.849 14.849c-.391.391-1.024.391-1.414 0z" fill="#f3f3f1"/><path d="m9.29 23.303c-.391-.391-.391-1.024 0-1.414l14.431-14.431-.418-.418c-.391-.391-1.024-.391-1.414 0l-14.849 14.849c-.391.391-.391 1.024 0 1.414l5.657 5.657c.391.391 1.024.391 1.414 0l.418-.418z" fill="#d5dbe1"/><path d="m24.321 14.836h1.5v3.5h-1.5z" transform="matrix(.707 -.707 .707 .707 -4.384 22.589)"/><path d="m22.2 16.957h1.5v3.5h-1.5z" transform="matrix(.707 -.707 .707 .707 -6.506 21.707)"/><path d="m17.957 21.2h1.5v3.5h-1.5z" transform="matrix(.707 -.707 .707 .707 -10.749 19.95)"/><path d="m15.836 23.321h1.5v3.5h-1.5z" transform="matrix(.707 -.707 .707 .707 -12.869 19.068)"/><path d="m25.735 11.008h1.5v5.499h-1.5z" transform="matrix(.707 -.707 .707 .707 -1.971 22.757)"/><path d="m13.007 23.736h1.5v5.499h-1.5z" transform="matrix(.707 -.707 .707 .707 -14.699 17.485)"/><path d="m19.371 17.371h1.5v5.5h-1.5z" transform="matrix(.707 -.707 .707 .707 -8.335 20.121)"/><path d="m13.404 30.003c-.467 0-.907-.182-1.237-.513l-5.657-5.657c-.331-.331-.513-.77-.513-1.237s.182-.907.513-1.237l14.849-14.849c.661-.661 1.813-.661 2.475 0l5.657 5.657c.331.331.513.77.513 1.237s-.182.907-.513 1.237l-14.85 14.849c-.33.331-.77.513-1.237.513zm9.192-22.506c-.064 0-.128.024-.177.073l-14.849 14.849c-.097.098-.097.256 0 .354l5.657 5.657c.098.098.256.098.354 0l14.849-14.849c.097-.098.097-.256 0-.354l-5.657-5.657c-.049-.049-.113-.073-.177-.073z"/></svg>