<svg id="_x31__x2C_5" height="512" viewBox="0 0 36 36" width="512" xmlns="http://www.w3.org/2000/svg"><path d="m13.411 34.999c6.298-2.859 12.105-1.559 15.14-2.936 3.035-1.378 8.617-6.016 2.28-19.978s-15.841-12.12-19.18-10.605c-15.632 7.095-9.395 38.582 1.76 33.519z" fill="#efefef"/><g fill="#a4afc1"><path d="m5.783 4.013h2v1h-2z" transform="matrix(.707 -.707 .707 .707 -1.204 6.118)"/><path d="m1.717 8.078h2v1h-2z" transform="matrix(.707 -.707 .707 .707 -5.27 4.434)"/><path d="m2.217 3.336h1v2h-1z" transform="matrix(.707 -.707 .707 .707 -2.27 3.192)"/></g><path d="m22.75 20.25v8c0 .552.448 1 1 1h4.5c.552 0 1-.448 1-1v-13.5c0-.276-.112-.526-.293-.707z" fill="#2fdf84"/><path d="m28.25 13.75h-20.5c-.552 0-1 .448-1 1v4.5c0 .552.448 1 1 1h15l6.207-6.207c-.181-.181-.431-.293-.707-.293z" fill="#f3f3f1"/><path d="m25 28.25v-8l4.25-4.25v-1.25c0-.276-.112-.526-.293-.707l-6.207 6.207v8c0 .552.448 1 1 1h2.25c-.552 0-1-.448-1-1z" fill="#00b871"/><path d="m7.75 20.25h2.25c-.552 0-1-.448-1-1v-4.5c0-.552.448-1 1-1h-2.25c-.552 0-1 .448-1 1v4.5c0 .552.448 1 1 1z" fill="#d5dbe1"/><path d="m28.25 30h-4.5c-.965 0-1.75-.785-1.75-1.75v-7.25h-14.25c-.965 0-1.75-.785-1.75-1.75v-4.5c0-.965.785-1.75 1.75-1.75h20.5c.965 0 1.75.785 1.75 1.75v13.5c0 .965-.785 1.75-1.75 1.75zm-20.5-15.5c-.138 0-.25.112-.25.25v4.5c0 .138.112.25.25.25h15c.414 0 .75.336.75.75v8c0 .138.112.25.25.25h4.5c.138 0 .25-.112.25-.25v-13.5c0-.138-.112-.25-.25-.25z"/><path d="m21.507 16.5h8.485v1.5h-8.485z" transform="matrix(.707 -.707 .707 .707 -4.656 23.26)"/><path d="m9 13.75h1.5v1.5h-1.5z"/><path d="m15 13.75h1.5v1.5h-1.5z"/><path d="m21 13.75h1.5v1.5h-1.5z"/><path d="m12 18.75h1.5v1.5h-1.5z"/><path d="m18 18.75h1.5v1.5h-1.5z"/></svg>