<svg id="_x31__x2C_5" height="512" viewBox="0 0 36 36" width="512" xmlns="http://www.w3.org/2000/svg"><path d="m8.377 31.833c6.917 0 11.667 3.583 15 3.583s10.333-1.916 10.333-17.249-9.417-17.584-13.083-17.584c-17.167 0-24.5 31.25-12.25 31.25z" fill="#efefef"/><g fill="#a4afc1"><path d="m4.625 5.625h1v2h-1z"/><path d="m4.625 11.375h1v2h-1z"/><path d="m1.125 8.875h2v1h-2z"/><path d="m6.875 8.875h2v1h-2z"/></g><path d="m20.25 16.5v5.75c0 1.1-.9 2-2 2h-9.5c-1.1 0-2-.9-2-2v-5.75c0-3.25 2.3-5.97 5.36-6.6.01 0 .02 0 .03-.01.44-.09.89-.14 1.36-.14s.92.05 1.36.14c.01 0 .02 0 .03.01 3.06.63 5.36 3.35 5.36 6.6z" fill="#f3f3f1"/><path d="m27.872 13.211c.039-.23.069-.463.069-.704s-.03-.474-.069-.704l1.185-.88c.193-.144.25-.415.131-.629l-.74-1.324c-.119-.213-.375-.298-.592-.197l-1.339.624c-.347-.3-.738-.54-1.171-.703l-.146-1.506c-.024-.245-.223-.431-.461-.431h-1.479c-.238 0-.438.187-.461.431l-.146 1.506c-.433.163-.824.403-1.171.703l-1.339-.625c-.217-.101-.473-.016-.592.197l-.739 1.324c-.119.213-.062.485.131.629l1.185.88c-.039.23-.069.463-.069.704s.03.474.069.704l-1.185.88c-.193.144-.25.415-.131.629l.739 1.324c.119.213.375.298.592.197l1.339-.624c.347.3.738.54 1.171.703l.146 1.506c.024.245.223.431.461.431h1.479c.238 0 .438-.187.461-.431l.146-1.506c.433-.163.824-.403 1.171-.703l1.339.624c.217.101.473.016.592-.197l.739-1.324c.119-.213.062-.485-.131-.629z" fill="#2fdf84"/><circle cx="24" cy="12.507" fill="#f3f3f1" r="1.75"/><circle cx="13.5" cy="17.5" fill="#2fdf84" r="1.75"/><path d="m13.5 19.25c.431 0 .82-.162 1.125-.42-.379-.321-.625-.794-.625-1.33s.246-1.009.625-1.33c-.305-.258-.694-.42-1.125-.42-.966 0-1.75.784-1.75 1.75s.784 1.75 1.75 1.75z" fill="#00b871"/><path d="m8.75 24.25h2.25c-1.1 0-2-.9-2-2v-5.75c0-3.25 2.3-5.97 5.36-6.6.01 0 .02 0 .03-.01.077-.016.157-.023.235-.036-.366-.063-.738-.104-1.125-.104-.47 0-.92.05-1.36.14-.01.01-.02.01-.03.01-3.06.63-5.36 3.35-5.36 6.6v5.75c0 1.1.9 2 2 2z" fill="#d5dbe1"/><path d="m21.193 14.091 1.185-.88c-.039-.23-.069-.463-.069-.704s.03-.474.069-.704l-1.185-.88c-.193-.144-.25-.415-.131-.629l.556-.995c-.044.035-.093.062-.135.099l-1.339-.625c-.217-.101-.473-.016-.592.197l-.74 1.324c-.119.213-.062.485.131.629l1.185.88c-.039.23-.069.463-.069.704s.03.474.069.704l-1.185.88c-.193.144-.25.415-.131.629l.74 1.324c.119.213.375.298.592.197l1.339-.624c.042.037.092.064.135.099l-.556-.995c-.119-.214-.062-.486.131-.63z" fill="#00b871"/><path d="m24 14.257c.431 0 .82-.162 1.125-.42-.379-.321-.625-.794-.625-1.33s.246-1.009.625-1.33c-.305-.258-.694-.42-1.125-.42-.966 0-1.75.784-1.75 1.75s.784 1.75 1.75 1.75z" fill="#d5dbe1"/><path d="m24.739 19h-1.479c-.628 0-1.147-.478-1.208-1.11l-.104-1.068c-.195-.099-.384-.211-.565-.338l-.923.431c-.568.266-1.255.042-1.563-.51l-.74-1.325c-.303-.542-.158-1.228.338-1.596l.831-.617c-.01-.115-.017-.238-.017-.365s.007-.25.017-.365l-.831-.617c-.496-.368-.642-1.055-.338-1.597l.739-1.324c.309-.552.997-.776 1.564-.51l.923.43c.181-.127.37-.24.565-.338l.104-1.069c.061-.634.581-1.112 1.209-1.112h1.479c.628 0 1.147.478 1.208 1.11l.104 1.068c.195.099.384.211.565.338l.923-.431c.568-.266 1.255-.041 1.563.51l.74 1.324c.303.542.157 1.229-.338 1.597l-.831.617c.01.115.017.238.017.365s-.007.25-.017.365l.831.617c.496.368.642 1.055.338 1.597l-.739 1.324c-.308.552-.995.778-1.564.51l-.923-.43c-.181.127-.37.24-.565.338l-.104 1.069c-.061.634-.581 1.112-1.209 1.112zm-1.217-1.5h.956l.122-1.259c.028-.284.214-.528.481-.629.339-.128.657-.319.944-.568.224-.194.541-.239.808-.113l1.09.508.498-.891-.997-.741c-.227-.168-.339-.45-.292-.728.032-.188.058-.38.058-.578s-.026-.39-.058-.578c-.047-.278.065-.56.292-.728l.997-.741-.498-.891-1.09.508c-.267.126-.584.082-.808-.113-.287-.249-.605-.44-.944-.568-.267-.101-.454-.345-.481-.629l-.122-1.261h-.956l-.122 1.259c-.028.284-.214.528-.481.629-.339.128-.657.319-.944.568-.223.195-.541.239-.808.113l-1.09-.508-.498.891.997.741c.227.168.339.45.292.728-.032.188-.058.38-.058.578s.026.39.058.578c.047.278-.065.56-.292.728l-.997.741.498.891 1.09-.508c.268-.126.585-.081.808.113.287.249.605.44.944.568.267.101.454.345.481.629z"/><path d="m20.25 25h-11.5c-1.517 0-2.75-1.233-2.75-2.75v-5.75c0-4.136 3.364-7.5 7.5-7.5.766 0 1.524.116 2.254.344l-.448 1.432c-.585-.183-1.193-.276-1.806-.276-3.309 0-6 2.691-6 6v5.75c0 .689.561 1.25 1.25 1.25h10.75v-3.54h1.5v4.29c0 .414-.336.75-.75.75z"/><path d="m15.5 29.25h-1.5v-.5c0-.965.785-1.75 1.75-1.75h9c.551 0 1-.449 1-1s-.449-1-1-1h-4.75v-1.5h4.75c1.378 0 2.5 1.122 2.5 2.5s-1.122 2.5-2.5 2.5h-9c-.138 0-.25.112-.25.25z"/><path d="m13.5 20c-1.378 0-2.5-1.122-2.5-2.5s1.122-2.5 2.5-2.5 2.5 1.122 2.5 2.5-1.122 2.5-2.5 2.5zm0-3.5c-.551 0-1 .449-1 1s.449 1 1 1 1-.449 1-1-.449-1-1-1z"/><path d="m24 15c-1.378 0-2.5-1.122-2.5-2.5s1.122-2.5 2.5-2.5 2.5 1.122 2.5 2.5-1.122 2.5-2.5 2.5zm0-3.5c-.551 0-1 .449-1 1s.449 1 1 1 1-.449 1-1-.449-1-1-1z"/></svg>