<svg id="_x31__x2C_5" height="512" viewBox="0 0 36 36" width="512" xmlns="http://www.w3.org/2000/svg"><path d="m7.678 5.564c-1.805 6.677-6.504 10.327-7.374 13.545s-.847 10.475 13.955 14.477 19.432-4.501 20.388-8.041c4.481-16.572-23.772-31.807-26.969-19.981z" fill="#efefef"/><g fill="#a4afc1"><path d="m33.011 4.25h2v1h-2z"/><path d="m27.261 4.25h2v1h-2z"/><path d="m30.761.75h1v2h-1z"/><path d="m30.761 6.75h1v2h-1z"/></g><path d="m27.872 24.204c.039-.23.069-.463.069-.704s-.03-.474-.069-.704l1.185-.88c.193-.144.25-.415.131-.629l-.74-1.324c-.119-.213-.375-.298-.592-.197l-1.339.624c-.347-.3-.738-.54-1.171-.703l-.146-1.506c-.024-.245-.223-.431-.461-.431h-1.479c-.238 0-.438.187-.461.431l-.146 1.506c-.433.163-.824.403-1.171.703l-1.339-.625c-.217-.101-.473-.016-.592.197l-.74 1.324c-.119.213-.063.485.131.629l1.185.88c-.039.23-.069.463-.069.704s.03.474.069.704l-1.185.88c-.193.144-.25.415-.131.629l.74 1.324c.119.213.375.298.592.197l1.339-.624c.347.3.738.54 1.171.703l.146 1.505c.024.245.223.432.461.432h1.479c.238 0 .438-.187.461-.432l.146-1.505c.433-.163.824-.403 1.171-.703l1.339.624c.217.101.473.016.592-.197l.74-1.324c.119-.213.063-.485-.131-.629zm-3.872 1.046c-.966 0-1.75-.784-1.75-1.75s.784-1.75 1.75-1.75 1.75.784 1.75 1.75-.784 1.75-1.75 1.75z" fill="#2fdf84"/><circle cx="24" cy="23.5" fill="#f3f3f1" r="1.75"/><path d="m6.75 7.75v13.5c0 .552.448 1 1 1h4.5c.552 0 1-.448 1-1v-8l-6.207-6.207c-.181.181-.293.431-.293.707z" fill="#2fdf84"/><path d="m28.25 6.75h-20.5c-.276 0-.526.112-.707.293l6.207 6.207h15c.552 0 1-.448 1-1v-4.5c0-.552-.448-1-1-1z" fill="#f3f3f1"/><path d="m7.75 22.25h2.25c-.552 0-1-.448-1-1v-12.25l-1.957-1.957c-.181.181-.293.431-.293.707v13.5c0 .552.448 1 1 1z" fill="#00b871"/><path d="m10 6.75h-2.25c-.276 0-.526.112-.707.293l6.207 6.207h2.25l-6.207-6.207c.181-.181.431-.293.707-.293z" fill="#d5dbe1"/><path d="m21.193 25.091 1.185-.88c-.039-.23-.069-.463-.069-.704s.03-.474.069-.704l-1.185-.88c-.193-.144-.25-.415-.131-.629l.556-.995c-.044.035-.093.062-.135.099l-1.339-.625c-.217-.101-.473-.016-.592.197l-.74 1.324c-.119.213-.062.485.131.629l1.185.88c-.039.23-.069.463-.069.704s.03.474.069.704l-1.185.88c-.193.144-.25.415-.131.629l.74 1.324c.119.213.375.298.592.197l1.339-.624c.042.037.092.064.135.099l-.556-.995c-.119-.214-.062-.486.131-.63z" fill="#00b871"/><path d="m24 25.257c.431 0 .82-.162 1.125-.42-.379-.321-.625-.794-.625-1.33s.246-1.009.625-1.33c-.305-.258-.694-.42-1.125-.42-.966 0-1.75.784-1.75 1.75s.784 1.75 1.75 1.75z" fill="#d5dbe1"/><path d="m12.25 23h-4.5c-.965 0-1.75-.785-1.75-1.75v-13.5c0-.965.785-1.75 1.75-1.75h20.5c.965 0 1.75.785 1.75 1.75v4.5c0 .965-.785 1.75-1.75 1.75h-14.25v7.25c0 .965-.785 1.75-1.75 1.75zm-4.5-15.5c-.138 0-.25.112-.25.25v13.5c0 .138.112.25.25.25h4.5c.138 0 .25-.112.25-.25v-8c0-.414.336-.75.75-.75h15c.138 0 .25-.112.25-.25v-4.5c0-.138-.112-.25-.25-.25z"/><path d="m9.5 6.007h1.5v8.485h-1.5z" transform="matrix(.707 -.707 .707 .707 -4.246 10.25)"/><path d="m25.5 6.75h1.5v1.5h-1.5z"/><path d="m19.5 6.75h1.5v1.5h-1.5z"/><path d="m13.5 6.75h1.5v1.5h-1.5z"/><path d="m22.5 11.75h1.5v1.5h-1.5z"/><path d="m16.5 11.75h1.5v1.5h-1.5z"/><path d="m24 26c-1.379 0-2.5-1.122-2.5-2.5s1.121-2.5 2.5-2.5 2.5 1.122 2.5 2.5-1.121 2.5-2.5 2.5zm0-3.5c-.552 0-1 .449-1 1s.448 1 1 1 1-.449 1-1-.448-1-1-1z"/><path d="m24.739 30h-1.479c-.626 0-1.146-.476-1.208-1.107l-.104-1.071c-.195-.099-.384-.211-.565-.338l-.923.431c-.567.264-1.255.043-1.563-.51l-.74-1.325c-.303-.542-.157-1.228.339-1.596l.83-.617c-.011-.126-.017-.246-.017-.365s.006-.239.017-.365l-.83-.617c-.496-.368-.642-1.055-.338-1.597l.738-1.324c.31-.552.997-.775 1.565-.51l.922.43c.182-.127.37-.24.565-.338l.104-1.069c.063-.636.583-1.112 1.209-1.112h1.479c.626 0 1.146.476 1.208 1.107l.104 1.071c.195.099.384.211.565.338l.923-.431c.568-.265 1.254-.042 1.563.51l.74 1.324c.303.542.156 1.229-.339 1.597l-.83.617c.011.126.017.246.017.365s-.006.239-.017.365l.83.617c.496.368.642 1.055.338 1.597l-.738 1.324c-.31.553-.996.776-1.565.51l-.922-.43c-.182.127-.37.24-.565.338l-.104 1.069c-.063.636-.583 1.112-1.209 1.112zm-1.218-1.5h.957l.122-1.259c.027-.284.214-.528.48-.629.34-.128.658-.32.945-.569.225-.194.54-.238.809-.113l1.089.508.497-.891-.996-.741c-.227-.168-.34-.45-.292-.728.032-.188.058-.38.058-.578s-.025-.39-.058-.578c-.048-.278.065-.56.292-.728l.997-.741-.498-.891-1.089.508c-.269.125-.584.082-.809-.113-.287-.249-.605-.44-.945-.569-.267-.101-.453-.345-.48-.629l-.121-1.259h-.957l-.122 1.259c-.027.284-.214.528-.48.629-.34.128-.658.32-.945.569-.225.194-.54.238-.809.113l-1.089-.508-.497.891.996.741c.227.168.34.45.292.728-.032.188-.058.38-.058.578s.025.39.058.578c.048.278-.065.56-.292.728l-.996.741.497.891 1.089-.508c.269-.125.584-.081.809.113.287.249.605.44.945.569.267.101.453.345.48.629z"/></svg>