<svg height="512" viewBox="0 0 24 24" width="512" xmlns="http://www.w3.org/2000/svg"><g id="Monochrome">
    <path fill="#05ce60" d="M2 12a10 10 0 1 0 20 0a10 10 0 1 0 -20 0" />
    <path d="m12 1.25a10.75 10.75 0 1 0 10.75 10.75 10.76 10.76 0 0 0 -10.75-10.75zm0 20a9.25 9.25 0 1 1 9.25-9.25 9.26 9.26 0 0 1 -9.25 9.25zm4.75-9.25a.76.76 0 0 1 -.75.75h-3.25v3.25a.75.75 0 0 1 -1.5 0v-3.25h-3.25a.75.75 0 0 1 0-1.5h3.25v-3.25a.75.75 0 0 1 1.5 0v3.25h3.25a.76.76 0 0 1 .75.75z" fill="#91ffc3"  /></g>
</svg>