<svg enable-background="new 0 0 36 36" height="512" viewBox="0 0 36 36" width="512" xmlns="http://www.w3.org/2000/svg"><path d="m7.678 5.564c-1.805 6.677-6.504 10.327-7.374 13.545s-.847 10.475 13.955 14.477 19.432-4.501 20.388-8.041c4.481-16.572-23.772-31.807-26.969-19.981z" fill="#efefef"/><path d="m28.25 13.25v15c0 .55-.45 1-1 1h-18.5c-.55 0-1-.45-1-1v-15z" fill="#f3f3f1"/><path d="m29.25 13.25h-22.5c0-3.59 2.91-6.5 6.5-6.5h9.5c3.59 0 6.5 2.91 6.5 6.5z" fill="#f3f3f1"/><g fill="#2fdf84"><path d="m18 23.75h6.75v5.5h-6.75z"/><path d="m14.75 17.75h6.5v6h-6.5z"/><path d="m11.25 23.75h6.75v5.5h-6.75z"/></g><path d="m10 28.25v-15h-2.25v15c0 .55.45 1 1 1h2.25c-.55 0-1-.45-1-1z" fill="#d5dbe1"/><path d="m15.5 6.75h-2.25c-3.59 0-6.5 2.91-6.5 6.5h2.25c0-3.59 2.91-6.5 6.5-6.5z" fill="#d5dbe1"/><path d="m14.75 17.75h2.25v6h-2.25z" fill="#00b871"/><path d="m11.25 23.75h2.25v5.5h-2.25z" fill="#00b871"/><g fill="#a4afc1"><path d="m4.184 27.992h1v2h-1z" transform="matrix(.707 -.707 .707 .707 -19.135 11.812)"/><path d="m8.25 32.059h1v2h-1z" transform="matrix(.707 -.707 .707 .707 -20.813 15.87)"/><path d="m3.507 32.559h2v1h-2z" transform="matrix(.707 -.707 .707 .707 -22.056 12.87)"/><path d="m31.938 9.25c-.827 0-1.5-.673-1.5-1.5s.673-1.5 1.5-1.5 1.5.673 1.5 1.5-.673 1.5-1.5 1.5zm0-2c-.275 0-.5.224-.5.5s.225.5.5.5.5-.224.5-.5-.225-.5-.5-.5z"/></g><path d="m27.25 30h-18.5c-.965 0-1.75-.785-1.75-1.75v-15c0-.414.336-.75.75-.75h20.5c.414 0 .75.336.75.75v15c0 .965-.785 1.75-1.75 1.75zm-18.75-16v14.25c0 .136.114.25.25.25h18.5c.136 0 .25-.114.25-.25v-14.25z"/><path d="m14.75 9.5h6.5v1.5h-6.5z"/><path d="m29.25 14h-22.5c-.414 0-.75-.336-.75-.75 0-3.998 3.252-7.25 7.25-7.25h9.5c3.998 0 7.25 3.252 7.25 7.25 0 .414-.336.75-.75.75zm-21.701-1.5h20.902c-.368-2.817-2.785-5-5.701-5h-9.5c-2.916 0-5.333 2.183-5.701 5z"/><path d="m24.75 30h-6.75c-.414 0-.75-.336-.75-.75v-5.5c0-.414.336-.75.75-.75h6.75c.414 0 .75.336.75.75v5.5c0 .414-.336.75-.75.75zm-6-1.5h5.25v-4h-5.25z"/><path d="m21.25 24.5h-6.5c-.414 0-.75-.336-.75-.75v-6c0-.414.336-.75.75-.75h6.5c.414 0 .75.336.75.75v6c0 .414-.336.75-.75.75zm-5.75-1.5h5v-4.5h-5z"/><path d="m18 30h-6.75c-.414 0-.75-.336-.75-.75v-5.5c0-.414.336-.75.75-.75h6.75c.414 0 .75.336.75.75v5.5c0 .414-.336.75-.75.75zm-6-1.5h5.25v-4h-5.25z"/><path d="m17.25 17h1.5v3h-1.5z"/><path d="m14 23h1.5v3h-1.5z"/><path d="m20.5 23h1.5v3h-1.5z"/></svg>