<svg enable-background="new 0 0 36 36" height="512" viewBox="0 0 36 36" width="512" xmlns="http://www.w3.org/2000/svg"><path d="m4.167 27.623c0-6.917-3.583-11.667-3.583-15s1.916-10.333 17.249-10.333 17.583 9.417 17.583 13.083c.001 17.167-31.249 24.5-31.249 12.25z" fill="#efefef"/><path d="m17.5 18.75h10.75v10.5h-10.75z" fill="#f3f3f1"/><path d="m12.25 7.75h10.5v11h-10.5z" fill="#2fdf84"/><path d="m16.25 7.75h2.5v3.5h-2.5z" fill="#2fdf84"/><g fill="#f3f3f1"><path d="m21.75 18.75h2.5v3.5h-2.5z"/><path d="m6.75 18.75h10.75v10.5h-10.75z"/><path d="m10.75 18.75h2.5v3.5h-2.5z"/></g><path d="m12.25 7.75h2.25v11h-2.25z" fill="#00b871"/><path d="m17.5 18.75h2.25v10.5h-2.25z" fill="#d5dbe1"/><path d="m6.75 18.75h2.25v10.5h-2.25z" fill="#d5dbe1"/><g fill="#a4afc1"><path d="m11.283 3.121h2v1h-2z" transform="matrix(.707 -.707 .707 .707 1.037 9.746)"/><path d="m7.217 7.187h2v1h-2z" transform="matrix(.707 -.707 .707 .707 -3.029 8.062)"/><path d="m7.717 2.444h1v2h-1z" transform="matrix(.707 -.707 .707 .707 -.029 6.819)"/><path d="m27.25 15.75c-.827 0-1.5-.673-1.5-1.5s.673-1.5 1.5-1.5 1.5.673 1.5 1.5-.673 1.5-1.5 1.5zm0-2c-.275 0-.5.224-.5.5s.225.5.5.5.5-.224.5-.5-.225-.5-.5-.5z"/></g><path d="m28.25 30h-10.75c-.414 0-.75-.336-.75-.75v-10.5c0-.414.336-.75.75-.75h10.75c.414 0 .75.336.75.75v10.5c0 .414-.336.75-.75.75zm-10-1.5h9.25v-9h-9.25z"/><path d="m22.75 19.5h-10.5c-.414 0-.75-.336-.75-.75v-11c0-.414.336-.75.75-.75h10.5c.414 0 .75.336.75.75v11c0 .414-.336.75-.75.75zm-9.75-1.5h9v-9.5h-9z"/><path d="m18.75 12h-2.5c-.414 0-.75-.336-.75-.75v-3.5c0-.414.336-.75.75-.75h2.5c.414 0 .75.336.75.75v3.5c0 .414-.336.75-.75.75zm-1.75-1.5h1v-2h-1z"/><path d="m24.25 23h-2.5c-.414 0-.75-.336-.75-.75v-3.5c0-.414.336-.75.75-.75h2.5c.414 0 .75.336.75.75v3.5c0 .414-.336.75-.75.75zm-1.75-1.5h1v-2h-1z"/><path d="m17.5 30h-10.75c-.414 0-.75-.336-.75-.75v-10.5c0-.414.336-.75.75-.75h10.75c.414 0 .75.336.75.75v10.5c0 .414-.336.75-.75.75zm-10-1.5h9.25v-9h-9.25z"/><path d="m13.25 23h-2.5c-.414 0-.75-.336-.75-.75v-3.5c0-.414.336-.75.75-.75h2.5c.414 0 .75.336.75.75v3.5c0 .414-.336.75-.75.75zm-1.75-1.5h1v-2h-1z"/></svg>