<svg id="_x31__x2C_5" height="512" viewBox="0 0 36 36" width="512" xmlns="http://www.w3.org/2000/svg"><path d="m27.623 4.167c-6.917 0-11.667-3.583-15-3.583s-10.333 1.916-10.333 17.249 9.417 17.583 13.083 17.583c17.167.001 24.5-31.249 12.25-31.249z" fill="#efefef"/><path d="m29.625 2.25h1v2h-1z" fill="#a4afc1"/><path d="m31.875 5.25h2v1h-2z" fill="#a4afc1"/><path d="m11.75 18.75h4.5v5.5h-4.5z" fill="#2fdf84"/><path d="m19.75 18.75h4.5v5.5h-4.5z" fill="#f3f3f1"/><path d="m11.75 9.75h4.5v5.5h-4.5z" fill="#f3f3f1"/><path d="m19.75 9.75h4.5v5.5h-4.5z" fill="#2fdf84"/><path d="m19.75 18.75h2.25v5.5h-2.25z" fill="#d5dbe1"/><path d="m11.75 9.75h2.25v5.5h-2.25z" fill="#d5dbe1"/><path d="m11.75 18.75h2.25v5.5h-2.25z" fill="#00b871"/><path d="m19.75 9.75h2.25v5.5h-2.25z" fill="#00b871"/><path d="m8 6h1.5v24h-1.5z"/><path d="m6 28.5h5v1.5h-5z"/><path d="m26.5 6h1.5v24h-1.5z"/><path d="m25 28.5h5v1.5h-5z"/><path d="m9.5 23.5h17v1.5h-17z"/><path d="m16.25 25h-4.5c-.414 0-.75-.336-.75-.75v-5.5c0-.414.336-.75.75-.75h4.5c.414 0 .75.336.75.75v5.5c0 .414-.336.75-.75.75zm-3.75-1.5h3v-4h-3z"/><path d="m24.25 25h-4.5c-.414 0-.75-.336-.75-.75v-5.5c0-.414.336-.75.75-.75h4.5c.414 0 .75.336.75.75v5.5c0 .414-.336.75-.75.75zm-3.75-1.5h3v-4h-3z"/><path d="m9.5 14.5h17v1.5h-17z"/><path d="m16.25 16h-4.5c-.414 0-.75-.336-.75-.75v-5.5c0-.414.336-.75.75-.75h4.5c.414 0 .75.336.75.75v5.5c0 .414-.336.75-.75.75zm-3.75-1.5h3v-4h-3z"/><path d="m24.25 16h-4.5c-.414 0-.75-.336-.75-.75v-5.5c0-.414.336-.75.75-.75h4.5c.414 0 .75.336.75.75v5.5c0 .414-.336.75-.75.75zm-3.75-1.5h3v-4h-3z"/></svg>