<svg enable-background="new 0 0 36 36" height="512" viewBox="0 0 36 36" width="512" xmlns="http://www.w3.org/2000/svg"><path d="m34.904 20.355c-3.782-5.791-3.38-11.727-5.203-14.518s-7.256-7.603-20.093.782-9.572 17.5-7.566 20.569c9.388 14.372 39.561 3.423 32.862-6.833z" fill="#efefef"/><path d="m27.25 29.25h-18.5c-.552 0-1-.448-1-1v-13h20.5v13c0 .552-.448 1-1 1z" fill="#f3f3f1"/><path d="m6.75 10.75h22.5v4.5h-22.5z" fill="#2fdf84"/><path d="m26.25 6.75h-16.5l-3 4h22.5z" fill="#2fdf84"/><path d="m10 28.25v-13h-2.25v13c0 .552.448 1 1 1h2.25c-.552 0-1-.448-1-1z" fill="#d5dbe1"/><path d="m6.75 10.75h2.25v4.5h-2.25z" fill="#00b871"/><path d="m9.75 6.75-3 4h2.25l3-4z" fill="#00b871"/><g fill="#a4afc1"><path d="m31.066 8.25c-.827 0-1.5-.673-1.5-1.5s.673-1.5 1.5-1.5 1.5.673 1.5 1.5-.672 1.5-1.5 1.5zm0-2c-.276 0-.5.224-.5.5s.224.5.5.5.5-.224.5-.5-.224-.5-.5-.5z"/><path d="m.737.061h1v2h-1z" transform="matrix(.707 -.707 .707 .707 -.388 1.186)"/><path d="m4.803 4.127h1v2h-1z" transform="matrix(.707 -.707 .707 .707 -2.072 5.252)"/><path d="m.061 4.627h2v1h-2z" transform="matrix(.707 -.707 .707 .707 -3.314 2.251)"/><path d="m4.127.561h2v1h-2z" transform="matrix(.707 -.707 .707 .707 .752 3.936)"/></g><path d="m27.25 30h-18.5c-.965 0-1.75-.785-1.75-1.75v-13c0-.414.336-.75.75-.75h20.5c.414 0 .75.336.75.75v13c0 .965-.785 1.75-1.75 1.75zm-18.75-14v12.25c0 .138.112.25.25.25h18.5c.138 0 .25-.112.25-.25v-12.25z"/><path d="m29.25 16h-22.5c-.414 0-.75-.336-.75-.75v-4.5c0-.414.336-.75.75-.75h22.5c.414 0 .75.336.75.75v4.5c0 .414-.336.75-.75.75zm-21.75-1.5h21v-3h-21z"/><path d="m28.65 11.2-2.775-3.7h-15.75l-2.775 3.7-1.2-.9 3-4c.142-.189.364-.3.6-.3h16.5c.236 0 .458.111.6.3l3 4z"/><path d="m13.75 19h8.5v1.5h-8.5z"/></svg>