<svg enable-background="new 0 0 36 36" height="512" viewBox="0 0 36 36" width="512" xmlns="http://www.w3.org/2000/svg"><path d="m34.904 20.355c-3.782-5.791-3.38-11.727-5.203-14.518s-7.256-7.603-20.093.782-9.572 17.5-7.566 20.569c9.388 14.372 39.561 3.423 32.862-6.833z" fill="#efefef"/><circle cx="27.5" cy="27.5" fill="#f3f3f1" r="1.75"/><path d="m9.175 27.75h-2.35c-.05.12-.075.24-.075.375 0 .622.558 1.125 1.25 1.125s1.25-.503 1.25-1.125c0-.135-.025-.255-.075-.375z" fill="#f3f3f1"/><g fill="#2fdf84"><path d="m9.75 21.75h5.75v5.5h-5.75z"/><path d="m15.5 21.75h5.75v5.5h-5.75z"/><path d="m9.75 15.75h5.75v6h-5.75z"/><path d="m15.5 15.75h5.75v6h-5.75z"/><path d="m12.75 9.75h5.5v6h-5.5z"/></g><path d="m28 27.5c0-.536.246-1.009.625-1.33-.305-.258-.694-.42-1.125-.42-.966 0-1.75.784-1.75 1.75s.784 1.75 1.75 1.75c.431 0 .82-.162 1.125-.42-.379-.321-.625-.794-.625-1.33z" fill="#d5dbe1"/><g fill="#00b871"><path d="m9.75 21.75h2.25v5.5h-2.25z"/><path d="m15.5 21.75h2.25v5.5h-2.25z"/><path d="m9.75 15.75h2.25v6h-2.25z"/><path d="m15.5 15.75h2.25v6h-2.25z"/><path d="m12.75 9.75h2.25v6h-2.25z"/></g><path d="m31.32 24.25c-.827 0-1.5-.673-1.5-1.5s.673-1.5 1.5-1.5 1.5.673 1.5 1.5-.673 1.5-1.5 1.5zm0-2c-.275 0-.5.225-.5.5s.225.5.5.5.5-.225.5-.5-.224-.5-.5-.5z" fill="#a4afc1"/><path d="m8.325 6.316h2v1h-2z" fill="#a4afc1" transform="matrix(.707 -.707 .707 .707 -2.089 8.59)"/><path d="m4.259 10.382h2v1h-2z" fill="#a4afc1" transform="matrix(.707 -.707 .707 .707 -6.154 6.906)"/><path d="m4.759 5.64h1v2h-1z" fill="#a4afc1" transform="matrix(.707 -.707 .707 .707 -3.155 5.663)"/><path d="m8.825 9.705h1v2h-1z" fill="#a4afc1" transform="matrix(.707 -.707 .707 .707 -4.838 9.729)"/><path d="m27.5 30c-1.379 0-2.5-1.121-2.5-2.5s1.121-2.5 2.5-2.5 2.5 1.121 2.5 2.5-1.121 2.5-2.5 2.5zm0-3.5c-.552 0-1 .448-1 1s.448 1 1 1 1-.448 1-1-.448-1-1-1z"/><path d="m8 30c-1.103 0-2-.841-2-1.875 0-.23.043-.447.133-.662l1.385.574c-.018.291.211.463.482.463s.5-.172.5-.375l1.367-.662c.09.215.133.432.133.662 0 1.034-.897 1.875-2 1.875z"/><path d="m23.25 28h-16.5v-1.5h15.75v-1.75c0-1.517 1.233-2.75 2.75-2.75h2v1.5h-2c-.689 0-1.25.561-1.25 1.25v2.5c0 .414-.336.75-.75.75z"/><path d="m26.5 6.75h1.5v18.75h-1.5z"/><path d="m15.5 28h-5.75c-.414 0-.75-.336-.75-.75v-5.5c0-.414.336-.75.75-.75h5.75c.414 0 .75.336.75.75v5.5c0 .414-.336.75-.75.75zm-5-1.5h4.25v-4h-4.25z"/><path d="m11.75 21.75h1.5v2.25h-1.5z"/><path d="m21.25 28h-5.75c-.414 0-.75-.336-.75-.75v-5.5c0-.414.336-.75.75-.75h5.75c.414 0 .75.336.75.75v5.5c0 .414-.336.75-.75.75zm-5-1.5h4.25v-4h-4.25z"/><path d="m17.75 21.75h1.5v2.25h-1.5z"/><path d="m15.5 22.5h-5.75c-.414 0-.75-.336-.75-.75v-6c0-.414.336-.75.75-.75h5.75c.414 0 .75.336.75.75v6c0 .414-.336.75-.75.75zm-5-1.5h4.25v-4.5h-4.25z"/><path d="m11.75 15.75h1.5v2.25h-1.5z"/><path d="m21.25 22.5h-5.75c-.414 0-.75-.336-.75-.75v-6c0-.414.336-.75.75-.75h5.75c.414 0 .75.336.75.75v6c0 .414-.336.75-.75.75zm-5-1.5h4.25v-4.5h-4.25z"/><path d="m17.75 15.75h1.5v2.25h-1.5z"/><path d="m18.25 16.5h-5.5c-.414 0-.75-.336-.75-.75v-6c0-.414.336-.75.75-.75h5.5c.414 0 .75.336.75.75v6c0 .414-.336.75-.75.75zm-4.75-1.5h4v-4.5h-4z"/><path d="m14.75 9.75h1.5v2.25h-1.5z"/></svg>