<svg enable-background="new 0 0 36 36" height="512" viewBox="0 0 36 36" width="512" xmlns="http://www.w3.org/2000/svg"><path d="m4.167 27.623c0-6.917-3.583-11.667-3.583-15s1.916-10.333 17.249-10.333 17.583 9.417 17.583 13.083c.001 17.167-31.249 24.5-31.249 12.25z" fill="#efefef"/><g fill="#2fdf84"><path d="m17.75 14.75h9.5v9.5h-9.5z"/><path d="m8.75 6.75h10.5v17.5h-10.5z"/><path d="m21.25 14.75h2.5v3.5h-2.5z"/><path d="m12.75 6.75h2.5v3.5h-2.5z"/></g><path d="m6.75 24.25h22.5v5h-3.5v-2h-15.5v2h-3.5z" fill="#f3f3f1"/><path d="m8.75 6.75h2.25v17.5h-2.25z" fill="#00b871"/><path d="m17.75 14.75h2.25v9.5h-2.25z" fill="#00b871"/><path d="m6.75 24.25h2.25v5h-2.25z" fill="#d5dbe1"/><path d="m25.75 27.25h2.25v2h-2.25z" fill="#d5dbe1"/><g fill="#a4afc1"><path d="m7.783 2.727h2v1h-2z" transform="matrix(.707 -.707 .707 .707 .291 7.156)"/><path d="m3.717 6.793h2v1h-2z" transform="matrix(.707 -.707 .707 .707 -3.775 5.471)"/><path d="m4.217 2.05h1v2h-1z" transform="matrix(.707 -.707 .707 .707 -.775 4.229)"/><path d="m31.378 22.25c-.827 0-1.5-.673-1.5-1.5s.673-1.5 1.5-1.5 1.5.673 1.5 1.5-.673 1.5-1.5 1.5zm0-2c-.275 0-.5.224-.5.5s.225.5.5.5.5-.224.5-.5-.225-.5-.5-.5z"/></g><path d="m27.25 25h-9.5c-.414 0-.75-.336-.75-.75v-9.5c0-.414.336-.75.75-.75h9.5c.414 0 .75.336.75.75v9.5c0 .414-.336.75-.75.75zm-8.75-1.5h8v-8h-8z"/><path d="m23.75 19h-2.5c-.414 0-.75-.336-.75-.75v-3.5c0-.414.336-.75.75-.75h2.5c.414 0 .75.336.75.75v3.5c0 .414-.336.75-.75.75zm-1.75-1.5h1v-2h-1z"/><path d="m15.25 11h-2.5c-.414 0-.75-.336-.75-.75v-3.5c0-.414.336-.75.75-.75h2.5c.414 0 .75.336.75.75v3.5c0 .414-.336.75-.75.75zm-1.75-1.5h1v-2h-1z"/><path d="m29.25 30h-3.5c-.414 0-.75-.336-.75-.75v-1.25h-14v1.25c0 .414-.336.75-.75.75h-3.5c-.414 0-.75-.336-.75-.75v-5c0-.414.336-.75.75-.75h22.5c.414 0 .75.336.75.75v5c0 .414-.336.75-.75.75zm-2.75-1.5h2v-3.5h-21v3.5h2v-1.25c0-.414.336-.75.75-.75h15.5c.414 0 .75.336.75.75z"/><path d="m9.5 24.25h-1.5v-17.5c0-.414.336-.75.75-.75h10.5c.414 0 .75.336.75.75v8h-1.5v-7.25h-9z"/></svg>