<svg id="_x31__x2C_5" height="512" viewBox="0 0 36 36" width="512" xmlns="http://www.w3.org/2000/svg"><path d="m8.377 31.833c6.917 0 11.667 3.583 15 3.583s10.333-1.916 10.333-17.249-9.417-17.584-13.083-17.584c-17.167 0-24.5 31.25-12.25 31.25z" fill="#efefef"/><g fill="#a4afc1"><path d="m7.773 2.467h2v1h-2z" transform="matrix(.707 -.707 .707 .707 .472 7.072)"/><path d="m3.707 6.533h2v1h-2z" transform="matrix(.707 -.707 .707 .707 -3.594 5.388)"/><path d="m4.384 1.967h1v2h-1z" transform="matrix(.707 -.707 .707 .707 -.668 4.321)"/></g><path d="m27.25 29.25h-18.5c-1.105 0-2-.895-2-2v-14.5c0-1.105.895-2 2-2h18.5c1.105 0 2 .895 2 2v14.5c0 1.105-.895 2-2 2z" fill="#f3f3f1"/><circle cx="22.5" cy="22.5" fill="#2fdf84" r="4.25"/><path d="m27.25 10.75h-18.5c-1.105 0-2 .895-2 2v2.5h22.5v-2.5c0-1.105-.895-2-2-2z" fill="#2fdf84"/><path d="m8.75 27.25v-14.5c0-1.105.895-2 2-2h-2c-1.105 0-2 .895-2 2v14.5c0 1.105.895 2 2 2h2c-1.105 0-2-.895-2-2z" fill="#d5dbe1"/><path d="m20.25 22.5c0-2.001 1.388-3.668 3.25-4.119-.322-.078-.654-.131-1-.131-2.347 0-4.25 1.903-4.25 4.25s1.903 4.25 4.25 4.25c.346 0 .678-.053 1-.131-1.862-.451-3.25-2.118-3.25-4.119z" fill="#00b871"/><path d="m10.75 10.75h-2c-1.105 0-2 .895-2 2v2.5h2v-2.5c0-1.105.895-2 2-2z" fill="#00b871"/><path d="m27.25 30h-18.5c-1.517 0-2.75-1.233-2.75-2.75v-14.5c0-1.517 1.233-2.75 2.75-2.75h18.5c1.517 0 2.75 1.233 2.75 2.75v14.5c0 1.517-1.233 2.75-2.75 2.75zm-18.5-18.5c-.689 0-1.25.561-1.25 1.25v14.5c0 .689.561 1.25 1.25 1.25h18.5c.689 0 1.25-.561 1.25-1.25v-14.5c0-.689-.561-1.25-1.25-1.25z"/><path d="m29.25 16h-22.5c-.414 0-.75-.336-.75-.75s.336-.75.75-.75h22.5c.414 0 .75.336.75.75s-.336.75-.75.75z"/><path d="m11.5 13h1.5v3h-1.5z"/><path d="m22.5 27.5c-2.757 0-5-2.243-5-5s2.243-5 5-5 5 2.243 5 5-2.243 5-5 5zm0-8.5c-1.93 0-3.5 1.57-3.5 3.5s1.57 3.5 3.5 3.5 3.5-1.57 3.5-3.5-1.57-3.5-3.5-3.5z"/><circle cx="21" cy="22.5" r="1"/><path d="m9 20h6v1.5h-6z"/><path d="m9 23.5h6v1.5h-6z"/><path d="m17.125 1.35h1.5v14.801h-1.5z" transform="matrix(.27 -.963 .963 .27 4.62 23.595)"/></svg>