<svg id="_x31__x2C_5" height="512" viewBox="0 0 36 36" width="512" xmlns="http://www.w3.org/2000/svg"><path d="m27.623 31.833c-6.917 0-11.667 3.583-15 3.583s-10.333-1.916-10.333-17.249 9.417-17.584 13.083-17.584c17.167 0 24.5 31.25 12.25 31.25z" fill="#efefef"/><g fill="#a4afc1"><path d="m31.369 2.705h2v1h-2z" transform="matrix(.707 -.707 .707 .707 7.215 23.827)"/><path d="m32.222 6.094h1v2h-1z" transform="matrix(.707 -.707 .707 .707 4.568 25.216)"/><path d="m28.156 2.028h1v2h-1z" transform="matrix(.707 -.707 .707 .707 6.252 21.15)"/></g><path d="m27.25 29.25h-18.5c-1.105 0-2-.895-2-2v-18.5c0-1.105.895-2 2-2h18.5c1.105 0 2 .895 2 2v18.5c0 1.105-.895 2-2 2z" fill="#f3f3f1"/><path d="m8.75 27.25v-18.5c0-1.105.895-2 2-2h-2c-1.105 0-2 .895-2 2v18.5c0 1.105.895 2 2 2h2c-1.105 0-2-.895-2-2z" fill="#d5dbe1"/><path d="m20.5 26h-1.5v-4.5c0-.692.458-1.5 1.75-1.5h2.25v1.5h-2.25c-.184 0-.276.033-.296.045z"/><path d="m19 22.5h4v1.5h-4z"/><path d="m24.5 20h1.5v6h-1.5z"/><path d="m16 20h1.5v6h-1.5z"/><path d="m13.75 26c-.231 0-.456-.107-.6-.3l-.9-1.2-.9 1.2c-.193.259-.53.363-.837.261-.306-.102-.513-.388-.513-.711v-5.25h1.5v3l.15-.2c.283-.377.917-.377 1.2 0l.15.2v-3h1.5v5.25c0 .323-.207.609-.513.711-.078.026-.158.039-.237.039z"/><path d="m18 18c-.551 0-1-.449-1-1s.449-1 1-1 1 .449 1 1-.449 1-1 1z"/><path d="m19.744 15.802-.46-.592c-.713-.916-1.854-.916-2.566 0l-.46.592-1.184-.921.46-.592c.636-.819 1.536-1.289 2.466-1.289s1.83.47 2.467 1.29l.46.592z"/><path d="m21.617 13.802-.459-.592c-.856-1.103-1.978-1.71-3.158-1.71s-2.302.607-3.158 1.71l-.459.592-1.185-.919.46-.593c1.129-1.455 2.712-2.29 4.342-2.29s3.213.835 4.342 2.29l.46.593z"/><path d="m27.25 30h-18.5c-1.517 0-2.75-1.233-2.75-2.75v-18.5c0-1.517 1.233-2.75 2.75-2.75h18.5c1.517 0 2.75 1.233 2.75 2.75v18.5c0 1.517-1.233 2.75-2.75 2.75zm-18.5-22.5c-.689 0-1.25.561-1.25 1.25v18.5c0 .689.561 1.25 1.25 1.25h18.5c.689 0 1.25-.561 1.25-1.25v-18.5c0-.689-.561-1.25-1.25-1.25z"/></svg>