<svg height="512" viewBox="0 0 36 36" width="512" xmlns="http://www.w3.org/2000/svg"><path d="m32.6436 12.7836c-2.6147 6.5368 2.7828 12.2565-.8171 16.342-5.3882 8.9881-9.4737-.8171-13.5592 1.6342-3.5726 2.1436-11.1078.3892-15.1933-8.5989-4.0855-8.9881 4.57108-14.7078 7.83944-13.8907 3.2684.8171 2.9369-.81711 8.6566-4.08551s16.342.42792 13.0736 8.59888z" fill="#efefef"/><g fill="#90a4ad" fill-rule="evenodd"><path d="m5.91857 6.89235-1.73205-1 .5-.86603 1.73205 1z"/><g><path d="m7.78388 5.66052 1-1.73205.86602.5-1 1.73205z"/><path d="m8.25 9c0-1.51878 1.23122-2.75 2.75-2.75 1.5188 0 2.75 1.23122 2.75 2.75 0 1.5188-1.2312 2.75-2.75 2.75-1.51878 0-2.75-1.2312-2.75-2.75zm-2 6c0-1.5188 1.23122-2.75 2.75-2.75h4c1.5188 0 2.75 1.2312 2.75 2.75v5.4706c0 .9665-.7835 1.75-1.75 1.75h-.25v5.7794c0 .9665-.7835 1.75-1.75 1.75h-2c-.9665 0-1.75-.7835-1.75-1.75v-5.7794h-.25c-.9665 0-1.75-.7835-1.75-1.75z" fill="#f3f3f1"/><path d="m11 6.25c-1.51878 0-2.75 1.23122-2.75 2.75 0 1.5188 1.23122 2.75 2.75 2.75.3528 0 .6901-.0664 1-.1875-1.0243-.4-1.75-1.3965-1.75-2.5625 0-1.16599.7257-2.16249 1.75-2.56253-.3099-.12104-.6472-.18747-1-.18747zm-2 6c-1.51878 0-2.75 1.2312-2.75 2.75v5.4706c0 .9665.7835 1.75 1.75 1.75h.25v5.7794c0 .9665.7835 1.75 1.75 1.75h2c-.9665 0-1.75-.7835-1.75-1.75v-5.7794h-.25c-.9665 0-1.75-.7835-1.75-1.75v-5.4706c0-1.5188 1.23122-2.75 2.75-2.75z" fill="#d6dbe1"/><path d="m22 7.25c-.9665 0-1.75.7835-1.75 1.75v8c0 .4142.3358.75.75.75h3c.4142 0 .75-.3358.75-.75v-8c0-.9665-.7835-1.75-1.75-1.75z" fill="#2edf84"/><path d="m20.25 9c0-.9665.7835-1.75 1.75-1.75h1c.1737 0 .3416.02532.5.07247-.7229.21514-1.25.88477-1.25 1.67753v8c0 .4142.3358.75.75.75h-2c-.4142 0-.75-.3358-.75-.75z" fill="#00b872"/><path d="m25 10.25c-.9665 0-1.75.7835-1.75 1.75v5c0 .4142.3358.75.75.75h3c.4142 0 .75-.3358.75-.75v-5c0-.9665-.7835-1.75-1.75-1.75z" fill="#2edf84"/><path d="m23.25 12c0-.9665.7835-1.75 1.75-1.75h1c.1737 0 .3416.0253.5.0725-.7229.2151-1.25.8847-1.25 1.6775v5c0 .4142.3358.75.75.75h-2c-.4142 0-.75-.3358-.75-.75z" fill="#00b872"/><path d="m18 6.25c.4142 0 .75.33579.75.75v9.25h10.25c.4142 0 .75.3358.75.75s-.3358.75-.75.75h-11c-.4142 0-.75-.3358-.75-.75v-10c0-.41421.3358-.75.75-.75z" fill="#f3f3f1"/><g fill="#000"><path d="m11 7.75c-.6904 0-1.25.55964-1.25 1.25s.5596 1.25 1.25 1.25 1.25-.55964 1.25-1.25-.5596-1.25-1.25-1.25zm-2.75 1.25c0-1.51878 1.23122-2.75 2.75-2.75 1.5188 0 2.75 1.23122 2.75 2.75 0 1.5188-1.2312 2.75-2.75 2.75-1.51878 0-2.75-1.2312-2.75-2.75z"/><path d="m9 13.75c-.69036 0-1.25.5596-1.25 1.25v5.4706c0 .1381.11193.25.25.25h1c.41421 0 .75.3358.75.75v6.5294c0 .1381.11193.25.25.25h2c.1381 0 .25-.1119.25-.25v-6.5294c0-.4142.3358-.75.75-.75h1c.1381 0 .25-.1119.25-.25v-5.4706c0-.6904-.5596-1.25-1.25-1.25zm-2.75 1.25c0-1.5188 1.23122-2.75 2.75-2.75h4c1.5188 0 2.75 1.2312 2.75 2.75v5.4706c0 .9665-.7835 1.75-1.75 1.75h-.25v5.7794c0 .9665-.7835 1.75-1.75 1.75h-2c-.9665 0-1.75-.7835-1.75-1.75v-5.7794h-.25c-.9665 0-1.75-.7835-1.75-1.75z"/><path d="m18.75 6.25v10h11v1.5h-11.75c-.4142 0-.75-.3358-.75-.75v-10.75z"/><path d="m20.25 9c0-.9665.7835-1.75 1.75-1.75h1c.9665 0 1.75.7835 1.75 1.75v8c0 .4142-.3358.75-.75.75h-3c-.4142 0-.75-.3358-.75-.75zm1.75-.25c-.1381 0-.25.11193-.25.25v7.25h1.5v-7.25c0-.13807-.1119-.25-.25-.25z"/><path d="m23.25 12c0-.9665.7835-1.75 1.75-1.75h1c.9665 0 1.75.7835 1.75 1.75v5c0 .4142-.3358.75-.75.75h-3c-.4142 0-.75-.3358-.75-.75zm1.75-.25c-.1381 0-.25.1119-.25.25v4.25h1.5v-4.25c0-.1381-.1119-.25-.25-.25z"/></g></g></g></svg>