<svg height="512" viewBox="0 0 36 36" width="512" xmlns="http://www.w3.org/2000/svg"><path d="m11.5584 31.0064c4.4194 4.4194 12.9997 3.3276 17.9537.6906 7.0802-3.7689 2.0716-20.7158-3.4526-25.5495-5.5242-4.83369-19.3348-2.76211-22.0969.69052-2.76211 3.45261.69053 8.28631 6.90529 11.739 6.2147 3.4526-4.83371 6.9052.6905 12.4294z" fill="#efefef"/><g fill-rule="evenodd"><path d="m4.5 19.151c.27614 0 .5-.2239.5-.5s-.22386-.5-.5-.5-.5.2239-.5.5.22386.5.5.5zm0 1c.82843 0 1.5-.6716 1.5-1.5s-.67157-1.5-1.5-1.5-1.5.6716-1.5 1.5.67157 1.5 1.5 1.5z" fill="#a4afc1"/><g fill="#2edf84"><path d="m23 6.75c-3.7279 0-6.75 3.02208-6.75 6.75 0 3.7279 3.0221 6.75 6.75 6.75s6.75-3.0221 6.75-6.75c0-3.72792-3.0221-6.75-6.75-6.75z"/><path d="m16.25 13.5c0-3.72792 3.0221-6.75 6.75-6.75.3398 0 .6737.02511 1 .07356-3.2537.4832-5.75 3.28834-5.75 6.67644s2.4963 6.1932 5.75 6.6764c-.3263.0485-.6602.0736-1 .0736-3.7279 0-6.75-3.0221-6.75-6.75z" fill="#00b872"/><path d="m8.25 9c0-1.51878 1.23122-2.75 2.75-2.75 1.5188 0 2.75 1.23122 2.75 2.75 0 1.5188-1.2312 2.75-2.75 2.75-1.51878 0-2.75-1.2312-2.75-2.75zm-2 6c0-1.5188 1.23122-2.75 2.75-2.75h4c1.5188 0 2.75 1.2312 2.75 2.75v5.4706c0 .9665-.7835 1.75-1.75 1.75h-.25v5.7794c0 .9665-.7835 1.75-1.75 1.75h-2c-.9665 0-1.75-.7835-1.75-1.75v-5.7794h-.25c-.9665 0-1.75-.7835-1.75-1.75z" fill="#f3f3f1"/><path d="m22.55 17.1c.2667.2.6334.2.9 0l2-1.5c.3314-.2485.3986-.7186.15-1.05-.2485-.3314-.7186-.3985-1.05-.15l-.8.6v-4.5c0-.4142-.3357-.75-.75-.75-.4142 0-.75.3358-.75.75v4.5l-.8-.6c-.3313-.2485-.8014-.1814-1.05.15-.2485.3314-.1813.8015.15 1.05z" fill="#f3f3f1"/><path d="m11 6.25c-1.51878 0-2.75 1.23122-2.75 2.75 0 1.5188 1.23122 2.75 2.75 2.75.3528 0 .6901-.0664 1-.1875-1.0243-.4-1.75-1.3965-1.75-2.5625 0-1.16599.7257-2.16249 1.75-2.56253-.3099-.12104-.6472-.18747-1-.18747zm-2 6c-1.51878 0-2.75 1.2312-2.75 2.75v5.4706c0 .9665.7835 1.75 1.75 1.75h.25v5.7794c0 .9665.7835 1.75 1.75 1.75h2c-.9665 0-1.75-.7835-1.75-1.75v-5.7794h-.25c-.9665 0-1.75-.7835-1.75-1.75v-5.4706c0-1.5188 1.23122-2.75 2.75-2.75z" fill="#d6dbe1"/><g fill="#000"><path d="m11 7.75c-.6904 0-1.25.55964-1.25 1.25s.5596 1.25 1.25 1.25 1.25-.55964 1.25-1.25-.5596-1.25-1.25-1.25zm-2.75 1.25c0-1.51878 1.23122-2.75 2.75-2.75 1.5188 0 2.75 1.23122 2.75 2.75 0 1.5188-1.2312 2.75-2.75 2.75-1.51878 0-2.75-1.2312-2.75-2.75z"/><path d="m9 13.75c-.69036 0-1.25.5596-1.25 1.25v5.4706c0 .1381.11193.25.25.25h1c.41421 0 .75.3358.75.75v6.5294c0 .1381.11193.25.25.25h2c.1381 0 .25-.1119.25-.25v-6.5294c0-.4142.3358-.75.75-.75h1c.1381 0 .25-.1119.25-.25v-5.4706c0-.6904-.5596-1.25-1.25-1.25zm-2.75 1.25c0-1.5188 1.23122-2.75 2.75-2.75h4c1.5188 0 2.75 1.2312 2.75 2.75v5.4706c0 .9665-.7835 1.75-1.75 1.75h-.25v5.7794c0 .9665-.7835 1.75-1.75 1.75h-2c-.9665 0-1.75-.7835-1.75-1.75v-5.7794h-.25c-.9665 0-1.75-.7835-1.75-1.75z"/><path d="m23 8.25c-2.8995 0-5.25 2.3505-5.25 5.25s2.3505 5.25 5.25 5.25 5.25-2.3505 5.25-5.25-2.3505-5.25-5.25-5.25zm-6.75 5.25c0-3.72792 3.0221-6.75 6.75-6.75s6.75 3.02208 6.75 6.75c0 3.7279-3.0221 6.75-6.75 6.75s-6.75-3.0221-6.75-6.75z"/><path d="m22.55 17.1c.2666.2.6333.2.9 0l2.6-1.95-.9-1.2-1.4 1.05v-5.25h-1.5v5.25l-1.4-1.05-.9 1.2z"/></g></g></g></svg>