<svg height="512" viewBox="0 0 36 36" width="512" xmlns="http://www.w3.org/2000/svg"><path d="m3.33148 5.1412c1.86291-5.58872 16.5591-2.32865 22.5101-.77623 10.0908 2.32863 4.6573 11.6431 6.2097 14.748 1.5524 3.1048 2.3286 6.9859-6.9859 12.4194-7.1839 4.1906-20.9577-.7762-17.8529-5.4335 4.65726-6.9859-6.20969-13.9718-3.88106-20.9577z" fill="#efefef"/><g fill-rule="evenodd"><path d="m4.5 25.462c.27614 0 .5-.2239.5-.5 0-.2762-.22386-.5-.5-.5s-.5.2238-.5.5c0 .2761.22386.5.5.5zm0 1c.82843 0 1.5-.6716 1.5-1.5 0-.8285-.67157-1.5-1.5-1.5s-1.5.6715-1.5 1.5c0 .8284.67157 1.5 1.5 1.5z" fill="#a4afc1"/><g fill="#f3f3f1"><path d="m8.25 9c0-1.51878 1.23122-2.75 2.75-2.75 1.5188 0 2.75 1.23122 2.75 2.75 0 1.5188-1.2312 2.75-2.75 2.75-1.51878 0-2.75-1.2312-2.75-2.75zm-2 6c0-1.5188 1.23122-2.75 2.75-2.75h4c1.5188 0 2.75 1.2312 2.75 2.75v5.4706c0 .9665-.7835 1.75-1.75 1.75h-.25v5.7794c0 .9665-.7835 1.75-1.75 1.75h-2c-.9665 0-1.75-.7835-1.75-1.75v-5.7794h-.25c-.9665 0-1.75-.7835-1.75-1.75z"/><path d="m25.8437 10.4044c-.1438-.1438-.3899-.0649-.4234.1357l-.361 2.1665c-.2341 1.404-1.9572 1.9562-2.9637.9497l-.9188-.9189c-.0977-.0976-.2559-.0976-.3536 0l-2.2929 2.2929c-.2929.2929-.7677.2929-1.0606 0s-.2929-.7677 0-1.0606l2.2929-2.2929c.6834-.6834 1.7914-.6834 2.4748 0l.9189.9188c.1438.1438.3899.0649.4234-.1356l.361-2.1665c.2341-1.40408 1.9572-1.95628 2.9637-.94978l1.6259 1.62598c.2929.2929.2929.7677 0 1.0606s-.7677.2929-1.0606 0z" fill="#2edf84"/><path d="m18 6.25c.4142 0 .75.33579.75.75v9.25h10.25c.4142 0 .75.3358.75.75s-.3358.75-.75.75h-11c-.4142 0-.75-.3358-.75-.75v-10c0-.41421.3358-.75.75-.75z"/><path d="m11 6.25c-1.51878 0-2.75 1.23122-2.75 2.75 0 1.5188 1.23122 2.75 2.75 2.75.3528 0 .6901-.0664 1-.1875-1.0243-.4-1.75-1.3965-1.75-2.5625 0-1.16599.7257-2.16249 1.75-2.56253-.3099-.12104-.6472-.18747-1-.18747zm-2 6c-1.51878 0-2.75 1.2312-2.75 2.75v5.4706c0 .9665.7835 1.75 1.75 1.75h.25v5.7794c0 .9665.7835 1.75 1.75 1.75h2c-.9665 0-1.75-.7835-1.75-1.75v-5.7794h-.25c-.9665 0-1.75-.7835-1.75-1.75v-5.4706c0-1.5188 1.23122-2.75 2.75-2.75z" fill="#d6dbe1"/><g fill="#000"><path d="m11 7.75c-.6904 0-1.25.55964-1.25 1.25s.5596 1.25 1.25 1.25 1.25-.55964 1.25-1.25-.5596-1.25-1.25-1.25zm-2.75 1.25c0-1.51878 1.23122-2.75 2.75-2.75 1.5188 0 2.75 1.23122 2.75 2.75 0 1.5188-1.2312 2.75-2.75 2.75-1.51878 0-2.75-1.2312-2.75-2.75z"/><path d="m9 13.75c-.69036 0-1.25.5596-1.25 1.25v5.4706c0 .1381.11193.25.25.25h1c.41421 0 .75.3358.75.75v6.5294c0 .1381.11193.25.25.25h2c.1381 0 .25-.1119.25-.25v-6.5294c0-.4142.3358-.75.75-.75h1c.1381 0 .25-.1119.25-.25v-5.4706c0-.6904-.5596-1.25-1.25-1.25zm-2.75 1.25c0-1.5188 1.23122-2.75 2.75-2.75h4c1.5188 0 2.75 1.2312 2.75 2.75v5.4706c0 .9665-.7835 1.75-1.75 1.75h-.25v5.7794c0 .9665-.7835 1.75-1.75 1.75h-2c-.9665 0-1.75-.7835-1.75-1.75v-5.7794h-.25c-.9665 0-1.75-.7835-1.75-1.75z"/><path d="m18.75 6.25v10h11v1.5h-11.75c-.4142 0-.75-.3358-.75-.75v-10.75z"/><path d="m25.8438 10.4044c-.1438-.1438-.39-.0649-.4234.1357l-.3611 2.1665c-.234 1.404-1.9571 1.9562-2.9636.9497l-.9189-.9189c-.0976-.0976-.2559-.0976-.3535 0l-2.2929 2.2929-1.0607-1.0606 2.2929-2.2929c.6834-.6834 1.7915-.6834 2.4749 0l.9188.9188c.1438.1438.39.0649.4234-.1356l.3611-2.1665c.234-1.40408 1.9571-1.95628 2.9636-.94978l2.1563 2.15628-1.0606 1.0607z"/></g></g></g></svg>