<svg height="512" viewBox="0 0 36 36" width="512" xmlns="http://www.w3.org/2000/svg"><path d="m18.9566 8.05743c-2.837-4.18957-8.96581-4.48294-11.2073-3.73579-10.2036 3.40117-1.58367 21.9119 3.73577 25.4033 5.3194 3.4913 14.3102.0759 19.0386-4.5791 4.7284-4.6551 1.8817-11.1112-1.8541-11.8583-2.8978-.5796-6.8759-1.0405-9.713-5.23007z" fill="#efefef"/><path d="m29.5911 9.46021c.2761 0 .5-.22386.5-.5 0-.27615-.2239-.5-.5-.5-.2762 0-.5.22385-.5.5 0 .27614.2238.5.5.5zm0 .99999c.8284 0 1.5-.67157 1.5-1.49999 0-.82843-.6716-1.5-1.5-1.5-.8285 0-1.5.67157-1.5 1.5 0 .82842.6715 1.49999 1.5 1.49999z" fill="#a4afc1" fill-rule="evenodd"/><path d="m8.25 8.99998c0-1.51878 1.23122-2.75 2.75-2.75 1.5188 0 2.75 1.23122 2.75 2.75 0 1.51882-1.2312 2.75002-2.75 2.75002-1.51878 0-2.75-1.2312-2.75-2.75002zm-2 6.00002c0-1.5188 1.23122-2.75 2.75-2.75h4c1.5188 0 2.75 1.2312 2.75 2.75v5.4706c0 .9665-.7835 1.75-1.75 1.75h-.25v5.7794c0 .9665-.7835 1.75-1.75 1.75h-2c-.9665 0-1.75-.7835-1.75-1.75v-5.7794h-.25c-.9665 0-1.75-.7835-1.75-1.75z" fill="#f3f3f1" fill-rule="evenodd"/><path d="m24.7562 8.58526c1.704 1.70404 1.704 4.46674 0 6.17074-1.7041 1.704-4.4668 1.704-6.1708 0s-1.704-4.4667 0-6.17074c1.704-1.70402 4.4667-1.70402 6.1708 0z" fill="#2edf84"/><g fill="#00b872" fill-rule="evenodd"><path d="m22.4208 7.37182c-.8554.14846-1.6749.55294-2.3354 1.21344-1.704 1.70404-1.704 4.46674 0 6.17074.6605.6605 1.48 1.065 2.3354 1.2135-1.3513.2345-2.7919-.17-3.8354-1.2135-1.704-1.704-1.704-4.4667 0-6.17074 1.0435-1.04352 2.4841-1.448 3.8354-1.21344z"/><path d="m19.1158 9.11558c-1.4111 1.41112-1.4111 3.69902 0 5.11012s3.699 1.4111 5.1101 0c1.4112-1.4111 1.4112-3.699 0-5.11012-1.4111-1.41111-3.699-1.41111-5.1101 0zm-1.0606 6.17082c-1.9969-1.997-1.9969-5.2346 0-7.23148 1.9969-1.9969 5.2345-1.9969 7.2314 0 1.9969 1.99688 1.9969 5.23448 0 7.23148-1.9969 1.9969-5.2345 1.9969-7.2314 0z" fill="#2edf84"/><path d="m24.2259 14.226c.2929-.2929.7678-.2929 1.0607 0l3.7025 3.7025c.2929.2929.2929.7677 0 1.0606s-.7678.2929-1.0607 0l-3.7025-3.7024c-.2929-.2929-.2929-.7678 0-1.0607z" fill="#2edf84"/><path d="m11 6.25c-1.51878 0-2.75 1.23122-2.75 2.75 0 1.5188 1.23122 2.75 2.75 2.75.3528 0 .6901-.0664 1-.1875-1.0243-.4-1.75-1.3965-1.75-2.5625 0-1.16599.7257-2.16249 1.75-2.56253-.3099-.12104-.6472-.18747-1-.18747zm-2 6c-1.51878 0-2.75 1.2312-2.75 2.75v5.4706c0 .9665.7835 1.75 1.75 1.75h.25v5.7794c0 .9665.7835 1.75 1.75 1.75h2c-.9665 0-1.75-.7835-1.75-1.75v-5.7794h-.25c-.9665 0-1.75-.7835-1.75-1.75v-5.4706c0-1.5188 1.23122-2.75 2.75-2.75z" fill="#d6dbe1"/><g fill="#000"><path d="m11 7.75c-.6904 0-1.25.55964-1.25 1.25s.5596 1.25 1.25 1.25 1.25-.55964 1.25-1.25-.5596-1.25-1.25-1.25zm-2.75 1.25c0-1.51878 1.23122-2.75 2.75-2.75 1.5188 0 2.75 1.23122 2.75 2.75 0 1.5188-1.2312 2.75-2.75 2.75-1.51878 0-2.75-1.2312-2.75-2.75z"/><path d="m9 13.75c-.69036 0-1.25.5596-1.25 1.25v5.4706c0 .1381.11193.25.25.25h1c.41421 0 .75.3358.75.75v6.5294c0 .1381.11193.25.25.25h2c.1381 0 .25-.1119.25-.25v-6.5294c0-.4142.3358-.75.75-.75h1c.1381 0 .25-.1119.25-.25v-5.4706c0-.6904-.5596-1.25-1.25-1.25zm-2.75 1.25c0-1.5188 1.23122-2.75 2.75-2.75h4c1.5188 0 2.75 1.2312 2.75 2.75v5.4706c0 .9665-.7835 1.75-1.75 1.75h-.25v5.7794c0 .9665-.7835 1.75-1.75 1.75h-2c-.9665 0-1.75-.7835-1.75-1.75v-5.7794h-.25c-.9665 0-1.75-.7835-1.75-1.75z"/><path d="m19.1158 9.1156c-1.4111 1.4111-1.4111 3.699 0 5.1101s3.699 1.4111 5.1101 0c1.4112-1.4111 1.4112-3.699 0-5.1101-1.4111-1.41112-3.699-1.41112-5.1101 0zm-1.0606 6.1708c-1.9969-1.9969-1.9969-5.2346 0-7.23146 1.9969-1.9969 5.2345-1.9969 7.2314 0 1.9969 1.99686 1.9969 5.23456 0 7.23146s-5.2345 1.9969-7.2314 0z"/><path d="m24.7561 13.6957 4.7631 4.7631-1.0606 1.0607-4.7632-4.7632z"/></g></g></svg>