<svg height="512" viewBox="0 0 36 36" width="512" xmlns="http://www.w3.org/2000/svg" xmlns:xlink="http://www.w3.org/1999/xlink"><mask id="a"><path d="m0 0h36v36h-36z" fill="#fff"/></mask><g mask="url(#a)"><path d="m9.76343 11.7802c-7.98257 1.2803-10.7481 8.6339-9.46161 16.7816 1.51365 9.5866 13.2389.2164 18.9589 3.0764 6.9071 3.4536 9.4183-2.8449 12.0875-5.1804 6.9071-6.0437 4.317-18.1312-4.317-22.4481-8.6339-4.31696-9.533 6.52993-17.2678 7.77053z" fill="#efefef"/><g fill-rule="evenodd"><path d="m12.7324 5c.2762 0 .5-.22386.5-.5s-.2238-.5-.5-.5c-.2761 0-.5.22386-.5.5s.2239.5.5.5zm0 1c.8284 0 1.5-.67157 1.5-1.5s-.6716-1.5-1.5-1.5-1.5.67157-1.5 1.5.6716 1.5 1.5 1.5z" fill="#a4afc1"/><path d="m15.25 9c0-1.51878 1.2312-2.75 2.75-2.75s2.75 1.23122 2.75 2.75c0 1.5188-1.2312 2.75-2.75 2.75s-2.75-1.2312-2.75-2.75zm-2 6c0-1.5188 1.2312-2.75 2.75-2.75h4c1.5188 0 2.75 1.2312 2.75 2.75v5.4706c0 .9665-.7835 1.75-1.75 1.75h-.25v5.7794c0 .9665-.7835 1.75-1.75 1.75h-2c-.9665 0-1.75-.7835-1.75-1.75v-5.7794h-.25c-.9665 0-1.75-.7835-1.75-1.75z" fill="#f3f3f1"/><path d="m11.7183 19.7843c.1191.3967-.1059.8149-.5026.934-1.1744.3527-2.08231.7812-2.67991 1.2324-.60847.4594-.78579.8525-.78579 1.135 0 .3207.23333.7838 1.03274 1.3085.45799.3006 1.05028.5847 1.75946.8382l-.71022-1.3914c-.1883-.369-.04188-.8207.32702-1.009.369-.1883.8207-.0419 1.009.327l1.5 2.9389c.1873.3668.0436.8161-.3218 1.0062l-2.99998 1.5612c-.36744.1912-.82031.0484-1.01153-.3191-.19121-.3674-.04835-.8203.31909-1.0115l1.34922-.7021c-.78529-.2831-1.47683-.6125-2.0434-.9844-.94804-.6223-1.7096-1.479-1.7096-2.5625 0-.9596.60118-1.7426 1.38195-2.3321.79165-.5977 1.88372-1.0909 3.15235-1.4719.3967-.1191.8149.1059.934.5026zm12.5634 0c.1191-.3967.5373-.6217.934-.5026 1.2686.381 2.3607.8742 3.1523 1.4719.7808.5895 1.382 1.3725 1.382 2.3321 0 1.0835-.7616 1.9402-1.7096 2.5625-.9731.6388-2.3149 1.1523-3.8674 1.5204-.403.0955-.8072-.1537-.9028-.5568-.0955-.403.1537-.8072.5568-.9028 1.4577-.3456 2.6159-.8065 3.3903-1.3148.7994-.5247 1.0327-.9878 1.0327-1.3085 0-.2825-.1773-.6756-.7858-1.135-.5976-.4512-1.5055-.8797-2.6799-1.2324-.3967-.1191-.6217-.5373-.5026-.934z" fill="#2edf84"/><path d="m18 6.25c-1.5188 0-2.75 1.23122-2.75 2.75 0 1.5188 1.2312 2.75 2.75 2.75.3528 0 .6901-.0664 1-.1875-1.0243-.4-1.75-1.3965-1.75-2.5625 0-1.16599.7257-2.16249 1.75-2.56253-.3099-.12104-.6472-.18747-1-.18747zm-2 6c-1.5188 0-2.75 1.2312-2.75 2.75v5.4706c0 .9665.7835 1.75 1.75 1.75h.25v5.7794c0 .9665.7835 1.75 1.75 1.75h2c-.9665 0-1.75-.7835-1.75-1.75v-5.7794h-.25c-.9665 0-1.75-.7835-1.75-1.75v-5.4706c0-1.5188 1.2312-2.75 2.75-2.75z" fill="#d6dbe1"/><path d="m18 7.75c-.6904 0-1.25.55964-1.25 1.25s.5596 1.25 1.25 1.25 1.25-.55964 1.25-1.25-.5596-1.25-1.25-1.25zm-2.75 1.25c0-1.51878 1.2312-2.75 2.75-2.75s2.75 1.23122 2.75 2.75c0 1.5188-1.2312 2.75-2.75 2.75s-2.75-1.2312-2.75-2.75z"/><path d="m16 13.75c-.6904 0-1.25.5596-1.25 1.25v5.4706c0 .1381.1119.25.25.25h1c.4142 0 .75.3358.75.75v6.5294c0 .1381.1119.25.25.25h2c.1381 0 .25-.1119.25-.25v-6.5294c0-.4142.3358-.75.75-.75h1c.1381 0 .25-.1119.25-.25v-5.4706c0-.6904-.5596-1.25-1.25-1.25zm-2.75 1.25c0-1.5188 1.2312-2.75 2.75-2.75h4c1.5188 0 2.75 1.2312 2.75 2.75v5.4706c0 .9665-.7835 1.75-1.75 1.75h-.25v5.7794c0 .9665-.7835 1.75-1.75 1.75h-2c-.9665 0-1.75-.7835-1.75-1.75v-5.7794h-.25c-.9665 0-1.75-.7835-1.75-1.75z"/><path d="m11.934 20.5026-.7183.2157c-1.1744.3527-2.08231.7812-2.67991 1.2324-.60847.4594-.78579.8525-.78579 1.135 0 .3207.23333.7838 1.03274 1.3085.45799.3007 1.05028.5847 1.75946.8382l-1.05118-2.0595 1.33608-.6819 1.8409 3.6069c.1873.3668.0436.8161-.3218 1.0062l-3.66528 1.9074-.69245-1.3306 2.01453-1.0483c-.78529-.2831-1.47683-.6125-2.0434-.9844-.94804-.6223-1.7096-1.479-1.7096-2.5625 0-.9596.60118-1.7426 1.38195-2.3321.79165-.5977 1.88372-1.0909 3.15235-1.4719l.7183-.2157zm12.5634-1.4366.7183.2157c1.2686.381 2.3607.8742 3.1523 1.4719.7808.5895 1.382 1.3725 1.382 2.3321 0 1.0835-.7616 1.9402-1.7096 2.5625-.9731.6388-2.3149 1.1523-3.8674 1.5204l-.7297.173-.3461-1.4595.7298-.173c1.4577-.3457 2.6159-.8066 3.3903-1.3149.7994-.5247 1.0327-.9878 1.0327-1.3085 0-.2825-.1773-.6756-.7858-1.135-.5976-.4512-1.5055-.8797-2.6799-1.2324l-.7183-.2157z"/></g></g></svg>