<svg height="512" viewBox="0 0 36 36" width="512" xmlns="http://www.w3.org/2000/svg" xmlns:xlink="http://www.w3.org/1999/xlink"><mask id="a"><path d="m0 0h36v36h-36z" fill="#fff"/></mask><g mask="url(#a)"><path d="m32.6436 12.7836c-2.6147 6.5368 2.7828 12.2565-.8171 16.342-5.3882 8.9881-9.4737-.8171-13.5592 1.6342-3.5726 2.1436-11.1078.3892-15.1933-8.5989-4.0855-8.9881 4.57108-14.7078 7.83944-13.8907 3.2684.8171 2.9369-.81711 8.6566-4.08551s16.342.42792 13.0736 8.59888z" fill="#efefef"/><path d="m5.91857 6.89235-1.73205-1 .5-.86603 1.73205 1z" fill="#90a4ad" fill-rule="evenodd"/><path d="m7.78388 5.66052 1-1.73205.86602.5-1 1.73205z" fill="#90a4ad" fill-rule="evenodd"/><path d="m23.4085 13.8565c-.6662.3201-1.4658.0396-1.7859-.6267-.3201-.6662-.0396-1.4658.6267-1.7859.6662-.3201 1.4658-.0395 1.7859.6267s.0395 1.4658-.6267 1.7859z" fill="#2edf84" fill-rule="evenodd"/><path d="m8.25 9c0-1.51878 1.23122-2.75 2.75-2.75 1.5188 0 2.75 1.23122 2.75 2.75 0 1.5188-1.2312 2.75-2.75 2.75-1.51878 0-2.75-1.2312-2.75-2.75zm-2 6c0-1.5188 1.23122-2.75 2.75-2.75h4c1.5188 0 2.75 1.2312 2.75 2.75v5.4706c0 .9665-.7835 1.75-1.75 1.75h-.25v5.7794c0 .9665-.7835 1.75-1.75 1.75h-2c-.9665 0-1.75-.7835-1.75-1.75v-5.7794h-.25c-.9665 0-1.75-.7835-1.75-1.75z" fill="#f3f3f1" fill-rule="evenodd"/><path d="m11 6.25c-1.51878 0-2.75 1.23122-2.75 2.75 0 1.5188 1.23122 2.75 2.75 2.75.3528 0 .6901-.0664 1-.1875-1.0243-.4-1.75-1.3965-1.75-2.5625 0-1.16599.7257-2.16249 1.75-2.56253-.3099-.12104-.6472-.18747-1-.18747zm-2 6c-1.51878 0-2.75 1.2312-2.75 2.75v5.4706c0 .9665.7835 1.75 1.75 1.75h.25v5.7794c0 .9665.7835 1.75 1.75 1.75h2c-.9665 0-1.75-.7835-1.75-1.75v-5.7794h-.25c-.9665 0-1.75-.7835-1.75-1.75v-5.4706c0-1.5188 1.23122-2.75 2.75-2.75z" fill="#d6dbe1" fill-rule="evenodd"/><path d="m11 7.74982c-.6904 0-1.25.55964-1.25 1.25 0 .69035.5596 1.24998 1.25 1.24998s1.25-.55963 1.25-1.24998c0-.69036-.5596-1.25-1.25-1.25zm-2.75 1.25c0-1.51879 1.23122-2.75 2.75-2.75 1.5188 0 2.75 1.23121 2.75 2.75 0 1.51878-1.2312 2.74998-2.75 2.74998-1.51878 0-2.75-1.2312-2.75-2.74998z" fill-rule="evenodd"/><path d="m9 13.7498c-.69036 0-1.25.5597-1.25 1.25v5.4706c0 .1381.11193.25.25.25h1c.19891 0 .38968.079.53033.2197.14065.1406.21967.3314.21967.5303v6.5294c0 .1381.11193.25.25.25h2c.1381 0 .25-.1119.25-.25v-6.5294c0-.1989.079-.3897.2197-.5303.1406-.1407.3314-.2197.5303-.2197h1c.1381 0 .25-.1119.25-.25v-5.4706c0-.6903-.5596-1.25-1.25-1.25zm-2.75 1.25c0-1.5188 1.23122-2.75 2.75-2.75h4c1.5188 0 2.75 1.2312 2.75 2.75v5.4706c0 .9665-.7835 1.75-1.75 1.75h-.25v5.7794c0 .9665-.7835 1.75-1.75 1.75h-2c-.9665 0-1.75-.7835-1.75-1.75v-5.7794h-.25c-.9665 0-1.75-.7835-1.75-1.75z" fill-rule="evenodd"/><path d="m26.587 10.8443c.9973 2.0756.1232 4.5667-1.9524 5.564s-4.5666.1232-5.5639-1.9524-.1232-4.56666 1.9524-5.56396c2.0755-.9973 4.5666-.12317 5.5639 1.95236z" fill="#2edf84"/><path d="m23.5809 16.7523c-1.2672-.2321-2.4096-1.0464-3.0102-2.2964-.9973-2.0756-.1232-4.56666 1.9524-5.56396.3427-.16469.6968-.27835 1.0536-.34399-.8368-.15329-1.7281-.05267-2.5536.34399-2.0756.9973-2.9497 3.48836-1.9524 5.56396.8326 1.7328 2.7063 2.6282 4.5102 2.2964z" fill="#00b872" fill-rule="evenodd"/><path d="m21.348 9.56795c-1.7022.81795-2.4191 2.86085-1.6012 4.56315.8179 1.7022 2.8608 2.4191 4.5631 1.6012 1.7022-.8179 2.4191-2.8609 1.6012-4.5631-.8179-1.70227-2.8609-2.41915-4.5631-1.60125zm-2.9533 5.21275c-1.1766-2.4489-.1453-5.38808 2.3036-6.56477 2.449-1.17669 5.3881-.14533 6.5648 2.30357 1.1767 2.449.1453 5.3881-2.3036 6.5648s-5.3881.1453-6.5648-2.3036z" fill-rule="evenodd"/><path d="m23.3592 12.3953c-.1407-.2929-.4922-.4162-.785-.2755-.2929.1407-.4163.4922-.2755.7851.1407.2929.4922.4162.7851.2755.2928-.1407.4162-.4922.2754-.7851z" fill="#f3f3f1"/><g fill-rule="evenodd"><path d="m22.7591 12.5044c.0804-.0387.177-.0048.2157.0757s.0048.177-.0757.2157-.1771.0048-.2158-.0757c-.0386-.0805-.0047-.1771.0758-.2157zm-1.1363.7253c.3201.6662 1.1197.9468 1.7859.6267s.9468-1.1197.6267-1.7859-1.1197-.9468-1.7859-.6267c-.6663.3201-.9468 1.1197-.6267 1.7859z"/><path d="m20.6972 6.48155 1.3268 2.76134-1.352.64963-1.3268-2.76134z"/><path d="m25.6835 6.78088-1.0144 2.89075-1.4154-.49667 1.0144-2.89075z"/><path d="m28.9973 10.5181-2.7613 1.3268-.6497-1.352 2.7614-1.32678z"/><path d="m26.3127 18.1687-1.3268-2.7613-1.352.6496 1.3268 2.7614z"/><path d="m21.39 19.0157 1.0144-2.8907-1.4154-.4967-1.0144 2.8908z"/><path d="m28.6979 15.5042-2.8907-1.0144.4966-1.4153 2.8908 1.0143z"/><path d="m16.4633 11.2111 2.8907 1.0144.4967-1.4154-2.8907-1.0144z"/><path d="m17.3103 16.1338 2.7613-1.3268-.6496-1.352-2.7614 1.3268z"/></g></g></svg>