<svg height="512" viewBox="0 0 36 36" width="512" xmlns="http://www.w3.org/2000/svg" xmlns:xlink="http://www.w3.org/1999/xlink"><mask id="a"><path d="m0 0h36v36h-36z" fill="#fff"/></mask><g mask="url(#a)"><path d="m9.76343 11.7802c-7.98257 1.2803-10.7481 8.6339-9.46161 16.7816 1.51365 9.5866 13.2389.2164 18.9589 3.0764 6.9071 3.4536 9.4183-2.8449 12.0875-5.1804 6.9071-6.0437 4.317-18.1312-4.317-22.4481-8.6339-4.31696-9.533 6.52993-17.2678 7.77053z" fill="#efefef"/><g fill-rule="evenodd"><path d="m12.7324 5c.2762 0 .5-.22386.5-.5s-.2238-.5-.5-.5c-.2761 0-.5.22386-.5.5s.2239.5.5.5zm0 1c.8284 0 1.5-.67157 1.5-1.5s-.6716-1.5-1.5-1.5-1.5.67157-1.5 1.5.6716 1.5 1.5 1.5z" fill="#a4afc1"/><path d="m20.3489 23.1279c-.2055.3596-.0805.8178.2791 1.0233l3.5 2c.3596.2055.8178.0805 1.0233-.2791s.0806-.8178-.2791-1.0233l-3.5-2c-.3596-.2055-.8178-.0805-1.0233.2791z" fill="#2edf84"/><path d="m20.3489 23.8721c-.2055-.3596-.0805-.8178.2791-1.0233l3.5-2c.3596-.2055.8178-.0805 1.0233.2791s.0806.8178-.2791 1.0233l-3.5 2c-.3596.2055-.8178.0805-1.0233-.2791z" fill="#2edf84"/><path d="m9.25 10c0-1.51878 1.2312-2.75 2.75-2.75s2.75 1.23122 2.75 2.75c0 1.5188-1.2312 2.75-2.75 2.75s-2.75-1.2312-2.75-2.75zm-2 5.75c0-1.4716 1.32842-2.5 2.75-2.5h4c1.4216 0 2.75 1.0283 2.75 2.5v4.7868c0 .9884-.8807 1.625-1.75 1.625h-.25v4.9632c0 .9884-.8807 1.625-1.75 1.625h-2c-.8693 0-1.75-.6366-1.75-1.625v-4.9632h-.25c-.86929 0-1.75-.6366-1.75-1.625z" fill="#f3f3f1"/><path d="m12 7.25c-1.5188 0-2.75 1.23122-2.75 2.75 0 1.5188 1.2312 2.75 2.75 2.75.3528 0 .6901-.0664 1-.1875-1.0243-.4-1.75-1.3965-1.75-2.5625 0-1.16599.7257-2.16249 1.75-2.56253-.3099-.12104-.6472-.18747-1-.18747zm-2 6c-1.42158 0-2.75 1.0284-2.75 2.5v4.7868c0 .9884.88071 1.625 1.75 1.625h.25v4.9632c0 .9884.8807 1.625 1.75 1.625h2c-.8693 0-1.75-.6366-1.75-1.625v-4.9632h-.25c-.8693 0-1.75-.6366-1.75-1.625v-4.7868c0-1.4716 1.3284-2.5 2.75-2.5z" fill="#d6dbe1"/><path d="m26 18.25c-1.2426 0-2.25 1.0074-2.25 2.25s1.0074 2.25 2.25 2.25 2.25-1.0074 2.25-2.25-1.0074-2.25-2.25-2.25zm-6.5 3c-1.2426 0-2.25 1.0074-2.25 2.25s1.0074 2.25 2.25 2.25 2.25-1.0074 2.25-2.25-1.0074-2.25-2.25-2.25zm4.25 5.25c0-1.2426 1.0074-2.25 2.25-2.25s2.25 1.0074 2.25 2.25-1.0074 2.25-2.25 2.25-2.25-1.0074-2.25-2.25z" fill="#2edf84"/><path d="m23.75 20.5c0-1.2426 1.0074-2.25 2.25-2.25.3592 0 .6988.0842 1 .2339-.7409.3682-1.25 1.1327-1.25 2.0161s.5091 1.6479 1.25 2.0161c-.3012.1497-.6408.2339-1 .2339-1.2426 0-2.25-1.0074-2.25-2.25zm-6.5 3c0-1.2426 1.0074-2.25 2.25-2.25.3592 0 .6988.0842 1 .2339-.7409.3682-1.25 1.1327-1.25 2.0161s.5091 1.6479 1.25 2.0161c-.3012.1497-.6408.2339-1 .2339-1.2426 0-2.25-1.0074-2.25-2.25zm8.75.75c-1.2426 0-2.25 1.0074-2.25 2.25s1.0074 2.25 2.25 2.25c.3592 0 .6988-.0842 1-.2339-.7409-.3682-1.25-1.1327-1.25-2.0161s.5091-1.6479 1.25-2.0161c-.3012-.1497-.6408-.2339-1-.2339z" fill="#00b872"/><path d="m12 8.75c-.6904 0-1.25.55964-1.25 1.25 0 .6904.5596 1.25 1.25 1.25s1.25-.5596 1.25-1.25c0-.69036-.5596-1.25-1.25-1.25zm-2.75 1.25c0-1.51878 1.2312-2.75 2.75-2.75s2.75 1.23122 2.75 2.75c0 1.5188-1.2312 2.75-2.75 2.75s-2.75-1.2312-2.75-2.75z"/><path d="m10 14.75c-.78756 0-1.25.5387-1.25 1v4.7868c0 .0031.00035.007.00383.0141.00396.0082.01332.023.03294.0402.04029.0352.11343.0707.21323.0707h1c.4142 0 .75.3358.75.75v5.7132c0 .0031.0004.007.0038.0142.004.0082.0133.0229.033.0401.0403.0352.1134.0707.2132.0707h2c.0998 0 .1729-.0355.2132-.0707.0197-.0172.029-.0319.033-.0401.0034-.0072.0038-.0111.0038-.0142v-5.7132c0-.4142.3358-.75.75-.75h1c.0998 0 .1729-.0355.2132-.0707.0197-.0172.029-.032.033-.0402.0034-.0071.0038-.011.0038-.0141v-4.7868c0-.4613-.4624-1-1.25-1zm-2.75 1c0-1.4716 1.32842-2.5 2.75-2.5h4c1.4216 0 2.75 1.0283 2.75 2.5v4.7868c0 .9884-.8807 1.625-1.75 1.625h-.25v4.9632c0 .9884-.8807 1.625-1.75 1.625h-2c-.8693 0-1.75-.6366-1.75-1.625v-4.9632h-.25c-.86929 0-1.75-.6366-1.75-1.625z"/><path d="m19.5 22.75c-.4142 0-.75.3358-.75.75s.3358.75.75.75.75-.3358.75-.75-.3358-.75-.75-.75zm-2.25.75c0-1.2426 1.0074-2.25 2.25-2.25s2.25 1.0074 2.25 2.25-1.0074 2.25-2.25 2.25-2.25-1.0074-2.25-2.25z"/><path d="m26 19.75c-.4142 0-.75.3358-.75.75s.3358.75.75.75.75-.3358.75-.75-.3358-.75-.75-.75zm-2.25.75c0-1.2426 1.0074-2.25 2.25-2.25s2.25 1.0074 2.25 2.25-1.0074 2.25-2.25 2.25-2.25-1.0074-2.25-2.25z"/><path d="m26 25.75c-.4142 0-.75.3358-.75.75s.3358.75.75.75.75-.3358.75-.75-.3358-.75-.75-.75zm-2.25.75c0-1.2426 1.0074-2.25 2.25-2.25s2.25 1.0074 2.25 2.25-1.0074 2.25-2.25 2.25-2.25-1.0074-2.25-2.25z"/><path d="m20.6278 24.1512 4.1512 2.3721.7442-1.3024-4.1512-2.3721z"/><path d="m20.6278 22.8488 4.1512-2.3721.7442 1.3024-4.1512 2.3721z"/></g></g></svg>