<svg height="512" viewBox="0 0 36 36" width="512" xmlns="http://www.w3.org/2000/svg"><path d="m18.0202 26.0201c-3.5009-5.2513-6.5642 0-11.6697-4.3761-5.10551-4.3762-4.37615-8.7523 2.18807-15.3165 6.56424-6.56422 9.48164 2.91744 18.2339 2.18808 8.7523-.72936 6.5907 14.2529 3.6468 18.9633-3.6468 5.8348-8.0229 5.1055-12.3991-1.4588z" fill="#efefef"/><g fill="#90a4ad" fill-rule="evenodd"><path d="m7.73096 27.4996v2h-1v-2z"/><g><path d="m5.73145 26.4999h-2v-1h2z"/><path d="m8.25 9c0-1.51878 1.23122-2.75 2.75-2.75 1.5188 0 2.75 1.23122 2.75 2.75 0 1.5188-1.2312 2.75-2.75 2.75-1.51878 0-2.75-1.2312-2.75-2.75zm-2 6c0-1.5188 1.23122-2.75 2.75-2.75h4c1.5188 0 2.75 1.2312 2.75 2.75v5.4706c0 .9665-.7835 1.75-1.75 1.75h-.25v5.7794c0 .9665-.7835 1.75-1.75 1.75h-2c-.9665 0-1.75-.7835-1.75-1.75v-5.7794h-.25c-.9665 0-1.75-.7835-1.75-1.75z" fill="#f3f3f1"/><path d="m17 6.25c-.4142 0-.75.33579-.75.75v3.8519c0 3.0537 1.592 5.8865 4.2005 7.4742l2.1595 1.3145c.2396.1459.5404.1459.78 0l2.1595-1.3145c2.6085-1.5877 4.2005-4.4205 4.2005-7.4742v-3.8519c0-.41421-.3358-.75-.75-.75z" fill="#2edf84"/><path d="m16.25 7c0-.41421.3358-.75.75-.75h2c-.4142 0-.75.33579-.75.75v3.8519c0 3.0537 1.592 5.8865 4.2005 7.4742l1.5495.9432-.61.3713c-.2396.1459-.5404.1459-.78 0l-2.1595-1.3145c-2.6085-1.5877-4.2005-4.4205-4.2005-7.4742z" fill="#00b872"/><path d="m23 9.25c.4142 0 .75.33579.75.75v4c0 .4142-.3358.75-.75.75s-.75-.3358-.75-.75v-4c0-.41421.3358-.75.75-.75z" fill="#f3f3f1"/><path d="m25.7499 12.004c-.0006.4142-.3368.7495-.751.7489l-4-.0056c-.4143-.0006-.7496-.3369-.749-.7511s.3369-.7495.7511-.7489l4 .0056c.4142.0006.7495.3369.7489.7511z" fill="#f3f3f1"/><path d="m11 6.25c-1.51878 0-2.75 1.23122-2.75 2.75 0 1.5188 1.23122 2.75 2.75 2.75.3528 0 .6901-.0664 1-.1875-1.0243-.4-1.75-1.3965-1.75-2.5625 0-1.16599.7257-2.16249 1.75-2.56253-.3099-.12104-.6472-.18747-1-.18747zm-2 6c-1.51878 0-2.75 1.2312-2.75 2.75v5.4706c0 .9665.7835 1.75 1.75 1.75h.25v5.7794c0 .9665.7835 1.75 1.75 1.75h2c-.9665 0-1.75-.7835-1.75-1.75v-5.7794h-.25c-.9665 0-1.75-.7835-1.75-1.75v-5.4706c0-1.5188 1.23122-2.75 2.75-2.75z" fill="#d6dbe1"/><g fill="#000"><path d="m11 7.75c-.6904 0-1.25.55964-1.25 1.25s.5596 1.25 1.25 1.25 1.25-.55964 1.25-1.25-.5596-1.25-1.25-1.25zm-2.75 1.25c0-1.51878 1.23122-2.75 2.75-2.75 1.5188 0 2.75 1.23122 2.75 2.75 0 1.5188-1.2312 2.75-2.75 2.75-1.51878 0-2.75-1.2312-2.75-2.75z"/><path d="m9 13.75c-.69036 0-1.25.5596-1.25 1.25v5.4706c0 .1381.11193.25.25.25h1c.41421 0 .75.3358.75.75v6.5294c0 .1381.11193.25.25.25h2c.1381 0 .25-.1119.25-.25v-6.5294c0-.4142.3358-.75.75-.75h1c.1381 0 .25-.1119.25-.25v-5.4706c0-.6904-.5596-1.25-1.25-1.25zm-2.75 1.25c0-1.5188 1.23122-2.75 2.75-2.75h4c1.5188 0 2.75 1.2312 2.75 2.75v5.4706c0 .9665-.7835 1.75-1.75 1.75h-.25v5.7794c0 .9665-.7835 1.75-1.75 1.75h-2c-.9665 0-1.75-.7835-1.75-1.75v-5.7794h-.25c-.9665 0-1.75-.7835-1.75-1.75z"/><path d="m16.25 7c0-.41421.3358-.75.75-.75h12c.4142 0 .75.33579.75.75v3.8519c0 3.0537-1.592 5.8865-4.2005 7.4742l-2.1595 1.3145c-.2396.1459-.5404.1459-.78 0l-2.1595-1.3145c-2.6085-1.5877-4.2005-4.4205-4.2005-7.4742zm1.5.75v3.1019c0 2.5302 1.3191 4.8774 3.4804 6.1929l1.7696 1.0772 1.7696-1.0772c2.1613-1.3155 3.4804-3.6627 3.4804-6.1929v-3.1019z"/><path d="m23.75 9.25v5.5h-1.5v-5.5z"/><path d="m25.7489 12.754-5.5-.0078.0021-1.5 5.5.0078z"/></g></g></g></svg>