<svg height="512" viewBox="0 0 36 36" width="512" xmlns="http://www.w3.org/2000/svg"><path d="m3.33148 5.1412c1.86291-5.58872 16.5591-2.32865 22.5101-.77623 10.0908 2.32863 4.6573 11.6431 6.2097 14.748 1.5524 3.1048 2.3286 6.9859-6.9859 12.4194-7.1839 4.1906-20.9577-.7762-17.8529-5.4335 4.65726-6.9859-6.20969-13.9718-3.88106-20.9577z" fill="#efefef"/><g fill-rule="evenodd"><path d="m4.5 25.462c.27614 0 .5-.2239.5-.5 0-.2762-.22386-.5-.5-.5s-.5.2238-.5.5c0 .2761.22386.5.5.5zm0 1c.82843 0 1.5-.6716 1.5-1.5 0-.8285-.67157-1.5-1.5-1.5s-1.5.6715-1.5 1.5c0 .8284.67157 1.5 1.5 1.5z" fill="#a4afc1"/><g fill="#f3f3f1"><path d="m8.25 9c0-1.51878 1.23122-2.75 2.75-2.75 1.5188 0 2.75 1.23122 2.75 2.75 0 1.5188-1.2312 2.75-2.75 2.75-1.51878 0-2.75-1.2312-2.75-2.75zm-2 6c0-1.5188 1.23122-2.75 2.75-2.75h4c1.5188 0 2.75 1.2312 2.75 2.75v5.4706c0 .9665-.7835 1.75-1.75 1.75h-.25v5.7794c0 .9665-.7835 1.75-1.75 1.75h-2c-.9665 0-1.75-.7835-1.75-1.75v-5.7794h-.25c-.9665 0-1.75-.7835-1.75-1.75z"/><path d="m11 6.25c-1.51878 0-2.75 1.23122-2.75 2.75 0 1.5188 1.23122 2.75 2.75 2.75.3528 0 .6901-.0664 1-.1875-1.0243-.4-1.75-1.3965-1.75-2.5625 0-1.16599.7257-2.16249 1.75-2.56253-.3099-.12104-.6472-.18747-1-.18747zm-2 6c-1.51878 0-2.75 1.2312-2.75 2.75v5.4706c0 .9665.7835 1.75 1.75 1.75h.25v5.7794c0 .9665.7835 1.75 1.75 1.75h2c-.9665 0-1.75-.7835-1.75-1.75v-5.7794h-.25c-.9665 0-1.75-.7835-1.75-1.75v-5.4706c0-1.5188 1.23122-2.75 2.75-2.75z" fill="#d6dbe1"/><path d="m20.25 18c0-1.5188 1.2312-2.75 2.75-2.75s2.75 1.2312 2.75 2.75v4c0 .4142-.3358.75-.75.75s-.75-.3358-.75-.75v-4c0-.6904-.5596-1.25-1.25-1.25s-1.25.5596-1.25 1.25v4c0 .4142-.3358.75-.75.75s-.75-.3358-.75-.75z"/><path d="m18 19.25c-.4142 0-.75.3358-.75.75v6c0 2.0711 1.6789 3.75 3.75 3.75h4c2.0711 0 3.75-1.6789 3.75-3.75v-6c0-.4142-.3358-.75-.75-.75z" fill="#2edf84"/><path d="m17.25 20c0-.4142.3358-.75.75-.75h2c-.4142 0-.75.3358-.75.75v6c0 2.0711 1.6789 3.75 3.75 3.75h-2c-2.0711 0-3.75-1.6789-3.75-3.75z" fill="#00b872"/><g fill="#000"><path d="m11 7.75c-.6904 0-1.25.55964-1.25 1.25s.5596 1.25 1.25 1.25 1.25-.55964 1.25-1.25-.5596-1.25-1.25-1.25zm-2.75 1.25c0-1.51878 1.23122-2.75 2.75-2.75 1.5188 0 2.75 1.23122 2.75 2.75 0 1.5188-1.2312 2.75-2.75 2.75-1.51878 0-2.75-1.2312-2.75-2.75z"/><path d="m9 13.75c-.69036 0-1.25.5596-1.25 1.25v5.4706c0 .1381.11193.25.25.25h1c.41421 0 .75.3358.75.75v6.5294c0 .1381.11193.25.25.25h2c.1381 0 .25-.1119.25-.25v-6.5294c0-.4142.3358-.75.75-.75h1c.1381 0 .25-.1119.25-.25v-5.4706c0-.6904-.5596-1.25-1.25-1.25zm-2.75 1.25c0-1.5188 1.23122-2.75 2.75-2.75h4c1.5188 0 2.75 1.2312 2.75 2.75v5.4706c0 .9665-.7835 1.75-1.75 1.75h-.25v5.7794c0 .9665-.7835 1.75-1.75 1.75h-2c-.9665 0-1.75-.7835-1.75-1.75v-5.7794h-.25c-.9665 0-1.75-.7835-1.75-1.75z"/><path d="m17.25 20c0-.4142.3358-.75.75-.75h10c.4142 0 .75.3358.75.75v6c0 2.0711-1.6789 3.75-3.75 3.75h-4c-2.0711 0-3.75-1.6789-3.75-3.75zm1.5.75v5.25c0 1.2426 1.0074 2.25 2.25 2.25h4c1.2426 0 2.25-1.0074 2.25-2.25v-5.25z"/><path d="m20.25 18c0-1.5188 1.2312-2.75 2.75-2.75s2.75 1.2312 2.75 2.75v4.75h-1.5v-4.75c0-.6904-.5596-1.25-1.25-1.25s-1.25.5596-1.25 1.25v4.75h-1.5z"/></g></g></g></svg>