<svg height="512" viewBox="0 0 36 36" width="512" xmlns="http://www.w3.org/2000/svg"><path d="m18.7936 6.68571c-5.256 1.51595-8.0048.20941-9.94455-.48328-12.3501-4.41031-2.40667 24.6342 4.82025 24.6342 7.2269 0 3.942-3.1582 13.7969-8.843 9.8548-5.6848 3.9419-13.8962 1.9709-15.7912-1.9709-1.89494-4.0736-1.41166-10.6435.48328z" fill="#efefef"/><g fill="#90a4ad" fill-rule="evenodd"><path d="m9.48804 31.8363v2h-1v-2z"/><g><path d="m7.48853 30.8366h-2v-1h2z"/><path d="m8.75 10c0-1.51878 1.23122-2.75 2.75-2.75 1.5188 0 2.75 1.23122 2.75 2.75 0 1.5188-1.2312 2.75-2.75 2.75-1.51878 0-2.75-1.2312-2.75-2.75zm-2 5.75c0-1.4716 1.32842-2.5 2.75-2.5h4c1.4216 0 2.75 1.0283 2.75 2.5v4.7868c0 .9884-.8807 1.625-1.75 1.625h-.25v4.9632c0 .9884-.8807 1.625-1.75 1.625h-2c-.86929 0-1.75-.6366-1.75-1.625v-4.9632h-.25c-.86929 0-1.75-.6366-1.75-1.625z" fill="#f3f3f1"/><path d="m11.5 7.24994c-1.51878 0-2.75 1.23122-2.75 2.75 0 1.51876 1.23122 2.74996 2.75 2.74996.3528 0 .6901-.0664 1-.1874-1.0243-.4001-1.75-1.3966-1.75-2.56256 0-1.16599.7257-2.1625 1.75-2.56253-.3099-.12104-.6472-.18747-1-.18747zm-2 5.99996c-1.42158 0-2.75 1.0284-2.75 2.5v4.7868c0 .9884.88071 1.625 1.75 1.625h.25v4.9632c0 .9884.88071 1.625 1.75 1.625h2c-.8693 0-1.75-.6366-1.75-1.625v-4.9632h-.25c-.86929 0-1.75-.6366-1.75-1.625v-4.7868c0-1.4716 1.3284-2.5 2.75-2.5z" fill="#d6dbe1"/><path d="m23 8.25c-1.5188 0-2.75 1.23122-2.75 2.75 0 1.5188 1.2312 2.75 2.75 2.75s2.75-1.2312 2.75-2.75c0-1.51878-1.2312-2.75-2.75-2.75z" fill="#2edf84"/><path d="m20.25 11c0-1.51878 1.2312-2.75 2.75-2.75.3528 0 .6901.06643 1 .18747-1.0243.40003-1.75 1.39654-1.75 2.56253 0 1.166.7257 2.1625 1.75 2.5625-.3099.1211-.6472.1875-1 .1875-1.5188 0-2.75-1.2312-2.75-2.75z" fill="#00b872"/><path d="m19.3732 7.39077c.3364.24159.4133.71019.1718 1.04666-.5005.69701-.795 1.55079-.795 2.47557 0 .9248.2945 1.7786.795 2.4756.2415.3365.1646.8051-.1718 1.0467-.3365.2415-.8051.1646-1.0467-.1718-.6774-.9436-1.0765-2.1015-1.0765-3.3505 0-1.24895.3991-2.40692 1.0765-3.35044.2416-.33646.7102-.41338 1.0467-.17179z" fill="#2edf84"/><path d="m26.5626 14.4354c-.3364-.2416-.4134-.7102-.1718-1.0467.5005-.697.795-1.5508.795-2.4755 0-.92483-.2945-1.77861-.795-2.47563-.2416-.33646-.1646-.80507.1718-1.04665.3365-.24159.8051-.16467 1.0467.17179.6774.94352 1.0765 2.10149 1.0765 3.35049 0 1.2489-.3991 2.4069-1.0765 3.3504-.2416.3365-.7102.4134-1.0467.1718z" fill="#2edf84"/><g fill="#000"><path d="m11.5 8.75c-.6904 0-1.25.55964-1.25 1.25 0 .6904.5596 1.25 1.25 1.25s1.25-.5596 1.25-1.25c0-.69036-.5596-1.25-1.25-1.25zm-2.75 1.25c0-1.51878 1.23122-2.75 2.75-2.75 1.5188 0 2.75 1.23122 2.75 2.75 0 1.5188-1.2312 2.75-2.75 2.75-1.51878 0-2.75-1.2312-2.75-2.75z"/><path d="m9.5 14.75c-.78756 0-1.25.5387-1.25 1v4.7868c0 .0031.00035.007.00383.0141.00396.0082.01332.023.03294.0402.04029.0352.11343.0707.21323.0707h1c.41421 0 .75.3358.75.75v5.7132c0 .0031.0004.007.0038.0142.004.0082.0133.0229.033.0401.0403.0352.1134.0707.2132.0707h2c.0998 0 .1729-.0355.2132-.0707.0197-.0172.029-.0319.033-.0401.0034-.0072.0038-.0111.0038-.0142v-5.7132c0-.4142.3358-.75.75-.75h1c.0998 0 .1729-.0355.2132-.0707.0197-.0172.029-.032.033-.0402.0034-.0071.0038-.011.0038-.0141v-4.7868c0-.4613-.4624-1-1.25-1zm-2.75 1c0-1.4716 1.32842-2.5 2.75-2.5h4c1.4216 0 2.75 1.0283 2.75 2.5v4.7868c0 .9884-.8807 1.625-1.75 1.625h-.25v4.9632c0 .9884-.8807 1.625-1.75 1.625h-2c-.86929 0-1.75-.6366-1.75-1.625v-4.9632h-.25c-.86929 0-1.75-.6366-1.75-1.625z"/><path d="m23 9.75c-.6904 0-1.25.5596-1.25 1.25s.5596 1.25 1.25 1.25 1.25-.5596 1.25-1.25-.5596-1.25-1.25-1.25zm-2.75 1.25c0-1.51878 1.2312-2.75 2.75-2.75s2.75 1.23122 2.75 2.75c0 1.5188-1.2312 2.75-2.75 2.75s-2.75-1.2312-2.75-2.75z"/><path d="m19.9824 7.8282-.4374.60922c-.5005.69702-.795 1.5508-.795 2.47558 0 .9248.2945 1.7786.795 2.4756l.4374.6092-1.2184.8749-.4375-.6092c-.6774-.9436-1.0765-2.1015-1.0765-3.3505 0-1.24895.3991-2.40692 1.0765-3.35044l.4375-.60922z"/><path d="m25.9534 13.998.4374-.6093c.5005-.697.795-1.5508.795-2.4755 0-.92483-.2945-1.77861-.795-2.47563l-.4374-.60922 1.2184-.87486.4374.60922c.6775.94352 1.0766 2.10149 1.0766 3.35049 0 1.2489-.3991 2.4069-1.0766 3.3504l-.4374.6092z"/></g></g></g></svg>