<svg height="512" viewBox="0 0 36 36" width="512" xmlns="http://www.w3.org/2000/svg"><path d="m15.4101 5.63415c6.5561-2.38406 14.5278.74502 16.3903 4.47005 2.9801 5.9602 0 14.1554-4.4701 17.8804-4.4701 3.7251-10.4302 3.7251-11.1752 1.4901-.745-2.2351-3.7251-2.2351-9.68524-3.7251-5.96013-1.49-2.88581-10.533-.74502-11.1753 7.45016-2.235 1.49004-5.96009 9.68526-8.94015z" fill="#efefef"/><g fill="#90a4ad" fill-rule="evenodd"><path d="m8.80319 29.093.398 1.96-.98.199-.398-1.96z"/><g><path d="m6.64484 28.5113-1.96.398-.199-.98 1.96-.398z"/><path d="m12.5 6.25c-1.5188 0-2.75 1.23122-2.75 2.75 0 1.5188 1.2312 2.75 2.75 2.75s2.75-1.2312 2.75-2.75c0-1.51878-1.2312-2.75-2.75-2.75z" fill="#f3f3f1"/><path d="m10.5 12.25c-1.51878 0-2.75 1.2312-2.75 2.75v5.4706c0 .9665.7835 1.75 1.75 1.75h.25v5.7794c0 .9665.7835 1.75 1.75 1.75h2c.9665 0 1.75-.7835 1.75-1.75v-5.7794h.25c.9665 0 1.75-.7835 1.75-1.75v-5.4706c0-1.5188-1.2312-2.75-2.75-2.75z" fill="#f3f3f1"/><path d="m24.1836 7.15142c-.3842-1.13028-1.9828-1.13028-2.367 0l-.6521 1.91835h-2.0679c-1.2245 0-1.7188 1.57823-.713 2.27673l1.6237 1.1276-.6277 1.8468c-.3882 1.1418.906 2.1168 1.8965 1.429l1.724-1.1973 1.724 1.1973c.9905.6878 2.2846-.2872 1.8965-1.429l-.6277-1.8468 1.6237-1.1276c1.0058-.6985.5115-2.27673-.713-2.27673h-2.0679z" fill="#2edf84"/><path d="m21.8166 7.15142c.3842-1.13028 1.9828-1.13028 2.367 0l.0665.19565-.5856 1.7227h-2.0679c-1.2245 0-1.7188 1.57823-.713 2.27673l1.6237 1.1276-.6277 1.8468c-.1199.3525-.0793.6892.0632.966l-.6667.463c-.9905.6878-2.2847-.2872-1.8965-1.429l.6277-1.8468-1.6237-1.1276c-1.0058-.6985-.5115-2.27673.713-2.27673h2.0679zm2.4335 8.26928.474.3292c.6846.4754 1.5143.1564 1.8333-.463l-1.0573-.7343z" fill="#00b872"/><path d="m12.5 6.25c-1.5188 0-2.75 1.23122-2.75 2.75 0 1.5188 1.2312 2.75 2.75 2.75.3528 0 .6901-.0664 1-.1875-1.0243-.4-1.75-1.3965-1.75-2.5625 0-1.16599.7257-2.16249 1.75-2.56253-.3099-.12104-.6472-.18747-1-.18747zm-2 6c-1.51878 0-2.75 1.2312-2.75 2.75v5.4706c0 .9665.7835 1.75 1.75 1.75h.25v5.7794c0 .9665.7835 1.75 1.75 1.75h2c-.9665 0-1.75-.7835-1.75-1.75v-5.7794h-.25c-.9665 0-1.75-.7835-1.75-1.75v-5.4706c0-1.5188 1.2312-2.75 2.75-2.75z" fill="#d6dbe1"/><g fill="#000"><path d="m12.5 7.75c-.6904 0-1.25.55964-1.25 1.25s.5596 1.25 1.25 1.25 1.25-.55964 1.25-1.25-.5596-1.25-1.25-1.25zm-2.75 1.25c0-1.51878 1.2312-2.75 2.75-2.75s2.75 1.23122 2.75 2.75c0 1.5188-1.2312 2.75-2.75 2.75s-2.75-1.2312-2.75-2.75z"/><path d="m10.5 13.75c-.69036 0-1.25.5596-1.25 1.25v5.4706c0 .1381.11193.25.25.25h1c.4142 0 .75.3358.75.75v6.5294c0 .1381.1119.25.25.25h2c.1381 0 .25-.1119.25-.25v-6.5294c0-.4142.3358-.75.75-.75h1c.1381 0 .25-.1119.25-.25v-5.4706c0-.6904-.5596-1.25-1.25-1.25zm-2.75 1.25c0-1.5188 1.23122-2.75 2.75-2.75h4c1.5188 0 2.75 1.2312 2.75 2.75v5.4706c0 .9665-.7835 1.75-1.75 1.75h-.25v5.7794c0 .9665-.7835 1.75-1.75 1.75h-2c-.9665 0-1.75-.7835-1.75-1.75v-5.7794h-.25c-.9665 0-1.75-.7835-1.75-1.75z"/><path d="m21.8166 7.1513c.3842-1.13027 1.9828-1.13027 2.367 0l.6521 1.91836h2.0679c1.2245 0 1.7188 1.57824.713 2.27674l-1.6237 1.1276.6277 1.8468c.3881 1.1417-.906 2.1168-1.8965 1.4289l-1.724-1.1973-1.724 1.1973c-.9905.6879-2.2847-.2872-1.8965-1.4289l.6277-1.8468-1.6237-1.1276c-1.0058-.6985-.5115-2.27674.713-2.27674h2.0679zm1.1835 1.1791-.5883 1.7306c-.1034.3041-.3889.5087-.7101.5087h-1.8069l1.4323.9946c.2748.1909.3899.5406.2823.8574l-.5653 1.6629 1.5282-1.0613c.2572-.1786.5984-.1786.8556 0l1.5281 1.0613-.5652-1.6629c-.1077-.3168.0075-.6665.2823-.8574l1.4322-.9946h-1.8068c-.3212 0-.6068-.2046-.7101-.5087z"/></g></g></g></svg>