<svg height="512" viewBox="0 0 36 36" width="512" xmlns="http://www.w3.org/2000/svg"><path d="m23.0562 5.59376c-5.7329-1.94482-13.0051 1.35057-15.9246 3.24136-7.96228 4.86208-2.38868 17.0172 0 20.2585 2.38869 3.2414 5.5736.8103 9.5547-.8103 3.9812-1.6207 3.9812 2.431 10.351 2.431s7.9623-10.5344 3.1849-15.3965c-4.7773-4.862 0-7.29302-7.166-9.72404z" fill="#efefef"/><g fill-rule="evenodd"><path d="m19.5 32.7143c.2761 0 .5-.2239.5-.5s-.2239-.5-.5-.5-.5.2239-.5.5.2239.5.5.5zm0 1c.8284 0 1.5-.6716 1.5-1.5s-.6716-1.5-1.5-1.5-1.5.6716-1.5 1.5.6716 1.5 1.5 1.5z" fill="#a4afc1"/><g fill="#f3f3f1"><path d="m8.25 9c0-1.51878 1.23122-2.75 2.75-2.75 1.5188 0 2.75 1.23122 2.75 2.75 0 1.5188-1.2312 2.75-2.75 2.75-1.51878 0-2.75-1.2312-2.75-2.75zm-2 6c0-1.5188 1.23122-2.75 2.75-2.75h4c1.5188 0 2.75 1.2312 2.75 2.75v5.4706c0 .9665-.7835 1.75-1.75 1.75h-.25v5.7794c0 .9665-.7835 1.75-1.75 1.75h-2c-.9665 0-1.75-.7835-1.75-1.75v-5.7794h-.25c-.9665 0-1.75-.7835-1.75-1.75z"/><path d="m11 6.25c-1.51878 0-2.75 1.23122-2.75 2.75 0 1.5188 1.23122 2.75 2.75 2.75.3528 0 .6901-.0664 1-.1875-1.0243-.4-1.75-1.3965-1.75-2.5625 0-1.16599.7257-2.16249 1.75-2.56253-.3099-.12104-.6472-.18747-1-.18747zm-2 6c-1.51878 0-2.75 1.2312-2.75 2.75v5.4706c0 .9665.7835 1.75 1.75 1.75h.25v5.7794c0 .9665.7835 1.75 1.75 1.75h2c-.9665 0-1.75-.7835-1.75-1.75v-5.7794h-.25c-.9665 0-1.75-.7835-1.75-1.75v-5.4706c0-1.5188 1.23122-2.75 2.75-2.75z" fill="#d6dbe1"/><path d="m28.4685 7.41435c.3235.25875.3759.73072.1172 1.05417l-4 4.99998c-.1832.229-.4831.3302-.7676.2591l-3.588-.897-2.6998 2.6997c-.2929.2929-.7677.2929-1.0606 0s-.2929-.7677 0-1.0606l3-3c.1863-.1863.4566-.2612.7122-.1973l3.5331.8833 3.6993-4.62422c.2588-.32345.7308-.37589 1.0542-.11713z" fill="#2edf84"/><path d="m17 6.25c.4142 0 .75.33579.75.75v9.25h11.25c.4142 0 .75.3358.75.75s-.3358.75-.75.75h-12c-.4142 0-.75-.3358-.75-.75v-10c0-.41421.3358-.75.75-.75z"/><g fill="#000"><path d="m11 7.75c-.6904 0-1.25.55964-1.25 1.25s.5596 1.25 1.25 1.25 1.25-.55964 1.25-1.25-.5596-1.25-1.25-1.25zm-2.75 1.25c0-1.51878 1.23122-2.75 2.75-2.75 1.5188 0 2.75 1.23122 2.75 2.75 0 1.5188-1.2312 2.75-2.75 2.75-1.51878 0-2.75-1.2312-2.75-2.75z"/><path d="m9 13.75c-.69036 0-1.25.5596-1.25 1.25v5.4706c0 .1381.11193.25.25.25h1c.41421 0 .75.3358.75.75v6.5294c0 .1381.11193.25.25.25h2c.1381 0 .25-.1119.25-.25v-6.5294c0-.4142.3358-.75.75-.75h1c.1381 0 .25-.1119.25-.25v-5.4706c0-.6904-.5596-1.25-1.25-1.25zm-2.75 1.25c0-1.5188 1.23122-2.75 2.75-2.75h4c1.5188 0 2.75 1.2312 2.75 2.75v5.4706c0 .9665-.7835 1.75-1.75 1.75h-.25v5.7794c0 .9665-.7835 1.75-1.75 1.75h-2c-.9665 0-1.75-.7835-1.75-1.75v-5.7794h-.25c-.9665 0-1.75-.7835-1.75-1.75z"/><path d="m17.75 6.25v10h12v1.5h-12.75c-.4142 0-.75-.3358-.75-.75v-10.75z"/><path d="m29.0542 7.88287-4.4685 5.58563c-.1832.229-.483.3302-.7675.2591l-3.5881-.897-2.6997 2.6997-1.0607-1.0606 3-3c.1863-.1863.4567-.2612.7123-.1973l3.5331.8833 4.1678-5.20987z"/></g></g></g></svg>