<svg height="512" viewBox="0 0 36 36" width="512" xmlns="http://www.w3.org/2000/svg"><path d="m12.3749 4.70405c-6.79335-3.70544-9.00633-.51465-9.26365 1.54393-1.15797 9.26362 6.94775 25.4749 13.8954 26.2468 6.9477.772 13.1234 0 15.4393-10.8075s-3.0879-15.4393-7.7197-14.6674c-4.6318.77196-3.8598 2.3159-12.3514-2.31589z" fill="#efefef"/><g fill-rule="evenodd"><path d="m21.082 5c.2762 0 .5-.22386.5-.5s-.2238-.5-.5-.5c-.2761 0-.5.22386-.5.5s.2239.5.5.5zm0 1c.8285 0 1.5-.67157 1.5-1.5s-.6715-1.5-1.5-1.5c-.8284 0-1.5.67157-1.5 1.5s.6716 1.5 1.5 1.5z" fill="#a4afc1"/><g fill="#f3f3f1"><path d="m9.25 10c0-1.51878 1.2312-2.75 2.75-2.75s2.75 1.23122 2.75 2.75c0 1.5188-1.2312 2.75-2.75 2.75s-2.75-1.2312-2.75-2.75zm-2 5.75c0-1.4716 1.32842-2.5 2.75-2.5h4c1.4216 0 2.75 1.0283 2.75 2.5v4.7868c0 .9884-.8807 1.625-1.75 1.625h-.25v4.9632c0 .9884-.8807 1.625-1.75 1.625h-2c-.8693 0-1.75-.6366-1.75-1.625v-4.9632h-.25c-.86929 0-1.75-.6366-1.75-1.625z"/><path d="m12 7.25c-1.5188 0-2.75 1.23122-2.75 2.75 0 1.5188 1.2312 2.75 2.75 2.75.3528 0 .6901-.0664 1-.1875-1.0243-.4-1.75-1.3965-1.75-2.5625 0-1.16599.7257-2.16249 1.75-2.56253-.3099-.12104-.6472-.18747-1-.18747zm-2 6c-1.42158 0-2.75 1.0284-2.75 2.5v4.7868c0 .9884.88071 1.625 1.75 1.625h.25v4.9632c0 .9884.8807 1.625 1.75 1.625h2c-.8693 0-1.75-.6366-1.75-1.625v-4.9632h-.25c-.8693 0-1.75-.6366-1.75-1.625v-4.7868c0-1.4716 1.3284-2.5 2.75-2.5z" fill="#d6dbe1"/><path d="m18.9979 8.38144c-.3161.05269-.5638.30039-.6165.6165l-.606 3.63656c-.0399.2389.0381.4823.2094.6536l4.8487 4.8487c.2929.2929.7678.2929 1.0607 0l4.2426-4.2426c.2929-.2929.2929-.7678 0-1.0607l-4.8487-4.84868c-.1713-.17127-.4147-.24929-.6536-.20947z" fill="#2edf84"/><path d="m18.3814 8.99794c.0527-.31611.3004-.56381.6165-.6165l3.6366-.60609c.2389-.03982.4823.0382.6536.20947l.0128.01279-2.303.38383c-.3161.05269-.5638.30039-.6165.6165l-.606 3.63656c-.0399.2389.0381.4823.2094.6536l4.3791 4.3791-.4697.4696c-.2929.2929-.7678.2929-1.0607 0l-4.8487-4.8487c-.1713-.1713-.2493-.4147-.2094-.6536z" fill="#00b872"/><g fill="#000"><path d="m12 8.75c-.6904 0-1.25.55964-1.25 1.25 0 .6904.5596 1.25 1.25 1.25s1.25-.5596 1.25-1.25c0-.69036-.5596-1.25-1.25-1.25zm-2.75 1.25c0-1.51878 1.2312-2.75 2.75-2.75s2.75 1.23122 2.75 2.75c0 1.5188-1.2312 2.75-2.75 2.75s-2.75-1.2312-2.75-2.75z"/><path d="m10 14.75c-.78756 0-1.25.5387-1.25 1v4.7868c0 .0031.00035.007.00383.0141.00396.0082.01332.023.03294.0402.04029.0352.11343.0707.21323.0707h1c.4142 0 .75.3358.75.75v5.7132c0 .0031.0004.007.0038.0142.004.0082.0133.0229.033.0401.0403.0352.1134.0707.2132.0707h2c.0998 0 .1729-.0355.2132-.0707.0197-.0172.029-.0319.033-.0401.0034-.0072.0038-.0111.0038-.0142v-5.7132c0-.4142.3358-.75.75-.75h1c.0998 0 .1729-.0355.2132-.0707.0197-.0172.029-.032.033-.0402.0034-.0071.0038-.011.0038-.0141v-4.7868c0-.4613-.4624-1-1.25-1zm-2.75 1c0-1.4716 1.32842-2.5 2.75-2.5h4c1.4216 0 2.75 1.0283 2.75 2.5v4.7868c0 .9884-.8807 1.625-1.75 1.625h-.25v4.9632c0 .9884-.8807 1.625-1.75 1.625h-2c-.8693 0-1.75-.6366-1.75-1.625v-4.9632h-.25c-.86929 0-1.75-.6366-1.75-1.625z"/><path d="m18.3816 8.99806c.0527-.31611.3004-.56382.6165-.6165l3.6366-.60609c.2389-.03982.4823.03819.6536.20946l4.8487 4.84877c.2929.2929.2929.7677 0 1.0606l-4.2426 4.2427c-.2929.2929-.7678.2929-1.0607 0l-4.8487-4.8488c-.1713-.1712-.2493-.4147-.2095-.6536zm.937 3.50244 4.0455 4.0455 3.182-3.182-4.0455-4.04549-2.7274.45457z"/></g></g></g></svg>