<svg height="512" viewBox="0 0 36 36" width="512" xmlns="http://www.w3.org/2000/svg"><path d="m23.0562 5.59376c-5.7329-1.94482-13.0051 1.35057-15.9246 3.24136-7.96228 4.86208-2.38868 17.0172 0 20.2585 2.38869 3.2414 5.5736.8103 9.5547-.8103 3.9812-1.6207 3.9812 2.431 10.351 2.431s7.9623-10.5344 3.1849-15.3965c-4.7773-4.862 0-7.29302-7.166-9.72404z" fill="#efefef"/><g fill-rule="evenodd"><path d="m19.5 32.7143c.2761 0 .5-.2239.5-.5s-.2239-.5-.5-.5-.5.2239-.5.5.2239.5.5.5zm0 1c.8284 0 1.5-.6716 1.5-1.5s-.6716-1.5-1.5-1.5-1.5.6716-1.5 1.5.6716 1.5 1.5 1.5z" fill="#a4afc1"/><g fill="#f3f3f1"><path d="m8.25 9c0-1.51878 1.23122-2.75 2.75-2.75 1.5188 0 2.75 1.23122 2.75 2.75 0 1.5188-1.2312 2.75-2.75 2.75-1.51878 0-2.75-1.2312-2.75-2.75zm-2 6c0-1.5188 1.23122-2.75 2.75-2.75h4c1.5188 0 2.75 1.2312 2.75 2.75v5.4706c0 .9665-.7835 1.75-1.75 1.75h-.25v5.7794c0 .9665-.7835 1.75-1.75 1.75h-2c-.9665 0-1.75-.7835-1.75-1.75v-5.7794h-.25c-.9665 0-1.75-.7835-1.75-1.75z"/><path d="m11 6.25c-1.51878 0-2.75 1.23122-2.75 2.75 0 1.5188 1.23122 2.75 2.75 2.75.3528 0 .6901-.0664 1-.1875-1.0243-.4-1.75-1.3965-1.75-2.5625 0-1.16599.7257-2.16249 1.75-2.56253-.3099-.12104-.6472-.18747-1-.18747zm-2 6c-1.51878 0-2.75 1.2312-2.75 2.75v5.4706c0 .9665.7835 1.75 1.75 1.75h.25v5.7794c0 .9665.7835 1.75 1.75 1.75h2c-.9665 0-1.75-.7835-1.75-1.75v-5.7794h-.25c-.9665 0-1.75-.7835-1.75-1.75v-5.4706c0-1.5188 1.23122-2.75 2.75-2.75z" fill="#d6dbe1"/><path d="m23 6.25c-3.7279 0-6.75 3.02208-6.75 6.75 0 3.7279 3.0221 6.75 6.75 6.75s6.75-3.0221 6.75-6.75c0-3.72792-3.0221-6.75-6.75-6.75z" fill="#2edf84"/><path d="m16.25 13c0-3.72792 3.0221-6.75 6.75-6.75.3398 0 .6737.02511 1 .07356-3.2537.4832-5.75 3.2883-5.75 6.67644 0 3.3881 2.4963 6.1932 5.75 6.6764-.3263.0485-.6602.0736-1 .0736-3.7279 0-6.75-3.0221-6.75-6.75z" fill="#00b872"/><path d="m23 8.25c.4142 0 .75.33579.75.75v3.5986l2.666 1.7774c.3447.2297.4378.6954.208 1.04-.2297.3447-.6954.4378-1.04.208l-3-2c-.2087-.1391-.334-.3732-.334-.624v-4c0-.41421.3358-.75.75-.75z"/><g fill="#000"><path d="m11 7.75c-.6904 0-1.25.55964-1.25 1.25s.5596 1.25 1.25 1.25 1.25-.55964 1.25-1.25-.5596-1.25-1.25-1.25zm-2.75 1.25c0-1.51878 1.23122-2.75 2.75-2.75 1.5188 0 2.75 1.23122 2.75 2.75 0 1.5188-1.2312 2.75-2.75 2.75-1.51878 0-2.75-1.2312-2.75-2.75z"/><path d="m9 13.75c-.69036 0-1.25.5596-1.25 1.25v5.4706c0 .1381.11193.25.25.25h1c.41421 0 .75.3358.75.75v6.5294c0 .1381.11193.25.25.25h2c.1381 0 .25-.1119.25-.25v-6.5294c0-.4142.3358-.75.75-.75h1c.1381 0 .25-.1119.25-.25v-5.4706c0-.6904-.5596-1.25-1.25-1.25zm-2.75 1.25c0-1.5188 1.23122-2.75 2.75-2.75h4c1.5188 0 2.75 1.2312 2.75 2.75v5.4706c0 .9665-.7835 1.75-1.75 1.75h-.25v5.7794c0 .9665-.7835 1.75-1.75 1.75h-2c-.9665 0-1.75-.7835-1.75-1.75v-5.7794h-.25c-.9665 0-1.75-.7835-1.75-1.75z"/><path d="m23 7.75c-2.8995 0-5.25 2.3505-5.25 5.25s2.3505 5.25 5.25 5.25 5.25-2.3505 5.25-5.25-2.3505-5.25-5.25-5.25zm-6.75 5.25c0-3.72792 3.0221-6.75 6.75-6.75s6.75 3.02208 6.75 6.75c0 3.7279-3.0221 6.75-6.75 6.75s-6.75-3.0221-6.75-6.75z"/><path d="m23.75 8.25v4.3486l3.2901 2.1934-.8321 1.2481-3.624-2.4161c-.2087-.1391-.334-.3732-.334-.624v-4.75z"/></g></g></g></svg>