<svg height="512" viewBox="0 0 36 36" width="512" xmlns="http://www.w3.org/2000/svg"><path d="m15.4101 5.63414c6.5561-2.38406 14.5278.74502 16.3903 4.47006 2.9801 5.9602 0 14.1554-4.4701 17.8804-4.4701 3.7251-10.4302 3.7251-11.1752 1.4901-.745-2.2351-3.7251-2.2351-9.68524-3.7251-5.96013-1.49-2.88581-10.533-.74502-11.1753 7.45016-2.235 1.49004-5.96009 9.68526-8.94016z" fill="#efefef"/><g fill="#90a4ad" fill-rule="evenodd"><path d="m8.03784 7.30188h-2v-1h2z"/><g><path d="m9.03735 5.30231v-2h1.00005v2z"/><path d="m10.25 10c0-1.51878 1.2312-2.75 2.75-2.75s2.75 1.23122 2.75 2.75c0 1.5188-1.2312 2.75-2.75 2.75s-2.75-1.2312-2.75-2.75zm-2 5.75c0-1.4716 1.32842-2.5 2.75-2.5h4c1.4216 0 2.75 1.0283 2.75 2.5v4.7868c0 .9884-.8807 1.625-1.75 1.625h-.25v4.9632c0 .9884-.8807 1.625-1.75 1.625h-2c-.8693 0-1.75-.6366-1.75-1.625v-4.9632h-.25c-.86929 0-1.75-.6366-1.75-1.625z" fill="#f3f3f1"/><path d="m13 7.25c-1.5188 0-2.75 1.23122-2.75 2.75 0 1.5188 1.2312 2.75 2.75 2.75.3528 0 .6901-.0664 1-.1875-1.0243-.4-1.75-1.3965-1.75-2.5625 0-1.16599.7257-2.16249 1.75-2.56253-.3099-.12104-.6472-.18747-1-.18747zm-2 6c-1.42158 0-2.75 1.0284-2.75 2.5v4.7868c0 .9884.88071 1.625 1.75 1.625h.25v4.9632c0 .9884.8807 1.625 1.75 1.625h2c-.8693 0-1.75-.6366-1.75-1.625v-4.9632h-.25c-.8693 0-1.75-.6366-1.75-1.625v-4.7868c0-1.4716 1.3284-2.5 2.75-2.5z" fill="#d6dbe1"/><path d="m23.9697 7.46967c.2929-.29289.7677-.29289 1.0606 0l2.5 2.5c.2145.21453.2787.53713.1626.81733-.1161.2803-.3896.463-.6929.463h-7c-.4142 0-.75-.3358-.75-.75s.3358-.75.75-.75h5.1893l-1.2196-1.21967c-.2929-.29289-.2929-.76777 0-1.06066z" fill="#2edf84"/><path d="m23.0303 16.5303c-.2929.2929-.7677.2929-1.0606 0l-2.5-2.5c-.2145-.2145-.2787-.5371-.1626-.8173.1161-.2803.3896-.463.6929-.463h7c.4142 0 .75.3358.75.75s-.3358.75-.75.75h-5.1893l1.2196 1.2197c.2929.2929.2929.7677 0 1.0606z" fill="#2edf84"/><g fill="#000"><path d="m13 8.75c-.6904 0-1.25.55964-1.25 1.25 0 .6904.5596 1.25 1.25 1.25s1.25-.5596 1.25-1.25c0-.69036-.5596-1.25-1.25-1.25zm-2.75 1.25c0-1.51878 1.2312-2.75 2.75-2.75s2.75 1.23122 2.75 2.75c0 1.5188-1.2312 2.75-2.75 2.75s-2.75-1.2312-2.75-2.75z"/><path d="m11 14.75c-.7876 0-1.25.5387-1.25 1v4.7868c0 .0031.00035.007.00383.0141.00396.0082.01332.023.03294.0402.04029.0352.11343.0707.21323.0707h1c.4142 0 .75.3358.75.75v5.7132c0 .0031.0004.007.0038.0142.004.0082.0133.0229.033.0401.0403.0352.1134.0707.2132.0707h2c.0998 0 .1729-.0355.2132-.0707.0197-.0172.029-.0319.033-.0401.0034-.0072.0038-.0111.0038-.0142v-5.7132c0-.4142.3358-.75.75-.75h1c.0998 0 .1729-.0355.2132-.0707.0197-.0172.029-.032.033-.0402.0034-.0071.0038-.011.0038-.0141v-4.7868c0-.4613-.4624-1-1.25-1zm-2.75 1c0-1.4716 1.32842-2.5 2.75-2.5h4c1.4216 0 2.75 1.0283 2.75 2.5v4.7868c0 .9884-.8807 1.625-1.75 1.625h-.25v4.9632c0 .9884-.8807 1.625-1.75 1.625h-2c-.8693 0-1.75-.6366-1.75-1.625v-4.9632h-.25c-.86929 0-1.75-.6366-1.75-1.625z"/><path d="m24.5 6.93933 3.0303 3.03033c.2145.21454.2787.53704.1626.81734s-.3896.463-.6929.463h-7.75v-1.50001h5.9393l-1.75-1.75z"/><path d="m22.5 17.0607-3.0303-3.0304c-.2145-.2145-.2787-.537-.1626-.8173s.3896-.463.6929-.463h7.75v1.5h-5.9393l1.75 1.75z"/></g></g></g></svg>