<svg height="512" viewBox="0 0 36 36" width="512" xmlns="http://www.w3.org/2000/svg"><path d="m24.2198 10.113c-1.2803-7.98256-8.6339-10.7481-16.7816-9.46159-9.58655 1.51365-.21638 13.2388-3.0764 18.9589-3.45357 6.9071 2.84485 9.4183 5.18035 12.0875 6.04375 6.9071 18.1313 4.317 22.4482-4.317 4.317-8.6339-6.5299-9.533-7.7705-17.2678z" fill="#efefef"/><g fill="#90a4ad" fill-rule="evenodd"><path d="m27.0817 9.55864 1-1.73205.8661.5-1 1.73201z"/><g><path d="m28.3136 11.4242 1.7321 1-.5.866-1.7321-1z"/><path d="m20 19.9773c-.4142 0-.75.3358-.75.75v3.6364 1.6363c0 1.5188 1.2312 2.75 2.75 2.75h3c1.5188 0 2.75-1.2312 2.75-2.75v-1.6363-3.6364c0-.4142-.3358-.75-.75-.75z" fill="#2edf84"/><path d="m19.25 20.7273c0-.4142.3358-.75.75-.75h2c-.4142 0-.75.3358-.75.75v3.6364 1.6363c0 1.5188 1.2312 2.75 2.75 2.75h-2c-1.5188 0-2.75-1.2312-2.75-2.75v-1.6363z" fill="#00b872"/><path d="m22.5 18.75c-.1381 0-.25.1119-.25.25v.9773h2.5v-.9773c0-.1381-.1119-.25-.25-.25zm3.75 1.2273v-.9773c0-.9665-.7835-1.75-1.75-1.75h-2c-.9665 0-1.75.7835-1.75 1.75v.9773h-2.25c-.4142 0-.75.3358-.75.75s.3358.75.75.75h10c.4142 0 .75-.3358.75-.75s-.3358-.75-.75-.75z" fill="#2edf84"/><path d="m9.25 10c0-1.51878 1.2312-2.75 2.75-2.75s2.75 1.23122 2.75 2.75c0 1.5188-1.2312 2.75-2.75 2.75s-2.75-1.2312-2.75-2.75zm-2 5.75c0-1.4716 1.32842-2.5 2.75-2.5h4c1.4216 0 2.75 1.0283 2.75 2.5v4.7868c0 .9884-.8807 1.625-1.75 1.625h-.25v4.9632c0 .9884-.8807 1.625-1.75 1.625h-2c-.8693 0-1.75-.6366-1.75-1.625v-4.9632h-.25c-.86929 0-1.75-.6366-1.75-1.625z" fill="#f3f3f1"/><path d="m12 7.25c-1.5188 0-2.75 1.23122-2.75 2.75 0 1.5188 1.2312 2.75 2.75 2.75.3528 0 .6901-.0664 1-.1875-1.0243-.4-1.75-1.3965-1.75-2.5625 0-1.16599.7257-2.16249 1.75-2.56253-.3099-.12104-.6472-.18747-1-.18747zm-2 6c-1.42158 0-2.75 1.0284-2.75 2.5v4.7868c0 .9884.88071 1.625 1.75 1.625h.25v4.9632c0 .9884.8807 1.625 1.75 1.625h2c-.8693 0-1.75-.6366-1.75-1.625v-4.9632h-.25c-.8693 0-1.75-.6366-1.75-1.625v-4.7868c0-1.4716 1.3284-2.5 2.75-2.5z" fill="#d6dbe1"/><g fill="#000"><path d="m12 8.75c-.6904 0-1.25.55964-1.25 1.25 0 .6904.5596 1.25 1.25 1.25s1.25-.5596 1.25-1.25c0-.69036-.5596-1.25-1.25-1.25zm-2.75 1.25c0-1.51878 1.2312-2.75 2.75-2.75s2.75 1.23122 2.75 2.75c0 1.5188-1.2312 2.75-2.75 2.75s-2.75-1.2312-2.75-2.75z"/><path d="m10 14.75c-.78756 0-1.25.5387-1.25 1v4.7868c0 .0031.00035.007.00383.0141.00396.0082.01332.023.03294.0402.04029.0352.11343.0707.21323.0707h1c.4142 0 .75.3358.75.75v5.7132c0 .0031.0004.007.0038.0142.004.0082.0133.0229.033.0401.0403.0352.1134.0707.2132.0707h2c.0998 0 .1729-.0355.2132-.0707.0197-.0172.029-.0319.033-.0401.0034-.0072.0038-.0111.0038-.0142v-5.7132c0-.4142.3358-.75.75-.75h1c.0998 0 .1729-.0355.2132-.0707.0197-.0172.029-.032.033-.0402.0034-.0071.0038-.011.0038-.0141v-4.7868c0-.4613-.4624-1-1.25-1zm-2.75 1c0-1.4716 1.32842-2.5 2.75-2.5h4c1.4216 0 2.75 1.0283 2.75 2.5v4.7868c0 .9884-.8807 1.625-1.75 1.625h-.25v4.9632c0 .9884-.8807 1.625-1.75 1.625h-2c-.8693 0-1.75-.6366-1.75-1.625v-4.9632h-.25c-.86929 0-1.75-.6366-1.75-1.625z"/><path d="m22.5 18.75c-.1381 0-.25.1119-.25.25v.9773h2.5v-.9773c0-.1381-.1119-.25-.25-.25zm-1.75 2.7273v4.5227c0 .6904.5596 1.25 1.25 1.25h3c.6904 0 1.25-.5596 1.25-1.25v-4.5227zm7 0v4.5227c0 1.5188-1.2312 2.75-2.75 2.75h-3c-1.5188 0-2.75-1.2312-2.75-2.75v-4.5227h-1.5v-1.5h3v-.9773c0-.9665.7835-1.75 1.75-1.75h2c.9665 0 1.75.7835 1.75 1.75v.9773h3v1.5z"/></g></g></g></svg>