<svg height="512" viewBox="0 0 36 36" width="512" xmlns="http://www.w3.org/2000/svg"><path d="m27.1082 31.8424c-5.5597 2.3827-11.9135 3.177-19.8559-1.5884-9.95313-4.9138.79422-10.3251-.00002-14.2963-.79423-3.9711-2.38271-8.73652 3.17689-11.9135 9.7523-5.57272 12.7078 1.58847 19.0617 5.55964 6.3538 3.97113 3.1769 19.8558-2.3827 22.2385z" fill="#efefef"/><g fill-rule="evenodd"><path d="m4.5 16.8685c.27614 0 .5-.2238.5-.5 0-.2761-.22386-.5-.5-.5s-.5.2239-.5.5c0 .2762.22386.5.5.5zm0 1c.82843 0 1.5-.6715 1.5-1.5 0-.8284-.67157-1.5-1.5-1.5s-1.5.6716-1.5 1.5c0 .8285.67157 1.5 1.5 1.5z" fill="#a4afc1"/><g fill="#f3f3f1"><path d="m8.25 9c0-1.51878 1.23122-2.75 2.75-2.75 1.5188 0 2.75 1.23122 2.75 2.75 0 1.5188-1.2312 2.75-2.75 2.75-1.51878 0-2.75-1.2312-2.75-2.75zm-2 6c0-1.5188 1.23122-2.75 2.75-2.75h4c1.5188 0 2.75 1.2312 2.75 2.75v5.4706c0 .9665-.7835 1.75-1.75 1.75h-.25v5.7794c0 .9665-.7835 1.75-1.75 1.75h-2c-.9665 0-1.75-.7835-1.75-1.75v-5.7794h-.25c-.9665 0-1.75-.7835-1.75-1.75z"/><path d="m20.25 8.875c0-1.44975 1.1753-2.625 2.625-2.625h1.625c1.2426 0 2.25 1.00736 2.25 2.25v.5c0 .41421-.3358.75-.75.75s-.75-.33579-.75-.75v-.5c0-.41421-.3358-.75-.75-.75h-1.625c-.6213 0-1.125.50368-1.125 1.125v2.125c0 .4142-.3358.75-.75.75s-.75-.3358-.75-.75z"/><path d="m19 10.25c-.9665 0-1.75.7835-1.75 1.75v6c0 .9665.7835 1.75 1.75 1.75h9c.9665 0 1.75-.7835 1.75-1.75v-6c0-.9665-.7835-1.75-1.75-1.75z" fill="#2edf84"/><path d="m17.25 12c0-.9665.7835-1.75 1.75-1.75h2c-.9665 0-1.75.7835-1.75 1.75v6c0 .9665.7835 1.75 1.75 1.75h-2c-.9665 0-1.75-.7835-1.75-1.75z" fill="#00b872"/><path d="m23.5 15.75c-.6904 0-1.25-.5596-1.25-1.25s.5596-1.25 1.25-1.25 1.25.5596 1.25 1.25-.5596 1.25-1.25 1.25z"/><path d="m23.5 14.25c.4142 0 .75.3358.75.75v1.5c0 .4142-.3358.75-.75.75s-.75-.3358-.75-.75v-1.5c0-.4142.3358-.75.75-.75z"/><path d="m11 6.25c-1.51878 0-2.75 1.23122-2.75 2.75 0 1.5188 1.23122 2.75 2.75 2.75.3528 0 .6901-.0664 1-.1875-1.0243-.4-1.75-1.3965-1.75-2.5625 0-1.16599.7257-2.16249 1.75-2.56253-.3099-.12104-.6472-.18747-1-.18747zm-2 6c-1.51878 0-2.75 1.2312-2.75 2.75v5.4706c0 .9665.7835 1.75 1.75 1.75h.25v5.7794c0 .9665.7835 1.75 1.75 1.75h2c-.9665 0-1.75-.7835-1.75-1.75v-5.7794h-.25c-.9665 0-1.75-.7835-1.75-1.75v-5.4706c0-1.5188 1.23122-2.75 2.75-2.75z" fill="#d6dbe1"/><g fill="#000"><path d="m11 7.75c-.6904 0-1.25.55964-1.25 1.25s.5596 1.25 1.25 1.25 1.25-.55964 1.25-1.25-.5596-1.25-1.25-1.25zm-2.75 1.25c0-1.51878 1.23122-2.75 2.75-2.75 1.5188 0 2.75 1.23122 2.75 2.75 0 1.5188-1.2312 2.75-2.75 2.75-1.51878 0-2.75-1.2312-2.75-2.75z"/><path d="m9 13.75c-.69036 0-1.25.5596-1.25 1.25v5.4706c0 .1381.11193.25.25.25h1c.41421 0 .75.3358.75.75v6.5294c0 .1381.11193.25.25.25h2c.1381 0 .25-.1119.25-.25v-6.5294c0-.4142.3358-.75.75-.75h1c.1381 0 .25-.1119.25-.25v-5.4706c0-.6904-.5596-1.25-1.25-1.25zm-2.75 1.25c0-1.5188 1.23122-2.75 2.75-2.75h4c1.5188 0 2.75 1.2312 2.75 2.75v5.4706c0 .9665-.7835 1.75-1.75 1.75h-.25v5.7794c0 .9665-.7835 1.75-1.75 1.75h-2c-.9665 0-1.75-.7835-1.75-1.75v-5.7794h-.25c-.9665 0-1.75-.7835-1.75-1.75z"/><path d="m17.25 12c0-.9665.7835-1.75 1.75-1.75h9c.9665 0 1.75.7835 1.75 1.75v6c0 .9665-.7835 1.75-1.75 1.75h-9c-.9665 0-1.75-.7835-1.75-1.75zm1.75-.25c-.1381 0-.25.1119-.25.25v6c0 .1381.1119.25.25.25h9c.1381 0 .25-.1119.25-.25v-6c0-.1381-.1119-.25-.25-.25z"/><path d="m20.25 8.875c0-1.44975 1.1753-2.625 2.625-2.625h1.625c1.2426 0 2.25 1.00736 2.25 2.25h-1.5c0-.41421-.3358-.75-.75-.75h-1.625c-.6213 0-1.125.50368-1.125 1.125v2.875h-1.5z"/><path d="m23.5 14.25c.1381 0 .25.1119.25.25s-.1119.25-.25.25-.25-.1119-.25-.25.1119-.25.25-.25zm-1.25.25c0 .6904.5596 1.25 1.25 1.25s1.25-.5596 1.25-1.25-.5596-1.25-1.25-1.25-1.25.5596-1.25 1.25z"/><path d="m24.25 14.25v3h-1.5v-3z"/></g></g></g></svg>