<svg height="512" viewBox="0 0 36 36" width="512" xmlns="http://www.w3.org/2000/svg"><path d="m12.9438 30.4062c5.7329 1.9449 13.0051-1.3505 15.9246-3.2413 7.9623-4.8621 2.3887-17.0172 0-20.2585-2.3887-3.24136-5.5736-.81034-9.5547.81034-3.9812 1.62068-3.9812-2.43102-10.351-2.43102-6.36983 0-7.96229 10.5344-3.18492 15.3965 4.77733 4.862 0 7.293 7.16603 9.724z" fill="#efefef"/><g fill-rule="evenodd"><path d="m31.5 31.5c.2761 0 .5-.2239.5-.5s-.2239-.5-.5-.5-.5.2239-.5.5.2239.5.5.5zm0 1c.8284 0 1.5-.6716 1.5-1.5s-.6716-1.5-1.5-1.5-1.5.6716-1.5 1.5.6716 1.5 1.5 1.5z" fill="#a4afc1"/><g fill="#f3f3f1"><path d="m15.25 9c0-1.51878 1.2312-2.75 2.75-2.75s2.75 1.23122 2.75 2.75c0 1.5188-1.2312 2.75-2.75 2.75s-2.75-1.2312-2.75-2.75zm-2 6c0-1.5188 1.2312-2.75 2.75-2.75h4c1.5188 0 2.75 1.2312 2.75 2.75v5.4706c0 .9665-.7835 1.75-1.75 1.75h-.25v5.7794c0 .9665-.7835 1.75-1.75 1.75h-2c-.9665 0-1.75-.7835-1.75-1.75v-5.7794h-.25c-.9665 0-1.75-.7835-1.75-1.75z"/><path d="m18 6.25c-1.5188 0-2.75 1.23122-2.75 2.75 0 1.5188 1.2312 2.75 2.75 2.75.3528 0 .6901-.0664 1-.1875-1.0243-.4-1.75-1.3965-1.75-2.5625 0-1.16599.7257-2.16249 1.75-2.56253-.3099-.12104-.6472-.18747-1-.18747zm-2 6c-1.5188 0-2.75 1.2312-2.75 2.75v5.4706c0 .9665.7835 1.75 1.75 1.75h.25v5.7794c0 .9665.7835 1.75 1.75 1.75h2c-.9665 0-1.75-.7835-1.75-1.75v-5.7794h-.25c-.9665 0-1.75-.7835-1.75-1.75v-5.4706c0-1.5188 1.2312-2.75 2.75-2.75z" fill="#d6dbe1"/><path d="m26 7.25c.4142 0 .75.33579.75.75v7c0 .4142-.3358.75-.75.75s-.75-.3358-.75-.75v-7c0-.41421.3358-.75.75-.75z" fill="#2edf84"/><path d="m10 28.75c.4142 0 .75-.3358.75-.75v-7c0-.4142-.3358-.75-.75-.75-.41421 0-.75.3358-.75.75v7c0 .4142.33579.75.75.75z" fill="#2edf84"/><path d="m25.4697 7.46967c.2929-.29289.7677-.29289 1.0606 0l2 2c.2929.29289.2929.76773 0 1.06063s-.7677.2929-1.0606 0l-1.4697-1.46964-1.4697 1.46964c-.2929.2929-.7677.2929-1.0606 0s-.2929-.76774 0-1.06063z" fill="#2edf84"/><path d="m9.46967 28.5303c.29289.2929.76773.2929 1.06063 0l2-2c.2929-.2929.2929-.7677 0-1.0606s-.7677-.2929-1.0606 0l-1.4697 1.4696-1.46967-1.4696c-.29289-.2929-.76777-.2929-1.06066 0s-.29289.7677 0 1.0606z" fill="#2edf84"/><g fill="#000"><path d="m18 7.75c-.6904 0-1.25.55964-1.25 1.25s.5596 1.25 1.25 1.25 1.25-.55964 1.25-1.25-.5596-1.25-1.25-1.25zm-2.75 1.25c0-1.51878 1.2312-2.75 2.75-2.75s2.75 1.23122 2.75 2.75c0 1.5188-1.2312 2.75-2.75 2.75s-2.75-1.2312-2.75-2.75z"/><path d="m16 13.75c-.6904 0-1.25.5596-1.25 1.25v5.4706c0 .1381.1119.25.25.25h1c.4142 0 .75.3358.75.75v6.5294c0 .1381.1119.25.25.25h2c.1381 0 .25-.1119.25-.25v-6.5294c0-.4142.3358-.75.75-.75h1c.1381 0 .25-.1119.25-.25v-5.4706c0-.6904-.5596-1.25-1.25-1.25zm-2.75 1.25c0-1.5188 1.2312-2.75 2.75-2.75h4c1.5188 0 2.75 1.2312 2.75 2.75v5.4706c0 .9665-.7835 1.75-1.75 1.75h-.25v5.7794c0 .9665-.7835 1.75-1.75 1.75h-2c-.9665 0-1.75-.7835-1.75-1.75v-5.7794h-.25c-.9665 0-1.75-.7835-1.75-1.75z"/><path d="m25.25 8h1.5v7.75h-1.5z"/><path d="m9.25 28h1.5v-7.75h-1.5z"/><path d="m25.4698 7.46967c.2929-.29289.7678-.29289 1.0606 0l2.5304 2.53033-1.0607 1.0607-2-2.00004-2 2.00004-1.0606-1.0607z"/><path d="m9.46978 28.5303c.2929.2929.76782.2929 1.06062 0l2.5304-2.5303-1.0607-1.0607-2 2-1.99999-2-1.06066 1.0607z"/></g></g></g></svg>