<svg height="512" viewBox="0 0 36 36" width="512" xmlns="http://www.w3.org/2000/svg"><path d="m32.6225 24.7671c-1.2534 6.2669-14.1005 9.4004-21.9341 7.8336-6.26688-2.35-.78337-9.4003-4.70016-13.3171-2.82444-2.8244-3.13343-10.967 2.35008-14.1005 5.48348-3.13344 25.0675-3.9168 21.9341 4.70017-2.5637 7.05019 3.9168 7.05019 2.3501 14.8838z" fill="#efefef"/><g fill="#90a4ad" fill-rule="evenodd"><path d="m6.29889 31.25-1 1.7321-.86603-.5 1-1.7321z"/><g><path d="m5.06701 29.3845-1.73205-1 .5-.8661 1.73205 1z"/><path d="m10.75 10c0-1.51878 1.2312-2.75 2.75-2.75s2.75 1.23122 2.75 2.75c0 1.5188-1.2312 2.75-2.75 2.75s-2.75-1.2312-2.75-2.75zm-2 5.75c0-1.4716 1.3284-2.5 2.75-2.5h4c1.4216 0 2.75 1.0283 2.75 2.5v4.7868c0 .9884-.8807 1.625-1.75 1.625h-.25v4.9632c0 .9884-.8807 1.625-1.75 1.625h-2c-.8693 0-1.75-.6366-1.75-1.625v-4.9632h-.25c-.86929 0-1.75-.6366-1.75-1.625z" fill="#f3f3f1"/><path d="m13.5 7.25c-1.5188 0-2.75 1.23122-2.75 2.75 0 1.5188 1.2312 2.75 2.75 2.75.3528 0 .6901-.0664 1-.1875-1.0243-.4-1.75-1.3965-1.75-2.5625 0-1.16599.7257-2.16249 1.75-2.56253-.3099-.12104-.6472-.18747-1-.18747zm-2 6c-1.4216 0-2.75 1.0284-2.75 2.5v4.7868c0 .9884.88071 1.625 1.75 1.625h.25v4.9632c0 .9884.8807 1.625 1.75 1.625h2c-.8693 0-1.75-.6366-1.75-1.625v-4.9632h-.25c-.8693 0-1.75-.6366-1.75-1.625v-4.7868c0-1.4716 1.3284-2.5 2.75-2.5z" fill="#d6dbe1"/><path d="m20.5 21.25c.4142 0 .75.3358.75.75v4c0 .4142-.3358.75-.75.75s-.75-.3358-.75-.75v-4c0-.4142.3358-.75.75-.75z" fill="#2edf84"/><path d="m26.5 21.25c.4142 0 .75.3358.75.75v4c0 .4142-.3358.75-.75.75s-.75-.3358-.75-.75v-4c0-.4142.3358-.75.75-.75z" fill="#2edf84"/><path d="m23.5 19.25c.4142 0 .75.3358.75.75v8c0 .4142-.3358.75-.75.75s-.75-.3358-.75-.75v-8c0-.4142.3358-.75.75-.75z" fill="#2edf84"/><g fill="#000"><path d="m13.5 8.75c-.6904 0-1.25.55964-1.25 1.25 0 .6904.5596 1.25 1.25 1.25s1.25-.5596 1.25-1.25c0-.69036-.5596-1.25-1.25-1.25zm-2.75 1.25c0-1.51878 1.2312-2.75 2.75-2.75s2.75 1.23122 2.75 2.75c0 1.5188-1.2312 2.75-2.75 2.75s-2.75-1.2312-2.75-2.75z"/><path d="m11.5 14.75c-.7876 0-1.25.5387-1.25 1v4.7868c0 .0031.0004.007.0038.0141.004.0082.0133.023.033.0402.0403.0352.1134.0707.2132.0707h1c.4142 0 .75.3358.75.75v5.7132c0 .0031.0004.007.0038.0142.004.0082.0133.0229.033.0401.0403.0352.1134.0707.2132.0707h2c.0998 0 .1729-.0355.2132-.0707.0197-.0172.029-.0319.033-.0401.0034-.0072.0038-.0111.0038-.0142v-5.7132c0-.4142.3358-.75.75-.75h1c.0998 0 .1729-.0355.2132-.0707.0197-.0172.029-.032.033-.0402.0034-.0071.0038-.011.0038-.0141v-4.7868c0-.4613-.4624-1-1.25-1zm-2.75 1c0-1.4716 1.3284-2.5 2.75-2.5h4c1.4216 0 2.75 1.0283 2.75 2.5v4.7868c0 .9884-.8807 1.625-1.75 1.625h-.25v4.9632c0 .9884-.8807 1.625-1.75 1.625h-2c-.8693 0-1.75-.6366-1.75-1.625v-4.9632h-.25c-.86929 0-1.75-.6366-1.75-1.625z"/><path d="m21.25 21.25v5.5h-1.5v-5.5z"/><path d="m27.25 21.25v5.5h-1.5v-5.5z"/><path d="m24.25 19.25v9.5h-1.5v-9.5z"/></g></g></g></svg>