<svg height="512" viewBox="0 0 36 36" width="512" xmlns="http://www.w3.org/2000/svg"><path d="m26.0201 17.9798c-5.2513 3.5009 0 6.5642-4.3761 11.6697-4.3762 5.1055-8.7523 4.3762-15.3165-2.1881-6.56422-6.5642 2.91744-9.4816 2.18808-18.2339-.72936-8.75229 14.2529-6.59073 18.9633-3.64679 5.8348 3.64678 5.1055 8.02289-1.4588 12.3991z" fill="#efefef"/><g fill="#90a4ad" fill-rule="evenodd"><path d="m6.06053 10.8586-1.41421 1.4142-.70711-.7071 1.41421-1.4142z"/><g><path d="m5.35335 8.73782-1.41422-1.41421.70711-.70711 1.41421 1.41422z"/><path d="m8.25 9c0-1.51878 1.23122-2.75 2.75-2.75 1.5188 0 2.75 1.23122 2.75 2.75 0 1.5188-1.2312 2.75-2.75 2.75-1.51878 0-2.75-1.2312-2.75-2.75zm-2 6c0-1.5188 1.23122-2.75 2.75-2.75h4c1.5188 0 2.75 1.2312 2.75 2.75v5.4706c0 .9665-.7835 1.75-1.75 1.75h-.25v5.7794c0 .9665-.7835 1.75-1.75 1.75h-2c-.9665 0-1.75-.7835-1.75-1.75v-5.7794h-.25c-.9665 0-1.75-.7835-1.75-1.75z" fill="#f3f3f1"/><path d="m23 6.75c-3.7279 0-6.75 3.02208-6.75 6.75 0 3.7279 3.0221 6.75 6.75 6.75s6.75-3.0221 6.75-6.75c0-3.72792-3.0221-6.75-6.75-6.75z" fill="#2edf84"/><path d="m16.25 13.5c0-3.72792 3.0221-6.75 6.75-6.75.3398 0 .6737.02511 1 .07356-3.2537.4832-5.75 3.28834-5.75 6.67644s2.4963 6.1932 5.75 6.6764c-.3263.0485-.6602.0736-1 .0736-3.7279 0-6.75-3.0221-6.75-6.75z" fill="#00b872"/><path d="m23 9.75c.4142 0 .75.3358.75.75v3c0 .4142-.3358.75-.75.75s-.75-.3358-.75-.75v-3c0-.4142.3358-.75.75-.75z" fill="#f3f3f1"/><path d="m23 15.25c.4142 0 .75.3358.75.75v.5c0 .4142-.3358.75-.75.75s-.75-.3358-.75-.75v-.5c0-.4142.3358-.75.75-.75z" fill="#f3f3f1"/><path d="m11 6.25c-1.51878 0-2.75 1.23122-2.75 2.75 0 1.5188 1.23122 2.75 2.75 2.75.3528 0 .6901-.0664 1-.1875-1.0243-.4-1.75-1.3965-1.75-2.5625 0-1.16599.7257-2.16249 1.75-2.56253-.3099-.12104-.6472-.18747-1-.18747zm-2 6c-1.51878 0-2.75 1.2312-2.75 2.75v5.4706c0 .9665.7835 1.75 1.75 1.75h.25v5.7794c0 .9665.7835 1.75 1.75 1.75h2c-.9665 0-1.75-.7835-1.75-1.75v-5.7794h-.25c-.9665 0-1.75-.7835-1.75-1.75v-5.4706c0-1.5188 1.23122-2.75 2.75-2.75z" fill="#d6dbe1"/><g fill="#000"><path d="m11 7.75c-.6904 0-1.25.55964-1.25 1.25s.5596 1.25 1.25 1.25 1.25-.55964 1.25-1.25-.5596-1.25-1.25-1.25zm-2.75 1.25c0-1.51878 1.23122-2.75 2.75-2.75 1.5188 0 2.75 1.23122 2.75 2.75 0 1.5188-1.2312 2.75-2.75 2.75-1.51878 0-2.75-1.2312-2.75-2.75z"/><path d="m9 13.75c-.69036 0-1.25.5596-1.25 1.25v5.4706c0 .1381.11193.25.25.25h1c.41421 0 .75.3358.75.75v6.5294c0 .1381.11193.25.25.25h2c.1381 0 .25-.1119.25-.25v-6.5294c0-.4142.3358-.75.75-.75h1c.1381 0 .25-.1119.25-.25v-5.4706c0-.6904-.5596-1.25-1.25-1.25zm-2.75 1.25c0-1.5188 1.23122-2.75 2.75-2.75h4c1.5188 0 2.75 1.2312 2.75 2.75v5.4706c0 .9665-.7835 1.75-1.75 1.75h-.25v5.7794c0 .9665-.7835 1.75-1.75 1.75h-2c-.9665 0-1.75-.7835-1.75-1.75v-5.7794h-.25c-.9665 0-1.75-.7835-1.75-1.75z"/><path d="m23 8.25c-2.8995 0-5.25 2.3505-5.25 5.25s2.3505 5.25 5.25 5.25 5.25-2.3505 5.25-5.25-2.3505-5.25-5.25-5.25zm-6.75 5.25c0-3.72792 3.0221-6.75 6.75-6.75s6.75 3.02208 6.75 6.75c0 3.7279-3.0221 6.75-6.75 6.75s-6.75-3.0221-6.75-6.75z"/><path d="m23.75 9.75v4.5h-1.5v-4.5z"/><path d="m23.75 15.25v2h-1.5v-2z"/></g></g></g></svg>