<svg height="512" viewBox="0 0 36 36" width="512" xmlns="http://www.w3.org/2000/svg" xmlns:xlink="http://www.w3.org/1999/xlink"><defs><path id="a" d="m24.6517 9.84835c-1.4645-1.46447-3.8389-1.46447-5.3034 0-1.4644 1.46445-1.4644 3.83885 0 5.30335 1.4645 1.4644 3.8389 1.4644 5.3034 0 1.4644-1.4645 1.4644-3.8389 0-5.30335zm-6.364-1.06066c2.0502-2.05025 5.3744-2.05025 7.4246 0 2.0503 2.05021 2.0503 5.37441 0 7.42461-2.0502 2.0503-5.3744 2.0503-7.4246 0-2.0503-2.0502-2.0503-5.3744 0-7.42461z"/></defs><path d="m15.4101 5.63414c6.5561-2.38406 14.5278.74502 16.3903 4.47006 2.9801 5.9602 0 14.1554-4.4701 17.8804-4.4701 3.7251-10.4302 3.7251-11.1752 1.4901-.745-2.2351-3.7251-2.2351-9.68524-3.7251-5.96013-1.49-2.88581-10.533-.74502-11.1753 7.45016-2.235 1.49004-5.96009 9.68526-8.94016z" fill="#efefef"/><path d="m8.03784 7.30188h-2v-1h2z" fill="#90a4ad" fill-rule="evenodd"/><path d="m9.03735 5.30231v-2h1.00005v2z" fill="#90a4ad" fill-rule="evenodd"/><path d="m25.182 9.31802c1.7573 1.75738 1.7573 4.60658 0 6.36398-1.7574 1.7573-4.6066 1.7573-6.364 0-1.7573-1.7574-1.7573-4.6066 0-6.36398 1.7574-1.75736 4.6066-1.75736 6.364 0z" fill="#2edf84"/><g fill="#00b872" fill-rule="evenodd"><path d="m22.75 8.06258c-.8906.14974-1.7448.56822-2.432 1.25544-1.7573 1.75738-1.7573 4.60658 0 6.36398.6872.6872 1.5414 1.1057 2.432 1.2554-1.3868.2332-2.8618-.1853-3.932-1.2554-1.7573-1.7574-1.7573-4.6066 0-6.36398 1.0702-1.07014 2.5452-1.48862 3.932-1.25544z"/><path d="m11 6.25c-1.51878 0-2.75 1.23122-2.75 2.75 0 1.5188 1.23122 2.75 2.75 2.75 1.5188 0 2.75-1.2312 2.75-2.75 0-1.51878-1.2312-2.75-2.75-2.75z" fill="#f3f3f1"/><path d="m9 12.25c-1.51878 0-2.75 1.2312-2.75 2.75v5.4706c0 .9665.7835 1.75 1.75 1.75h.25v5.7794c0 .9665.7835 1.75 1.75 1.75h2c.9665 0 1.75-.7835 1.75-1.75v-5.7794h.25c.9665 0 1.75-.7835 1.75-1.75v-5.4706c0-1.5188-1.2312-2.75-2.75-2.75z" fill="#f3f3f1"/><use fill="#2edf84" xlink:href="#a"/><path d="m24.7259 15.226c.2929-.2929.7678-.2929 1.0607 0l3.7025 3.7025c.2929.2929.2929.7677 0 1.0606s-.7678.2929-1.0607 0l-3.7025-3.7024c-.2929-.2929-.2929-.7678 0-1.0607z" fill="#2edf84"/><path d="m22 10.25c.4142 0 .75.3358.75.75v3c0 .4142-.3358.75-.75.75s-.75-.3358-.75-.75v-3c0-.4142.3358-.75.75-.75z" fill="#2edf84"/><path d="m24.25 12.5c0 .4142-.3358.75-.75.75h-3c-.4142 0-.75-.3358-.75-.75s.3358-.75.75-.75h3c.4142 0 .75.3358.75.75z" fill="#2edf84"/><path d="m11 6.25c-1.51878 0-2.75 1.23122-2.75 2.75 0 1.5188 1.23122 2.75 2.75 2.75.3528 0 .6901-.0664 1-.1875-1.0243-.4-1.75-1.3965-1.75-2.5625 0-1.16599.7257-2.16249 1.75-2.56253-.3099-.12104-.6472-.18747-1-.18747zm-2 6c-1.51878 0-2.75 1.2312-2.75 2.75v5.4706c0 .9665.7835 1.75 1.75 1.75h.25v5.7794c0 .9665.7835 1.75 1.75 1.75h2c-.9665 0-1.75-.7835-1.75-1.75v-5.7794h-.25c-.9665 0-1.75-.7835-1.75-1.75v-5.4706c0-1.5188 1.23122-2.75 2.75-2.75z" fill="#d6dbe1"/><g fill="#000"><path d="m11 7.75c-.6904 0-1.25.55964-1.25 1.25s.5596 1.25 1.25 1.25 1.25-.55964 1.25-1.25-.5596-1.25-1.25-1.25zm-2.75 1.25c0-1.51878 1.23122-2.75 2.75-2.75 1.5188 0 2.75 1.23122 2.75 2.75 0 1.5188-1.2312 2.75-2.75 2.75-1.51878 0-2.75-1.2312-2.75-2.75z"/><path d="m9 13.75c-.69036 0-1.25.5596-1.25 1.25v5.4706c0 .1381.11193.25.25.25h1c.41421 0 .75.3358.75.75v6.5294c0 .1381.11193.25.25.25h2c.1381 0 .25-.1119.25-.25v-6.5294c0-.4142.3358-.75.75-.75h1c.1381 0 .25-.1119.25-.25v-5.4706c0-.6904-.5596-1.25-1.25-1.25zm-2.75 1.25c0-1.5188 1.23122-2.75 2.75-2.75h4c1.5188 0 2.75 1.2312 2.75 2.75v5.4706c0 .9665-.7835 1.75-1.75 1.75h-.25v5.7794c0 .9665-.7835 1.75-1.75 1.75h-2c-.9665 0-1.75-.7835-1.75-1.75v-5.7794h-.25c-.9665 0-1.75-.7835-1.75-1.75z"/><use xlink:href="#a"/><path d="m25.2561 14.6957 4.7631 4.7631-1.0606 1.0607-4.7632-4.7632z"/><path d="m22.75 10.25v4.5h-1.5v-4.5z"/><path d="m24.25 13.25h-4.5v-1.5h4.5z"/></g></g></svg>