<svg id="Line" height="512" viewBox="0 0 36 36" width="512" xmlns="http://www.w3.org/2000/svg"><path d="m34.928 20.591c-3.693-5.848-3.199-11.778-4.979-14.596s-7.138-7.714-20.103.473-9.84 17.35-7.882 20.45c9.166 14.515 39.504 4.031 32.964-6.327z" fill="#efefef"/><path d="m29.25 6.705c-.827 0-1.5-.673-1.5-1.5s.673-1.5 1.5-1.5 1.5.673 1.5 1.5-.673 1.5-1.5 1.5zm0-2c-.276 0-.5.224-.5.5s.224.5.5.5.5-.224.5-.5-.224-.5-.5-.5z" fill="#a4afc1"/><path d="m28.25 26.25h-20.5c-.552 0-1-.448-1-1v-14.5c0-.552.448-1 1-1h20.5c.552 0 1 .448 1 1v14.5c0 .552-.448 1-1 1z" fill="#f3f3f1"/><path d="m25.25 21.25h-14.5c-.552 0-1-.448-1-1v-6.5c0-.552.448-1 1-1h14.5c.552 0 1 .448 1 1v6.5c0 .552-.448 1-1 1z" fill="#f3f3f1"/><g fill="#2fdf84"><circle cx="14.5" cy="17" r="1.75"/><circle cx="21.5" cy="17" r="1.75"/><path d="m10 26.25 2.826-2.5h10.598l2.826 2.5z"/></g><path d="m9.75 26.25h-2c-.55 0-1-.45-1-1v-14.5c0-.55.45-1 1-1h2c-.55 0-1 .45-1 1v14.5c0 .55.45 1 1 1z" fill="#d5dbe1"/><path d="m28.25 27h-20.5c-.965 0-1.75-.785-1.75-1.75v-14.5c0-.965.785-1.75 1.75-1.75h20.5c.965 0 1.75.785 1.75 1.75v14.5c0 .965-.785 1.75-1.75 1.75zm-20.5-16.5c-.138 0-.25.112-.25.25v14.5c0 .138.112.25.25.25h20.5c.138 0 .25-.112.25-.25v-14.5c0-.138-.112-.25-.25-.25z"/><path d="m25.25 22h-14.5c-.965 0-1.75-.785-1.75-1.75v-6.5c0-.965.785-1.75 1.75-1.75h14.5c.965 0 1.75.785 1.75 1.75v6.5c0 .965-.785 1.75-1.75 1.75zm-14.5-8.5c-.138 0-.25.112-.25.25v6.5c0 .138.112.25.25.25h14.5c.138 0 .25-.112.25-.25v-6.5c0-.138-.112-.25-.25-.25z"/><path d="m14.5 19.5c-1.378 0-2.5-1.122-2.5-2.5s1.122-2.5 2.5-2.5 2.5 1.122 2.5 2.5-1.122 2.5-2.5 2.5zm0-3.5c-.551 0-1 .449-1 1s.449 1 1 1 1-.449 1-1-.449-1-1-1z"/><path d="m21.5 19.5c-1.378 0-2.5-1.122-2.5-2.5s1.122-2.5 2.5-2.5 2.5 1.122 2.5 2.5-1.122 2.5-2.5 2.5zm0-3.5c-.551 0-1 .449-1 1s.449 1 1 1 1-.449 1-1-.449-1-1-1z"/><path d="m25.753 26.812-2.613-2.312h-10.03l-2.613 2.312-.994-1.123 2.826-2.5c.137-.122.314-.189.497-.189h10.598c.183 0 .36.067.497.188l2.826 2.5z"/></svg>