<svg id="Line" height="512" viewBox="0 0 36 36" width="512" xmlns="http://www.w3.org/2000/svg"><path d="m8.377 4.167c6.917 0 11.667-3.583 15-3.583s10.333 1.916 10.333 17.249-9.417 17.583-13.083 17.583c-17.167.001-24.5-31.249-12.25-31.249z" fill="#efefef"/><g fill="#a4afc1"><path d="m32.773 5.368h1v2.001h-1z" transform="matrix(.707 -.707 .707 .707 5.246 25.398)"/><path d="m28.707 1.302h1v2h-1z" transform="matrix(.707 -.707 .707 .707 6.923 21.323)"/><path d="m32.449 1.803h2.001v1h-2.001z" transform="matrix(.707 -.707 .707 .707 8.169 24.327)"/></g><path d="m14.53 21.47 3.47 7.78 3.47-7.78 7.78-3.47-7.78-3.47-3.47-7.78-3.47 7.78-7.78 3.47z" fill="#f3f3f1"/><path d="m17.422 21.788 1.791 4.009c.106.237.106.508 0 .744l-.38.848c-.322.719-1.343.718-1.664-.001l-2.497-5.6c-.092-.205-.256-.369-.461-.461l-5.595-2.496c-.72-.321-.72-1.343 0-1.664l5.595-2.496c.205-.092.369-.256.461-.461l2.497-5.6c.321-.719 1.342-.72 1.664-.001l.38.848c.106.237.106.507 0 .744l-1.791 4.009c-.092.205-.256.369-.461.46l-5.596 2.496c-.72.321-.72 1.343 0 1.664l5.596 2.496c.206.093.37.257.461.462z" fill="#d5dbe1"/><path d="m18 30c-.296 0-.564-.174-.685-.444l-3.354-7.518-7.518-3.353c-.269-.121-.443-.389-.443-.685s.174-.564.444-.685l7.518-3.353 3.354-7.518c.24-.54 1.129-.54 1.369 0l3.354 7.518 7.518 3.353c.269.121.443.389.443.685s-.174.564-.444.685l-7.518 3.353-3.354 7.518c-.12.27-.388.444-.684.444zm-9.409-12 6.245 2.785c.169.076.304.21.379.379l2.785 6.245 2.785-6.244c.075-.169.21-.304.379-.379l6.245-2.786-6.245-2.785c-.169-.076-.304-.21-.379-.379l-2.785-6.245-2.785 6.244c-.075.169-.21.304-.379.379z"/><path d="m17.25 13.093h1.5v9.815h-1.5z" transform="matrix(.707 -.707 .707 .707 -7.456 17.998)"/><path d="m13.093 17.25h9.815v1.5h-9.815z" transform="matrix(.707 -.707 .707 .707 -7.456 18)"/><path d="m11.108 14.462-1.336-.684c.875-1.708 2.298-3.13 4.006-4.006l.684 1.335c-1.43.734-2.621 1.925-3.354 3.355z"/><path d="m22.222 26.228-.684-1.335c1.43-.733 2.621-1.925 3.354-3.354l1.336.684c-.875 1.706-2.298 3.129-4.006 4.005z"/><path d="m13.778 26.228c-1.708-.875-3.131-2.298-4.006-4.006l1.336-.684c.732 1.43 1.924 2.621 3.354 3.354z"/><path d="m24.892 14.462c-.732-1.43-1.924-2.621-3.354-3.354l.684-1.335c1.708.875 3.131 2.298 4.006 4.006z"/></svg>