<svg id="_x31__x2C_5" enable-background="new 0 0 36 36" height="512" viewBox="0 0 36 36" width="512" xmlns="http://www.w3.org/2000/svg"><path d="m27.623 31.833c-6.917 0-11.667 3.583-15 3.583s-10.333-1.916-10.333-17.249 9.417-17.584 13.083-17.584c17.167 0 24.5 31.25 12.25 31.25z" fill="#efefef"/><g fill="#a4afc1"><path d="m19.875 31.75h2v1h-2z"/><path d="m14.125 31.75h2v1h-2z"/><path d="m17.625 34h1v2h-1z"/></g><path d="m29.25 24.35v.15l-11.25 4.75-11.25-4.75v-.15l11.25-4.6z" fill="#2fdf84"/><path d="m29.25 11.5v12.85l-11.25-4.6v-13z" fill="#f3f3f1"/><path d="m18 6.75v13l-11.25 4.6v-12.85z" fill="#f3f3f1"/><path d="m20.25 19.75v-12.05l-2.25-.95v13l11.25 4.6v-.92z" fill="#d5dbe1"/><path d="m9 11.5 9-3.8v-.95l-11.25 4.75v12.85l2.25-.92z" fill="#d5dbe1"/><path d="m28.716 24.944-10.716-4.383-10.716 4.383-.568-1.389 11-4.5c.182-.074.387-.074.568 0l11 4.5z"/><path d="m23.111 16.538-5.111-2.22-5.111 2.22-.598-1.376 5.41-2.35c.191-.083.406-.083.598 0l5.41 2.35z"/><path d="m21.538 17.618-.389-1.449 1.932-.518-.518-1.932 1.449-.388.712 2.656c.107.4-.13.812-.53.919z"/><path d="m14.462 17.618-2.656-.712c-.4-.107-.638-.519-.53-.919l.712-2.656 1.449.388-.518 1.932 1.932.518z"/><path d="m17.25 7h1.5v12.5h-1.5z"/><path d="m18 30c-.1 0-.198-.02-.292-.059l-11.25-4.75c-.277-.117-.458-.39-.458-.691v-13c0-.301.181-.574.458-.691l11.25-4.75c.188-.079.396-.079.584 0l11.25 4.75c.277.117.458.39.458.691v13c0 .301-.181.574-.458.691l-11.25 4.75c-.094.039-.192.059-.292.059zm-10.5-5.998 10.5 4.434 10.5-4.434v-12.004l-10.5-4.434-10.5 4.434z"/></svg>