<svg id="_x31__x2C_5" enable-background="new 0 0 36 36" height="512" viewBox="0 0 36 36" width="512" xmlns="http://www.w3.org/2000/svg"><path d="m4.167 8.377c0 6.917-3.583 11.667-3.583 15s1.916 10.333 17.249 10.333 17.583-9.417 17.583-13.083c.001-17.167-31.249-24.5-31.249-12.25z" fill="#efefef"/><g fill="#a4afc1"><path d="m29.93 5.644h2v1h-2z" transform="matrix(.707 -.707 .707 .707 4.715 23.67)"/><path d="m30.783 9.033h1v2h-1z" transform="matrix(.707 -.707 .707 .707 2.066 25.054)"/><path d="m26.717 4.967h1v2h-1z" transform="matrix(.707 -.707 .707 .707 3.75 20.989)"/></g><circle cx="18" cy="18" fill="#f3f3f1" r="11.25"/><path d="m9 18c0-5.833 4.44-10.629 10.125-11.193-.37-.037-.745-.057-1.125-.057-6.213 0-11.25 5.037-11.25 11.25s5.037 11.25 11.25 11.25c.38 0 .755-.02 1.125-.057-5.685-.564-10.125-5.36-10.125-11.193z" fill="#d5dbe1"/><path d="m18 30c-6.617 0-12-5.383-12-12s5.383-12 12-12 12 5.383 12 12-5.383 12-12 12zm0-22.5c-5.79 0-10.5 4.71-10.5 10.5s4.71 10.5 10.5 10.5 10.5-4.71 10.5-10.5-4.71-10.5-10.5-10.5z"/><path d="m17.787 23.009-.027-1.5.75-.014c.675-.012 1.346-.047 1.993-.104l.747-.066.131 1.495-.747.065c-.682.06-1.387.097-2.097.11zm-1.65-.056-.747-.065c-.719-.062-1.423-.152-2.091-.265l-.739-.125.25-1.479.739.125c.629.106 1.292.19 1.972.25l.747.065zm6.893-.374-.319-1.466.733-.16c.676-.147 1.312-.323 1.889-.521l.709-.244.488 1.418-.709.244c-.633.218-1.325.409-2.059.569zm-12.119-.478-.71-.243c-.759-.26-1.432-.559-2.002-.888l-.649-.375.75-1.299.649.375c.486.281 1.071.539 1.738.768l.709.243zm17.286-1.319-.97-1.144.571-.485c.321-.271.702-.692.702-1.153v-.75l1.499-.044v.75h-.75l.75.01c.001.606-.213 1.468-1.229 2.331zm-22.197-2.01v-.772c0-.566.21-1.421 1.21-2.279l.568-.489.978 1.138-.569.489c-.456.391-.687.775-.687 1.141v.75zm21.684-2.08-.65-.374c-.486-.279-1.071-.537-1.739-.764l-.711-.242.483-1.42.71.242c.761.259 1.435.556 2.005.883l.65.374zm-17.746-.872-.491-1.417.709-.245c.627-.218 1.319-.41 2.056-.571l.733-.161.321 1.465-.732.161c-.68.149-1.315.325-1.888.523zm13.232-.842-.74-.125c-.629-.106-1.292-.189-1.971-.249l-.747-.064.129-1.495.747.065c.72.062 1.423.151 2.092.263l.739.125zm-8.441-.301-.133-1.494.747-.067c.68-.061 1.385-.098 2.098-.112l.749-.014.028 1.5-.75.014c-.677.013-1.347.048-1.992.106z"/><path d="m18.773 30h-.773c-.566 0-1.422-.21-2.28-1.21l-.488-.569 1.139-.977.488.569c.39.456.775.687 1.141.687h.75zm1.822-1.55-1.298-.752.375-.649c.28-.484.539-1.068.768-1.737l.243-.709 1.419.486-.242.709c-.261.761-.561 1.434-.889 2.002zm-6.193-1.896-.245-.709c-.218-.63-.41-1.322-.57-2.058l-.16-.733 1.465-.32.16.733c.148.678.324 1.313.523 1.888l.245.708zm8.098-3.114-1.479-.248.124-.74c.106-.639.19-1.302.249-1.973l.065-.747 1.494.13-.065.748c-.062.709-.15 1.412-.265 2.09zm-9.317-2.035-.066-.747c-.062-.689-.099-1.395-.111-2.097l-.014-.75 1.5-.027.014.75c.012.668.048 1.338.105 1.992l.066.747zm8.324-3.166-.013-.75c-.011-.673-.046-1.343-.104-1.991l-.066-.747 1.494-.133.066.747c.061.685.098 1.391.109 2.099l.013.75zm-6.967-1.95-1.494-.128.064-.748c.062-.714.149-1.417.263-2.091l.123-.74 1.479.248-.124.74c-.105.634-.188 1.297-.247 1.972zm6.574-3.001-.16-.733c-.149-.681-.324-1.316-.521-1.889l-.244-.709 1.418-.488.244.709c.216.628.407 1.32.568 2.057l.16.733zm-5.802-1.87-1.42-.485.242-.709c.26-.761.557-1.435.883-2.002l.374-.65 1.3.747-.373.65c-.278.484-.535 1.069-.764 1.74zm4.326-2.646-.485-.572c-.271-.319-.691-.7-1.153-.7h-.738l-.068-1.476.806-.024c.571 0 1.435.213 2.297 1.23l.484.572z"/></svg>