<svg id="_x31__x2C_5" enable-background="new 0 0 36 36" height="512" viewBox="0 0 36 36" width="512" xmlns="http://www.w3.org/2000/svg"><path d="m4.167 27.623c0-6.917-3.583-11.667-3.583-15s1.916-10.333 17.249-10.333 17.583 9.417 17.583 13.083c.001 17.167-31.249 24.5-31.249 12.25z" fill="#efefef"/><path d="m12.295 4.778c-.827 0-1.5-.673-1.5-1.5s.673-1.5 1.5-1.5 1.5.673 1.5 1.5-.673 1.5-1.5 1.5zm0-2c-.275 0-.5.224-.5.5s.225.5.5.5.5-.224.5-.5-.225-.5-.5-.5z" fill="#a4afc1"/><path d="m25.25 18c-4.833 5.667-9.667 5.667-14.5 0 4.833-5.667 9.667-5.667 14.5 0z" fill="#f3f3f1"/><circle cx="18" cy="18" fill="#f3f3f1" r="1.25"/><g fill="#2fdf84"><path d="m26.75 26.75h2.5v2.5h-2.5z"/><path d="m6.75 26.75h2.5v2.5h-2.5z"/><path d="m26.75 6.75h2.5v2.5h-2.5z"/><path d="m6.75 6.75h2.5v2.75h-2.5z"/></g><path d="m13 18c2.042-2.394 4.083-3.764 6.125-4.135-2.792-.508-5.583.862-8.375 4.135 2.792 3.273 5.583 4.643 8.375 4.135-2.042-.371-4.083-1.741-6.125-4.135z" fill="#d5dbe1"/><path d="m18 20c-1.103 0-2-.897-2-2s.897-2 2-2 2 .897 2 2-.897 2-2 2zm0-2.5c-.275 0-.5.224-.5.5s.225.5.5.5.5-.224.5-.5-.225-.5-.5-.5z"/><path d="m29.25 30h-2.5c-.414 0-.75-.336-.75-.75v-2.5c0-.414.336-.75.75-.75h2.5c.414 0 .75.336.75.75v2.5c0 .414-.336.75-.75.75zm-1.75-1.5h1v-1h-1z"/><path d="m9.25 30h-2.5c-.414 0-.75-.336-.75-.75v-2.5c0-.414.336-.75.75-.75h2.5c.414 0 .75.336.75.75v2.5c0 .414-.336.75-.75.75zm-1.75-1.5h1v-1h-1z"/><path d="m29.25 10h-2.5c-.414 0-.75-.336-.75-.75v-2.5c0-.414.336-.75.75-.75h2.5c.414 0 .75.336.75.75v2.5c0 .414-.336.75-.75.75zm-1.75-1.5h1v-1h-1z"/><path d="m9.25 10.25h-2.5c-.414 0-.75-.336-.75-.75v-2.75c0-.414.336-.75.75-.75h2.5c.414 0 .75.336.75.75v2.75c0 .414-.336.75-.75.75zm-1.75-1.5h1v-1.25h-1z"/><path d="m28.75 27.25h-1.5v-3.5h1.5zm0-5h-1.5v-3.5h1.5zm0-5h-1.5v-3.5h1.5zm0-5h-1.5v-3.5h1.5z"/><path d="m8.75 27.25h-1.5v-3.5h1.5zm0-5h-1.5v-3.5h1.5zm0-5h-1.5v-3.5h1.5zm0-5h-1.5v-3.5h1.5z"/><path d="m27.25 28.75h-3.5v-1.5h3.5zm-5 0h-3.5v-1.5h3.5zm-5 0h-3.5v-1.5h3.5zm-5 0h-3.5v-1.5h3.5z"/><path d="m27.25 8.75h-3.5v-1.5h3.5zm-5 0h-3.5v-1.5h3.5zm-5 0h-3.5v-1.5h3.5zm-5 0h-3.5v-1.5h3.5z"/><path d="m18 23c-2.635 0-5.267-1.519-7.82-4.513-.239-.28-.239-.693 0-.974 5.107-5.989 10.533-5.989 15.641 0 .239.28.239.693 0 .974-2.554 2.994-5.186 4.513-7.821 4.513zm-6.251-5c4.225 4.646 8.277 4.646 12.502 0-4.225-4.646-8.277-4.646-12.502 0z"/></svg>