<svg id="_x31__x2C_5" enable-background="new 0 0 36 36" height="512" viewBox="0 0 36 36" width="512" xmlns="http://www.w3.org/2000/svg"><path d="m27.623 31.833c-6.917 0-11.667 3.583-15 3.583s-10.333-1.916-10.333-17.249 9.417-17.584 13.083-17.584c17.167 0 24.5 31.25 12.25 31.25z" fill="#efefef"/><path d="m31.5 5c-.827 0-1.5-.673-1.5-1.5s.673-1.5 1.5-1.5 1.5.673 1.5 1.5-.673 1.5-1.5 1.5zm0-2c-.275 0-.5.225-.5.5s.225.5.5.5.5-.225.5-.5-.225-.5-.5-.5z" fill="#a4afc1"/><circle cx="18" cy="18" fill="#f3f3f1" r="11.25"/><path d="m29.25 22.063c0 3.551-4.25 7.188-4.25 7.188s-4.25-3.636-4.25-7.188c0-2.382 1.903-4.313 4.25-4.313s4.25 1.931 4.25 4.313z" fill="#2fdf84"/><circle cx="25" cy="22" fill="#f3f3f1" r="1.25"/><path d="m23 22.063c0-1.984 1.328-3.637 3.125-4.14-.361-.102-.733-.173-1.125-.173-2.347 0-4.25 1.931-4.25 4.313 0 3.551 4.25 7.188 4.25 7.188s.486-.419 1.125-1.102c-1.259-1.345-3.125-3.731-3.125-6.086z" fill="#00b871"/><path d="m26 22c0-.19.049-.365.125-.526-.2-.425-.625-.724-1.125-.724-.69 0-1.25.56-1.25 1.25s.56 1.25 1.25 1.25c.5 0 .925-.299 1.125-.724-.076-.161-.125-.336-.125-.526z" fill="#d5dbe1"/><path d="m9 18c0-5.833 4.44-10.629 10.125-11.193-.37-.037-.745-.057-1.125-.057-6.213 0-11.25 5.037-11.25 11.25s5.037 11.25 11.25 11.25c.38 0 .755-.02 1.125-.057-5.685-.564-10.125-5.36-10.125-11.193z" fill="#d5dbe1"/><path d="m25 30c-.174 0-.348-.06-.487-.18-.185-.158-4.513-3.905-4.513-7.757 0-2.792 2.243-5.063 5-5.063s5 2.271 5 5.063c0 3.853-4.328 7.6-4.513 7.758-.139.119-.313.179-.487.179zm0-11.5c-1.93 0-3.5 1.598-3.5 3.563 0 2.482 2.436 5.127 3.5 6.164 1.064-1.037 3.5-3.682 3.5-6.164 0-1.965-1.57-3.563-3.5-3.563z"/><path d="m25 24c-1.103 0-2-.897-2-2s.897-2 2-2 2 .897 2 2-.897 2-2 2zm0-2.5c-.275 0-.5.225-.5.5s.225.5.5.5.5-.225.5-.5-.225-.5-.5-.5z"/><path d="m18 30c-6.617 0-12-5.383-12-12s5.383-12 12-12c5.83 0 10.797 4.159 11.809 9.889l-1.477.262c-.886-5.013-5.23-8.651-10.332-8.651-5.79 0-10.5 4.71-10.5 10.5s4.71 10.5 10.5 10.5z"/><path d="m18 30c-2.336 0-4.335-2.434-5.348-6.51-.426-1.685-.652-3.585-.652-5.49 0-1.912.226-3.805.652-5.493 1.013-4.073 3.012-6.507 5.348-6.507s4.335 2.434 5.348 6.51c.206.793.357 1.616.447 2.438l-1.49.164c-.083-.751-.221-1.502-.41-2.233-.814-3.271-2.341-5.379-3.895-5.379s-3.081 2.108-3.893 5.371c-.397 1.573-.607 3.339-.607 5.109 0 1.803.21 3.575.607 5.146.812 3.266 2.339 5.374 3.893 5.374z"/><path d="m18 13.897c-3.511 0-6.833-.726-9.114-1.991l.729-1.313c2.064 1.146 5.121 1.804 8.386 1.804s6.321-.657 8.386-1.804l.729 1.313c-2.283 1.266-5.605 1.991-9.116 1.991z"/><path d="m17.25 24h1.5v5.21h-1.5z"/><path d="m17.25 6.75h1.5v11.23h-1.5z"/><path d="m6.77 17.23h11.23v1.5h-11.23z"/><path d="m9.613 25.406-.727-1.313c1.19-.659 2.651-1.17 4.342-1.519 1.474-.305 3.007-.465 4.557-.476l.01 1.5c-1.45.01-2.885.159-4.263.444-1.521.315-2.876.787-3.919 1.364z"/></svg>