<svg id="_x31__x2C_5" enable-background="new 0 0 36 36" height="512" viewBox="0 0 36 36" width="512" xmlns="http://www.w3.org/2000/svg"><g><path d="m31.833 8.377c0 6.917 3.583 11.667 3.583 15s-1.916 10.333-17.249 10.333-17.584-9.417-17.584-13.083c0-17.167 31.25-24.5 31.25-12.25z" fill="#efefef"/></g><g><path d="m28.467 1.967h1v2h-1z" fill="#a4afc1" transform="matrix(.707 -.707 .707 .707 6.383 21.348)"/></g><g><path d="m32.533 6.033h1v2h-1z" fill="#a4afc1" transform="matrix(.707 -.707 .707 .707 4.699 25.413)"/></g><g><path d="m31.856 2.467h2v1h-2z" fill="#a4afc1" transform="matrix(.707 -.707 .707 .707 7.525 24.102)"/></g><g><path d="m27.25 28.25h-18.5c-1.105 0-2-.895-2-2v-15h22.5v15c0 1.105-.895 2-2 2z" fill="#f3f3f1"/></g><g><path d="m29.25 11.25h-22.5v-1.5c0-1.105.895-2 2-2h18.5c1.105 0 2 .895 2 2z" fill="#2fdf84"/></g><g><path d="m22.25 18.062c0 3.551-4.25 7.188-4.25 7.188s-4.25-3.636-4.25-7.188c0-2.382 1.903-4.312 4.25-4.312s4.25 1.931 4.25 4.312z" fill="#2fdf84"/></g><g><circle cx="18" cy="18" fill="#2fdf84" r="1.25"/></g><g><path d="m16 18.062c0-1.984 1.328-3.637 3.125-4.14-.361-.101-.733-.172-1.125-.172-2.347 0-4.25 1.931-4.25 4.312 0 3.551 4.25 7.188 4.25 7.188s.486-.419 1.125-1.102c-1.259-1.344-3.125-3.73-3.125-6.086z" fill="#00b871"/></g><g><path d="m9.25 26.25v-15h-2.5v15c0 1.105.895 2 2 2h2.5c-1.105 0-2-.895-2-2z" fill="#d5dbe1"/></g><g><path d="m11 7.75h-2.25c-1.105 0-2 .895-2 2v1.5h2.25v-1.5c0-1.105.895-2 2-2z" fill="#00b871"/></g><g><path d="m19 18c0-.19.049-.365.125-.526-.2-.425-.625-.724-1.125-.724-.69 0-1.25.56-1.25 1.25s.56 1.25 1.25 1.25c.5 0 .925-.299 1.125-.724-.076-.161-.125-.336-.125-.526z" fill="#00b871"/></g><g><path d="m18 26c-.174 0-.348-.06-.487-.18-.185-.158-4.513-3.905-4.513-7.758 0-2.791 2.243-5.062 5-5.062s5 2.271 5 5.062c0 3.853-4.328 7.6-4.513 7.757-.139.121-.313.181-.487.181zm0-11.5c-1.93 0-3.5 1.598-3.5 3.562 0 2.482 2.436 5.126 3.5 6.164 1.064-1.037 3.5-3.682 3.5-6.164 0-1.964-1.57-3.562-3.5-3.562z"/></g><g><path d="m18 20c-1.103 0-2-.897-2-2s.897-2 2-2 2 .897 2 2-.897 2-2 2zm0-2.5c-.275 0-.5.224-.5.5s.225.5.5.5.5-.224.5-.5-.225-.5-.5-.5z"/></g><g><path d="m27.25 29h-18.5c-1.517 0-2.75-1.233-2.75-2.75v-16.5c0-1.517 1.233-2.75 2.75-2.75h18.5c1.517 0 2.75 1.233 2.75 2.75v16.5c0 1.517-1.233 2.75-2.75 2.75zm-18.5-20.5c-.689 0-1.25.561-1.25 1.25v16.5c0 .689.561 1.25 1.25 1.25h18.5c.689 0 1.25-.561 1.25-1.25v-16.5c0-.689-.561-1.25-1.25-1.25z"/></g><g><path d="m6.75 10.5h22.5v1.5h-22.5z"/></g><g><path d="m2 27.5h32v1.5h-32z"/></g></svg>