<svg id="Line" height="512" viewBox="0 0 36 36" width="512" xmlns="http://www.w3.org/2000/svg"><path d="m8.114 5.564c-1.805 6.677-6.504 10.327-7.374 13.545s-.847 10.475 13.955 14.477 19.432-4.501 20.388-8.041c4.481-16.572-23.772-31.807-26.969-19.981z" fill="#efefef"/><path d="m30.728 7.121c-.827 0-1.5-.673-1.5-1.5s.673-1.5 1.5-1.5 1.5.673 1.5 1.5-.673 1.5-1.5 1.5zm0-2c-.276 0-.5.224-.5.5s.224.5.5.5.5-.224.5-.5-.224-.5-.5-.5z" fill="#a4afc1"/><path d="m26.25 15.065c0 6.848-8.25 14.185-8.25 14.185s-8.25-7.337-8.25-14.185c0-4.592 3.694-8.315 8.25-8.315s8.25 3.723 8.25 8.315z" fill="#f3f3f1"/><path d="m22.295 15.75h-9.545l.955 4.5h7.636l1.909-7.5z" fill="#2fdf84"/><path d="m14.75 15.75.95 4.5h-2l-.95-4.5z" fill="#00b871"/><path d="m11.75 15.07c0 5.35 5.05 11.01 7.25 13.22-.61.61-1 .96-1 .96s-8.25-7.34-8.25-14.18c0-4.6 3.69-8.32 8.25-8.32.34 0 .67.02 1 .06-4.09.5-7.25 4-7.25 8.26z" fill="#d5dbe1"/><path d="m18 30c-.178 0-.356-.063-.499-.189-.347-.309-8.501-7.643-8.501-14.746 0-4.998 4.038-9.065 9-9.065s9 4.067 9 9.065c0 7.103-8.154 14.437-8.501 14.745-.143.127-.321.19-.499.19zm0-22.5c-4.136 0-7.5 3.394-7.5 7.565 0 5.478 5.75 11.461 7.5 13.155 1.75-1.694 7.5-7.678 7.5-13.155 0-4.171-3.364-7.565-7.5-7.565z"/><path d="m21.341 21h-7.636c-.354 0-.66-.248-.734-.594l-.955-4.5c-.047-.221.009-.452.151-.628.143-.176.357-.278.583-.278h9.153l.62-2.435 1.454.37-1.909 7.5c-.085.333-.384.565-.727.565zm-7.029-1.5h6.446l.764-3h-7.846z"/><path d="m16 24c-.551 0-1-.448-1-1s.449-1 1-1 1 .448 1 1-.449 1-1 1z"/><path d="m20 24c-.551 0-1-.448-1-1s.449-1 1-1 1 .448 1 1-.449 1-1 1z"/></svg>