<svg id="effect" height="512" viewBox="0 0 36 36" width="512" xmlns="http://www.w3.org/2000/svg"><path d="m34.904 20.355c-3.782-5.791-3.38-11.727-5.203-14.518s-7.256-7.603-20.093.782-9.572 17.5-7.566 20.569c9.388 14.372 39.561 3.423 32.862-6.833z" fill="#efefef"/><path d="m23.5 18.5h1c.552 0 1 .448 1 1v3h3c.552 0 1 .448 1 1v1c0 .552-.448 1-1 1h-3v3c0 .552-.448 1-1 1h-1c-.552 0-1-.448-1-1v-3h-3c-.552 0-1-.448-1-1v-1c0-.552.448-1 1-1h3v-3c0-.552.448-1 1-1z" fill="#2fdf84"/><path d="m21.5 14c0 .23-.02.48-.05.73-.02.13-.04.26-.06.39-.02.12-.05.26-.08.39-.86 3.71-4.43 8.48-6.24 10.72-.17.2-.31.37-.44.53-.07.08-.13.15-.18.22-.29.33-.45.52-.45.52s-.16-.19-.45-.52c-.05-.07-.11-.14-.18-.22-.13-.15-.28-.33-.44-.53-1.81-2.24-5.38-7.01-6.24-10.72-.03-.13-.06-.26-.08-.39s-.04-.26-.06-.39c-.03-.25-.05-.49-.05-.73 0-4.14 3.36-7.5 7.5-7.5s7.5 3.36 7.5 7.5z" fill="#f3f3f1"/><circle cx="14" cy="14" fill="#2fdf84" r="3.5"/><path d="m21.5 25.5h-2c-.55 0-1-.45-1-1v-1c0-.55.45-1 1-1h2c-.55 0-1 .45-1 1v1c0 .55.45 1 1 1z" fill="#00b871"/><path d="m15 17.35c-.32.1-.65.15-1 .15-1.93 0-3.5-1.57-3.5-3.5s1.57-3.5 3.5-3.5c.35 0 .68.05 1 .15-1.44.43-2.5 1.77-2.5 3.35s1.06 2.92 2.5 3.35z" fill="#00b871"/><path d="m14.93 26.23c.03.03.05.06.07.09-.14.16-.26.31-.37.44-.07.08-.13.15-.18.22-.29.33-.45.52-.45.52s-.16-.19-.45-.52c-.05-.07-.11-.14-.18-.22-.13-.15-.28-.33-.44-.53-1.81-2.24-5.38-7.01-6.24-10.72-.03-.13-.06-.26-.08-.39s-.04-.26-.06-.39c-.03-.25-.05-.49-.05-.73 0-4.14 3.36-7.5 7.5-7.5.34 0 .67.02 1 .07-3.67.49-6.5 3.63-6.5 7.43 0 .24.02.48.05.73.02.13.04.26.06.39s.05.26.08.39c.86 3.71 4.43 8.48 6.24 10.72z" fill="#d5dbe1"/><path d="m24.5 30.25h-1c-.965 0-1.75-.785-1.75-1.75v-2.25h-2.25c-.965 0-1.75-.785-1.75-1.75v-1c0-.965.785-1.75 1.75-1.75h2.25v-2.25c0-.965.785-1.75 1.75-1.75h1c.965 0 1.75.785 1.75 1.75v2.25h2.25c.965 0 1.75.785 1.75 1.75v1c0 .965-.785 1.75-1.75 1.75h-2.25v2.25c0 .965-.785 1.75-1.75 1.75zm-5-7c-.138 0-.25.112-.25.25v1c0 .138.112.25.25.25h3c.414 0 .75.336.75.75v3c0 .138.112.25.25.25h1c.138 0 .25-.112.25-.25v-3c0-.414.336-.75.75-.75h3c.138 0 .25-.112.25-.25v-1c0-.138-.112-.25-.25-.25h-3c-.414 0-.75-.336-.75-.75v-3c0-.138-.112-.25-.25-.25h-1c-.138 0-.25.112-.25.25v3c0 .414-.336.75-.75.75z"/><path d="m14 28.25c-.215 0-.42-.092-.563-.254-.313-.355-7.687-8.772-7.687-13.996 0-4.549 3.701-8.25 8.25-8.25s8.25 3.701 8.25 8.25c0 .759-.15 1.616-.445 2.547l-1.43-.454c.249-.784.375-1.488.375-2.093 0-3.722-3.028-6.75-6.75-6.75s-6.75 3.028-6.75 6.75c0 3.889 5.037 10.28 6.75 12.341.273-.33.631-.77 1.038-1.292l1.184.921c-.953 1.225-1.631 1.994-1.66 2.026-.142.162-.347.254-.562.254z"/><path d="m14 18.25c-2.343 0-4.25-1.907-4.25-4.25s1.907-4.25 4.25-4.25 4.25 1.907 4.25 4.25-1.907 4.25-4.25 4.25zm0-7c-1.517 0-2.75 1.233-2.75 2.75s1.233 2.75 2.75 2.75 2.75-1.233 2.75-2.75-1.233-2.75-2.75-2.75z"/><g fill="#a4afc1"><path d="m24.555 3.467h1v2h-1z" transform="matrix(.707 -.707 .707 .707 4.18 19.025)"/><path d="m28.621 7.533h1v2h-1z" transform="matrix(.707 -.707 .707 .707 2.496 23.091)"/><path d="m23.878 8.033h2v1h-2z" transform="matrix(.707 -.707 .707 .707 1.253 20.091)"/><path d="m27.944 3.967h2v1h-2z" transform="matrix(.707 -.707 .707 .707 5.319 21.775)"/></g></svg>