<svg id="_x31__x2C_5" height="512" viewBox="0 0 36 36" width="512" xmlns="http://www.w3.org/2000/svg"><path d="m8.377 31.833c6.917 0 11.667 3.583 15 3.583s10.333-1.916 10.333-17.249-9.417-17.584-13.083-17.584c-17.167 0-24.5 31.25-12.25 31.25z" fill="#efefef"/><g fill="#a4afc1"><path d="m5.773 2.467h2v1h-2z" transform="matrix(.707 -.707 .707 .707 -.114 5.658)"/><path d="m1.707 6.533h2v1h-2z" transform="matrix(.707 -.707 .707 .707 -4.18 3.974)"/><path d="m2.384 1.967h1v2h-1z" transform="matrix(.707 -.707 .707 .707 -1.253 2.908)"/></g><path d="m25.25 14.087c0 5.87-7.25 15.163-7.25 15.163s-7.25-9.293-7.25-15.163c0-4.052 3.246-7.337 7.25-7.337s7.25 3.285 7.25 7.337z" fill="#f3f3f1"/><ellipse cx="18" cy="14" fill="#2fdf84" rx="2.822" ry="3.628" transform="matrix(.707 -.707 .707 .707 -4.627 16.828)"/><path d="m13 14.087c0-3.664 2.657-6.691 6.125-7.24-.368-.058-.741-.097-1.125-.097-4.004 0-7.25 3.285-7.25 7.337 0 5.87 7.25 15.163 7.25 15.163s.45-.577 1.125-1.533c-2.036-2.883-6.125-9.222-6.125-13.63z" fill="#d5dbe1"/><path d="m18.255 15.995c-1.417-1.417-1.672-3.459-.57-4.56.203-.203.445-.344.701-.456-1.094-.395-2.226-.27-2.951.456-1.102 1.102-.847 3.144.57 4.56 1.156 1.156 2.721 1.523 3.859 1.026-.567-.205-1.125-.542-1.609-1.026z" fill="#00b871"/><path d="m18 30c-.231 0-.449-.106-.591-.289-.303-.387-7.409-9.566-7.409-15.624 0-4.459 3.589-8.087 8-8.087s8 3.628 8 8.087c0 6.058-7.106 15.237-7.409 15.625-.142.182-.36.288-.591.288zm0-22.5c-3.584 0-6.5 2.955-6.5 6.587 0 4.585 4.796 11.572 6.5 13.91 1.704-2.338 6.5-9.328 6.5-13.91 0-3.632-2.916-6.587-6.5-6.587z"/><path d="m18.805 17.994c-1.136 0-2.364-.501-3.331-1.468-1.707-1.707-1.963-4.228-.57-5.621 1.392-1.394 3.914-1.137 5.621.57 1.707 1.707 1.963 4.228.57 5.621-.603.604-1.42.898-2.29.898zm-1.613-6.489c-.48 0-.916.149-1.227.46-.794.794-.533 2.397.57 3.5s2.706 1.366 3.5.57c.794-.794.533-2.397-.57-3.5-.671-.671-1.527-1.03-2.273-1.03z"/><path d="m21.15 16.73h-1.5c-.01-.046-.02-.172-.029-.299-.038-.496-.063-.823-.461-1.221-.399-.396-.726-.422-1.221-.463-.609-.05-1.368-.113-2.157-.895-.778-.789-.846-1.54-.901-2.143-.01-.106-.019-.212-.034-.318l1.486-.203c.018.128.029.257.041.385.045.493.075.819.47 1.219.395.392.722.419 1.217.459.609.05 1.368.113 2.157.895.793.793.854 1.589.898 2.17.008.104.016.208.028.313z"/></svg>