<svg id="_x31__x2C_5" enable-background="new 0 0 36 36" height="512" viewBox="0 0 36 36" width="512" xmlns="http://www.w3.org/2000/svg"><path d="m4.167 8.377c0 6.917-3.583 11.667-3.583 15s1.916 10.333 17.249 10.333 17.583-9.417 17.583-13.083c.001-17.167-31.249-24.5-31.249-12.25z" fill="#efefef"/><path d="m27.5 13c-.827 0-1.5-.673-1.5-1.5s.673-1.5 1.5-1.5 1.5.673 1.5 1.5-.673 1.5-1.5 1.5zm0-2c-.275 0-.5.225-.5.5s.225.5.5.5.5-.225.5-.5-.225-.5-.5-.5z" fill="#a4afc1"/><path d="m26.09 15.89-2.84-2.71v-5.43h-3v2.57l-3.75-3.57-9.59 9.14c-.1.09-.16.22-.16.36 0 .28.22.5.5.5h2.5v7c0 .828.672 1.5 1.5 1.5h11c.552 0 1-.448 1-1v-7.5h2.5c.28 0 .5-.22.5-.5 0-.14-.06-.27-.16-.36z" fill="#f3f3f1"/><path d="m29.25 22.062c0 3.551-4.25 7.188-4.25 7.188s-4.25-3.636-4.25-7.188c0-2.382 1.903-4.312 4.25-4.312s4.25 1.931 4.25 4.312z" fill="#2fdf84"/><circle cx="25" cy="22" fill="#f3f3f1" r="1.25"/><g fill="#d5dbe1"><path d="m22.5 10.32v-2.57h-2.25v.428z"/><path d="m12 23.75v-7h-2.25v7c0 .828.672 1.5 1.5 1.5h2.25c-.828 0-1.5-.672-1.5-1.5z"/><path d="m9 16.25c0-.14.06-.27.16-.36l8.466-8.068-1.126-1.072-9.59 9.14c-.1.09-.16.22-.16.36 0 .28.22.5.5.5h2.25c-.28 0-.5-.22-.5-.5z"/></g><path d="m23 22.062c0-1.984 1.328-3.637 3.125-4.14-.361-.101-.733-.172-1.125-.172-2.347 0-4.25 1.931-4.25 4.312 0 3.551 4.25 7.188 4.25 7.188s.486-.419 1.125-1.102c-1.259-1.344-3.125-3.73-3.125-6.086z" fill="#00b871"/><path d="m25 30c-.174 0-.348-.06-.487-.18-.185-.158-4.513-3.905-4.513-7.758 0-2.791 2.243-5.062 5-5.062s5 2.271 5 5.062c0 3.853-4.328 7.6-4.513 7.758-.139.12-.313.18-.487.18zm0-11.5c-1.93 0-3.5 1.598-3.5 3.562 0 2.482 2.436 5.127 3.5 6.164 1.064-1.037 3.5-3.682 3.5-6.164 0-1.964-1.57-3.562-3.5-3.562z"/><path d="m25 24c-1.103 0-2-.897-2-2s.897-2 2-2 2 .897 2 2-.897 2-2 2zm0-2.5c-.275 0-.5.225-.5.5s.225.5.5.5.5-.225.5-.5-.225-.5-.5-.5z"/><path d="m18.25 26h-7c-1.24 0-2.25-1.01-2.25-2.25v-6.25h-1.75c-.689 0-1.25-.561-1.25-1.25 0-.349.148-.684.407-.917l9.575-9.126c.289-.275.744-.275 1.035 0l2.483 2.363v-.82c0-.414.336-.75.75-.75h3c.414 0 .75.336.75.75v5.108l1.104 1.055-1.035 1.085-1.336-1.275c-.148-.142-.232-.338-.232-.543v-4.68h-1.501v1.82c0 .3-.179.571-.454.689-.275.12-.595.061-.813-.146l-3.233-3.077-8.618 8.214h1.868c.414 0 .75.336.75.75v7c0 .413.337.75.75.75h7zm-10.815-9.574-.007.007c.002-.002.004-.004.007-.007z"/></svg>