<svg height="512" viewBox="0 0 36 36" width="512" xmlns="http://www.w3.org/2000/svg"><path d="m11.2329 32.6225c-6.2669-1.2534-9.40038-14.1005-7.83364-21.9341 2.35008-6.26687 9.40034-.78337 13.3171-4.70016 2.8244-2.82444 10.967-3.13343 14.1005 2.35009 3.1334 5.48347 3.9168 25.0675-4.7002 21.9341-7.0502-2.5637-7.0502 3.9168-14.8838 2.3501z" fill="#efefef"/><path d="m11.4331 4.5c.2761 0 .5-.22386.5-.5s-.2239-.5-.5-.5-.5.22386-.5.5.2239.5.5.5zm0 1c.8284 0 1.5-.67157 1.5-1.5s-.6716-1.5-1.5-1.5-1.49999.67157-1.49999 1.5.67159 1.5 1.49999 1.5z" fill="#a4afc1" fill-rule="evenodd"/><g fill="#f3f3f1"><path d="m19.4054 19.7289c-3.9333-.5768-8.007.0933-11.6145 2.0104-.54139.2877-.87978.8507-.87978 1.4638v3.6718c0 .9665.78351 1.75 1.75 1.75h14.201c-.0018-.0028-.0036-.0056-.0054-.0084-.3825-.5889-.8943-1.4004-1.408-2.2858-.5112-.8814-1.0367-1.8573-1.4382-2.7709-.379-.8629-.7305-1.8489-.7305-2.6848 0-.3936.0433-.7772.1254-1.1461z"/><path d="m16.7393 7.375c-2.8995 0-5.25 2.35051-5.25 5.25 0 2.8995 2.3505 5.25 5.25 5.25s5.25-2.3505 5.25-5.25c0-2.89949-2.3505-5.25-5.25-5.25z" fill-rule="evenodd"/></g><g fill-rule="evenodd"><path d="m23.9128 29.3011c.0001.0001.0001.0002.6172-.4261l-.6171.4263c.1401.2027.3707.3237.6171.3237s.4771-.121.6171-.3237l-.6171-.4263c.6171.4263.6172.4262.6172.4261l.0003-.0003.0007-.001.0024-.0036.0092-.0134.0347-.0508c.0302-.0442.0741-.1089.1298-.1916.1113-.1656.2698-.4038.4597-.6962.3795-.5843.8866-1.3884 1.3948-2.2644.5067-.8736 1.022-1.8315 1.4129-2.7211.3773-.8589.6883-1.7611.6883-2.4837 0-2.6234-2.1266-4.75-4.75-4.75-2.6233 0-4.75 2.1266-4.75 4.75 0 .7226.3111 1.6248.6884 2.4837.3908.8896.9061 1.8475 1.4129 2.7211.5082.876 1.0153 1.6801 1.3947 2.2644.19.2924.3485.5306.4598.6962.0556.0827.0995.1474.1297.1916l.0347.0508.0092.0134.0025.0036.0007.001z" fill="#2edf84"/><g fill="#00b872"><path d="m24.53 28.875c-.6171.4263-.6171.4262-.6172.4261l-.0002-.0003-.0007-.001-.0025-.0036-.0092-.0134-.0347-.0508c-.0302-.0442-.0741-.1089-.1297-.1916-.1113-.1656-.2698-.4038-.4598-.6962-.3794-.5843-.8865-1.3884-1.3947-2.2644-.5068-.8736-1.0221-1.8315-1.4129-2.7211-.3773-.8589-.6884-1.7611-.6884-2.4837 0-2.6234 2.1267-4.75 4.75-4.75.3431 0 .6776.0364 1 .1054-2.1431.4593-3.75 2.3643-3.75 4.6446 0 .7226.3111 1.6248.6884 2.4837.3908.8896.9061 1.8475 1.4129 2.7211.5082.876 1.0153 1.6801 1.3947 2.2644.0928.1428.1781.2727.254.3875-.0795.1203-.1488.224-.2057.3087-.0557.0827-.0996.1474-.1298.1916l-.0347.0508-.0092.0134-.0024.0036-.0007.001-.0003.0003c0 .0001-.0001.0002-.6172-.4261zm0 0 .6171.4263c-.14.2027-.3707.3237-.6171.3237s-.477-.121-.6171-.3237z"/><path d="m24.53 19.625c-.6903 0-1.25.5596-1.25 1.25s.5597 1.25 1.25 1.25c.6904 0 1.25-.5596 1.25-1.25s-.5596-1.25-1.25-1.25z" fill="#f3f3f1"/><path d="m11.4331 12.625c0-2.89949 2.3505-5.25 5.25-5.25.4308 0 .8494.05188 1.25.14972-2.296.56078-4 2.63158-4 5.10028s1.704 4.5395 4 5.1003c-.4006.0978-.8192.1497-1.25.1497-2.8995 0-5.25-2.3505-5.25-5.25z" fill="#d6dbe1"/><path d="m9.41113 23.2031c0-.6131.33839-1.1761.87977-1.4638 2.3939-1.2721 4.993-1.9952 7.6202-2.1692-3.4596-.229-6.9678.494-10.1202 2.1692-.54139.2877-.87978.8507-.87978 1.4638v3.6718c0 .9665.78351 1.75 1.75 1.75h2.49997c-.9665 0-1.74997-.7835-1.74997-1.75v-3.6718z" fill="#d6dbe1"/><g fill="#000"><path d="m16.7393 8.875c-2.0711 0-3.75 1.6789-3.75 3.75s1.6789 3.75 3.75 3.75c2.071 0 3.75-1.6789 3.75-3.75s-1.679-3.75-3.75-3.75zm-5.25 3.75c0-2.89949 2.3505-5.25 5.25-5.25s5.25 2.35051 5.25 5.25c0 2.8995-2.3505 5.25-5.25 5.25s-5.25-2.3505-5.25-5.25z"/><path d="m16.986 21.0318c-2.9147-.0543-5.8396.623-8.49121 2.0321-.05148.0273-.08366.0809-.08366.1392v3.6718c0 .1381.11193.25.25.25h9.08887v1.5h-9.08887c-.96649 0-1.75-.7835-1.75-1.75v-3.6718c0-.6131.33839-1.1761.87978-1.4638 2.88009-1.5305 6.05749-2.2663 9.22309-2.2072l.7499.014-.028 1.4997z"/><path d="m24.53 17.625c-1.7949 0-3.25 1.4551-3.25 3.25 0 .3819.189 1.032.5617 1.8803.3591.8175.8438 1.7215 1.3371 2.5718.49.8448.9812 1.6239 1.3512 2.1939.3701-.57.8612-1.3491 1.3513-2.1939.4932-.8503.9779-1.7543 1.3371-2.5718.3727-.8483.5616-1.4984.5616-1.8803 0-1.7949-1.455-3.25-3.25-3.25zm0 11.25c-.6171.4263-.6171.4262-.6172.4261l-.0034-.0049-.0092-.0134-.0347-.0508c-.0302-.0442-.0741-.1089-.1297-.1916-.1113-.1656-.2698-.4038-.4598-.6962-.3794-.5843-.8865-1.3884-1.3947-2.2644-.5068-.8736-1.0221-1.8315-1.4129-2.7211-.3773-.8589-.6884-1.7611-.6884-2.4837 0-2.6234 2.1267-4.75 4.75-4.75 2.6234 0 4.75 2.1266 4.75 4.75 0 .7226-.311 1.6248-.6883 2.4837-.3909.8896-.9062 1.8475-1.4129 2.7211-.5082.876-1.0153 1.6801-1.3948 2.2644-.1899.2924-.3484.5306-.4597.6962-.0557.0827-.0996.1474-.1298.1916l-.0347.0508-.0092.0134-.0031.0046c-.0001.0001-.0004.0005-.6175-.4258zm0 0 .6175.4258c-.1401.2027-.3711.3242-.6175.3242s-.4772-.1212-.6172-.3239z"/><path d="m24.53 21.125c.1381 0 .25-.1119.25-.25s-.1119-.25-.25-.25c-.138 0-.25.1119-.25.25s.112.25.25.25zm-1.25-.25c0-.6904.5597-1.25 1.25-1.25.6904 0 1.25.5596 1.25 1.25s-.5596 1.25-1.25 1.25c-.6903 0-1.25-.5596-1.25-1.25z"/></g></g></g></svg>