<svg id="_x31__x2C_5" enable-background="new 0 0 36 36" height="512" viewBox="0 0 36 36" width="512" xmlns="http://www.w3.org/2000/svg"><path d="m13.411 34.999c6.298-2.859 12.105-1.559 15.14-2.936 3.035-1.378 8.617-6.016 2.28-19.978s-15.841-12.12-19.18-10.605c-15.632 7.095-9.395 38.582 1.76 33.519z" fill="#efefef"/><path d="m29.083 7.052c-.827 0-1.5-.673-1.5-1.5s.673-1.5 1.5-1.5 1.5.673 1.5 1.5-.672 1.5-1.5 1.5zm0-2c-.276 0-.5.225-.5.5s.224.5.5.5.5-.225.5-.5-.224-.5-.5-.5z" fill="#a4afc1"/><path d="m29.249 22.063c0 3.551-4.25 7.188-4.25 7.188s-4.25-3.636-4.25-7.188c0-2.382 1.903-4.313 4.25-4.313s4.25 1.931 4.25 4.313z" fill="#2fdf84"/><path d="m16.249 18.27v5c0 .54-.46.98-1.04.98h-7.42c-.7 0-1.2-.65-.99-1.28l3.23-9.54s1.22 4.86 6.22 4.84z" fill="#f3f3f1"/><path d="m11.722 6.75 9.527 9.527c-2.631 2.631-6.896 2.631-9.527 0-2.631-2.631-2.631-6.896 0-9.527z" fill="#2fdf84"/><circle cx="24.999" cy="22" fill="#d5dbe1" r="1.25"/><path d="m22.749 22.063c0-2.03 1.388-3.722 3.25-4.18-.322-.079-.654-.133-1-.133-2.347 0-4.25 1.931-4.25 4.313 0 3.551 4.25 7.188 4.25 7.188s.422-.362 1-.967c-1.256-1.317-3.25-3.789-3.25-6.221z" fill="#00b871"/><circle cx="24.999" cy="22" fill="#d5dbe1" r="1.25"/><path d="m8.924 22.97 2.389-7.055c-.965-1.232-1.284-2.485-1.284-2.485l-3.23 9.54c-.21.63.29 1.28.99 1.28h2.125c-.7 0-1.2-.65-.99-1.28z" fill="#d5dbe1"/><path d="m13.847 16.277c-2.265-2.265-2.575-5.739-.939-8.341l-1.186-1.186c-2.631 2.631-2.631 6.896 0 9.527 1.587 1.587 3.767 2.209 5.826 1.882-1.354-.215-2.657-.838-3.701-1.882z" fill="#00b871"/><path d="m24.999 30c-.174 0-.347-.06-.487-.18-.185-.158-4.513-3.905-4.513-7.758 0-2.791 2.243-5.063 5-5.063s5 2.271 5 5.063c0 3.853-4.328 7.6-4.513 7.758-.14.12-.313.18-.487.18zm0-11.5c-1.93 0-3.5 1.598-3.5 3.563 0 2.482 2.436 5.127 3.5 6.164 1.064-1.037 3.5-3.682 3.5-6.164 0-1.965-1.57-3.563-3.5-3.563z"/><path d="m24.999 24c-1.103 0-2-.897-2-2s.897-2 2-2 2 .897 2 2-.897 2-2 2zm0-2.5c-.276 0-.5.225-.5.5s.224.5.5.5.5-.225.5-.5-.224-.5-.5-.5z"/><path d="m15.438 10h3.621v1.5h-3.621z" transform="matrix(.707 -.707 .707 .707 -2.549 15.346)"/><path d="m16.479 19c-1.999 0-3.877-.777-5.29-2.189-1.412-1.413-2.19-3.292-2.19-5.291 0-2.017.778-3.899 2.192-5.302.293-.292.766-.291 1.059.002l9.07 9.07-1.061 1.061-8.509-8.509c-.812 1.039-1.251 2.319-1.251 3.678 0 1.599.622 3.102 1.75 4.23s2.631 1.75 4.229 1.75c.716 0 1.401-.122 2.035-.361l.531 1.402c-.803.305-1.667.459-2.565.459z"/><path d="m15.209 25h-7.42c-.582 0-1.129-.277-1.464-.742-.324-.449-.411-1.005-.237-1.525l3.231-9.543 1.421.48-3.23 9.54c-.019.057-.008.115.032.171.025.036.101.119.247.119h7.42c.16 0 .29-.104.29-.23v-5h1.5v5c0 .954-.803 1.73-1.79 1.73z"/><path d="m21.999 11.25h-1.5c0-2.067-1.682-3.75-3.75-3.75v-1.5c2.895 0 5.25 2.355 5.25 5.25z"/></svg>