<svg id="_x31__x2C_5" enable-background="new 0 0 36 36" height="512" viewBox="0 0 36 36" width="512" xmlns="http://www.w3.org/2000/svg"><path d="m31.833 27.623c0-6.917 3.583-11.667 3.583-15s-1.916-10.333-17.249-10.333-17.584 9.417-17.584 13.083c0 17.167 31.25 24.5 31.25 12.25z" fill="#efefef"/><g fill="#a4afc1"><path d="m6.033 2.467h2v1h-2z" transform="matrix(.707 -.707 .707 .707 -.038 5.842)"/><path d="m1.967 6.533h2v1h-2z" transform="matrix(.707 -.707 .707 .707 -4.104 4.158)"/><path d="m2.644 1.967h1v2h-1z" transform="matrix(.707 -.707 .707 .707 -1.177 3.091)"/></g><circle cx="18" cy="18" fill="#f3f3f1" r="11.25"/><circle cx="18" cy="18" fill="#2fdf84" r="6.25"/><circle cx="18" cy="18" fill="#f3f3f1" r="2.25"/><path d="m19.227 19.227 9.546 3.182-4.596 1.768-1.768 4.596z" fill="#2fdf84"/><path d="m14 18c0-3.067 2.211-5.613 5.125-6.144-.365-.066-.74-.106-1.125-.106-3.452 0-6.25 2.798-6.25 6.25s2.798 6.25 6.25 6.25c.385 0 .76-.04 1.125-.106-2.914-.531-5.125-3.077-5.125-6.144z" fill="#00b871"/><path d="m21.758 20.071-2.531-.844 3.182 9.546 1.205-3.134z" fill="#00b871"/><path d="m9 18c0-5.833 4.44-10.629 10.125-11.193-.37-.037-.745-.057-1.125-.057-6.213 0-11.25 5.037-11.25 11.25s5.037 11.25 11.25 11.25c.38 0 .755-.02 1.125-.057-5.685-.564-10.125-5.36-10.125-11.193z" fill="#d5dbe1"/><path d="m18 18c0-.831.455-1.548 1.125-1.938-.332-.193-.713-.312-1.125-.312-1.243 0-2.25 1.007-2.25 2.25s1.007 2.25 2.25 2.25c.412 0 .793-.119 1.125-.312-.67-.39-1.125-1.107-1.125-1.938z" fill="#d5dbe1"/><path d="m22.409 29.523c-.006 0-.012 0-.017 0-.316-.007-.595-.212-.695-.513l-3.183-9.546c-.09-.27-.02-.567.182-.768.201-.2.497-.271.768-.181l9.547 3.182c.3.1.505.378.513.694.007.316-.186.604-.48.717l-4.286 1.648-1.647 4.285c-.113.292-.392.482-.702.482zm-1.997-9.11 2.048 6.14 1.017-2.645c.076-.198.232-.355.431-.431l2.646-1.017z"/><path d="m18 30c-6.617 0-12-5.383-12-12s5.383-12 12-12 12 5.383 12 12c0 .491-.032.985-.097 1.468l-1.486-.196c.055-.418.083-.846.083-1.272 0-5.79-4.71-10.5-10.5-10.5s-10.5 4.71-10.5 10.5 4.71 10.5 10.5 10.5c.43 0 .856-.028 1.271-.083l.199 1.487c-.481.064-.975.096-1.47.096z"/><path d="m17.699 24.99c-3.757-.158-6.699-3.229-6.699-6.99 0-3.86 3.141-7 7-7 3.761 0 6.831 2.942 6.989 6.698l-1.498.063c-.125-2.95-2.537-5.261-5.491-5.261-3.032 0-5.5 2.467-5.5 5.5 0 2.955 2.312 5.367 5.262 5.491z"/><path d="m15.662 19.876c-.427-.538-.662-1.205-.662-1.876 0-1.654 1.346-3 3-3 .682 0 1.33.229 1.876.663l-.932 1.175c-.194-.154-.515-.338-.944-.338-.827 0-1.5.673-1.5 1.5 0 .429.184.75.338.944z"/></svg>