<svg id="_x31__x2C_5" enable-background="new 0 0 36 36" height="512" viewBox="0 0 36 36" width="512" xmlns="http://www.w3.org/2000/svg"><path d="m8.377 4.167c6.917 0 11.667-3.583 15-3.583s10.333 1.916 10.333 17.249-9.417 17.583-13.083 17.583c-17.167.001-24.5-31.249-12.25-31.249z" fill="#efefef"/><g fill="#a4afc1"><path d="m27.467 6.967h1v2h-1z" transform="matrix(.707 -.707 .707 .707 2.558 22.109)"/><path d="m31.533 11.033h1v2h-1z" transform="matrix(.707 -.707 .707 .707 .874 26.175)"/><path d="m30.857 7.467h2v1h-2z" transform="matrix(.707 -.707 .707 .707 3.697 24.859)"/></g><circle cx="16" cy="16" fill="#f3f3f1" r="9.25"/><circle cx="25" cy="22" fill="#f3f3f1" r="1.25"/><path d="m15.39 10.61v.87c0 1.53-1.07 2.84-2.56 3.16-.58.12-1.08.44-1.44.87-.36.44-.56.98-.57 1.58-.01.66-.28 1.25-.71 1.68-.44.43-1.03.7-1.7.7h-.98c-.44-1.07-.68-2.24-.68-3.47 0-4.28 2.91-7.89 6.86-8.94 1.11.83 1.78 2.15 1.78 3.55z" fill="#2fdf84"/><path d="m24.82 13.19-2.1.26c-.13.01-.25.02-.37.02-1.04 0-2.01-.55-2.56-1.45-.85-1.42-1.06-3.13-.6-4.71 2.67.98 4.76 3.16 5.63 5.88z" fill="#2fdf84"/><path d="m29.25 22.062c0 3.551-4.25 7.188-4.25 7.188s-4.25-3.636-4.25-7.188c0-2.382 1.903-4.312 4.25-4.312s4.25 1.931 4.25 4.312z" fill="#2fdf84"/><path d="m9 16c0-4.727 3.548-8.619 8.125-9.175-.37-.045-.743-.075-1.125-.075-5.109 0-9.25 4.141-9.25 9.25s4.141 9.25 9.25 9.25c.382 0 .755-.03 1.125-.075-4.577-.556-8.125-4.448-8.125-9.175z" fill="#d5dbe1"/><path d="m26 22c0-.19.049-.365.125-.526-.2-.425-.625-.724-1.125-.724-.69 0-1.25.56-1.25 1.25s.56 1.25 1.25 1.25c.5 0 .925-.299 1.125-.724-.076-.161-.125-.336-.125-.526z" fill="#d5dbe1"/><path d="m9 16c0-3.675 2.148-6.85 5.254-8.341-.194-.218-.407-.422-.644-.599-3.95 1.05-6.86 4.66-6.86 8.94 0 1.23.24 2.4.68 3.47h.98c.427 0 .816-.119 1.16-.31-.364-.986-.57-2.046-.57-3.16z" fill="#00b871"/><path d="m22.04 12.02c-.661-1.104-.929-2.382-.803-3.639-.632-.436-1.315-.802-2.047-1.071-.46 1.58-.25 3.29.6 4.71.55.9 1.52 1.45 2.56 1.45.12 0 .24-.01.37-.02l1.009-.125c-.69-.214-1.298-.665-1.689-1.305z" fill="#00b871"/><path d="m23 22.062c0-1.984 1.328-3.637 3.125-4.14-.361-.101-.733-.172-1.125-.172-2.347 0-4.25 1.931-4.25 4.312 0 3.551 4.25 7.188 4.25 7.188s.486-.419 1.125-1.102c-1.259-1.344-3.125-3.73-3.125-6.086z" fill="#00b871"/><path d="m25 30c-.174 0-.348-.06-.487-.18-.185-.158-4.513-3.905-4.513-7.758 0-2.791 2.243-5.062 5-5.062s5 2.271 5 5.062c0 3.853-4.328 7.6-4.513 7.758-.139.12-.313.18-.487.18zm0-11.5c-1.93 0-3.5 1.598-3.5 3.562 0 2.482 2.436 5.127 3.5 6.164 1.064-1.037 3.5-3.682 3.5-6.164 0-1.964-1.57-3.562-3.5-3.562z"/><path d="m25 24c-1.103 0-2-.897-2-2s.897-2 2-2 2 .897 2 2-.897 2-2 2zm0-2.5c-.275 0-.5.225-.5.5s.225.5.5.5.5-.225.5-.5-.225-.5-.5-.5z"/><path d="m8.41 20.22h-.98v-1.5h.98c.917 0 1.646-.721 1.66-1.642.025-1.555 1.098-2.859 2.607-3.173 1.35-.289 1.787-1.409 1.928-2.051.339-1.551-.269-3.315-1.444-4.194l.898-1.201c1.65 1.234 2.478 3.585 2.011 5.716-.37 1.691-1.493 2.857-3.083 3.198-.674.14-1.401.74-1.417 1.729-.026 1.719-1.444 3.118-3.16 3.118z"/><path d="m22.439 14.209c-1.228 0-2.257-.491-3.021-1.431-1.146-1.411-1.527-3.693-.948-5.679l1.439.42c-.433 1.485-.149 3.3.674 4.312.521.644 1.221.934 2.078.87l2.066-.256.184 1.488-2.101.26c-.124.011-.248.016-.371.016z"/><path d="m16 26c-5.514 0-10-4.486-10-10s4.486-10 10-10c4.935 0 9.086 3.528 9.87 8.391l-1.48.238c-.667-4.131-4.196-7.129-8.39-7.129-4.687 0-8.5 3.813-8.5 8.5s3.813 8.5 8.5 8.5c.642 0 1.258-.069 1.883-.212l.334 1.463c-.727.165-1.472.249-2.217.249z"/></svg>