<svg id="_x31__x2C_5" enable-background="new 0 0 36 36" height="512" viewBox="0 0 36 36" width="512" xmlns="http://www.w3.org/2000/svg"><path d="m4.167 27.623c0-6.917-3.583-11.667-3.583-15s1.916-10.333 17.249-10.333 17.583 9.417 17.583 13.083c.001 17.167-31.249 24.5-31.249 12.25z" fill="#efefef"/><g fill="#a4afc1"><path d="m7.033 2.467h2v1h-2z" transform="matrix(.707 -.707 .707 .707 .255 6.549)"/><path d="m2.967 6.533h2v1h-2z" transform="matrix(.707 -.707 .707 .707 -3.811 4.865)"/><path d="m3.644 1.967h1v2h-1z" transform="matrix(.707 -.707 .707 .707 -.885 3.798)"/></g><path d="m11.75 9.75h15.5c1.1 0 2 .9 2 2v15.5c0 1.1-.9 2-2 2h-15.5c-1.1 0-2-.9-2-2v-15.5c0-1.105.895-2 2-2z" fill="#f3f3f1"/><circle cx="25" cy="14" fill="#2fdf84" r="1.25"/><circle cx="19" cy="25" fill="#2fdf84" r="1.25"/><path d="m15.25 11.062c0 3.551-4.25 7.188-4.25 7.188s-4.25-3.636-4.25-7.188c0-2.381 1.903-4.312 4.25-4.312s4.25 1.931 4.25 4.312z" fill="#2fdf84"/><circle cx="11" cy="11" fill="#f3f3f1" r="1.25"/><path d="m12 27.25v-9.5l-2.25-.25v9.75c0 1.1.9 2 2 2h2.25c-1.1 0-2-.9-2-2z" fill="#d5dbe1"/><path d="m12 11c0-.19.049-.365.125-.526-.2-.425-.625-.724-1.125-.724-.69 0-1.25.56-1.25 1.25s.56 1.25 1.25 1.25c.5 0 .925-.299 1.125-.724-.076-.161-.125-.336-.125-.526z" fill="#d5dbe1"/><path d="m26 14c0-.19.049-.365.125-.526-.2-.425-.625-.724-1.125-.724-.69 0-1.25.56-1.25 1.25s.56 1.25 1.25 1.25c.5 0 .925-.299 1.125-.724-.076-.161-.125-.336-.125-.526z" fill="#00b871"/><path d="m20 25c0-.19.049-.365.125-.526-.2-.425-.625-.724-1.125-.724-.69 0-1.25.56-1.25 1.25s.56 1.25 1.25 1.25c.5 0 .925-.299 1.125-.724-.076-.161-.125-.336-.125-.526z" fill="#00b871"/><path d="m9 11.062c0-1.984 1.328-3.637 3.125-4.14-.361-.101-.733-.172-1.125-.172-2.347 0-4.25 1.931-4.25 4.312 0 3.551 4.25 7.188 4.25 7.188s.486-.419 1.125-1.102c-1.259-1.344-3.125-3.73-3.125-6.086z" fill="#00b871"/><path d="m27.25 30h-15.5c-1.517 0-2.75-1.233-2.75-2.75v-5.5h1.5v5.5c0 .689.561 1.25 1.25 1.25h15.5c.689 0 1.25-.561 1.25-1.25v-15.5c0-.689-.561-1.25-1.25-1.25h-8.5v-1.5h8.5c1.517 0 2.75 1.233 2.75 2.75v15.5c0 1.517-1.233 2.75-2.75 2.75z"/><path d="m25 16c-1.103 0-2-.897-2-2s.897-2 2-2 2 .897 2 2-.897 2-2 2zm0-2.5c-.275 0-.5.224-.5.5s.225.5.5.5.5-.224.5-.5-.225-.5-.5-.5z"/><path d="m19 27c-1.103 0-2-.897-2-2s.897-2 2-2 2 .897 2 2-.897 2-2 2zm0-2.5c-.275 0-.5.224-.5.5s.225.5.5.5.5-.224.5-.5-.225-.5-.5-.5z"/><path d="m11 19c-.174 0-.348-.06-.487-.18-.185-.158-4.513-3.905-4.513-7.758 0-2.791 2.243-5.062 5-5.062s5 2.271 5 5.062c0 3.853-4.328 7.6-4.513 7.757-.139.121-.313.181-.487.181zm0-11.5c-1.93 0-3.5 1.598-3.5 3.562 0 2.482 2.436 5.126 3.5 6.164 1.064-1.037 3.5-3.682 3.5-6.164 0-1.964-1.57-3.562-3.5-3.562z"/><path d="m11 13c-1.103 0-2-.897-2-2s.897-2 2-2 2 .897 2 2-.897 2-2 2zm0-2.5c-.275 0-.5.224-.5.5s.225.5.5.5.5-.224.5-.5-.225-.5-.5-.5z"/><path d="m17.871 25.187-2.678-2.253.966-1.147 2.678 2.253zm-4.591-3.864-2.678-2.253.966-1.147 2.678 2.253z"/><path d="m20.717 23.334-1.31-.731 1.707-3.056 1.31.731zm2.927-5.237-1.31-.731 1.707-3.056 1.31.731z"/></svg>