<svg id="_x31__x2C_5" height="512" viewBox="0 0 36 36" width="512" xmlns="http://www.w3.org/2000/svg"><path d="m4.167 8.377c0 6.917-3.583 11.667-3.583 15s1.916 10.333 17.249 10.333 17.583-9.417 17.583-13.083c.001-17.167-31.249-24.5-31.249-12.25z" fill="#efefef"/><path d="m30.5 9.25c-.827 0-1.5-.673-1.5-1.5s.673-1.5 1.5-1.5 1.5.673 1.5 1.5-.673 1.5-1.5 1.5zm0-2c-.276 0-.5.224-.5.5s.224.5.5.5.5-.224.5-.5-.224-.5-.5-.5z" fill="#a4afc1"/><path d="m24.12 19.51c.69-1.39 1.13-2.77 1.13-4.01 0-4.83-3.92-8.75-8.75-8.75s-8.75 3.92-8.75 8.75c0 6.5 8.75 13.75 8.75 13.75s.86-.81 2.05-2.1z" fill="#2fdf84"/><circle cx="16.5" cy="15" fill="#f3f3f1" r="4.25"/><path d="m9.75 15.5c0-4.491 3.391-8.191 7.75-8.689-.329-.037-.661-.061-1-.061-4.83 0-8.75 3.92-8.75 8.75 0 6.5 8.75 13.75 8.75 13.75s.367-.347.948-.94c-2.318-2.156-7.698-7.706-7.698-12.81z" fill="#00b871"/><path d="m16.5 20c-2.757 0-5-2.243-5-5s2.243-5 5-5 5 2.243 5 5-2.243 5-5 5zm0-8.5c-1.93 0-3.5 1.57-3.5 3.5s1.57 3.5 3.5 3.5 3.5-1.57 3.5-3.5-1.57-3.5-3.5-3.5z"/><path d="m16.5 30c-.169 0-.339-.057-.479-.172-.368-.306-9.021-7.553-9.021-14.328 0-5.238 4.262-9.5 9.5-9.5s9.5 4.262 9.5 9.5c0 1.268-.406 2.729-1.208 4.343l-.333.672-1.344-.667.333-.672c.698-1.406 1.052-2.643 1.052-3.676 0-4.411-3.589-8-8-8s-8 3.589-8 8c0 5.199 6.143 11.091 7.971 12.73.361-.359.899-.907 1.527-1.588l.508-.551 1.103 1.017-.508.551c-1.194 1.295-2.051 2.104-2.087 2.138-.144.135-.328.203-.514.203z"/><path d="m24.5 30c-.551 0-1-.449-1-1s.449-1 1-1 1 .449 1 1-.449 1-1 1z"/><path d="m26.244 27.802-.46-.592c-.713-.916-1.854-.916-2.566 0l-.46.592-1.184-.921.46-.592c.636-.819 1.536-1.289 2.466-1.289s1.83.47 2.467 1.29l.46.592z"/><path d="m28.117 25.802-.459-.592c-.856-1.103-1.978-1.71-3.158-1.71s-2.302.607-3.158 1.71l-.459.592-1.185-.919.46-.593c1.129-1.455 2.712-2.29 4.342-2.29s3.213.835 4.342 2.29l.46.593z"/></svg>