<svg enable-background="new 0 0 36 36" height="512" viewBox="0 0 36 36" width="512" xmlns="http://www.w3.org/2000/svg"><g id="BG"><path d="m8.377 4.167c6.917 0 11.667-3.583 15-3.583s10.333 1.916 10.333 17.249-9.417 17.583-13.083 17.583c-17.167.001-24.5-31.249-12.25-31.249z" fill="#efefef"/></g><g id="effect"><g><path d="m12.875 3.539h2v1h-2z" fill="#a4afc1"/></g><g><path d="m7.125 3.539h2v1h-2z" fill="#a4afc1"/></g><g><path d="m10.625.039h1v2h-1z" fill="#a4afc1"/></g><path d="m28.194 17.625c-.827 0-1.5-.673-1.5-1.5s.673-1.5 1.5-1.5 1.5.673 1.5 1.5-.673 1.5-1.5 1.5zm0-2c-.275 0-.5.225-.5.5s.225.5.5.5.5-.225.5-.5-.224-.5-.5-.5z" fill="#a4afc1"/></g><g id="color"><path d="m19.53 16.75h-11.28v3.5 7h3.5 3.48 7.52v-6.95-3.55z" fill="#f3f3f1"/><path d="m25.25 20.3h-2.5v6.95h1 3.479 2.021v-2.95c0-2.209-1.791-4-4-4z" fill="#2fdf84"/><circle cx="13.5" cy="27.5" fill="#f3f3f1" r="1.75"/><circle cx="25.5" cy="27.5" fill="#f3f3f1" r="1.75"/><path d="m15.25 11.062c0 3.551-4.25 7.188-4.25 7.188s-4.25-3.636-4.25-7.188c0-2.381 1.903-4.312 4.25-4.312s4.25 1.931 4.25 4.312z" fill="#2fdf84"/><circle cx="11" cy="11" fill="#f3f3f1" r="1.25"/></g><g id="shadow"><path d="m10.5 16.75h-2.25v3.5 7h2.25v-7z" fill="#d5dbe1"/><path d="m22.75 20.3v6.95h1 1.25v-6.95z" fill="#00b871"/><path d="m14 27.5c0-.536.246-1.009.625-1.33-.305-.258-.694-.42-1.125-.42-.966 0-1.75.784-1.75 1.75s.784 1.75 1.75 1.75c.431 0 .82-.162 1.125-.42-.379-.321-.625-.794-.625-1.33z" fill="#d5dbe1"/><path d="m26 27.5c0-.536.246-1.009.625-1.33-.305-.258-.694-.42-1.125-.42-.966 0-1.75.784-1.75 1.75s.784 1.75 1.75 1.75c.431 0 .82-.162 1.125-.42-.379-.321-.625-.794-.625-1.33z" fill="#d5dbe1"/><path d="m9 11.062c0-1.984 1.328-3.637 3.125-4.14-.361-.101-.733-.172-1.125-.172-2.347 0-4.25 1.931-4.25 4.312 0 3.551 4.25 7.188 4.25 7.188s.486-.419 1.125-1.102c-1.259-1.344-3.125-3.73-3.125-6.086z" fill="#00b871"/></g><g id="reg"><path d="m11 19c-.174 0-.348-.06-.487-.18-.185-.158-4.513-3.905-4.513-7.758 0-2.791 2.243-5.062 5-5.062s5 2.271 5 5.062c0 3.853-4.328 7.6-4.513 7.758-.139.12-.313.18-.487.18zm0-11.5c-1.93 0-3.5 1.598-3.5 3.562 0 2.482 2.436 5.127 3.5 6.164 1.064-1.037 3.5-3.682 3.5-6.164 0-1.964-1.57-3.562-3.5-3.562z"/><path d="m11 13c-1.103 0-2-.897-2-2s.897-2 2-2 2 .897 2 2-.897 2-2 2zm0-2.5c-.275 0-.5.225-.5.5s.225.5.5.5.5-.225.5-.5-.225-.5-.5-.5z"/><path d="m11.75 28h-3.5c-.414 0-.75-.336-.75-.75v-7h1.5v6.25h2.75z"/><path d="m22.75 28h-7.52v-1.5h6.77v-9h-6v-1.5h6.75c.414 0 .75.336.75.75v10.5c0 .414-.336.75-.75.75z"/><path d="m29.25 28h-2.021v-1.5h1.271v-2.2c0-1.792-1.458-3.25-3.25-3.25h-1.75v5.45h.25v1.5h-1c-.414 0-.75-.336-.75-.75v-6.95c0-.414.336-.75.75-.75h2.5c2.619 0 4.75 2.131 4.75 4.75v2.95c0 .414-.336.75-.75.75z"/><path d="m13.5 30c-1.379 0-2.5-1.121-2.5-2.5s1.121-2.5 2.5-2.5 2.5 1.121 2.5 2.5-1.121 2.5-2.5 2.5zm0-3.5c-.552 0-1 .448-1 1s.448 1 1 1 1-.448 1-1-.448-1-1-1z"/><path d="m25.5 30c-1.379 0-2.5-1.121-2.5-2.5s1.121-2.5 2.5-2.5 2.5 1.121 2.5 2.5-1.121 2.5-2.5 2.5zm0-3.5c-.552 0-1 .448-1 1s.448 1 1 1 1-.448 1-1-.448-1-1-1z"/></g></svg>