<svg enable-background="new 0 0 36 36" height="512" viewBox="0 0 36 36" width="512" xmlns="http://www.w3.org/2000/svg"><g id="Layer_2"><g><path d="m1.063 15.108c3.655 5.872 3.123 11.798 4.885 14.628s7.088 7.76 20.105-.343 9.951-17.286 8.014-20.399c-9.072-14.574-39.477-4.286-33.004 6.114z" fill="#efefef"/></g></g><g id="color"><g><path d="m26.25 15c0 6-8.25 14.25-8.25 14.25s-8.25-8.25-8.25-14.25c0-4.556 3.694-8.25 8.25-8.25s8.25 3.694 8.25 8.25z" fill="#f3f3f1"/></g><g><path d="m12 15c0-4.174 3.102-7.614 7.125-8.164-.369-.051-.742-.086-1.125-.086-4.556 0-8.25 3.694-8.25 8.25 0 6 8.25 14.25 8.25 14.25s.45-.453 1.125-1.202c-2.252-2.498-7.125-8.431-7.125-13.048z" fill="#d5dbe1"/></g><g><g><path d="m3.967 8.445h2v1h-2z" fill="#a4afc1" transform="matrix(.707 -.707 .707 .707 -4.87 6.132)"/></g><g><path d="m8.033 4.379h2v1h-2z" fill="#a4afc1" transform="matrix(.707 -.707 .707 .707 -.804 7.816)"/></g><g><path d="m8.533 8.121h1v2h-1z" fill="#a4afc1" transform="matrix(.707 -.707 .707 .707 -3.804 9.054)"/></g><g><path d="m4.467 4.055h1v2h-1z" fill="#a4afc1" transform="matrix(.707 -.707 .707 .707 -2.12 4.993)"/></g></g><g><path d="m13 32.5c-.827 0-1.5-.673-1.5-1.5s.673-1.5 1.5-1.5 1.5.673 1.5 1.5-.673 1.5-1.5 1.5zm0-2c-.275 0-.5.225-.5.5s.225.5.5.5.5-.225.5-.5-.224-.5-.5-.5z" fill="#a4afc1"/></g></g><g id="line"><g><g><path d="m18.38 19.5h-2.13v-1.5h2.13c.342 0 .62-.278.62-.62 0-.352-.278-.63-.62-.63h-.76c-1.169 0-2.12-.951-2.12-2.12 0-1.179.951-2.13 2.12-2.13h2.13v1.5h-2.13c-.341 0-.62.278-.62.62 0 .352.278.63.62.63h.76c1.169 0 2.12.951 2.12 2.12 0 1.179-.951 2.13-2.12 2.13z"/></g><g><path d="m17.25 11.75h1.5v1.5h-1.5z"/></g><g><path d="m17.25 18.75h1.5v1.5h-1.5z"/></g></g><g><path d="m18 30c-.192 0-.384-.073-.53-.22-.346-.346-8.47-8.541-8.47-14.78 0-4.963 4.037-9 9-9s9 4.037 9 9c0 6.239-8.124 14.435-8.47 14.78-.146.146-.337.22-.53.22zm0-22.5c-4.136 0-7.5 3.364-7.5 7.5 0 4.762 5.709 11.247 7.5 13.165 1.791-1.918 7.5-8.403 7.5-13.165 0-4.136-3.364-7.5-7.5-7.5z"/></g></g></svg>