<svg id="_x31__x2C_5" enable-background="new 0 0 36 36" height="512" viewBox="0 0 36 36" width="512" xmlns="http://www.w3.org/2000/svg"><path d="m27.623 31.833c-6.917 0-11.667 3.583-15 3.583s-10.333-1.916-10.333-17.249 9.417-17.584 13.083-17.584c17.167 0 24.5 31.25 12.25 31.25z" fill="#efefef"/><g fill="#a4afc1"><path d="m28.467 1.967h1v2h-1z" transform="matrix(.707 -.707 .707 .707 6.383 21.348)"/><path d="m32.533 6.033h1v2h-1z" transform="matrix(.707 -.707 .707 .707 4.699 25.413)"/><path d="m31.856 2.467h2v1h-2z" transform="matrix(.707 -.707 .707 .707 7.525 24.102)"/></g><path d="m14 10.75-7.25-2v18.5l7.25 2 8-4 7.25 2v-18.5l-7.25-2z" fill="#f3f3f1"/><circle cx="25" cy="18" fill="#2fdf84" r="1.25"/><path d="m9 27.25v-17.879l-2.25-.621v18.5l7.25 2 .8-.4z" fill="#d5dbe1"/><path d="m26 18c0-.19.049-.365.125-.526-.2-.425-.625-.724-1.125-.724-.69 0-1.25.56-1.25 1.25s.56 1.25 1.25 1.25c.5 0 .925-.299 1.125-.724-.076-.161-.125-.336-.125-.526z" fill="#00b871"/><path d="m14 30c-.066 0-.134-.009-.199-.027l-7.25-2c-.325-.09-.551-.386-.551-.723v-18.5c0-.234.109-.455.296-.597.186-.142.428-.19.653-.126l6.973 1.924 7.743-3.872c.165-.082.356-.101.534-.052l7.25 2c.325.09.551.386.551.723v18.5c0 .234-.109.455-.296.597-.187.141-.429.187-.653.126l-6.973-1.924-7.743 3.872c-.105.052-.22.079-.335.079zm-6.5-3.321 6.422 1.772 7.743-3.872c.165-.082.356-.101.534-.052l6.301 1.738v-16.944l-6.422-1.772-7.743 3.872c-.164.083-.355.102-.534.052l-6.301-1.738z"/><path d="m13.25 21.75h1.5v7.5h-1.5z"/><path d="m13.25 10.75h1.5v2.5h-1.5z"/><path d="m21.25 6.75h1.5v7.5h-1.5z"/><path d="m21.25 23.75h1.5v1.5h-1.5z"/><path d="m6.176 22.142-.317-1.466 2.023-.437c.177-.032.317-.08.445-.148l.661-.354.708 1.323-.662.354c-.267.143-.557.243-.862.297zm10.911-.39-.55-.51c-.049-.046-.096-.094-.141-.143l-1.759-1.932 1.109-1.01 1.758 1.931.55.51zm3.284-.308-.612-1.369 3.195-1.428.612 1.369zm-9.383-2.913-1.152-.961.48-.576c.577-.692 1.495-1.058 2.425-.985l.747.062-.122 1.495-.866-.066c-.408 0-.794.17-1.031.456z"/><path d="m25 20c-1.103 0-2-.897-2-2s.897-2 2-2 2 .897 2 2-.897 2-2 2zm0-2.5c-.275 0-.5.224-.5.5s.225.5.5.5.5-.224.5-.5-.225-.5-.5-.5z"/></svg>