<svg id="_x31__x2C_5" enable-background="new 0 0 36 36" height="512" viewBox="0 0 36 36" width="512" xmlns="http://www.w3.org/2000/svg"><path d="m8.377 31.833c6.917 0 11.667 3.583 15 3.583s10.333-1.916 10.333-17.249-9.417-17.584-13.083-17.584c-17.167 0-24.5 31.25-12.25 31.25z" fill="#efefef"/><g fill="#a4afc1"><path d="m26.533 8.033h1v2h-1z" transform="matrix(.707 -.707 .707 .707 1.528 21.757)"/><path d="m22.467 3.967h1v2h-1z" transform="matrix(.707 -.707 .707 .707 3.212 17.691)"/><path d="m26.033 4.644h2v1h-2z" transform="matrix(.707 -.707 .707 .707 4.281 20.622)"/></g><path d="m15.25 11.063c0 3.551-4.25 7.188-4.25 7.188s-4.25-3.636-4.25-7.188c0-2.382 1.903-4.313 4.25-4.313s4.25 1.931 4.25 4.313z" fill="#2fdf84"/><circle cx="11" cy="11" fill="#f3f3f1" r="1.25"/><path d="m29.25 17.75v5.5h-7.5l2-2.75-2-2.75z" fill="#f3f3f1"/><path d="m9 11.063c0-1.984 1.328-3.637 3.125-4.14-.361-.102-.733-.173-1.125-.173-2.347 0-4.25 1.931-4.25 4.313 0 3.551 4.25 7.188 4.25 7.188s.486-.419 1.125-1.102c-1.259-1.345-3.125-3.731-3.125-6.086z" fill="#00b871"/><path d="m12 11c0-.19.049-.365.125-.526-.2-.425-.625-.724-1.125-.724-.69 0-1.25.56-1.25 1.25s.56 1.25 1.25 1.25c.5 0 .925-.299 1.125-.724-.076-.161-.125-.336-.125-.526z" fill="#d5dbe1"/><path d="m24 17.75h-2.25l2 2.75-2 2.75h2.25l2-2.75z" fill="#d5dbe1"/><path d="m11 19c-.174 0-.348-.06-.487-.18-.185-.158-4.513-3.905-4.513-7.757 0-2.792 2.243-5.063 5-5.063s5 2.271 5 5.063c0 3.853-4.328 7.6-4.513 7.757-.139.12-.313.18-.487.18zm0-11.5c-1.93 0-3.5 1.598-3.5 3.563 0 2.482 2.436 5.126 3.5 6.164 1.064-1.037 3.5-3.682 3.5-6.164 0-1.965-1.57-3.563-3.5-3.563z"/><path d="m11 13c-1.103 0-2-.897-2-2s.897-2 2-2 2 .897 2 2-.897 2-2 2zm0-2.5c-.275 0-.5.224-.5.5s.225.5.5.5.5-.224.5-.5-.225-.5-.5-.5z"/><path d="m30 30h-1.5v-6h-6.75c-.282 0-.54-.158-.668-.41s-.104-.553.062-.781l1.679-2.309-1.679-2.309c-.166-.228-.189-.53-.062-.781s.386-.41.668-.41h7.5c.414 0 .75.336.75.75zm-6.777-7.5h5.277v-4h-5.277l1.134 1.559c.191.263.191.619 0 .882z"/><path d="m29.25 30h-19.75c-1.93 0-3.5-1.57-3.5-3.5s1.57-3.5 3.5-3.5h6c1.103 0 2-.897 2-2s-.897-2-2-2h-4.25v-1.5h4.25c1.93 0 3.5 1.57 3.5 3.5s-1.57 3.5-3.5 3.5h-6c-1.103 0-2 .897-2 2s.897 2 2 2h19.75z"/></svg>