<svg enable-background="new 0 0 36 36" height="512" viewBox="0 0 36 36" width="512" xmlns="http://www.w3.org/2000/svg"><g id="BG"><g><path d="m34.904 20.355c-3.782-5.791-3.38-11.727-5.203-14.518s-7.256-7.603-20.093.782-9.572 17.5-7.566 20.569c9.388 14.372 39.561 3.423 32.862-6.833z" fill="#efefef"/></g></g><g id="Color"><g><path d="m17.586 29.03-4.288-6.34c-.186-.275-.496-.44-.828-.44h-2.72c-1.105 0-2-.895-2-2v-8.5c0-1.105.895-2 2-2h3.25l.947-1.894c.339-.678 1.031-1.106 1.789-1.106h4.528c.758 0 1.45.428 1.789 1.106l.947 1.894h3.25c1.105 0 2 .895 2 2v8.5c0 1.105-.895 2-2 2h-2.719c-.332 0-.642.165-.828.44l-4.288 6.34h-.004c-.09.13-.24.22-.41.22s-.32-.09-.41-.22z" fill="#f3f3f1"/></g><g><g><path d="m16.197 7.856c.339-.678 1.031-1.106 1.789-1.106h-2.25c-.758 0-1.45.428-1.789 1.106l-.947 1.894h2.25z" fill="#d5dbe1"/></g><g><path d="m10 20.25v-8.5c0-1.105.895-2 2-2h-2.25c-1.105 0-2 .895-2 2v8.5c0 1.105.895 2 2 2h2.25c-1.105 0-2-.895-2-2z" fill="#d5dbe1"/></g><g><path d="m15.548 22.69c-.186-.275-.496-.44-.828-.44h-2.25c.332 0 .642.165.828.44l4.288 6.34h.004c.09.13.24.22.41.22s.32-.09.41-.22h.005l.711-1.051z" fill="#d5dbe1"/></g></g><g><circle cx="18" cy="16" fill="#2fdf84" r="4.25"/></g><g><path d="m16 16c0-1.955 1.328-3.585 3.125-4.08-.361-.099-.733-.17-1.125-.17-2.347 0-4.25 1.903-4.25 4.25s1.903 4.25 4.25 4.25c.392 0 .764-.07 1.125-.17-1.797-.495-3.125-2.125-3.125-4.08z" fill="#00b871"/></g><g><g><path d="m14.271 30.725h2v1h-2z" fill="#a4afc1"/></g><g><path d="m20.021 30.725h2v1h-2z" fill="#a4afc1"/></g><g><path d="m17.521 33.225h1v2h-1z" fill="#a4afc1"/></g></g><g><path d="m6.139 7.125c-.827 0-1.5-.673-1.5-1.5s.673-1.5 1.5-1.5 1.5.673 1.5 1.5-.673 1.5-1.5 1.5zm0-2c-.275 0-.5.224-.5.5s.225.5.5.5.5-.224.5-.5-.225-.5-.5-.5z" fill="#a4afc1"/></g></g><g id="regular_1.5"><g><path d="m18 21c-2.757 0-5-2.243-5-5s2.243-5 5-5 5 2.243 5 5-2.243 5-5 5zm0-8.5c-1.93 0-3.5 1.57-3.5 3.5s1.57 3.5 3.5 3.5 3.5-1.57 3.5-3.5-1.57-3.5-3.5-3.5z"/></g><g><path d="m18 30c-.408 0-.793-.204-1.027-.544l1.025-.707-.205-.139.022-.033c-.008.009-.016.018-.022.028.012-.017.024-.034.038-.05l4.25-6.284c.326-.482.868-.77 1.449-.77h2.72c.689 0 1.25-.561 1.25-1.25v-8.5c0-.689-.561-1.25-1.25-1.25h-3.25c-.284 0-.544-.161-.671-.415l-.947-1.895c-.213-.426-.642-.691-1.118-.691h-4.527c-.477 0-.905.265-1.118.691l-.947 1.895c-.128.253-.388.414-.672.414h-3.25c-.689 0-1.25.561-1.25 1.25v.856h-1.5v-.856c0-1.517 1.233-2.75 2.75-2.75h2.786l.74-1.48c.47-.937 1.412-1.52 2.46-1.52h4.527c1.048 0 1.99.583 2.46 1.52l.741 1.48h2.786c1.517 0 2.75 1.233 2.75 2.75v8.5c0 1.517-1.233 2.75-2.75 2.75h-2.72c-.083 0-.16.042-.207.11l-4.288 6.34c-.021.031-.044.06-.069.087-.237.292-.591.463-.966.463z"/></g><g><path d="m16.965 29.45-4.288-6.34c-.047-.068-.124-.11-.207-.11h-2.72c-1.517 0-2.75-1.234-2.75-2.75v-4.69h1.5v4.69c0 .689.561 1.25 1.25 1.25h2.72c.581 0 1.123.288 1.449.77l4.288 6.34z"/></g></g></svg>