<svg fill="none" height="512" viewBox="0 0 36 36" width="512" xmlns="http://www.w3.org/2000/svg"><path d="m28.8032 24.7622c2.6899-4.3039.2241-13.4495-1.345-17.48438-4.0348-8.74217-14.2701-2.02775-15.4669 2.01744-1.7065 5.76764-.6725 8.06974-3.3624 10.08714-2.68991 2.0174-5.3798 3.3624-2.6899 9.4146 2.6899 6.0523 8.7422 4.7074 10.7596 1.345s8.7422 0 12.1046-5.3798z" fill="#efefef"/><g clip-rule="evenodd" fill-rule="evenodd"><path d="m29.5 28.9105v-2h1v2z" fill="#90a4ad"/><path d="m29.5 33.9105v-2h1v2z" fill="#90a4ad"/><path d="m31.5 29.9105h2v1h-2z" fill="#90a4ad"/><path d="m26.5 29.9105h2v1h-2z" fill="#90a4ad"/><path d="m20.5826 8.32003c-.0826.0686-.1463.18512-.1463.32952 0 1.24553-1.0097 2.25525-2.2553 2.25525-1.2455 0-2.2552-1.00972-2.2552-2.25525 0-.1444-.0638-.26092-.1464-.32952-.077-.06398-.1664-.08612-.2668-.05772-.7733.21863-1.5079.53003-2.191.92159-.0684.03923-.1038.09774-.1108.1746-.0076.08339.0213.18417.1031.26594.8807.88076.8807 2.30866 0 3.18936-.8808.8808-2.3087.8808-3.1894 0-.0818-.0817-.18258-.1107-.26597-.1031-.07687.0071-.13538.0424-.17461.1109-.39156.6831-.70297 1.4176-.9216 2.191-.02841.1004-.00626.1898.05771.2668.06861.0826.18513.1464.32953.1464 1.24554 0 2.25524 1.0097 2.25524 2.2552s-1.0097 2.2553-2.25524 2.2553c-.14441 0-.26094.0637-.32954.1463-.06396.077-.08611.1664-.05771.2668.24389.8627.60324 1.6772 1.06053 2.4257l-.6296.3846.6296-.3846c.04028.066.09899.1001.17532.1061.08254.0064.18134-.0229.26144-.103.907-.907 2.3774-.907 3.2844 0 .9264.9264.9035 2.4354-.0506 3.3334-.0389.0366-.0492.0785-.0464.1084.0013.0144.0053.0231.008.0274.0019.0028.0062.0092.0209.0173l-.3611.6574.3611-.6574c.639.3511 1.3213.6328 2.0367.835.1005.0284.1898.0063.2668-.0577.0826-.0686.1464-.1851.1464-.3295h1.5c0 1.1591-1.0613 2.1868-2.3212 1.8306-.8262-.2335-1.6137-.5587-2.351-.9637-1.0044-.5518-1.0342-1.8581-.2882-2.5602.3379-.3179.346-.8523.0179-1.1804-.3212-.3211-.8419-.3211-1.163 0-.7694.7694-2.14196.7587-2.77752-.2817l.64003-.391-.64003.391c-.5274-.8634-.94226-1.8034-1.2239-2.7996-.35618-1.2599.67152-2.3212 1.83068-2.3212.41711 0 .75524-.3382.75524-.7553s-.33813-.7552-.75524-.7552c-1.15919 0-2.18685-1.0614-1.83067-2.3213.25247-.893.61199-1.7409 1.06367-2.5289.6179-1.0779 2.02064-1.1044 2.80254-.3224.295.2949.7732.2949 1.0681 0 .2949-.295.2949-.7732 0-1.0681-.7819-.78193-.7555-2.18467.3224-2.80256.788-.45168 1.6359-.8112 2.5289-1.06366 1.2599-.35618 2.3213.67148 2.3213 1.83067 0 .41711.3381.75524.7552.75524s.7553-.33813.7553-.75524c0-1.15919 1.0613-2.18685 2.3212-1.83067.893.25246 1.7409.61198 2.5289 1.06366l-.3671.64032.3671-.64032c1.0779.61789 1.1044 2.02063.3224 2.80256-.2949.2949-.2949.7731 0 1.0681.295.2949.7732.2949 1.0681 0 .7819-.782 2.1847-.7555 2.8026.3224.4517.788.8112 1.6359 1.0636 2.5289l-.7217.204.7217-.204c.3562 1.2599-.6714 2.3213-1.8306 2.3213-.2491 0-.47.1197-.6088.308l-1.2074-.8899c.4093-.5554 1.0705-.9181 1.8162-.9181.1444 0 .2609-.0638.3295-.1464.064-.077.0861-.1664.0577-.2668-.2186-.7734-.53-1.5079-.9216-2.191-.0392-.0685-.0977-.1038-.1746-.1109-.0834-.0076-.1842.0214-.2659.1031l-.5304-.5303.5304.5303c-.8808.8808-2.3087.8808-3.1894 0-.8808-.8807-.8808-2.3086 0-3.18937.0817-.08176.1107-.18254.1031-.26593-.0071-.07686-.0424-.13537-.1109-.1746l.373-.65068-.373.65068c-.6831-.39156-1.4176-.70296-2.191-.92159-.1004-.0284-.1897-.00626-.2668.05772z" fill="#000"/><path d="m14.7333 16.1212c.6106-.3221.8445-1.0782.5224-1.6888l1.3267-.6998c.7086 1.3433.1941 3.0068-1.1493 3.7153z" fill="#000"/></g><path d="m26.5 22.5c0 1.933-3.5 6-3.5 6s-3.5-4.067-3.5-6 1.567-3.5 3.5-3.5 3.5 1.567 3.5 3.5z" fill="#2edf84"/><path clip-rule="evenodd" d="m23.75 19.0805c-1.5726.3434-2.75 1.7439-2.75 3.4195 0 1.3557 1.7217 3.7612 2.75 5.077-.4379.5603-.75.923-.75.923s-3.5-4.067-3.5-6 1.567-3.5 3.5-3.5c.2574 0 .5084.0278.75.0805z" fill="#00b872" fill-rule="evenodd"/><path clip-rule="evenodd" d="m23 19.75c-1.5188 0-2.75 1.2312-2.75 2.75 0 .2982.1485.7822.467 1.4163.3059.6087.7215 1.2659 1.1488 1.8804.4082.5871.8178 1.122 1.1342 1.5204.3164-.3984.726-.9333 1.1342-1.5204.4273-.6145.8429-1.2717 1.1488-1.8804.3185-.6341.467-1.1181.467-1.4163 0-1.5188-1.2312-2.75-2.75-2.75zm0 8.75c-.5685.4892-.5685.4891-.5686.489l-.001-.001-.0023-.0028-.0085-.0099-.0312-.0367c-.0269-.0318-.0659-.0781-.1152-.1373-.0987-.1185-.2387-.289-.4065-.4994-.3348-.4199-.7829-1.0023-1.2325-1.6489-.4477-.6438-.9071-1.3659-1.2575-2.0633-.3377-.6722-.6267-1.4214-.6267-2.0897 0-2.3472 1.9028-4.25 4.25-4.25s4.25 1.9028 4.25 4.25c0 .6683-.289 1.4175-.6267 2.0897-.3504.6974-.8098 1.4195-1.2575 2.0633-.4496.6466-.8977 1.229-1.2325 1.6489-.1678.2104-.3078.3809-.4065.4994-.0493.0592-.0883.1055-.1152.1373l-.0312.0367-.0085.0099-.003.0036c-.0001.0001-.0004.0004-.5689-.4888zm0 0 .5689.4888c-.1425.1655-.3505.2612-.5689.2612s-.4262-.0954-.5686-.261z" fill="#000" fill-rule="evenodd"/><path d="m24 22.5c0 .5523-.4477 1-1 1s-1-.4477-1-1 .4477-1 1-1 1 .4477 1 1z" fill="#f3f3f1"/><path clip-rule="evenodd" d="m23 22.25c-.1381 0-.25.1119-.25.25s.1119.25.25.25.25-.1119.25-.25-.1119-.25-.25-.25zm-1.75.25c0-.9665.7835-1.75 1.75-1.75s1.75.7835 1.75 1.75-.7835 1.75-1.75 1.75-1.75-.7835-1.75-1.75z" fill="#000" fill-rule="evenodd"/></svg>