<svg id="_x31__x2C_5" enable-background="new 0 0 36 36" height="512" viewBox="0 0 36 36" width="512" xmlns="http://www.w3.org/2000/svg"><path d="m8.377 4.167c6.917 0 11.667-3.583 15-3.583s10.333 1.916 10.333 17.249-9.417 17.583-13.083 17.583c-17.167.001-24.5-31.249-12.25-31.249z" fill="#efefef"/><g fill="#a4afc1"><path d="m6.033 2.467h2v1h-2z" transform="matrix(.707 -.707 .707 .707 -.038 5.842)"/><path d="m1.967 6.533h2v1h-2z" transform="matrix(.707 -.707 .707 .707 -4.104 4.158)"/><path d="m2.644 1.967h1v2h-1z" transform="matrix(.707 -.707 .707 .707 -1.177 3.091)"/></g><circle cx="18" cy="18" fill="#f3f3f1" r="11.25"/><circle cx="18" cy="18" fill="#2fdf84" r="8.25"/><circle cx="18" cy="18" fill="#f3f3f1" r="5.25"/><circle cx="18" cy="18" fill="#2fdf84" r="2.25"/><circle cx="25" cy="18" fill="#2fdf84" r="1.25"/><path d="m9 18c0-5.833 4.44-10.629 10.125-11.193-.37-.037-.745-.057-1.125-.057-6.213 0-11.25 5.037-11.25 11.25s5.037 11.25 11.25 11.25c.38 0 .755-.02 1.125-.057-5.685-.564-10.125-5.36-10.125-11.193z" fill="#d5dbe1"/><path d="m12 18c0-4.174 3.102-7.614 7.125-8.164-.369-.051-.742-.086-1.125-.086-4.556 0-8.25 3.694-8.25 8.25s3.694 8.25 8.25 8.25c.383 0 .756-.035 1.125-.086-4.023-.55-7.125-3.99-7.125-8.164z" fill="#00b871"/><path d="m18 18c0-.831.455-1.548 1.125-1.938-.332-.193-.713-.312-1.125-.312-1.243 0-2.25 1.007-2.25 2.25s1.007 2.25 2.25 2.25c.412 0 .793-.119 1.125-.312-.67-.39-1.125-1.107-1.125-1.938z" fill="#00b871"/><path d="m26 18c0-.19.049-.365.125-.526-.2-.425-.625-.724-1.125-.724-.69 0-1.25.56-1.25 1.25s.56 1.25 1.25 1.25c.5 0 .925-.299 1.125-.724-.076-.161-.125-.336-.125-.526z" fill="#00b871"/><path d="m15 18c0-2.512 1.767-4.607 4.125-5.122-.363-.08-.738-.128-1.125-.128-2.899 0-5.25 2.351-5.25 5.25s2.351 5.25 5.25 5.25c.387 0 .762-.048 1.125-.128-2.358-.515-4.125-2.61-4.125-5.122z" fill="#d5dbe1"/><path d="m18 30c-6.617 0-12-5.383-12-12s5.383-12 12-12 12 5.383 12 12-5.383 12-12 12zm0-22.5c-5.79 0-10.5 4.71-10.5 10.5s4.71 10.5 10.5 10.5 10.5-4.71 10.5-10.5-4.71-10.5-10.5-10.5z"/><path d="m18 27c-4.963 0-9-4.038-9-9s4.037-9 9-9c2.401 0 4.662.933 6.368 2.628l-1.057 1.064c-1.422-1.414-3.309-2.192-5.311-2.192-4.136 0-7.5 3.364-7.5 7.5s3.364 7.5 7.5 7.5c2.002 0 3.889-.778 5.312-2.192l1.057 1.064c-1.707 1.695-3.968 2.628-6.369 2.628z"/><path d="m18 24c-3.309 0-6-2.691-6-6s2.691-6 6-6c1.6 0 3.105.625 4.24 1.76l-1.06 1.06c-.852-.852-1.98-1.32-3.18-1.32-2.481 0-4.5 2.019-4.5 4.5s2.019 4.5 4.5 4.5c1.199 0 2.328-.469 3.18-1.32l1.061 1.061c-1.136 1.134-2.641 1.759-4.241 1.759z"/><path d="m18 21c-1.654 0-3-1.346-3-3s1.346-3 3-3c.8 0 1.553.312 2.12.88l-1.06 1.06c-.284-.284-.66-.44-1.06-.44-.827 0-1.5.673-1.5 1.5s.673 1.5 1.5 1.5c.399 0 .775-.156 1.06-.44l1.061 1.061c-.568.567-1.321.879-2.121.879z"/><path d="m16.368 13.31h11.144v1.5h-11.144z" transform="matrix(.707 -.707 .707 .707 -3.516 19.632)"/><path d="m25 20c-1.103 0-2-.897-2-2s.897-2 2-2 2 .897 2 2-.897 2-2 2zm0-2.5c-.275 0-.5.224-.5.5s.225.5.5.5.5-.224.5-.5-.225-.5-.5-.5z"/></svg>