<svg id="_x31__x2C_5" enable-background="new 0 0 36 36" height="512" viewBox="0 0 36 36" width="512" xmlns="http://www.w3.org/2000/svg"><path d="m8.377 31.833c6.917 0 11.667 3.583 15 3.583s10.333-1.916 10.333-17.249-9.417-17.584-13.083-17.584c-17.167 0-24.5 31.25-12.25 31.25z" fill="#efefef"/><g fill="#a4afc1"><path d="m28.467 1.967h1v2h-1z" transform="matrix(.707 -.707 .707 .707 6.383 21.348)"/><path d="m32.533 6.033h1v2h-1z" transform="matrix(.707 -.707 .707 .707 4.699 25.413)"/><path d="m31.856 2.467h2v1h-2z" transform="matrix(.707 -.707 .707 .707 7.525 24.102)"/></g><circle cx="18" cy="18" fill="#f3f3f1" r="9.75"/><circle cx="25" cy="12" fill="#2fdf84" r="1.25"/><circle cx="18" cy="18" fill="#2fdf84" r="6.25"/><circle cx="18" cy="18" fill="#f3f3f1" r="3.25"/><path d="m10.5 18c0-5.004 3.771-9.122 8.625-9.68-.37-.043-.744-.07-1.125-.07-5.385 0-9.75 4.365-9.75 9.75s4.365 9.75 9.75 9.75c.381 0 .755-.027 1.125-.07-4.854-.558-8.625-4.676-8.625-9.68z" fill="#d5dbe1"/><path d="m26 12c0-.19.049-.365.125-.526-.2-.425-.625-.724-1.125-.724-.69 0-1.25.56-1.25 1.25s.56 1.25 1.25 1.25c.5 0 .925-.299 1.125-.724-.076-.161-.125-.336-.125-.526z" fill="#00b871"/><path d="m14 18c0-3.067 2.211-5.613 5.125-6.144-.365-.066-.74-.106-1.125-.106-3.452 0-6.25 2.798-6.25 6.25s2.798 6.25 6.25 6.25c.385 0 .76-.04 1.125-.106-2.914-.531-5.125-3.077-5.125-6.144z" fill="#00b871"/><path d="m18 22c-2.206 0-4-1.794-4-4s1.794-4 4-4 4 1.794 4 4-1.794 4-4 4zm0-6.5c-1.379 0-2.5 1.122-2.5 2.5s1.121 2.5 2.5 2.5 2.5-1.122 2.5-2.5-1.121-2.5-2.5-2.5z"/><path d="m18 25c-3.859 0-7-3.14-7-7s3.141-7 7-7v1.5c-3.032 0-5.5 2.467-5.5 5.5s2.468 5.5 5.5 5.5 5.5-2.467 5.5-5.5h1.5c0 3.86-3.141 7-7 7z"/><path d="m19 17.25h3v1.5h-3z"/><path d="m23 17.25h3v1.5h-3z"/><path d="m6 17.25h3v1.5h-3z"/><path d="m10 17.25h3v1.5h-3z"/><path d="m14 17.25h3v1.5h-3z"/><path d="m17.25 19h1.5v3h-1.5z"/><path d="m17.25 23h1.5v3h-1.5z"/><path d="m17.25 27h1.5v3h-1.5z"/><path d="m17.25 9.75h1.5v3.25h-1.5z"/><path d="m17.25 14.75h1.5v1.5h-1.5z"/><path d="m25 14c-1.103 0-2-.897-2-2s.897-2 2-2 2 .897 2 2-.897 2-2 2zm0-2.5c-.275 0-.5.224-.5.5s.225.5.5.5.5-.224.5-.5-.225-.5-.5-.5z"/><path d="m18 28.5c-5.79 0-10.5-4.71-10.5-10.5 0-5.538 4.31-10.087 9.75-10.474v-1.526h1.5v2.25c0 .414-.336.75-.75.75-4.963 0-9 4.038-9 9s4.037 9 9 9 9-4.038 9-9c0-.414.336-.75.75-.75h2.25v1.5h-1.526c-.386 5.441-4.937 9.75-10.474 9.75z"/></svg>