<svg enable-background="new 0 0 36 36" height="512" viewBox="0 0 36 36" width="512" xmlns="http://www.w3.org/2000/svg"><g id="BG"><g><path d="m1.063 15.394c3.655 5.872 3.123 11.798 4.885 14.628s7.088 7.76 20.105-.343 9.951-17.286 8.014-20.399c-9.072-14.574-39.477-4.286-33.004 6.114z" fill="#efefef"/></g></g><g id="Color"><g><g><path d="m3.556 26.967h1v2h-1z" fill="#a4afc1" transform="matrix(.707 -.707 .707 .707 -18.585 11.055)"/></g><g><path d="m7.621 31.033h1v2h-1z" fill="#a4afc1" transform="matrix(.707 -.707 .707 .707 -20.269 15.12)"/></g><g><path d="m2.879 31.533h2v1h-2z" fill="#a4afc1" transform="matrix(.707 -.707 .707 .707 -21.515 12.125)"/></g></g><g><path d="m31 7.125c-.827 0-1.5-.673-1.5-1.5s.673-1.5 1.5-1.5 1.5.673 1.5 1.5-.673 1.5-1.5 1.5zm0-2c-.275 0-.5.224-.5.5s.225.5.5.5.5-.224.5-.5-.225-.5-.5-.5z" fill="#a4afc1"/></g><g><path d="m13.75 6.75v22.5h-5c-1.1 0-2-.9-2-2v-18.5c0-1.1.9-2 2-2z" fill="#f3f3f1"/></g><g><path d="m13.75 6.75h8.5v22.5h-8.5z" fill="#f3f3f1"/></g><g><path d="m29.25 8.75v5h-7v-7h5c1.1 0 2 .9 2 2z" fill="#f3f3f1"/></g><g><path d="m29.25 22.25v5c0 1.1-.9 2-2 2h-5v-7z" fill="#f3f3f1"/></g><g><path d="m22.25 13.75h7v8.5h-7z" fill="#2fdf84"/></g><g><path d="m9 27.25v-18.5c0-1.1.9-2 2-2h-2.25c-1.1 0-2 .9-2 2v18.5c0 1.1.9 2 2 2h2.25c-1.1 0-2-.9-2-2z" fill="#d5dbe1"/></g><g><path d="m13.75 6.75h2.25v22.5h-2.25z" fill="#d5dbe1"/></g><g><path d="m22.25 6.75h2.25v7h-2.25z" fill="#d5dbe1"/></g><g><path d="m22.25 22.25h2.25v7h-2.25z" fill="#d5dbe1"/></g><g><path d="m22.25 13.75h2.25v8.5h-2.25z" fill="#00b871"/></g></g><g id="Layer_2"><g><path d="m13 6.75h1.5v22.5h-1.5z"/></g><g><path d="m21.5 6.75h1.5v22.5h-1.5z"/></g><g><path d="m28.25 30h-20.5c-.965 0-1.75-.785-1.75-1.75v-20.5c0-.965.785-1.75 1.75-1.75h20.5c.965 0 1.75.785 1.75 1.75v20.5c0 .965-.785 1.75-1.75 1.75zm-20.5-22.5c-.138 0-.25.112-.25.25v20.5c0 .138.112.25.25.25h20.5c.138 0 .25-.112.25-.25v-20.5c0-.138-.112-.25-.25-.25z"/></g><g><path d="m13.75 17.25h8.5v1.5h-8.5z"/></g><g><path d="m22.25 21.5h7v1.5h-7z"/></g><g><path d="m22.25 13h4.5v1.5h-4.5z"/></g></g></svg>