<svg enable-background="new 0 0 36 36" height="512" viewBox="0 0 36 36" width="512" xmlns="http://www.w3.org/2000/svg"><path d="m34.904 20.355c-3.782-5.791-3.38-11.727-5.203-14.518s-7.256-7.603-20.093.782-9.572 17.5-7.566 20.569c9.388 14.372 39.561 3.423 32.862-6.833z" fill="#efefef"/><path d="m23.25 25.25h-15.674c-.456 0-.826-.37-.826-.826v-12.174h18.5v11c0 1.105-.895 2-2 2z" fill="#f3f3f1"/><path d="m22.481 7.265c-.176-.318-.511-.515-.874-.515h-11.214c-.363 0-.698.197-.874.515l-2.769 4.985h18.5z" fill="#2fdf84"/><circle cx="23.5" cy="23.5" fill="#2fdf84" r="5.75"/><path d="m9 24.424v-12.174h-2.25v12.174c0 .456.37.826.826.826h2.25c-.456 0-.826-.37-.826-.826z" fill="#d5dbe1"/><path d="m12.643 6.75h-2.25c-.363 0-.698.197-.874.515l-2.769 4.985h2.25l2.769-4.985c.176-.318.511-.515.874-.515z" fill="#00b871"/><path d="m20 23.5c0-2.79 1.988-5.115 4.625-5.638-.364-.072-.74-.112-1.125-.112-3.176 0-5.75 2.574-5.75 5.75s2.574 5.75 5.75 5.75c.385 0 .761-.039 1.125-.112-2.637-.523-4.625-2.848-4.625-5.638z" fill="#00b871"/><g fill="#a4afc1"><path d="m4.062 8.25c-.827 0-1.5-.673-1.5-1.5s.673-1.5 1.5-1.5 1.5.673 1.5 1.5-.673 1.5-1.5 1.5zm0-2c-.276 0-.5.224-.5.5s.224.5.5.5.5-.224.5-.5-.224-.5-.5-.5z"/><path d="m28.382 6.467h1v2h-1z" transform="matrix(.707 -.707 .707 .707 3.179 22.61)"/><path d="m32.448 10.533h1v2h-1z" transform="matrix(.707 -.707 .707 .707 1.493 26.67)"/><path d="m27.705 11.033h2v1h-2z" transform="matrix(.707 -.707 .707 .707 .253 23.676)"/><path d="m31.771 6.967h2v1h-2z" transform="matrix(.707 -.707 .707 .707 4.318 25.36)"/></g><path d="m24.25 25.25h-1.5v-.241c0-.968.484-1.894 1.327-2.542.265-.203.423-.534.423-.884 0-.598-.449-1.083-1-1.083s-1 .486-1 1.083h-1.5c0-1.424 1.122-2.583 2.5-2.583s2.5 1.159 2.5 2.583c0 .813-.377 1.589-1.009 2.074-.277.212-.741.67-.741 1.352z"/><path d="m23.5 30c-3.584 0-6.5-2.916-6.5-6.5s2.916-6.5 6.5-6.5 6.5 2.916 6.5 6.5-2.916 6.5-6.5 6.5zm0-11.5c-2.757 0-5 2.243-5 5s2.243 5 5 5 5-2.243 5-5-2.243-5-5-5z"/><path d="m15.25 26h-7.674c-.869 0-1.576-.707-1.576-1.576v-12.174c0-.414.336-.75.75-.75h18.5c.414 0 .75.336.75.75v3h-1.5v-2.25h-17v11.424c0 .042.034.076.076.076h7.674z"/><path d="m24.594 12.614-2.769-4.985c-.043-.08-.127-.129-.218-.129h-11.214c-.091 0-.175.049-.219.128l-2.769 4.986-1.312-.729 2.77-4.985c.308-.555.894-.9 1.53-.9h11.214c.636 0 1.222.345 1.53.901l2.769 4.985z"/><path d="m15.25 6.75h1.5v5.5h-1.5z"/><path d="m23.5 28c-.1 0-.19-.02-.29-.06-.09-.04-.17-.09-.24-.16-.14-.14-.22-.33-.22-.53 0-.1.02-.2.06-.29s.09-.17.16-.24.15-.13.24-.16c.28-.12.61-.05.82.16.07.07.12.15.16.24s.06.19.06.29c0 .2-.08.39-.22.53s-.33.22-.53.22z"/></svg>